%TF.GenerationSoftware,KiCad,Pcbnew,8.0.3*%
%TF.CreationDate,2025-06-12T19:15:32+02:00*%
%TF.ProjectId,7Analyzer,37416e61-6c79-47a6-9572-2e6b69636164,rev?*%
%TF.SameCoordinates,Original*%
%TF.FileFunction,Copper,L2,Bot*%
%TF.FilePolarity,Positive*%
%FSLAX46Y46*%
G04 Gerber Fmt 4.6, Leading zero omitted, Abs format (unit mm)*
G04 Created by KiCad (PCBNEW 8.0.3) date 2025-06-12 19:15:32*
%MOMM*%
%LPD*%
G01*
G04 APERTURE LIST*
%TA.AperFunction,ComponentPad*%
%ADD10R,1.700000X1.700000*%
%TD*%
%TA.AperFunction,ComponentPad*%
%ADD11O,1.700000X1.700000*%
%TD*%
%TA.AperFunction,ComponentPad*%
%ADD12C,7.000000*%
%TD*%
%TA.AperFunction,ComponentPad*%
%ADD13R,2.000000X1.200000*%
%TD*%
%TA.AperFunction,ComponentPad*%
%ADD14O,2.000000X1.200000*%
%TD*%
%TA.AperFunction,ComponentPad*%
%ADD15R,1.600000X1.600000*%
%TD*%
%TA.AperFunction,ComponentPad*%
%ADD16C,1.600000*%
%TD*%
%TA.AperFunction,ComponentPad*%
%ADD17O,1.600000X0.900000*%
%TD*%
%TA.AperFunction,ComponentPad*%
%ADD18O,1.000000X2.100000*%
%TD*%
%TA.AperFunction,ComponentPad*%
%ADD19O,1.000000X1.800000*%
%TD*%
%TA.AperFunction,ViaPad*%
%ADD20C,0.800000*%
%TD*%
%TA.AperFunction,Conductor*%
%ADD21C,0.250000*%
%TD*%
%TA.AperFunction,Conductor*%
%ADD22C,1.000000*%
%TD*%
G04 APERTURE END LIST*
D10*
%TO.P,J10,1*%
%TO.N,+5V*%
X27432000Y-102108000D03*
D11*
%TO.P,J10,2*%
%TO.N,/A21*%
X27432000Y-99568000D03*
%TO.P,J10,3*%
%TO.N,GND*%
X27432000Y-97028000D03*
%TD*%
D12*
%TO.P,J2,1*%
%TO.N,GND*%
X28702000Y-17018000D03*
%TD*%
D13*
%TO.P,U1,1,3V3*%
%TO.N,+3.3V*%
X16002000Y-29880560D03*
D14*
%TO.P,U1,2,CHIP_PU*%
%TO.N,unconnected-(U1-CHIP_PU-Pad2)*%
X16002000Y-32420560D03*
%TO.P,U1,3,SENSOR_VP/GPIO36/ADC1_CH0*%
%TO.N,unconnected-(U1-SENSOR_VP{slash}GPIO36{slash}ADC1_CH0-Pad3)*%
X16002000Y-34960560D03*
%TO.P,U1,4,SENSOR_VN/GPIO39/ADC1_CH3*%
%TO.N,unconnected-(U1-SENSOR_VN{slash}GPIO39{slash}ADC1_CH3-Pad4)*%
X16002000Y-37500560D03*
%TO.P,U1,5,VDET_1/GPIO34/ADC1_CH6*%
%TO.N,/A34*%
X16002000Y-40040560D03*
%TO.P,U1,6,VDET_2/GPIO35/ADC1_CH7*%
%TO.N,/A35*%
X16002000Y-42580560D03*
%TO.P,U1,7,32K_XP/GPIO32/ADC1_CH4*%
%TO.N,unconnected-(U1-32K_XP{slash}GPIO32{slash}ADC1_CH4-Pad7)*%
X16002000Y-45120560D03*
%TO.P,U1,8,32K_XN/GPIO33/ADC1_CH5*%
%TO.N,unconnected-(U1-32K_XN{slash}GPIO33{slash}ADC1_CH5-Pad8)*%
X16002000Y-47660560D03*
%TO.P,U1,9,DAC_1/ADC2_CH8/GPIO25*%
%TO.N,unconnected-(U1-DAC_1{slash}ADC2_CH8{slash}GPIO25-Pad9)*%
X16002000Y-50200560D03*
%TO.P,U1,10,DAC_2/ADC2_CH9/GPIO26*%
%TO.N,unconnected-(U1-DAC_2{slash}ADC2_CH9{slash}GPIO26-Pad10)*%
X16002000Y-52740560D03*
%TO.P,U1,11,ADC2_CH7/GPIO27*%
%TO.N,unconnected-(U1-ADC2_CH7{slash}GPIO27-Pad11)*%
X16002000Y-55280560D03*
%TO.P,U1,12,MTMS/GPIO14/ADC2_CH6*%
%TO.N,unconnected-(U1-MTMS{slash}GPIO14{slash}ADC2_CH6-Pad12)*%
X16002000Y-57820560D03*
%TO.P,U1,13,MTDI/GPIO12/ADC2_CH5*%
%TO.N,unconnected-(U1-MTDI{slash}GPIO12{slash}ADC2_CH5-Pad13)*%
X16002000Y-60360560D03*
%TO.P,U1,14,GND*%
%TO.N,GND*%
X16002000Y-62900560D03*
%TO.P,U1,15,MTCK/GPIO13/ADC2_CH4*%
%TO.N,unconnected-(U1-MTCK{slash}GPIO13{slash}ADC2_CH4-Pad15)*%
X16002000Y-65440560D03*
%TO.P,U1,16,SD_DATA2/GPIO9*%
%TO.N,unconnected-(U1-SD_DATA2{slash}GPIO9-Pad16)*%
X16002000Y-67980560D03*
%TO.P,U1,17,SD_DATA3/GPIO10*%
%TO.N,unconnected-(U1-SD_DATA3{slash}GPIO10-Pad17)*%
X16002000Y-70520560D03*
%TO.P,U1,18,CMD*%
%TO.N,unconnected-(U1-CMD-Pad18)*%
X16002000Y-73060560D03*
%TO.P,U1,19,5V*%
%TO.N,+5V*%
X16002000Y-75600560D03*
%TO.P,U1,20,SD_CLK/GPIO6*%
%TO.N,unconnected-(U1-SD_CLK{slash}GPIO6-Pad20)*%
X41398320Y-75597840D03*
%TO.P,U1,21,SD_DATA0/GPIO7*%
%TO.N,unconnected-(U1-SD_DATA0{slash}GPIO7-Pad21)*%
X41398320Y-73057840D03*
%TO.P,U1,22,SD_DATA1/GPIO8*%
%TO.N,unconnected-(U1-SD_DATA1{slash}GPIO8-Pad22)*%
X41402000Y-70520560D03*
%TO.P,U1,23,MTDO/GPIO15/ADC2_CH3*%
%TO.N,/A15*%
X41402000Y-67980560D03*
%TO.P,U1,24,ADC2_CH2/GPIO2*%
%TO.N,unconnected-(U1-ADC2_CH2{slash}GPIO2-Pad24)*%
X41402000Y-65440560D03*
%TO.P,U1,25,GPIO0/BOOT/ADC2_CH1*%
%TO.N,unconnected-(U1-GPIO0{slash}BOOT{slash}ADC2_CH1-Pad25)*%
X41402000Y-62900560D03*
%TO.P,U1,26,ADC2_CH0/GPIO4*%
%TO.N,unconnected-(U1-ADC2_CH0{slash}GPIO4-Pad26)*%
X41402000Y-60360560D03*
%TO.P,U1,27,GPIO16*%
%TO.N,/A16*%
X41402000Y-57820560D03*
%TO.P,U1,28,GPIO17*%
%TO.N,/A17*%
X41402000Y-55280560D03*
%TO.P,U1,29,GPIO5*%
%TO.N,unconnected-(U1-GPIO5-Pad29)*%
X41402000Y-52740560D03*
%TO.P,U1,30,GPIO18*%
%TO.N,/A18*%
X41402000Y-50200560D03*
%TO.P,U1,31,GPIO19*%
%TO.N,/A19*%
X41402000Y-47660560D03*
%TO.P,U1,32,GND*%
%TO.N,GND*%
X41402000Y-45120560D03*
%TO.P,U1,33,GPIO21*%
%TO.N,/A21*%
X41402000Y-42580560D03*
%TO.P,U1,34,U0RXD/GPIO3*%
%TO.N,unconnected-(U1-U0RXD{slash}GPIO3-Pad34)*%
X41402000Y-40040560D03*
%TO.P,U1,35,U0TXD/GPIO1*%
%TO.N,unconnected-(U1-U0TXD{slash}GPIO1-Pad35)*%
X41402000Y-37500560D03*
%TO.P,U1,36,GPIO22*%
%TO.N,unconnected-(U1-GPIO22-Pad36)*%
X41402000Y-34960560D03*
%TO.P,U1,37,GPIO23*%
%TO.N,/A23*%
X41402000Y-32420560D03*
%TO.P,U1,38,GND*%
%TO.N,GND*%
X41402000Y-29880560D03*
%TD*%
D10*
%TO.P,J9,1*%
%TO.N,+5V*%
X27432000Y-91933000D03*
D11*
%TO.P,J9,2*%
%TO.N,/A19*%
X27432000Y-89393000D03*
%TO.P,J9,3*%
%TO.N,GND*%
X27432000Y-86853000D03*
%TD*%
D15*
%TO.P,C1,1*%
%TO.N,Net-(J13-VBUS)*%
X34858888Y-128016000D03*
D16*
%TO.P,C1,2*%
%TO.N,GND*%
X36858888Y-128016000D03*
%TD*%
D10*
%TO.P,J8,1*%
%TO.N,+5V*%
X17272000Y-117348000D03*
D11*
%TO.P,J8,2*%
%TO.N,/A18*%
X17272000Y-114808000D03*
%TO.P,J8,3*%
%TO.N,GND*%
X17272000Y-112268000D03*
%TD*%
D10*
%TO.P,J5,1*%
%TO.N,+5V*%
X17272000Y-86853000D03*
D11*
%TO.P,J5,2*%
%TO.N,/A15*%
X17272000Y-84313000D03*
%TO.P,J5,3*%
%TO.N,GND*%
X17272000Y-81773000D03*
%TD*%
D17*
%TO.P,J13,6,Shield*%
%TO.N,GND*%
X43688000Y-118326000D03*
X43688000Y-111726000D03*
%TD*%
D10*
%TO.P,J3,1*%
%TO.N,+5V*%
X40640000Y-91948000D03*
D11*
%TO.P,J3,2*%
%TO.N,/A34*%
X40640000Y-89408000D03*
%TO.P,J3,3*%
%TO.N,GND*%
X40640000Y-86868000D03*
%TD*%
D12*
%TO.P,J1,1*%
%TO.N,GND*%
X28702000Y-81026000D03*
%TD*%
D10*
%TO.P,J11,1*%
%TO.N,+5V*%
X27432000Y-112268000D03*
D11*
%TO.P,J11,2*%
%TO.N,/A23*%
X27432000Y-109728000D03*
%TO.P,J11,3*%
%TO.N,GND*%
X27432000Y-107188000D03*
%TD*%
D10*
%TO.P,J6,1*%
%TO.N,+5V*%
X17272000Y-97028000D03*
D11*
%TO.P,J6,2*%
%TO.N,/A16*%
X17272000Y-94488000D03*
%TO.P,J6,3*%
%TO.N,GND*%
X17272000Y-91948000D03*
%TD*%
D12*
%TO.P,J12,1*%
%TO.N,GND*%
X28956000Y-118110000D03*
%TD*%
D10*
%TO.P,J7,1*%
%TO.N,+5V*%
X17272000Y-107188000D03*
D11*
%TO.P,J7,2*%
%TO.N,/A17*%
X17272000Y-104648000D03*
%TO.P,J7,3*%
%TO.N,GND*%
X17272000Y-102108000D03*
%TD*%
D10*
%TO.P,J4,1*%
%TO.N,+5V*%
X40640000Y-102108000D03*
D11*
%TO.P,J4,2*%
%TO.N,/A35*%
X40640000Y-99568000D03*
%TO.P,J4,3*%
%TO.N,GND*%
X40640000Y-97028000D03*
%TD*%
D18*
%TO.P,P1,S1,SHIELD*%
%TO.N,unconnected-(P1-SHIELD-PadS1)*%
X23620000Y-132785000D03*
D19*
X23620000Y-136965000D03*
D18*
X32260000Y-132785000D03*
D19*
X32260000Y-136965000D03*
%TD*%
D20*
%TO.N,Net-(J13-VBUS)*%
X39370000Y-116552000D03*
%TO.N,Net-(P1-VCONN)*%
X21859818Y-134265000D03*
X19812000Y-125222000D03*
%TO.N,Net-(P1-CC)*%
X22336182Y-125237818D03*
X26415248Y-133371696D03*
%TO.N,Net-(J13-D+)*%
X27433199Y-133364341D03*
X37846000Y-115028000D03*
%TO.N,Net-(J13-D-)*%
X28951874Y-133365525D03*
X38608000Y-115790000D03*
%TD*%
D21*
%TO.N,/A18*%
X14732000Y-114046000D02*
X15494000Y-114808000D01*
X38100000Y-51816000D02*
X38100000Y-55626000D01*
X38100000Y-55626000D02*
X14732000Y-78994000D01*
X41402000Y-50200560D02*
X39715440Y-50200560D01*
X15494000Y-114808000D02*
X17272000Y-114808000D01*
X14732000Y-78994000D02*
X14732000Y-114046000D01*
X39715440Y-50200560D02*
X38100000Y-51816000D01*
%TO.N,/A17*%
X15748000Y-104648000D02*
X15240000Y-104140000D01*
X17272000Y-104648000D02*
X15748000Y-104648000D01*
X39081836Y-55280560D02*
X41402000Y-55280560D01*
X15240000Y-79122396D02*
X39081836Y-55280560D01*
X15240000Y-104140000D02*
X15240000Y-79122396D01*
%TO.N,/A34*%
X16002000Y-40040560D02*
X18379440Y-40040560D01*
X42185148Y-39115560D02*
X43942000Y-40872412D01*
X18379440Y-40040560D02*
X19304440Y-39115560D01*
X43942000Y-40872412D02*
X43942000Y-88900000D01*
X19304440Y-39115560D02*
X42185148Y-39115560D01*
X43434000Y-89408000D02*
X40640000Y-89408000D01*
X43942000Y-88900000D02*
X43434000Y-89408000D01*
%TO.N,/A16*%
X37178232Y-57820560D02*
X41402000Y-57820560D01*
X17272000Y-94488000D02*
X16256000Y-94488000D01*
X15748000Y-79250792D02*
X37178232Y-57820560D01*
X15748000Y-93980000D02*
X15748000Y-79250792D01*
X16256000Y-94488000D02*
X15748000Y-93980000D01*
%TO.N,/A15*%
X17272000Y-84313000D02*
X18557000Y-84313000D01*
X18557000Y-84313000D02*
X19558000Y-83312000D01*
X27777440Y-67980560D02*
X41402000Y-67980560D01*
X19558000Y-76200000D02*
X27777440Y-67980560D01*
X19558000Y-83312000D02*
X19558000Y-76200000D01*
%TO.N,/A23*%
X44900000Y-33978000D02*
X43342560Y-32420560D01*
X44900000Y-108008000D02*
X44900000Y-33978000D01*
X43180000Y-109728000D02*
X44900000Y-108008000D01*
X43342560Y-32420560D02*
X41402000Y-32420560D01*
X27432000Y-109728000D02*
X43180000Y-109728000D01*
%TO.N,/A21*%
X39116000Y-98806000D02*
X39116000Y-89270299D01*
X40343299Y-88043000D02*
X42513000Y-88043000D01*
X38354000Y-99568000D02*
X39116000Y-98806000D01*
X43434000Y-43434000D02*
X42580560Y-42580560D01*
X27432000Y-99568000D02*
X38354000Y-99568000D01*
X42513000Y-88043000D02*
X43434000Y-87122000D01*
X39116000Y-89270299D02*
X40343299Y-88043000D01*
X43434000Y-87122000D02*
X43434000Y-43434000D01*
X42580560Y-42580560D02*
X41402000Y-42580560D01*
%TO.N,/A35*%
X14986000Y-38608000D02*
X42672000Y-38608000D01*
X42672000Y-38608000D02*
X44450000Y-40386000D01*
X14894560Y-42580560D02*
X14224000Y-41910000D01*
X14224000Y-41910000D02*
X14224000Y-39370000D01*
X44450000Y-98806000D02*
X43688000Y-99568000D01*
X14224000Y-39370000D02*
X14986000Y-38608000D01*
X44450000Y-40386000D02*
X44450000Y-98806000D01*
X43688000Y-99568000D02*
X40640000Y-99568000D01*
X16002000Y-42580560D02*
X14894560Y-42580560D01*
%TO.N,/A19*%
X36337000Y-89393000D02*
X42984000Y-82746000D01*
X27432000Y-89393000D02*
X36337000Y-89393000D01*
X42984000Y-82746000D02*
X42984000Y-48064000D01*
X42984000Y-48064000D02*
X42580560Y-47660560D01*
X42580560Y-47660560D02*
X41402000Y-47660560D01*
%TO.N,Net-(J13-VBUS)*%
X34858888Y-128016000D02*
X34858888Y-121351112D01*
X34858888Y-121351112D02*
X39370000Y-116840000D01*
X39370000Y-116840000D02*
X39370000Y-116552000D01*
%TO.N,Net-(P1-VCONN)*%
X21859818Y-134265000D02*
X21844000Y-134249182D01*
X21844000Y-134249182D02*
X21844000Y-127254000D01*
X21844000Y-127254000D02*
X19812000Y-125222000D01*
D22*
%TO.N,unconnected-(P1-SHIELD-PadS1)*%
X23620000Y-136965000D02*
X32260000Y-136965000D01*
X32260000Y-136965000D02*
X32260000Y-132785000D01*
X23620000Y-132785000D02*
X23620000Y-136965000D01*
D21*
%TO.N,Net-(P1-CC)*%
X22352000Y-125222000D02*
X22336182Y-125237818D01*
X26416000Y-129286000D02*
X22352000Y-125222000D01*
X26416000Y-133370944D02*
X26416000Y-129286000D01*
X26415248Y-133371696D02*
X26416000Y-133370944D01*
%TO.N,Net-(J13-D+)*%
X26924000Y-132855142D02*
X26924000Y-127762000D01*
X26924000Y-127762000D02*
X37846000Y-116840000D01*
X37846000Y-116840000D02*
X37846000Y-115028000D01*
X27433199Y-133364341D02*
X26924000Y-132855142D01*
%TO.N,Net-(J13-D-)*%
X38608000Y-116840000D02*
X38608000Y-115790000D01*
X27952035Y-127495965D02*
X38608000Y-116840000D01*
X27952035Y-132365686D02*
X27952035Y-127495965D01*
X28951874Y-133365525D02*
X27952035Y-132365686D01*
%TD*%
%TA.AperFunction,Conductor*%
%TO.N,GND*%
G36*
X45155039Y-11957685D02*
G01*
X45200794Y-12010489D01*
X45212000Y-12062000D01*
X45212000Y-33106048D01*
X45192315Y-33173087D01*
X45139511Y-33218842D01*
X45070353Y-33228786D01*
X45006797Y-33199761D01*
X45000319Y-33193729D01*
X43832758Y-32026168D01*
X43832738Y-32026146D01*
X43741293Y-31934701D01*
X43690069Y-31900475D01*
X43638847Y-31866249D01*
X43638846Y-31866248D01*
X43638843Y-31866246D01*
X43638840Y-31866245D01*
X43558352Y-31832907D01*
X43525013Y-31819097D01*
X43514987Y-31817103D01*
X43464589Y-31807078D01*
X43404170Y-31795060D01*
X43404167Y-31795060D01*
X43404166Y-31795060D01*
X42771022Y-31795060D01*
X42703983Y-31775375D01*
X42670705Y-31743947D01*
X42641414Y-31703632D01*
X42518930Y-31581148D01*
X42518928Y-31581146D01*
X42378788Y-31479328D01*
X42224445Y-31400687D01*
X42059701Y-31347158D01*
X42059699Y-31347157D01*
X42059698Y-31347157D01*
X41928271Y-31326341D01*
X41888611Y-31320060D01*
X40915389Y-31320060D01*
X40875728Y-31326341D01*
X40744302Y-31347157D01*
X40579552Y-31400688D01*
X40425211Y-31479328D01*
X40345256Y-31537419D01*
X40285072Y-31581146D01*
X40285070Y-31581148D01*
X40285069Y-31581148D01*
X40162588Y-31703629D01*
X40162588Y-31703630D01*
X40162586Y-31703632D01*
X40118859Y-31763816D01*
X40060768Y-31843771D01*
X39982128Y-31998112D01*
X39928597Y-32162862D01*
X39901500Y-32333949D01*
X39901500Y-32507171D01*
X39928598Y-32678261D01*
X39982127Y-32843005D01*
X40060768Y-32997348D01*
X40162586Y-33137488D01*
X40285072Y-33259974D01*
X40425212Y-33361792D01*
X40579555Y-33440433D01*
X40744299Y-33493962D01*
X40915389Y-33521060D01*
X40915390Y-33521060D01*
X41888610Y-33521060D01*
X41888611Y-33521060D01*
X42059701Y-33493962D01*
X42224445Y-33440433D01*
X42378788Y-33361792D01*
X42518928Y-33259974D01*
X42641414Y-33137488D01*
X42670705Y-33097173D01*
X42726035Y-33054508D01*
X42771022Y-33046060D01*
X43032108Y-33046060D01*
X43099147Y-33065745D01*
X43119789Y-33082379D01*
X44238181Y-34200770D01*
X44271666Y-34262093D01*
X44274500Y-34288451D01*
X44274500Y-39026547D01*
X44254815Y-39093586D01*
X44202011Y-39139341D01*
X44132853Y-39149285D01*
X44069297Y-39120260D01*
X44062819Y-39114228D01*
X43164928Y-38216338D01*
X43164925Y-38216334D01*
X43164925Y-38216335D01*
X43157858Y-38209268D01*
X43157858Y-38209267D01*
X43070733Y-38122142D01*
X43070732Y-38122141D01*
X43070731Y-38122140D01*
X43019509Y-38087915D01*
X42968287Y-38053689D01*
X42968286Y-38053688D01*
X42968283Y-38053686D01*
X42968280Y-38053685D01*
X42907715Y-38028599D01*
X42853311Y-37984759D01*
X42831246Y-37918465D01*
X42837235Y-37875725D01*
X42875402Y-37758261D01*
X42902500Y-37587171D01*
X42902500Y-37413949D01*
X42875402Y-37242859D01*
X42821873Y-37078115D01*
X42743232Y-36923772D01*
X42641414Y-36783632D01*
X42518928Y-36661146D01*
X42378788Y-36559328D01*
X42224445Y-36480687D01*
X42059701Y-36427158D01*
X42059699Y-36427157D01*
X42059698Y-36427157D01*
X41928271Y-36406341D01*
X41888611Y-36400060D01*
X40915389Y-36400060D01*
X40875728Y-36406341D01*
X40744302Y-36427157D01*
X40579552Y-36480688D01*
X40425211Y-36559328D01*
X40345256Y-36617419D01*
X40285072Y-36661146D01*
X40285070Y-36661148D01*
X40285069Y-36661148D01*
X40162588Y-36783629D01*
X40162588Y-36783630D01*
X40162586Y-36783632D01*
X40118859Y-36843816D01*
X40060768Y-36923771D01*
X39982128Y-37078112D01*
X39928597Y-37242862D01*
X39901500Y-37413949D01*
X39901500Y-37587171D01*
X39928598Y-37758261D01*
X39948718Y-37820183D01*
X39950713Y-37890023D01*
X39914633Y-37949856D01*
X39851932Y-37980684D01*
X39830787Y-37982500D01*
X17573213Y-37982500D01*
X17506174Y-37962815D01*
X17460419Y-37910011D01*
X17450475Y-37840853D01*
X17455279Y-37820189D01*
X17475402Y-37758261D01*
X17502500Y-37587171D01*
X17502500Y-37413949D01*
X17475402Y-37242859D01*
X17421873Y-37078115D01*
X17343232Y-36923772D01*
X17241414Y-36783632D01*
X17118928Y-36661146D01*
X16978788Y-36559328D01*
X16824445Y-36480687D01*
X16659701Y-36427158D01*
X16659699Y-36427157D01*
X16659698Y-36427157D01*
X16528271Y-36406341D01*
X16488611Y-36400060D01*
X15515389Y-36400060D01*
X15475728Y-36406341D01*
X15344302Y-36427157D01*
X15179552Y-36480688D01*
X15025211Y-36559328D01*
X14945256Y-36617419D01*
X14885072Y-36661146D01*
X14885070Y-36661148D01*
X14885069Y-36661148D01*
X14762588Y-36783629D01*
X14762588Y-36783630D01*
X14762586Y-36783632D01*
X14718859Y-36843816D01*
X14660768Y-36923771D01*
X14582128Y-37078112D01*
X14528597Y-37242862D01*
X14501500Y-37413949D01*
X14501500Y-37587170D01*
X14528597Y-37758257D01*
X14582126Y-37923002D01*
X14582130Y-37923012D01*
X14610178Y-37978059D01*
X14623074Y-38046728D01*
X14596797Y-38111468D01*
X14587375Y-38122034D01*
X14587267Y-38122141D01*
X14587267Y-38122142D01*
X14500142Y-38209267D01*
X14500139Y-38209270D01*
X13825270Y-38884139D01*
X13825267Y-38884142D01*
X13781704Y-38927704D01*
X13738142Y-38971266D01*
X13705122Y-39020685D01*
X13705121Y-39020687D01*
X13669687Y-39073714D01*
X13669686Y-39073717D01*
X13659080Y-39099325D01*
X13659079Y-39099328D01*
X13622538Y-39187545D01*
X13622535Y-39187555D01*
X13598500Y-39308389D01*
X13598500Y-41971610D01*
X13622535Y-42092444D01*
X13622538Y-42092454D01*
X13636347Y-42125792D01*
X13636347Y-42125793D01*
X13669685Y-42206280D01*
X13669687Y-42206283D01*
X13669688Y-42206286D01*
X13695784Y-42245341D01*
X13703914Y-42257507D01*
X13703915Y-42257509D01*
X13738141Y-42308733D01*
X13829586Y-42400178D01*
X13829608Y-42400198D01*
X14405576Y-42976166D01*
X14405605Y-42976197D01*
X14495824Y-43066416D01*
X14495827Y-43066418D01*
X14547050Y-43100644D01*
X14598274Y-43134872D01*
X14598279Y-43134874D01*
X14632001Y-43148842D01*
X14684867Y-43190517D01*
X14762586Y-43297488D01*
X14885072Y-43419974D01*
X15025212Y-43521792D01*
X15179555Y-43600433D01*
X15344299Y-43653962D01*
X15515389Y-43681060D01*
X15515390Y-43681060D01*
X16488610Y-43681060D01*
X16488611Y-43681060D01*
X16659701Y-43653962D01*
X16824445Y-43600433D01*
X16978788Y-43521792D01*
X17118928Y-43419974D01*
X17241414Y-43297488D01*
X17343232Y-43157348D01*
X17421873Y-43003005D01*
X17475402Y-42838261D01*
X17502500Y-42667171D01*
X17502500Y-42493949D01*
X17475402Y-42322859D01*
X17421873Y-42158115D01*
X17343232Y-42003772D01*
X17241414Y-41863632D01*
X17118928Y-41741146D01*
X16978788Y-41639328D01*
X16824445Y-41560687D01*
X16659701Y-41507158D01*
X16659699Y-41507157D01*
X16659698Y-41507157D01*
X16528271Y-41486341D01*
X16488611Y-41480060D01*
X15515389Y-41480060D01*
X15475728Y-41486341D01*
X15344302Y-41507157D01*
X15179552Y-41560688D01*
X15029795Y-41636993D01*
X14961125Y-41649889D01*
X14896385Y-41623612D01*
X14856128Y-41566506D01*
X14849500Y-41526508D01*
X14849500Y-41094611D01*
X14869185Y-41027572D01*
X14921989Y-40981817D01*
X14991147Y-40971873D01*
X15029789Y-40984124D01*
X15179555Y-41060433D01*
X15344299Y-41113962D01*
X15515389Y-41141060D01*
X15515390Y-41141060D01*
X16488610Y-41141060D01*
X16488611Y-41141060D01*
X16659701Y-41113962D01*
X16824445Y-41060433D01*
X16978788Y-40981792D01*
X17118928Y-40879974D01*
X17241414Y-40757488D01*
X17270705Y-40717173D01*
X17326035Y-40674508D01*
X17371022Y-40666060D01*
X18441047Y-40666060D01*
X18501469Y-40654041D01*
X18561892Y-40642023D01*
X18561895Y-40642021D01*
X18561898Y-40642021D01*
X18595227Y-40628214D01*
X18595226Y-40628214D01*
X18595232Y-40628212D01*
X18675726Y-40594872D01*
X18726949Y-40560644D01*
X18778173Y-40526418D01*
X18865298Y-40439293D01*
X18865298Y-40439291D01*
X18875506Y-40429084D01*
X18875507Y-40429081D01*
X19527212Y-39777379D01*
X19588535Y-39743894D01*
X19614893Y-39741060D01*
X39790033Y-39741060D01*
X39857072Y-39760745D01*
X39902827Y-39813549D01*
X39912771Y-39882707D01*
X39912506Y-39884457D01*
X39901500Y-39953949D01*
X39901500Y-40127171D01*
X39928598Y-40298261D01*
X39982127Y-40463005D01*
X40060768Y-40617348D01*
X40162586Y-40757488D01*
X40285072Y-40879974D01*
X40425212Y-40981792D01*
X40579555Y-41060433D01*
X40744299Y-41113962D01*
X40915389Y-41141060D01*
X40915390Y-41141060D01*
X41888610Y-41141060D01*
X41888611Y-41141060D01*
X42059701Y-41113962D01*
X42224445Y-41060433D01*
X42378788Y-40981792D01*
X42518928Y-40879974D01*
X42641414Y-40757488D01*
X42682771Y-40700564D01*
X42738097Y-40657900D01*
X42807711Y-40651920D01*
X42869506Y-40684525D01*
X42870768Y-40685770D01*
X43280181Y-41095183D01*
X43313666Y-41156506D01*
X43316500Y-41182864D01*
X43316500Y-42132547D01*
X43296815Y-42199586D01*
X43244011Y-42245341D01*
X43174853Y-42255285D01*
X43111297Y-42226260D01*
X43104820Y-42220230D01*
X43090870Y-42206280D01*
X43066419Y-42181829D01*
X43066418Y-42181827D01*
X42979293Y-42094702D01*
X42979292Y-42094701D01*
X42979291Y-42094700D01*
X42928069Y-42060475D01*
X42876847Y-42026249D01*
X42876846Y-42026248D01*
X42876843Y-42026246D01*
X42876840Y-42026245D01*
X42796352Y-41992907D01*
X42763010Y-41979096D01*
X42757178Y-41977327D01*
X42757810Y-41975241D01*
X42704598Y-41947389D01*
X42690406Y-41931064D01*
X42641416Y-41863635D01*
X42641411Y-41863629D01*
X42518930Y-41741148D01*
X42518928Y-41741146D01*
X42378788Y-41639328D01*
X42224445Y-41560687D01*
X42059701Y-41507158D01*
X42059699Y-41507157D01*
X42059698Y-41507157D01*
X41928271Y-41486341D01*
X41888611Y-41480060D01*
X40915389Y-41480060D01*
X40875728Y-41486341D01*
X40744302Y-41507157D01*
X40579552Y-41560688D01*
X40425211Y-41639328D01*
X40345256Y-41697419D01*
X40285072Y-41741146D01*
X40285070Y-41741148D01*
X40285069Y-41741148D01*
X40162588Y-41863629D01*
X40162588Y-41863630D01*
X40162586Y-41863632D01*
X40162584Y-41863635D01*
X40060768Y-42003771D01*
X39982128Y-42158112D01*
X39928597Y-42322862D01*
X39911326Y-42431909D01*
X39901500Y-42493949D01*
X39901500Y-42667171D01*
X39928598Y-42838261D01*
X39982127Y-43003005D01*
X40060768Y-43157348D01*
X40162586Y-43297488D01*
X40285072Y-43419974D01*
X40425212Y-43521792D01*
X40579555Y-43600433D01*
X40744299Y-43653962D01*
X40915389Y-43681060D01*
X40915390Y-43681060D01*
X41888610Y-43681060D01*
X41888611Y-43681060D01*
X42059701Y-43653962D01*
X42224445Y-43600433D01*
X42378788Y-43521792D01*
X42442780Y-43475298D01*
X42508583Y-43451819D01*
X42576637Y-43467644D01*
X42603341Y-43487932D01*
X42772182Y-43656772D01*
X42805666Y-43718094D01*
X42808500Y-43744452D01*
X42808500Y-44272063D01*
X42788815Y-44339102D01*
X42736011Y-44384857D01*
X42666853Y-44394801D01*
X42603297Y-44365776D01*
X42596819Y-44359744D01*
X42518602Y-44281527D01*
X42378524Y-44179755D01*
X42224257Y-44101151D01*
X42059584Y-44047645D01*
X41888571Y-44020560D01*
X41652000Y-44020560D01*
X41652000Y-44804874D01*
X41647606Y-44800480D01*
X41556394Y-44747819D01*
X41454661Y-44720560D01*
X41349339Y-44720560D01*
X41247606Y-44747819D01*
X41156394Y-44800480D01*
X41152000Y-44804874D01*
X41152000Y-44020560D01*
X40915429Y-44020560D01*
X40744415Y-44047645D01*
X40579742Y-44101151D01*
X40425475Y-44179755D01*
X40285397Y-44281527D01*
X40162967Y-44403957D01*
X40061195Y-44544035D01*
X39982591Y-44698304D01*
X39929085Y-44862975D01*
X39927884Y-44870559D01*
X39927885Y-44870560D01*
X41086314Y-44870560D01*
X41081920Y-44874954D01*
X41029259Y-44966166D01*
X41002000Y-45067899D01*
X41002000Y-45173221D01*
X41029259Y-45274954D01*
X41081920Y-45366166D01*
X41086314Y-45370560D01*
X39927885Y-45370560D01*
X39929085Y-45378144D01*
X39982591Y-45542815D01*
X40061195Y-45697084D01*
X40162967Y-45837162D01*
X40285397Y-45959592D01*
X40425475Y-46061364D01*
X40579742Y-46139968D01*
X40744415Y-46193474D01*
X40915429Y-46220560D01*
X41152000Y-46220560D01*
X41152000Y-45436246D01*
X41156394Y-45440640D01*
X41247606Y-45493301D01*
X41349339Y-45520560D01*
X41454661Y-45520560D01*
X41556394Y-45493301D01*
X41647606Y-45440640D01*
X41652000Y-45436246D01*
X41652000Y-46220560D01*
X41888571Y-46220560D01*
X42059584Y-46193474D01*
X42224257Y-46139968D01*
X42378524Y-46061364D01*
X42518602Y-45959592D01*
X42596819Y-45881376D01*
X42658142Y-45847891D01*
X42727834Y-45852875D01*
X42783767Y-45894747D01*
X42808184Y-45960211D01*
X42808500Y-45969057D01*
X42808500Y-46811356D01*
X42788815Y-46878395D01*
X42736011Y-46924150D01*
X42666853Y-46934094D01*
X42603297Y-46905069D01*
X42596819Y-46899037D01*
X42518930Y-46821148D01*
X42518928Y-46821146D01*
X42378788Y-46719328D01*
X42224445Y-46640687D01*
X42059701Y-46587158D01*
X42059699Y-46587157D01*
X42059698Y-46587157D01*
X41928271Y-46566341D01*
X41888611Y-46560060D01*
X40915389Y-46560060D01*
X40875728Y-46566341D01*
X40744302Y-46587157D01*
X40579552Y-46640688D01*
X40425211Y-46719328D01*
X40345256Y-46777419D01*
X40285072Y-46821146D01*
X40285070Y-46821148D01*
X40285069Y-46821148D01*
X40162588Y-46943629D01*
X40162588Y-46943630D01*
X40162586Y-46943632D01*
X40118859Y-47003816D01*
X40060768Y-47083771D01*
X39982128Y-47238112D01*
X39928597Y-47402862D01*
X39901500Y-47573949D01*
X39901500Y-47747171D01*
X39928598Y-47918261D01*
X39982127Y-48083005D01*
X40060768Y-48237348D01*
X40162586Y-48377488D01*
X40285072Y-48499974D01*
X40425212Y-48601792D01*
X40579555Y-48680433D01*
X40744299Y-48733962D01*
X40915389Y-48761060D01*
X40915390Y-48761060D01*
X41888610Y-48761060D01*
X41888611Y-48761060D01*
X42059701Y-48733962D01*
X42196186Y-48689614D01*
X42266022Y-48687620D01*
X42325855Y-48723700D01*
X42356684Y-48786400D01*
X42358500Y-48807546D01*
X42358500Y-49053573D01*
X42338815Y-49120612D01*
X42286011Y-49166367D01*
X42216853Y-49176311D01*
X42196185Y-49171504D01*
X42059701Y-49127158D01*
X42059699Y-49127157D01*
X42059698Y-49127157D01*
X41928271Y-49106341D01*
X41888611Y-49100060D01*
X40915389Y-49100060D01*
X40875728Y-49106341D01*
X40744302Y-49127157D01*
X40579552Y-49180688D01*
X40425211Y-49259328D01*
X40345256Y-49317419D01*
X40285072Y-49361146D01*
X40285070Y-49361148D01*
X40285069Y-49361148D01*
X40162585Y-49483632D01*
X40133295Y-49523947D01*
X40077965Y-49566612D01*
X40032978Y-49575060D01*
X39653829Y-49575060D01*
X39593411Y-49587078D01*
X39555699Y-49594579D01*
X39532990Y-49599096D01*
X39532988Y-49599097D01*
X39499647Y-49612907D01*
X39419159Y-49646244D01*
X39419145Y-49646252D01*
X39316712Y-49714698D01*
X39316704Y-49714704D01*
X37614144Y-51417264D01*
X37614138Y-51417272D01*
X37545690Y-51519708D01*
X37545688Y-51519713D01*
X37498540Y-51633538D01*
X37498535Y-51633554D01*
X37481204Y-51720688D01*
X37481204Y-51720689D01*
X37474500Y-51754391D01*
X37474500Y-55315547D01*
X37454815Y-55382586D01*
X37438181Y-55403228D01*
X17623807Y-75217601D01*
X17562484Y-75251086D01*
X17492792Y-75246102D01*
X17436859Y-75204230D01*
X17424378Y-75182306D01*
X17424085Y-75182456D01*
X17343231Y-75023771D01*
X17241414Y-74883632D01*
X17118928Y-74761146D01*
X16978788Y-74659328D01*
X16824445Y-74580687D01*
X16659701Y-74527158D01*
X16659699Y-74527157D01*
X16659698Y-74527157D01*
X16528271Y-74506341D01*
X16488611Y-74500060D01*
X15515389Y-74500060D01*
X15475728Y-74506341D01*
X15344302Y-74527157D01*
X15179552Y-74580688D01*
X15025211Y-74659328D01*
X14945256Y-74717419D01*
X14885072Y-74761146D01*
X14885070Y-74761148D01*
X14885069Y-74761148D01*
X14762588Y-74883629D01*
X14762588Y-74883630D01*
X14762586Y-74883632D01*
X14718859Y-74943816D01*
X14660768Y-75023771D01*
X14582128Y-75178112D01*
X14528597Y-75342862D01*
X14501500Y-75513949D01*
X14501500Y-75687170D01*
X14528166Y-75855537D01*
X14528598Y-75858261D01*
X14582127Y-76023005D01*
X14660768Y-76177348D01*
X14762586Y-76317488D01*
X14885072Y-76439974D01*
X15025212Y-76541792D01*
X15179555Y-76620433D01*
X15344299Y-76673962D01*
X15515389Y-76701060D01*
X15840988Y-76701060D01*
X15908027Y-76720745D01*
X15953782Y-76773549D01*
X15963726Y-76842707D01*
X15934701Y-76906263D01*
X15928670Y-76912739D01*
X14333270Y-78508139D01*
X14333267Y-78508142D01*
X14289703Y-78551705D01*
X14246140Y-78595268D01*
X14226082Y-78625289D01*
X14226080Y-78625292D01*
X14177688Y-78697714D01*
X14177686Y-78697716D01*
X14177686Y-78697718D01*
X14177685Y-78697719D01*
X14166940Y-78723662D01*
X14130538Y-78811544D01*
X14130535Y-78811556D01*
X14106500Y-78932389D01*
X14106500Y-114107611D01*
X14130535Y-114228444D01*
X14130540Y-114228461D01*
X14177685Y-114342280D01*
X14177690Y-114342289D01*
X14211914Y-114393507D01*
X14211915Y-114393509D01*
X14246141Y-114444733D01*
X14337586Y-114536178D01*
X14337608Y-114536198D01*
X15005016Y-115203606D01*
X15005045Y-115203637D01*
X15095263Y-115293855D01*
X15095266Y-115293857D01*
X15095267Y-115293858D01*
X15137491Y-115322071D01*
X15197715Y-115362312D01*
X15264396Y-115389931D01*
X15264398Y-115389933D01*
X15294129Y-115402247D01*
X15311548Y-115409463D01*
X15432394Y-115433500D01*
X15996773Y-115433500D01*
X16063812Y-115453185D01*
X16098348Y-115486377D01*
X16233501Y-115679396D01*
X16233506Y-115679402D01*
X16355430Y-115801326D01*
X16388915Y-115862649D01*
X16383931Y-115932341D01*
X16342059Y-115988274D01*
X16311083Y-116005189D01*
X16179669Y-116054203D01*
X16179664Y-116054206D01*
X16064455Y-116140452D01*
X16064452Y-116140455D01*
X15978206Y-116255664D01*
X15978202Y-116255671D01*
X15927908Y-116390517D01*
X15921587Y-116449317D01*
X15921501Y-116450123D01*
X15921500Y-116450135D01*
X15921500Y-118245870D01*
X15921501Y-118245876D01*
X15927908Y-118305483D01*
X15978202Y-118440328D01*
X15978206Y-118440335D01*
X16064452Y-118555544D01*
X16064455Y-118555547D01*
X16179664Y-118641793D01*
X16179671Y-118641797D01*
X16314517Y-118692091D01*
X16314516Y-118692091D01*
X16321444Y-118692835D01*
X16374127Y-118698500D01*
X18169872Y-118698499D01*
X18229483Y-118692091D01*
X18364331Y-118641796D01*
X18479546Y-118555546D01*
X18565796Y-118440331D01*
X18616091Y-118305483D01*
X18622500Y-118245873D01*
X18622500Y-118110000D01*
X24951176Y-118110000D01*
X24970461Y-118502550D01*
X25028129Y-118891308D01*
X25123625Y-119272549D01*
X25256016Y-119642559D01*
X25256023Y-119642575D01*
X25424062Y-119997864D01*
X25626109Y-120334958D01*
X25860228Y-120650632D01*
X25956068Y-120756376D01*
X25956069Y-120756376D01*
X27554380Y-119158064D01*
X27637457Y-119266331D01*
X27799669Y-119428543D01*
X27907934Y-119511617D01*
X26309622Y-121109929D01*
X26309622Y-121109930D01*
X26415367Y-121205771D01*
X26731041Y-121439890D01*
X27068135Y-121641937D01*
X27423424Y-121809976D01*
X27423440Y-121809983D01*
X27793450Y-121942374D01*
X28174691Y-122037870D01*
X28563449Y-122095538D01*
X28956000Y-122114823D01*
X29348550Y-122095538D01*
X29737308Y-122037870D01*
X30118549Y-121942374D01*
X30488559Y-121809983D01*
X30488575Y-121809976D01*
X30843864Y-121641937D01*
X31180958Y-121439890D01*
X31496632Y-121205770D01*
X31602376Y-121109929D01*
X30004065Y-119511618D01*
X30112331Y-119428543D01*
X30274543Y-119266331D01*
X30357618Y-119158065D01*
X31955929Y-120756376D01*
X32051770Y-120650632D01*
X32285890Y-120334958D01*
X32487937Y-119997864D01*
X32655976Y-119642575D01*
X32655983Y-119642559D01*
X32788374Y-119272549D01*
X32883870Y-118891308D01*
X32941538Y-118502550D01*
X32960823Y-118110000D01*
X32941538Y-117717449D01*
X32883870Y-117328691D01*
X32788374Y-116947450D01*
X32655983Y-116577440D01*
X32655976Y-116577424D01*
X32487937Y-116222135D01*
X32285890Y-115885041D01*
X32051771Y-115569367D01*
X31955930Y-115463622D01*
X31955929Y-115463622D01*
X30357617Y-117061934D01*
X30274543Y-116953669D01*
X30112331Y-116791457D01*
X30004065Y-116708381D01*
X31602376Y-115110069D01*
X31602376Y-115110068D01*
X31496632Y-115014228D01*
X31180958Y-114780109D01*
X30843864Y-114578062D01*
X30488575Y-114410023D01*
X30488559Y-114410016D01*
X30118549Y-114277625D01*
X29737308Y-114182129D01*
X29348550Y-114124461D01*
X28956000Y-114105176D01*
X28563449Y-114124461D01*
X28174691Y-114182129D01*
X27793450Y-114277625D01*
X27423440Y-114410016D01*
X27423424Y-114410023D01*
X27068135Y-114578062D01*
X26731041Y-114780109D01*
X26415368Y-115014228D01*
X26309622Y-115110069D01*
X27907934Y-116708381D01*
X27799669Y-116791457D01*
X27637457Y-116953669D01*
X27554381Y-117061934D01*
X25956069Y-115463622D01*
X25860228Y-115569368D01*
X25626109Y-115885041D01*
X25424062Y-116222135D01*
X25256023Y-116577424D01*
X25256016Y-116577440D01*
X25123625Y-116947450D01*
X25028129Y-117328691D01*
X24970461Y-117717449D01*
X24951176Y-118110000D01*
X18622500Y-118110000D01*
X18622499Y-116450128D01*
X18616091Y-116390517D01*
X18606105Y-116363744D01*
X18565797Y-116255671D01*
X18565793Y-116255664D01*
X18479547Y-116140455D01*
X18479544Y-116140452D01*
X18364335Y-116054206D01*
X18364328Y-116054202D01*
X18232917Y-116005189D01*
X18176983Y-115963318D01*
X18152566Y-115897853D01*
X18167418Y-115829580D01*
X18188563Y-115801332D01*
X18310495Y-115679401D01*
X18446035Y-115485830D01*
X18545903Y-115271663D01*
X18607063Y-115043408D01*
X18627659Y-114808000D01*
X18607063Y-114572592D01*
X18545903Y-114344337D01*
X18446035Y-114130171D01*
X18445652Y-114129623D01*
X18310494Y-113936597D01*
X18143402Y-113769506D01*
X18143401Y-113769505D01*
X17957405Y-113639269D01*
X17913781Y-113584692D01*
X17906588Y-113515193D01*
X17938110Y-113452839D01*
X17957405Y-113436119D01*
X18143082Y-113306105D01*
X18310105Y-113139082D01*
X18445600Y-112945578D01*
X18545429Y-112731492D01*
X18545432Y-112731486D01*
X18602636Y-112518000D01*
X17705012Y-112518000D01*
X17737925Y-112460993D01*
X17772000Y-112333826D01*
X17772000Y-112202174D01*
X17737925Y-112075007D01*
X17705012Y-112018000D01*
X18602636Y-112018000D01*
X18602635Y-112017999D01*
X18545432Y-111804513D01*
X18545429Y-111804507D01*
X18445600Y-111590422D01*
X18445599Y-111590420D01*
X18310113Y-111396926D01*
X18310108Y-111396920D01*
X18143082Y-111229894D01*
X17949578Y-111094399D01*
X17735492Y-110994570D01*
X17735486Y-110994567D01*
X17522000Y-110937364D01*
X17522000Y-111834988D01*
X17464993Y-111802075D01*
X17337826Y-111768000D01*
X17206174Y-111768000D01*
X17079007Y-111802075D01*
X17022000Y-111834988D01*
X17022000Y-110937364D01*
X17021999Y-110937364D01*
X16808513Y-110994567D01*
X16808507Y-110994570D01*
X16594422Y-111094399D01*
X16594420Y-111094400D01*
X16400926Y-111229886D01*
X16400920Y-111229891D01*
X16233891Y-111396920D01*
X16233886Y-111396926D01*
X16098400Y-111590420D01*
X16098399Y-111590422D01*
X15998570Y-111804507D01*
X15998567Y-111804513D01*
X15941364Y-112017999D01*
X15941364Y-112018000D01*
X16838988Y-112018000D01*
X16806075Y-112075007D01*
X16772000Y-112202174D01*
X16772000Y-112333826D01*
X16806075Y-112460993D01*
X16838988Y-112518000D01*
X15941364Y-112518000D01*
X15998567Y-112731486D01*
X15998570Y-112731492D01*
X16098399Y-112945578D01*
X16233894Y-113139082D01*
X16400917Y-113306105D01*
X16586595Y-113436119D01*
X16630219Y-113490696D01*
X16637412Y-113560195D01*
X16605890Y-113622549D01*
X16586595Y-113639269D01*
X16400594Y-113769508D01*
X16233505Y-113936597D01*
X16098348Y-114129623D01*
X16043771Y-114173248D01*
X15996773Y-114182500D01*
X15804452Y-114182500D01*
X15737413Y-114162815D01*
X15716771Y-114146181D01*
X15393819Y-113823229D01*
X15360334Y-113761906D01*
X15357500Y-113735548D01*
X15357500Y-105348865D01*
X15377185Y-105281826D01*
X15429989Y-105236071D01*
X15499147Y-105226127D01*
X15528954Y-105234305D01*
X15565542Y-105249461D01*
X15565544Y-105249461D01*
X15565548Y-105249463D01*
X15686388Y-105273499D01*
X15686392Y-105273500D01*
X15686393Y-105273500D01*
X15686394Y-105273500D01*
X15996773Y-105273500D01*
X16063812Y-105293185D01*
X16098348Y-105326377D01*
X16233501Y-105519396D01*
X16233506Y-105519402D01*
X16355430Y-105641326D01*
X16388915Y-105702649D01*
X16383931Y-105772341D01*
X16342059Y-105828274D01*
X16311083Y-105845189D01*
X16179669Y-105894203D01*
X16179664Y-105894206D01*
X16064455Y-105980452D01*
X16064452Y-105980455D01*
X15978206Y-106095664D01*
X15978202Y-106095671D01*
X15927908Y-106230517D01*
X15921501Y-106290116D01*
X15921501Y-106290123D01*
X15921500Y-106290135D01*
X15921500Y-108085870D01*
X15921501Y-108085876D01*
X15927908Y-108145483D01*
X15978202Y-108280328D01*
X15978206Y-108280335D01*
X16064452Y-108395544D01*
X16064455Y-108395547D01*
X16179664Y-108481793D01*
X16179671Y-108481797D01*
X16314517Y-108532091D01*
X16314516Y-108532091D01*
X16321444Y-108532835D01*
X16374127Y-108538500D01*
X18169872Y-108538499D01*
X18229483Y-108532091D01*
X18364331Y-108481796D01*
X18479546Y-108395546D01*
X18565796Y-108280331D01*
X18616091Y-108145483D01*
X18622500Y-108085873D01*
X18622499Y-106290128D01*
X18616091Y-106230517D01*
X18586019Y-106149891D01*
X18565797Y-106095671D01*
X18565793Y-106095664D01*
X18479547Y-105980455D01*
X18479544Y-105980452D01*
X18364335Y-105894206D01*
X18364328Y-105894202D01*
X18232917Y-105845189D01*
X18176983Y-105803318D01*
X18152566Y-105737853D01*
X18167418Y-105669580D01*
X18188563Y-105641332D01*
X18310495Y-105519401D01*
X18446035Y-105325830D01*
X18545903Y-105111663D01*
X18607063Y-104883408D01*
X18627659Y-104648000D01*
X18607063Y-104412592D01*
X18545903Y-104184337D01*
X18446035Y-103970171D01*
X18433761Y-103952641D01*
X18310494Y-103776597D01*
X18143402Y-103609506D01*
X18143401Y-103609505D01*
X17957405Y-103479269D01*
X17913781Y-103424692D01*
X17906588Y-103355193D01*
X17938110Y-103292839D01*
X17957405Y-103276119D01*
X18143082Y-103146105D01*
X18310105Y-102979082D01*
X18445600Y-102785578D01*
X18545429Y-102571492D01*
X18545432Y-102571486D01*
X18602636Y-102358000D01*
X17705012Y-102358000D01*
X17737925Y-102300993D01*
X17772000Y-102173826D01*
X17772000Y-102042174D01*
X17737925Y-101915007D01*
X17705012Y-101858000D01*
X18602636Y-101858000D01*
X18602635Y-101857999D01*
X18545432Y-101644513D01*
X18545429Y-101644507D01*
X18445600Y-101430422D01*
X18445599Y-101430420D01*
X18310113Y-101236926D01*
X18310108Y-101236920D01*
X18143082Y-101069894D01*
X17949578Y-100934399D01*
X17735492Y-100834570D01*
X17735486Y-100834567D01*
X17522000Y-100777364D01*
X17522000Y-101674988D01*
X17464993Y-101642075D01*
X17337826Y-101608000D01*
X17206174Y-101608000D01*
X17079007Y-101642075D01*
X17022000Y-101674988D01*
X17022000Y-100777364D01*
X17021999Y-100777364D01*
X16808513Y-100834567D01*
X16808507Y-100834570D01*
X16594422Y-100934399D01*
X16594420Y-100934400D01*
X16400926Y-101069886D01*
X16400920Y-101069891D01*
X16233891Y-101236920D01*
X16233886Y-101236926D01*
X16098400Y-101430420D01*
X16096886Y-101433044D01*
X16095916Y-101433968D01*
X16095295Y-101434856D01*
X16095116Y-101434731D01*
X16046318Y-101481258D01*
X15977711Y-101494480D01*
X15912847Y-101468511D01*
X15872319Y-101411597D01*
X15865500Y-101371042D01*
X15865500Y-98334330D01*
X15885185Y-98267291D01*
X15937989Y-98221536D01*
X16007147Y-98211592D01*
X16063812Y-98235064D01*
X16064451Y-98235542D01*
X16064454Y-98235546D01*
X16179665Y-98321793D01*
X16179668Y-98321795D01*
X16179671Y-98321797D01*
X16314517Y-98372091D01*
X16314516Y-98372091D01*
X16321444Y-98372835D01*
X16374127Y-98378500D01*
X18169872Y-98378499D01*
X18229483Y-98372091D01*
X18364331Y-98321796D01*
X18479546Y-98235546D01*
X18565796Y-98120331D01*
X18616091Y-97985483D01*
X18622500Y-97925873D01*
X18622499Y-96130128D01*
X18616091Y-96070517D01*
X18586019Y-95989891D01*
X18565797Y-95935671D01*
X18565793Y-95935664D01*
X18479547Y-95820455D01*
X18479544Y-95820452D01*
X18364335Y-95734206D01*
X18364328Y-95734202D01*
X18232917Y-95685189D01*
X18176983Y-95643318D01*
X18152566Y-95577853D01*
X18167418Y-95509580D01*
X18188563Y-95481332D01*
X18310495Y-95359401D01*
X18446035Y-95165830D01*
X18545903Y-94951663D01*
X18607063Y-94723408D01*
X18627659Y-94488000D01*
X18607063Y-94252592D01*
X18545903Y-94024337D01*
X18446035Y-93810171D01*
X18310495Y-93616599D01*
X18310494Y-93616597D01*
X18143402Y-93449506D01*
X18143401Y-93449505D01*
X17957405Y-93319269D01*
X17913781Y-93264692D01*
X17906588Y-93195193D01*
X17938110Y-93132839D01*
X17957405Y-93116119D01*
X18143082Y-92986105D01*
X18310105Y-92819082D01*
X18445600Y-92625578D01*
X18545429Y-92411492D01*
X18545432Y-92411486D01*
X18602636Y-92198000D01*
X17705012Y-92198000D01*
X17737925Y-92140993D01*
X17772000Y-92013826D01*
X17772000Y-91882174D01*
X17737925Y-91755007D01*
X17705012Y-91698000D01*
X18602636Y-91698000D01*
X18602635Y-91697999D01*
X18545432Y-91484513D01*
X18545429Y-91484507D01*
X18445600Y-91270422D01*
X18445599Y-91270420D01*
X18310113Y-91076926D01*
X18310108Y-91076920D01*
X18143082Y-90909894D01*
X17949578Y-90774399D01*
X17735492Y-90674570D01*
X17735486Y-90674567D01*
X17522000Y-90617364D01*
X17522000Y-91514988D01*
X17464993Y-91482075D01*
X17337826Y-91448000D01*
X17206174Y-91448000D01*
X17079007Y-91482075D01*
X17022000Y-91514988D01*
X17022000Y-90617364D01*
X17021999Y-90617364D01*
X16808513Y-90674567D01*
X16808507Y-90674570D01*
X16594422Y-90774399D01*
X16594420Y-90774400D01*
X16568623Y-90792464D01*
X16502416Y-90814792D01*
X16434649Y-90797780D01*
X16386837Y-90746832D01*
X16373500Y-90690889D01*
X16373500Y-88327499D01*
X16393185Y-88260460D01*
X16445989Y-88214705D01*
X16497495Y-88203499D01*
X18169872Y-88203499D01*
X18229483Y-88197091D01*
X18364331Y-88146796D01*
X18479546Y-88060546D01*
X18565796Y-87945331D01*
X18616091Y-87810483D01*
X18622500Y-87750873D01*
X18622499Y-85955128D01*
X18616091Y-85895517D01*
X18591615Y-85829894D01*
X18565797Y-85760671D01*
X18565793Y-85760664D01*
X18479547Y-85645455D01*
X18479544Y-85645452D01*
X18364335Y-85559206D01*
X18364328Y-85559202D01*
X18232917Y-85510189D01*
X18176983Y-85468318D01*
X18152566Y-85402853D01*
X18167418Y-85334580D01*
X18188563Y-85306332D01*
X18310495Y-85184401D01*
X18445652Y-84991377D01*
X18500229Y-84947752D01*
X18547227Y-84938500D01*
X18618607Y-84938500D01*
X18679029Y-84926481D01*
X18739452Y-84914463D01*
X18739455Y-84914461D01*
X18739458Y-84914461D01*
X18772787Y-84900654D01*
X18772786Y-84900654D01*
X18772792Y-84900652D01*
X18853286Y-84867312D01*
X18904509Y-84833084D01*
X18955733Y-84798858D01*
X19042858Y-84711733D01*
X19042859Y-84711731D01*
X19049925Y-84704665D01*
X19049928Y-84704661D01*
X19956729Y-83797860D01*
X19956733Y-83797858D01*
X20043858Y-83710733D01*
X20112311Y-83608286D01*
X20112312Y-83608285D01*
X20112313Y-83608282D01*
X20112315Y-83608279D01*
X20129565Y-83566632D01*
X20159463Y-83494451D01*
X20183500Y-83373607D01*
X20183500Y-83250393D01*
X20183500Y-81026000D01*
X24697176Y-81026000D01*
X24716461Y-81418550D01*
X24774129Y-81807308D01*
X24869625Y-82188549D01*
X25002016Y-82558559D01*
X25002023Y-82558575D01*
X25170062Y-82913864D01*
X25372109Y-83250958D01*
X25606228Y-83566632D01*
X25702068Y-83672376D01*
X25702069Y-83672376D01*
X27300381Y-82074064D01*
X27383457Y-82182331D01*
X27545669Y-82344543D01*
X27653934Y-82427617D01*
X26055622Y-84025929D01*
X26055622Y-84025930D01*
X26161367Y-84121771D01*
X26477041Y-84355890D01*
X26814135Y-84557937D01*
X27169424Y-84725976D01*
X27169440Y-84725983D01*
X27539450Y-84858374D01*
X27920691Y-84953870D01*
X28309449Y-85011538D01*
X28702000Y-85030823D01*
X29094550Y-85011538D01*
X29483308Y-84953870D01*
X29864549Y-84858374D01*
X30234559Y-84725983D01*
X30234575Y-84725976D01*
X30589864Y-84557937D01*
X30926958Y-84355890D01*
X31242632Y-84121770D01*
X31348376Y-84025929D01*
X29750065Y-82427618D01*
X29858331Y-82344543D01*
X30020543Y-82182331D01*
X30103618Y-82074065D01*
X31701929Y-83672376D01*
X31797770Y-83566632D01*
X32031890Y-83250958D01*
X32233937Y-82913864D01*
X32401976Y-82558575D01*
X32401983Y-82558559D01*
X32534374Y-82188549D01*
X32629870Y-81807308D01*
X32687538Y-81418550D01*
X32706823Y-81026000D01*
X32687538Y-80633449D01*
X32629870Y-80244691D01*
X32534374Y-79863450D01*
X32401983Y-79493440D01*
X32401976Y-79493424D01*
X32233937Y-79138135D01*
X32031890Y-78801041D01*
X31797771Y-78485367D01*
X31701930Y-78379622D01*
X31701929Y-78379622D01*
X30103617Y-79977934D01*
X30020543Y-79869669D01*
X29858331Y-79707457D01*
X29750065Y-79624381D01*
X31348376Y-78026069D01*
X31348376Y-78026068D01*
X31242632Y-77930228D01*
X30926958Y-77696109D01*
X30589864Y-77494062D01*
X30234575Y-77326023D01*
X30234559Y-77326016D01*
X29864549Y-77193625D01*
X29483308Y-77098129D01*
X29094550Y-77040461D01*
X28702000Y-77021176D01*
X28309449Y-77040461D01*
X27920691Y-77098129D01*
X27539450Y-77193625D01*
X27169440Y-77326016D01*
X27169424Y-77326023D01*
X26814135Y-77494062D01*
X26477041Y-77696109D01*
X26161368Y-77930228D01*
X26055622Y-78026069D01*
X27653934Y-79624381D01*
X27545669Y-79707457D01*
X27383457Y-79869669D01*
X27300381Y-79977934D01*
X25702069Y-78379622D01*
X25606228Y-78485368D01*
X25372109Y-78801041D01*
X25170062Y-79138135D01*
X25002023Y-79493424D01*
X25002016Y-79493440D01*
X24869625Y-79863450D01*
X24774129Y-80244691D01*
X24716461Y-80633449D01*
X24697176Y-81026000D01*
X20183500Y-81026000D01*
X20183500Y-76510452D01*
X20203185Y-76443413D01*
X20219819Y-76422771D01*
X28000212Y-68642379D01*
X28061535Y-68608894D01*
X28087893Y-68606060D01*
X40032978Y-68606060D01*
X40100017Y-68625745D01*
X40133295Y-68657173D01*
X40162586Y-68697488D01*
X40285072Y-68819974D01*
X40425212Y-68921792D01*
X40579555Y-69000433D01*
X40744299Y-69053962D01*
X40915389Y-69081060D01*
X40915390Y-69081060D01*
X41888610Y-69081060D01*
X41888611Y-69081060D01*
X42059701Y-69053962D01*
X42196186Y-69009614D01*
X42266022Y-69007620D01*
X42325855Y-69043700D01*
X42356684Y-69106400D01*
X42358500Y-69127546D01*
X42358500Y-69373573D01*
X42338815Y-69440612D01*
X42286011Y-69486367D01*
X42216853Y-69496311D01*
X42196185Y-69491504D01*
X42059701Y-69447158D01*
X42059699Y-69447157D01*
X42059698Y-69447157D01*
X41928271Y-69426341D01*
X41888611Y-69420060D01*
X40915389Y-69420060D01*
X40875728Y-69426341D01*
X40744302Y-69447157D01*
X40579552Y-69500688D01*
X40425211Y-69579328D01*
X40345256Y-69637419D01*
X40285072Y-69681146D01*
X40285070Y-69681148D01*
X40285069Y-69681148D01*
X40162588Y-69803629D01*
X40162588Y-69803630D01*
X40162586Y-69803632D01*
X40118859Y-69863816D01*
X40060768Y-69943771D01*
X39982128Y-70098112D01*
X39928597Y-70262862D01*
X39901500Y-70433949D01*
X39901500Y-70607171D01*
X39928598Y-70778261D01*
X39982127Y-70943005D01*
X40060768Y-71097348D01*
X40162586Y-71237488D01*
X40285072Y-71359974D01*
X40425212Y-71461792D01*
X40579555Y-71540433D01*
X40744299Y-71593962D01*
X40915389Y-71621060D01*
X40915390Y-71621060D01*
X41888610Y-71621060D01*
X41888611Y-71621060D01*
X42059701Y-71593962D01*
X42196186Y-71549614D01*
X42266022Y-71547620D01*
X42325855Y-71583700D01*
X42356684Y-71646400D01*
X42358500Y-71667546D01*
X42358500Y-71912048D01*
X42338815Y-71979087D01*
X42286011Y-72024842D01*
X42216853Y-72034786D01*
X42196182Y-72029979D01*
X42056018Y-71984437D01*
X41902104Y-71960060D01*
X41884931Y-71957340D01*
X40911709Y-71957340D01*
X40894536Y-71960060D01*
X40740622Y-71984437D01*
X40575872Y-72037968D01*
X40421531Y-72116608D01*
X40341576Y-72174699D01*
X40281392Y-72218426D01*
X40281390Y-72218428D01*
X40281389Y-72218428D01*
X40158908Y-72340909D01*
X40158908Y-72340910D01*
X40158906Y-72340912D01*
X40156930Y-72343632D01*
X40057088Y-72481051D01*
X39978448Y-72635392D01*
X39924917Y-72800142D01*
X39897820Y-72971229D01*
X39897820Y-73144451D01*
X39924918Y-73315541D01*
X39978447Y-73480285D01*
X40057088Y-73634628D01*
X40158906Y-73774768D01*
X40281392Y-73897254D01*
X40421532Y-73999072D01*
X40575875Y-74077713D01*
X40740619Y-74131242D01*
X40911709Y-74158340D01*
X40911710Y-74158340D01*
X41884930Y-74158340D01*
X41884931Y-74158340D01*
X42056021Y-74131242D01*
X42196184Y-74085699D01*
X42266023Y-74083705D01*
X42325856Y-74119785D01*
X42356684Y-74182486D01*
X42358500Y-74203631D01*
X42358500Y-74452048D01*
X42338815Y-74519087D01*
X42286011Y-74564842D01*
X42216853Y-74574786D01*
X42196182Y-74569979D01*
X42056018Y-74524437D01*
X41902104Y-74500060D01*
X41884931Y-74497340D01*
X40911709Y-74497340D01*
X40894536Y-74500060D01*
X40740622Y-74524437D01*
X40575872Y-74577968D01*
X40421531Y-74656608D01*
X40341576Y-74714699D01*
X40281392Y-74758426D01*
X40281390Y-74758428D01*
X40281389Y-74758428D01*
X40158908Y-74880909D01*
X40158908Y-74880910D01*
X40158906Y-74880912D01*
X40156930Y-74883632D01*
X40057088Y-75021051D01*
X39978448Y-75175392D01*
X39924917Y-75340142D01*
X39921322Y-75362842D01*
X39897820Y-75511229D01*
X39897820Y-75684451D01*
X39924918Y-75855541D01*
X39978447Y-76020285D01*
X40057088Y-76174628D01*
X40158906Y-76314768D01*
X40281392Y-76437254D01*
X40421532Y-76539072D01*
X40575875Y-76617713D01*
X40740619Y-76671242D01*
X40911709Y-76698340D01*
X40911710Y-76698340D01*
X41884930Y-76698340D01*
X41884931Y-76698340D01*
X42056021Y-76671242D01*
X42196184Y-76625699D01*
X42266023Y-76623705D01*
X42325856Y-76659785D01*
X42356684Y-76722486D01*
X42358500Y-76743631D01*
X42358500Y-82435547D01*
X42338815Y-82502586D01*
X42322181Y-82523228D01*
X36114229Y-88731181D01*
X36052906Y-88764666D01*
X36026548Y-88767500D01*
X28707227Y-88767500D01*
X28640188Y-88747815D01*
X28605652Y-88714623D01*
X28470494Y-88521597D01*
X28303402Y-88354506D01*
X28303401Y-88354505D01*
X28117405Y-88224269D01*
X28073781Y-88169692D01*
X28066588Y-88100193D01*
X28098110Y-88037839D01*
X28117405Y-88021119D01*
X28303082Y-87891105D01*
X28470105Y-87724082D01*
X28605600Y-87530578D01*
X28705429Y-87316492D01*
X28705432Y-87316486D01*
X28762636Y-87103000D01*
X27865012Y-87103000D01*
X27897925Y-87045993D01*
X27932000Y-86918826D01*
X27932000Y-86787174D01*
X27897925Y-86660007D01*
X27865012Y-86603000D01*
X28762636Y-86603000D01*
X28762635Y-86602999D01*
X28705432Y-86389513D01*
X28705429Y-86389507D01*
X28605600Y-86175422D01*
X28605599Y-86175420D01*
X28470113Y-85981926D01*
X28470108Y-85981920D01*
X28303082Y-85814894D01*
X28109578Y-85679399D01*
X27895492Y-85579570D01*
X27895486Y-85579567D01*
X27682000Y-85522364D01*
X27682000Y-86419988D01*
X27624993Y-86387075D01*
X27497826Y-86353000D01*
X27366174Y-86353000D01*
X27239007Y-86387075D01*
X27182000Y-86419988D01*
X27182000Y-85522364D01*
X27181999Y-85522364D01*
X26968513Y-85579567D01*
X26968507Y-85579570D01*
X26754422Y-85679399D01*
X26754420Y-85679400D01*
X26560926Y-85814886D01*
X26560920Y-85814891D01*
X26393891Y-85981920D01*
X26393886Y-85981926D01*
X26258400Y-86175420D01*
X26258399Y-86175422D01*
X26158570Y-86389507D01*
X26158567Y-86389513D01*
X26101364Y-86602999D01*
X26101364Y-86603000D01*
X26998988Y-86603000D01*
X26966075Y-86660007D01*
X26932000Y-86787174D01*
X26932000Y-86918826D01*
X26966075Y-87045993D01*
X26998988Y-87103000D01*
X26101364Y-87103000D01*
X26158567Y-87316486D01*
X26158570Y-87316492D01*
X26258399Y-87530578D01*
X26393894Y-87724082D01*
X26560917Y-87891105D01*
X26746595Y-88021119D01*
X26790219Y-88075696D01*
X26797412Y-88145195D01*
X26765890Y-88207549D01*
X26746595Y-88224269D01*
X26560594Y-88354508D01*
X26393505Y-88521597D01*
X26257965Y-88715169D01*
X26257964Y-88715171D01*
X26158098Y-88929335D01*
X26158094Y-88929344D01*
X26096938Y-89157586D01*
X26096936Y-89157596D01*
X26076341Y-89392999D01*
X26076341Y-89393000D01*
X26096936Y-89628403D01*
X26096938Y-89628413D01*
X26158094Y-89856655D01*
X26158096Y-89856659D01*
X26158097Y-89856663D01*
X26233438Y-90018231D01*
X26257965Y-90070830D01*
X26257967Y-90070834D01*
X26284597Y-90108865D01*
X26393501Y-90264396D01*
X26393506Y-90264402D01*
X26515430Y-90386326D01*
X26548915Y-90447649D01*
X26543931Y-90517341D01*
X26502059Y-90573274D01*
X26471083Y-90590189D01*
X26339669Y-90639203D01*
X26339664Y-90639206D01*
X26224455Y-90725452D01*
X26224452Y-90725455D01*
X26138206Y-90840664D01*
X26138202Y-90840671D01*
X26087908Y-90975517D01*
X26081501Y-91035116D01*
X26081501Y-91035123D01*
X26081500Y-91035135D01*
X26081500Y-92830870D01*
X26081501Y-92830876D01*
X26087908Y-92890483D01*
X26138202Y-93025328D01*
X26138206Y-93025335D01*
X26224452Y-93140544D01*
X26224455Y-93140547D01*
X26339664Y-93226793D01*
X26339671Y-93226797D01*
X26474517Y-93277091D01*
X26474516Y-93277091D01*
X26481444Y-93277835D01*
X26534127Y-93283500D01*
X28329872Y-93283499D01*
X28389483Y-93277091D01*
X28524331Y-93226796D01*
X28639546Y-93140546D01*
X28725796Y-93025331D01*
X28776091Y-92890483D01*
X28782500Y-92830873D01*
X28782499Y-91035128D01*
X28776091Y-90975517D01*
X28751615Y-90909894D01*
X28725797Y-90840671D01*
X28725793Y-90840664D01*
X28639547Y-90725455D01*
X28639544Y-90725452D01*
X28524335Y-90639206D01*
X28524328Y-90639202D01*
X28392917Y-90590189D01*
X28336983Y-90548318D01*
X28312566Y-90482853D01*
X28327418Y-90414580D01*
X28348563Y-90386332D01*
X28470495Y-90264401D01*
X28605652Y-90071377D01*
X28660229Y-90027752D01*
X28707227Y-90018500D01*
X36398607Y-90018500D01*
X36459029Y-90006481D01*
X36519452Y-89994463D01*
X36519455Y-89994461D01*
X36519458Y-89994461D01*
X36552787Y-89980654D01*
X36552786Y-89980654D01*
X36552792Y-89980652D01*
X36633286Y-89947312D01*
X36684509Y-89913084D01*
X36735733Y-89878858D01*
X36822858Y-89791733D01*
X36822858Y-89791731D01*
X36833066Y-89781524D01*
X36833067Y-89781521D01*
X39214807Y-87399782D01*
X39276125Y-87366300D01*
X39345817Y-87371284D01*
X39401750Y-87413156D01*
X39414865Y-87435061D01*
X39466399Y-87545578D01*
X39601899Y-87739089D01*
X39602200Y-87739448D01*
X39602282Y-87739637D01*
X39604996Y-87743512D01*
X39604216Y-87744057D01*
X39630206Y-87803459D01*
X39619159Y-87872450D01*
X39594883Y-87906824D01*
X39152567Y-88349141D01*
X38717270Y-88784438D01*
X38717267Y-88784441D01*
X38673703Y-88828004D01*
X38630140Y-88871567D01*
X38606373Y-88907139D01*
X38606371Y-88907142D01*
X38561689Y-88974010D01*
X38561684Y-88974020D01*
X38553300Y-88994264D01*
X38553299Y-88994266D01*
X38514538Y-89087843D01*
X38514535Y-89087855D01*
X38490500Y-89208688D01*
X38490500Y-98495548D01*
X38470815Y-98562587D01*
X38454181Y-98583229D01*
X38131229Y-98906181D01*
X38069906Y-98939666D01*
X38043548Y-98942500D01*
X28707227Y-98942500D01*
X28640188Y-98922815D01*
X28605652Y-98889623D01*
X28470494Y-98696597D01*
X28303402Y-98529506D01*
X28303401Y-98529505D01*
X28117405Y-98399269D01*
X28073781Y-98344692D01*
X28066588Y-98275193D01*
X28098110Y-98212839D01*
X28117405Y-98196119D01*
X28303082Y-98066105D01*
X28470105Y-97899082D01*
X28605600Y-97705578D01*
X28705429Y-97491492D01*
X28705432Y-97491486D01*
X28762636Y-97278000D01*
X27865012Y-97278000D01*
X27897925Y-97220993D01*
X27932000Y-97093826D01*
X27932000Y-96962174D01*
X27897925Y-96835007D01*
X27865012Y-96778000D01*
X28762636Y-96778000D01*
X28762635Y-96777999D01*
X28705432Y-96564513D01*
X28705429Y-96564507D01*
X28605600Y-96350422D01*
X28605599Y-96350420D01*
X28470113Y-96156926D01*
X28470108Y-96156920D01*
X28303082Y-95989894D01*
X28109578Y-95854399D01*
X27895492Y-95754570D01*
X27895486Y-95754567D01*
X27682000Y-95697364D01*
X27682000Y-96594988D01*
X27624993Y-96562075D01*
X27497826Y-96528000D01*
X27366174Y-96528000D01*
X27239007Y-96562075D01*
X27182000Y-96594988D01*
X27182000Y-95697364D01*
X27181999Y-95697364D01*
X26968513Y-95754567D01*
X26968507Y-95754570D01*
X26754422Y-95854399D01*
X26754420Y-95854400D01*
X26560926Y-95989886D01*
X26560920Y-95989891D01*
X26393891Y-96156920D01*
X26393886Y-96156926D01*
X26258400Y-96350420D01*
X26258399Y-96350422D01*
X26158570Y-96564507D01*
X26158567Y-96564513D01*
X26101364Y-96777999D01*
X26101364Y-96778000D01*
X26998988Y-96778000D01*
X26966075Y-96835007D01*
X26932000Y-96962174D01*
X26932000Y-97093826D01*
X26966075Y-97220993D01*
X26998988Y-97278000D01*
X26101364Y-97278000D01*
X26158567Y-97491486D01*
X26158570Y-97491492D01*
X26258399Y-97705578D01*
X26393894Y-97899082D01*
X26560917Y-98066105D01*
X26746595Y-98196119D01*
X26790219Y-98250696D01*
X26797412Y-98320195D01*
X26765890Y-98382549D01*
X26746595Y-98399269D01*
X26560594Y-98529508D01*
X26393505Y-98696597D01*
X26257965Y-98890169D01*
X26257964Y-98890171D01*
X26158098Y-99104335D01*
X26158094Y-99104344D01*
X26096938Y-99332586D01*
X26096936Y-99332596D01*
X26076341Y-99567999D01*
X26076341Y-99568000D01*
X26096936Y-99803403D01*
X26096938Y-99803413D01*
X26158094Y-100031655D01*
X26158096Y-100031659D01*
X26158097Y-100031663D01*
X26233563Y-100193500D01*
X26257965Y-100245830D01*
X26257967Y-100245834D01*
X26366281Y-100400521D01*
X26393501Y-100439396D01*
X26393506Y-100439402D01*
X26515430Y-100561326D01*
X26548915Y-100622649D01*
X26543931Y-100692341D01*
X26502059Y-100748274D01*
X26471083Y-100765189D01*
X26339669Y-100814203D01*
X26339664Y-100814206D01*
X26224455Y-100900452D01*
X26224452Y-100900455D01*
X26138206Y-101015664D01*
X26138202Y-101015671D01*
X26087908Y-101150517D01*
X26081501Y-101210116D01*
X26081501Y-101210123D01*
X26081500Y-101210135D01*
X26081500Y-103005870D01*
X26081501Y-103005876D01*
X26087908Y-103065483D01*
X26138202Y-103200328D01*
X26138206Y-103200335D01*
X26224452Y-103315544D01*
X26224455Y-103315547D01*
X26339664Y-103401793D01*
X26339671Y-103401797D01*
X26474517Y-103452091D01*
X26474516Y-103452091D01*
X26481444Y-103452835D01*
X26534127Y-103458500D01*
X28329872Y-103458499D01*
X28389483Y-103452091D01*
X28524331Y-103401796D01*
X28639546Y-103315546D01*
X28725796Y-103200331D01*
X28776091Y-103065483D01*
X28782500Y-103005873D01*
X28782499Y-101210128D01*
X28776091Y-101150517D01*
X28746019Y-101069891D01*
X28725797Y-101015671D01*
X28725793Y-101015664D01*
X28639547Y-100900455D01*
X28639544Y-100900452D01*
X28524335Y-100814206D01*
X28524328Y-100814202D01*
X28392917Y-100765189D01*
X28336983Y-100723318D01*
X28312566Y-100657853D01*
X28327418Y-100589580D01*
X28348563Y-100561332D01*
X28470495Y-100439401D01*
X28605652Y-100246377D01*
X28660229Y-100202752D01*
X28707227Y-100193500D01*
X38415607Y-100193500D01*
X38476029Y-100181481D01*
X38536452Y-100169463D01*
X38536455Y-100169461D01*
X38536458Y-100169461D01*
X38569787Y-100155654D01*
X38569786Y-100155654D01*
X38569792Y-100155652D01*
X38650286Y-100122312D01*
X38701509Y-100088084D01*
X38752733Y-100053858D01*
X38839858Y-99966733D01*
X38839859Y-99966731D01*
X38846925Y-99959665D01*
X38846928Y-99959661D01*
X39092630Y-99713958D01*
X39153951Y-99680475D01*
X39223643Y-99685459D01*
X39279576Y-99727331D01*
X39303837Y-99790834D01*
X39304936Y-99803402D01*
X39304938Y-99803413D01*
X39366094Y-100031655D01*
X39366096Y-100031659D01*
X39366097Y-100031663D01*
X39441563Y-100193500D01*
X39465965Y-100245830D01*
X39465967Y-100245834D01*
X39574281Y-100400521D01*
X39601501Y-100439396D01*
X39601506Y-100439402D01*
X39723430Y-100561326D01*
X39756915Y-100622649D01*
X39751931Y-100692341D01*
X39710059Y-100748274D01*
X39679083Y-100765189D01*
X39547669Y-100814203D01*
X39547664Y-100814206D01*
X39432455Y-100900452D01*
X39432452Y-100900455D01*
X39346206Y-101015664D01*
X39346202Y-101015671D01*
X39295908Y-101150517D01*
X39289501Y-101210116D01*
X39289501Y-101210123D01*
X39289500Y-101210135D01*
X39289500Y-103005870D01*
X39289501Y-103005876D01*
X39295908Y-103065483D01*
X39346202Y-103200328D01*
X39346206Y-103200335D01*
X39432452Y-103315544D01*
X39432455Y-103315547D01*
X39547664Y-103401793D01*
X39547671Y-103401797D01*
X39682517Y-103452091D01*
X39682516Y-103452091D01*
X39689444Y-103452835D01*
X39742127Y-103458500D01*
X41537872Y-103458499D01*
X41597483Y-103452091D01*
X41732331Y-103401796D01*
X41847546Y-103315546D01*
X41933796Y-103200331D01*
X41984091Y-103065483D01*
X41990500Y-103005873D01*
X41990499Y-101210128D01*
X41984091Y-101150517D01*
X41954019Y-101069891D01*
X41933797Y-101015671D01*
X41933793Y-101015664D01*
X41847547Y-100900455D01*
X41847544Y-100900452D01*
X41732335Y-100814206D01*
X41732328Y-100814202D01*
X41600917Y-100765189D01*
X41544983Y-100723318D01*
X41520566Y-100657853D01*
X41535418Y-100589580D01*
X41556563Y-100561332D01*
X41678495Y-100439401D01*
X41813652Y-100246377D01*
X41868229Y-100202752D01*
X41915227Y-100193500D01*
X43749607Y-100193500D01*
X43810029Y-100181481D01*
X43870452Y-100169463D01*
X43870455Y-100169461D01*
X43870458Y-100169461D01*
X43903787Y-100155654D01*
X43903786Y-100155654D01*
X43903792Y-100155652D01*
X43984286Y-100122312D01*
X44035509Y-100088084D01*
X44081610Y-100057280D01*
X44148286Y-100036403D01*
X44215666Y-100054887D01*
X44262357Y-100106866D01*
X44274500Y-100160383D01*
X44274500Y-107697547D01*
X44254815Y-107764586D01*
X44238181Y-107785228D01*
X42957229Y-109066181D01*
X42895906Y-109099666D01*
X42869548Y-109102500D01*
X28707227Y-109102500D01*
X28640188Y-109082815D01*
X28605652Y-109049623D01*
X28470494Y-108856597D01*
X28303402Y-108689506D01*
X28303401Y-108689505D01*
X28117405Y-108559269D01*
X28073781Y-108504692D01*
X28066588Y-108435193D01*
X28098110Y-108372839D01*
X28117405Y-108356119D01*
X28303082Y-108226105D01*
X28470105Y-108059082D01*
X28605600Y-107865578D01*
X28705429Y-107651492D01*
X28705432Y-107651486D01*
X28762636Y-107438000D01*
X27865012Y-107438000D01*
X27897925Y-107380993D01*
X27932000Y-107253826D01*
X27932000Y-107122174D01*
X27897925Y-106995007D01*
X27865012Y-106938000D01*
X28762636Y-106938000D01*
X28762635Y-106937999D01*
X28705432Y-106724513D01*
X28705429Y-106724507D01*
X28605600Y-106510422D01*
X28605599Y-106510420D01*
X28470113Y-106316926D01*
X28470108Y-106316920D01*
X28303082Y-106149894D01*
X28109578Y-106014399D01*
X27895492Y-105914570D01*
X27895486Y-105914567D01*
X27682000Y-105857364D01*
X27682000Y-106754988D01*
X27624993Y-106722075D01*
X27497826Y-106688000D01*
X27366174Y-106688000D01*
X27239007Y-106722075D01*
X27182000Y-106754988D01*
X27182000Y-105857364D01*
X27181999Y-105857364D01*
X26968513Y-105914567D01*
X26968507Y-105914570D01*
X26754422Y-106014399D01*
X26754420Y-106014400D01*
X26560926Y-106149886D01*
X26560920Y-106149891D01*
X26393891Y-106316920D01*
X26393886Y-106316926D01*
X26258400Y-106510420D01*
X26258399Y-106510422D01*
X26158570Y-106724507D01*
X26158567Y-106724513D01*
X26101364Y-106937999D01*
X26101364Y-106938000D01*
X26998988Y-106938000D01*
X26966075Y-106995007D01*
X26932000Y-107122174D01*
X26932000Y-107253826D01*
X26966075Y-107380993D01*
X26998988Y-107438000D01*
X26101364Y-107438000D01*
X26158567Y-107651486D01*
X26158570Y-107651492D01*
X26258399Y-107865578D01*
X26393894Y-108059082D01*
X26560917Y-108226105D01*
X26746595Y-108356119D01*
X26790219Y-108410696D01*
X26797412Y-108480195D01*
X26765890Y-108542549D01*
X26746595Y-108559269D01*
X26560594Y-108689508D01*
X26393505Y-108856597D01*
X26257965Y-109050169D01*
X26257964Y-109050171D01*
X26158098Y-109264335D01*
X26158094Y-109264344D01*
X26096938Y-109492586D01*
X26096936Y-109492596D01*
X26076341Y-109727999D01*
X26076341Y-109728000D01*
X26096936Y-109963403D01*
X26096938Y-109963413D01*
X26158094Y-110191655D01*
X26158096Y-110191659D01*
X26158097Y-110191663D01*
X26233563Y-110353500D01*
X26257965Y-110405830D01*
X26257967Y-110405834D01*
X26366281Y-110560521D01*
X26393501Y-110599396D01*
X26393506Y-110599402D01*
X26515430Y-110721326D01*
X26548915Y-110782649D01*
X26543931Y-110852341D01*
X26502059Y-110908274D01*
X26471083Y-110925189D01*
X26339669Y-110974203D01*
X26339664Y-110974206D01*
X26224455Y-111060452D01*
X26224452Y-111060455D01*
X26138206Y-111175664D01*
X26138202Y-111175671D01*
X26087908Y-111310517D01*
X26081501Y-111370116D01*
X26081501Y-111370123D01*
X26081500Y-111370135D01*
X26081500Y-113165870D01*
X26081501Y-113165876D01*
X26087908Y-113225483D01*
X26138202Y-113360328D01*
X26138206Y-113360335D01*
X26224452Y-113475544D01*
X26224455Y-113475547D01*
X26339664Y-113561793D01*
X26339671Y-113561797D01*
X26474517Y-113612091D01*
X26474516Y-113612091D01*
X26481444Y-113612835D01*
X26534127Y-113618500D01*
X28329872Y-113618499D01*
X28389483Y-113612091D01*
X28524331Y-113561796D01*
X28639546Y-113475546D01*
X28725796Y-113360331D01*
X28776091Y-113225483D01*
X28782500Y-113165873D01*
X28782499Y-111370128D01*
X28776091Y-111310517D01*
X28746019Y-111229891D01*
X28725797Y-111175671D01*
X28725793Y-111175664D01*
X28639547Y-111060455D01*
X28639544Y-111060452D01*
X28524335Y-110974206D01*
X28524328Y-110974202D01*
X28392917Y-110925189D01*
X28336983Y-110883318D01*
X28312566Y-110817853D01*
X28327418Y-110749580D01*
X28348563Y-110721332D01*
X28470495Y-110599401D01*
X28605652Y-110406377D01*
X28660229Y-110362752D01*
X28707227Y-110353500D01*
X43241607Y-110353500D01*
X43302029Y-110341481D01*
X43362452Y-110329463D01*
X43362455Y-110329461D01*
X43362458Y-110329461D01*
X43395787Y-110315654D01*
X43395786Y-110315654D01*
X43395792Y-110315652D01*
X43476286Y-110282312D01*
X43527509Y-110248084D01*
X43578733Y-110213858D01*
X43665858Y-110126733D01*
X43665858Y-110126731D01*
X43676066Y-110116524D01*
X43676067Y-110116521D01*
X45000322Y-108792268D01*
X45061642Y-108758785D01*
X45131334Y-108763769D01*
X45187267Y-108805641D01*
X45211684Y-108871105D01*
X45212000Y-108879951D01*
X45212000Y-111499563D01*
X45192315Y-111566602D01*
X45139511Y-111612357D01*
X45070353Y-111622301D01*
X45006797Y-111593276D01*
X44969023Y-111534498D01*
X44966383Y-111523754D01*
X44951493Y-111448902D01*
X44951491Y-111448894D01*
X44879880Y-111276008D01*
X44879875Y-111275999D01*
X44775913Y-111120410D01*
X44775910Y-111120406D01*
X44643593Y-110988089D01*
X44643589Y-110988086D01*
X44488000Y-110884124D01*
X44487991Y-110884119D01*
X44315105Y-110812508D01*
X44315097Y-110812506D01*
X44131570Y-110776000D01*
X43938000Y-110776000D01*
X43938000Y-111476000D01*
X43438000Y-111476000D01*
X43438000Y-110776000D01*
X43244430Y-110776000D01*
X43060902Y-110812506D01*
X43060894Y-110812508D01*
X42888008Y-110884119D01*
X42887999Y-110884124D01*
X42732410Y-110988086D01*
X42732406Y-110988089D01*
X42600089Y-111120406D01*
X42600086Y-111120410D01*
X42496124Y-111275999D01*
X42496119Y-111276008D01*
X42424507Y-111448896D01*
X42424506Y-111448899D01*
X42419115Y-111475999D01*
X42419116Y-111476000D01*
X43288272Y-111476000D01*
X43196386Y-111514060D01*
X43126060Y-111584386D01*
X43088000Y-111676272D01*
X43088000Y-111775728D01*
X43126060Y-111867614D01*
X43196386Y-111937940D01*
X43288272Y-111976000D01*
X42419116Y-111976000D01*
X42424506Y-112003100D01*
X42424507Y-112003103D01*
X42496119Y-112175991D01*
X42496124Y-112176000D01*
X42600086Y-112331589D01*
X42600089Y-112331593D01*
X42732406Y-112463910D01*
X42732410Y-112463913D01*
X42887999Y-112567875D01*
X42888008Y-112567880D01*
X43060894Y-112639491D01*
X43060902Y-112639493D01*
X43244428Y-112675999D01*
X43244431Y-112676000D01*
X43438000Y-112676000D01*
X43438000Y-111976000D01*
X43938000Y-111976000D01*
X43938000Y-112676000D01*
X44131569Y-112676000D01*
X44131571Y-112675999D01*
X44315097Y-112639493D01*
X44315105Y-112639491D01*
X44487991Y-112567880D01*
X44488000Y-112567875D01*
X44643589Y-112463913D01*
X44643593Y-112463910D01*
X44775910Y-112331593D01*
X44775913Y-112331589D01*
X44879875Y-112176000D01*
X44879880Y-112175991D01*
X44951491Y-112003105D01*
X44951493Y-112003097D01*
X44966383Y-111928245D01*
X44998768Y-111866334D01*
X45059483Y-111831760D01*
X45129253Y-111835499D01*
X45185925Y-111876365D01*
X45211506Y-111941384D01*
X45212000Y-111952436D01*
X45212000Y-118099563D01*
X45192315Y-118166602D01*
X45139511Y-118212357D01*
X45070353Y-118222301D01*
X45006797Y-118193276D01*
X44969023Y-118134498D01*
X44966383Y-118123754D01*
X44951493Y-118048902D01*
X44951491Y-118048894D01*
X44879880Y-117876008D01*
X44879875Y-117875999D01*
X44775913Y-117720410D01*
X44775910Y-117720406D01*
X44643593Y-117588089D01*
X44643589Y-117588086D01*
X44488000Y-117484124D01*
X44487991Y-117484119D01*
X44315105Y-117412508D01*
X44315097Y-117412506D01*
X44131570Y-117376000D01*
X43938000Y-117376000D01*
X43938000Y-118076000D01*
X43438000Y-118076000D01*
X43438000Y-117376000D01*
X43244430Y-117376000D01*
X43060902Y-117412506D01*
X43060894Y-117412508D01*
X42888008Y-117484119D01*
X42887999Y-117484124D01*
X42732410Y-117588086D01*
X42732406Y-117588089D01*
X42600089Y-117720406D01*
X42600086Y-117720410D01*
X42496124Y-117875999D01*
X42496119Y-117876008D01*
X42424507Y-118048896D01*
X42424506Y-118048899D01*
X42419115Y-118075999D01*
X42419116Y-118076000D01*
X43288272Y-118076000D01*
X43196386Y-118114060D01*
X43126060Y-118184386D01*
X43088000Y-118276272D01*
X43088000Y-118375728D01*
X43126060Y-118467614D01*
X43196386Y-118537940D01*
X43288272Y-118576000D01*
X42419116Y-118576000D01*
X42424506Y-118603100D01*
X42424507Y-118603103D01*
X42496119Y-118775991D01*
X42496124Y-118776000D01*
X42600086Y-118931589D01*
X42600089Y-118931593D01*
X42732406Y-119063910D01*
X42732410Y-119063913D01*
X42887999Y-119167875D01*
X42888008Y-119167880D01*
X43060894Y-119239491D01*
X43060902Y-119239493D01*
X43244428Y-119275999D01*
X43244431Y-119276000D01*
X43438000Y-119276000D01*
X43438000Y-118576000D01*
X43938000Y-118576000D01*
X43938000Y-119276000D01*
X44131569Y-119276000D01*
X44131571Y-119275999D01*
X44315097Y-119239493D01*
X44315105Y-119239491D01*
X44487991Y-119167880D01*
X44488000Y-119167875D01*
X44643589Y-119063913D01*
X44643593Y-119063910D01*
X44775910Y-118931593D01*
X44775913Y-118931589D01*
X44879875Y-118776000D01*
X44879880Y-118775991D01*
X44951491Y-118603105D01*
X44951493Y-118603097D01*
X44966383Y-118528245D01*
X44998768Y-118466334D01*
X45059483Y-118431760D01*
X45129253Y-118435499D01*
X45185925Y-118476365D01*
X45211506Y-118541384D01*
X45212000Y-118552436D01*
X45212000Y-138306000D01*
X45192315Y-138373039D01*
X45139511Y-138418794D01*
X45088000Y-138430000D01*
X32875741Y-138430000D01*
X32808702Y-138410315D01*
X32762947Y-138357511D01*
X32753003Y-138288353D01*
X32782028Y-138224797D01*
X32806850Y-138202898D01*
X32897782Y-138142139D01*
X33037136Y-138002785D01*
X33037139Y-138002782D01*
X33146632Y-137838914D01*
X33222051Y-137656835D01*
X33260500Y-137463541D01*
X33260500Y-136466459D01*
X33260500Y-132686459D01*
X33260500Y-132136459D01*
X33260500Y-132136456D01*
X33222052Y-131943170D01*
X33222051Y-131943169D01*
X33222051Y-131943165D01*
X33222049Y-131943160D01*
X33146635Y-131761092D01*
X33146628Y-131761079D01*
X33037139Y-131597218D01*
X33037136Y-131597214D01*
X32897785Y-131457863D01*
X32897781Y-131457860D01*
X32733920Y-131348371D01*
X32733907Y-131348364D01*
X32551839Y-131272950D01*
X32551829Y-131272947D01*
X32358543Y-131234500D01*
X32358541Y-131234500D01*
X32161459Y-131234500D01*
X32161457Y-131234500D01*
X31968170Y-131272947D01*
X31968160Y-131272950D01*
X31786092Y-131348364D01*
X31786079Y-131348371D01*
X31622218Y-131457860D01*
X31622214Y-131457863D01*
X31482863Y-131597214D01*
X31482860Y-131597218D01*
X31373371Y-131761079D01*
X31373364Y-131761092D01*
X31297950Y-131943160D01*
X31297947Y-131943170D01*
X31259500Y-132136456D01*
X31259500Y-132653666D01*
X31239815Y-132720705D01*
X31187011Y-132766460D01*
X31117853Y-132776404D01*
X31073501Y-132761054D01*
X31052137Y-132748719D01*
X30944102Y-132719772D01*
X30905766Y-132709500D01*
X30754234Y-132709500D01*
X30607863Y-132748719D01*
X30476635Y-132824485D01*
X30476632Y-132824487D01*
X30369487Y-132931632D01*
X30369485Y-132931635D01*
X30293719Y-133062863D01*
X30254500Y-133209234D01*
X30254500Y-133360765D01*
X30293719Y-133507136D01*
X30320650Y-133553781D01*
X30369485Y-133638365D01*
X30476635Y-133745515D01*
X30559912Y-133793595D01*
X30607861Y-133821279D01*
X30607865Y-133821281D01*
X30754234Y-133860500D01*
X30754236Y-133860500D01*
X30905764Y-133860500D01*
X30905766Y-133860500D01*
X31052135Y-133821281D01*
X31062451Y-133815325D01*
X31073499Y-133808947D01*
X31141398Y-133792473D01*
X31207426Y-133815325D01*
X31250617Y-133870245D01*
X31259500Y-133916333D01*
X31259500Y-135840500D01*
X31239815Y-135907539D01*
X31187011Y-135953294D01*
X31135500Y-135964500D01*
X24744500Y-135964500D01*
X24677461Y-135944815D01*
X24631706Y-135892011D01*
X24620500Y-135840500D01*
X24620500Y-133916333D01*
X24640185Y-133849294D01*
X24692989Y-133803539D01*
X24762147Y-133793595D01*
X24806501Y-133808947D01*
X24827859Y-133821278D01*
X24827860Y-133821278D01*
X24827865Y-133821281D01*
X24974234Y-133860500D01*
X24974236Y-133860500D01*
X25125764Y-133860500D01*
X25125766Y-133860500D01*
X25272135Y-133821281D01*
X25403365Y-133745515D01*
X25408218Y-133740661D01*
X25469537Y-133707175D01*
X25539229Y-133712156D01*
X25595165Y-133754025D01*
X25603287Y-133766339D01*
X25682715Y-133903912D01*
X25741971Y-133969722D01*
X25809377Y-134044584D01*
X25962513Y-134155844D01*
X25962518Y-134155847D01*
X26135440Y-134232838D01*
X26135445Y-134232840D01*
X26320602Y-134272196D01*
X26320603Y-134272196D01*
X26509892Y-134272196D01*
X26509894Y-134272196D01*
X26695051Y-134232840D01*
X26867978Y-134155847D01*
X26867988Y-134155839D01*
X26869423Y-134155012D01*
X26870370Y-134154781D01*
X26873915Y-134153204D01*
X26874203Y-134153851D01*
X26937322Y-134138534D01*
X26981868Y-134149115D01*
X27153391Y-134225483D01*
X27153396Y-134225485D01*
X27338553Y-134264841D01*
X27338554Y-134264841D01*
X27527843Y-134264841D01*
X27527845Y-134264841D01*
X27713002Y-134225485D01*
X27885929Y-134148492D01*
X28039070Y-134037229D01*
X28099854Y-133969720D01*
X28159339Y-133933073D01*
X28229196Y-133934403D01*
X28284153Y-133969722D01*
X28346003Y-134038413D01*
X28499139Y-134149673D01*
X28499144Y-134149676D01*
X28672066Y-134226667D01*
X28672071Y-134226669D01*
X28857228Y-134266025D01*
X28857229Y-134266025D01*
X29046518Y-134266025D01*
X29046520Y-134266025D01*
X29231677Y-134226669D01*
X29404604Y-134149676D01*
X29557745Y-134038413D01*
X29684407Y-133897741D01*
X29779053Y-133733809D01*
X29837548Y-133553781D01*
X29857334Y-133365525D01*
X29837548Y-133177269D01*
X29779053Y-132997241D01*
X29684407Y-132833309D01*
X29557745Y-132692637D01*
X29549242Y-132686459D01*
X29404608Y-132581376D01*
X29404603Y-132581373D01*
X29231681Y-132504382D01*
X29231676Y-132504380D01*
X29085875Y-132473390D01*
X29046520Y-132465025D01*
X29046519Y-132465025D01*
X28987326Y-132465025D01*
X28920287Y-132445340D01*
X28899645Y-132428706D01*
X28613854Y-132142915D01*
X28580369Y-132081592D01*
X28577535Y-132055234D01*
X28577535Y-127806417D01*
X28597220Y-127739378D01*
X28613854Y-127718736D01*
X34021707Y-122310883D01*
X34083030Y-122277398D01*
X34152722Y-122282382D01*
X34208655Y-122324254D01*
X34233072Y-122389718D01*
X34233388Y-122398564D01*
X34233388Y-126591500D01*
X34213703Y-126658539D01*
X34160899Y-126704294D01*
X34109389Y-126715500D01*
X34011018Y-126715500D01*
X34011011Y-126715501D01*
X33951404Y-126721908D01*
X33816559Y-126772202D01*
X33816552Y-126772206D01*
X33701343Y-126858452D01*
X33701340Y-126858455D01*
X33615094Y-126973664D01*
X33615090Y-126973671D01*
X33564796Y-127108517D01*
X33558389Y-127168116D01*
X33558388Y-127168135D01*
X33558388Y-128863870D01*
X33558389Y-128863876D01*
X33564796Y-128923483D01*
X33615090Y-129058328D01*
X33615094Y-129058335D01*
X33701340Y-129173544D01*
X33701343Y-129173547D01*
X33816552Y-129259793D01*
X33816559Y-129259797D01*
X33951405Y-129310091D01*
X33951404Y-129310091D01*
X33958332Y-129310835D01*
X34011015Y-129316500D01*
X35706760Y-129316499D01*
X35766371Y-129310091D01*
X35901219Y-129259796D01*
X36016434Y-129173546D01*
X36023238Y-129164455D01*
X36079168Y-129122584D01*
X36148859Y-129117597D01*
X36193628Y-129137188D01*
X36206400Y-129146130D01*
X36206406Y-129146134D01*
X36412561Y-129242265D01*
X36412570Y-129242269D01*
X36632277Y-129301139D01*
X36632288Y-129301141D01*
X36858886Y-129320966D01*
X36858890Y-129320966D01*
X37085487Y-129301141D01*
X37085498Y-129301139D01*
X37305205Y-129242269D01*
X37305219Y-129242264D01*
X37511366Y-129146136D01*
X37584359Y-129095024D01*
X36905335Y-128416000D01*
X36911549Y-128416000D01*
X37013282Y-128388741D01*
X37104494Y-128336080D01*
X37178968Y-128261606D01*
X37231629Y-128170394D01*
X37258888Y-128068661D01*
X37258888Y-128062447D01*
X37937912Y-128741471D01*
X37989024Y-128668478D01*
X38085152Y-128462331D01*
X38085157Y-128462317D01*
X38144027Y-128242610D01*
X38144029Y-128242599D01*
X38163854Y-128016002D01*
X38163854Y-128015997D01*
X38144029Y-127789400D01*
X38144027Y-127789389D01*
X38085157Y-127569682D01*
X38085152Y-127569668D01*
X37989024Y-127363521D01*
X37989020Y-127363513D01*
X37937913Y-127290526D01*
X37258888Y-127969551D01*
X37258888Y-127963339D01*
X37231629Y-127861606D01*
X37178968Y-127770394D01*
X37104494Y-127695920D01*
X37013282Y-127643259D01*
X36911549Y-127616000D01*
X36905335Y-127616000D01*
X37584360Y-126936974D01*
X37511366Y-126885863D01*
X37305219Y-126789735D01*
X37305205Y-126789730D01*
X37085498Y-126730860D01*
X37085487Y-126730858D01*
X36858890Y-126711034D01*
X36858886Y-126711034D01*
X36632288Y-126730858D01*
X36632277Y-126730860D01*
X36412570Y-126789730D01*
X36412561Y-126789734D01*
X36206400Y-126885868D01*
X36206395Y-126885871D01*
X36193624Y-126894813D01*
X36127417Y-126917138D01*
X36059651Y-126900124D01*
X36023240Y-126867546D01*
X36016434Y-126858454D01*
X36016432Y-126858453D01*
X36016432Y-126858452D01*
X35901223Y-126772206D01*
X35901216Y-126772202D01*
X35766370Y-126721908D01*
X35766371Y-126721908D01*
X35706771Y-126715501D01*
X35706769Y-126715500D01*
X35706761Y-126715500D01*
X35706753Y-126715500D01*
X35608388Y-126715500D01*
X35541349Y-126695815D01*
X35495594Y-126643011D01*
X35484388Y-126591500D01*
X35484388Y-121661563D01*
X35504073Y-121594524D01*
X35520702Y-121573887D01*
X39690592Y-117403996D01*
X39727831Y-117378402D01*
X39822730Y-117336151D01*
X39975871Y-117224888D01*
X40102533Y-117084216D01*
X40197179Y-116920284D01*
X40255674Y-116740256D01*
X40275460Y-116552000D01*
X40255674Y-116363744D01*
X40197179Y-116183716D01*
X40102533Y-116019784D01*
X39975871Y-115879112D01*
X39953212Y-115862649D01*
X39822734Y-115767851D01*
X39822729Y-115767848D01*
X39649807Y-115690857D01*
X39649805Y-115690856D01*
X39583218Y-115676702D01*
X39521737Y-115643508D01*
X39491070Y-115593730D01*
X39435181Y-115421721D01*
X39435178Y-115421715D01*
X39340533Y-115257784D01*
X39213871Y-115117112D01*
X39213870Y-115117111D01*
X39060734Y-115005851D01*
X39060729Y-115005848D01*
X38887807Y-114928857D01*
X38887805Y-114928856D01*
X38821218Y-114914702D01*
X38759737Y-114881508D01*
X38729070Y-114831730D01*
X38673181Y-114659721D01*
X38673178Y-114659715D01*
X38622878Y-114572592D01*
X38578533Y-114495784D01*
X38451871Y-114355112D01*
X38451870Y-114355111D01*
X38298734Y-114243851D01*
X38298729Y-114243848D01*
X38125807Y-114166857D01*
X38125802Y-114166855D01*
X37980001Y-114135865D01*
X37940646Y-114127500D01*
X37751354Y-114127500D01*
X37738788Y-114130171D01*
X37566197Y-114166855D01*
X37566192Y-114166857D01*
X37393270Y-114243848D01*
X37393265Y-114243851D01*
X37240129Y-114355111D01*
X37113466Y-114495785D01*
X37018821Y-114659715D01*
X37018818Y-114659722D01*
X36970640Y-114808000D01*
X36960326Y-114839744D01*
X36940540Y-115028000D01*
X36960326Y-115216256D01*
X36960327Y-115216259D01*
X37018818Y-115396277D01*
X37018821Y-115396284D01*
X37113467Y-115560216D01*
X37150859Y-115601744D01*
X37188650Y-115643715D01*
X37218880Y-115706706D01*
X37220500Y-115726687D01*
X37220500Y-116529547D01*
X37200815Y-116596586D01*
X37184181Y-116617228D01*
X26438144Y-127363264D01*
X26438138Y-127363272D01*
X26369690Y-127465708D01*
X26369688Y-127465713D01*
X26322540Y-127579538D01*
X26322537Y-127579546D01*
X26302873Y-127678413D01*
X26302872Y-127678418D01*
X26298500Y-127700394D01*
X26298500Y-127984548D01*
X26278815Y-128051587D01*
X26226011Y-128097342D01*
X26156853Y-128107286D01*
X26093297Y-128078261D01*
X26086819Y-128072229D01*
X23271427Y-125256837D01*
X23237942Y-125195514D01*
X23235787Y-125182116D01*
X23221856Y-125049563D01*
X23221854Y-125049558D01*
X23163361Y-124869534D01*
X23068715Y-124705602D01*
X22942053Y-124564930D01*
X22942052Y-124564929D01*
X22788916Y-124453669D01*
X22788911Y-124453666D01*
X22615989Y-124376675D01*
X22615984Y-124376673D01*
X22470183Y-124345683D01*
X22430828Y-124337318D01*
X22241536Y-124337318D01*
X22209079Y-124344216D01*
X22056379Y-124376673D01*
X22056374Y-124376675D01*
X21883452Y-124453666D01*
X21883447Y-124453669D01*
X21730311Y-124564929D01*
X21603648Y-124705603D01*
X21509003Y-124869533D01*
X21509000Y-124869540D01*
X21450509Y-125049558D01*
X21450508Y-125049562D01*
X21430722Y-125237818D01*
X21450508Y-125426074D01*
X21450509Y-125426077D01*
X21509000Y-125606095D01*
X21509003Y-125606102D01*
X21603649Y-125770034D01*
X21680867Y-125855793D01*
X21705076Y-125906237D01*
X21729835Y-125911624D01*
X21743293Y-125920138D01*
X21883447Y-126021966D01*
X21883452Y-126021969D01*
X22056374Y-126098960D01*
X22056379Y-126098962D01*
X22241536Y-126138318D01*
X22332366Y-126138318D01*
X22399405Y-126158003D01*
X22420047Y-126174637D01*
X25754181Y-129508771D01*
X25787666Y-129570094D01*
X25790500Y-129596452D01*
X25790500Y-132672172D01*
X25770815Y-132739211D01*
X25758650Y-132755144D01*
X25682718Y-132839474D01*
X25682711Y-132839485D01*
X25666751Y-132867127D01*
X25616183Y-132915341D01*
X25547575Y-132928562D01*
X25482711Y-132902592D01*
X25471685Y-132892805D01*
X25403367Y-132824487D01*
X25403365Y-132824485D01*
X25320087Y-132776404D01*
X25272136Y-132748719D01*
X25164102Y-132719772D01*
X25125766Y-132709500D01*
X24974234Y-132709500D01*
X24827862Y-132748719D01*
X24806499Y-132761054D01*
X24738598Y-132777525D01*
X24672572Y-132754673D01*
X24629382Y-132699751D01*
X24620500Y-132653666D01*
X24620500Y-132136456D01*
X24582052Y-131943170D01*
X24582051Y-131943169D01*
X24582051Y-131943165D01*
X24582049Y-131943160D01*
X24506635Y-131761092D01*
X24506628Y-131761079D01*
X24397139Y-131597218D01*
X24397136Y-131597214D01*
X24257785Y-131457863D01*
X24257781Y-131457860D01*
X24093920Y-131348371D01*
X24093907Y-131348364D01*
X23911839Y-131272950D01*
X23911829Y-131272947D01*
X23718543Y-131234500D01*
X23718541Y-131234500D01*
X23521459Y-131234500D01*
X23521457Y-131234500D01*
X23328170Y-131272947D01*
X23328160Y-131272950D01*
X23146092Y-131348364D01*
X23146079Y-131348371D01*
X22982218Y-131457860D01*
X22982214Y-131457863D01*
X22842863Y-131597214D01*
X22842860Y-131597218D01*
X22733371Y-131761079D01*
X22733366Y-131761088D01*
X22708061Y-131822182D01*
X22664220Y-131876585D01*
X22597926Y-131898650D01*
X22530226Y-131881371D01*
X22482616Y-131830234D01*
X22469500Y-131774729D01*
X22469500Y-127192395D01*
X22464674Y-127168135D01*
X22463163Y-127160537D01*
X22445463Y-127071549D01*
X22445460Y-127071543D01*
X22445459Y-127071538D01*
X22398314Y-126957719D01*
X22398313Y-126957717D01*
X22356074Y-126894502D01*
X22356073Y-126894501D01*
X22350301Y-126885863D01*
X22329858Y-126855267D01*
X22329856Y-126855264D01*
X22239637Y-126765045D01*
X22239606Y-126765016D01*
X21582727Y-126108137D01*
X21552133Y-126052108D01*
X21523676Y-126044338D01*
X21501036Y-126026446D01*
X20750960Y-125276370D01*
X20717475Y-125215047D01*
X20715323Y-125201671D01*
X20697674Y-125033744D01*
X20639179Y-124853716D01*
X20544533Y-124689784D01*
X20417871Y-124549112D01*
X20417870Y-124549111D01*
X20264734Y-124437851D01*
X20264729Y-124437848D01*
X20091807Y-124360857D01*
X20091802Y-124360855D01*
X19946001Y-124329865D01*
X19906646Y-124321500D01*
X19717354Y-124321500D01*
X19684897Y-124328398D01*
X19532197Y-124360855D01*
X19532192Y-124360857D01*
X19359270Y-124437848D01*
X19359265Y-124437851D01*
X19206129Y-124549111D01*
X19079466Y-124689785D01*
X18984821Y-124853715D01*
X18984818Y-124853722D01*
X18926327Y-125033740D01*
X18926326Y-125033744D01*
X18906540Y-125222000D01*
X18926326Y-125410256D01*
X18926327Y-125410259D01*
X18984818Y-125590277D01*
X18984821Y-125590284D01*
X19079467Y-125754216D01*
X19093710Y-125770034D01*
X19206129Y-125894888D01*
X19359265Y-126006148D01*
X19359270Y-126006151D01*
X19532192Y-126083142D01*
X19532197Y-126083144D01*
X19717354Y-126122500D01*
X19776548Y-126122500D01*
X19843587Y-126142185D01*
X19864229Y-126158819D01*
X21182181Y-127476771D01*
X21215666Y-127538094D01*
X21218500Y-127564452D01*
X21218500Y-133583880D01*
X21198815Y-133650919D01*
X21186650Y-133666852D01*
X21127284Y-133732784D01*
X21032639Y-133896715D01*
X21032636Y-133896722D01*
X20984593Y-134044584D01*
X20974144Y-134076744D01*
X20954358Y-134265000D01*
X20974144Y-134453256D01*
X20974145Y-134453259D01*
X21032636Y-134633277D01*
X21032639Y-134633284D01*
X21127285Y-134797216D01*
X21253947Y-134937888D01*
X21407083Y-135049148D01*
X21407088Y-135049151D01*
X21580010Y-135126142D01*
X21580015Y-135126144D01*
X21765172Y-135165500D01*
X21765173Y-135165500D01*
X21954462Y-135165500D01*
X21954464Y-135165500D01*
X22139621Y-135126144D01*
X22312548Y-135049151D01*
X22422615Y-134969183D01*
X22488421Y-134945703D01*
X22556475Y-134961528D01*
X22605170Y-135011634D01*
X22619500Y-135069501D01*
X22619500Y-136466459D01*
X22619500Y-137463541D01*
X22619500Y-137463543D01*
X22619499Y-137463543D01*
X22657947Y-137656829D01*
X22657950Y-137656839D01*
X22733364Y-137838907D01*
X22733371Y-137838920D01*
X22842860Y-138002781D01*
X22842863Y-138002785D01*
X22982217Y-138142139D01*
X23073150Y-138202898D01*
X23117955Y-138256510D01*
X23126662Y-138325835D01*
X23096508Y-138388862D01*
X23037065Y-138425582D01*
X23004259Y-138430000D01*
X12315752Y-138430000D01*
X12248713Y-138410315D01*
X12202958Y-138357511D01*
X12191752Y-138306249D01*
X12060562Y-72973949D01*
X14501500Y-72973949D01*
X14501500Y-73147170D01*
X14528166Y-73315537D01*
X14528598Y-73318261D01*
X14582127Y-73483005D01*
X14660768Y-73637348D01*
X14762586Y-73777488D01*
X14885072Y-73899974D01*
X15025212Y-74001792D01*
X15179555Y-74080433D01*
X15344299Y-74133962D01*
X15515389Y-74161060D01*
X15515390Y-74161060D01*
X16488610Y-74161060D01*
X16488611Y-74161060D01*
X16659701Y-74133962D01*
X16824445Y-74080433D01*
X16978788Y-74001792D01*
X17118928Y-73899974D01*
X17241414Y-73777488D01*
X17343232Y-73637348D01*
X17421873Y-73483005D01*
X17475402Y-73318261D01*
X17502500Y-73147171D01*
X17502500Y-72973949D01*
X17475402Y-72802859D01*
X17421873Y-72638115D01*
X17343232Y-72483772D01*
X17241414Y-72343632D01*
X17118928Y-72221146D01*
X16978788Y-72119328D01*
X16824445Y-72040687D01*
X16659701Y-71987158D01*
X16659699Y-71987157D01*
X16659698Y-71987157D01*
X16528271Y-71966341D01*
X16488611Y-71960060D01*
X15515389Y-71960060D01*
X15475728Y-71966341D01*
X15344302Y-71987157D01*
X15179552Y-72040688D01*
X15025211Y-72119328D01*
X14945256Y-72177419D01*
X14885072Y-72221146D01*
X14885070Y-72221148D01*
X14885069Y-72221148D01*
X14762588Y-72343629D01*
X14762588Y-72343630D01*
X14762586Y-72343632D01*
X14718859Y-72403816D01*
X14660768Y-72483771D01*
X14582128Y-72638112D01*
X14528597Y-72802862D01*
X14501500Y-72973949D01*
X12060562Y-72973949D01*
X12057896Y-71646400D01*
X12055461Y-70433949D01*
X14501500Y-70433949D01*
X14501500Y-70607171D01*
X14528598Y-70778261D01*
X14582127Y-70943005D01*
X14660768Y-71097348D01*
X14762586Y-71237488D01*
X14885072Y-71359974D01*
X15025212Y-71461792D01*
X15179555Y-71540433D01*
X15344299Y-71593962D01*
X15515389Y-71621060D01*
X15515390Y-71621060D01*
X16488610Y-71621060D01*
X16488611Y-71621060D01*
X16659701Y-71593962D01*
X16824445Y-71540433D01*
X16978788Y-71461792D01*
X17118928Y-71359974D01*
X17241414Y-71237488D01*
X17343232Y-71097348D01*
X17421873Y-70943005D01*
X17475402Y-70778261D01*
X17502500Y-70607171D01*
X17502500Y-70433949D01*
X17475402Y-70262859D01*
X17421873Y-70098115D01*
X17343232Y-69943772D01*
X17241414Y-69803632D01*
X17118928Y-69681146D01*
X16978788Y-69579328D01*
X16824445Y-69500687D01*
X16659701Y-69447158D01*
X16659699Y-69447157D01*
X16659698Y-69447157D01*
X16528271Y-69426341D01*
X16488611Y-69420060D01*
X15515389Y-69420060D01*
X15475728Y-69426341D01*
X15344302Y-69447157D01*
X15179552Y-69500688D01*
X15025211Y-69579328D01*
X14945256Y-69637419D01*
X14885072Y-69681146D01*
X14885070Y-69681148D01*
X14885069Y-69681148D01*
X14762588Y-69803629D01*
X14762588Y-69803630D01*
X14762586Y-69803632D01*
X14718859Y-69863816D01*
X14660768Y-69943771D01*
X14582128Y-70098112D01*
X14528597Y-70262862D01*
X14501500Y-70433949D01*
X12055461Y-70433949D01*
X12050361Y-67893949D01*
X14501500Y-67893949D01*
X14501500Y-68067171D01*
X14528598Y-68238261D01*
X14582127Y-68403005D01*
X14660768Y-68557348D01*
X14762586Y-68697488D01*
X14885072Y-68819974D01*
X15025212Y-68921792D01*
X15179555Y-69000433D01*
X15344299Y-69053962D01*
X15515389Y-69081060D01*
X15515390Y-69081060D01*
X16488610Y-69081060D01*
X16488611Y-69081060D01*
X16659701Y-69053962D01*
X16824445Y-69000433D01*
X16978788Y-68921792D01*
X17118928Y-68819974D01*
X17241414Y-68697488D01*
X17343232Y-68557348D01*
X17421873Y-68403005D01*
X17475402Y-68238261D01*
X17502500Y-68067171D01*
X17502500Y-67893949D01*
X17475402Y-67722859D01*
X17421873Y-67558115D01*
X17343232Y-67403772D01*
X17241414Y-67263632D01*
X17118928Y-67141146D01*
X16978788Y-67039328D01*
X16824445Y-66960687D01*
X16659701Y-66907158D01*
X16659699Y-66907157D01*
X16659698Y-66907157D01*
X16528271Y-66886341D01*
X16488611Y-66880060D01*
X15515389Y-66880060D01*
X15475728Y-66886341D01*
X15344302Y-66907157D01*
X15179552Y-66960688D01*
X15025211Y-67039328D01*
X14945256Y-67097419D01*
X14885072Y-67141146D01*
X14885070Y-67141148D01*
X14885069Y-67141148D01*
X14762588Y-67263629D01*
X14762588Y-67263630D01*
X14762586Y-67263632D01*
X14718859Y-67323816D01*
X14660768Y-67403771D01*
X14582128Y-67558112D01*
X14528597Y-67722862D01*
X14501500Y-67893949D01*
X12050361Y-67893949D01*
X12045260Y-65353949D01*
X14501500Y-65353949D01*
X14501500Y-65527171D01*
X14528598Y-65698261D01*
X14582127Y-65863005D01*
X14660768Y-66017348D01*
X14762586Y-66157488D01*
X14885072Y-66279974D01*
X15025212Y-66381792D01*
X15179555Y-66460433D01*
X15344299Y-66513962D01*
X15515389Y-66541060D01*
X15515390Y-66541060D01*
X16488610Y-66541060D01*
X16488611Y-66541060D01*
X16659701Y-66513962D01*
X16824445Y-66460433D01*
X16978788Y-66381792D01*
X17118928Y-66279974D01*
X17241414Y-66157488D01*
X17343232Y-66017348D01*
X17421873Y-65863005D01*
X17475402Y-65698261D01*
X17502500Y-65527171D01*
X17502500Y-65353949D01*
X17475402Y-65182859D01*
X17421873Y-65018115D01*
X17343232Y-64863772D01*
X17241414Y-64723632D01*
X17118928Y-64601146D01*
X16978788Y-64499328D01*
X16824445Y-64420687D01*
X16659701Y-64367158D01*
X16659699Y-64367157D01*
X16659698Y-64367157D01*
X16528271Y-64346341D01*
X16488611Y-64340060D01*
X15515389Y-64340060D01*
X15475728Y-64346341D01*
X15344302Y-64367157D01*
X15179552Y-64420688D01*
X15025211Y-64499328D01*
X14945256Y-64557419D01*
X14885072Y-64601146D01*
X14885070Y-64601148D01*
X14885069Y-64601148D01*
X14762588Y-64723629D01*
X14762588Y-64723630D01*
X14762586Y-64723632D01*
X14718859Y-64783816D01*
X14660768Y-64863771D01*
X14582128Y-65018112D01*
X14528597Y-65182862D01*
X14501500Y-65353949D01*
X12045260Y-65353949D01*
X12039831Y-62650559D01*
X14527884Y-62650559D01*
X14527885Y-62650560D01*
X15686314Y-62650560D01*
X15681920Y-62654954D01*
X15629259Y-62746166D01*
X15602000Y-62847899D01*
X15602000Y-62953221D01*
X15629259Y-63054954D01*
X15681920Y-63146166D01*
X15686314Y-63150560D01*
X14527885Y-63150560D01*
X14529085Y-63158144D01*
X14582591Y-63322815D01*
X14661195Y-63477084D01*
X14762967Y-63617162D01*
X14885397Y-63739592D01*
X15025475Y-63841364D01*
X15179742Y-63919968D01*
X15344415Y-63973474D01*
X15515429Y-64000560D01*
X15752000Y-64000560D01*
X15752000Y-63216246D01*
X15756394Y-63220640D01*
X15847606Y-63273301D01*
X15949339Y-63300560D01*
X16054661Y-63300560D01*
X16156394Y-63273301D01*
X16247606Y-63220640D01*
X16252000Y-63216246D01*
X16252000Y-64000560D01*
X16488571Y-64000560D01*
X16659584Y-63973474D01*
X16824257Y-63919968D01*
X16978524Y-63841364D01*
X17118602Y-63739592D01*
X17241032Y-63617162D01*
X17342804Y-63477084D01*
X17421408Y-63322815D01*
X17474914Y-63158144D01*
X17476115Y-63150560D01*
X16317686Y-63150560D01*
X16322080Y-63146166D01*
X16374741Y-63054954D01*
X16402000Y-62953221D01*
X16402000Y-62847899D01*
X16374741Y-62746166D01*
X16322080Y-62654954D01*
X16317686Y-62650560D01*
X17476115Y-62650560D01*
X17476115Y-62650559D01*
X17474914Y-62642975D01*
X17421408Y-62478304D01*
X17342804Y-62324035D01*
X17241032Y-62183957D01*
X17118602Y-62061527D01*
X16978524Y-61959755D01*
X16824257Y-61881151D01*
X16659584Y-61827645D01*
X16488571Y-61800560D01*
X16252000Y-61800560D01*
X16252000Y-62584874D01*
X16247606Y-62580480D01*
X16156394Y-62527819D01*
X16054661Y-62500560D01*
X15949339Y-62500560D01*
X15847606Y-62527819D01*
X15756394Y-62580480D01*
X15752000Y-62584874D01*
X15752000Y-61800560D01*
X15515429Y-61800560D01*
X15344415Y-61827645D01*
X15179742Y-61881151D01*
X15025475Y-61959755D01*
X14885397Y-62061527D01*
X14762967Y-62183957D01*
X14661195Y-62324035D01*
X14582591Y-62478304D01*
X14529085Y-62642975D01*
X14527884Y-62650559D01*
X12039831Y-62650559D01*
X12035059Y-60273949D01*
X14501500Y-60273949D01*
X14501500Y-60447171D01*
X14528598Y-60618261D01*
X14582127Y-60783005D01*
X14660768Y-60937348D01*
X14762586Y-61077488D01*
X14885072Y-61199974D01*
X15025212Y-61301792D01*
X15179555Y-61380433D01*
X15344299Y-61433962D01*
X15515389Y-61461060D01*
X15515390Y-61461060D01*
X16488610Y-61461060D01*
X16488611Y-61461060D01*
X16659701Y-61433962D01*
X16824445Y-61380433D01*
X16978788Y-61301792D01*
X17118928Y-61199974D01*
X17241414Y-61077488D01*
X17343232Y-60937348D01*
X17421873Y-60783005D01*
X17475402Y-60618261D01*
X17502500Y-60447171D01*
X17502500Y-60273949D01*
X17475402Y-60102859D01*
X17421873Y-59938115D01*
X17343232Y-59783772D01*
X17241414Y-59643632D01*
X17118928Y-59521146D01*
X16978788Y-59419328D01*
X16824445Y-59340687D01*
X16659701Y-59287158D01*
X16659699Y-59287157D01*
X16659698Y-59287157D01*
X16528271Y-59266341D01*
X16488611Y-59260060D01*
X15515389Y-59260060D01*
X15475728Y-59266341D01*
X15344302Y-59287157D01*
X15179552Y-59340688D01*
X15025211Y-59419328D01*
X14945256Y-59477419D01*
X14885072Y-59521146D01*
X14885070Y-59521148D01*
X14885069Y-59521148D01*
X14762588Y-59643629D01*
X14762588Y-59643630D01*
X14762586Y-59643632D01*
X14718859Y-59703816D01*
X14660768Y-59783771D01*
X14582128Y-59938112D01*
X14528597Y-60102862D01*
X14501500Y-60273949D01*
X12035059Y-60273949D01*
X12029959Y-57733949D01*
X14501500Y-57733949D01*
X14501500Y-57907171D01*
X14528598Y-58078261D01*
X14582127Y-58243005D01*
X14660768Y-58397348D01*
X14762586Y-58537488D01*
X14885072Y-58659974D01*
X15025212Y-58761792D01*
X15179555Y-58840433D01*
X15344299Y-58893962D01*
X15515389Y-58921060D01*
X15515390Y-58921060D01*
X16488610Y-58921060D01*
X16488611Y-58921060D01*
X16659701Y-58893962D01*
X16824445Y-58840433D01*
X16978788Y-58761792D01*
X17118928Y-58659974D01*
X17241414Y-58537488D01*
X17343232Y-58397348D01*
X17421873Y-58243005D01*
X17475402Y-58078261D01*
X17502500Y-57907171D01*
X17502500Y-57733949D01*
X17475402Y-57562859D01*
X17421873Y-57398115D01*
X17343232Y-57243772D01*
X17241414Y-57103632D01*
X17118928Y-56981146D01*
X16978788Y-56879328D01*
X16824445Y-56800687D01*
X16659701Y-56747158D01*
X16659699Y-56747157D01*
X16659698Y-56747157D01*
X16528271Y-56726341D01*
X16488611Y-56720060D01*
X15515389Y-56720060D01*
X15475728Y-56726341D01*
X15344302Y-56747157D01*
X15179552Y-56800688D01*
X15025211Y-56879328D01*
X14945256Y-56937419D01*
X14885072Y-56981146D01*
X14885070Y-56981148D01*
X14885069Y-56981148D01*
X14762588Y-57103629D01*
X14762588Y-57103630D01*
X14762586Y-57103632D01*
X14718859Y-57163816D01*
X14660768Y-57243771D01*
X14582128Y-57398112D01*
X14528597Y-57562862D01*
X14501500Y-57733949D01*
X12029959Y-57733949D01*
X12024858Y-55193949D01*
X14501500Y-55193949D01*
X14501500Y-55367171D01*
X14528598Y-55538261D01*
X14582127Y-55703005D01*
X14660768Y-55857348D01*
X14762586Y-55997488D01*
X14885072Y-56119974D01*
X15025212Y-56221792D01*
X15179555Y-56300433D01*
X15344299Y-56353962D01*
X15515389Y-56381060D01*
X15515390Y-56381060D01*
X16488610Y-56381060D01*
X16488611Y-56381060D01*
X16659701Y-56353962D01*
X16824445Y-56300433D01*
X16978788Y-56221792D01*
X17118928Y-56119974D01*
X17241414Y-55997488D01*
X17343232Y-55857348D01*
X17421873Y-55703005D01*
X17475402Y-55538261D01*
X17502500Y-55367171D01*
X17502500Y-55193949D01*
X17475402Y-55022859D01*
X17421873Y-54858115D01*
X17343232Y-54703772D01*
X17241414Y-54563632D01*
X17118928Y-54441146D01*
X16978788Y-54339328D01*
X16824445Y-54260687D01*
X16659701Y-54207158D01*
X16659699Y-54207157D01*
X16659698Y-54207157D01*
X16528271Y-54186341D01*
X16488611Y-54180060D01*
X15515389Y-54180060D01*
X15475728Y-54186341D01*
X15344302Y-54207157D01*
X15179552Y-54260688D01*
X15025211Y-54339328D01*
X14945256Y-54397419D01*
X14885072Y-54441146D01*
X14885070Y-54441148D01*
X14885069Y-54441148D01*
X14762588Y-54563629D01*
X14762588Y-54563630D01*
X14762586Y-54563632D01*
X14718859Y-54623816D01*
X14660768Y-54703771D01*
X14582128Y-54858112D01*
X14528597Y-55022862D01*
X14501500Y-55193949D01*
X12024858Y-55193949D01*
X12019758Y-52653949D01*
X14501500Y-52653949D01*
X14501500Y-52827171D01*
X14528598Y-52998261D01*
X14582127Y-53163005D01*
X14660768Y-53317348D01*
X14762586Y-53457488D01*
X14885072Y-53579974D01*
X15025212Y-53681792D01*
X15179555Y-53760433D01*
X15344299Y-53813962D01*
X15515389Y-53841060D01*
X15515390Y-53841060D01*
X16488610Y-53841060D01*
X16488611Y-53841060D01*
X16659701Y-53813962D01*
X16824445Y-53760433D01*
X16978788Y-53681792D01*
X17118928Y-53579974D01*
X17241414Y-53457488D01*
X17343232Y-53317348D01*
X17421873Y-53163005D01*
X17475402Y-52998261D01*
X17502500Y-52827171D01*
X17502500Y-52653949D01*
X17475402Y-52482859D01*
X17421873Y-52318115D01*
X17343232Y-52163772D01*
X17241414Y-52023632D01*
X17118928Y-51901146D01*
X16978788Y-51799328D01*
X16824445Y-51720687D01*
X16659701Y-51667158D01*
X16659699Y-51667157D01*
X16659698Y-51667157D01*
X16528271Y-51646341D01*
X16488611Y-51640060D01*
X15515389Y-51640060D01*
X15475728Y-51646341D01*
X15344302Y-51667157D01*
X15179552Y-51720688D01*
X15025211Y-51799328D01*
X14945256Y-51857419D01*
X14885072Y-51901146D01*
X14885070Y-51901148D01*
X14885069Y-51901148D01*
X14762588Y-52023629D01*
X14762588Y-52023630D01*
X14762586Y-52023632D01*
X14718859Y-52083816D01*
X14660768Y-52163771D01*
X14582128Y-52318112D01*
X14528597Y-52482862D01*
X14501500Y-52653949D01*
X12019758Y-52653949D01*
X12014657Y-50113949D01*
X14501500Y-50113949D01*
X14501500Y-50287171D01*
X14528598Y-50458261D01*
X14582127Y-50623005D01*
X14660768Y-50777348D01*
X14762586Y-50917488D01*
X14885072Y-51039974D01*
X15025212Y-51141792D01*
X15179555Y-51220433D01*
X15344299Y-51273962D01*
X15515389Y-51301060D01*
X15515390Y-51301060D01*
X16488610Y-51301060D01*
X16488611Y-51301060D01*
X16659701Y-51273962D01*
X16824445Y-51220433D01*
X16978788Y-51141792D01*
X17118928Y-51039974D01*
X17241414Y-50917488D01*
X17343232Y-50777348D01*
X17421873Y-50623005D01*
X17475402Y-50458261D01*
X17502500Y-50287171D01*
X17502500Y-50113949D01*
X17475402Y-49942859D01*
X17421873Y-49778115D01*
X17343232Y-49623772D01*
X17241414Y-49483632D01*
X17118928Y-49361146D01*
X16978788Y-49259328D01*
X16824445Y-49180687D01*
X16659701Y-49127158D01*
X16659699Y-49127157D01*
X16659698Y-49127157D01*
X16528271Y-49106341D01*
X16488611Y-49100060D01*
X15515389Y-49100060D01*
X15475728Y-49106341D01*
X15344302Y-49127157D01*
X15179552Y-49180688D01*
X15025211Y-49259328D01*
X14945256Y-49317419D01*
X14885072Y-49361146D01*
X14885070Y-49361148D01*
X14885069Y-49361148D01*
X14762588Y-49483629D01*
X14762588Y-49483630D01*
X14762586Y-49483632D01*
X14718859Y-49543816D01*
X14660768Y-49623771D01*
X14582128Y-49778112D01*
X14528597Y-49942862D01*
X14501500Y-50113949D01*
X12014657Y-50113949D01*
X12009557Y-47573949D01*
X14501500Y-47573949D01*
X14501500Y-47747171D01*
X14528598Y-47918261D01*
X14582127Y-48083005D01*
X14660768Y-48237348D01*
X14762586Y-48377488D01*
X14885072Y-48499974D01*
X15025212Y-48601792D01*
X15179555Y-48680433D01*
X15344299Y-48733962D01*
X15515389Y-48761060D01*
X15515390Y-48761060D01*
X16488610Y-48761060D01*
X16488611Y-48761060D01*
X16659701Y-48733962D01*
X16824445Y-48680433D01*
X16978788Y-48601792D01*
X17118928Y-48499974D01*
X17241414Y-48377488D01*
X17343232Y-48237348D01*
X17421873Y-48083005D01*
X17475402Y-47918261D01*
X17502500Y-47747171D01*
X17502500Y-47573949D01*
X17475402Y-47402859D01*
X17421873Y-47238115D01*
X17343232Y-47083772D01*
X17241414Y-46943632D01*
X17118928Y-46821146D01*
X16978788Y-46719328D01*
X16824445Y-46640687D01*
X16659701Y-46587158D01*
X16659699Y-46587157D01*
X16659698Y-46587157D01*
X16528271Y-46566341D01*
X16488611Y-46560060D01*
X15515389Y-46560060D01*
X15475728Y-46566341D01*
X15344302Y-46587157D01*
X15179552Y-46640688D01*
X15025211Y-46719328D01*
X14945256Y-46777419D01*
X14885072Y-46821146D01*
X14885070Y-46821148D01*
X14885069Y-46821148D01*
X14762588Y-46943629D01*
X14762588Y-46943630D01*
X14762586Y-46943632D01*
X14718859Y-47003816D01*
X14660768Y-47083771D01*
X14582128Y-47238112D01*
X14528597Y-47402862D01*
X14501500Y-47573949D01*
X12009557Y-47573949D01*
X12004457Y-45033949D01*
X14501500Y-45033949D01*
X14501500Y-45207171D01*
X14528598Y-45378261D01*
X14582127Y-45543005D01*
X14660768Y-45697348D01*
X14762586Y-45837488D01*
X14885072Y-45959974D01*
X15025212Y-46061792D01*
X15179555Y-46140433D01*
X15344299Y-46193962D01*
X15515389Y-46221060D01*
X15515390Y-46221060D01*
X16488610Y-46221060D01*
X16488611Y-46221060D01*
X16659701Y-46193962D01*
X16824445Y-46140433D01*
X16978788Y-46061792D01*
X17118928Y-45959974D01*
X17241414Y-45837488D01*
X17343232Y-45697348D01*
X17421873Y-45543005D01*
X17475402Y-45378261D01*
X17502500Y-45207171D01*
X17502500Y-45033949D01*
X17475402Y-44862859D01*
X17421873Y-44698115D01*
X17343232Y-44543772D01*
X17241414Y-44403632D01*
X17118928Y-44281146D01*
X16978788Y-44179328D01*
X16824445Y-44100687D01*
X16659701Y-44047158D01*
X16659699Y-44047157D01*
X16659698Y-44047157D01*
X16528271Y-44026341D01*
X16488611Y-44020060D01*
X15515389Y-44020060D01*
X15475728Y-44026341D01*
X15344302Y-44047157D01*
X15179552Y-44100688D01*
X15025211Y-44179328D01*
X14945256Y-44237419D01*
X14885072Y-44281146D01*
X14885070Y-44281148D01*
X14885069Y-44281148D01*
X14762588Y-44403629D01*
X14762588Y-44403630D01*
X14762586Y-44403632D01*
X14762350Y-44403957D01*
X14660768Y-44543771D01*
X14582128Y-44698112D01*
X14528597Y-44862862D01*
X14527378Y-44870559D01*
X14501500Y-45033949D01*
X12004457Y-45033949D01*
X11984055Y-34873949D01*
X14501500Y-34873949D01*
X14501500Y-35047171D01*
X14528598Y-35218261D01*
X14582127Y-35383005D01*
X14660768Y-35537348D01*
X14762586Y-35677488D01*
X14885072Y-35799974D01*
X15025212Y-35901792D01*
X15179555Y-35980433D01*
X15344299Y-36033962D01*
X15515389Y-36061060D01*
X15515390Y-36061060D01*
X16488610Y-36061060D01*
X16488611Y-36061060D01*
X16659701Y-36033962D01*
X16824445Y-35980433D01*
X16978788Y-35901792D01*
X17118928Y-35799974D01*
X17241414Y-35677488D01*
X17343232Y-35537348D01*
X17421873Y-35383005D01*
X17475402Y-35218261D01*
X17502500Y-35047171D01*
X17502500Y-34873949D01*
X39901500Y-34873949D01*
X39901500Y-35047171D01*
X39928598Y-35218261D01*
X39982127Y-35383005D01*
X40060768Y-35537348D01*
X40162586Y-35677488D01*
X40285072Y-35799974D01*
X40425212Y-35901792D01*
X40579555Y-35980433D01*
X40744299Y-36033962D01*
X40915389Y-36061060D01*
X40915390Y-36061060D01*
X41888610Y-36061060D01*
X41888611Y-36061060D01*
X42059701Y-36033962D01*
X42224445Y-35980433D01*
X42378788Y-35901792D01*
X42518928Y-35799974D01*
X42641414Y-35677488D01*
X42743232Y-35537348D01*
X42821873Y-35383005D01*
X42875402Y-35218261D01*
X42902500Y-35047171D01*
X42902500Y-34873949D01*
X42875402Y-34702859D01*
X42821873Y-34538115D01*
X42743232Y-34383772D01*
X42641414Y-34243632D01*
X42518928Y-34121146D01*
X42378788Y-34019328D01*
X42224445Y-33940687D01*
X42059701Y-33887158D01*
X42059699Y-33887157D01*
X42059698Y-33887157D01*
X41928271Y-33866341D01*
X41888611Y-33860060D01*
X40915389Y-33860060D01*
X40875728Y-33866341D01*
X40744302Y-33887157D01*
X40579552Y-33940688D01*
X40425211Y-34019328D01*
X40345256Y-34077419D01*
X40285072Y-34121146D01*
X40285070Y-34121148D01*
X40285069Y-34121148D01*
X40162588Y-34243629D01*
X40162588Y-34243630D01*
X40162586Y-34243632D01*
X40130023Y-34288451D01*
X40060768Y-34383771D01*
X39982128Y-34538112D01*
X39928597Y-34702862D01*
X39901500Y-34873949D01*
X17502500Y-34873949D01*
X17475402Y-34702859D01*
X17421873Y-34538115D01*
X17343232Y-34383772D01*
X17241414Y-34243632D01*
X17118928Y-34121146D01*
X16978788Y-34019328D01*
X16824445Y-33940687D01*
X16659701Y-33887158D01*
X16659699Y-33887157D01*
X16659698Y-33887157D01*
X16528271Y-33866341D01*
X16488611Y-33860060D01*
X15515389Y-33860060D01*
X15475728Y-33866341D01*
X15344302Y-33887157D01*
X15179552Y-33940688D01*
X15025211Y-34019328D01*
X14945256Y-34077419D01*
X14885072Y-34121146D01*
X14885070Y-34121148D01*
X14885069Y-34121148D01*
X14762588Y-34243629D01*
X14762588Y-34243630D01*
X14762586Y-34243632D01*
X14730023Y-34288451D01*
X14660768Y-34383771D01*
X14582128Y-34538112D01*
X14528597Y-34702862D01*
X14501500Y-34873949D01*
X11984055Y-34873949D01*
X11978955Y-32333949D01*
X14501500Y-32333949D01*
X14501500Y-32507171D01*
X14528598Y-32678261D01*
X14582127Y-32843005D01*
X14660768Y-32997348D01*
X14762586Y-33137488D01*
X14885072Y-33259974D01*
X15025212Y-33361792D01*
X15179555Y-33440433D01*
X15344299Y-33493962D01*
X15515389Y-33521060D01*
X15515390Y-33521060D01*
X16488610Y-33521060D01*
X16488611Y-33521060D01*
X16659701Y-33493962D01*
X16824445Y-33440433D01*
X16978788Y-33361792D01*
X17118928Y-33259974D01*
X17241414Y-33137488D01*
X17343232Y-32997348D01*
X17421873Y-32843005D01*
X17475402Y-32678261D01*
X17502500Y-32507171D01*
X17502500Y-32333949D01*
X17475402Y-32162859D01*
X17421873Y-31998115D01*
X17343232Y-31843772D01*
X17241414Y-31703632D01*
X17118928Y-31581146D01*
X16978788Y-31479328D01*
X16824445Y-31400687D01*
X16659701Y-31347158D01*
X16659699Y-31347157D01*
X16659698Y-31347157D01*
X16528271Y-31326341D01*
X16488611Y-31320060D01*
X15515389Y-31320060D01*
X15475728Y-31326341D01*
X15344302Y-31347157D01*
X15179552Y-31400688D01*
X15025211Y-31479328D01*
X14945256Y-31537419D01*
X14885072Y-31581146D01*
X14885070Y-31581148D01*
X14885069Y-31581148D01*
X14762588Y-31703629D01*
X14762588Y-31703630D01*
X14762586Y-31703632D01*
X14718859Y-31763816D01*
X14660768Y-31843771D01*
X14582128Y-31998112D01*
X14528597Y-32162862D01*
X14501500Y-32333949D01*
X11978955Y-32333949D01*
X11972728Y-29232695D01*
X14501500Y-29232695D01*
X14501500Y-30528430D01*
X14501501Y-30528436D01*
X14507908Y-30588043D01*
X14558202Y-30722888D01*
X14558206Y-30722895D01*
X14644452Y-30838104D01*
X14644455Y-30838107D01*
X14759664Y-30924353D01*
X14759671Y-30924357D01*
X14894517Y-30974651D01*
X14894516Y-30974651D01*
X14901444Y-30975395D01*
X14954127Y-30981060D01*
X17049872Y-30981059D01*
X17109483Y-30974651D01*
X17244331Y-30924356D01*
X17359546Y-30838106D01*
X17445796Y-30722891D01*
X17496091Y-30588043D01*
X17502500Y-30528433D01*
X17502499Y-29630559D01*
X39927884Y-29630559D01*
X39927885Y-29630560D01*
X41086314Y-29630560D01*
X41081920Y-29634954D01*
X41029259Y-29726166D01*
X41002000Y-29827899D01*
X41002000Y-29933221D01*
X41029259Y-30034954D01*
X41081920Y-30126166D01*
X41086314Y-30130560D01*
X39927885Y-30130560D01*
X39929085Y-30138144D01*
X39982591Y-30302815D01*
X40061195Y-30457084D01*
X40162967Y-30597162D01*
X40285397Y-30719592D01*
X40425475Y-30821364D01*
X40579742Y-30899968D01*
X40744415Y-30953474D01*
X40915429Y-30980560D01*
X41152000Y-30980560D01*
X41152000Y-30196246D01*
X41156394Y-30200640D01*
X41247606Y-30253301D01*
X41349339Y-30280560D01*
X41454661Y-30280560D01*
X41556394Y-30253301D01*
X41647606Y-30200640D01*
X41652000Y-30196246D01*
X41652000Y-30980560D01*
X41888571Y-30980560D01*
X42059584Y-30953474D01*
X42224257Y-30899968D01*
X42378524Y-30821364D01*
X42518602Y-30719592D01*
X42641032Y-30597162D01*
X42742804Y-30457084D01*
X42821408Y-30302815D01*
X42874914Y-30138144D01*
X42876115Y-30130560D01*
X41717686Y-30130560D01*
X41722080Y-30126166D01*
X41774741Y-30034954D01*
X41802000Y-29933221D01*
X41802000Y-29827899D01*
X41774741Y-29726166D01*
X41722080Y-29634954D01*
X41717686Y-29630560D01*
X42876115Y-29630560D01*
X42876115Y-29630559D01*
X42874914Y-29622975D01*
X42821408Y-29458304D01*
X42742804Y-29304035D01*
X42641032Y-29163957D01*
X42518602Y-29041527D01*
X42378524Y-28939755D01*
X42224257Y-28861151D01*
X42059584Y-28807645D01*
X41888571Y-28780560D01*
X41652000Y-28780560D01*
X41652000Y-29564874D01*
X41647606Y-29560480D01*
X41556394Y-29507819D01*
X41454661Y-29480560D01*
X41349339Y-29480560D01*
X41247606Y-29507819D01*
X41156394Y-29560480D01*
X41152000Y-29564874D01*
X41152000Y-28780560D01*
X40915429Y-28780560D01*
X40744415Y-28807645D01*
X40579742Y-28861151D01*
X40425475Y-28939755D01*
X40285397Y-29041527D01*
X40162967Y-29163957D01*
X40061195Y-29304035D01*
X39982591Y-29458304D01*
X39929085Y-29622975D01*
X39927884Y-29630559D01*
X17502499Y-29630559D01*
X17502499Y-29232688D01*
X17496091Y-29173077D01*
X17492689Y-29163957D01*
X17445797Y-29038231D01*
X17445793Y-29038224D01*
X17359547Y-28923015D01*
X17359544Y-28923012D01*
X17244335Y-28836766D01*
X17244328Y-28836762D01*
X17109482Y-28786468D01*
X17109483Y-28786468D01*
X17049883Y-28780061D01*
X17049881Y-28780060D01*
X17049873Y-28780060D01*
X17049864Y-28780060D01*
X14954129Y-28780060D01*
X14954123Y-28780061D01*
X14894516Y-28786468D01*
X14759671Y-28836762D01*
X14759664Y-28836766D01*
X14644455Y-28923012D01*
X14644452Y-28923015D01*
X14558206Y-29038224D01*
X14558202Y-29038231D01*
X14507908Y-29173077D01*
X14501501Y-29232676D01*
X14501501Y-29232683D01*
X14501500Y-29232695D01*
X11972728Y-29232695D01*
X11948200Y-17018000D01*
X24697176Y-17018000D01*
X24716461Y-17410550D01*
X24774129Y-17799308D01*
X24869625Y-18180549D01*
X25002016Y-18550559D01*
X25002023Y-18550575D01*
X25170062Y-18905864D01*
X25372109Y-19242958D01*
X25606228Y-19558632D01*
X25702068Y-19664376D01*
X25702069Y-19664376D01*
X27300381Y-18066064D01*
X27383457Y-18174331D01*
X27545669Y-18336543D01*
X27653934Y-18419617D01*
X26055622Y-20017929D01*
X26055622Y-20017930D01*
X26161367Y-20113771D01*
X26477041Y-20347890D01*
X26814135Y-20549937D01*
X27169424Y-20717976D01*
X27169440Y-20717983D01*
X27539450Y-20850374D01*
X27920691Y-20945870D01*
X28309449Y-21003538D01*
X28702000Y-21022823D01*
X29094550Y-21003538D01*
X29483308Y-20945870D01*
X29864549Y-20850374D01*
X30234559Y-20717983D01*
X30234575Y-20717976D01*
X30589864Y-20549937D01*
X30926958Y-20347890D01*
X31242632Y-20113770D01*
X31348376Y-20017929D01*
X29750065Y-18419618D01*
X29858331Y-18336543D01*
X30020543Y-18174331D01*
X30103618Y-18066065D01*
X31701929Y-19664376D01*
X31797770Y-19558632D01*
X32031890Y-19242958D01*
X32233937Y-18905864D01*
X32401976Y-18550575D01*
X32401983Y-18550559D01*
X32534374Y-18180549D01*
X32629870Y-17799308D01*
X32687538Y-17410550D01*
X32706823Y-17018000D01*
X32687538Y-16625449D01*
X32629870Y-16236691D01*
X32534374Y-15855450D01*
X32401983Y-15485440D01*
X32401976Y-15485424D01*
X32233937Y-15130135D01*
X32031890Y-14793041D01*
X31797771Y-14477367D01*
X31701930Y-14371622D01*
X31701929Y-14371622D01*
X30103617Y-15969934D01*
X30020543Y-15861669D01*
X29858331Y-15699457D01*
X29750065Y-15616381D01*
X31348376Y-14018069D01*
X31348376Y-14018068D01*
X31242632Y-13922228D01*
X30926958Y-13688109D01*
X30589864Y-13486062D01*
X30234575Y-13318023D01*
X30234559Y-13318016D01*
X29864549Y-13185625D01*
X29483308Y-13090129D01*
X29094550Y-13032461D01*
X28702000Y-13013176D01*
X28309449Y-13032461D01*
X27920691Y-13090129D01*
X27539450Y-13185625D01*
X27169440Y-13318016D01*
X27169424Y-13318023D01*
X26814135Y-13486062D01*
X26477041Y-13688109D01*
X26161368Y-13922228D01*
X26055622Y-14018069D01*
X27653934Y-15616381D01*
X27545669Y-15699457D01*
X27383457Y-15861669D01*
X27300381Y-15969934D01*
X25702069Y-14371622D01*
X25606228Y-14477368D01*
X25372109Y-14793041D01*
X25170062Y-15130135D01*
X25002023Y-15485424D01*
X25002016Y-15485440D01*
X24869625Y-15855450D01*
X24774129Y-16236691D01*
X24716461Y-16625449D01*
X24697176Y-17018000D01*
X11948200Y-17018000D01*
X11938249Y-12062247D01*
X11957799Y-11995170D01*
X12010511Y-11949309D01*
X12062249Y-11938000D01*
X45088000Y-11938000D01*
X45155039Y-11957685D01*
G37*
%TD.AperFunction*%
%TA.AperFunction,Conductor*%
G36*
X43785126Y-90018231D02*
G01*
X43820692Y-90078372D01*
X43824500Y-90108865D01*
X43824500Y-98495548D01*
X43804815Y-98562587D01*
X43788181Y-98583229D01*
X43465229Y-98906181D01*
X43403906Y-98939666D01*
X43377548Y-98942500D01*
X41915227Y-98942500D01*
X41848188Y-98922815D01*
X41813652Y-98889623D01*
X41678494Y-98696597D01*
X41511402Y-98529506D01*
X41511401Y-98529505D01*
X41325405Y-98399269D01*
X41281781Y-98344692D01*
X41274588Y-98275193D01*
X41306110Y-98212839D01*
X41325405Y-98196119D01*
X41511082Y-98066105D01*
X41678105Y-97899082D01*
X41813600Y-97705578D01*
X41913429Y-97491492D01*
X41913432Y-97491486D01*
X41970636Y-97278000D01*
X41073012Y-97278000D01*
X41105925Y-97220993D01*
X41140000Y-97093826D01*
X41140000Y-96962174D01*
X41105925Y-96835007D01*
X41073012Y-96778000D01*
X41970636Y-96778000D01*
X41970635Y-96777999D01*
X41913432Y-96564513D01*
X41913429Y-96564507D01*
X41813600Y-96350422D01*
X41813599Y-96350420D01*
X41678113Y-96156926D01*
X41678108Y-96156920D01*
X41511082Y-95989894D01*
X41317578Y-95854399D01*
X41103492Y-95754570D01*
X41103486Y-95754567D01*
X40890000Y-95697364D01*
X40890000Y-96594988D01*
X40832993Y-96562075D01*
X40705826Y-96528000D01*
X40574174Y-96528000D01*
X40447007Y-96562075D01*
X40390000Y-96594988D01*
X40390000Y-95697364D01*
X40389999Y-95697364D01*
X40176513Y-95754567D01*
X40176507Y-95754570D01*
X39962422Y-95854399D01*
X39962420Y-95854400D01*
X39936623Y-95872464D01*
X39870416Y-95894792D01*
X39802649Y-95877780D01*
X39754837Y-95826832D01*
X39741500Y-95770889D01*
X39741500Y-93422499D01*
X39761185Y-93355460D01*
X39813989Y-93309705D01*
X39865495Y-93298499D01*
X41537872Y-93298499D01*
X41597483Y-93292091D01*
X41732331Y-93241796D01*
X41847546Y-93155546D01*
X41933796Y-93040331D01*
X41984091Y-92905483D01*
X41990500Y-92845873D01*
X41990499Y-91050128D01*
X41984091Y-90990517D01*
X41978496Y-90975517D01*
X41933797Y-90855671D01*
X41933793Y-90855664D01*
X41847547Y-90740455D01*
X41847544Y-90740452D01*
X41732335Y-90654206D01*
X41732328Y-90654202D01*
X41600917Y-90605189D01*
X41544983Y-90563318D01*
X41520566Y-90497853D01*
X41535418Y-90429580D01*
X41556563Y-90401332D01*
X41678495Y-90279401D01*
X41813652Y-90086377D01*
X41868229Y-90042752D01*
X41915227Y-90033500D01*
X43495608Y-90033500D01*
X43495608Y-90033499D01*
X43571018Y-90018500D01*
X43571019Y-90018500D01*
X43582454Y-90016225D01*
X43616452Y-90009463D01*
X43636520Y-90001150D01*
X43652666Y-89994463D01*
X43652673Y-89994482D01*
X43652821Y-89994398D01*
X43653213Y-89994235D01*
X43722692Y-89986867D01*
X43785126Y-90018231D01*
G37*
%TD.AperFunction*%
%TA.AperFunction,Conductor*%
G36*
X42727834Y-83989269D02*
G01*
X42783767Y-84031141D01*
X42808184Y-84096605D01*
X42808500Y-84105451D01*
X42808500Y-86811547D01*
X42788815Y-86878586D01*
X42772181Y-86899228D01*
X42290229Y-87381181D01*
X42228906Y-87414666D01*
X42202548Y-87417500D01*
X42051985Y-87417500D01*
X41984946Y-87397815D01*
X41939191Y-87345011D01*
X41929247Y-87275853D01*
X41932210Y-87261406D01*
X41970636Y-87118000D01*
X41073012Y-87118000D01*
X41105925Y-87060993D01*
X41140000Y-86933826D01*
X41140000Y-86802174D01*
X41105925Y-86675007D01*
X41073012Y-86618000D01*
X41970636Y-86618000D01*
X41970635Y-86617999D01*
X41913432Y-86404513D01*
X41913429Y-86404507D01*
X41813600Y-86190422D01*
X41813599Y-86190420D01*
X41678113Y-85996926D01*
X41678108Y-85996920D01*
X41511082Y-85829894D01*
X41317578Y-85694399D01*
X41207062Y-85642865D01*
X41154623Y-85596693D01*
X41135471Y-85529499D01*
X41155687Y-85462618D01*
X41171778Y-85442811D01*
X42596821Y-84017768D01*
X42658142Y-83984285D01*
X42727834Y-83989269D01*
G37*
%TD.AperFunction*%
%TA.AperFunction,Conductor*%
G36*
X18851834Y-77134062D02*
G01*
X18907767Y-77175934D01*
X18932184Y-77241398D01*
X18932500Y-77250244D01*
X18932500Y-83001547D01*
X18912815Y-83068586D01*
X18896181Y-83089228D01*
X18511077Y-83474332D01*
X18449754Y-83507817D01*
X18380062Y-83502833D01*
X18324129Y-83460961D01*
X18321821Y-83457774D01*
X18310493Y-83441596D01*
X18143402Y-83274506D01*
X18143401Y-83274505D01*
X17957405Y-83144269D01*
X17913781Y-83089692D01*
X17906588Y-83020193D01*
X17938110Y-82957839D01*
X17957405Y-82941119D01*
X18143082Y-82811105D01*
X18310105Y-82644082D01*
X18445600Y-82450578D01*
X18545429Y-82236492D01*
X18545432Y-82236486D01*
X18602636Y-82023000D01*
X17705012Y-82023000D01*
X17737925Y-81965993D01*
X17772000Y-81838826D01*
X17772000Y-81707174D01*
X17737925Y-81580007D01*
X17705012Y-81523000D01*
X18602636Y-81523000D01*
X18602635Y-81522999D01*
X18545432Y-81309513D01*
X18545429Y-81309507D01*
X18445600Y-81095422D01*
X18445599Y-81095420D01*
X18310113Y-80901926D01*
X18310108Y-80901920D01*
X18143082Y-80734894D01*
X17949578Y-80599399D01*
X17735492Y-80499570D01*
X17735486Y-80499567D01*
X17522000Y-80442364D01*
X17522000Y-81339988D01*
X17464993Y-81307075D01*
X17337826Y-81273000D01*
X17206174Y-81273000D01*
X17079007Y-81307075D01*
X17022000Y-81339988D01*
X17022000Y-80442364D01*
X17021999Y-80442364D01*
X16808513Y-80499567D01*
X16808507Y-80499570D01*
X16594422Y-80599399D01*
X16594420Y-80599400D01*
X16568623Y-80617464D01*
X16502416Y-80639792D01*
X16434649Y-80622780D01*
X16386837Y-80571832D01*
X16373500Y-80515889D01*
X16373500Y-79561244D01*
X16393185Y-79494205D01*
X16409819Y-79473563D01*
X18720819Y-77162563D01*
X18782142Y-77129078D01*
X18851834Y-77134062D01*
G37*
%TD.AperFunction*%
%TD*%
M02*
