%TF.GenerationSoftware,KiCad,Pcbnew,8.0.3*%
%TF.CreationDate,2024-07-29T14:15:39+02:00*%
%TF.ProjectId,7Analyzer,37416e61-6c79-47a6-9572-2e6b69636164,rev?*%
%TF.SameCoordinates,Original*%
%TF.FileFunction,Component,L1,Top*%
%TF.FilePolarity,Positive*%
%FSLAX46Y46*%
G04 Gerber Fmt 4.6, Leading zero omitted, Abs format (unit mm)*
G04 Created by KiCad (PCBNEW 8.0.3) date 2024-07-29 14:15:39*
%MOMM*%
%LPD*%
G01*
G04 APERTURE LIST*
%TA.AperFunction,ComponentMain*%
%ADD10C,0.300000*%
%TD*%
%TA.AperFunction,ComponentOutline,Courtyard*%
%ADD11C,0.100000*%
%TD*%
%TA.AperFunction,ComponentPin*%
%ADD12P,0.360000X4X0.000000*%
%TD*%
%TA.AperFunction,ComponentPin*%
%ADD13C,0.100000*%
%TD*%
G04 APERTURE END LIST*
D10*
%TO.C,J10*%
%TO.CFtp,PinHeader_1x03_P2.54mm_Vertical*%
%TO.CVal,PINHD_1x3_Male*%
%TO.CLbN,Connector_PinHeader_2.54mm*%
%TO.CMnt,TH*%
%TO.CRot,90*%
X16975000Y-66000000D03*
D11*
X23824999Y-64200001D02*
X23824999Y-67799999D01*
X15175001Y-67799999D01*
X15175001Y-64200001D01*
X23824999Y-64200001D01*
D12*
%TO.P,J10,1*%
X16975000Y-66000000D03*
D13*
%TO.P,J10,2*%
X19515000Y-66000000D03*
%TO.P,J10,3*%
X22055000Y-66000000D03*
%TD*%
D10*
%TO.C,U1*%
%TO.CFtp,ESP32-DevKitC*%
%TO.CVal,ESP32-DevKitC*%
%TO.CLbN,PCM_Espressif*%
%TO.CMnt,TH*%
%TO.CRot,0*%
X32004000Y-15240000D03*
D11*
X58653999Y-14390001D02*
X58653999Y-61809999D01*
X30754001Y-61809999D01*
X30754001Y-14390001D01*
X58653999Y-14390001D01*
D12*
%TO.P,U1,1,3V3*%
X32004000Y-15240000D03*
D13*
%TO.P,U1,2,CHIP_PU*%
X32004000Y-17780000D03*
%TO.P,U1,3,SENSOR_VP/GPIO36/ADC1_CH0*%
X32004000Y-20320000D03*
%TO.P,U1,4,SENSOR_VN/GPIO39/ADC1_CH3*%
X32004000Y-22860000D03*
%TO.P,U1,5,VDET_1/GPIO34/ADC1_CH6*%
X32004000Y-25400000D03*
%TO.P,U1,6,VDET_2/GPIO35/ADC1_CH7*%
X32004000Y-27940000D03*
%TO.P,U1,7,32K_XP/GPIO32/ADC1_CH4*%
X32004000Y-30480000D03*
%TO.P,U1,8,32K_XN/GPIO33/ADC1_CH5*%
X32004000Y-33020000D03*
%TO.P,U1,9,DAC_1/ADC2_CH8/GPIO25*%
X32004000Y-35560000D03*
%TO.P,U1,10,DAC_2/ADC2_CH9/GPIO26*%
X32004000Y-38100000D03*
%TO.P,U1,11,ADC2_CH7/GPIO27*%
X32004000Y-40640000D03*
%TO.P,U1,12,MTMS/GPIO14/ADC2_CH6*%
X32004000Y-43180000D03*
%TO.P,U1,13,MTDI/GPIO12/ADC2_CH5*%
X32004000Y-45720000D03*
%TO.P,U1,14,GND*%
X32004000Y-48260000D03*
%TO.P,U1,15,MTCK/GPIO13/ADC2_CH4*%
X32004000Y-50800000D03*
%TO.P,U1,16,SD_DATA2/GPIO9*%
X32004000Y-53340000D03*
%TO.P,U1,17,SD_DATA3/GPIO10*%
X32004000Y-55880000D03*
%TO.P,U1,18,CMD*%
X32004000Y-58420000D03*
%TO.P,U1,19,5V*%
X32004000Y-60960000D03*
%TO.P,U1,20,SD_CLK/GPIO6*%
X57400320Y-60957280D03*
%TO.P,U1,21,SD_DATA0/GPIO7*%
X57400320Y-58417280D03*
%TO.P,U1,22,SD_DATA1/GPIO8*%
X57404000Y-55880000D03*
%TO.P,U1,23,MTDO/GPIO15/ADC2_CH3*%
X57404000Y-53340000D03*
%TO.P,U1,24,ADC2_CH2/GPIO2*%
X57404000Y-50800000D03*
%TO.P,U1,25,GPIO0/BOOT/ADC2_CH1*%
X57404000Y-48260000D03*
%TO.P,U1,26,ADC2_CH0/GPIO4*%
X57404000Y-45720000D03*
%TO.P,U1,27,GPIO16*%
X57404000Y-43180000D03*
%TO.P,U1,28,GPIO17*%
X57404000Y-40640000D03*
%TO.P,U1,29,GPIO5*%
X57404000Y-38100000D03*
%TO.P,U1,30,GPIO18*%
X57404000Y-35560000D03*
%TO.P,U1,31,GPIO19*%
X57404000Y-33020000D03*
%TO.P,U1,32,GND*%
X57404000Y-30480000D03*
%TO.P,U1,33,GPIO21*%
X57404000Y-27940000D03*
%TO.P,U1,34,U0RXD/GPIO3*%
X57404000Y-25400000D03*
%TO.P,U1,35,U0TXD/GPIO1*%
X57404000Y-22860000D03*
%TO.P,U1,36,GPIO22*%
X57404000Y-20320000D03*
%TO.P,U1,37,GPIO23*%
X57404000Y-17780000D03*
%TO.P,U1,38,GND*%
X57404000Y-15240000D03*
%TD*%
D10*
%TO.C,J9*%
%TO.CFtp,PinHeader_1x03_P2.54mm_Vertical*%
%TO.CVal,PINHD_1x3_Male*%
%TO.CLbN,Connector_PinHeader_2.54mm*%
%TO.CMnt,TH*%
%TO.CRot,90*%
X17000000Y-56000000D03*
D11*
X23849999Y-54200001D02*
X23849999Y-57799999D01*
X15200001Y-57799999D01*
X15200001Y-54200001D01*
X23849999Y-54200001D01*
D12*
%TO.P,J9,1*%
X17000000Y-56000000D03*
D13*
%TO.P,J9,2*%
X19540000Y-56000000D03*
%TO.P,J9,3*%
X22080000Y-56000000D03*
%TD*%
D10*
%TO.C,C11*%
%TO.CFtp,LED_0805_2012Metric_Pad1.15x1.40mm_HandSolder*%
%TO.CVal,10nF_Ceramic*%
%TO.CLbN,LED_SMD*%
%TO.CMnt,SMD*%
%TO.CRot,0*%
X25400000Y-60960000D03*
D11*
X27249999Y-60010001D02*
X27249999Y-61909999D01*
X23550001Y-61909999D01*
X23550001Y-60010001D01*
X27249999Y-60010001D01*
D12*
%TO.P,C11,1*%
X24375000Y-60960000D03*
D13*
%TO.P,C11,2*%
X26425000Y-60960000D03*
%TD*%
D10*
%TO.C,C2*%
%TO.CFtp,LED_0805_2012Metric_Pad1.15x1.40mm_HandSolder*%
%TO.CVal,10nF_Ceramic*%
%TO.CLbN,LED_SMD*%
%TO.CMnt,SMD*%
%TO.CRot,-90*%
X35560000Y-67564000D03*
D11*
X36509999Y-65714001D02*
X36509999Y-69413999D01*
X34610001Y-69413999D01*
X34610001Y-65714001D01*
X36509999Y-65714001D01*
D12*
%TO.P,C2,1*%
X35560000Y-66539000D03*
D13*
%TO.P,C2,2*%
X35560000Y-68589000D03*
%TD*%
D10*
%TO.C,C1*%
%TO.CFtp,CP_Radial_D5.0mm_P2.00mm*%
%TO.CVal,4.7uF_16V*%
%TO.CLbN,Capacitor_THT*%
%TO.CMnt,TH*%
%TO.CRot,90*%
X40640000Y-68519113D03*
D11*
X40473807Y-64771623D02*
X40806193Y-64771623D01*
X41136154Y-64811687D01*
X41458881Y-64891232D01*
X41769667Y-65009098D01*
X42063978Y-65163564D01*
X42063978Y-65163565D01*
X42337526Y-65352381D01*
X42586320Y-65572793D01*
X42806732Y-65821587D01*
X42995548Y-66095135D01*
X42995548Y-66095134D01*
X43150015Y-66389446D01*
X43267881Y-66700232D01*
X43347426Y-67022959D01*
X43387490Y-67352920D01*
X43389999Y-67519113D01*
X43387490Y-67685306D01*
X43347426Y-68015267D01*
X43267881Y-68337994D01*
X43150015Y-68648780D01*
X42995548Y-68943091D01*
X42806732Y-69216639D01*
X42586320Y-69465433D01*
X42337526Y-69685845D01*
X42063978Y-69874661D01*
X41769667Y-70029128D01*
X41458881Y-70146994D01*
X41136154Y-70226539D01*
X40806193Y-70266603D01*
X40473807Y-70266603D01*
X40143846Y-70226539D01*
X39821119Y-70146994D01*
X39510333Y-70029128D01*
X39216021Y-69874661D01*
X39216022Y-69874661D01*
X38942474Y-69685845D01*
X38693680Y-69465433D01*
X38473268Y-69216639D01*
X38284452Y-68943091D01*
X38284451Y-68943091D01*
X38129985Y-68648780D01*
X38012119Y-68337994D01*
X37932574Y-68015267D01*
X37892510Y-67685306D01*
X37892510Y-67352920D01*
X37932574Y-67022959D01*
X38012119Y-66700232D01*
X38129985Y-66389446D01*
X38284451Y-66095134D01*
X38284452Y-66095135D01*
X38473268Y-65821587D01*
X38693680Y-65572793D01*
X38942474Y-65352381D01*
X39216022Y-65163565D01*
X39216021Y-65163564D01*
X39510333Y-65009098D01*
X39821119Y-64891232D01*
X40143846Y-64811687D01*
X40473807Y-64771623D01*
D12*
%TO.P,C1,1*%
X40640000Y-68519113D03*
D13*
%TO.P,C1,2*%
X40640000Y-66519113D03*
%TD*%
D10*
%TO.C,F1*%
%TO.CFtp,Fuse_1210_3225Metric_Pad1.42x2.65mm_HandSolder*%
%TO.CVal,Fuse*%
%TO.CLbN,Fuse*%
%TO.CMnt,SMD*%
%TO.CRot,0*%
X40640000Y-72390000D03*
D11*
X43089999Y-70810001D02*
X43089999Y-73969999D01*
X38190001Y-73969999D01*
X38190001Y-70810001D01*
X43089999Y-70810001D01*
D12*
%TO.P,F1,1*%
X39152500Y-72390000D03*
D13*
%TO.P,F1,2*%
X42127500Y-72390000D03*
%TD*%
D10*
%TO.C,J8*%
%TO.CFtp,PinHeader_1x03_P2.54mm_Vertical*%
%TO.CVal,PINHD_1x3_Male*%
%TO.CLbN,Connector_PinHeader_2.54mm*%
%TO.CMnt,TH*%
%TO.CRot,90*%
X16960000Y-46000000D03*
D11*
X23809999Y-44200001D02*
X23809999Y-47799999D01*
X15160001Y-47799999D01*
X15160001Y-44200001D01*
X23809999Y-44200001D01*
D12*
%TO.P,J8,1*%
X16960000Y-46000000D03*
D13*
%TO.P,J8,2*%
X19500000Y-46000000D03*
%TO.P,J8,3*%
X22040000Y-46000000D03*
%TD*%
D10*
%TO.C,C7*%
%TO.CFtp,LED_0805_2012Metric_Pad1.15x1.40mm_HandSolder*%
%TO.CVal,10nF_Ceramic*%
%TO.CLbN,LED_SMD*%
%TO.CMnt,SMD*%
%TO.CRot,180*%
X19500000Y-51000000D03*
D11*
X21349999Y-50050001D02*
X21349999Y-51949999D01*
X17650001Y-51949999D01*
X17650001Y-50050001D01*
X21349999Y-50050001D01*
D12*
%TO.P,C7,1*%
X20525000Y-51000000D03*
D13*
%TO.P,C7,2*%
X18475000Y-51000000D03*
%TD*%
D10*
%TO.C,C12*%
%TO.CFtp,LED_0805_2012Metric_Pad1.15x1.40mm_HandSolder*%
%TO.CVal,10nF_Ceramic*%
%TO.CLbN,LED_SMD*%
%TO.CMnt,SMD*%
%TO.CRot,-90*%
X27178000Y-15494000D03*
D11*
X28127999Y-13644001D02*
X28127999Y-17343999D01*
X26228001Y-17343999D01*
X26228001Y-13644001D01*
X28127999Y-13644001D01*
D12*
%TO.P,C12,1*%
X27178000Y-14469000D03*
D13*
%TO.P,C12,2*%
X27178000Y-16519000D03*
%TD*%
D10*
%TO.C,FID1*%
%TO.CFtp,Fiducial_0.75mm_Mask2.25mm*%
%TO.CVal,Fiducial*%
%TO.CLbN,Fiducial*%
%TO.CMnt,SMD*%
%TO.CRot,0*%
X61722000Y-13462000D03*
D11*
X61663325Y-12080752D02*
X61897601Y-12090704D01*
X62126826Y-12140106D01*
X62344403Y-12227535D01*
X62344403Y-12227536D01*
X62544076Y-12350479D01*
X62720099Y-12505399D01*
X62867409Y-12687839D01*
X62867409Y-12687838D01*
X62981767Y-12892549D01*
X63059884Y-13113642D01*
X63099513Y-13344756D01*
X63101999Y-13462000D01*
X63099513Y-13579244D01*
X63059884Y-13810358D01*
X62981767Y-14031451D01*
X62867409Y-14236161D01*
X62720099Y-14418601D01*
X62544076Y-14573521D01*
X62344403Y-14696464D01*
X62126826Y-14783894D01*
X61897601Y-14833296D01*
X61663325Y-14843248D01*
X61430737Y-14813464D01*
X61206528Y-14744800D01*
X60997148Y-14639233D01*
X60997149Y-14639233D01*
X60808622Y-14499799D01*
X60646371Y-14330510D01*
X60515064Y-14136235D01*
X60418478Y-13922564D01*
X60359392Y-13695643D01*
X60339507Y-13462000D01*
X60359392Y-13228357D01*
X60418478Y-13001436D01*
X60515064Y-12787765D01*
X60646371Y-12593490D01*
X60808622Y-12424201D01*
X60997149Y-12284767D01*
X60997148Y-12284766D01*
X61206528Y-12179200D01*
X61430737Y-12110536D01*
X61663325Y-12080752D01*
D13*
%TO.P,FID1,*%
X61722000Y-13462000D03*
%TD*%
D10*
%TO.C,J5*%
%TO.CFtp,PinHeader_1x03_P2.54mm_Vertical*%
%TO.CVal,PINHD_1x3_Male*%
%TO.CLbN,Connector_PinHeader_2.54mm*%
%TO.CMnt,TH*%
%TO.CRot,90*%
X16975000Y-15500000D03*
D11*
X23824999Y-13700001D02*
X23824999Y-17299999D01*
X15175001Y-17299999D01*
X15175001Y-13700001D01*
X23824999Y-13700001D01*
D12*
%TO.P,J5,1*%
X16975000Y-15500000D03*
D13*
%TO.P,J5,2*%
X19515000Y-15500000D03*
%TO.P,J5,3*%
X22055000Y-15500000D03*
%TD*%
D10*
%TO.C,L1*%
%TO.CFtp,LED_0805_2012Metric_Pad1.15x1.40mm_HandSolder*%
%TO.CVal,L\u002Cferrite-bead\u002CIEEE*%
%TO.CLbN,LED_SMD*%
%TO.CMnt,SMD*%
%TO.CRot,0*%
X33274000Y-72390000D03*
D11*
X35123999Y-71440001D02*
X35123999Y-73339999D01*
X31424001Y-73339999D01*
X31424001Y-71440001D01*
X35123999Y-71440001D01*
D12*
%TO.P,L1,1,+*%
X32249000Y-72390000D03*
D13*
%TO.P,L1,2,-*%
X34299000Y-72390000D03*
%TD*%
D10*
%TO.C,C8*%
%TO.CFtp,LED_0805_2012Metric_Pad1.15x1.40mm_HandSolder*%
%TO.CVal,10nF_Ceramic*%
%TO.CLbN,LED_SMD*%
%TO.CMnt,SMD*%
%TO.CRot,180*%
X19558000Y-60960000D03*
D11*
X21407999Y-60010001D02*
X21407999Y-61909999D01*
X17708001Y-61909999D01*
X17708001Y-60010001D01*
X21407999Y-60010001D01*
D12*
%TO.P,C8,1*%
X20583000Y-60960000D03*
D13*
%TO.P,C8,2*%
X18533000Y-60960000D03*
%TD*%
D10*
%TO.C,C9*%
%TO.CFtp,LED_0805_2012Metric_Pad1.15x1.40mm_HandSolder*%
%TO.CVal,10nF_Ceramic*%
%TO.CLbN,LED_SMD*%
%TO.CMnt,SMD*%
%TO.CRot,180*%
X19500000Y-71000000D03*
D11*
X21349999Y-70050001D02*
X21349999Y-71949999D01*
X17650001Y-71949999D01*
X17650001Y-70050001D01*
X21349999Y-70050001D01*
D12*
%TO.P,C9,1*%
X20525000Y-71000000D03*
D13*
%TO.P,C9,2*%
X18475000Y-71000000D03*
%TD*%
D10*
%TO.C,J3*%
%TO.CFtp,PinHeader_1x03_P2.54mm_Vertical*%
%TO.CVal,PINHD_1x3_Male*%
%TO.CLbN,Connector_PinHeader_2.54mm*%
%TO.CMnt,TH*%
%TO.CRot,180*%
X60000000Y-79025000D03*
D11*
X61799999Y-72175001D02*
X61799999Y-80824999D01*
X58200001Y-80824999D01*
X58200001Y-72175001D01*
X61799999Y-72175001D01*
D12*
%TO.P,J3,1*%
X60000000Y-79025000D03*
D13*
%TO.P,J3,2*%
X60000000Y-76485000D03*
%TO.P,J3,3*%
X60000000Y-73945000D03*
%TD*%
D10*
%TO.C,C6*%
%TO.CFtp,LED_0805_2012Metric_Pad1.15x1.40mm_HandSolder*%
%TO.CVal,10nF_Ceramic*%
%TO.CLbN,LED_SMD*%
%TO.CMnt,SMD*%
%TO.CRot,180*%
X19558000Y-41000000D03*
D11*
X21407999Y-40050001D02*
X21407999Y-41949999D01*
X17708001Y-41949999D01*
X17708001Y-40050001D01*
X21407999Y-40050001D01*
D12*
%TO.P,C6,1*%
X20583000Y-41000000D03*
D13*
%TO.P,C6,2*%
X18533000Y-41000000D03*
%TD*%
D10*
%TO.C,FID2*%
%TO.CFtp,Fiducial_0.75mm_Mask2.25mm*%
%TO.CVal,Fiducial*%
%TO.CLbN,Fiducial*%
%TO.CMnt,SMD*%
%TO.CRot,0*%
X13462000Y-13462000D03*
D11*
X13403325Y-12080752D02*
X13637601Y-12090704D01*
X13866826Y-12140106D01*
X14084403Y-12227535D01*
X14084403Y-12227536D01*
X14284076Y-12350479D01*
X14460099Y-12505399D01*
X14607409Y-12687839D01*
X14607409Y-12687838D01*
X14721767Y-12892549D01*
X14799884Y-13113642D01*
X14839513Y-13344756D01*
X14841999Y-13462000D01*
X14839513Y-13579244D01*
X14799884Y-13810358D01*
X14721767Y-14031451D01*
X14607409Y-14236161D01*
X14460099Y-14418601D01*
X14284076Y-14573521D01*
X14084403Y-14696464D01*
X13866826Y-14783894D01*
X13637601Y-14833296D01*
X13403325Y-14843248D01*
X13170737Y-14813464D01*
X12946528Y-14744800D01*
X12737148Y-14639233D01*
X12737149Y-14639233D01*
X12548622Y-14499799D01*
X12386371Y-14330510D01*
X12255064Y-14136235D01*
X12158478Y-13922564D01*
X12099392Y-13695643D01*
X12079507Y-13462000D01*
X12099392Y-13228357D01*
X12158478Y-13001436D01*
X12255064Y-12787765D01*
X12386371Y-12593490D01*
X12548622Y-12424201D01*
X12737149Y-12284767D01*
X12737148Y-12284766D01*
X12946528Y-12179200D01*
X13170737Y-12110536D01*
X13403325Y-12080752D01*
D13*
%TO.P,FID2,*%
X13462000Y-13462000D03*
%TD*%
D10*
%TO.C,J11*%
%TO.CFtp,PinHeader_1x03_P2.54mm_Vertical*%
%TO.CVal,PINHD_1x3_Male*%
%TO.CLbN,Connector_PinHeader_2.54mm*%
%TO.CMnt,TH*%
%TO.CRot,90*%
X16975000Y-76000000D03*
D11*
X23824999Y-74200001D02*
X23824999Y-77799999D01*
X15175001Y-77799999D01*
X15175001Y-74200001D01*
X23824999Y-74200001D01*
D12*
%TO.P,J11,1*%
X16975000Y-76000000D03*
D13*
%TO.P,J11,2*%
X19515000Y-76000000D03*
%TO.P,J11,3*%
X22055000Y-76000000D03*
%TD*%
D10*
%TO.C,C3*%
%TO.CFtp,LED_0805_2012Metric_Pad1.15x1.40mm_HandSolder*%
%TO.CVal,10nF_Ceramic*%
%TO.CLbN,LED_SMD*%
%TO.CMnt,SMD*%
%TO.CRot,-90*%
X30988000Y-67564000D03*
D11*
X31937999Y-65714001D02*
X31937999Y-69413999D01*
X30038001Y-69413999D01*
X30038001Y-65714001D01*
X31937999Y-65714001D01*
D12*
%TO.P,C3,1*%
X30988000Y-66539000D03*
D13*
%TO.P,C3,2*%
X30988000Y-68589000D03*
%TD*%
D10*
%TO.C,J6*%
%TO.CFtp,PinHeader_1x03_P2.54mm_Vertical*%
%TO.CVal,PINHD_1x3_Male*%
%TO.CLbN,Connector_PinHeader_2.54mm*%
%TO.CMnt,TH*%
%TO.CRot,90*%
X16920000Y-26000000D03*
D11*
X23769999Y-24200001D02*
X23769999Y-27799999D01*
X15120001Y-27799999D01*
X15120001Y-24200001D01*
X23769999Y-24200001D01*
D12*
%TO.P,J6,1*%
X16920000Y-26000000D03*
D13*
%TO.P,J6,2*%
X19460000Y-26000000D03*
%TO.P,J6,3*%
X22000000Y-26000000D03*
%TD*%
D10*
%TO.C,C5*%
%TO.CFtp,LED_0805_2012Metric_Pad1.15x1.40mm_HandSolder*%
%TO.CVal,10nF_Ceramic*%
%TO.CLbN,LED_SMD*%
%TO.CMnt,SMD*%
%TO.CRot,180*%
X19525000Y-30500000D03*
D11*
X21374999Y-29550001D02*
X21374999Y-31449999D01*
X17675001Y-31449999D01*
X17675001Y-29550001D01*
X21374999Y-29550001D01*
D12*
%TO.P,C5,1*%
X20550000Y-30500000D03*
D13*
%TO.P,C5,2*%
X18500000Y-30500000D03*
%TD*%
D10*
%TO.C,J7*%
%TO.CFtp,PinHeader_1x03_P2.54mm_Vertical*%
%TO.CVal,PINHD_1x3_Male*%
%TO.CLbN,Connector_PinHeader_2.54mm*%
%TO.CMnt,TH*%
%TO.CRot,90*%
X16960000Y-36000000D03*
D11*
X23809999Y-34200001D02*
X23809999Y-37799999D01*
X15160001Y-37799999D01*
X15160001Y-34200001D01*
X23809999Y-34200001D01*
D12*
%TO.P,J7,1*%
X16960000Y-36000000D03*
D13*
%TO.P,J7,2*%
X19500000Y-36000000D03*
%TO.P,J7,3*%
X22040000Y-36000000D03*
%TD*%
D10*
%TO.C,J4*%
%TO.CFtp,PinHeader_1x03_P2.54mm_Vertical*%
%TO.CVal,PINHD_1x3_Male*%
%TO.CLbN,Connector_PinHeader_2.54mm*%
%TO.CMnt,TH*%
%TO.CRot,180*%
X50000000Y-79040000D03*
D11*
X51799999Y-72190001D02*
X51799999Y-80839999D01*
X48200001Y-80839999D01*
X48200001Y-72190001D01*
X51799999Y-72190001D01*
D12*
%TO.P,J4,1*%
X50000000Y-79040000D03*
D13*
%TO.P,J4,2*%
X50000000Y-76500000D03*
%TO.P,J4,3*%
X50000000Y-73960000D03*
%TD*%
D10*
%TO.C,C10*%
%TO.CFtp,LED_0805_2012Metric_Pad1.15x1.40mm_HandSolder*%
%TO.CVal,10nF_Ceramic*%
%TO.CLbN,LED_SMD*%
%TO.CMnt,SMD*%
%TO.CRot,180*%
X19558000Y-81026000D03*
D11*
X21407999Y-80076001D02*
X21407999Y-81975999D01*
X17708001Y-81975999D01*
X17708001Y-80076001D01*
X21407999Y-80076001D01*
D12*
%TO.P,C10,1*%
X20583000Y-81026000D03*
D13*
%TO.P,C10,2*%
X18533000Y-81026000D03*
%TD*%
D10*
%TO.C,FID3*%
%TO.CFtp,Fiducial_0.75mm_Mask2.25mm*%
%TO.CVal,Fiducial*%
%TO.CLbN,Fiducial*%
%TO.CMnt,SMD*%
%TO.CRot,0*%
X13462000Y-82550000D03*
D11*
X13403325Y-81168752D02*
X13637601Y-81178704D01*
X13866826Y-81228106D01*
X14084403Y-81315535D01*
X14084403Y-81315536D01*
X14284076Y-81438479D01*
X14460099Y-81593399D01*
X14607409Y-81775839D01*
X14607409Y-81775838D01*
X14721767Y-81980549D01*
X14799884Y-82201642D01*
X14839513Y-82432756D01*
X14841999Y-82550000D01*
X14839513Y-82667244D01*
X14799884Y-82898358D01*
X14721767Y-83119451D01*
X14607409Y-83324161D01*
X14460099Y-83506601D01*
X14284076Y-83661521D01*
X14084403Y-83784464D01*
X13866826Y-83871894D01*
X13637601Y-83921296D01*
X13403325Y-83931248D01*
X13170737Y-83901464D01*
X12946528Y-83832800D01*
X12737148Y-83727233D01*
X12737149Y-83727233D01*
X12548622Y-83587799D01*
X12386371Y-83418510D01*
X12255064Y-83224235D01*
X12158478Y-83010564D01*
X12099392Y-82783643D01*
X12079507Y-82550000D01*
X12099392Y-82316357D01*
X12158478Y-82089436D01*
X12255064Y-81875765D01*
X12386371Y-81681490D01*
X12548622Y-81512201D01*
X12737149Y-81372767D01*
X12737148Y-81372766D01*
X12946528Y-81267200D01*
X13170737Y-81198536D01*
X13403325Y-81168752D01*
D13*
%TO.P,FID3,*%
X13462000Y-82550000D03*
%TD*%
D10*
%TO.C,P1*%
%TO.CFtp,USB_C_Receptacle_GCT_USB4105-xx-A_16P_TopMnt_Horizontal*%
%TO.CVal,USB_C_Plug*%
%TO.CLbN,Connector_USB*%
%TO.CMnt,SMD*%
%TO.CRot,0*%
X36068000Y-80264000D03*
D11*
X41387999Y-75504001D02*
X41387999Y-84443999D01*
X30748001Y-84443999D01*
X30748001Y-75504001D01*
X41387999Y-75504001D01*
D12*
%TO.P,P1,A1,GND*%
X32868000Y-76584000D03*
D13*
%TO.P,P1,*%
X33178000Y-77659000D03*
X38958000Y-77659000D03*
%TO.P,P1,A4,VBUS*%
X33668000Y-76584000D03*
%TO.P,P1,A5,CC*%
X34818000Y-76584000D03*
%TO.P,P1,A6,D+*%
X35818000Y-76584000D03*
%TO.P,P1,A7,D-*%
X36318000Y-76584000D03*
%TO.P,P1,A8,SBU1*%
X37318000Y-76584000D03*
%TO.P,P1,A9,VBUS*%
X38468000Y-76584000D03*
%TO.P,P1,A12,GND*%
X39268000Y-76584000D03*
%TO.P,P1,B1,GND*%
X39268000Y-76584000D03*
%TO.P,P1,B4,VBUS*%
X38468000Y-76584000D03*
%TO.P,P1,B5,VCONN*%
X37818000Y-76584000D03*
%TO.P,P1,B6*%
X36818000Y-76584000D03*
%TO.P,P1,B7*%
X35318000Y-76584000D03*
%TO.P,P1,B8,SBU2*%
X34318000Y-76584000D03*
%TO.P,P1,B9,VBUS*%
X33668000Y-76584000D03*
%TO.P,P1,B12,GND*%
X32868000Y-76584000D03*
%TO.P,P1,S1,SHIELD*%
X31748000Y-77159000D03*
X31748000Y-81339000D03*
X40388000Y-77159000D03*
X40388000Y-81339000D03*
%TD*%
D10*
%TO.C,C4*%
%TO.CFtp,LED_0805_2012Metric_Pad1.15x1.40mm_HandSolder*%
%TO.CVal,10nF_Ceramic*%
%TO.CLbN,LED_SMD*%
%TO.CMnt,SMD*%
%TO.CRot,180*%
X19500000Y-20500000D03*
D11*
X21349999Y-19550001D02*
X21349999Y-21449999D01*
X17650001Y-21449999D01*
X17650001Y-19550001D01*
X21349999Y-19550001D01*
D12*
%TO.P,C4,1*%
X20525000Y-20500000D03*
D13*
%TO.P,C4,2*%
X18475000Y-20500000D03*
%TD*%
M02*
