%TF.GenerationSoftware,KiCad,Pcbnew,8.0.3*%
%TF.CreationDate,2025-06-12T19:15:32+02:00*%
%TF.ProjectId,7Analyzer,37416e61-6c79-47a6-9572-2e6b69636164,rev?*%
%TF.SameCoordinates,Original*%
%TF.FileFunction,Soldermask,Bot*%
%TF.FilePolarity,Negative*%
%FSLAX46Y46*%
G04 Gerber Fmt 4.6, Leading zero omitted, Abs format (unit mm)*
G04 Created by KiCad (PCBNEW 8.0.3) date 2025-06-12 19:15:32*
%MOMM*%
%LPD*%
G01*
G04 APERTURE LIST*
%ADD10R,1.700000X1.700000*%
%ADD11O,1.700000X1.700000*%
%ADD12C,7.000000*%
%ADD13R,2.000000X1.200000*%
%ADD14O,2.000000X1.200000*%
%ADD15R,1.600000X1.600000*%
%ADD16C,1.600000*%
%ADD17O,1.600000X0.900000*%
%ADD18C,0.650000*%
%ADD19O,1.000000X2.100000*%
%ADD20O,1.000000X1.800000*%
G04 APERTURE END LIST*
D10*
%TO.C,J10*%
X27432000Y-102108000D03*
D11*
X27432000Y-99568000D03*
X27432000Y-97028000D03*
%TD*%
D12*
%TO.C,J2*%
X28702000Y-17018000D03*
%TD*%
D13*
%TO.C,U1*%
X16002000Y-29880560D03*
D14*
X16002000Y-32420560D03*
X16002000Y-34960560D03*
X16002000Y-37500560D03*
X16002000Y-40040560D03*
X16002000Y-42580560D03*
X16002000Y-45120560D03*
X16002000Y-47660560D03*
X16002000Y-50200560D03*
X16002000Y-52740560D03*
X16002000Y-55280560D03*
X16002000Y-57820560D03*
X16002000Y-60360560D03*
X16002000Y-62900560D03*
X16002000Y-65440560D03*
X16002000Y-67980560D03*
X16002000Y-70520560D03*
X16002000Y-73060560D03*
X16002000Y-75600560D03*
X41398320Y-75597840D03*
X41398320Y-73057840D03*
X41402000Y-70520560D03*
X41402000Y-67980560D03*
X41402000Y-65440560D03*
X41402000Y-62900560D03*
X41402000Y-60360560D03*
X41402000Y-57820560D03*
X41402000Y-55280560D03*
X41402000Y-52740560D03*
X41402000Y-50200560D03*
X41402000Y-47660560D03*
X41402000Y-45120560D03*
X41402000Y-42580560D03*
X41402000Y-40040560D03*
X41402000Y-37500560D03*
X41402000Y-34960560D03*
X41402000Y-32420560D03*
X41402000Y-29880560D03*
%TD*%
D10*
%TO.C,J9*%
X27432000Y-91933000D03*
D11*
X27432000Y-89393000D03*
X27432000Y-86853000D03*
%TD*%
D15*
%TO.C,C1*%
X34858888Y-128016000D03*
D16*
X36858888Y-128016000D03*
%TD*%
D10*
%TO.C,J8*%
X17272000Y-117348000D03*
D11*
X17272000Y-114808000D03*
X17272000Y-112268000D03*
%TD*%
D10*
%TO.C,J5*%
X17272000Y-86853000D03*
D11*
X17272000Y-84313000D03*
X17272000Y-81773000D03*
%TD*%
D17*
%TO.C,J13*%
X43688000Y-118326000D03*
X43688000Y-111726000D03*
%TD*%
D10*
%TO.C,J3*%
X40640000Y-91948000D03*
D11*
X40640000Y-89408000D03*
X40640000Y-86868000D03*
%TD*%
D12*
%TO.C,J1*%
X28702000Y-81026000D03*
%TD*%
D10*
%TO.C,J11*%
X27432000Y-112268000D03*
D11*
X27432000Y-109728000D03*
X27432000Y-107188000D03*
%TD*%
D10*
%TO.C,J6*%
X17272000Y-97028000D03*
D11*
X17272000Y-94488000D03*
X17272000Y-91948000D03*
%TD*%
D12*
%TO.C,J12*%
X28956000Y-118110000D03*
%TD*%
D10*
%TO.C,J7*%
X17272000Y-107188000D03*
D11*
X17272000Y-104648000D03*
X17272000Y-102108000D03*
%TD*%
D10*
%TO.C,J4*%
X40640000Y-102108000D03*
D11*
X40640000Y-99568000D03*
X40640000Y-97028000D03*
%TD*%
D18*
%TO.C,P1*%
X25050000Y-133285000D03*
X30830000Y-133285000D03*
D19*
X23620000Y-132785000D03*
D20*
X23620000Y-136965000D03*
D19*
X32260000Y-132785000D03*
D20*
X32260000Y-136965000D03*
%TD*%
M02*
