%TF.GenerationSoftware,KiCad,Pcbnew,8.0.3*%
%TF.CreationDate,2025-06-12T19:15:32+02:00*%
%TF.ProjectId,7Analyzer,37416e61-6c79-47a6-9572-2e6b69636164,rev?*%
%TF.SameCoordinates,Original*%
%TF.FileFunction,Soldermask,Top*%
%TF.FilePolarity,Negative*%
%FSLAX46Y46*%
G04 Gerber Fmt 4.6, Leading zero omitted, Abs format (unit mm)*
G04 Created by KiCad (PCBNEW 8.0.3) date 2025-06-12 19:15:32*
%MOMM*%
%LPD*%
G01*
G04 APERTURE LIST*
G04 Aperture macros list*
%AMRoundRect*
0 Rectangle with rounded corners*
0 $1 Rounding radius*
0 $2 $3 $4 $5 $6 $7 $8 $9 X,Y pos of 4 corners*
0 Add a 4 corners polygon primitive as box body*
4,1,4,$2,$3,$4,$5,$6,$7,$8,$9,$2,$3,0*
0 Add four circle primitives for the rounded corners*
1,1,$1+$1,$2,$3*
1,1,$1+$1,$4,$5*
1,1,$1+$1,$6,$7*
1,1,$1+$1,$8,$9*
0 Add four rect primitives between the rounded corners*
20,1,$1+$1,$2,$3,$4,$5,0*
20,1,$1+$1,$4,$5,$6,$7,0*
20,1,$1+$1,$6,$7,$8,$9,0*
20,1,$1+$1,$8,$9,$2,$3,0*%
G04 Aperture macros list end*
%ADD10R,1.700000X1.700000*%
%ADD11O,1.700000X1.700000*%
%ADD12C,7.000000*%
%ADD13R,2.000000X1.200000*%
%ADD14O,2.000000X1.200000*%
%ADD15RoundRect,0.250000X-0.325000X-0.450000X0.325000X-0.450000X0.325000X0.450000X-0.325000X0.450000X0*%
%ADD16RoundRect,0.250000X-0.450000X0.325000X-0.450000X-0.325000X0.450000X-0.325000X0.450000X0.325000X0*%
%ADD17RoundRect,0.250000X-0.450000X0.350000X-0.450000X-0.350000X0.450000X-0.350000X0.450000X0.350000X0*%
%ADD18R,1.600000X1.600000*%
%ADD19C,1.600000*%
%ADD20RoundRect,0.250001X-0.462499X-1.074999X0.462499X-1.074999X0.462499X1.074999X-0.462499X1.074999X0*%
%ADD21C,2.250000*%
%ADD22RoundRect,0.100000X0.575000X-0.100000X0.575000X0.100000X-0.575000X0.100000X-0.575000X-0.100000X0*%
%ADD23O,1.600000X0.900000*%
%ADD24RoundRect,0.250000X0.450000X-0.550000X0.450000X0.550000X-0.450000X0.550000X-0.450000X-0.550000X0*%
%ADD25RoundRect,0.250000X0.700000X-0.700000X0.700000X0.700000X-0.700000X0.700000X-0.700000X-0.700000X0*%
%ADD26C,0.650000*%
%ADD27RoundRect,0.150000X-0.150000X-0.425000X0.150000X-0.425000X0.150000X0.425000X-0.150000X0.425000X0*%
%ADD28RoundRect,0.075000X-0.075000X-0.500000X0.075000X-0.500000X0.075000X0.500000X-0.075000X0.500000X0*%
%ADD29O,1.000000X2.100000*%
%ADD30O,1.000000X1.800000*%
G04 APERTURE END LIST*
D10*
%TO.C,J10*%
X27432000Y-102108000D03*
D11*
X27432000Y-99568000D03*
X27432000Y-97028000D03*
%TD*%
D12*
%TO.C,J2*%
X28702000Y-17018000D03*
%TD*%
D13*
%TO.C,U1*%
X16002000Y-29880560D03*
D14*
X16002000Y-32420560D03*
X16002000Y-34960560D03*
X16002000Y-37500560D03*
X16002000Y-40040560D03*
X16002000Y-42580560D03*
X16002000Y-45120560D03*
X16002000Y-47660560D03*
X16002000Y-50200560D03*
X16002000Y-52740560D03*
X16002000Y-55280560D03*
X16002000Y-57820560D03*
X16002000Y-60360560D03*
X16002000Y-62900560D03*
X16002000Y-65440560D03*
X16002000Y-67980560D03*
X16002000Y-70520560D03*
X16002000Y-73060560D03*
X16002000Y-75600560D03*
X41398320Y-75597840D03*
X41398320Y-73057840D03*
X41402000Y-70520560D03*
X41402000Y-67980560D03*
X41402000Y-65440560D03*
X41402000Y-62900560D03*
X41402000Y-60360560D03*
X41402000Y-57820560D03*
X41402000Y-55280560D03*
X41402000Y-52740560D03*
X41402000Y-50200560D03*
X41402000Y-47660560D03*
X41402000Y-45120560D03*
X41402000Y-42580560D03*
X41402000Y-40040560D03*
X41402000Y-37500560D03*
X41402000Y-34960560D03*
X41402000Y-32420560D03*
X41402000Y-29880560D03*
%TD*%
D10*
%TO.C,J9*%
X27432000Y-91933000D03*
D11*
X27432000Y-89393000D03*
X27432000Y-86853000D03*
%TD*%
D15*
%TO.C,C11*%
X20311000Y-78994000D03*
X22361000Y-78994000D03*
%TD*%
D16*
%TO.C,C2*%
X32512000Y-122673000D03*
X32512000Y-124723000D03*
%TD*%
D17*
%TO.C,R2*%
X19812000Y-126762000D03*
X19812000Y-128762000D03*
%TD*%
D18*
%TO.C,C1*%
X34858888Y-128016000D03*
D19*
X36858888Y-128016000D03*
%TD*%
D20*
%TO.C,F1*%
X27214500Y-128016000D03*
X30189500Y-128016000D03*
%TD*%
D10*
%TO.C,J8*%
X17272000Y-117348000D03*
D11*
X17272000Y-114808000D03*
X17272000Y-112268000D03*
%TD*%
D16*
%TO.C,C7*%
X20320000Y-115307000D03*
X20320000Y-117357000D03*
%TD*%
%TO.C,C12*%
X16002000Y-25391000D03*
X16002000Y-27441000D03*
%TD*%
D21*
%TO.C,FID1*%
X43180000Y-13970000D03*
%TD*%
D10*
%TO.C,J5*%
X17272000Y-86853000D03*
D11*
X17272000Y-84313000D03*
X17272000Y-81773000D03*
%TD*%
D15*
%TO.C,L1*%
X27677000Y-124714000D03*
X29727000Y-124714000D03*
%TD*%
D16*
%TO.C,C8*%
X24384000Y-89907000D03*
X24384000Y-91957000D03*
%TD*%
%TO.C,C9*%
X24384000Y-100067000D03*
X24384000Y-102117000D03*
%TD*%
D22*
%TO.C,J13*%
X41013000Y-116326000D03*
X41013000Y-115676000D03*
X41013000Y-115026000D03*
X41013000Y-114376000D03*
X41013000Y-113726000D03*
D23*
X43688000Y-118326000D03*
D24*
X41238000Y-118226000D03*
D25*
X43688000Y-116226000D03*
X43688000Y-113826000D03*
D24*
X41238000Y-111826000D03*
D23*
X43688000Y-111726000D03*
%TD*%
D10*
%TO.C,J3*%
X40640000Y-91948000D03*
D11*
X40640000Y-89408000D03*
X40640000Y-86868000D03*
%TD*%
D12*
%TO.C,J1*%
X28702000Y-81026000D03*
%TD*%
D16*
%TO.C,C6*%
X20320000Y-105147000D03*
X20320000Y-107197000D03*
%TD*%
D21*
%TO.C,FID2*%
X13970000Y-13970000D03*
%TD*%
D10*
%TO.C,J11*%
X27432000Y-112268000D03*
D11*
X27432000Y-109728000D03*
X27432000Y-107188000D03*
%TD*%
D16*
%TO.C,C3*%
X24892000Y-122673000D03*
X24892000Y-124723000D03*
%TD*%
D10*
%TO.C,J6*%
X17272000Y-97028000D03*
D11*
X17272000Y-94488000D03*
X17272000Y-91948000D03*
%TD*%
D16*
%TO.C,C5*%
X20320000Y-94987000D03*
X20320000Y-97037000D03*
%TD*%
D12*
%TO.C,J12*%
X28956000Y-118110000D03*
%TD*%
D10*
%TO.C,J7*%
X17272000Y-107188000D03*
D11*
X17272000Y-104648000D03*
X17272000Y-102108000D03*
%TD*%
D10*
%TO.C,J4*%
X40640000Y-102108000D03*
D11*
X40640000Y-99568000D03*
X40640000Y-97028000D03*
%TD*%
D16*
%TO.C,C10*%
X24384000Y-110227000D03*
X24384000Y-112277000D03*
%TD*%
D21*
%TO.C,FID3*%
X14224000Y-136398000D03*
%TD*%
D26*
%TO.C,P1*%
X25050000Y-133285000D03*
X30830000Y-133285000D03*
D27*
X24740000Y-132210000D03*
X25540000Y-132210000D03*
D28*
X26690000Y-132210000D03*
X27690000Y-132210000D03*
X28190000Y-132210000D03*
X29190000Y-132210000D03*
D27*
X30340000Y-132210000D03*
X31140000Y-132210000D03*
X31140000Y-132210000D03*
X30340000Y-132210000D03*
D28*
X29690000Y-132210000D03*
X28690000Y-132210000D03*
X27190000Y-132210000D03*
X26190000Y-132210000D03*
D27*
X25540000Y-132210000D03*
X24740000Y-132210000D03*
D29*
X23620000Y-132785000D03*
D30*
X23620000Y-136965000D03*
D29*
X32260000Y-132785000D03*
D30*
X32260000Y-136965000D03*
%TD*%
D16*
%TO.C,C4*%
X20320000Y-84827000D03*
X20320000Y-86877000D03*
%TD*%
D17*
%TO.C,R1*%
X22352000Y-126762000D03*
X22352000Y-128762000D03*
%TD*%
M02*
