M48
; DRILL file {KiCad 8.0.3} date 2025-06-05T21:00:34+0200
; FORMAT={-:-/ absolute / inch / decimal}
; #@! TF.CreationDate,2025-06-05T21:00:34+02:00
; #@! TF.GenerationSoftware,Kicad,Pcbnew,8.0.3
; #@! TF.FileFunction,Plated,1,2,PTH
FMAT,2
INCH
; #@! TA.AperFunction,Plated,PTH,ViaDrill
T1C0.0157
; #@! TA.AperFunction,Plated,PTH,ComponentDrill
T2C0.0197
; #@! TA.AperFunction,Plated,PTH,ComponentDrill
T3C0.0236
; #@! TA.AperFunction,Plated,PTH,ComponentDrill
T4C0.0315
; #@! TA.AperFunction,Plated,PTH,ComponentDrill
T5C0.0394
; #@! TA.AperFunction,Plated,PTH,ComponentDrill
T6C0.1378
%
G90
G05
T1
X0.78Y-4.93
X0.8606Y-5.286
X0.8794Y-4.9306
X1.04Y-5.2509
X1.08Y-5.2506
X1.1398Y-5.2506
X1.49Y-4.5287
X1.52Y-4.5587
X1.55Y-4.5887
T4
X0.63Y-1.1764
X0.63Y-1.2764
X0.63Y-1.3764
X0.63Y-1.4764
X0.63Y-1.5764
X0.63Y-1.6764
X0.63Y-1.7764
X0.63Y-1.8764
X0.63Y-1.9764
X0.63Y-2.0764
X0.63Y-2.1764
X0.63Y-2.2764
X0.63Y-2.3764
X0.63Y-2.4764
X0.63Y-2.5764
X0.63Y-2.6764
X0.63Y-2.7764
X0.63Y-2.8764
X0.63Y-2.9764
X1.3724Y-5.04
X1.4511Y-5.04
X1.6299Y-2.8763
X1.6299Y-2.9763
X1.63Y-1.1764
X1.63Y-1.2764
X1.63Y-1.3764
X1.63Y-1.4764
X1.63Y-1.5764
X1.63Y-1.6764
X1.63Y-1.7764
X1.63Y-1.8764
X1.63Y-1.9764
X1.63Y-2.0764
X1.63Y-2.1764
X1.63Y-2.2764
X1.63Y-2.3764
X1.63Y-2.4764
X1.63Y-2.5764
X1.63Y-2.6764
X1.63Y-2.7764
T5
X0.68Y-3.2194
X0.68Y-3.3194
X0.68Y-3.4194
X0.68Y-3.62
X0.68Y-3.72
X0.68Y-3.82
X0.68Y-4.02
X0.68Y-4.12
X0.68Y-4.22
X0.68Y-4.42
X0.68Y-4.52
X0.68Y-4.62
X1.08Y-3.4194
X1.08Y-3.5194
X1.08Y-3.6194
X1.08Y-3.82
X1.08Y-3.92
X1.08Y-4.02
X1.08Y-4.22
X1.08Y-4.32
X1.08Y-4.42
X1.6Y-3.42
X1.6Y-3.52
X1.6Y-3.62
X1.6Y-3.82
X1.6Y-3.92
X1.6Y-4.02
T6
X1.13Y-0.67
X1.13Y-3.19
X1.14Y-4.65
T2
G00X1.7338Y-4.3987
M15
G01X1.7062Y-4.3987
M16
G05
G00X1.7338Y-4.6585
M15
G01X1.7062Y-4.6585
M16
G05
T3
G00X0.9299Y-5.2061
M15
G01X0.9299Y-5.2494
M16
G05
G00X0.9299Y-5.3766
M15
G01X0.9299Y-5.4081
M16
G05
G00X1.2701Y-5.2061
M15
G01X1.2701Y-5.2494
M16
G05
G00X1.2701Y-5.3766
M15
G01X1.2701Y-5.4081
M16
G05
M30
