M48
; DRILL file {KiCad 8.0.3} date 2024-07-18T19:56:33+0200
; FORMAT={-:-/ absolute / inch / decimal}
; #@! TF.CreationDate,2024-07-18T19:56:33+02:00
; #@! TF.GenerationSoftware,Kicad,Pcbnew,8.0.3
; #@! TF.FileFunction,Plated,1,2,PTH
FMAT,2
INCH
; #@! TA.AperFunction,Plated,PTH,ViaDrill
T1C0.0157
; #@! TA.AperFunction,Plated,PTH,ComponentDrill
T2C0.0236
; #@! TA.AperFunction,Plated,PTH,ComponentDrill
T3C0.0315
; #@! TA.AperFunction,Plated,PTH,ComponentDrill
T4C0.0394
; #@! TA.AperFunction,Plated,PTH,ComponentDrill
T5C0.1378
%
G90
G05
T1
X1.0404Y-2.3204
X1.42Y-2.49
T3
X1.26Y-0.6
X1.26Y-0.7
X1.26Y-0.8
X1.26Y-0.9
X1.26Y-1.0
X1.26Y-1.1
X1.26Y-1.2
X1.26Y-1.3
X1.26Y-1.4
X1.26Y-1.5
X1.26Y-1.6
X1.26Y-1.7
X1.26Y-1.8
X1.26Y-1.9
X1.26Y-2.0
X1.26Y-2.1
X1.26Y-2.2
X1.26Y-2.3
X1.26Y-2.4
X1.6Y-2.6189
X1.6Y-2.6976
X2.2599Y-2.2999
X2.2599Y-2.3999
X2.26Y-0.6
X2.26Y-0.7
X2.26Y-0.8
X2.26Y-0.9
X2.26Y-1.0
X2.26Y-1.1
X2.26Y-1.2
X2.26Y-1.3
X2.26Y-1.4
X2.26Y-1.5
X2.26Y-1.6
X2.26Y-1.7
X2.26Y-1.8
X2.26Y-1.9
X2.26Y-2.0
X2.26Y-2.1
X2.26Y-2.2
T4
X0.6661Y-1.0236
X0.6677Y-1.4173
X0.6677Y-1.811
X0.6683Y-0.6102
X0.6683Y-2.5984
X0.6683Y-2.9921
X0.6693Y-2.2047
X0.7661Y-1.0236
X0.7677Y-1.4173
X0.7677Y-1.811
X0.7683Y-0.6102
X0.7683Y-2.5984
X0.7683Y-2.9921
X0.7693Y-2.2047
X0.8661Y-1.0236
X0.8677Y-1.4173
X0.8677Y-1.811
X0.8683Y-0.6102
X0.8683Y-2.5984
X0.8683Y-2.9921
X0.8693Y-2.2047
X1.9685Y-2.9118
X1.9685Y-3.0118
X1.9685Y-3.1118
X2.3622Y-2.9112
X2.3622Y-3.0112
X2.3622Y-3.1112
T5
X1.05Y-0.84
X2.08Y-2.64
T2
G00X1.2499Y-3.0161
M15
G01X1.2499Y-3.0594
M16
G05
G00X1.2499Y-3.1866
M15
G01X1.2499Y-3.2181
M16
G05
G00X1.5901Y-3.0161
M15
G01X1.5901Y-3.0594
M16
G05
G00X1.5901Y-3.1866
M15
G01X1.5901Y-3.2181
M16
G05
M30
