%TF.GenerationSoftware,KiCad,Pcbnew,8.0.3*%
%TF.CreationDate,2025-06-12T19:15:32+02:00*%
%TF.ProjectId,7Analyzer,37416e61-6c79-47a6-9572-2e6b69636164,rev?*%
%TF.SameCoordinates,Original*%
%TF.FileFunction,Legend,Top*%
%TF.FilePolarity,Positive*%
%FSLAX46Y46*%
G04 Gerber Fmt 4.6, Leading zero omitted, Abs format (unit mm)*
G04 Created by KiCad (PCBNEW 8.0.3) date 2025-06-12 19:15:32*
%MOMM*%
%LPD*%
G01*
G04 APERTURE LIST*
%ADD10C,0.150000*%
%ADD11C,0.120000*%
G04 APERTURE END LIST*
D10*
X29416476Y-96228819D02*
X29416476Y-96943104D01*
X29416476Y-96943104D02*
X29368857Y-97085961D01*
X29368857Y-97085961D02*
X29273619Y-97181200D01*
X29273619Y-97181200D02*
X29130762Y-97228819D01*
X29130762Y-97228819D02*
X29035524Y-97228819D01*
X30416476Y-97228819D02*
X29845048Y-97228819D01*
X30130762Y-97228819D02*
X30130762Y-96228819D01*
X30130762Y-96228819D02*
X30035524Y-96371676D01*
X30035524Y-96371676D02*
X29940286Y-96466914D01*
X29940286Y-96466914D02*
X29845048Y-96514533D01*
X31035524Y-96228819D02*
X31130762Y-96228819D01*
X31130762Y-96228819D02*
X31226000Y-96276438D01*
X31226000Y-96276438D02*
X31273619Y-96324057D01*
X31273619Y-96324057D02*
X31321238Y-96419295D01*
X31321238Y-96419295D02*
X31368857Y-96609771D01*
X31368857Y-96609771D02*
X31368857Y-96847866D01*
X31368857Y-96847866D02*
X31321238Y-97038342D01*
X31321238Y-97038342D02*
X31273619Y-97133580D01*
X31273619Y-97133580D02*
X31226000Y-97181200D01*
X31226000Y-97181200D02*
X31130762Y-97228819D01*
X31130762Y-97228819D02*
X31035524Y-97228819D01*
X31035524Y-97228819D02*
X30940286Y-97181200D01*
X30940286Y-97181200D02*
X30892667Y-97133580D01*
X30892667Y-97133580D02*
X30845048Y-97038342D01*
X30845048Y-97038342D02*
X30797429Y-96847866D01*
X30797429Y-96847866D02*
X30797429Y-96609771D01*
X30797429Y-96609771D02*
X30845048Y-96419295D01*
X30845048Y-96419295D02*
X30892667Y-96324057D01*
X30892667Y-96324057D02*
X30940286Y-96276438D01*
X30940286Y-96276438D02*
X31035524Y-96228819D01*
X31924666Y-20282819D02*
X31924666Y-20997104D01*
X31924666Y-20997104D02*
X31877047Y-21139961D01*
X31877047Y-21139961D02*
X31781809Y-21235200D01*
X31781809Y-21235200D02*
X31638952Y-21282819D01*
X31638952Y-21282819D02*
X31543714Y-21282819D01*
X32353238Y-20378057D02*
X32400857Y-20330438D01*
X32400857Y-20330438D02*
X32496095Y-20282819D01*
X32496095Y-20282819D02*
X32734190Y-20282819D01*
X32734190Y-20282819D02*
X32829428Y-20330438D01*
X32829428Y-20330438D02*
X32877047Y-20378057D01*
X32877047Y-20378057D02*
X32924666Y-20473295D01*
X32924666Y-20473295D02*
X32924666Y-20568533D01*
X32924666Y-20568533D02*
X32877047Y-20711390D01*
X32877047Y-20711390D02*
X32305619Y-21282819D01*
X32305619Y-21282819D02*
X32924666Y-21282819D01*
X40132095Y-77432819D02*
X40132095Y-78242342D01*
X40132095Y-78242342D02*
X40179714Y-78337580D01*
X40179714Y-78337580D02*
X40227333Y-78385200D01*
X40227333Y-78385200D02*
X40322571Y-78432819D01*
X40322571Y-78432819D02*
X40513047Y-78432819D01*
X40513047Y-78432819D02*
X40608285Y-78385200D01*
X40608285Y-78385200D02*
X40655904Y-78337580D01*
X40655904Y-78337580D02*
X40703523Y-78242342D01*
X40703523Y-78242342D02*
X40703523Y-77432819D01*
X41703523Y-78432819D02*
X41132095Y-78432819D01*
X41417809Y-78432819D02*
X41417809Y-77432819D01*
X41417809Y-77432819D02*
X41322571Y-77575676D01*
X41322571Y-77575676D02*
X41227333Y-77670914D01*
X41227333Y-77670914D02*
X41132095Y-77718533D01*
X23553009Y-51985797D02*
X23553009Y-51652464D01*
X24076819Y-51509607D02*
X24076819Y-51985797D01*
X24076819Y-51985797D02*
X23076819Y-51985797D01*
X23076819Y-51985797D02*
X23076819Y-51509607D01*
X24029200Y-51128654D02*
X24076819Y-50985797D01*
X24076819Y-50985797D02*
X24076819Y-50747702D01*
X24076819Y-50747702D02*
X24029200Y-50652464D01*
X24029200Y-50652464D02*
X23981580Y-50604845D01*
X23981580Y-50604845D02*
X23886342Y-50557226D01*
X23886342Y-50557226D02*
X23791104Y-50557226D01*
X23791104Y-50557226D02*
X23695866Y-50604845D01*
X23695866Y-50604845D02*
X23648247Y-50652464D01*
X23648247Y-50652464D02*
X23600628Y-50747702D01*
X23600628Y-50747702D02*
X23553009Y-50938178D01*
X23553009Y-50938178D02*
X23505390Y-51033416D01*
X23505390Y-51033416D02*
X23457771Y-51081035D01*
X23457771Y-51081035D02*
X23362533Y-51128654D01*
X23362533Y-51128654D02*
X23267295Y-51128654D01*
X23267295Y-51128654D02*
X23172057Y-51081035D01*
X23172057Y-51081035D02*
X23124438Y-51033416D01*
X23124438Y-51033416D02*
X23076819Y-50938178D01*
X23076819Y-50938178D02*
X23076819Y-50700083D01*
X23076819Y-50700083D02*
X23124438Y-50557226D01*
X24076819Y-50128654D02*
X23076819Y-50128654D01*
X23076819Y-50128654D02*
X23076819Y-49747702D01*
X23076819Y-49747702D02*
X23124438Y-49652464D01*
X23124438Y-49652464D02*
X23172057Y-49604845D01*
X23172057Y-49604845D02*
X23267295Y-49557226D01*
X23267295Y-49557226D02*
X23410152Y-49557226D01*
X23410152Y-49557226D02*
X23505390Y-49604845D01*
X23505390Y-49604845D02*
X23553009Y-49652464D01*
X23553009Y-49652464D02*
X23600628Y-49747702D01*
X23600628Y-49747702D02*
X23600628Y-50128654D01*
X23076819Y-49223892D02*
X23076819Y-48604845D01*
X23076819Y-48604845D02*
X23457771Y-48938178D01*
X23457771Y-48938178D02*
X23457771Y-48795321D01*
X23457771Y-48795321D02*
X23505390Y-48700083D01*
X23505390Y-48700083D02*
X23553009Y-48652464D01*
X23553009Y-48652464D02*
X23648247Y-48604845D01*
X23648247Y-48604845D02*
X23886342Y-48604845D01*
X23886342Y-48604845D02*
X23981580Y-48652464D01*
X23981580Y-48652464D02*
X24029200Y-48700083D01*
X24029200Y-48700083D02*
X24076819Y-48795321D01*
X24076819Y-48795321D02*
X24076819Y-49081035D01*
X24076819Y-49081035D02*
X24029200Y-49176273D01*
X24029200Y-49176273D02*
X23981580Y-49223892D01*
X23172057Y-48223892D02*
X23124438Y-48176273D01*
X23124438Y-48176273D02*
X23076819Y-48081035D01*
X23076819Y-48081035D02*
X23076819Y-47842940D01*
X23076819Y-47842940D02*
X23124438Y-47747702D01*
X23124438Y-47747702D02*
X23172057Y-47700083D01*
X23172057Y-47700083D02*
X23267295Y-47652464D01*
X23267295Y-47652464D02*
X23362533Y-47652464D01*
X23362533Y-47652464D02*
X23505390Y-47700083D01*
X23505390Y-47700083D02*
X24076819Y-48271511D01*
X24076819Y-48271511D02*
X24076819Y-47652464D01*
X23695866Y-47223892D02*
X23695866Y-46461988D01*
X24076819Y-45985797D02*
X23076819Y-45985797D01*
X23076819Y-45985797D02*
X23076819Y-45747702D01*
X23076819Y-45747702D02*
X23124438Y-45604845D01*
X23124438Y-45604845D02*
X23219676Y-45509607D01*
X23219676Y-45509607D02*
X23314914Y-45461988D01*
X23314914Y-45461988D02*
X23505390Y-45414369D01*
X23505390Y-45414369D02*
X23648247Y-45414369D01*
X23648247Y-45414369D02*
X23838723Y-45461988D01*
X23838723Y-45461988D02*
X23933961Y-45509607D01*
X23933961Y-45509607D02*
X24029200Y-45604845D01*
X24029200Y-45604845D02*
X24076819Y-45747702D01*
X24076819Y-45747702D02*
X24076819Y-45985797D01*
X24029200Y-44604845D02*
X24076819Y-44700083D01*
X24076819Y-44700083D02*
X24076819Y-44890559D01*
X24076819Y-44890559D02*
X24029200Y-44985797D01*
X24029200Y-44985797D02*
X23933961Y-45033416D01*
X23933961Y-45033416D02*
X23553009Y-45033416D01*
X23553009Y-45033416D02*
X23457771Y-44985797D01*
X23457771Y-44985797D02*
X23410152Y-44890559D01*
X23410152Y-44890559D02*
X23410152Y-44700083D01*
X23410152Y-44700083D02*
X23457771Y-44604845D01*
X23457771Y-44604845D02*
X23553009Y-44557226D01*
X23553009Y-44557226D02*
X23648247Y-44557226D01*
X23648247Y-44557226D02*
X23743485Y-45033416D01*
X23410152Y-44223892D02*
X24076819Y-43985797D01*
X24076819Y-43985797D02*
X23410152Y-43747702D01*
X24076819Y-43366749D02*
X23076819Y-43366749D01*
X24076819Y-42795321D02*
X23505390Y-43223892D01*
X23076819Y-42795321D02*
X23648247Y-43366749D01*
X24076819Y-42366749D02*
X23410152Y-42366749D01*
X23076819Y-42366749D02*
X23124438Y-42414368D01*
X23124438Y-42414368D02*
X23172057Y-42366749D01*
X23172057Y-42366749D02*
X23124438Y-42319130D01*
X23124438Y-42319130D02*
X23076819Y-42366749D01*
X23076819Y-42366749D02*
X23172057Y-42366749D01*
X23410152Y-42033416D02*
X23410152Y-41652464D01*
X23076819Y-41890559D02*
X23933961Y-41890559D01*
X23933961Y-41890559D02*
X24029200Y-41842940D01*
X24029200Y-41842940D02*
X24076819Y-41747702D01*
X24076819Y-41747702D02*
X24076819Y-41652464D01*
X23981580Y-40747702D02*
X24029200Y-40795321D01*
X24029200Y-40795321D02*
X24076819Y-40938178D01*
X24076819Y-40938178D02*
X24076819Y-41033416D01*
X24076819Y-41033416D02*
X24029200Y-41176273D01*
X24029200Y-41176273D02*
X23933961Y-41271511D01*
X23933961Y-41271511D02*
X23838723Y-41319130D01*
X23838723Y-41319130D02*
X23648247Y-41366749D01*
X23648247Y-41366749D02*
X23505390Y-41366749D01*
X23505390Y-41366749D02*
X23314914Y-41319130D01*
X23314914Y-41319130D02*
X23219676Y-41271511D01*
X23219676Y-41271511D02*
X23124438Y-41176273D01*
X23124438Y-41176273D02*
X23076819Y-41033416D01*
X23076819Y-41033416D02*
X23076819Y-40938178D01*
X23076819Y-40938178D02*
X23124438Y-40795321D01*
X23124438Y-40795321D02*
X23172057Y-40747702D01*
X17904017Y-44769926D02*
X17837350Y-44736593D01*
X17837350Y-44736593D02*
X17737350Y-44736593D01*
X17737350Y-44736593D02*
X17637350Y-44769926D01*
X17637350Y-44769926D02*
X17570684Y-44836593D01*
X17570684Y-44836593D02*
X17537350Y-44903260D01*
X17537350Y-44903260D02*
X17504017Y-45036593D01*
X17504017Y-45036593D02*
X17504017Y-45136593D01*
X17504017Y-45136593D02*
X17537350Y-45269926D01*
X17537350Y-45269926D02*
X17570684Y-45336593D01*
X17570684Y-45336593D02*
X17637350Y-45403260D01*
X17637350Y-45403260D02*
X17737350Y-45436593D01*
X17737350Y-45436593D02*
X17804017Y-45436593D01*
X17804017Y-45436593D02*
X17904017Y-45403260D01*
X17904017Y-45403260D02*
X17937350Y-45369926D01*
X17937350Y-45369926D02*
X17937350Y-45136593D01*
X17937350Y-45136593D02*
X17804017Y-45136593D01*
X18237350Y-45436593D02*
X18237350Y-44736593D01*
X18237350Y-44736593D02*
X18504017Y-44736593D01*
X18504017Y-44736593D02*
X18570684Y-44769926D01*
X18570684Y-44769926D02*
X18604017Y-44803260D01*
X18604017Y-44803260D02*
X18637350Y-44869926D01*
X18637350Y-44869926D02*
X18637350Y-44969926D01*
X18637350Y-44969926D02*
X18604017Y-45036593D01*
X18604017Y-45036593D02*
X18570684Y-45069926D01*
X18570684Y-45069926D02*
X18504017Y-45103260D01*
X18504017Y-45103260D02*
X18237350Y-45103260D01*
X18937350Y-45436593D02*
X18937350Y-44736593D01*
X19404017Y-44736593D02*
X19537350Y-44736593D01*
X19537350Y-44736593D02*
X19604017Y-44769926D01*
X19604017Y-44769926D02*
X19670683Y-44836593D01*
X19670683Y-44836593D02*
X19704017Y-44969926D01*
X19704017Y-44969926D02*
X19704017Y-45203260D01*
X19704017Y-45203260D02*
X19670683Y-45336593D01*
X19670683Y-45336593D02*
X19604017Y-45403260D01*
X19604017Y-45403260D02*
X19537350Y-45436593D01*
X19537350Y-45436593D02*
X19404017Y-45436593D01*
X19404017Y-45436593D02*
X19337350Y-45403260D01*
X19337350Y-45403260D02*
X19270683Y-45336593D01*
X19270683Y-45336593D02*
X19237350Y-45203260D01*
X19237350Y-45203260D02*
X19237350Y-44969926D01*
X19237350Y-44969926D02*
X19270683Y-44836593D01*
X19270683Y-44836593D02*
X19337350Y-44769926D01*
X19337350Y-44769926D02*
X19404017Y-44736593D01*
X19937350Y-44736593D02*
X20370683Y-44736593D01*
X20370683Y-44736593D02*
X20137350Y-45003260D01*
X20137350Y-45003260D02*
X20237350Y-45003260D01*
X20237350Y-45003260D02*
X20304016Y-45036593D01*
X20304016Y-45036593D02*
X20337350Y-45069926D01*
X20337350Y-45069926D02*
X20370683Y-45136593D01*
X20370683Y-45136593D02*
X20370683Y-45303260D01*
X20370683Y-45303260D02*
X20337350Y-45369926D01*
X20337350Y-45369926D02*
X20304016Y-45403260D01*
X20304016Y-45403260D02*
X20237350Y-45436593D01*
X20237350Y-45436593D02*
X20037350Y-45436593D01*
X20037350Y-45436593D02*
X19970683Y-45403260D01*
X19970683Y-45403260D02*
X19937350Y-45369926D01*
X20637350Y-44803260D02*
X20670683Y-44769926D01*
X20670683Y-44769926D02*
X20737350Y-44736593D01*
X20737350Y-44736593D02*
X20904017Y-44736593D01*
X20904017Y-44736593D02*
X20970683Y-44769926D01*
X20970683Y-44769926D02*
X21004017Y-44803260D01*
X21004017Y-44803260D02*
X21037350Y-44869926D01*
X21037350Y-44869926D02*
X21037350Y-44936593D01*
X21037350Y-44936593D02*
X21004017Y-45036593D01*
X21004017Y-45036593D02*
X20604017Y-45436593D01*
X20604017Y-45436593D02*
X21037350Y-45436593D01*
X36766649Y-47309926D02*
X36699982Y-47276593D01*
X36699982Y-47276593D02*
X36599982Y-47276593D01*
X36599982Y-47276593D02*
X36499982Y-47309926D01*
X36499982Y-47309926D02*
X36433316Y-47376593D01*
X36433316Y-47376593D02*
X36399982Y-47443260D01*
X36399982Y-47443260D02*
X36366649Y-47576593D01*
X36366649Y-47576593D02*
X36366649Y-47676593D01*
X36366649Y-47676593D02*
X36399982Y-47809926D01*
X36399982Y-47809926D02*
X36433316Y-47876593D01*
X36433316Y-47876593D02*
X36499982Y-47943260D01*
X36499982Y-47943260D02*
X36599982Y-47976593D01*
X36599982Y-47976593D02*
X36666649Y-47976593D01*
X36666649Y-47976593D02*
X36766649Y-47943260D01*
X36766649Y-47943260D02*
X36799982Y-47909926D01*
X36799982Y-47909926D02*
X36799982Y-47676593D01*
X36799982Y-47676593D02*
X36666649Y-47676593D01*
X37099982Y-47976593D02*
X37099982Y-47276593D01*
X37099982Y-47276593D02*
X37366649Y-47276593D01*
X37366649Y-47276593D02*
X37433316Y-47309926D01*
X37433316Y-47309926D02*
X37466649Y-47343260D01*
X37466649Y-47343260D02*
X37499982Y-47409926D01*
X37499982Y-47409926D02*
X37499982Y-47509926D01*
X37499982Y-47509926D02*
X37466649Y-47576593D01*
X37466649Y-47576593D02*
X37433316Y-47609926D01*
X37433316Y-47609926D02*
X37366649Y-47643260D01*
X37366649Y-47643260D02*
X37099982Y-47643260D01*
X37799982Y-47976593D02*
X37799982Y-47276593D01*
X38266649Y-47276593D02*
X38399982Y-47276593D01*
X38399982Y-47276593D02*
X38466649Y-47309926D01*
X38466649Y-47309926D02*
X38533315Y-47376593D01*
X38533315Y-47376593D02*
X38566649Y-47509926D01*
X38566649Y-47509926D02*
X38566649Y-47743260D01*
X38566649Y-47743260D02*
X38533315Y-47876593D01*
X38533315Y-47876593D02*
X38466649Y-47943260D01*
X38466649Y-47943260D02*
X38399982Y-47976593D01*
X38399982Y-47976593D02*
X38266649Y-47976593D01*
X38266649Y-47976593D02*
X38199982Y-47943260D01*
X38199982Y-47943260D02*
X38133315Y-47876593D01*
X38133315Y-47876593D02*
X38099982Y-47743260D01*
X38099982Y-47743260D02*
X38099982Y-47509926D01*
X38099982Y-47509926D02*
X38133315Y-47376593D01*
X38133315Y-47376593D02*
X38199982Y-47309926D01*
X38199982Y-47309926D02*
X38266649Y-47276593D01*
X39233315Y-47976593D02*
X38833315Y-47976593D01*
X39033315Y-47976593D02*
X39033315Y-47276593D01*
X39033315Y-47276593D02*
X38966648Y-47376593D01*
X38966648Y-47376593D02*
X38899982Y-47443260D01*
X38899982Y-47443260D02*
X38833315Y-47476593D01*
X39566649Y-47976593D02*
X39699982Y-47976593D01*
X39699982Y-47976593D02*
X39766649Y-47943260D01*
X39766649Y-47943260D02*
X39799982Y-47909926D01*
X39799982Y-47909926D02*
X39866649Y-47809926D01*
X39866649Y-47809926D02*
X39899982Y-47676593D01*
X39899982Y-47676593D02*
X39899982Y-47409926D01*
X39899982Y-47409926D02*
X39866649Y-47343260D01*
X39866649Y-47343260D02*
X39833315Y-47309926D01*
X39833315Y-47309926D02*
X39766649Y-47276593D01*
X39766649Y-47276593D02*
X39633315Y-47276593D01*
X39633315Y-47276593D02*
X39566649Y-47309926D01*
X39566649Y-47309926D02*
X39533315Y-47343260D01*
X39533315Y-47343260D02*
X39499982Y-47409926D01*
X39499982Y-47409926D02*
X39499982Y-47576593D01*
X39499982Y-47576593D02*
X39533315Y-47643260D01*
X39533315Y-47643260D02*
X39566649Y-47676593D01*
X39566649Y-47676593D02*
X39633315Y-47709926D01*
X39633315Y-47709926D02*
X39766649Y-47709926D01*
X39766649Y-47709926D02*
X39833315Y-47676593D01*
X39833315Y-47676593D02*
X39866649Y-47643260D01*
X39866649Y-47643260D02*
X39899982Y-47576593D01*
X17437350Y-37116593D02*
X17670684Y-37816593D01*
X17670684Y-37816593D02*
X17904017Y-37116593D01*
X18137350Y-37816593D02*
X18137350Y-37116593D01*
X18137350Y-37116593D02*
X18537350Y-37816593D01*
X18537350Y-37816593D02*
X18537350Y-37116593D01*
X19370683Y-37083260D02*
X18770683Y-37983260D01*
X19970683Y-37149926D02*
X19904016Y-37116593D01*
X19904016Y-37116593D02*
X19804016Y-37116593D01*
X19804016Y-37116593D02*
X19704016Y-37149926D01*
X19704016Y-37149926D02*
X19637350Y-37216593D01*
X19637350Y-37216593D02*
X19604016Y-37283260D01*
X19604016Y-37283260D02*
X19570683Y-37416593D01*
X19570683Y-37416593D02*
X19570683Y-37516593D01*
X19570683Y-37516593D02*
X19604016Y-37649926D01*
X19604016Y-37649926D02*
X19637350Y-37716593D01*
X19637350Y-37716593D02*
X19704016Y-37783260D01*
X19704016Y-37783260D02*
X19804016Y-37816593D01*
X19804016Y-37816593D02*
X19870683Y-37816593D01*
X19870683Y-37816593D02*
X19970683Y-37783260D01*
X19970683Y-37783260D02*
X20004016Y-37749926D01*
X20004016Y-37749926D02*
X20004016Y-37516593D01*
X20004016Y-37516593D02*
X19870683Y-37516593D01*
X20304016Y-37816593D02*
X20304016Y-37116593D01*
X20304016Y-37116593D02*
X20570683Y-37116593D01*
X20570683Y-37116593D02*
X20637350Y-37149926D01*
X20637350Y-37149926D02*
X20670683Y-37183260D01*
X20670683Y-37183260D02*
X20704016Y-37249926D01*
X20704016Y-37249926D02*
X20704016Y-37349926D01*
X20704016Y-37349926D02*
X20670683Y-37416593D01*
X20670683Y-37416593D02*
X20637350Y-37449926D01*
X20637350Y-37449926D02*
X20570683Y-37483260D01*
X20570683Y-37483260D02*
X20304016Y-37483260D01*
X21004016Y-37816593D02*
X21004016Y-37116593D01*
X21470683Y-37116593D02*
X21604016Y-37116593D01*
X21604016Y-37116593D02*
X21670683Y-37149926D01*
X21670683Y-37149926D02*
X21737349Y-37216593D01*
X21737349Y-37216593D02*
X21770683Y-37349926D01*
X21770683Y-37349926D02*
X21770683Y-37583260D01*
X21770683Y-37583260D02*
X21737349Y-37716593D01*
X21737349Y-37716593D02*
X21670683Y-37783260D01*
X21670683Y-37783260D02*
X21604016Y-37816593D01*
X21604016Y-37816593D02*
X21470683Y-37816593D01*
X21470683Y-37816593D02*
X21404016Y-37783260D01*
X21404016Y-37783260D02*
X21337349Y-37716593D01*
X21337349Y-37716593D02*
X21304016Y-37583260D01*
X21304016Y-37583260D02*
X21304016Y-37349926D01*
X21304016Y-37349926D02*
X21337349Y-37216593D01*
X21337349Y-37216593D02*
X21404016Y-37149926D01*
X21404016Y-37149926D02*
X21470683Y-37116593D01*
X22004016Y-37116593D02*
X22437349Y-37116593D01*
X22437349Y-37116593D02*
X22204016Y-37383260D01*
X22204016Y-37383260D02*
X22304016Y-37383260D01*
X22304016Y-37383260D02*
X22370682Y-37416593D01*
X22370682Y-37416593D02*
X22404016Y-37449926D01*
X22404016Y-37449926D02*
X22437349Y-37516593D01*
X22437349Y-37516593D02*
X22437349Y-37683260D01*
X22437349Y-37683260D02*
X22404016Y-37749926D01*
X22404016Y-37749926D02*
X22370682Y-37783260D01*
X22370682Y-37783260D02*
X22304016Y-37816593D01*
X22304016Y-37816593D02*
X22104016Y-37816593D01*
X22104016Y-37816593D02*
X22037349Y-37783260D01*
X22037349Y-37783260D02*
X22004016Y-37749926D01*
X22770683Y-37816593D02*
X22904016Y-37816593D01*
X22904016Y-37816593D02*
X22970683Y-37783260D01*
X22970683Y-37783260D02*
X23004016Y-37749926D01*
X23004016Y-37749926D02*
X23070683Y-37649926D01*
X23070683Y-37649926D02*
X23104016Y-37516593D01*
X23104016Y-37516593D02*
X23104016Y-37249926D01*
X23104016Y-37249926D02*
X23070683Y-37183260D01*
X23070683Y-37183260D02*
X23037349Y-37149926D01*
X23037349Y-37149926D02*
X22970683Y-37116593D01*
X22970683Y-37116593D02*
X22837349Y-37116593D01*
X22837349Y-37116593D02*
X22770683Y-37149926D01*
X22770683Y-37149926D02*
X22737349Y-37183260D01*
X22737349Y-37183260D02*
X22704016Y-37249926D01*
X22704016Y-37249926D02*
X22704016Y-37416593D01*
X22704016Y-37416593D02*
X22737349Y-37483260D01*
X22737349Y-37483260D02*
X22770683Y-37516593D01*
X22770683Y-37516593D02*
X22837349Y-37549926D01*
X22837349Y-37549926D02*
X22970683Y-37549926D01*
X22970683Y-37549926D02*
X23037349Y-37516593D01*
X23037349Y-37516593D02*
X23070683Y-37483260D01*
X23070683Y-37483260D02*
X23104016Y-37416593D01*
X37433316Y-52389926D02*
X37366649Y-52356593D01*
X37366649Y-52356593D02*
X37266649Y-52356593D01*
X37266649Y-52356593D02*
X37166649Y-52389926D01*
X37166649Y-52389926D02*
X37099983Y-52456593D01*
X37099983Y-52456593D02*
X37066649Y-52523260D01*
X37066649Y-52523260D02*
X37033316Y-52656593D01*
X37033316Y-52656593D02*
X37033316Y-52756593D01*
X37033316Y-52756593D02*
X37066649Y-52889926D01*
X37066649Y-52889926D02*
X37099983Y-52956593D01*
X37099983Y-52956593D02*
X37166649Y-53023260D01*
X37166649Y-53023260D02*
X37266649Y-53056593D01*
X37266649Y-53056593D02*
X37333316Y-53056593D01*
X37333316Y-53056593D02*
X37433316Y-53023260D01*
X37433316Y-53023260D02*
X37466649Y-52989926D01*
X37466649Y-52989926D02*
X37466649Y-52756593D01*
X37466649Y-52756593D02*
X37333316Y-52756593D01*
X37766649Y-53056593D02*
X37766649Y-52356593D01*
X37766649Y-52356593D02*
X38033316Y-52356593D01*
X38033316Y-52356593D02*
X38099983Y-52389926D01*
X38099983Y-52389926D02*
X38133316Y-52423260D01*
X38133316Y-52423260D02*
X38166649Y-52489926D01*
X38166649Y-52489926D02*
X38166649Y-52589926D01*
X38166649Y-52589926D02*
X38133316Y-52656593D01*
X38133316Y-52656593D02*
X38099983Y-52689926D01*
X38099983Y-52689926D02*
X38033316Y-52723260D01*
X38033316Y-52723260D02*
X37766649Y-52723260D01*
X38466649Y-53056593D02*
X38466649Y-52356593D01*
X38933316Y-52356593D02*
X39066649Y-52356593D01*
X39066649Y-52356593D02*
X39133316Y-52389926D01*
X39133316Y-52389926D02*
X39199982Y-52456593D01*
X39199982Y-52456593D02*
X39233316Y-52589926D01*
X39233316Y-52589926D02*
X39233316Y-52823260D01*
X39233316Y-52823260D02*
X39199982Y-52956593D01*
X39199982Y-52956593D02*
X39133316Y-53023260D01*
X39133316Y-53023260D02*
X39066649Y-53056593D01*
X39066649Y-53056593D02*
X38933316Y-53056593D01*
X38933316Y-53056593D02*
X38866649Y-53023260D01*
X38866649Y-53023260D02*
X38799982Y-52956593D01*
X38799982Y-52956593D02*
X38766649Y-52823260D01*
X38766649Y-52823260D02*
X38766649Y-52589926D01*
X38766649Y-52589926D02*
X38799982Y-52456593D01*
X38799982Y-52456593D02*
X38866649Y-52389926D01*
X38866649Y-52389926D02*
X38933316Y-52356593D01*
X39866649Y-52356593D02*
X39533315Y-52356593D01*
X39533315Y-52356593D02*
X39499982Y-52689926D01*
X39499982Y-52689926D02*
X39533315Y-52656593D01*
X39533315Y-52656593D02*
X39599982Y-52623260D01*
X39599982Y-52623260D02*
X39766649Y-52623260D01*
X39766649Y-52623260D02*
X39833315Y-52656593D01*
X39833315Y-52656593D02*
X39866649Y-52689926D01*
X39866649Y-52689926D02*
X39899982Y-52756593D01*
X39899982Y-52756593D02*
X39899982Y-52923260D01*
X39899982Y-52923260D02*
X39866649Y-52989926D01*
X39866649Y-52989926D02*
X39833315Y-53023260D01*
X39833315Y-53023260D02*
X39766649Y-53056593D01*
X39766649Y-53056593D02*
X39599982Y-53056593D01*
X39599982Y-53056593D02*
X39533315Y-53023260D01*
X39533315Y-53023260D02*
X39499982Y-52989926D01*
X33266650Y-67629926D02*
X33199983Y-67596593D01*
X33199983Y-67596593D02*
X33099983Y-67596593D01*
X33099983Y-67596593D02*
X32999983Y-67629926D01*
X32999983Y-67629926D02*
X32933317Y-67696593D01*
X32933317Y-67696593D02*
X32899983Y-67763260D01*
X32899983Y-67763260D02*
X32866650Y-67896593D01*
X32866650Y-67896593D02*
X32866650Y-67996593D01*
X32866650Y-67996593D02*
X32899983Y-68129926D01*
X32899983Y-68129926D02*
X32933317Y-68196593D01*
X32933317Y-68196593D02*
X32999983Y-68263260D01*
X32999983Y-68263260D02*
X33099983Y-68296593D01*
X33099983Y-68296593D02*
X33166650Y-68296593D01*
X33166650Y-68296593D02*
X33266650Y-68263260D01*
X33266650Y-68263260D02*
X33299983Y-68229926D01*
X33299983Y-68229926D02*
X33299983Y-67996593D01*
X33299983Y-67996593D02*
X33166650Y-67996593D01*
X33599983Y-68296593D02*
X33599983Y-67596593D01*
X33599983Y-67596593D02*
X33866650Y-67596593D01*
X33866650Y-67596593D02*
X33933317Y-67629926D01*
X33933317Y-67629926D02*
X33966650Y-67663260D01*
X33966650Y-67663260D02*
X33999983Y-67729926D01*
X33999983Y-67729926D02*
X33999983Y-67829926D01*
X33999983Y-67829926D02*
X33966650Y-67896593D01*
X33966650Y-67896593D02*
X33933317Y-67929926D01*
X33933317Y-67929926D02*
X33866650Y-67963260D01*
X33866650Y-67963260D02*
X33599983Y-67963260D01*
X34299983Y-68296593D02*
X34299983Y-67596593D01*
X34766650Y-67596593D02*
X34899983Y-67596593D01*
X34899983Y-67596593D02*
X34966650Y-67629926D01*
X34966650Y-67629926D02*
X35033316Y-67696593D01*
X35033316Y-67696593D02*
X35066650Y-67829926D01*
X35066650Y-67829926D02*
X35066650Y-68063260D01*
X35066650Y-68063260D02*
X35033316Y-68196593D01*
X35033316Y-68196593D02*
X34966650Y-68263260D01*
X34966650Y-68263260D02*
X34899983Y-68296593D01*
X34899983Y-68296593D02*
X34766650Y-68296593D01*
X34766650Y-68296593D02*
X34699983Y-68263260D01*
X34699983Y-68263260D02*
X34633316Y-68196593D01*
X34633316Y-68196593D02*
X34599983Y-68063260D01*
X34599983Y-68063260D02*
X34599983Y-67829926D01*
X34599983Y-67829926D02*
X34633316Y-67696593D01*
X34633316Y-67696593D02*
X34699983Y-67629926D01*
X34699983Y-67629926D02*
X34766650Y-67596593D01*
X35733316Y-68296593D02*
X35333316Y-68296593D01*
X35533316Y-68296593D02*
X35533316Y-67596593D01*
X35533316Y-67596593D02*
X35466649Y-67696593D01*
X35466649Y-67696593D02*
X35399983Y-67763260D01*
X35399983Y-67763260D02*
X35333316Y-67796593D01*
X36366650Y-67596593D02*
X36033316Y-67596593D01*
X36033316Y-67596593D02*
X35999983Y-67929926D01*
X35999983Y-67929926D02*
X36033316Y-67896593D01*
X36033316Y-67896593D02*
X36099983Y-67863260D01*
X36099983Y-67863260D02*
X36266650Y-67863260D01*
X36266650Y-67863260D02*
X36333316Y-67896593D01*
X36333316Y-67896593D02*
X36366650Y-67929926D01*
X36366650Y-67929926D02*
X36399983Y-67996593D01*
X36399983Y-67996593D02*
X36399983Y-68163260D01*
X36399983Y-68163260D02*
X36366650Y-68229926D01*
X36366650Y-68229926D02*
X36333316Y-68263260D01*
X36333316Y-68263260D02*
X36266650Y-68296593D01*
X36266650Y-68296593D02*
X36099983Y-68296593D01*
X36099983Y-68296593D02*
X36033316Y-68263260D01*
X36033316Y-68263260D02*
X35999983Y-68229926D01*
X37199983Y-67563260D02*
X36599983Y-68463260D01*
X37433316Y-68296593D02*
X37433316Y-67596593D01*
X37433316Y-67596593D02*
X37666650Y-68096593D01*
X37666650Y-68096593D02*
X37899983Y-67596593D01*
X37899983Y-67596593D02*
X37899983Y-68296593D01*
X38133316Y-67596593D02*
X38533316Y-67596593D01*
X38333316Y-68296593D02*
X38333316Y-67596593D01*
X38766649Y-68296593D02*
X38766649Y-67596593D01*
X38766649Y-67596593D02*
X38933316Y-67596593D01*
X38933316Y-67596593D02*
X39033316Y-67629926D01*
X39033316Y-67629926D02*
X39099983Y-67696593D01*
X39099983Y-67696593D02*
X39133316Y-67763260D01*
X39133316Y-67763260D02*
X39166649Y-67896593D01*
X39166649Y-67896593D02*
X39166649Y-67996593D01*
X39166649Y-67996593D02*
X39133316Y-68129926D01*
X39133316Y-68129926D02*
X39099983Y-68196593D01*
X39099983Y-68196593D02*
X39033316Y-68263260D01*
X39033316Y-68263260D02*
X38933316Y-68296593D01*
X38933316Y-68296593D02*
X38766649Y-68296593D01*
X39599983Y-67596593D02*
X39733316Y-67596593D01*
X39733316Y-67596593D02*
X39799983Y-67629926D01*
X39799983Y-67629926D02*
X39866649Y-67696593D01*
X39866649Y-67696593D02*
X39899983Y-67829926D01*
X39899983Y-67829926D02*
X39899983Y-68063260D01*
X39899983Y-68063260D02*
X39866649Y-68196593D01*
X39866649Y-68196593D02*
X39799983Y-68263260D01*
X39799983Y-68263260D02*
X39733316Y-68296593D01*
X39733316Y-68296593D02*
X39599983Y-68296593D01*
X39599983Y-68296593D02*
X39533316Y-68263260D01*
X39533316Y-68263260D02*
X39466649Y-68196593D01*
X39466649Y-68196593D02*
X39433316Y-68063260D01*
X39433316Y-68063260D02*
X39433316Y-67829926D01*
X39433316Y-67829926D02*
X39466649Y-67696593D01*
X39466649Y-67696593D02*
X39533316Y-67629926D01*
X39533316Y-67629926D02*
X39599983Y-67596593D01*
X36766649Y-49849926D02*
X36699982Y-49816593D01*
X36699982Y-49816593D02*
X36599982Y-49816593D01*
X36599982Y-49816593D02*
X36499982Y-49849926D01*
X36499982Y-49849926D02*
X36433316Y-49916593D01*
X36433316Y-49916593D02*
X36399982Y-49983260D01*
X36399982Y-49983260D02*
X36366649Y-50116593D01*
X36366649Y-50116593D02*
X36366649Y-50216593D01*
X36366649Y-50216593D02*
X36399982Y-50349926D01*
X36399982Y-50349926D02*
X36433316Y-50416593D01*
X36433316Y-50416593D02*
X36499982Y-50483260D01*
X36499982Y-50483260D02*
X36599982Y-50516593D01*
X36599982Y-50516593D02*
X36666649Y-50516593D01*
X36666649Y-50516593D02*
X36766649Y-50483260D01*
X36766649Y-50483260D02*
X36799982Y-50449926D01*
X36799982Y-50449926D02*
X36799982Y-50216593D01*
X36799982Y-50216593D02*
X36666649Y-50216593D01*
X37099982Y-50516593D02*
X37099982Y-49816593D01*
X37099982Y-49816593D02*
X37366649Y-49816593D01*
X37366649Y-49816593D02*
X37433316Y-49849926D01*
X37433316Y-49849926D02*
X37466649Y-49883260D01*
X37466649Y-49883260D02*
X37499982Y-49949926D01*
X37499982Y-49949926D02*
X37499982Y-50049926D01*
X37499982Y-50049926D02*
X37466649Y-50116593D01*
X37466649Y-50116593D02*
X37433316Y-50149926D01*
X37433316Y-50149926D02*
X37366649Y-50183260D01*
X37366649Y-50183260D02*
X37099982Y-50183260D01*
X37799982Y-50516593D02*
X37799982Y-49816593D01*
X38266649Y-49816593D02*
X38399982Y-49816593D01*
X38399982Y-49816593D02*
X38466649Y-49849926D01*
X38466649Y-49849926D02*
X38533315Y-49916593D01*
X38533315Y-49916593D02*
X38566649Y-50049926D01*
X38566649Y-50049926D02*
X38566649Y-50283260D01*
X38566649Y-50283260D02*
X38533315Y-50416593D01*
X38533315Y-50416593D02*
X38466649Y-50483260D01*
X38466649Y-50483260D02*
X38399982Y-50516593D01*
X38399982Y-50516593D02*
X38266649Y-50516593D01*
X38266649Y-50516593D02*
X38199982Y-50483260D01*
X38199982Y-50483260D02*
X38133315Y-50416593D01*
X38133315Y-50416593D02*
X38099982Y-50283260D01*
X38099982Y-50283260D02*
X38099982Y-50049926D01*
X38099982Y-50049926D02*
X38133315Y-49916593D01*
X38133315Y-49916593D02*
X38199982Y-49849926D01*
X38199982Y-49849926D02*
X38266649Y-49816593D01*
X39233315Y-50516593D02*
X38833315Y-50516593D01*
X39033315Y-50516593D02*
X39033315Y-49816593D01*
X39033315Y-49816593D02*
X38966648Y-49916593D01*
X38966648Y-49916593D02*
X38899982Y-49983260D01*
X38899982Y-49983260D02*
X38833315Y-50016593D01*
X39633315Y-50116593D02*
X39566649Y-50083260D01*
X39566649Y-50083260D02*
X39533315Y-50049926D01*
X39533315Y-50049926D02*
X39499982Y-49983260D01*
X39499982Y-49983260D02*
X39499982Y-49949926D01*
X39499982Y-49949926D02*
X39533315Y-49883260D01*
X39533315Y-49883260D02*
X39566649Y-49849926D01*
X39566649Y-49849926D02*
X39633315Y-49816593D01*
X39633315Y-49816593D02*
X39766649Y-49816593D01*
X39766649Y-49816593D02*
X39833315Y-49849926D01*
X39833315Y-49849926D02*
X39866649Y-49883260D01*
X39866649Y-49883260D02*
X39899982Y-49949926D01*
X39899982Y-49949926D02*
X39899982Y-49983260D01*
X39899982Y-49983260D02*
X39866649Y-50049926D01*
X39866649Y-50049926D02*
X39833315Y-50083260D01*
X39833315Y-50083260D02*
X39766649Y-50116593D01*
X39766649Y-50116593D02*
X39633315Y-50116593D01*
X39633315Y-50116593D02*
X39566649Y-50149926D01*
X39566649Y-50149926D02*
X39533315Y-50183260D01*
X39533315Y-50183260D02*
X39499982Y-50249926D01*
X39499982Y-50249926D02*
X39499982Y-50383260D01*
X39499982Y-50383260D02*
X39533315Y-50449926D01*
X39533315Y-50449926D02*
X39566649Y-50483260D01*
X39566649Y-50483260D02*
X39633315Y-50516593D01*
X39633315Y-50516593D02*
X39766649Y-50516593D01*
X39766649Y-50516593D02*
X39833315Y-50483260D01*
X39833315Y-50483260D02*
X39866649Y-50449926D01*
X39866649Y-50449926D02*
X39899982Y-50383260D01*
X39899982Y-50383260D02*
X39899982Y-50249926D01*
X39899982Y-50249926D02*
X39866649Y-50183260D01*
X39866649Y-50183260D02*
X39833315Y-50149926D01*
X39833315Y-50149926D02*
X39766649Y-50116593D01*
X18158017Y-60009926D02*
X18091350Y-59976593D01*
X18091350Y-59976593D02*
X17991350Y-59976593D01*
X17991350Y-59976593D02*
X17891350Y-60009926D01*
X17891350Y-60009926D02*
X17824684Y-60076593D01*
X17824684Y-60076593D02*
X17791350Y-60143260D01*
X17791350Y-60143260D02*
X17758017Y-60276593D01*
X17758017Y-60276593D02*
X17758017Y-60376593D01*
X17758017Y-60376593D02*
X17791350Y-60509926D01*
X17791350Y-60509926D02*
X17824684Y-60576593D01*
X17824684Y-60576593D02*
X17891350Y-60643260D01*
X17891350Y-60643260D02*
X17991350Y-60676593D01*
X17991350Y-60676593D02*
X18058017Y-60676593D01*
X18058017Y-60676593D02*
X18158017Y-60643260D01*
X18158017Y-60643260D02*
X18191350Y-60609926D01*
X18191350Y-60609926D02*
X18191350Y-60376593D01*
X18191350Y-60376593D02*
X18058017Y-60376593D01*
X18491350Y-60676593D02*
X18491350Y-59976593D01*
X18491350Y-59976593D02*
X18758017Y-59976593D01*
X18758017Y-59976593D02*
X18824684Y-60009926D01*
X18824684Y-60009926D02*
X18858017Y-60043260D01*
X18858017Y-60043260D02*
X18891350Y-60109926D01*
X18891350Y-60109926D02*
X18891350Y-60209926D01*
X18891350Y-60209926D02*
X18858017Y-60276593D01*
X18858017Y-60276593D02*
X18824684Y-60309926D01*
X18824684Y-60309926D02*
X18758017Y-60343260D01*
X18758017Y-60343260D02*
X18491350Y-60343260D01*
X19191350Y-60676593D02*
X19191350Y-59976593D01*
X19658017Y-59976593D02*
X19791350Y-59976593D01*
X19791350Y-59976593D02*
X19858017Y-60009926D01*
X19858017Y-60009926D02*
X19924683Y-60076593D01*
X19924683Y-60076593D02*
X19958017Y-60209926D01*
X19958017Y-60209926D02*
X19958017Y-60443260D01*
X19958017Y-60443260D02*
X19924683Y-60576593D01*
X19924683Y-60576593D02*
X19858017Y-60643260D01*
X19858017Y-60643260D02*
X19791350Y-60676593D01*
X19791350Y-60676593D02*
X19658017Y-60676593D01*
X19658017Y-60676593D02*
X19591350Y-60643260D01*
X19591350Y-60643260D02*
X19524683Y-60576593D01*
X19524683Y-60576593D02*
X19491350Y-60443260D01*
X19491350Y-60443260D02*
X19491350Y-60209926D01*
X19491350Y-60209926D02*
X19524683Y-60076593D01*
X19524683Y-60076593D02*
X19591350Y-60009926D01*
X19591350Y-60009926D02*
X19658017Y-59976593D01*
X20624683Y-60676593D02*
X20224683Y-60676593D01*
X20424683Y-60676593D02*
X20424683Y-59976593D01*
X20424683Y-59976593D02*
X20358016Y-60076593D01*
X20358016Y-60076593D02*
X20291350Y-60143260D01*
X20291350Y-60143260D02*
X20224683Y-60176593D01*
X20891350Y-60043260D02*
X20924683Y-60009926D01*
X20924683Y-60009926D02*
X20991350Y-59976593D01*
X20991350Y-59976593D02*
X21158017Y-59976593D01*
X21158017Y-59976593D02*
X21224683Y-60009926D01*
X21224683Y-60009926D02*
X21258017Y-60043260D01*
X21258017Y-60043260D02*
X21291350Y-60109926D01*
X21291350Y-60109926D02*
X21291350Y-60176593D01*
X21291350Y-60176593D02*
X21258017Y-60276593D01*
X21258017Y-60276593D02*
X20858017Y-60676593D01*
X20858017Y-60676593D02*
X21291350Y-60676593D01*
X18445350Y-73309926D02*
X18412017Y-73343260D01*
X18412017Y-73343260D02*
X18312017Y-73376593D01*
X18312017Y-73376593D02*
X18245350Y-73376593D01*
X18245350Y-73376593D02*
X18145350Y-73343260D01*
X18145350Y-73343260D02*
X18078684Y-73276593D01*
X18078684Y-73276593D02*
X18045350Y-73209926D01*
X18045350Y-73209926D02*
X18012017Y-73076593D01*
X18012017Y-73076593D02*
X18012017Y-72976593D01*
X18012017Y-72976593D02*
X18045350Y-72843260D01*
X18045350Y-72843260D02*
X18078684Y-72776593D01*
X18078684Y-72776593D02*
X18145350Y-72709926D01*
X18145350Y-72709926D02*
X18245350Y-72676593D01*
X18245350Y-72676593D02*
X18312017Y-72676593D01*
X18312017Y-72676593D02*
X18412017Y-72709926D01*
X18412017Y-72709926D02*
X18445350Y-72743260D01*
X18745350Y-73376593D02*
X18745350Y-72676593D01*
X18745350Y-72676593D02*
X18978684Y-73176593D01*
X18978684Y-73176593D02*
X19212017Y-72676593D01*
X19212017Y-72676593D02*
X19212017Y-73376593D01*
X19545350Y-73376593D02*
X19545350Y-72676593D01*
X19545350Y-72676593D02*
X19712017Y-72676593D01*
X19712017Y-72676593D02*
X19812017Y-72709926D01*
X19812017Y-72709926D02*
X19878684Y-72776593D01*
X19878684Y-72776593D02*
X19912017Y-72843260D01*
X19912017Y-72843260D02*
X19945350Y-72976593D01*
X19945350Y-72976593D02*
X19945350Y-73076593D01*
X19945350Y-73076593D02*
X19912017Y-73209926D01*
X19912017Y-73209926D02*
X19878684Y-73276593D01*
X19878684Y-73276593D02*
X19812017Y-73343260D01*
X19812017Y-73343260D02*
X19712017Y-73376593D01*
X19712017Y-73376593D02*
X19545350Y-73376593D01*
X37433316Y-65089926D02*
X37366649Y-65056593D01*
X37366649Y-65056593D02*
X37266649Y-65056593D01*
X37266649Y-65056593D02*
X37166649Y-65089926D01*
X37166649Y-65089926D02*
X37099983Y-65156593D01*
X37099983Y-65156593D02*
X37066649Y-65223260D01*
X37066649Y-65223260D02*
X37033316Y-65356593D01*
X37033316Y-65356593D02*
X37033316Y-65456593D01*
X37033316Y-65456593D02*
X37066649Y-65589926D01*
X37066649Y-65589926D02*
X37099983Y-65656593D01*
X37099983Y-65656593D02*
X37166649Y-65723260D01*
X37166649Y-65723260D02*
X37266649Y-65756593D01*
X37266649Y-65756593D02*
X37333316Y-65756593D01*
X37333316Y-65756593D02*
X37433316Y-65723260D01*
X37433316Y-65723260D02*
X37466649Y-65689926D01*
X37466649Y-65689926D02*
X37466649Y-65456593D01*
X37466649Y-65456593D02*
X37333316Y-65456593D01*
X37766649Y-65756593D02*
X37766649Y-65056593D01*
X37766649Y-65056593D02*
X38033316Y-65056593D01*
X38033316Y-65056593D02*
X38099983Y-65089926D01*
X38099983Y-65089926D02*
X38133316Y-65123260D01*
X38133316Y-65123260D02*
X38166649Y-65189926D01*
X38166649Y-65189926D02*
X38166649Y-65289926D01*
X38166649Y-65289926D02*
X38133316Y-65356593D01*
X38133316Y-65356593D02*
X38099983Y-65389926D01*
X38099983Y-65389926D02*
X38033316Y-65423260D01*
X38033316Y-65423260D02*
X37766649Y-65423260D01*
X38466649Y-65756593D02*
X38466649Y-65056593D01*
X38933316Y-65056593D02*
X39066649Y-65056593D01*
X39066649Y-65056593D02*
X39133316Y-65089926D01*
X39133316Y-65089926D02*
X39199982Y-65156593D01*
X39199982Y-65156593D02*
X39233316Y-65289926D01*
X39233316Y-65289926D02*
X39233316Y-65523260D01*
X39233316Y-65523260D02*
X39199982Y-65656593D01*
X39199982Y-65656593D02*
X39133316Y-65723260D01*
X39133316Y-65723260D02*
X39066649Y-65756593D01*
X39066649Y-65756593D02*
X38933316Y-65756593D01*
X38933316Y-65756593D02*
X38866649Y-65723260D01*
X38866649Y-65723260D02*
X38799982Y-65656593D01*
X38799982Y-65656593D02*
X38766649Y-65523260D01*
X38766649Y-65523260D02*
X38766649Y-65289926D01*
X38766649Y-65289926D02*
X38799982Y-65156593D01*
X38799982Y-65156593D02*
X38866649Y-65089926D01*
X38866649Y-65089926D02*
X38933316Y-65056593D01*
X39499982Y-65123260D02*
X39533315Y-65089926D01*
X39533315Y-65089926D02*
X39599982Y-65056593D01*
X39599982Y-65056593D02*
X39766649Y-65056593D01*
X39766649Y-65056593D02*
X39833315Y-65089926D01*
X39833315Y-65089926D02*
X39866649Y-65123260D01*
X39866649Y-65123260D02*
X39899982Y-65189926D01*
X39899982Y-65189926D02*
X39899982Y-65256593D01*
X39899982Y-65256593D02*
X39866649Y-65356593D01*
X39866649Y-65356593D02*
X39466649Y-65756593D01*
X39466649Y-65756593D02*
X39899982Y-65756593D01*
X17904017Y-47309926D02*
X17837350Y-47276593D01*
X17837350Y-47276593D02*
X17737350Y-47276593D01*
X17737350Y-47276593D02*
X17637350Y-47309926D01*
X17637350Y-47309926D02*
X17570684Y-47376593D01*
X17570684Y-47376593D02*
X17537350Y-47443260D01*
X17537350Y-47443260D02*
X17504017Y-47576593D01*
X17504017Y-47576593D02*
X17504017Y-47676593D01*
X17504017Y-47676593D02*
X17537350Y-47809926D01*
X17537350Y-47809926D02*
X17570684Y-47876593D01*
X17570684Y-47876593D02*
X17637350Y-47943260D01*
X17637350Y-47943260D02*
X17737350Y-47976593D01*
X17737350Y-47976593D02*
X17804017Y-47976593D01*
X17804017Y-47976593D02*
X17904017Y-47943260D01*
X17904017Y-47943260D02*
X17937350Y-47909926D01*
X17937350Y-47909926D02*
X17937350Y-47676593D01*
X17937350Y-47676593D02*
X17804017Y-47676593D01*
X18237350Y-47976593D02*
X18237350Y-47276593D01*
X18237350Y-47276593D02*
X18504017Y-47276593D01*
X18504017Y-47276593D02*
X18570684Y-47309926D01*
X18570684Y-47309926D02*
X18604017Y-47343260D01*
X18604017Y-47343260D02*
X18637350Y-47409926D01*
X18637350Y-47409926D02*
X18637350Y-47509926D01*
X18637350Y-47509926D02*
X18604017Y-47576593D01*
X18604017Y-47576593D02*
X18570684Y-47609926D01*
X18570684Y-47609926D02*
X18504017Y-47643260D01*
X18504017Y-47643260D02*
X18237350Y-47643260D01*
X18937350Y-47976593D02*
X18937350Y-47276593D01*
X19404017Y-47276593D02*
X19537350Y-47276593D01*
X19537350Y-47276593D02*
X19604017Y-47309926D01*
X19604017Y-47309926D02*
X19670683Y-47376593D01*
X19670683Y-47376593D02*
X19704017Y-47509926D01*
X19704017Y-47509926D02*
X19704017Y-47743260D01*
X19704017Y-47743260D02*
X19670683Y-47876593D01*
X19670683Y-47876593D02*
X19604017Y-47943260D01*
X19604017Y-47943260D02*
X19537350Y-47976593D01*
X19537350Y-47976593D02*
X19404017Y-47976593D01*
X19404017Y-47976593D02*
X19337350Y-47943260D01*
X19337350Y-47943260D02*
X19270683Y-47876593D01*
X19270683Y-47876593D02*
X19237350Y-47743260D01*
X19237350Y-47743260D02*
X19237350Y-47509926D01*
X19237350Y-47509926D02*
X19270683Y-47376593D01*
X19270683Y-47376593D02*
X19337350Y-47309926D01*
X19337350Y-47309926D02*
X19404017Y-47276593D01*
X19937350Y-47276593D02*
X20370683Y-47276593D01*
X20370683Y-47276593D02*
X20137350Y-47543260D01*
X20137350Y-47543260D02*
X20237350Y-47543260D01*
X20237350Y-47543260D02*
X20304016Y-47576593D01*
X20304016Y-47576593D02*
X20337350Y-47609926D01*
X20337350Y-47609926D02*
X20370683Y-47676593D01*
X20370683Y-47676593D02*
X20370683Y-47843260D01*
X20370683Y-47843260D02*
X20337350Y-47909926D01*
X20337350Y-47909926D02*
X20304016Y-47943260D01*
X20304016Y-47943260D02*
X20237350Y-47976593D01*
X20237350Y-47976593D02*
X20037350Y-47976593D01*
X20037350Y-47976593D02*
X19970683Y-47943260D01*
X19970683Y-47943260D02*
X19937350Y-47909926D01*
X20604017Y-47276593D02*
X21037350Y-47276593D01*
X21037350Y-47276593D02*
X20804017Y-47543260D01*
X20804017Y-47543260D02*
X20904017Y-47543260D01*
X20904017Y-47543260D02*
X20970683Y-47576593D01*
X20970683Y-47576593D02*
X21004017Y-47609926D01*
X21004017Y-47609926D02*
X21037350Y-47676593D01*
X21037350Y-47676593D02*
X21037350Y-47843260D01*
X21037350Y-47843260D02*
X21004017Y-47909926D01*
X21004017Y-47909926D02*
X20970683Y-47943260D01*
X20970683Y-47943260D02*
X20904017Y-47976593D01*
X20904017Y-47976593D02*
X20704017Y-47976593D01*
X20704017Y-47976593D02*
X20637350Y-47943260D01*
X20637350Y-47943260D02*
X20604017Y-47909926D01*
X38633315Y-75687366D02*
X38599982Y-75720700D01*
X38599982Y-75720700D02*
X38499982Y-75754033D01*
X38499982Y-75754033D02*
X38433315Y-75754033D01*
X38433315Y-75754033D02*
X38333315Y-75720700D01*
X38333315Y-75720700D02*
X38266649Y-75654033D01*
X38266649Y-75654033D02*
X38233315Y-75587366D01*
X38233315Y-75587366D02*
X38199982Y-75454033D01*
X38199982Y-75454033D02*
X38199982Y-75354033D01*
X38199982Y-75354033D02*
X38233315Y-75220700D01*
X38233315Y-75220700D02*
X38266649Y-75154033D01*
X38266649Y-75154033D02*
X38333315Y-75087366D01*
X38333315Y-75087366D02*
X38433315Y-75054033D01*
X38433315Y-75054033D02*
X38499982Y-75054033D01*
X38499982Y-75054033D02*
X38599982Y-75087366D01*
X38599982Y-75087366D02*
X38633315Y-75120700D01*
X39266649Y-75754033D02*
X38933315Y-75754033D01*
X38933315Y-75754033D02*
X38933315Y-75054033D01*
X39499982Y-75754033D02*
X39499982Y-75054033D01*
X39899982Y-75754033D02*
X39599982Y-75354033D01*
X39899982Y-75054033D02*
X39499982Y-75454033D01*
X17904017Y-57469926D02*
X17837350Y-57436593D01*
X17837350Y-57436593D02*
X17737350Y-57436593D01*
X17737350Y-57436593D02*
X17637350Y-57469926D01*
X17637350Y-57469926D02*
X17570684Y-57536593D01*
X17570684Y-57536593D02*
X17537350Y-57603260D01*
X17537350Y-57603260D02*
X17504017Y-57736593D01*
X17504017Y-57736593D02*
X17504017Y-57836593D01*
X17504017Y-57836593D02*
X17537350Y-57969926D01*
X17537350Y-57969926D02*
X17570684Y-58036593D01*
X17570684Y-58036593D02*
X17637350Y-58103260D01*
X17637350Y-58103260D02*
X17737350Y-58136593D01*
X17737350Y-58136593D02*
X17804017Y-58136593D01*
X17804017Y-58136593D02*
X17904017Y-58103260D01*
X17904017Y-58103260D02*
X17937350Y-58069926D01*
X17937350Y-58069926D02*
X17937350Y-57836593D01*
X17937350Y-57836593D02*
X17804017Y-57836593D01*
X18237350Y-58136593D02*
X18237350Y-57436593D01*
X18237350Y-57436593D02*
X18504017Y-57436593D01*
X18504017Y-57436593D02*
X18570684Y-57469926D01*
X18570684Y-57469926D02*
X18604017Y-57503260D01*
X18604017Y-57503260D02*
X18637350Y-57569926D01*
X18637350Y-57569926D02*
X18637350Y-57669926D01*
X18637350Y-57669926D02*
X18604017Y-57736593D01*
X18604017Y-57736593D02*
X18570684Y-57769926D01*
X18570684Y-57769926D02*
X18504017Y-57803260D01*
X18504017Y-57803260D02*
X18237350Y-57803260D01*
X18937350Y-58136593D02*
X18937350Y-57436593D01*
X19404017Y-57436593D02*
X19537350Y-57436593D01*
X19537350Y-57436593D02*
X19604017Y-57469926D01*
X19604017Y-57469926D02*
X19670683Y-57536593D01*
X19670683Y-57536593D02*
X19704017Y-57669926D01*
X19704017Y-57669926D02*
X19704017Y-57903260D01*
X19704017Y-57903260D02*
X19670683Y-58036593D01*
X19670683Y-58036593D02*
X19604017Y-58103260D01*
X19604017Y-58103260D02*
X19537350Y-58136593D01*
X19537350Y-58136593D02*
X19404017Y-58136593D01*
X19404017Y-58136593D02*
X19337350Y-58103260D01*
X19337350Y-58103260D02*
X19270683Y-58036593D01*
X19270683Y-58036593D02*
X19237350Y-57903260D01*
X19237350Y-57903260D02*
X19237350Y-57669926D01*
X19237350Y-57669926D02*
X19270683Y-57536593D01*
X19270683Y-57536593D02*
X19337350Y-57469926D01*
X19337350Y-57469926D02*
X19404017Y-57436593D01*
X20370683Y-58136593D02*
X19970683Y-58136593D01*
X20170683Y-58136593D02*
X20170683Y-57436593D01*
X20170683Y-57436593D02*
X20104016Y-57536593D01*
X20104016Y-57536593D02*
X20037350Y-57603260D01*
X20037350Y-57603260D02*
X19970683Y-57636593D01*
X20970683Y-57669926D02*
X20970683Y-58136593D01*
X20804017Y-57403260D02*
X20637350Y-57903260D01*
X20637350Y-57903260D02*
X21070683Y-57903260D01*
X21837350Y-57403260D02*
X21237350Y-58303260D01*
X22070683Y-58136593D02*
X22070683Y-57436593D01*
X22070683Y-57436593D02*
X22304017Y-57936593D01*
X22304017Y-57936593D02*
X22537350Y-57436593D01*
X22537350Y-57436593D02*
X22537350Y-58136593D01*
X22770683Y-57436593D02*
X23170683Y-57436593D01*
X22970683Y-58136593D02*
X22970683Y-57436593D01*
X23404016Y-58136593D02*
X23404016Y-57436593D01*
X23404016Y-57436593D02*
X23637350Y-57936593D01*
X23637350Y-57936593D02*
X23870683Y-57436593D01*
X23870683Y-57436593D02*
X23870683Y-58136593D01*
X24170683Y-58103260D02*
X24270683Y-58136593D01*
X24270683Y-58136593D02*
X24437350Y-58136593D01*
X24437350Y-58136593D02*
X24504016Y-58103260D01*
X24504016Y-58103260D02*
X24537350Y-58069926D01*
X24537350Y-58069926D02*
X24570683Y-58003260D01*
X24570683Y-58003260D02*
X24570683Y-57936593D01*
X24570683Y-57936593D02*
X24537350Y-57869926D01*
X24537350Y-57869926D02*
X24504016Y-57836593D01*
X24504016Y-57836593D02*
X24437350Y-57803260D01*
X24437350Y-57803260D02*
X24304016Y-57769926D01*
X24304016Y-57769926D02*
X24237350Y-57736593D01*
X24237350Y-57736593D02*
X24204016Y-57703260D01*
X24204016Y-57703260D02*
X24170683Y-57636593D01*
X24170683Y-57636593D02*
X24170683Y-57569926D01*
X24170683Y-57569926D02*
X24204016Y-57503260D01*
X24204016Y-57503260D02*
X24237350Y-57469926D01*
X24237350Y-57469926D02*
X24304016Y-57436593D01*
X24304016Y-57436593D02*
X24470683Y-57436593D01*
X24470683Y-57436593D02*
X24570683Y-57469926D01*
X17904017Y-39689926D02*
X17837350Y-39656593D01*
X17837350Y-39656593D02*
X17737350Y-39656593D01*
X17737350Y-39656593D02*
X17637350Y-39689926D01*
X17637350Y-39689926D02*
X17570684Y-39756593D01*
X17570684Y-39756593D02*
X17537350Y-39823260D01*
X17537350Y-39823260D02*
X17504017Y-39956593D01*
X17504017Y-39956593D02*
X17504017Y-40056593D01*
X17504017Y-40056593D02*
X17537350Y-40189926D01*
X17537350Y-40189926D02*
X17570684Y-40256593D01*
X17570684Y-40256593D02*
X17637350Y-40323260D01*
X17637350Y-40323260D02*
X17737350Y-40356593D01*
X17737350Y-40356593D02*
X17804017Y-40356593D01*
X17804017Y-40356593D02*
X17904017Y-40323260D01*
X17904017Y-40323260D02*
X17937350Y-40289926D01*
X17937350Y-40289926D02*
X17937350Y-40056593D01*
X17937350Y-40056593D02*
X17804017Y-40056593D01*
X18237350Y-40356593D02*
X18237350Y-39656593D01*
X18237350Y-39656593D02*
X18504017Y-39656593D01*
X18504017Y-39656593D02*
X18570684Y-39689926D01*
X18570684Y-39689926D02*
X18604017Y-39723260D01*
X18604017Y-39723260D02*
X18637350Y-39789926D01*
X18637350Y-39789926D02*
X18637350Y-39889926D01*
X18637350Y-39889926D02*
X18604017Y-39956593D01*
X18604017Y-39956593D02*
X18570684Y-39989926D01*
X18570684Y-39989926D02*
X18504017Y-40023260D01*
X18504017Y-40023260D02*
X18237350Y-40023260D01*
X18937350Y-40356593D02*
X18937350Y-39656593D01*
X19404017Y-39656593D02*
X19537350Y-39656593D01*
X19537350Y-39656593D02*
X19604017Y-39689926D01*
X19604017Y-39689926D02*
X19670683Y-39756593D01*
X19670683Y-39756593D02*
X19704017Y-39889926D01*
X19704017Y-39889926D02*
X19704017Y-40123260D01*
X19704017Y-40123260D02*
X19670683Y-40256593D01*
X19670683Y-40256593D02*
X19604017Y-40323260D01*
X19604017Y-40323260D02*
X19537350Y-40356593D01*
X19537350Y-40356593D02*
X19404017Y-40356593D01*
X19404017Y-40356593D02*
X19337350Y-40323260D01*
X19337350Y-40323260D02*
X19270683Y-40256593D01*
X19270683Y-40256593D02*
X19237350Y-40123260D01*
X19237350Y-40123260D02*
X19237350Y-39889926D01*
X19237350Y-39889926D02*
X19270683Y-39756593D01*
X19270683Y-39756593D02*
X19337350Y-39689926D01*
X19337350Y-39689926D02*
X19404017Y-39656593D01*
X19937350Y-39656593D02*
X20370683Y-39656593D01*
X20370683Y-39656593D02*
X20137350Y-39923260D01*
X20137350Y-39923260D02*
X20237350Y-39923260D01*
X20237350Y-39923260D02*
X20304016Y-39956593D01*
X20304016Y-39956593D02*
X20337350Y-39989926D01*
X20337350Y-39989926D02*
X20370683Y-40056593D01*
X20370683Y-40056593D02*
X20370683Y-40223260D01*
X20370683Y-40223260D02*
X20337350Y-40289926D01*
X20337350Y-40289926D02*
X20304016Y-40323260D01*
X20304016Y-40323260D02*
X20237350Y-40356593D01*
X20237350Y-40356593D02*
X20037350Y-40356593D01*
X20037350Y-40356593D02*
X19970683Y-40323260D01*
X19970683Y-40323260D02*
X19937350Y-40289926D01*
X20970683Y-39889926D02*
X20970683Y-40356593D01*
X20804017Y-39623260D02*
X20637350Y-40123260D01*
X20637350Y-40123260D02*
X21070683Y-40123260D01*
X36766649Y-34609926D02*
X36699982Y-34576593D01*
X36699982Y-34576593D02*
X36599982Y-34576593D01*
X36599982Y-34576593D02*
X36499982Y-34609926D01*
X36499982Y-34609926D02*
X36433316Y-34676593D01*
X36433316Y-34676593D02*
X36399982Y-34743260D01*
X36399982Y-34743260D02*
X36366649Y-34876593D01*
X36366649Y-34876593D02*
X36366649Y-34976593D01*
X36366649Y-34976593D02*
X36399982Y-35109926D01*
X36399982Y-35109926D02*
X36433316Y-35176593D01*
X36433316Y-35176593D02*
X36499982Y-35243260D01*
X36499982Y-35243260D02*
X36599982Y-35276593D01*
X36599982Y-35276593D02*
X36666649Y-35276593D01*
X36666649Y-35276593D02*
X36766649Y-35243260D01*
X36766649Y-35243260D02*
X36799982Y-35209926D01*
X36799982Y-35209926D02*
X36799982Y-34976593D01*
X36799982Y-34976593D02*
X36666649Y-34976593D01*
X37099982Y-35276593D02*
X37099982Y-34576593D01*
X37099982Y-34576593D02*
X37366649Y-34576593D01*
X37366649Y-34576593D02*
X37433316Y-34609926D01*
X37433316Y-34609926D02*
X37466649Y-34643260D01*
X37466649Y-34643260D02*
X37499982Y-34709926D01*
X37499982Y-34709926D02*
X37499982Y-34809926D01*
X37499982Y-34809926D02*
X37466649Y-34876593D01*
X37466649Y-34876593D02*
X37433316Y-34909926D01*
X37433316Y-34909926D02*
X37366649Y-34943260D01*
X37366649Y-34943260D02*
X37099982Y-34943260D01*
X37799982Y-35276593D02*
X37799982Y-34576593D01*
X38266649Y-34576593D02*
X38399982Y-34576593D01*
X38399982Y-34576593D02*
X38466649Y-34609926D01*
X38466649Y-34609926D02*
X38533315Y-34676593D01*
X38533315Y-34676593D02*
X38566649Y-34809926D01*
X38566649Y-34809926D02*
X38566649Y-35043260D01*
X38566649Y-35043260D02*
X38533315Y-35176593D01*
X38533315Y-35176593D02*
X38466649Y-35243260D01*
X38466649Y-35243260D02*
X38399982Y-35276593D01*
X38399982Y-35276593D02*
X38266649Y-35276593D01*
X38266649Y-35276593D02*
X38199982Y-35243260D01*
X38199982Y-35243260D02*
X38133315Y-35176593D01*
X38133315Y-35176593D02*
X38099982Y-35043260D01*
X38099982Y-35043260D02*
X38099982Y-34809926D01*
X38099982Y-34809926D02*
X38133315Y-34676593D01*
X38133315Y-34676593D02*
X38199982Y-34609926D01*
X38199982Y-34609926D02*
X38266649Y-34576593D01*
X38833315Y-34643260D02*
X38866648Y-34609926D01*
X38866648Y-34609926D02*
X38933315Y-34576593D01*
X38933315Y-34576593D02*
X39099982Y-34576593D01*
X39099982Y-34576593D02*
X39166648Y-34609926D01*
X39166648Y-34609926D02*
X39199982Y-34643260D01*
X39199982Y-34643260D02*
X39233315Y-34709926D01*
X39233315Y-34709926D02*
X39233315Y-34776593D01*
X39233315Y-34776593D02*
X39199982Y-34876593D01*
X39199982Y-34876593D02*
X38799982Y-35276593D01*
X38799982Y-35276593D02*
X39233315Y-35276593D01*
X39499982Y-34643260D02*
X39533315Y-34609926D01*
X39533315Y-34609926D02*
X39599982Y-34576593D01*
X39599982Y-34576593D02*
X39766649Y-34576593D01*
X39766649Y-34576593D02*
X39833315Y-34609926D01*
X39833315Y-34609926D02*
X39866649Y-34643260D01*
X39866649Y-34643260D02*
X39899982Y-34709926D01*
X39899982Y-34709926D02*
X39899982Y-34776593D01*
X39899982Y-34776593D02*
X39866649Y-34876593D01*
X39866649Y-34876593D02*
X39466649Y-35276593D01*
X39466649Y-35276593D02*
X39899982Y-35276593D01*
X17904017Y-65089926D02*
X17837350Y-65056593D01*
X17837350Y-65056593D02*
X17737350Y-65056593D01*
X17737350Y-65056593D02*
X17637350Y-65089926D01*
X17637350Y-65089926D02*
X17570684Y-65156593D01*
X17570684Y-65156593D02*
X17537350Y-65223260D01*
X17537350Y-65223260D02*
X17504017Y-65356593D01*
X17504017Y-65356593D02*
X17504017Y-65456593D01*
X17504017Y-65456593D02*
X17537350Y-65589926D01*
X17537350Y-65589926D02*
X17570684Y-65656593D01*
X17570684Y-65656593D02*
X17637350Y-65723260D01*
X17637350Y-65723260D02*
X17737350Y-65756593D01*
X17737350Y-65756593D02*
X17804017Y-65756593D01*
X17804017Y-65756593D02*
X17904017Y-65723260D01*
X17904017Y-65723260D02*
X17937350Y-65689926D01*
X17937350Y-65689926D02*
X17937350Y-65456593D01*
X17937350Y-65456593D02*
X17804017Y-65456593D01*
X18237350Y-65756593D02*
X18237350Y-65056593D01*
X18237350Y-65056593D02*
X18504017Y-65056593D01*
X18504017Y-65056593D02*
X18570684Y-65089926D01*
X18570684Y-65089926D02*
X18604017Y-65123260D01*
X18604017Y-65123260D02*
X18637350Y-65189926D01*
X18637350Y-65189926D02*
X18637350Y-65289926D01*
X18637350Y-65289926D02*
X18604017Y-65356593D01*
X18604017Y-65356593D02*
X18570684Y-65389926D01*
X18570684Y-65389926D02*
X18504017Y-65423260D01*
X18504017Y-65423260D02*
X18237350Y-65423260D01*
X18937350Y-65756593D02*
X18937350Y-65056593D01*
X19404017Y-65056593D02*
X19537350Y-65056593D01*
X19537350Y-65056593D02*
X19604017Y-65089926D01*
X19604017Y-65089926D02*
X19670683Y-65156593D01*
X19670683Y-65156593D02*
X19704017Y-65289926D01*
X19704017Y-65289926D02*
X19704017Y-65523260D01*
X19704017Y-65523260D02*
X19670683Y-65656593D01*
X19670683Y-65656593D02*
X19604017Y-65723260D01*
X19604017Y-65723260D02*
X19537350Y-65756593D01*
X19537350Y-65756593D02*
X19404017Y-65756593D01*
X19404017Y-65756593D02*
X19337350Y-65723260D01*
X19337350Y-65723260D02*
X19270683Y-65656593D01*
X19270683Y-65656593D02*
X19237350Y-65523260D01*
X19237350Y-65523260D02*
X19237350Y-65289926D01*
X19237350Y-65289926D02*
X19270683Y-65156593D01*
X19270683Y-65156593D02*
X19337350Y-65089926D01*
X19337350Y-65089926D02*
X19404017Y-65056593D01*
X20370683Y-65756593D02*
X19970683Y-65756593D01*
X20170683Y-65756593D02*
X20170683Y-65056593D01*
X20170683Y-65056593D02*
X20104016Y-65156593D01*
X20104016Y-65156593D02*
X20037350Y-65223260D01*
X20037350Y-65223260D02*
X19970683Y-65256593D01*
X20604017Y-65056593D02*
X21037350Y-65056593D01*
X21037350Y-65056593D02*
X20804017Y-65323260D01*
X20804017Y-65323260D02*
X20904017Y-65323260D01*
X20904017Y-65323260D02*
X20970683Y-65356593D01*
X20970683Y-65356593D02*
X21004017Y-65389926D01*
X21004017Y-65389926D02*
X21037350Y-65456593D01*
X21037350Y-65456593D02*
X21037350Y-65623260D01*
X21037350Y-65623260D02*
X21004017Y-65689926D01*
X21004017Y-65689926D02*
X20970683Y-65723260D01*
X20970683Y-65723260D02*
X20904017Y-65756593D01*
X20904017Y-65756593D02*
X20704017Y-65756593D01*
X20704017Y-65756593D02*
X20637350Y-65723260D01*
X20637350Y-65723260D02*
X20604017Y-65689926D01*
X21837350Y-65023260D02*
X21237350Y-65923260D01*
X22070683Y-65756593D02*
X22070683Y-65056593D01*
X22070683Y-65056593D02*
X22304017Y-65556593D01*
X22304017Y-65556593D02*
X22537350Y-65056593D01*
X22537350Y-65056593D02*
X22537350Y-65756593D01*
X22770683Y-65056593D02*
X23170683Y-65056593D01*
X22970683Y-65756593D02*
X22970683Y-65056593D01*
X23804016Y-65689926D02*
X23770683Y-65723260D01*
X23770683Y-65723260D02*
X23670683Y-65756593D01*
X23670683Y-65756593D02*
X23604016Y-65756593D01*
X23604016Y-65756593D02*
X23504016Y-65723260D01*
X23504016Y-65723260D02*
X23437350Y-65656593D01*
X23437350Y-65656593D02*
X23404016Y-65589926D01*
X23404016Y-65589926D02*
X23370683Y-65456593D01*
X23370683Y-65456593D02*
X23370683Y-65356593D01*
X23370683Y-65356593D02*
X23404016Y-65223260D01*
X23404016Y-65223260D02*
X23437350Y-65156593D01*
X23437350Y-65156593D02*
X23504016Y-65089926D01*
X23504016Y-65089926D02*
X23604016Y-65056593D01*
X23604016Y-65056593D02*
X23670683Y-65056593D01*
X23670683Y-65056593D02*
X23770683Y-65089926D01*
X23770683Y-65089926D02*
X23804016Y-65123260D01*
X24104016Y-65756593D02*
X24104016Y-65056593D01*
X24504016Y-65756593D02*
X24204016Y-65356593D01*
X24504016Y-65056593D02*
X24104016Y-65456593D01*
X36766649Y-54929926D02*
X36699982Y-54896593D01*
X36699982Y-54896593D02*
X36599982Y-54896593D01*
X36599982Y-54896593D02*
X36499982Y-54929926D01*
X36499982Y-54929926D02*
X36433316Y-54996593D01*
X36433316Y-54996593D02*
X36399982Y-55063260D01*
X36399982Y-55063260D02*
X36366649Y-55196593D01*
X36366649Y-55196593D02*
X36366649Y-55296593D01*
X36366649Y-55296593D02*
X36399982Y-55429926D01*
X36399982Y-55429926D02*
X36433316Y-55496593D01*
X36433316Y-55496593D02*
X36499982Y-55563260D01*
X36499982Y-55563260D02*
X36599982Y-55596593D01*
X36599982Y-55596593D02*
X36666649Y-55596593D01*
X36666649Y-55596593D02*
X36766649Y-55563260D01*
X36766649Y-55563260D02*
X36799982Y-55529926D01*
X36799982Y-55529926D02*
X36799982Y-55296593D01*
X36799982Y-55296593D02*
X36666649Y-55296593D01*
X37099982Y-55596593D02*
X37099982Y-54896593D01*
X37099982Y-54896593D02*
X37366649Y-54896593D01*
X37366649Y-54896593D02*
X37433316Y-54929926D01*
X37433316Y-54929926D02*
X37466649Y-54963260D01*
X37466649Y-54963260D02*
X37499982Y-55029926D01*
X37499982Y-55029926D02*
X37499982Y-55129926D01*
X37499982Y-55129926D02*
X37466649Y-55196593D01*
X37466649Y-55196593D02*
X37433316Y-55229926D01*
X37433316Y-55229926D02*
X37366649Y-55263260D01*
X37366649Y-55263260D02*
X37099982Y-55263260D01*
X37799982Y-55596593D02*
X37799982Y-54896593D01*
X38266649Y-54896593D02*
X38399982Y-54896593D01*
X38399982Y-54896593D02*
X38466649Y-54929926D01*
X38466649Y-54929926D02*
X38533315Y-54996593D01*
X38533315Y-54996593D02*
X38566649Y-55129926D01*
X38566649Y-55129926D02*
X38566649Y-55363260D01*
X38566649Y-55363260D02*
X38533315Y-55496593D01*
X38533315Y-55496593D02*
X38466649Y-55563260D01*
X38466649Y-55563260D02*
X38399982Y-55596593D01*
X38399982Y-55596593D02*
X38266649Y-55596593D01*
X38266649Y-55596593D02*
X38199982Y-55563260D01*
X38199982Y-55563260D02*
X38133315Y-55496593D01*
X38133315Y-55496593D02*
X38099982Y-55363260D01*
X38099982Y-55363260D02*
X38099982Y-55129926D01*
X38099982Y-55129926D02*
X38133315Y-54996593D01*
X38133315Y-54996593D02*
X38199982Y-54929926D01*
X38199982Y-54929926D02*
X38266649Y-54896593D01*
X39233315Y-55596593D02*
X38833315Y-55596593D01*
X39033315Y-55596593D02*
X39033315Y-54896593D01*
X39033315Y-54896593D02*
X38966648Y-54996593D01*
X38966648Y-54996593D02*
X38899982Y-55063260D01*
X38899982Y-55063260D02*
X38833315Y-55096593D01*
X39466649Y-54896593D02*
X39933315Y-54896593D01*
X39933315Y-54896593D02*
X39633315Y-55596593D01*
X18045350Y-70836593D02*
X18045350Y-70136593D01*
X18045350Y-70136593D02*
X18212017Y-70136593D01*
X18212017Y-70136593D02*
X18312017Y-70169926D01*
X18312017Y-70169926D02*
X18378684Y-70236593D01*
X18378684Y-70236593D02*
X18412017Y-70303260D01*
X18412017Y-70303260D02*
X18445350Y-70436593D01*
X18445350Y-70436593D02*
X18445350Y-70536593D01*
X18445350Y-70536593D02*
X18412017Y-70669926D01*
X18412017Y-70669926D02*
X18378684Y-70736593D01*
X18378684Y-70736593D02*
X18312017Y-70803260D01*
X18312017Y-70803260D02*
X18212017Y-70836593D01*
X18212017Y-70836593D02*
X18045350Y-70836593D01*
X18678684Y-70136593D02*
X19112017Y-70136593D01*
X19112017Y-70136593D02*
X18878684Y-70403260D01*
X18878684Y-70403260D02*
X18978684Y-70403260D01*
X18978684Y-70403260D02*
X19045350Y-70436593D01*
X19045350Y-70436593D02*
X19078684Y-70469926D01*
X19078684Y-70469926D02*
X19112017Y-70536593D01*
X19112017Y-70536593D02*
X19112017Y-70703260D01*
X19112017Y-70703260D02*
X19078684Y-70769926D01*
X19078684Y-70769926D02*
X19045350Y-70803260D01*
X19045350Y-70803260D02*
X18978684Y-70836593D01*
X18978684Y-70836593D02*
X18778684Y-70836593D01*
X18778684Y-70836593D02*
X18712017Y-70803260D01*
X18712017Y-70803260D02*
X18678684Y-70769926D01*
X37747601Y-44622998D02*
X37652363Y-44575379D01*
X37652363Y-44575379D02*
X37509506Y-44575379D01*
X37509506Y-44575379D02*
X37366649Y-44622998D01*
X37366649Y-44622998D02*
X37271411Y-44718236D01*
X37271411Y-44718236D02*
X37223792Y-44813474D01*
X37223792Y-44813474D02*
X37176173Y-45003950D01*
X37176173Y-45003950D02*
X37176173Y-45146807D01*
X37176173Y-45146807D02*
X37223792Y-45337283D01*
X37223792Y-45337283D02*
X37271411Y-45432521D01*
X37271411Y-45432521D02*
X37366649Y-45527760D01*
X37366649Y-45527760D02*
X37509506Y-45575379D01*
X37509506Y-45575379D02*
X37604744Y-45575379D01*
X37604744Y-45575379D02*
X37747601Y-45527760D01*
X37747601Y-45527760D02*
X37795220Y-45480140D01*
X37795220Y-45480140D02*
X37795220Y-45146807D01*
X37795220Y-45146807D02*
X37604744Y-45146807D01*
X38223792Y-45575379D02*
X38223792Y-44575379D01*
X38223792Y-44575379D02*
X38795220Y-45575379D01*
X38795220Y-45575379D02*
X38795220Y-44575379D01*
X39271411Y-45575379D02*
X39271411Y-44575379D01*
X39271411Y-44575379D02*
X39509506Y-44575379D01*
X39509506Y-44575379D02*
X39652363Y-44622998D01*
X39652363Y-44622998D02*
X39747601Y-44718236D01*
X39747601Y-44718236D02*
X39795220Y-44813474D01*
X39795220Y-44813474D02*
X39842839Y-45003950D01*
X39842839Y-45003950D02*
X39842839Y-45146807D01*
X39842839Y-45146807D02*
X39795220Y-45337283D01*
X39795220Y-45337283D02*
X39747601Y-45432521D01*
X39747601Y-45432521D02*
X39652363Y-45527760D01*
X39652363Y-45527760D02*
X39509506Y-45575379D01*
X39509506Y-45575379D02*
X39271411Y-45575379D01*
X33399983Y-37149926D02*
X33333316Y-37116593D01*
X33333316Y-37116593D02*
X33233316Y-37116593D01*
X33233316Y-37116593D02*
X33133316Y-37149926D01*
X33133316Y-37149926D02*
X33066650Y-37216593D01*
X33066650Y-37216593D02*
X33033316Y-37283260D01*
X33033316Y-37283260D02*
X32999983Y-37416593D01*
X32999983Y-37416593D02*
X32999983Y-37516593D01*
X32999983Y-37516593D02*
X33033316Y-37649926D01*
X33033316Y-37649926D02*
X33066650Y-37716593D01*
X33066650Y-37716593D02*
X33133316Y-37783260D01*
X33133316Y-37783260D02*
X33233316Y-37816593D01*
X33233316Y-37816593D02*
X33299983Y-37816593D01*
X33299983Y-37816593D02*
X33399983Y-37783260D01*
X33399983Y-37783260D02*
X33433316Y-37749926D01*
X33433316Y-37749926D02*
X33433316Y-37516593D01*
X33433316Y-37516593D02*
X33299983Y-37516593D01*
X33733316Y-37816593D02*
X33733316Y-37116593D01*
X33733316Y-37116593D02*
X33999983Y-37116593D01*
X33999983Y-37116593D02*
X34066650Y-37149926D01*
X34066650Y-37149926D02*
X34099983Y-37183260D01*
X34099983Y-37183260D02*
X34133316Y-37249926D01*
X34133316Y-37249926D02*
X34133316Y-37349926D01*
X34133316Y-37349926D02*
X34099983Y-37416593D01*
X34099983Y-37416593D02*
X34066650Y-37449926D01*
X34066650Y-37449926D02*
X33999983Y-37483260D01*
X33999983Y-37483260D02*
X33733316Y-37483260D01*
X34433316Y-37816593D02*
X34433316Y-37116593D01*
X34899983Y-37116593D02*
X35033316Y-37116593D01*
X35033316Y-37116593D02*
X35099983Y-37149926D01*
X35099983Y-37149926D02*
X35166649Y-37216593D01*
X35166649Y-37216593D02*
X35199983Y-37349926D01*
X35199983Y-37349926D02*
X35199983Y-37583260D01*
X35199983Y-37583260D02*
X35166649Y-37716593D01*
X35166649Y-37716593D02*
X35099983Y-37783260D01*
X35099983Y-37783260D02*
X35033316Y-37816593D01*
X35033316Y-37816593D02*
X34899983Y-37816593D01*
X34899983Y-37816593D02*
X34833316Y-37783260D01*
X34833316Y-37783260D02*
X34766649Y-37716593D01*
X34766649Y-37716593D02*
X34733316Y-37583260D01*
X34733316Y-37583260D02*
X34733316Y-37349926D01*
X34733316Y-37349926D02*
X34766649Y-37216593D01*
X34766649Y-37216593D02*
X34833316Y-37149926D01*
X34833316Y-37149926D02*
X34899983Y-37116593D01*
X35866649Y-37816593D02*
X35466649Y-37816593D01*
X35666649Y-37816593D02*
X35666649Y-37116593D01*
X35666649Y-37116593D02*
X35599982Y-37216593D01*
X35599982Y-37216593D02*
X35533316Y-37283260D01*
X35533316Y-37283260D02*
X35466649Y-37316593D01*
X36666649Y-37083260D02*
X36066649Y-37983260D01*
X36899982Y-37116593D02*
X36899982Y-37683260D01*
X36899982Y-37683260D02*
X36933316Y-37749926D01*
X36933316Y-37749926D02*
X36966649Y-37783260D01*
X36966649Y-37783260D02*
X37033316Y-37816593D01*
X37033316Y-37816593D02*
X37166649Y-37816593D01*
X37166649Y-37816593D02*
X37233316Y-37783260D01*
X37233316Y-37783260D02*
X37266649Y-37749926D01*
X37266649Y-37749926D02*
X37299982Y-37683260D01*
X37299982Y-37683260D02*
X37299982Y-37116593D01*
X37766649Y-37116593D02*
X37833315Y-37116593D01*
X37833315Y-37116593D02*
X37899982Y-37149926D01*
X37899982Y-37149926D02*
X37933315Y-37183260D01*
X37933315Y-37183260D02*
X37966649Y-37249926D01*
X37966649Y-37249926D02*
X37999982Y-37383260D01*
X37999982Y-37383260D02*
X37999982Y-37549926D01*
X37999982Y-37549926D02*
X37966649Y-37683260D01*
X37966649Y-37683260D02*
X37933315Y-37749926D01*
X37933315Y-37749926D02*
X37899982Y-37783260D01*
X37899982Y-37783260D02*
X37833315Y-37816593D01*
X37833315Y-37816593D02*
X37766649Y-37816593D01*
X37766649Y-37816593D02*
X37699982Y-37783260D01*
X37699982Y-37783260D02*
X37666649Y-37749926D01*
X37666649Y-37749926D02*
X37633315Y-37683260D01*
X37633315Y-37683260D02*
X37599982Y-37549926D01*
X37599982Y-37549926D02*
X37599982Y-37383260D01*
X37599982Y-37383260D02*
X37633315Y-37249926D01*
X37633315Y-37249926D02*
X37666649Y-37183260D01*
X37666649Y-37183260D02*
X37699982Y-37149926D01*
X37699982Y-37149926D02*
X37766649Y-37116593D01*
X38199982Y-37116593D02*
X38599982Y-37116593D01*
X38399982Y-37816593D02*
X38399982Y-37116593D01*
X38766649Y-37116593D02*
X39233315Y-37816593D01*
X39233315Y-37116593D02*
X38766649Y-37816593D01*
X39499982Y-37816593D02*
X39499982Y-37116593D01*
X39499982Y-37116593D02*
X39666649Y-37116593D01*
X39666649Y-37116593D02*
X39766649Y-37149926D01*
X39766649Y-37149926D02*
X39833316Y-37216593D01*
X39833316Y-37216593D02*
X39866649Y-37283260D01*
X39866649Y-37283260D02*
X39899982Y-37416593D01*
X39899982Y-37416593D02*
X39899982Y-37516593D01*
X39899982Y-37516593D02*
X39866649Y-37649926D01*
X39866649Y-37649926D02*
X39833316Y-37716593D01*
X39833316Y-37716593D02*
X39766649Y-37783260D01*
X39766649Y-37783260D02*
X39666649Y-37816593D01*
X39666649Y-37816593D02*
X39499982Y-37816593D01*
X36766649Y-42229926D02*
X36699982Y-42196593D01*
X36699982Y-42196593D02*
X36599982Y-42196593D01*
X36599982Y-42196593D02*
X36499982Y-42229926D01*
X36499982Y-42229926D02*
X36433316Y-42296593D01*
X36433316Y-42296593D02*
X36399982Y-42363260D01*
X36399982Y-42363260D02*
X36366649Y-42496593D01*
X36366649Y-42496593D02*
X36366649Y-42596593D01*
X36366649Y-42596593D02*
X36399982Y-42729926D01*
X36399982Y-42729926D02*
X36433316Y-42796593D01*
X36433316Y-42796593D02*
X36499982Y-42863260D01*
X36499982Y-42863260D02*
X36599982Y-42896593D01*
X36599982Y-42896593D02*
X36666649Y-42896593D01*
X36666649Y-42896593D02*
X36766649Y-42863260D01*
X36766649Y-42863260D02*
X36799982Y-42829926D01*
X36799982Y-42829926D02*
X36799982Y-42596593D01*
X36799982Y-42596593D02*
X36666649Y-42596593D01*
X37099982Y-42896593D02*
X37099982Y-42196593D01*
X37099982Y-42196593D02*
X37366649Y-42196593D01*
X37366649Y-42196593D02*
X37433316Y-42229926D01*
X37433316Y-42229926D02*
X37466649Y-42263260D01*
X37466649Y-42263260D02*
X37499982Y-42329926D01*
X37499982Y-42329926D02*
X37499982Y-42429926D01*
X37499982Y-42429926D02*
X37466649Y-42496593D01*
X37466649Y-42496593D02*
X37433316Y-42529926D01*
X37433316Y-42529926D02*
X37366649Y-42563260D01*
X37366649Y-42563260D02*
X37099982Y-42563260D01*
X37799982Y-42896593D02*
X37799982Y-42196593D01*
X38266649Y-42196593D02*
X38399982Y-42196593D01*
X38399982Y-42196593D02*
X38466649Y-42229926D01*
X38466649Y-42229926D02*
X38533315Y-42296593D01*
X38533315Y-42296593D02*
X38566649Y-42429926D01*
X38566649Y-42429926D02*
X38566649Y-42663260D01*
X38566649Y-42663260D02*
X38533315Y-42796593D01*
X38533315Y-42796593D02*
X38466649Y-42863260D01*
X38466649Y-42863260D02*
X38399982Y-42896593D01*
X38399982Y-42896593D02*
X38266649Y-42896593D01*
X38266649Y-42896593D02*
X38199982Y-42863260D01*
X38199982Y-42863260D02*
X38133315Y-42796593D01*
X38133315Y-42796593D02*
X38099982Y-42663260D01*
X38099982Y-42663260D02*
X38099982Y-42429926D01*
X38099982Y-42429926D02*
X38133315Y-42296593D01*
X38133315Y-42296593D02*
X38199982Y-42229926D01*
X38199982Y-42229926D02*
X38266649Y-42196593D01*
X38833315Y-42263260D02*
X38866648Y-42229926D01*
X38866648Y-42229926D02*
X38933315Y-42196593D01*
X38933315Y-42196593D02*
X39099982Y-42196593D01*
X39099982Y-42196593D02*
X39166648Y-42229926D01*
X39166648Y-42229926D02*
X39199982Y-42263260D01*
X39199982Y-42263260D02*
X39233315Y-42329926D01*
X39233315Y-42329926D02*
X39233315Y-42396593D01*
X39233315Y-42396593D02*
X39199982Y-42496593D01*
X39199982Y-42496593D02*
X38799982Y-42896593D01*
X38799982Y-42896593D02*
X39233315Y-42896593D01*
X39899982Y-42896593D02*
X39499982Y-42896593D01*
X39699982Y-42896593D02*
X39699982Y-42196593D01*
X39699982Y-42196593D02*
X39633315Y-42296593D01*
X39633315Y-42296593D02*
X39566649Y-42363260D01*
X39566649Y-42363260D02*
X39499982Y-42396593D01*
X37747601Y-29382998D02*
X37652363Y-29335379D01*
X37652363Y-29335379D02*
X37509506Y-29335379D01*
X37509506Y-29335379D02*
X37366649Y-29382998D01*
X37366649Y-29382998D02*
X37271411Y-29478236D01*
X37271411Y-29478236D02*
X37223792Y-29573474D01*
X37223792Y-29573474D02*
X37176173Y-29763950D01*
X37176173Y-29763950D02*
X37176173Y-29906807D01*
X37176173Y-29906807D02*
X37223792Y-30097283D01*
X37223792Y-30097283D02*
X37271411Y-30192521D01*
X37271411Y-30192521D02*
X37366649Y-30287760D01*
X37366649Y-30287760D02*
X37509506Y-30335379D01*
X37509506Y-30335379D02*
X37604744Y-30335379D01*
X37604744Y-30335379D02*
X37747601Y-30287760D01*
X37747601Y-30287760D02*
X37795220Y-30240140D01*
X37795220Y-30240140D02*
X37795220Y-29906807D01*
X37795220Y-29906807D02*
X37604744Y-29906807D01*
X38223792Y-30335379D02*
X38223792Y-29335379D01*
X38223792Y-29335379D02*
X38795220Y-30335379D01*
X38795220Y-30335379D02*
X38795220Y-29335379D01*
X39271411Y-30335379D02*
X39271411Y-29335379D01*
X39271411Y-29335379D02*
X39509506Y-29335379D01*
X39509506Y-29335379D02*
X39652363Y-29382998D01*
X39652363Y-29382998D02*
X39747601Y-29478236D01*
X39747601Y-29478236D02*
X39795220Y-29573474D01*
X39795220Y-29573474D02*
X39842839Y-29763950D01*
X39842839Y-29763950D02*
X39842839Y-29906807D01*
X39842839Y-29906807D02*
X39795220Y-30097283D01*
X39795220Y-30097283D02*
X39747601Y-30192521D01*
X39747601Y-30192521D02*
X39652363Y-30287760D01*
X39652363Y-30287760D02*
X39509506Y-30335379D01*
X39509506Y-30335379D02*
X39271411Y-30335379D01*
X18132588Y-62402998D02*
X18037350Y-62355379D01*
X18037350Y-62355379D02*
X17894493Y-62355379D01*
X17894493Y-62355379D02*
X17751636Y-62402998D01*
X17751636Y-62402998D02*
X17656398Y-62498236D01*
X17656398Y-62498236D02*
X17608779Y-62593474D01*
X17608779Y-62593474D02*
X17561160Y-62783950D01*
X17561160Y-62783950D02*
X17561160Y-62926807D01*
X17561160Y-62926807D02*
X17608779Y-63117283D01*
X17608779Y-63117283D02*
X17656398Y-63212521D01*
X17656398Y-63212521D02*
X17751636Y-63307760D01*
X17751636Y-63307760D02*
X17894493Y-63355379D01*
X17894493Y-63355379D02*
X17989731Y-63355379D01*
X17989731Y-63355379D02*
X18132588Y-63307760D01*
X18132588Y-63307760D02*
X18180207Y-63260140D01*
X18180207Y-63260140D02*
X18180207Y-62926807D01*
X18180207Y-62926807D02*
X17989731Y-62926807D01*
X18608779Y-63355379D02*
X18608779Y-62355379D01*
X18608779Y-62355379D02*
X19180207Y-63355379D01*
X19180207Y-63355379D02*
X19180207Y-62355379D01*
X19656398Y-63355379D02*
X19656398Y-62355379D01*
X19656398Y-62355379D02*
X19894493Y-62355379D01*
X19894493Y-62355379D02*
X20037350Y-62402998D01*
X20037350Y-62402998D02*
X20132588Y-62498236D01*
X20132588Y-62498236D02*
X20180207Y-62593474D01*
X20180207Y-62593474D02*
X20227826Y-62783950D01*
X20227826Y-62783950D02*
X20227826Y-62926807D01*
X20227826Y-62926807D02*
X20180207Y-63117283D01*
X20180207Y-63117283D02*
X20132588Y-63212521D01*
X20132588Y-63212521D02*
X20037350Y-63307760D01*
X20037350Y-63307760D02*
X19894493Y-63355379D01*
X19894493Y-63355379D02*
X19656398Y-63355379D01*
X17437350Y-34576593D02*
X17670684Y-35276593D01*
X17670684Y-35276593D02*
X17904017Y-34576593D01*
X18137350Y-35276593D02*
X18137350Y-34576593D01*
X18137350Y-34576593D02*
X18404017Y-34576593D01*
X18404017Y-34576593D02*
X18470684Y-34609926D01*
X18470684Y-34609926D02*
X18504017Y-34643260D01*
X18504017Y-34643260D02*
X18537350Y-34709926D01*
X18537350Y-34709926D02*
X18537350Y-34809926D01*
X18537350Y-34809926D02*
X18504017Y-34876593D01*
X18504017Y-34876593D02*
X18470684Y-34909926D01*
X18470684Y-34909926D02*
X18404017Y-34943260D01*
X18404017Y-34943260D02*
X18137350Y-34943260D01*
X19337350Y-34543260D02*
X18737350Y-35443260D01*
X19937350Y-34609926D02*
X19870683Y-34576593D01*
X19870683Y-34576593D02*
X19770683Y-34576593D01*
X19770683Y-34576593D02*
X19670683Y-34609926D01*
X19670683Y-34609926D02*
X19604017Y-34676593D01*
X19604017Y-34676593D02*
X19570683Y-34743260D01*
X19570683Y-34743260D02*
X19537350Y-34876593D01*
X19537350Y-34876593D02*
X19537350Y-34976593D01*
X19537350Y-34976593D02*
X19570683Y-35109926D01*
X19570683Y-35109926D02*
X19604017Y-35176593D01*
X19604017Y-35176593D02*
X19670683Y-35243260D01*
X19670683Y-35243260D02*
X19770683Y-35276593D01*
X19770683Y-35276593D02*
X19837350Y-35276593D01*
X19837350Y-35276593D02*
X19937350Y-35243260D01*
X19937350Y-35243260D02*
X19970683Y-35209926D01*
X19970683Y-35209926D02*
X19970683Y-34976593D01*
X19970683Y-34976593D02*
X19837350Y-34976593D01*
X20270683Y-35276593D02*
X20270683Y-34576593D01*
X20270683Y-34576593D02*
X20537350Y-34576593D01*
X20537350Y-34576593D02*
X20604017Y-34609926D01*
X20604017Y-34609926D02*
X20637350Y-34643260D01*
X20637350Y-34643260D02*
X20670683Y-34709926D01*
X20670683Y-34709926D02*
X20670683Y-34809926D01*
X20670683Y-34809926D02*
X20637350Y-34876593D01*
X20637350Y-34876593D02*
X20604017Y-34909926D01*
X20604017Y-34909926D02*
X20537350Y-34943260D01*
X20537350Y-34943260D02*
X20270683Y-34943260D01*
X20970683Y-35276593D02*
X20970683Y-34576593D01*
X21437350Y-34576593D02*
X21570683Y-34576593D01*
X21570683Y-34576593D02*
X21637350Y-34609926D01*
X21637350Y-34609926D02*
X21704016Y-34676593D01*
X21704016Y-34676593D02*
X21737350Y-34809926D01*
X21737350Y-34809926D02*
X21737350Y-35043260D01*
X21737350Y-35043260D02*
X21704016Y-35176593D01*
X21704016Y-35176593D02*
X21637350Y-35243260D01*
X21637350Y-35243260D02*
X21570683Y-35276593D01*
X21570683Y-35276593D02*
X21437350Y-35276593D01*
X21437350Y-35276593D02*
X21370683Y-35243260D01*
X21370683Y-35243260D02*
X21304016Y-35176593D01*
X21304016Y-35176593D02*
X21270683Y-35043260D01*
X21270683Y-35043260D02*
X21270683Y-34809926D01*
X21270683Y-34809926D02*
X21304016Y-34676593D01*
X21304016Y-34676593D02*
X21370683Y-34609926D01*
X21370683Y-34609926D02*
X21437350Y-34576593D01*
X21970683Y-34576593D02*
X22404016Y-34576593D01*
X22404016Y-34576593D02*
X22170683Y-34843260D01*
X22170683Y-34843260D02*
X22270683Y-34843260D01*
X22270683Y-34843260D02*
X22337349Y-34876593D01*
X22337349Y-34876593D02*
X22370683Y-34909926D01*
X22370683Y-34909926D02*
X22404016Y-34976593D01*
X22404016Y-34976593D02*
X22404016Y-35143260D01*
X22404016Y-35143260D02*
X22370683Y-35209926D01*
X22370683Y-35209926D02*
X22337349Y-35243260D01*
X22337349Y-35243260D02*
X22270683Y-35276593D01*
X22270683Y-35276593D02*
X22070683Y-35276593D01*
X22070683Y-35276593D02*
X22004016Y-35243260D01*
X22004016Y-35243260D02*
X21970683Y-35209926D01*
X23004016Y-34576593D02*
X22870683Y-34576593D01*
X22870683Y-34576593D02*
X22804016Y-34609926D01*
X22804016Y-34609926D02*
X22770683Y-34643260D01*
X22770683Y-34643260D02*
X22704016Y-34743260D01*
X22704016Y-34743260D02*
X22670683Y-34876593D01*
X22670683Y-34876593D02*
X22670683Y-35143260D01*
X22670683Y-35143260D02*
X22704016Y-35209926D01*
X22704016Y-35209926D02*
X22737350Y-35243260D01*
X22737350Y-35243260D02*
X22804016Y-35276593D01*
X22804016Y-35276593D02*
X22937350Y-35276593D01*
X22937350Y-35276593D02*
X23004016Y-35243260D01*
X23004016Y-35243260D02*
X23037350Y-35209926D01*
X23037350Y-35209926D02*
X23070683Y-35143260D01*
X23070683Y-35143260D02*
X23070683Y-34976593D01*
X23070683Y-34976593D02*
X23037350Y-34909926D01*
X23037350Y-34909926D02*
X23004016Y-34876593D01*
X23004016Y-34876593D02*
X22937350Y-34843260D01*
X22937350Y-34843260D02*
X22804016Y-34843260D01*
X22804016Y-34843260D02*
X22737350Y-34876593D01*
X22737350Y-34876593D02*
X22704016Y-34909926D01*
X22704016Y-34909926D02*
X22670683Y-34976593D01*
X38833315Y-73468033D02*
X38833315Y-72768033D01*
X38833315Y-72768033D02*
X38999982Y-72768033D01*
X38999982Y-72768033D02*
X39099982Y-72801366D01*
X39099982Y-72801366D02*
X39166649Y-72868033D01*
X39166649Y-72868033D02*
X39199982Y-72934700D01*
X39199982Y-72934700D02*
X39233315Y-73068033D01*
X39233315Y-73068033D02*
X39233315Y-73168033D01*
X39233315Y-73168033D02*
X39199982Y-73301366D01*
X39199982Y-73301366D02*
X39166649Y-73368033D01*
X39166649Y-73368033D02*
X39099982Y-73434700D01*
X39099982Y-73434700D02*
X38999982Y-73468033D01*
X38999982Y-73468033D02*
X38833315Y-73468033D01*
X39666649Y-72768033D02*
X39733315Y-72768033D01*
X39733315Y-72768033D02*
X39799982Y-72801366D01*
X39799982Y-72801366D02*
X39833315Y-72834700D01*
X39833315Y-72834700D02*
X39866649Y-72901366D01*
X39866649Y-72901366D02*
X39899982Y-73034700D01*
X39899982Y-73034700D02*
X39899982Y-73201366D01*
X39899982Y-73201366D02*
X39866649Y-73334700D01*
X39866649Y-73334700D02*
X39833315Y-73401366D01*
X39833315Y-73401366D02*
X39799982Y-73434700D01*
X39799982Y-73434700D02*
X39733315Y-73468033D01*
X39733315Y-73468033D02*
X39666649Y-73468033D01*
X39666649Y-73468033D02*
X39599982Y-73434700D01*
X39599982Y-73434700D02*
X39566649Y-73401366D01*
X39566649Y-73401366D02*
X39533315Y-73334700D01*
X39533315Y-73334700D02*
X39499982Y-73201366D01*
X39499982Y-73201366D02*
X39499982Y-73034700D01*
X39499982Y-73034700D02*
X39533315Y-72901366D01*
X39533315Y-72901366D02*
X39566649Y-72834700D01*
X39566649Y-72834700D02*
X39599982Y-72801366D01*
X39599982Y-72801366D02*
X39666649Y-72768033D01*
X17513541Y-29335379D02*
X18132588Y-29335379D01*
X18132588Y-29335379D02*
X17799255Y-29716331D01*
X17799255Y-29716331D02*
X17942112Y-29716331D01*
X17942112Y-29716331D02*
X18037350Y-29763950D01*
X18037350Y-29763950D02*
X18084969Y-29811569D01*
X18084969Y-29811569D02*
X18132588Y-29906807D01*
X18132588Y-29906807D02*
X18132588Y-30144902D01*
X18132588Y-30144902D02*
X18084969Y-30240140D01*
X18084969Y-30240140D02*
X18037350Y-30287760D01*
X18037350Y-30287760D02*
X17942112Y-30335379D01*
X17942112Y-30335379D02*
X17656398Y-30335379D01*
X17656398Y-30335379D02*
X17561160Y-30287760D01*
X17561160Y-30287760D02*
X17513541Y-30240140D01*
X18418303Y-29335379D02*
X18751636Y-30335379D01*
X18751636Y-30335379D02*
X19084969Y-29335379D01*
X19323065Y-29335379D02*
X19942112Y-29335379D01*
X19942112Y-29335379D02*
X19608779Y-29716331D01*
X19608779Y-29716331D02*
X19751636Y-29716331D01*
X19751636Y-29716331D02*
X19846874Y-29763950D01*
X19846874Y-29763950D02*
X19894493Y-29811569D01*
X19894493Y-29811569D02*
X19942112Y-29906807D01*
X19942112Y-29906807D02*
X19942112Y-30144902D01*
X19942112Y-30144902D02*
X19894493Y-30240140D01*
X19894493Y-30240140D02*
X19846874Y-30287760D01*
X19846874Y-30287760D02*
X19751636Y-30335379D01*
X19751636Y-30335379D02*
X19465922Y-30335379D01*
X19465922Y-30335379D02*
X19370684Y-30287760D01*
X19370684Y-30287760D02*
X19323065Y-30240140D01*
X17904017Y-52389926D02*
X17837350Y-52356593D01*
X17837350Y-52356593D02*
X17737350Y-52356593D01*
X17737350Y-52356593D02*
X17637350Y-52389926D01*
X17637350Y-52389926D02*
X17570684Y-52456593D01*
X17570684Y-52456593D02*
X17537350Y-52523260D01*
X17537350Y-52523260D02*
X17504017Y-52656593D01*
X17504017Y-52656593D02*
X17504017Y-52756593D01*
X17504017Y-52756593D02*
X17537350Y-52889926D01*
X17537350Y-52889926D02*
X17570684Y-52956593D01*
X17570684Y-52956593D02*
X17637350Y-53023260D01*
X17637350Y-53023260D02*
X17737350Y-53056593D01*
X17737350Y-53056593D02*
X17804017Y-53056593D01*
X17804017Y-53056593D02*
X17904017Y-53023260D01*
X17904017Y-53023260D02*
X17937350Y-52989926D01*
X17937350Y-52989926D02*
X17937350Y-52756593D01*
X17937350Y-52756593D02*
X17804017Y-52756593D01*
X18237350Y-53056593D02*
X18237350Y-52356593D01*
X18237350Y-52356593D02*
X18504017Y-52356593D01*
X18504017Y-52356593D02*
X18570684Y-52389926D01*
X18570684Y-52389926D02*
X18604017Y-52423260D01*
X18604017Y-52423260D02*
X18637350Y-52489926D01*
X18637350Y-52489926D02*
X18637350Y-52589926D01*
X18637350Y-52589926D02*
X18604017Y-52656593D01*
X18604017Y-52656593D02*
X18570684Y-52689926D01*
X18570684Y-52689926D02*
X18504017Y-52723260D01*
X18504017Y-52723260D02*
X18237350Y-52723260D01*
X18937350Y-53056593D02*
X18937350Y-52356593D01*
X19404017Y-52356593D02*
X19537350Y-52356593D01*
X19537350Y-52356593D02*
X19604017Y-52389926D01*
X19604017Y-52389926D02*
X19670683Y-52456593D01*
X19670683Y-52456593D02*
X19704017Y-52589926D01*
X19704017Y-52589926D02*
X19704017Y-52823260D01*
X19704017Y-52823260D02*
X19670683Y-52956593D01*
X19670683Y-52956593D02*
X19604017Y-53023260D01*
X19604017Y-53023260D02*
X19537350Y-53056593D01*
X19537350Y-53056593D02*
X19404017Y-53056593D01*
X19404017Y-53056593D02*
X19337350Y-53023260D01*
X19337350Y-53023260D02*
X19270683Y-52956593D01*
X19270683Y-52956593D02*
X19237350Y-52823260D01*
X19237350Y-52823260D02*
X19237350Y-52589926D01*
X19237350Y-52589926D02*
X19270683Y-52456593D01*
X19270683Y-52456593D02*
X19337350Y-52389926D01*
X19337350Y-52389926D02*
X19404017Y-52356593D01*
X19970683Y-52423260D02*
X20004016Y-52389926D01*
X20004016Y-52389926D02*
X20070683Y-52356593D01*
X20070683Y-52356593D02*
X20237350Y-52356593D01*
X20237350Y-52356593D02*
X20304016Y-52389926D01*
X20304016Y-52389926D02*
X20337350Y-52423260D01*
X20337350Y-52423260D02*
X20370683Y-52489926D01*
X20370683Y-52489926D02*
X20370683Y-52556593D01*
X20370683Y-52556593D02*
X20337350Y-52656593D01*
X20337350Y-52656593D02*
X19937350Y-53056593D01*
X19937350Y-53056593D02*
X20370683Y-53056593D01*
X20970683Y-52356593D02*
X20837350Y-52356593D01*
X20837350Y-52356593D02*
X20770683Y-52389926D01*
X20770683Y-52389926D02*
X20737350Y-52423260D01*
X20737350Y-52423260D02*
X20670683Y-52523260D01*
X20670683Y-52523260D02*
X20637350Y-52656593D01*
X20637350Y-52656593D02*
X20637350Y-52923260D01*
X20637350Y-52923260D02*
X20670683Y-52989926D01*
X20670683Y-52989926D02*
X20704017Y-53023260D01*
X20704017Y-53023260D02*
X20770683Y-53056593D01*
X20770683Y-53056593D02*
X20904017Y-53056593D01*
X20904017Y-53056593D02*
X20970683Y-53023260D01*
X20970683Y-53023260D02*
X21004017Y-52989926D01*
X21004017Y-52989926D02*
X21037350Y-52923260D01*
X21037350Y-52923260D02*
X21037350Y-52756593D01*
X21037350Y-52756593D02*
X21004017Y-52689926D01*
X21004017Y-52689926D02*
X20970683Y-52656593D01*
X20970683Y-52656593D02*
X20904017Y-52623260D01*
X20904017Y-52623260D02*
X20770683Y-52623260D01*
X20770683Y-52623260D02*
X20704017Y-52656593D01*
X20704017Y-52656593D02*
X20670683Y-52689926D01*
X20670683Y-52689926D02*
X20637350Y-52756593D01*
X17904017Y-42229926D02*
X17837350Y-42196593D01*
X17837350Y-42196593D02*
X17737350Y-42196593D01*
X17737350Y-42196593D02*
X17637350Y-42229926D01*
X17637350Y-42229926D02*
X17570684Y-42296593D01*
X17570684Y-42296593D02*
X17537350Y-42363260D01*
X17537350Y-42363260D02*
X17504017Y-42496593D01*
X17504017Y-42496593D02*
X17504017Y-42596593D01*
X17504017Y-42596593D02*
X17537350Y-42729926D01*
X17537350Y-42729926D02*
X17570684Y-42796593D01*
X17570684Y-42796593D02*
X17637350Y-42863260D01*
X17637350Y-42863260D02*
X17737350Y-42896593D01*
X17737350Y-42896593D02*
X17804017Y-42896593D01*
X17804017Y-42896593D02*
X17904017Y-42863260D01*
X17904017Y-42863260D02*
X17937350Y-42829926D01*
X17937350Y-42829926D02*
X17937350Y-42596593D01*
X17937350Y-42596593D02*
X17804017Y-42596593D01*
X18237350Y-42896593D02*
X18237350Y-42196593D01*
X18237350Y-42196593D02*
X18504017Y-42196593D01*
X18504017Y-42196593D02*
X18570684Y-42229926D01*
X18570684Y-42229926D02*
X18604017Y-42263260D01*
X18604017Y-42263260D02*
X18637350Y-42329926D01*
X18637350Y-42329926D02*
X18637350Y-42429926D01*
X18637350Y-42429926D02*
X18604017Y-42496593D01*
X18604017Y-42496593D02*
X18570684Y-42529926D01*
X18570684Y-42529926D02*
X18504017Y-42563260D01*
X18504017Y-42563260D02*
X18237350Y-42563260D01*
X18937350Y-42896593D02*
X18937350Y-42196593D01*
X19404017Y-42196593D02*
X19537350Y-42196593D01*
X19537350Y-42196593D02*
X19604017Y-42229926D01*
X19604017Y-42229926D02*
X19670683Y-42296593D01*
X19670683Y-42296593D02*
X19704017Y-42429926D01*
X19704017Y-42429926D02*
X19704017Y-42663260D01*
X19704017Y-42663260D02*
X19670683Y-42796593D01*
X19670683Y-42796593D02*
X19604017Y-42863260D01*
X19604017Y-42863260D02*
X19537350Y-42896593D01*
X19537350Y-42896593D02*
X19404017Y-42896593D01*
X19404017Y-42896593D02*
X19337350Y-42863260D01*
X19337350Y-42863260D02*
X19270683Y-42796593D01*
X19270683Y-42796593D02*
X19237350Y-42663260D01*
X19237350Y-42663260D02*
X19237350Y-42429926D01*
X19237350Y-42429926D02*
X19270683Y-42296593D01*
X19270683Y-42296593D02*
X19337350Y-42229926D01*
X19337350Y-42229926D02*
X19404017Y-42196593D01*
X19937350Y-42196593D02*
X20370683Y-42196593D01*
X20370683Y-42196593D02*
X20137350Y-42463260D01*
X20137350Y-42463260D02*
X20237350Y-42463260D01*
X20237350Y-42463260D02*
X20304016Y-42496593D01*
X20304016Y-42496593D02*
X20337350Y-42529926D01*
X20337350Y-42529926D02*
X20370683Y-42596593D01*
X20370683Y-42596593D02*
X20370683Y-42763260D01*
X20370683Y-42763260D02*
X20337350Y-42829926D01*
X20337350Y-42829926D02*
X20304016Y-42863260D01*
X20304016Y-42863260D02*
X20237350Y-42896593D01*
X20237350Y-42896593D02*
X20037350Y-42896593D01*
X20037350Y-42896593D02*
X19970683Y-42863260D01*
X19970683Y-42863260D02*
X19937350Y-42829926D01*
X21004017Y-42196593D02*
X20670683Y-42196593D01*
X20670683Y-42196593D02*
X20637350Y-42529926D01*
X20637350Y-42529926D02*
X20670683Y-42496593D01*
X20670683Y-42496593D02*
X20737350Y-42463260D01*
X20737350Y-42463260D02*
X20904017Y-42463260D01*
X20904017Y-42463260D02*
X20970683Y-42496593D01*
X20970683Y-42496593D02*
X21004017Y-42529926D01*
X21004017Y-42529926D02*
X21037350Y-42596593D01*
X21037350Y-42596593D02*
X21037350Y-42763260D01*
X21037350Y-42763260D02*
X21004017Y-42829926D01*
X21004017Y-42829926D02*
X20970683Y-42863260D01*
X20970683Y-42863260D02*
X20904017Y-42896593D01*
X20904017Y-42896593D02*
X20737350Y-42896593D01*
X20737350Y-42896593D02*
X20670683Y-42863260D01*
X20670683Y-42863260D02*
X20637350Y-42829926D01*
X17503921Y-32348849D02*
X17837254Y-32348849D01*
X17980111Y-32872659D02*
X17503921Y-32872659D01*
X17503921Y-32872659D02*
X17503921Y-31872659D01*
X17503921Y-31872659D02*
X17980111Y-31872659D01*
X18408683Y-32872659D02*
X18408683Y-31872659D01*
X18408683Y-31872659D02*
X18980111Y-32872659D01*
X18980111Y-32872659D02*
X18980111Y-31872659D01*
X20170587Y-31825040D02*
X19313445Y-33110754D01*
X21075349Y-32872659D02*
X20742016Y-32396468D01*
X20503921Y-32872659D02*
X20503921Y-31872659D01*
X20503921Y-31872659D02*
X20884873Y-31872659D01*
X20884873Y-31872659D02*
X20980111Y-31920278D01*
X20980111Y-31920278D02*
X21027730Y-31967897D01*
X21027730Y-31967897D02*
X21075349Y-32063135D01*
X21075349Y-32063135D02*
X21075349Y-32205992D01*
X21075349Y-32205992D02*
X21027730Y-32301230D01*
X21027730Y-32301230D02*
X20980111Y-32348849D01*
X20980111Y-32348849D02*
X20884873Y-32396468D01*
X20884873Y-32396468D02*
X20503921Y-32396468D01*
X21503921Y-32348849D02*
X21837254Y-32348849D01*
X21980111Y-32872659D02*
X21503921Y-32872659D01*
X21503921Y-32872659D02*
X21503921Y-31872659D01*
X21503921Y-31872659D02*
X21980111Y-31872659D01*
X22361064Y-32825040D02*
X22503921Y-32872659D01*
X22503921Y-32872659D02*
X22742016Y-32872659D01*
X22742016Y-32872659D02*
X22837254Y-32825040D01*
X22837254Y-32825040D02*
X22884873Y-32777420D01*
X22884873Y-32777420D02*
X22932492Y-32682182D01*
X22932492Y-32682182D02*
X22932492Y-32586944D01*
X22932492Y-32586944D02*
X22884873Y-32491706D01*
X22884873Y-32491706D02*
X22837254Y-32444087D01*
X22837254Y-32444087D02*
X22742016Y-32396468D01*
X22742016Y-32396468D02*
X22551540Y-32348849D01*
X22551540Y-32348849D02*
X22456302Y-32301230D01*
X22456302Y-32301230D02*
X22408683Y-32253611D01*
X22408683Y-32253611D02*
X22361064Y-32158373D01*
X22361064Y-32158373D02*
X22361064Y-32063135D01*
X22361064Y-32063135D02*
X22408683Y-31967897D01*
X22408683Y-31967897D02*
X22456302Y-31920278D01*
X22456302Y-31920278D02*
X22551540Y-31872659D01*
X22551540Y-31872659D02*
X22789635Y-31872659D01*
X22789635Y-31872659D02*
X22932492Y-31920278D01*
X23361064Y-32348849D02*
X23694397Y-32348849D01*
X23837254Y-32872659D02*
X23361064Y-32872659D01*
X23361064Y-32872659D02*
X23361064Y-31872659D01*
X23361064Y-31872659D02*
X23837254Y-31872659D01*
X24122969Y-31872659D02*
X24694397Y-31872659D01*
X24408683Y-32872659D02*
X24408683Y-31872659D01*
X17904017Y-49849926D02*
X17837350Y-49816593D01*
X17837350Y-49816593D02*
X17737350Y-49816593D01*
X17737350Y-49816593D02*
X17637350Y-49849926D01*
X17637350Y-49849926D02*
X17570684Y-49916593D01*
X17570684Y-49916593D02*
X17537350Y-49983260D01*
X17537350Y-49983260D02*
X17504017Y-50116593D01*
X17504017Y-50116593D02*
X17504017Y-50216593D01*
X17504017Y-50216593D02*
X17537350Y-50349926D01*
X17537350Y-50349926D02*
X17570684Y-50416593D01*
X17570684Y-50416593D02*
X17637350Y-50483260D01*
X17637350Y-50483260D02*
X17737350Y-50516593D01*
X17737350Y-50516593D02*
X17804017Y-50516593D01*
X17804017Y-50516593D02*
X17904017Y-50483260D01*
X17904017Y-50483260D02*
X17937350Y-50449926D01*
X17937350Y-50449926D02*
X17937350Y-50216593D01*
X17937350Y-50216593D02*
X17804017Y-50216593D01*
X18237350Y-50516593D02*
X18237350Y-49816593D01*
X18237350Y-49816593D02*
X18504017Y-49816593D01*
X18504017Y-49816593D02*
X18570684Y-49849926D01*
X18570684Y-49849926D02*
X18604017Y-49883260D01*
X18604017Y-49883260D02*
X18637350Y-49949926D01*
X18637350Y-49949926D02*
X18637350Y-50049926D01*
X18637350Y-50049926D02*
X18604017Y-50116593D01*
X18604017Y-50116593D02*
X18570684Y-50149926D01*
X18570684Y-50149926D02*
X18504017Y-50183260D01*
X18504017Y-50183260D02*
X18237350Y-50183260D01*
X18937350Y-50516593D02*
X18937350Y-49816593D01*
X19404017Y-49816593D02*
X19537350Y-49816593D01*
X19537350Y-49816593D02*
X19604017Y-49849926D01*
X19604017Y-49849926D02*
X19670683Y-49916593D01*
X19670683Y-49916593D02*
X19704017Y-50049926D01*
X19704017Y-50049926D02*
X19704017Y-50283260D01*
X19704017Y-50283260D02*
X19670683Y-50416593D01*
X19670683Y-50416593D02*
X19604017Y-50483260D01*
X19604017Y-50483260D02*
X19537350Y-50516593D01*
X19537350Y-50516593D02*
X19404017Y-50516593D01*
X19404017Y-50516593D02*
X19337350Y-50483260D01*
X19337350Y-50483260D02*
X19270683Y-50416593D01*
X19270683Y-50416593D02*
X19237350Y-50283260D01*
X19237350Y-50283260D02*
X19237350Y-50049926D01*
X19237350Y-50049926D02*
X19270683Y-49916593D01*
X19270683Y-49916593D02*
X19337350Y-49849926D01*
X19337350Y-49849926D02*
X19404017Y-49816593D01*
X19970683Y-49883260D02*
X20004016Y-49849926D01*
X20004016Y-49849926D02*
X20070683Y-49816593D01*
X20070683Y-49816593D02*
X20237350Y-49816593D01*
X20237350Y-49816593D02*
X20304016Y-49849926D01*
X20304016Y-49849926D02*
X20337350Y-49883260D01*
X20337350Y-49883260D02*
X20370683Y-49949926D01*
X20370683Y-49949926D02*
X20370683Y-50016593D01*
X20370683Y-50016593D02*
X20337350Y-50116593D01*
X20337350Y-50116593D02*
X19937350Y-50516593D01*
X19937350Y-50516593D02*
X20370683Y-50516593D01*
X21004017Y-49816593D02*
X20670683Y-49816593D01*
X20670683Y-49816593D02*
X20637350Y-50149926D01*
X20637350Y-50149926D02*
X20670683Y-50116593D01*
X20670683Y-50116593D02*
X20737350Y-50083260D01*
X20737350Y-50083260D02*
X20904017Y-50083260D01*
X20904017Y-50083260D02*
X20970683Y-50116593D01*
X20970683Y-50116593D02*
X21004017Y-50149926D01*
X21004017Y-50149926D02*
X21037350Y-50216593D01*
X21037350Y-50216593D02*
X21037350Y-50383260D01*
X21037350Y-50383260D02*
X21004017Y-50449926D01*
X21004017Y-50449926D02*
X20970683Y-50483260D01*
X20970683Y-50483260D02*
X20904017Y-50516593D01*
X20904017Y-50516593D02*
X20737350Y-50516593D01*
X20737350Y-50516593D02*
X20670683Y-50483260D01*
X20670683Y-50483260D02*
X20637350Y-50449926D01*
X38833315Y-70836593D02*
X38833315Y-70136593D01*
X38833315Y-70136593D02*
X38999982Y-70136593D01*
X38999982Y-70136593D02*
X39099982Y-70169926D01*
X39099982Y-70169926D02*
X39166649Y-70236593D01*
X39166649Y-70236593D02*
X39199982Y-70303260D01*
X39199982Y-70303260D02*
X39233315Y-70436593D01*
X39233315Y-70436593D02*
X39233315Y-70536593D01*
X39233315Y-70536593D02*
X39199982Y-70669926D01*
X39199982Y-70669926D02*
X39166649Y-70736593D01*
X39166649Y-70736593D02*
X39099982Y-70803260D01*
X39099982Y-70803260D02*
X38999982Y-70836593D01*
X38999982Y-70836593D02*
X38833315Y-70836593D01*
X39899982Y-70836593D02*
X39499982Y-70836593D01*
X39699982Y-70836593D02*
X39699982Y-70136593D01*
X39699982Y-70136593D02*
X39633315Y-70236593D01*
X39633315Y-70236593D02*
X39566649Y-70303260D01*
X39566649Y-70303260D02*
X39499982Y-70336593D01*
X18338969Y-75306659D02*
X17862779Y-75306659D01*
X17862779Y-75306659D02*
X17815160Y-75782849D01*
X17815160Y-75782849D02*
X17862779Y-75735230D01*
X17862779Y-75735230D02*
X17958017Y-75687611D01*
X17958017Y-75687611D02*
X18196112Y-75687611D01*
X18196112Y-75687611D02*
X18291350Y-75735230D01*
X18291350Y-75735230D02*
X18338969Y-75782849D01*
X18338969Y-75782849D02*
X18386588Y-75878087D01*
X18386588Y-75878087D02*
X18386588Y-76116182D01*
X18386588Y-76116182D02*
X18338969Y-76211420D01*
X18338969Y-76211420D02*
X18291350Y-76259040D01*
X18291350Y-76259040D02*
X18196112Y-76306659D01*
X18196112Y-76306659D02*
X17958017Y-76306659D01*
X17958017Y-76306659D02*
X17862779Y-76259040D01*
X17862779Y-76259040D02*
X17815160Y-76211420D01*
X18672303Y-75306659D02*
X19005636Y-76306659D01*
X19005636Y-76306659D02*
X19338969Y-75306659D01*
X33233316Y-39689926D02*
X33166649Y-39656593D01*
X33166649Y-39656593D02*
X33066649Y-39656593D01*
X33066649Y-39656593D02*
X32966649Y-39689926D01*
X32966649Y-39689926D02*
X32899983Y-39756593D01*
X32899983Y-39756593D02*
X32866649Y-39823260D01*
X32866649Y-39823260D02*
X32833316Y-39956593D01*
X32833316Y-39956593D02*
X32833316Y-40056593D01*
X32833316Y-40056593D02*
X32866649Y-40189926D01*
X32866649Y-40189926D02*
X32899983Y-40256593D01*
X32899983Y-40256593D02*
X32966649Y-40323260D01*
X32966649Y-40323260D02*
X33066649Y-40356593D01*
X33066649Y-40356593D02*
X33133316Y-40356593D01*
X33133316Y-40356593D02*
X33233316Y-40323260D01*
X33233316Y-40323260D02*
X33266649Y-40289926D01*
X33266649Y-40289926D02*
X33266649Y-40056593D01*
X33266649Y-40056593D02*
X33133316Y-40056593D01*
X33566649Y-40356593D02*
X33566649Y-39656593D01*
X33566649Y-39656593D02*
X33833316Y-39656593D01*
X33833316Y-39656593D02*
X33899983Y-39689926D01*
X33899983Y-39689926D02*
X33933316Y-39723260D01*
X33933316Y-39723260D02*
X33966649Y-39789926D01*
X33966649Y-39789926D02*
X33966649Y-39889926D01*
X33966649Y-39889926D02*
X33933316Y-39956593D01*
X33933316Y-39956593D02*
X33899983Y-39989926D01*
X33899983Y-39989926D02*
X33833316Y-40023260D01*
X33833316Y-40023260D02*
X33566649Y-40023260D01*
X34266649Y-40356593D02*
X34266649Y-39656593D01*
X34733316Y-39656593D02*
X34866649Y-39656593D01*
X34866649Y-39656593D02*
X34933316Y-39689926D01*
X34933316Y-39689926D02*
X34999982Y-39756593D01*
X34999982Y-39756593D02*
X35033316Y-39889926D01*
X35033316Y-39889926D02*
X35033316Y-40123260D01*
X35033316Y-40123260D02*
X34999982Y-40256593D01*
X34999982Y-40256593D02*
X34933316Y-40323260D01*
X34933316Y-40323260D02*
X34866649Y-40356593D01*
X34866649Y-40356593D02*
X34733316Y-40356593D01*
X34733316Y-40356593D02*
X34666649Y-40323260D01*
X34666649Y-40323260D02*
X34599982Y-40256593D01*
X34599982Y-40256593D02*
X34566649Y-40123260D01*
X34566649Y-40123260D02*
X34566649Y-39889926D01*
X34566649Y-39889926D02*
X34599982Y-39756593D01*
X34599982Y-39756593D02*
X34666649Y-39689926D01*
X34666649Y-39689926D02*
X34733316Y-39656593D01*
X35266649Y-39656593D02*
X35699982Y-39656593D01*
X35699982Y-39656593D02*
X35466649Y-39923260D01*
X35466649Y-39923260D02*
X35566649Y-39923260D01*
X35566649Y-39923260D02*
X35633315Y-39956593D01*
X35633315Y-39956593D02*
X35666649Y-39989926D01*
X35666649Y-39989926D02*
X35699982Y-40056593D01*
X35699982Y-40056593D02*
X35699982Y-40223260D01*
X35699982Y-40223260D02*
X35666649Y-40289926D01*
X35666649Y-40289926D02*
X35633315Y-40323260D01*
X35633315Y-40323260D02*
X35566649Y-40356593D01*
X35566649Y-40356593D02*
X35366649Y-40356593D01*
X35366649Y-40356593D02*
X35299982Y-40323260D01*
X35299982Y-40323260D02*
X35266649Y-40289926D01*
X36499982Y-39623260D02*
X35899982Y-40523260D01*
X36733315Y-39656593D02*
X36733315Y-40223260D01*
X36733315Y-40223260D02*
X36766649Y-40289926D01*
X36766649Y-40289926D02*
X36799982Y-40323260D01*
X36799982Y-40323260D02*
X36866649Y-40356593D01*
X36866649Y-40356593D02*
X36999982Y-40356593D01*
X36999982Y-40356593D02*
X37066649Y-40323260D01*
X37066649Y-40323260D02*
X37099982Y-40289926D01*
X37099982Y-40289926D02*
X37133315Y-40223260D01*
X37133315Y-40223260D02*
X37133315Y-39656593D01*
X37599982Y-39656593D02*
X37666648Y-39656593D01*
X37666648Y-39656593D02*
X37733315Y-39689926D01*
X37733315Y-39689926D02*
X37766648Y-39723260D01*
X37766648Y-39723260D02*
X37799982Y-39789926D01*
X37799982Y-39789926D02*
X37833315Y-39923260D01*
X37833315Y-39923260D02*
X37833315Y-40089926D01*
X37833315Y-40089926D02*
X37799982Y-40223260D01*
X37799982Y-40223260D02*
X37766648Y-40289926D01*
X37766648Y-40289926D02*
X37733315Y-40323260D01*
X37733315Y-40323260D02*
X37666648Y-40356593D01*
X37666648Y-40356593D02*
X37599982Y-40356593D01*
X37599982Y-40356593D02*
X37533315Y-40323260D01*
X37533315Y-40323260D02*
X37499982Y-40289926D01*
X37499982Y-40289926D02*
X37466648Y-40223260D01*
X37466648Y-40223260D02*
X37433315Y-40089926D01*
X37433315Y-40089926D02*
X37433315Y-39923260D01*
X37433315Y-39923260D02*
X37466648Y-39789926D01*
X37466648Y-39789926D02*
X37499982Y-39723260D01*
X37499982Y-39723260D02*
X37533315Y-39689926D01*
X37533315Y-39689926D02*
X37599982Y-39656593D01*
X38533315Y-40356593D02*
X38299982Y-40023260D01*
X38133315Y-40356593D02*
X38133315Y-39656593D01*
X38133315Y-39656593D02*
X38399982Y-39656593D01*
X38399982Y-39656593D02*
X38466649Y-39689926D01*
X38466649Y-39689926D02*
X38499982Y-39723260D01*
X38499982Y-39723260D02*
X38533315Y-39789926D01*
X38533315Y-39789926D02*
X38533315Y-39889926D01*
X38533315Y-39889926D02*
X38499982Y-39956593D01*
X38499982Y-39956593D02*
X38466649Y-39989926D01*
X38466649Y-39989926D02*
X38399982Y-40023260D01*
X38399982Y-40023260D02*
X38133315Y-40023260D01*
X38766649Y-39656593D02*
X39233315Y-40356593D01*
X39233315Y-39656593D02*
X38766649Y-40356593D01*
X39499982Y-40356593D02*
X39499982Y-39656593D01*
X39499982Y-39656593D02*
X39666649Y-39656593D01*
X39666649Y-39656593D02*
X39766649Y-39689926D01*
X39766649Y-39689926D02*
X39833316Y-39756593D01*
X39833316Y-39756593D02*
X39866649Y-39823260D01*
X39866649Y-39823260D02*
X39899982Y-39956593D01*
X39899982Y-39956593D02*
X39899982Y-40056593D01*
X39899982Y-40056593D02*
X39866649Y-40189926D01*
X39866649Y-40189926D02*
X39833316Y-40256593D01*
X39833316Y-40256593D02*
X39766649Y-40323260D01*
X39766649Y-40323260D02*
X39666649Y-40356593D01*
X39666649Y-40356593D02*
X39499982Y-40356593D01*
X36766649Y-57469926D02*
X36699982Y-57436593D01*
X36699982Y-57436593D02*
X36599982Y-57436593D01*
X36599982Y-57436593D02*
X36499982Y-57469926D01*
X36499982Y-57469926D02*
X36433316Y-57536593D01*
X36433316Y-57536593D02*
X36399982Y-57603260D01*
X36399982Y-57603260D02*
X36366649Y-57736593D01*
X36366649Y-57736593D02*
X36366649Y-57836593D01*
X36366649Y-57836593D02*
X36399982Y-57969926D01*
X36399982Y-57969926D02*
X36433316Y-58036593D01*
X36433316Y-58036593D02*
X36499982Y-58103260D01*
X36499982Y-58103260D02*
X36599982Y-58136593D01*
X36599982Y-58136593D02*
X36666649Y-58136593D01*
X36666649Y-58136593D02*
X36766649Y-58103260D01*
X36766649Y-58103260D02*
X36799982Y-58069926D01*
X36799982Y-58069926D02*
X36799982Y-57836593D01*
X36799982Y-57836593D02*
X36666649Y-57836593D01*
X37099982Y-58136593D02*
X37099982Y-57436593D01*
X37099982Y-57436593D02*
X37366649Y-57436593D01*
X37366649Y-57436593D02*
X37433316Y-57469926D01*
X37433316Y-57469926D02*
X37466649Y-57503260D01*
X37466649Y-57503260D02*
X37499982Y-57569926D01*
X37499982Y-57569926D02*
X37499982Y-57669926D01*
X37499982Y-57669926D02*
X37466649Y-57736593D01*
X37466649Y-57736593D02*
X37433316Y-57769926D01*
X37433316Y-57769926D02*
X37366649Y-57803260D01*
X37366649Y-57803260D02*
X37099982Y-57803260D01*
X37799982Y-58136593D02*
X37799982Y-57436593D01*
X38266649Y-57436593D02*
X38399982Y-57436593D01*
X38399982Y-57436593D02*
X38466649Y-57469926D01*
X38466649Y-57469926D02*
X38533315Y-57536593D01*
X38533315Y-57536593D02*
X38566649Y-57669926D01*
X38566649Y-57669926D02*
X38566649Y-57903260D01*
X38566649Y-57903260D02*
X38533315Y-58036593D01*
X38533315Y-58036593D02*
X38466649Y-58103260D01*
X38466649Y-58103260D02*
X38399982Y-58136593D01*
X38399982Y-58136593D02*
X38266649Y-58136593D01*
X38266649Y-58136593D02*
X38199982Y-58103260D01*
X38199982Y-58103260D02*
X38133315Y-58036593D01*
X38133315Y-58036593D02*
X38099982Y-57903260D01*
X38099982Y-57903260D02*
X38099982Y-57669926D01*
X38099982Y-57669926D02*
X38133315Y-57536593D01*
X38133315Y-57536593D02*
X38199982Y-57469926D01*
X38199982Y-57469926D02*
X38266649Y-57436593D01*
X39233315Y-58136593D02*
X38833315Y-58136593D01*
X39033315Y-58136593D02*
X39033315Y-57436593D01*
X39033315Y-57436593D02*
X38966648Y-57536593D01*
X38966648Y-57536593D02*
X38899982Y-57603260D01*
X38899982Y-57603260D02*
X38833315Y-57636593D01*
X39833315Y-57436593D02*
X39699982Y-57436593D01*
X39699982Y-57436593D02*
X39633315Y-57469926D01*
X39633315Y-57469926D02*
X39599982Y-57503260D01*
X39599982Y-57503260D02*
X39533315Y-57603260D01*
X39533315Y-57603260D02*
X39499982Y-57736593D01*
X39499982Y-57736593D02*
X39499982Y-58003260D01*
X39499982Y-58003260D02*
X39533315Y-58069926D01*
X39533315Y-58069926D02*
X39566649Y-58103260D01*
X39566649Y-58103260D02*
X39633315Y-58136593D01*
X39633315Y-58136593D02*
X39766649Y-58136593D01*
X39766649Y-58136593D02*
X39833315Y-58103260D01*
X39833315Y-58103260D02*
X39866649Y-58069926D01*
X39866649Y-58069926D02*
X39899982Y-58003260D01*
X39899982Y-58003260D02*
X39899982Y-57836593D01*
X39899982Y-57836593D02*
X39866649Y-57769926D01*
X39866649Y-57769926D02*
X39833315Y-57736593D01*
X39833315Y-57736593D02*
X39766649Y-57703260D01*
X39766649Y-57703260D02*
X39633315Y-57703260D01*
X39633315Y-57703260D02*
X39566649Y-57736593D01*
X39566649Y-57736593D02*
X39533315Y-57769926D01*
X39533315Y-57769926D02*
X39499982Y-57836593D01*
X37433316Y-62549926D02*
X37366649Y-62516593D01*
X37366649Y-62516593D02*
X37266649Y-62516593D01*
X37266649Y-62516593D02*
X37166649Y-62549926D01*
X37166649Y-62549926D02*
X37099983Y-62616593D01*
X37099983Y-62616593D02*
X37066649Y-62683260D01*
X37066649Y-62683260D02*
X37033316Y-62816593D01*
X37033316Y-62816593D02*
X37033316Y-62916593D01*
X37033316Y-62916593D02*
X37066649Y-63049926D01*
X37066649Y-63049926D02*
X37099983Y-63116593D01*
X37099983Y-63116593D02*
X37166649Y-63183260D01*
X37166649Y-63183260D02*
X37266649Y-63216593D01*
X37266649Y-63216593D02*
X37333316Y-63216593D01*
X37333316Y-63216593D02*
X37433316Y-63183260D01*
X37433316Y-63183260D02*
X37466649Y-63149926D01*
X37466649Y-63149926D02*
X37466649Y-62916593D01*
X37466649Y-62916593D02*
X37333316Y-62916593D01*
X37766649Y-63216593D02*
X37766649Y-62516593D01*
X37766649Y-62516593D02*
X38033316Y-62516593D01*
X38033316Y-62516593D02*
X38099983Y-62549926D01*
X38099983Y-62549926D02*
X38133316Y-62583260D01*
X38133316Y-62583260D02*
X38166649Y-62649926D01*
X38166649Y-62649926D02*
X38166649Y-62749926D01*
X38166649Y-62749926D02*
X38133316Y-62816593D01*
X38133316Y-62816593D02*
X38099983Y-62849926D01*
X38099983Y-62849926D02*
X38033316Y-62883260D01*
X38033316Y-62883260D02*
X37766649Y-62883260D01*
X38466649Y-63216593D02*
X38466649Y-62516593D01*
X38933316Y-62516593D02*
X39066649Y-62516593D01*
X39066649Y-62516593D02*
X39133316Y-62549926D01*
X39133316Y-62549926D02*
X39199982Y-62616593D01*
X39199982Y-62616593D02*
X39233316Y-62749926D01*
X39233316Y-62749926D02*
X39233316Y-62983260D01*
X39233316Y-62983260D02*
X39199982Y-63116593D01*
X39199982Y-63116593D02*
X39133316Y-63183260D01*
X39133316Y-63183260D02*
X39066649Y-63216593D01*
X39066649Y-63216593D02*
X38933316Y-63216593D01*
X38933316Y-63216593D02*
X38866649Y-63183260D01*
X38866649Y-63183260D02*
X38799982Y-63116593D01*
X38799982Y-63116593D02*
X38766649Y-62983260D01*
X38766649Y-62983260D02*
X38766649Y-62749926D01*
X38766649Y-62749926D02*
X38799982Y-62616593D01*
X38799982Y-62616593D02*
X38866649Y-62549926D01*
X38866649Y-62549926D02*
X38933316Y-62516593D01*
X39666649Y-62516593D02*
X39733315Y-62516593D01*
X39733315Y-62516593D02*
X39799982Y-62549926D01*
X39799982Y-62549926D02*
X39833315Y-62583260D01*
X39833315Y-62583260D02*
X39866649Y-62649926D01*
X39866649Y-62649926D02*
X39899982Y-62783260D01*
X39899982Y-62783260D02*
X39899982Y-62949926D01*
X39899982Y-62949926D02*
X39866649Y-63083260D01*
X39866649Y-63083260D02*
X39833315Y-63149926D01*
X39833315Y-63149926D02*
X39799982Y-63183260D01*
X39799982Y-63183260D02*
X39733315Y-63216593D01*
X39733315Y-63216593D02*
X39666649Y-63216593D01*
X39666649Y-63216593D02*
X39599982Y-63183260D01*
X39599982Y-63183260D02*
X39566649Y-63149926D01*
X39566649Y-63149926D02*
X39533315Y-63083260D01*
X39533315Y-63083260D02*
X39499982Y-62949926D01*
X39499982Y-62949926D02*
X39499982Y-62783260D01*
X39499982Y-62783260D02*
X39533315Y-62649926D01*
X39533315Y-62649926D02*
X39566649Y-62583260D01*
X39566649Y-62583260D02*
X39599982Y-62549926D01*
X39599982Y-62549926D02*
X39666649Y-62516593D01*
X17537350Y-68296593D02*
X17537350Y-67596593D01*
X17537350Y-67596593D02*
X17704017Y-67596593D01*
X17704017Y-67596593D02*
X17804017Y-67629926D01*
X17804017Y-67629926D02*
X17870684Y-67696593D01*
X17870684Y-67696593D02*
X17904017Y-67763260D01*
X17904017Y-67763260D02*
X17937350Y-67896593D01*
X17937350Y-67896593D02*
X17937350Y-67996593D01*
X17937350Y-67996593D02*
X17904017Y-68129926D01*
X17904017Y-68129926D02*
X17870684Y-68196593D01*
X17870684Y-68196593D02*
X17804017Y-68263260D01*
X17804017Y-68263260D02*
X17704017Y-68296593D01*
X17704017Y-68296593D02*
X17537350Y-68296593D01*
X18204017Y-67663260D02*
X18237350Y-67629926D01*
X18237350Y-67629926D02*
X18304017Y-67596593D01*
X18304017Y-67596593D02*
X18470684Y-67596593D01*
X18470684Y-67596593D02*
X18537350Y-67629926D01*
X18537350Y-67629926D02*
X18570684Y-67663260D01*
X18570684Y-67663260D02*
X18604017Y-67729926D01*
X18604017Y-67729926D02*
X18604017Y-67796593D01*
X18604017Y-67796593D02*
X18570684Y-67896593D01*
X18570684Y-67896593D02*
X18170684Y-68296593D01*
X18170684Y-68296593D02*
X18604017Y-68296593D01*
X37433316Y-60009926D02*
X37366649Y-59976593D01*
X37366649Y-59976593D02*
X37266649Y-59976593D01*
X37266649Y-59976593D02*
X37166649Y-60009926D01*
X37166649Y-60009926D02*
X37099983Y-60076593D01*
X37099983Y-60076593D02*
X37066649Y-60143260D01*
X37066649Y-60143260D02*
X37033316Y-60276593D01*
X37033316Y-60276593D02*
X37033316Y-60376593D01*
X37033316Y-60376593D02*
X37066649Y-60509926D01*
X37066649Y-60509926D02*
X37099983Y-60576593D01*
X37099983Y-60576593D02*
X37166649Y-60643260D01*
X37166649Y-60643260D02*
X37266649Y-60676593D01*
X37266649Y-60676593D02*
X37333316Y-60676593D01*
X37333316Y-60676593D02*
X37433316Y-60643260D01*
X37433316Y-60643260D02*
X37466649Y-60609926D01*
X37466649Y-60609926D02*
X37466649Y-60376593D01*
X37466649Y-60376593D02*
X37333316Y-60376593D01*
X37766649Y-60676593D02*
X37766649Y-59976593D01*
X37766649Y-59976593D02*
X38033316Y-59976593D01*
X38033316Y-59976593D02*
X38099983Y-60009926D01*
X38099983Y-60009926D02*
X38133316Y-60043260D01*
X38133316Y-60043260D02*
X38166649Y-60109926D01*
X38166649Y-60109926D02*
X38166649Y-60209926D01*
X38166649Y-60209926D02*
X38133316Y-60276593D01*
X38133316Y-60276593D02*
X38099983Y-60309926D01*
X38099983Y-60309926D02*
X38033316Y-60343260D01*
X38033316Y-60343260D02*
X37766649Y-60343260D01*
X38466649Y-60676593D02*
X38466649Y-59976593D01*
X38933316Y-59976593D02*
X39066649Y-59976593D01*
X39066649Y-59976593D02*
X39133316Y-60009926D01*
X39133316Y-60009926D02*
X39199982Y-60076593D01*
X39199982Y-60076593D02*
X39233316Y-60209926D01*
X39233316Y-60209926D02*
X39233316Y-60443260D01*
X39233316Y-60443260D02*
X39199982Y-60576593D01*
X39199982Y-60576593D02*
X39133316Y-60643260D01*
X39133316Y-60643260D02*
X39066649Y-60676593D01*
X39066649Y-60676593D02*
X38933316Y-60676593D01*
X38933316Y-60676593D02*
X38866649Y-60643260D01*
X38866649Y-60643260D02*
X38799982Y-60576593D01*
X38799982Y-60576593D02*
X38766649Y-60443260D01*
X38766649Y-60443260D02*
X38766649Y-60209926D01*
X38766649Y-60209926D02*
X38799982Y-60076593D01*
X38799982Y-60076593D02*
X38866649Y-60009926D01*
X38866649Y-60009926D02*
X38933316Y-59976593D01*
X39833315Y-60209926D02*
X39833315Y-60676593D01*
X39666649Y-59943260D02*
X39499982Y-60443260D01*
X39499982Y-60443260D02*
X39933315Y-60443260D01*
X17904017Y-54929926D02*
X17837350Y-54896593D01*
X17837350Y-54896593D02*
X17737350Y-54896593D01*
X17737350Y-54896593D02*
X17637350Y-54929926D01*
X17637350Y-54929926D02*
X17570684Y-54996593D01*
X17570684Y-54996593D02*
X17537350Y-55063260D01*
X17537350Y-55063260D02*
X17504017Y-55196593D01*
X17504017Y-55196593D02*
X17504017Y-55296593D01*
X17504017Y-55296593D02*
X17537350Y-55429926D01*
X17537350Y-55429926D02*
X17570684Y-55496593D01*
X17570684Y-55496593D02*
X17637350Y-55563260D01*
X17637350Y-55563260D02*
X17737350Y-55596593D01*
X17737350Y-55596593D02*
X17804017Y-55596593D01*
X17804017Y-55596593D02*
X17904017Y-55563260D01*
X17904017Y-55563260D02*
X17937350Y-55529926D01*
X17937350Y-55529926D02*
X17937350Y-55296593D01*
X17937350Y-55296593D02*
X17804017Y-55296593D01*
X18237350Y-55596593D02*
X18237350Y-54896593D01*
X18237350Y-54896593D02*
X18504017Y-54896593D01*
X18504017Y-54896593D02*
X18570684Y-54929926D01*
X18570684Y-54929926D02*
X18604017Y-54963260D01*
X18604017Y-54963260D02*
X18637350Y-55029926D01*
X18637350Y-55029926D02*
X18637350Y-55129926D01*
X18637350Y-55129926D02*
X18604017Y-55196593D01*
X18604017Y-55196593D02*
X18570684Y-55229926D01*
X18570684Y-55229926D02*
X18504017Y-55263260D01*
X18504017Y-55263260D02*
X18237350Y-55263260D01*
X18937350Y-55596593D02*
X18937350Y-54896593D01*
X19404017Y-54896593D02*
X19537350Y-54896593D01*
X19537350Y-54896593D02*
X19604017Y-54929926D01*
X19604017Y-54929926D02*
X19670683Y-54996593D01*
X19670683Y-54996593D02*
X19704017Y-55129926D01*
X19704017Y-55129926D02*
X19704017Y-55363260D01*
X19704017Y-55363260D02*
X19670683Y-55496593D01*
X19670683Y-55496593D02*
X19604017Y-55563260D01*
X19604017Y-55563260D02*
X19537350Y-55596593D01*
X19537350Y-55596593D02*
X19404017Y-55596593D01*
X19404017Y-55596593D02*
X19337350Y-55563260D01*
X19337350Y-55563260D02*
X19270683Y-55496593D01*
X19270683Y-55496593D02*
X19237350Y-55363260D01*
X19237350Y-55363260D02*
X19237350Y-55129926D01*
X19237350Y-55129926D02*
X19270683Y-54996593D01*
X19270683Y-54996593D02*
X19337350Y-54929926D01*
X19337350Y-54929926D02*
X19404017Y-54896593D01*
X19970683Y-54963260D02*
X20004016Y-54929926D01*
X20004016Y-54929926D02*
X20070683Y-54896593D01*
X20070683Y-54896593D02*
X20237350Y-54896593D01*
X20237350Y-54896593D02*
X20304016Y-54929926D01*
X20304016Y-54929926D02*
X20337350Y-54963260D01*
X20337350Y-54963260D02*
X20370683Y-55029926D01*
X20370683Y-55029926D02*
X20370683Y-55096593D01*
X20370683Y-55096593D02*
X20337350Y-55196593D01*
X20337350Y-55196593D02*
X19937350Y-55596593D01*
X19937350Y-55596593D02*
X20370683Y-55596593D01*
X20604017Y-54896593D02*
X21070683Y-54896593D01*
X21070683Y-54896593D02*
X20770683Y-55596593D01*
X36766649Y-32069926D02*
X36699982Y-32036593D01*
X36699982Y-32036593D02*
X36599982Y-32036593D01*
X36599982Y-32036593D02*
X36499982Y-32069926D01*
X36499982Y-32069926D02*
X36433316Y-32136593D01*
X36433316Y-32136593D02*
X36399982Y-32203260D01*
X36399982Y-32203260D02*
X36366649Y-32336593D01*
X36366649Y-32336593D02*
X36366649Y-32436593D01*
X36366649Y-32436593D02*
X36399982Y-32569926D01*
X36399982Y-32569926D02*
X36433316Y-32636593D01*
X36433316Y-32636593D02*
X36499982Y-32703260D01*
X36499982Y-32703260D02*
X36599982Y-32736593D01*
X36599982Y-32736593D02*
X36666649Y-32736593D01*
X36666649Y-32736593D02*
X36766649Y-32703260D01*
X36766649Y-32703260D02*
X36799982Y-32669926D01*
X36799982Y-32669926D02*
X36799982Y-32436593D01*
X36799982Y-32436593D02*
X36666649Y-32436593D01*
X37099982Y-32736593D02*
X37099982Y-32036593D01*
X37099982Y-32036593D02*
X37366649Y-32036593D01*
X37366649Y-32036593D02*
X37433316Y-32069926D01*
X37433316Y-32069926D02*
X37466649Y-32103260D01*
X37466649Y-32103260D02*
X37499982Y-32169926D01*
X37499982Y-32169926D02*
X37499982Y-32269926D01*
X37499982Y-32269926D02*
X37466649Y-32336593D01*
X37466649Y-32336593D02*
X37433316Y-32369926D01*
X37433316Y-32369926D02*
X37366649Y-32403260D01*
X37366649Y-32403260D02*
X37099982Y-32403260D01*
X37799982Y-32736593D02*
X37799982Y-32036593D01*
X38266649Y-32036593D02*
X38399982Y-32036593D01*
X38399982Y-32036593D02*
X38466649Y-32069926D01*
X38466649Y-32069926D02*
X38533315Y-32136593D01*
X38533315Y-32136593D02*
X38566649Y-32269926D01*
X38566649Y-32269926D02*
X38566649Y-32503260D01*
X38566649Y-32503260D02*
X38533315Y-32636593D01*
X38533315Y-32636593D02*
X38466649Y-32703260D01*
X38466649Y-32703260D02*
X38399982Y-32736593D01*
X38399982Y-32736593D02*
X38266649Y-32736593D01*
X38266649Y-32736593D02*
X38199982Y-32703260D01*
X38199982Y-32703260D02*
X38133315Y-32636593D01*
X38133315Y-32636593D02*
X38099982Y-32503260D01*
X38099982Y-32503260D02*
X38099982Y-32269926D01*
X38099982Y-32269926D02*
X38133315Y-32136593D01*
X38133315Y-32136593D02*
X38199982Y-32069926D01*
X38199982Y-32069926D02*
X38266649Y-32036593D01*
X38833315Y-32103260D02*
X38866648Y-32069926D01*
X38866648Y-32069926D02*
X38933315Y-32036593D01*
X38933315Y-32036593D02*
X39099982Y-32036593D01*
X39099982Y-32036593D02*
X39166648Y-32069926D01*
X39166648Y-32069926D02*
X39199982Y-32103260D01*
X39199982Y-32103260D02*
X39233315Y-32169926D01*
X39233315Y-32169926D02*
X39233315Y-32236593D01*
X39233315Y-32236593D02*
X39199982Y-32336593D01*
X39199982Y-32336593D02*
X38799982Y-32736593D01*
X38799982Y-32736593D02*
X39233315Y-32736593D01*
X39466649Y-32036593D02*
X39899982Y-32036593D01*
X39899982Y-32036593D02*
X39666649Y-32303260D01*
X39666649Y-32303260D02*
X39766649Y-32303260D01*
X39766649Y-32303260D02*
X39833315Y-32336593D01*
X39833315Y-32336593D02*
X39866649Y-32369926D01*
X39866649Y-32369926D02*
X39899982Y-32436593D01*
X39899982Y-32436593D02*
X39899982Y-32603260D01*
X39899982Y-32603260D02*
X39866649Y-32669926D01*
X39866649Y-32669926D02*
X39833315Y-32703260D01*
X39833315Y-32703260D02*
X39766649Y-32736593D01*
X39766649Y-32736593D02*
X39566649Y-32736593D01*
X39566649Y-32736593D02*
X39499982Y-32703260D01*
X39499982Y-32703260D02*
X39466649Y-32669926D01*
X29384666Y-87577819D02*
X29384666Y-88292104D01*
X29384666Y-88292104D02*
X29337047Y-88434961D01*
X29337047Y-88434961D02*
X29241809Y-88530200D01*
X29241809Y-88530200D02*
X29098952Y-88577819D01*
X29098952Y-88577819D02*
X29003714Y-88577819D01*
X29908476Y-88577819D02*
X30098952Y-88577819D01*
X30098952Y-88577819D02*
X30194190Y-88530200D01*
X30194190Y-88530200D02*
X30241809Y-88482580D01*
X30241809Y-88482580D02*
X30337047Y-88339723D01*
X30337047Y-88339723D02*
X30384666Y-88149247D01*
X30384666Y-88149247D02*
X30384666Y-87768295D01*
X30384666Y-87768295D02*
X30337047Y-87673057D01*
X30337047Y-87673057D02*
X30289428Y-87625438D01*
X30289428Y-87625438D02*
X30194190Y-87577819D01*
X30194190Y-87577819D02*
X30003714Y-87577819D01*
X30003714Y-87577819D02*
X29908476Y-87625438D01*
X29908476Y-87625438D02*
X29860857Y-87673057D01*
X29860857Y-87673057D02*
X29813238Y-87768295D01*
X29813238Y-87768295D02*
X29813238Y-88006390D01*
X29813238Y-88006390D02*
X29860857Y-88101628D01*
X29860857Y-88101628D02*
X29908476Y-88149247D01*
X29908476Y-88149247D02*
X30003714Y-88196866D01*
X30003714Y-88196866D02*
X30194190Y-88196866D01*
X30194190Y-88196866D02*
X30289428Y-88149247D01*
X30289428Y-88149247D02*
X30337047Y-88101628D01*
X30337047Y-88101628D02*
X30384666Y-88006390D01*
X16883142Y-79353580D02*
X16835523Y-79401200D01*
X16835523Y-79401200D02*
X16692666Y-79448819D01*
X16692666Y-79448819D02*
X16597428Y-79448819D01*
X16597428Y-79448819D02*
X16454571Y-79401200D01*
X16454571Y-79401200D02*
X16359333Y-79305961D01*
X16359333Y-79305961D02*
X16311714Y-79210723D01*
X16311714Y-79210723D02*
X16264095Y-79020247D01*
X16264095Y-79020247D02*
X16264095Y-78877390D01*
X16264095Y-78877390D02*
X16311714Y-78686914D01*
X16311714Y-78686914D02*
X16359333Y-78591676D01*
X16359333Y-78591676D02*
X16454571Y-78496438D01*
X16454571Y-78496438D02*
X16597428Y-78448819D01*
X16597428Y-78448819D02*
X16692666Y-78448819D01*
X16692666Y-78448819D02*
X16835523Y-78496438D01*
X16835523Y-78496438D02*
X16883142Y-78544057D01*
X17835523Y-79448819D02*
X17264095Y-79448819D01*
X17549809Y-79448819D02*
X17549809Y-78448819D01*
X17549809Y-78448819D02*
X17454571Y-78591676D01*
X17454571Y-78591676D02*
X17359333Y-78686914D01*
X17359333Y-78686914D02*
X17264095Y-78734533D01*
X18787904Y-79448819D02*
X18216476Y-79448819D01*
X18502190Y-79448819D02*
X18502190Y-78448819D01*
X18502190Y-78448819D02*
X18406952Y-78591676D01*
X18406952Y-78591676D02*
X18311714Y-78686914D01*
X18311714Y-78686914D02*
X18216476Y-78734533D01*
X34631333Y-122025580D02*
X34583714Y-122073200D01*
X34583714Y-122073200D02*
X34440857Y-122120819D01*
X34440857Y-122120819D02*
X34345619Y-122120819D01*
X34345619Y-122120819D02*
X34202762Y-122073200D01*
X34202762Y-122073200D02*
X34107524Y-121977961D01*
X34107524Y-121977961D02*
X34059905Y-121882723D01*
X34059905Y-121882723D02*
X34012286Y-121692247D01*
X34012286Y-121692247D02*
X34012286Y-121549390D01*
X34012286Y-121549390D02*
X34059905Y-121358914D01*
X34059905Y-121358914D02*
X34107524Y-121263676D01*
X34107524Y-121263676D02*
X34202762Y-121168438D01*
X34202762Y-121168438D02*
X34345619Y-121120819D01*
X34345619Y-121120819D02*
X34440857Y-121120819D01*
X34440857Y-121120819D02*
X34583714Y-121168438D01*
X34583714Y-121168438D02*
X34631333Y-121216057D01*
X35012286Y-121216057D02*
X35059905Y-121168438D01*
X35059905Y-121168438D02*
X35155143Y-121120819D01*
X35155143Y-121120819D02*
X35393238Y-121120819D01*
X35393238Y-121120819D02*
X35488476Y-121168438D01*
X35488476Y-121168438D02*
X35536095Y-121216057D01*
X35536095Y-121216057D02*
X35583714Y-121311295D01*
X35583714Y-121311295D02*
X35583714Y-121406533D01*
X35583714Y-121406533D02*
X35536095Y-121549390D01*
X35536095Y-121549390D02*
X34964667Y-122120819D01*
X34964667Y-122120819D02*
X35583714Y-122120819D01*
X19645333Y-125676819D02*
X19312000Y-125200628D01*
X19073905Y-125676819D02*
X19073905Y-124676819D01*
X19073905Y-124676819D02*
X19454857Y-124676819D01*
X19454857Y-124676819D02*
X19550095Y-124724438D01*
X19550095Y-124724438D02*
X19597714Y-124772057D01*
X19597714Y-124772057D02*
X19645333Y-124867295D01*
X19645333Y-124867295D02*
X19645333Y-125010152D01*
X19645333Y-125010152D02*
X19597714Y-125105390D01*
X19597714Y-125105390D02*
X19550095Y-125153009D01*
X19550095Y-125153009D02*
X19454857Y-125200628D01*
X19454857Y-125200628D02*
X19073905Y-125200628D01*
X20026286Y-124772057D02*
X20073905Y-124724438D01*
X20073905Y-124724438D02*
X20169143Y-124676819D01*
X20169143Y-124676819D02*
X20407238Y-124676819D01*
X20407238Y-124676819D02*
X20502476Y-124724438D01*
X20502476Y-124724438D02*
X20550095Y-124772057D01*
X20550095Y-124772057D02*
X20597714Y-124867295D01*
X20597714Y-124867295D02*
X20597714Y-124962533D01*
X20597714Y-124962533D02*
X20550095Y-125105390D01*
X20550095Y-125105390D02*
X19978667Y-125676819D01*
X19978667Y-125676819D02*
X20597714Y-125676819D01*
X35647333Y-124565580D02*
X35599714Y-124613200D01*
X35599714Y-124613200D02*
X35456857Y-124660819D01*
X35456857Y-124660819D02*
X35361619Y-124660819D01*
X35361619Y-124660819D02*
X35218762Y-124613200D01*
X35218762Y-124613200D02*
X35123524Y-124517961D01*
X35123524Y-124517961D02*
X35075905Y-124422723D01*
X35075905Y-124422723D02*
X35028286Y-124232247D01*
X35028286Y-124232247D02*
X35028286Y-124089390D01*
X35028286Y-124089390D02*
X35075905Y-123898914D01*
X35075905Y-123898914D02*
X35123524Y-123803676D01*
X35123524Y-123803676D02*
X35218762Y-123708438D01*
X35218762Y-123708438D02*
X35361619Y-123660819D01*
X35361619Y-123660819D02*
X35456857Y-123660819D01*
X35456857Y-123660819D02*
X35599714Y-123708438D01*
X35599714Y-123708438D02*
X35647333Y-123756057D01*
X36599714Y-124660819D02*
X36028286Y-124660819D01*
X36314000Y-124660819D02*
X36314000Y-123660819D01*
X36314000Y-123660819D02*
X36218762Y-123803676D01*
X36218762Y-123803676D02*
X36123524Y-123898914D01*
X36123524Y-123898914D02*
X36028286Y-123946533D01*
X24812666Y-127947009D02*
X24479333Y-127947009D01*
X24479333Y-128470819D02*
X24479333Y-127470819D01*
X24479333Y-127470819D02*
X24955523Y-127470819D01*
X25860285Y-128470819D02*
X25288857Y-128470819D01*
X25574571Y-128470819D02*
X25574571Y-127470819D01*
X25574571Y-127470819D02*
X25479333Y-127613676D01*
X25479333Y-127613676D02*
X25384095Y-127708914D01*
X25384095Y-127708914D02*
X25288857Y-127756533D01*
X19224666Y-110960819D02*
X19224666Y-111675104D01*
X19224666Y-111675104D02*
X19177047Y-111817961D01*
X19177047Y-111817961D02*
X19081809Y-111913200D01*
X19081809Y-111913200D02*
X18938952Y-111960819D01*
X18938952Y-111960819D02*
X18843714Y-111960819D01*
X19843714Y-111389390D02*
X19748476Y-111341771D01*
X19748476Y-111341771D02*
X19700857Y-111294152D01*
X19700857Y-111294152D02*
X19653238Y-111198914D01*
X19653238Y-111198914D02*
X19653238Y-111151295D01*
X19653238Y-111151295D02*
X19700857Y-111056057D01*
X19700857Y-111056057D02*
X19748476Y-111008438D01*
X19748476Y-111008438D02*
X19843714Y-110960819D01*
X19843714Y-110960819D02*
X20034190Y-110960819D01*
X20034190Y-110960819D02*
X20129428Y-111008438D01*
X20129428Y-111008438D02*
X20177047Y-111056057D01*
X20177047Y-111056057D02*
X20224666Y-111151295D01*
X20224666Y-111151295D02*
X20224666Y-111198914D01*
X20224666Y-111198914D02*
X20177047Y-111294152D01*
X20177047Y-111294152D02*
X20129428Y-111341771D01*
X20129428Y-111341771D02*
X20034190Y-111389390D01*
X20034190Y-111389390D02*
X19843714Y-111389390D01*
X19843714Y-111389390D02*
X19748476Y-111437009D01*
X19748476Y-111437009D02*
X19700857Y-111484628D01*
X19700857Y-111484628D02*
X19653238Y-111579866D01*
X19653238Y-111579866D02*
X19653238Y-111770342D01*
X19653238Y-111770342D02*
X19700857Y-111865580D01*
X19700857Y-111865580D02*
X19748476Y-111913200D01*
X19748476Y-111913200D02*
X19843714Y-111960819D01*
X19843714Y-111960819D02*
X20034190Y-111960819D01*
X20034190Y-111960819D02*
X20129428Y-111913200D01*
X20129428Y-111913200D02*
X20177047Y-111865580D01*
X20177047Y-111865580D02*
X20224666Y-111770342D01*
X20224666Y-111770342D02*
X20224666Y-111579866D01*
X20224666Y-111579866D02*
X20177047Y-111484628D01*
X20177047Y-111484628D02*
X20129428Y-111437009D01*
X20129428Y-111437009D02*
X20034190Y-111389390D01*
X20915333Y-113897580D02*
X20867714Y-113945200D01*
X20867714Y-113945200D02*
X20724857Y-113992819D01*
X20724857Y-113992819D02*
X20629619Y-113992819D01*
X20629619Y-113992819D02*
X20486762Y-113945200D01*
X20486762Y-113945200D02*
X20391524Y-113849961D01*
X20391524Y-113849961D02*
X20343905Y-113754723D01*
X20343905Y-113754723D02*
X20296286Y-113564247D01*
X20296286Y-113564247D02*
X20296286Y-113421390D01*
X20296286Y-113421390D02*
X20343905Y-113230914D01*
X20343905Y-113230914D02*
X20391524Y-113135676D01*
X20391524Y-113135676D02*
X20486762Y-113040438D01*
X20486762Y-113040438D02*
X20629619Y-112992819D01*
X20629619Y-112992819D02*
X20724857Y-112992819D01*
X20724857Y-112992819D02*
X20867714Y-113040438D01*
X20867714Y-113040438D02*
X20915333Y-113088057D01*
X21248667Y-112992819D02*
X21915333Y-112992819D01*
X21915333Y-112992819D02*
X21486762Y-113992819D01*
X15359142Y-23727580D02*
X15311523Y-23775200D01*
X15311523Y-23775200D02*
X15168666Y-23822819D01*
X15168666Y-23822819D02*
X15073428Y-23822819D01*
X15073428Y-23822819D02*
X14930571Y-23775200D01*
X14930571Y-23775200D02*
X14835333Y-23679961D01*
X14835333Y-23679961D02*
X14787714Y-23584723D01*
X14787714Y-23584723D02*
X14740095Y-23394247D01*
X14740095Y-23394247D02*
X14740095Y-23251390D01*
X14740095Y-23251390D02*
X14787714Y-23060914D01*
X14787714Y-23060914D02*
X14835333Y-22965676D01*
X14835333Y-22965676D02*
X14930571Y-22870438D01*
X14930571Y-22870438D02*
X15073428Y-22822819D01*
X15073428Y-22822819D02*
X15168666Y-22822819D01*
X15168666Y-22822819D02*
X15311523Y-22870438D01*
X15311523Y-22870438D02*
X15359142Y-22918057D01*
X16311523Y-23822819D02*
X15740095Y-23822819D01*
X16025809Y-23822819D02*
X16025809Y-22822819D01*
X16025809Y-22822819D02*
X15930571Y-22965676D01*
X15930571Y-22965676D02*
X15835333Y-23060914D01*
X15835333Y-23060914D02*
X15740095Y-23108533D01*
X16692476Y-22918057D02*
X16740095Y-22870438D01*
X16740095Y-22870438D02*
X16835333Y-22822819D01*
X16835333Y-22822819D02*
X17073428Y-22822819D01*
X17073428Y-22822819D02*
X17168666Y-22870438D01*
X17168666Y-22870438D02*
X17216285Y-22918057D01*
X17216285Y-22918057D02*
X17263904Y-23013295D01*
X17263904Y-23013295D02*
X17263904Y-23108533D01*
X17263904Y-23108533D02*
X17216285Y-23251390D01*
X17216285Y-23251390D02*
X16644857Y-23822819D01*
X16644857Y-23822819D02*
X17263904Y-23822819D01*
X38806571Y-13901009D02*
X38473238Y-13901009D01*
X38473238Y-14424819D02*
X38473238Y-13424819D01*
X38473238Y-13424819D02*
X38949428Y-13424819D01*
X39330381Y-14424819D02*
X39330381Y-13424819D01*
X39806571Y-14424819D02*
X39806571Y-13424819D01*
X39806571Y-13424819D02*
X40044666Y-13424819D01*
X40044666Y-13424819D02*
X40187523Y-13472438D01*
X40187523Y-13472438D02*
X40282761Y-13567676D01*
X40282761Y-13567676D02*
X40330380Y-13662914D01*
X40330380Y-13662914D02*
X40377999Y-13853390D01*
X40377999Y-13853390D02*
X40377999Y-13996247D01*
X40377999Y-13996247D02*
X40330380Y-14186723D01*
X40330380Y-14186723D02*
X40282761Y-14281961D01*
X40282761Y-14281961D02*
X40187523Y-14377200D01*
X40187523Y-14377200D02*
X40044666Y-14424819D01*
X40044666Y-14424819D02*
X39806571Y-14424819D01*
X41330380Y-14424819D02*
X40758952Y-14424819D01*
X41044666Y-14424819D02*
X41044666Y-13424819D01*
X41044666Y-13424819D02*
X40949428Y-13567676D01*
X40949428Y-13567676D02*
X40854190Y-13662914D01*
X40854190Y-13662914D02*
X40758952Y-13710533D01*
X14652666Y-86322819D02*
X14652666Y-87037104D01*
X14652666Y-87037104D02*
X14605047Y-87179961D01*
X14605047Y-87179961D02*
X14509809Y-87275200D01*
X14509809Y-87275200D02*
X14366952Y-87322819D01*
X14366952Y-87322819D02*
X14271714Y-87322819D01*
X15605047Y-86322819D02*
X15128857Y-86322819D01*
X15128857Y-86322819D02*
X15081238Y-86799009D01*
X15081238Y-86799009D02*
X15128857Y-86751390D01*
X15128857Y-86751390D02*
X15224095Y-86703771D01*
X15224095Y-86703771D02*
X15462190Y-86703771D01*
X15462190Y-86703771D02*
X15557428Y-86751390D01*
X15557428Y-86751390D02*
X15605047Y-86799009D01*
X15605047Y-86799009D02*
X15652666Y-86894247D01*
X15652666Y-86894247D02*
X15652666Y-87132342D01*
X15652666Y-87132342D02*
X15605047Y-87227580D01*
X15605047Y-87227580D02*
X15557428Y-87275200D01*
X15557428Y-87275200D02*
X15462190Y-87322819D01*
X15462190Y-87322819D02*
X15224095Y-87322819D01*
X15224095Y-87322819D02*
X15128857Y-87275200D01*
X15128857Y-87275200D02*
X15081238Y-87227580D01*
X26757333Y-123390819D02*
X26281143Y-123390819D01*
X26281143Y-123390819D02*
X26281143Y-122390819D01*
X27614476Y-123390819D02*
X27043048Y-123390819D01*
X27328762Y-123390819D02*
X27328762Y-122390819D01*
X27328762Y-122390819D02*
X27233524Y-122533676D01*
X27233524Y-122533676D02*
X27138286Y-122628914D01*
X27138286Y-122628914D02*
X27043048Y-122676533D01*
X24725333Y-88497580D02*
X24677714Y-88545200D01*
X24677714Y-88545200D02*
X24534857Y-88592819D01*
X24534857Y-88592819D02*
X24439619Y-88592819D01*
X24439619Y-88592819D02*
X24296762Y-88545200D01*
X24296762Y-88545200D02*
X24201524Y-88449961D01*
X24201524Y-88449961D02*
X24153905Y-88354723D01*
X24153905Y-88354723D02*
X24106286Y-88164247D01*
X24106286Y-88164247D02*
X24106286Y-88021390D01*
X24106286Y-88021390D02*
X24153905Y-87830914D01*
X24153905Y-87830914D02*
X24201524Y-87735676D01*
X24201524Y-87735676D02*
X24296762Y-87640438D01*
X24296762Y-87640438D02*
X24439619Y-87592819D01*
X24439619Y-87592819D02*
X24534857Y-87592819D01*
X24534857Y-87592819D02*
X24677714Y-87640438D01*
X24677714Y-87640438D02*
X24725333Y-87688057D01*
X25296762Y-88021390D02*
X25201524Y-87973771D01*
X25201524Y-87973771D02*
X25153905Y-87926152D01*
X25153905Y-87926152D02*
X25106286Y-87830914D01*
X25106286Y-87830914D02*
X25106286Y-87783295D01*
X25106286Y-87783295D02*
X25153905Y-87688057D01*
X25153905Y-87688057D02*
X25201524Y-87640438D01*
X25201524Y-87640438D02*
X25296762Y-87592819D01*
X25296762Y-87592819D02*
X25487238Y-87592819D01*
X25487238Y-87592819D02*
X25582476Y-87640438D01*
X25582476Y-87640438D02*
X25630095Y-87688057D01*
X25630095Y-87688057D02*
X25677714Y-87783295D01*
X25677714Y-87783295D02*
X25677714Y-87830914D01*
X25677714Y-87830914D02*
X25630095Y-87926152D01*
X25630095Y-87926152D02*
X25582476Y-87973771D01*
X25582476Y-87973771D02*
X25487238Y-88021390D01*
X25487238Y-88021390D02*
X25296762Y-88021390D01*
X25296762Y-88021390D02*
X25201524Y-88069009D01*
X25201524Y-88069009D02*
X25153905Y-88116628D01*
X25153905Y-88116628D02*
X25106286Y-88211866D01*
X25106286Y-88211866D02*
X25106286Y-88402342D01*
X25106286Y-88402342D02*
X25153905Y-88497580D01*
X25153905Y-88497580D02*
X25201524Y-88545200D01*
X25201524Y-88545200D02*
X25296762Y-88592819D01*
X25296762Y-88592819D02*
X25487238Y-88592819D01*
X25487238Y-88592819D02*
X25582476Y-88545200D01*
X25582476Y-88545200D02*
X25630095Y-88497580D01*
X25630095Y-88497580D02*
X25677714Y-88402342D01*
X25677714Y-88402342D02*
X25677714Y-88211866D01*
X25677714Y-88211866D02*
X25630095Y-88116628D01*
X25630095Y-88116628D02*
X25582476Y-88069009D01*
X25582476Y-88069009D02*
X25487238Y-88021390D01*
X24217333Y-98657580D02*
X24169714Y-98705200D01*
X24169714Y-98705200D02*
X24026857Y-98752819D01*
X24026857Y-98752819D02*
X23931619Y-98752819D01*
X23931619Y-98752819D02*
X23788762Y-98705200D01*
X23788762Y-98705200D02*
X23693524Y-98609961D01*
X23693524Y-98609961D02*
X23645905Y-98514723D01*
X23645905Y-98514723D02*
X23598286Y-98324247D01*
X23598286Y-98324247D02*
X23598286Y-98181390D01*
X23598286Y-98181390D02*
X23645905Y-97990914D01*
X23645905Y-97990914D02*
X23693524Y-97895676D01*
X23693524Y-97895676D02*
X23788762Y-97800438D01*
X23788762Y-97800438D02*
X23931619Y-97752819D01*
X23931619Y-97752819D02*
X24026857Y-97752819D01*
X24026857Y-97752819D02*
X24169714Y-97800438D01*
X24169714Y-97800438D02*
X24217333Y-97848057D01*
X24693524Y-98752819D02*
X24884000Y-98752819D01*
X24884000Y-98752819D02*
X24979238Y-98705200D01*
X24979238Y-98705200D02*
X25026857Y-98657580D01*
X25026857Y-98657580D02*
X25122095Y-98514723D01*
X25122095Y-98514723D02*
X25169714Y-98324247D01*
X25169714Y-98324247D02*
X25169714Y-97943295D01*
X25169714Y-97943295D02*
X25122095Y-97848057D01*
X25122095Y-97848057D02*
X25074476Y-97800438D01*
X25074476Y-97800438D02*
X24979238Y-97752819D01*
X24979238Y-97752819D02*
X24788762Y-97752819D01*
X24788762Y-97752819D02*
X24693524Y-97800438D01*
X24693524Y-97800438D02*
X24645905Y-97848057D01*
X24645905Y-97848057D02*
X24598286Y-97943295D01*
X24598286Y-97943295D02*
X24598286Y-98181390D01*
X24598286Y-98181390D02*
X24645905Y-98276628D01*
X24645905Y-98276628D02*
X24693524Y-98324247D01*
X24693524Y-98324247D02*
X24788762Y-98371866D01*
X24788762Y-98371866D02*
X24979238Y-98371866D01*
X24979238Y-98371866D02*
X25074476Y-98324247D01*
X25074476Y-98324247D02*
X25122095Y-98276628D01*
X25122095Y-98276628D02*
X25169714Y-98181390D01*
X38642819Y-115835523D02*
X39357104Y-115835523D01*
X39357104Y-115835523D02*
X39499961Y-115883142D01*
X39499961Y-115883142D02*
X39595200Y-115978380D01*
X39595200Y-115978380D02*
X39642819Y-116121237D01*
X39642819Y-116121237D02*
X39642819Y-116216475D01*
X39642819Y-114835523D02*
X39642819Y-115406951D01*
X39642819Y-115121237D02*
X38642819Y-115121237D01*
X38642819Y-115121237D02*
X38785676Y-115216475D01*
X38785676Y-115216475D02*
X38880914Y-115311713D01*
X38880914Y-115311713D02*
X38928533Y-115406951D01*
X38642819Y-114502189D02*
X38642819Y-113883142D01*
X38642819Y-113883142D02*
X39023771Y-114216475D01*
X39023771Y-114216475D02*
X39023771Y-114073618D01*
X39023771Y-114073618D02*
X39071390Y-113978380D01*
X39071390Y-113978380D02*
X39119009Y-113930761D01*
X39119009Y-113930761D02*
X39214247Y-113883142D01*
X39214247Y-113883142D02*
X39452342Y-113883142D01*
X39452342Y-113883142D02*
X39547580Y-113930761D01*
X39547580Y-113930761D02*
X39595200Y-113978380D01*
X39595200Y-113978380D02*
X39642819Y-114073618D01*
X39642819Y-114073618D02*
X39642819Y-114359332D01*
X39642819Y-114359332D02*
X39595200Y-114454570D01*
X39595200Y-114454570D02*
X39547580Y-114502189D01*
X40250666Y-83751819D02*
X40250666Y-84466104D01*
X40250666Y-84466104D02*
X40203047Y-84608961D01*
X40203047Y-84608961D02*
X40107809Y-84704200D01*
X40107809Y-84704200D02*
X39964952Y-84751819D01*
X39964952Y-84751819D02*
X39869714Y-84751819D01*
X40631619Y-83751819D02*
X41250666Y-83751819D01*
X41250666Y-83751819D02*
X40917333Y-84132771D01*
X40917333Y-84132771D02*
X41060190Y-84132771D01*
X41060190Y-84132771D02*
X41155428Y-84180390D01*
X41155428Y-84180390D02*
X41203047Y-84228009D01*
X41203047Y-84228009D02*
X41250666Y-84323247D01*
X41250666Y-84323247D02*
X41250666Y-84561342D01*
X41250666Y-84561342D02*
X41203047Y-84656580D01*
X41203047Y-84656580D02*
X41155428Y-84704200D01*
X41155428Y-84704200D02*
X41060190Y-84751819D01*
X41060190Y-84751819D02*
X40774476Y-84751819D01*
X40774476Y-84751819D02*
X40679238Y-84704200D01*
X40679238Y-84704200D02*
X40631619Y-84656580D01*
X32432666Y-77432819D02*
X32432666Y-78147104D01*
X32432666Y-78147104D02*
X32385047Y-78289961D01*
X32385047Y-78289961D02*
X32289809Y-78385200D01*
X32289809Y-78385200D02*
X32146952Y-78432819D01*
X32146952Y-78432819D02*
X32051714Y-78432819D01*
X33432666Y-78432819D02*
X32861238Y-78432819D01*
X33146952Y-78432819D02*
X33146952Y-77432819D01*
X33146952Y-77432819D02*
X33051714Y-77575676D01*
X33051714Y-77575676D02*
X32956476Y-77670914D01*
X32956476Y-77670914D02*
X32861238Y-77718533D01*
X22185333Y-105261580D02*
X22137714Y-105309200D01*
X22137714Y-105309200D02*
X21994857Y-105356819D01*
X21994857Y-105356819D02*
X21899619Y-105356819D01*
X21899619Y-105356819D02*
X21756762Y-105309200D01*
X21756762Y-105309200D02*
X21661524Y-105213961D01*
X21661524Y-105213961D02*
X21613905Y-105118723D01*
X21613905Y-105118723D02*
X21566286Y-104928247D01*
X21566286Y-104928247D02*
X21566286Y-104785390D01*
X21566286Y-104785390D02*
X21613905Y-104594914D01*
X21613905Y-104594914D02*
X21661524Y-104499676D01*
X21661524Y-104499676D02*
X21756762Y-104404438D01*
X21756762Y-104404438D02*
X21899619Y-104356819D01*
X21899619Y-104356819D02*
X21994857Y-104356819D01*
X21994857Y-104356819D02*
X22137714Y-104404438D01*
X22137714Y-104404438D02*
X22185333Y-104452057D01*
X23042476Y-104356819D02*
X22852000Y-104356819D01*
X22852000Y-104356819D02*
X22756762Y-104404438D01*
X22756762Y-104404438D02*
X22709143Y-104452057D01*
X22709143Y-104452057D02*
X22613905Y-104594914D01*
X22613905Y-104594914D02*
X22566286Y-104785390D01*
X22566286Y-104785390D02*
X22566286Y-105166342D01*
X22566286Y-105166342D02*
X22613905Y-105261580D01*
X22613905Y-105261580D02*
X22661524Y-105309200D01*
X22661524Y-105309200D02*
X22756762Y-105356819D01*
X22756762Y-105356819D02*
X22947238Y-105356819D01*
X22947238Y-105356819D02*
X23042476Y-105309200D01*
X23042476Y-105309200D02*
X23090095Y-105261580D01*
X23090095Y-105261580D02*
X23137714Y-105166342D01*
X23137714Y-105166342D02*
X23137714Y-104928247D01*
X23137714Y-104928247D02*
X23090095Y-104833009D01*
X23090095Y-104833009D02*
X23042476Y-104785390D01*
X23042476Y-104785390D02*
X22947238Y-104737771D01*
X22947238Y-104737771D02*
X22756762Y-104737771D01*
X22756762Y-104737771D02*
X22661524Y-104785390D01*
X22661524Y-104785390D02*
X22613905Y-104833009D01*
X22613905Y-104833009D02*
X22566286Y-104928247D01*
X15946571Y-13901009D02*
X15613238Y-13901009D01*
X15613238Y-14424819D02*
X15613238Y-13424819D01*
X15613238Y-13424819D02*
X16089428Y-13424819D01*
X16470381Y-14424819D02*
X16470381Y-13424819D01*
X16946571Y-14424819D02*
X16946571Y-13424819D01*
X16946571Y-13424819D02*
X17184666Y-13424819D01*
X17184666Y-13424819D02*
X17327523Y-13472438D01*
X17327523Y-13472438D02*
X17422761Y-13567676D01*
X17422761Y-13567676D02*
X17470380Y-13662914D01*
X17470380Y-13662914D02*
X17517999Y-13853390D01*
X17517999Y-13853390D02*
X17517999Y-13996247D01*
X17517999Y-13996247D02*
X17470380Y-14186723D01*
X17470380Y-14186723D02*
X17422761Y-14281961D01*
X17422761Y-14281961D02*
X17327523Y-14377200D01*
X17327523Y-14377200D02*
X17184666Y-14424819D01*
X17184666Y-14424819D02*
X16946571Y-14424819D01*
X17898952Y-13520057D02*
X17946571Y-13472438D01*
X17946571Y-13472438D02*
X18041809Y-13424819D01*
X18041809Y-13424819D02*
X18279904Y-13424819D01*
X18279904Y-13424819D02*
X18375142Y-13472438D01*
X18375142Y-13472438D02*
X18422761Y-13520057D01*
X18422761Y-13520057D02*
X18470380Y-13615295D01*
X18470380Y-13615295D02*
X18470380Y-13710533D01*
X18470380Y-13710533D02*
X18422761Y-13853390D01*
X18422761Y-13853390D02*
X17851333Y-14424819D01*
X17851333Y-14424819D02*
X18470380Y-14424819D01*
X29416476Y-108166819D02*
X29416476Y-108881104D01*
X29416476Y-108881104D02*
X29368857Y-109023961D01*
X29368857Y-109023961D02*
X29273619Y-109119200D01*
X29273619Y-109119200D02*
X29130762Y-109166819D01*
X29130762Y-109166819D02*
X29035524Y-109166819D01*
X30416476Y-109166819D02*
X29845048Y-109166819D01*
X30130762Y-109166819D02*
X30130762Y-108166819D01*
X30130762Y-108166819D02*
X30035524Y-108309676D01*
X30035524Y-108309676D02*
X29940286Y-108404914D01*
X29940286Y-108404914D02*
X29845048Y-108452533D01*
X31368857Y-109166819D02*
X30797429Y-109166819D01*
X31083143Y-109166819D02*
X31083143Y-108166819D01*
X31083143Y-108166819D02*
X30987905Y-108309676D01*
X30987905Y-108309676D02*
X30892667Y-108404914D01*
X30892667Y-108404914D02*
X30797429Y-108452533D01*
X22439333Y-124057580D02*
X22391714Y-124105200D01*
X22391714Y-124105200D02*
X22248857Y-124152819D01*
X22248857Y-124152819D02*
X22153619Y-124152819D01*
X22153619Y-124152819D02*
X22010762Y-124105200D01*
X22010762Y-124105200D02*
X21915524Y-124009961D01*
X21915524Y-124009961D02*
X21867905Y-123914723D01*
X21867905Y-123914723D02*
X21820286Y-123724247D01*
X21820286Y-123724247D02*
X21820286Y-123581390D01*
X21820286Y-123581390D02*
X21867905Y-123390914D01*
X21867905Y-123390914D02*
X21915524Y-123295676D01*
X21915524Y-123295676D02*
X22010762Y-123200438D01*
X22010762Y-123200438D02*
X22153619Y-123152819D01*
X22153619Y-123152819D02*
X22248857Y-123152819D01*
X22248857Y-123152819D02*
X22391714Y-123200438D01*
X22391714Y-123200438D02*
X22439333Y-123248057D01*
X22772667Y-123152819D02*
X23391714Y-123152819D01*
X23391714Y-123152819D02*
X23058381Y-123533771D01*
X23058381Y-123533771D02*
X23201238Y-123533771D01*
X23201238Y-123533771D02*
X23296476Y-123581390D01*
X23296476Y-123581390D02*
X23344095Y-123629009D01*
X23344095Y-123629009D02*
X23391714Y-123724247D01*
X23391714Y-123724247D02*
X23391714Y-123962342D01*
X23391714Y-123962342D02*
X23344095Y-124057580D01*
X23344095Y-124057580D02*
X23296476Y-124105200D01*
X23296476Y-124105200D02*
X23201238Y-124152819D01*
X23201238Y-124152819D02*
X22915524Y-124152819D01*
X22915524Y-124152819D02*
X22820286Y-124105200D01*
X22820286Y-124105200D02*
X22772667Y-124057580D01*
X22165333Y-96338580D02*
X22117714Y-96386200D01*
X22117714Y-96386200D02*
X21974857Y-96433819D01*
X21974857Y-96433819D02*
X21879619Y-96433819D01*
X21879619Y-96433819D02*
X21736762Y-96386200D01*
X21736762Y-96386200D02*
X21641524Y-96290961D01*
X21641524Y-96290961D02*
X21593905Y-96195723D01*
X21593905Y-96195723D02*
X21546286Y-96005247D01*
X21546286Y-96005247D02*
X21546286Y-95862390D01*
X21546286Y-95862390D02*
X21593905Y-95671914D01*
X21593905Y-95671914D02*
X21641524Y-95576676D01*
X21641524Y-95576676D02*
X21736762Y-95481438D01*
X21736762Y-95481438D02*
X21879619Y-95433819D01*
X21879619Y-95433819D02*
X21974857Y-95433819D01*
X21974857Y-95433819D02*
X22117714Y-95481438D01*
X22117714Y-95481438D02*
X22165333Y-95529057D01*
X23070095Y-95433819D02*
X22593905Y-95433819D01*
X22593905Y-95433819D02*
X22546286Y-95910009D01*
X22546286Y-95910009D02*
X22593905Y-95862390D01*
X22593905Y-95862390D02*
X22689143Y-95814771D01*
X22689143Y-95814771D02*
X22927238Y-95814771D01*
X22927238Y-95814771D02*
X23022476Y-95862390D01*
X23022476Y-95862390D02*
X23070095Y-95910009D01*
X23070095Y-95910009D02*
X23117714Y-96005247D01*
X23117714Y-96005247D02*
X23117714Y-96243342D01*
X23117714Y-96243342D02*
X23070095Y-96338580D01*
X23070095Y-96338580D02*
X23022476Y-96386200D01*
X23022476Y-96386200D02*
X22927238Y-96433819D01*
X22927238Y-96433819D02*
X22689143Y-96433819D01*
X22689143Y-96433819D02*
X22593905Y-96386200D01*
X22593905Y-96386200D02*
X22546286Y-96338580D01*
X32718476Y-115278819D02*
X32718476Y-115993104D01*
X32718476Y-115993104D02*
X32670857Y-116135961D01*
X32670857Y-116135961D02*
X32575619Y-116231200D01*
X32575619Y-116231200D02*
X32432762Y-116278819D01*
X32432762Y-116278819D02*
X32337524Y-116278819D01*
X33718476Y-116278819D02*
X33147048Y-116278819D01*
X33432762Y-116278819D02*
X33432762Y-115278819D01*
X33432762Y-115278819D02*
X33337524Y-115421676D01*
X33337524Y-115421676D02*
X33242286Y-115516914D01*
X33242286Y-115516914D02*
X33147048Y-115564533D01*
X34099429Y-115374057D02*
X34147048Y-115326438D01*
X34147048Y-115326438D02*
X34242286Y-115278819D01*
X34242286Y-115278819D02*
X34480381Y-115278819D01*
X34480381Y-115278819D02*
X34575619Y-115326438D01*
X34575619Y-115326438D02*
X34623238Y-115374057D01*
X34623238Y-115374057D02*
X34670857Y-115469295D01*
X34670857Y-115469295D02*
X34670857Y-115564533D01*
X34670857Y-115564533D02*
X34623238Y-115707390D01*
X34623238Y-115707390D02*
X34051810Y-116278819D01*
X34051810Y-116278819D02*
X34670857Y-116278819D01*
X14398666Y-102832819D02*
X14398666Y-103547104D01*
X14398666Y-103547104D02*
X14351047Y-103689961D01*
X14351047Y-103689961D02*
X14255809Y-103785200D01*
X14255809Y-103785200D02*
X14112952Y-103832819D01*
X14112952Y-103832819D02*
X14017714Y-103832819D01*
X14779619Y-102832819D02*
X15446285Y-102832819D01*
X15446285Y-102832819D02*
X15017714Y-103832819D01*
X40306666Y-93896819D02*
X40306666Y-94611104D01*
X40306666Y-94611104D02*
X40259047Y-94753961D01*
X40259047Y-94753961D02*
X40163809Y-94849200D01*
X40163809Y-94849200D02*
X40020952Y-94896819D01*
X40020952Y-94896819D02*
X39925714Y-94896819D01*
X41211428Y-94230152D02*
X41211428Y-94896819D01*
X40973333Y-93849200D02*
X40735238Y-94563485D01*
X40735238Y-94563485D02*
X41354285Y-94563485D01*
X23487142Y-108817580D02*
X23439523Y-108865200D01*
X23439523Y-108865200D02*
X23296666Y-108912819D01*
X23296666Y-108912819D02*
X23201428Y-108912819D01*
X23201428Y-108912819D02*
X23058571Y-108865200D01*
X23058571Y-108865200D02*
X22963333Y-108769961D01*
X22963333Y-108769961D02*
X22915714Y-108674723D01*
X22915714Y-108674723D02*
X22868095Y-108484247D01*
X22868095Y-108484247D02*
X22868095Y-108341390D01*
X22868095Y-108341390D02*
X22915714Y-108150914D01*
X22915714Y-108150914D02*
X22963333Y-108055676D01*
X22963333Y-108055676D02*
X23058571Y-107960438D01*
X23058571Y-107960438D02*
X23201428Y-107912819D01*
X23201428Y-107912819D02*
X23296666Y-107912819D01*
X23296666Y-107912819D02*
X23439523Y-107960438D01*
X23439523Y-107960438D02*
X23487142Y-108008057D01*
X24439523Y-108912819D02*
X23868095Y-108912819D01*
X24153809Y-108912819D02*
X24153809Y-107912819D01*
X24153809Y-107912819D02*
X24058571Y-108055676D01*
X24058571Y-108055676D02*
X23963333Y-108150914D01*
X23963333Y-108150914D02*
X23868095Y-108198533D01*
X25058571Y-107912819D02*
X25153809Y-107912819D01*
X25153809Y-107912819D02*
X25249047Y-107960438D01*
X25249047Y-107960438D02*
X25296666Y-108008057D01*
X25296666Y-108008057D02*
X25344285Y-108103295D01*
X25344285Y-108103295D02*
X25391904Y-108293771D01*
X25391904Y-108293771D02*
X25391904Y-108531866D01*
X25391904Y-108531866D02*
X25344285Y-108722342D01*
X25344285Y-108722342D02*
X25296666Y-108817580D01*
X25296666Y-108817580D02*
X25249047Y-108865200D01*
X25249047Y-108865200D02*
X25153809Y-108912819D01*
X25153809Y-108912819D02*
X25058571Y-108912819D01*
X25058571Y-108912819D02*
X24963333Y-108865200D01*
X24963333Y-108865200D02*
X24915714Y-108817580D01*
X24915714Y-108817580D02*
X24868095Y-108722342D01*
X24868095Y-108722342D02*
X24820476Y-108531866D01*
X24820476Y-108531866D02*
X24820476Y-108293771D01*
X24820476Y-108293771D02*
X24868095Y-108103295D01*
X24868095Y-108103295D02*
X24915714Y-108008057D01*
X24915714Y-108008057D02*
X24963333Y-107960438D01*
X24963333Y-107960438D02*
X25058571Y-107912819D01*
X16200571Y-136329009D02*
X15867238Y-136329009D01*
X15867238Y-136852819D02*
X15867238Y-135852819D01*
X15867238Y-135852819D02*
X16343428Y-135852819D01*
X16724381Y-136852819D02*
X16724381Y-135852819D01*
X17200571Y-136852819D02*
X17200571Y-135852819D01*
X17200571Y-135852819D02*
X17438666Y-135852819D01*
X17438666Y-135852819D02*
X17581523Y-135900438D01*
X17581523Y-135900438D02*
X17676761Y-135995676D01*
X17676761Y-135995676D02*
X17724380Y-136090914D01*
X17724380Y-136090914D02*
X17771999Y-136281390D01*
X17771999Y-136281390D02*
X17771999Y-136424247D01*
X17771999Y-136424247D02*
X17724380Y-136614723D01*
X17724380Y-136614723D02*
X17676761Y-136709961D01*
X17676761Y-136709961D02*
X17581523Y-136805200D01*
X17581523Y-136805200D02*
X17438666Y-136852819D01*
X17438666Y-136852819D02*
X17200571Y-136852819D01*
X18105333Y-135852819D02*
X18724380Y-135852819D01*
X18724380Y-135852819D02*
X18391047Y-136233771D01*
X18391047Y-136233771D02*
X18533904Y-136233771D01*
X18533904Y-136233771D02*
X18629142Y-136281390D01*
X18629142Y-136281390D02*
X18676761Y-136329009D01*
X18676761Y-136329009D02*
X18724380Y-136424247D01*
X18724380Y-136424247D02*
X18724380Y-136662342D01*
X18724380Y-136662342D02*
X18676761Y-136757580D01*
X18676761Y-136757580D02*
X18629142Y-136805200D01*
X18629142Y-136805200D02*
X18533904Y-136852819D01*
X18533904Y-136852819D02*
X18248190Y-136852819D01*
X18248190Y-136852819D02*
X18152952Y-136805200D01*
X18152952Y-136805200D02*
X18105333Y-136757580D01*
X33551905Y-137360819D02*
X33551905Y-136360819D01*
X33551905Y-136360819D02*
X33932857Y-136360819D01*
X33932857Y-136360819D02*
X34028095Y-136408438D01*
X34028095Y-136408438D02*
X34075714Y-136456057D01*
X34075714Y-136456057D02*
X34123333Y-136551295D01*
X34123333Y-136551295D02*
X34123333Y-136694152D01*
X34123333Y-136694152D02*
X34075714Y-136789390D01*
X34075714Y-136789390D02*
X34028095Y-136837009D01*
X34028095Y-136837009D02*
X33932857Y-136884628D01*
X33932857Y-136884628D02*
X33551905Y-136884628D01*
X35075714Y-137360819D02*
X34504286Y-137360819D01*
X34790000Y-137360819D02*
X34790000Y-136360819D01*
X34790000Y-136360819D02*
X34694762Y-136503676D01*
X34694762Y-136503676D02*
X34599524Y-136598914D01*
X34599524Y-136598914D02*
X34504286Y-136646533D01*
X20153333Y-83417580D02*
X20105714Y-83465200D01*
X20105714Y-83465200D02*
X19962857Y-83512819D01*
X19962857Y-83512819D02*
X19867619Y-83512819D01*
X19867619Y-83512819D02*
X19724762Y-83465200D01*
X19724762Y-83465200D02*
X19629524Y-83369961D01*
X19629524Y-83369961D02*
X19581905Y-83274723D01*
X19581905Y-83274723D02*
X19534286Y-83084247D01*
X19534286Y-83084247D02*
X19534286Y-82941390D01*
X19534286Y-82941390D02*
X19581905Y-82750914D01*
X19581905Y-82750914D02*
X19629524Y-82655676D01*
X19629524Y-82655676D02*
X19724762Y-82560438D01*
X19724762Y-82560438D02*
X19867619Y-82512819D01*
X19867619Y-82512819D02*
X19962857Y-82512819D01*
X19962857Y-82512819D02*
X20105714Y-82560438D01*
X20105714Y-82560438D02*
X20153333Y-82608057D01*
X21010476Y-82846152D02*
X21010476Y-83512819D01*
X20772381Y-82465200D02*
X20534286Y-83179485D01*
X20534286Y-83179485D02*
X21153333Y-83179485D01*
X22185333Y-125676819D02*
X21852000Y-125200628D01*
X21613905Y-125676819D02*
X21613905Y-124676819D01*
X21613905Y-124676819D02*
X21994857Y-124676819D01*
X21994857Y-124676819D02*
X22090095Y-124724438D01*
X22090095Y-124724438D02*
X22137714Y-124772057D01*
X22137714Y-124772057D02*
X22185333Y-124867295D01*
X22185333Y-124867295D02*
X22185333Y-125010152D01*
X22185333Y-125010152D02*
X22137714Y-125105390D01*
X22137714Y-125105390D02*
X22090095Y-125153009D01*
X22090095Y-125153009D02*
X21994857Y-125200628D01*
X21994857Y-125200628D02*
X21613905Y-125200628D01*
X23137714Y-125676819D02*
X22566286Y-125676819D01*
X22852000Y-125676819D02*
X22852000Y-124676819D01*
X22852000Y-124676819D02*
X22756762Y-124819676D01*
X22756762Y-124819676D02*
X22661524Y-124914914D01*
X22661524Y-124914914D02*
X22566286Y-124962533D01*
D11*
%TO.C,J10*%
X26102000Y-100838000D02*
X26102000Y-95698000D01*
X28762000Y-95698000D02*
X26102000Y-95698000D01*
X28762000Y-100838000D02*
X26102000Y-100838000D01*
X28762000Y-100838000D02*
X28762000Y-95698000D01*
X28762000Y-102108000D02*
X28762000Y-103438000D01*
X28762000Y-103438000D02*
X27432000Y-103438000D01*
%TO.C,U1*%
X14502000Y-76700560D02*
X42901999Y-76700560D01*
X14502001Y-28780560D02*
X14502000Y-76700560D01*
X19732120Y-22867440D02*
X37715320Y-22867440D01*
X19732120Y-28760240D02*
X19732120Y-22867440D01*
X37715320Y-22867440D02*
X37715320Y-28760240D01*
X42901999Y-76700560D02*
X42902000Y-28780560D01*
X42902000Y-28780560D02*
X14502001Y-28780560D01*
%TO.C,J9*%
X26102000Y-90663000D02*
X26102000Y-85523000D01*
X28762000Y-85523000D02*
X26102000Y-85523000D01*
X28762000Y-90663000D02*
X26102000Y-90663000D01*
X28762000Y-90663000D02*
X28762000Y-85523000D01*
X28762000Y-91933000D02*
X28762000Y-93263000D01*
X28762000Y-93263000D02*
X27432000Y-93263000D01*
%TO.C,C11*%
X19476000Y-78034000D02*
X19476000Y-79954000D01*
X19476000Y-79954000D02*
X22336000Y-79954000D01*
X22336000Y-78034000D02*
X19476000Y-78034000D01*
%TO.C,C2*%
X31552000Y-121838000D02*
X31552000Y-124698000D01*
X33472000Y-121838000D02*
X31552000Y-121838000D01*
X33472000Y-124698000D02*
X33472000Y-121838000D01*
%TO.C,R2*%
X19077000Y-127534936D02*
X19077000Y-127989064D01*
X20547000Y-127534936D02*
X20547000Y-127989064D01*
%TO.C,C1*%
X33054113Y-126541000D02*
X33554113Y-126541000D01*
X33304113Y-126291000D02*
X33304113Y-126791000D01*
X35858888Y-125436000D02*
X35858888Y-126976000D01*
X35858888Y-129056000D02*
X35858888Y-130596000D01*
X35898888Y-125436000D02*
X35898888Y-126976000D01*
X35898888Y-129056000D02*
X35898888Y-130596000D01*
X35938888Y-125437000D02*
X35938888Y-126976000D01*
X35938888Y-129056000D02*
X35938888Y-130595000D01*
X35978888Y-125438000D02*
X35978888Y-126976000D01*
X35978888Y-129056000D02*
X35978888Y-130594000D01*
X36018888Y-125440000D02*
X36018888Y-126976000D01*
X36018888Y-129056000D02*
X36018888Y-130592000D01*
X36058888Y-125443000D02*
X36058888Y-126976000D01*
X36058888Y-129056000D02*
X36058888Y-130589000D01*
X36098888Y-125447000D02*
X36098888Y-126976000D01*
X36098888Y-129056000D02*
X36098888Y-130585000D01*
X36138888Y-125451000D02*
X36138888Y-126976000D01*
X36138888Y-129056000D02*
X36138888Y-130581000D01*
X36178888Y-125455000D02*
X36178888Y-126976000D01*
X36178888Y-129056000D02*
X36178888Y-130577000D01*
X36218888Y-125460000D02*
X36218888Y-126976000D01*
X36218888Y-129056000D02*
X36218888Y-130572000D01*
X36258888Y-125466000D02*
X36258888Y-126976000D01*
X36258888Y-129056000D02*
X36258888Y-130566000D01*
X36298888Y-125473000D02*
X36298888Y-126976000D01*
X36298888Y-129056000D02*
X36298888Y-130559000D01*
X36338888Y-125480000D02*
X36338888Y-126976000D01*
X36338888Y-129056000D02*
X36338888Y-130552000D01*
X36378888Y-125488000D02*
X36378888Y-126976000D01*
X36378888Y-129056000D02*
X36378888Y-130544000D01*
X36418888Y-125496000D02*
X36418888Y-126976000D01*
X36418888Y-129056000D02*
X36418888Y-130536000D01*
X36458888Y-125505000D02*
X36458888Y-126976000D01*
X36458888Y-129056000D02*
X36458888Y-130527000D01*
X36498888Y-125515000D02*
X36498888Y-126976000D01*
X36498888Y-129056000D02*
X36498888Y-130517000D01*
X36538888Y-125525000D02*
X36538888Y-126976000D01*
X36538888Y-129056000D02*
X36538888Y-130507000D01*
X36579888Y-125536000D02*
X36579888Y-126976000D01*
X36579888Y-129056000D02*
X36579888Y-130496000D01*
X36619888Y-125548000D02*
X36619888Y-126976000D01*
X36619888Y-129056000D02*
X36619888Y-130484000D01*
X36659888Y-125561000D02*
X36659888Y-126976000D01*
X36659888Y-129056000D02*
X36659888Y-130471000D01*
X36699888Y-125574000D02*
X36699888Y-126976000D01*
X36699888Y-129056000D02*
X36699888Y-130458000D01*
X36739888Y-125588000D02*
X36739888Y-126976000D01*
X36739888Y-129056000D02*
X36739888Y-130444000D01*
X36779888Y-125602000D02*
X36779888Y-126976000D01*
X36779888Y-129056000D02*
X36779888Y-130430000D01*
X36819888Y-125618000D02*
X36819888Y-126976000D01*
X36819888Y-129056000D02*
X36819888Y-130414000D01*
X36859888Y-125634000D02*
X36859888Y-126976000D01*
X36859888Y-129056000D02*
X36859888Y-130398000D01*
X36899888Y-125651000D02*
X36899888Y-126976000D01*
X36899888Y-129056000D02*
X36899888Y-130381000D01*
X36939888Y-125668000D02*
X36939888Y-126976000D01*
X36939888Y-129056000D02*
X36939888Y-130364000D01*
X36979888Y-125687000D02*
X36979888Y-126976000D01*
X36979888Y-129056000D02*
X36979888Y-130345000D01*
X37019888Y-125706000D02*
X37019888Y-126976000D01*
X37019888Y-129056000D02*
X37019888Y-130326000D01*
X37059888Y-125726000D02*
X37059888Y-126976000D01*
X37059888Y-129056000D02*
X37059888Y-130306000D01*
X37099888Y-125748000D02*
X37099888Y-126976000D01*
X37099888Y-129056000D02*
X37099888Y-130284000D01*
X37139888Y-125769000D02*
X37139888Y-126976000D01*
X37139888Y-129056000D02*
X37139888Y-130263000D01*
X37179888Y-125792000D02*
X37179888Y-126976000D01*
X37179888Y-129056000D02*
X37179888Y-130240000D01*
X37219888Y-125816000D02*
X37219888Y-126976000D01*
X37219888Y-129056000D02*
X37219888Y-130216000D01*
X37259888Y-125841000D02*
X37259888Y-126976000D01*
X37259888Y-129056000D02*
X37259888Y-130191000D01*
X37299888Y-125867000D02*
X37299888Y-126976000D01*
X37299888Y-129056000D02*
X37299888Y-130165000D01*
X37339888Y-125894000D02*
X37339888Y-126976000D01*
X37339888Y-129056000D02*
X37339888Y-130138000D01*
X37379888Y-125921000D02*
X37379888Y-126976000D01*
X37379888Y-129056000D02*
X37379888Y-130111000D01*
X37419888Y-125951000D02*
X37419888Y-126976000D01*
X37419888Y-129056000D02*
X37419888Y-130081000D01*
X37459888Y-125981000D02*
X37459888Y-126976000D01*
X37459888Y-129056000D02*
X37459888Y-130051000D01*
X37499888Y-126012000D02*
X37499888Y-126976000D01*
X37499888Y-129056000D02*
X37499888Y-130020000D01*
X37539888Y-126045000D02*
X37539888Y-126976000D01*
X37539888Y-129056000D02*
X37539888Y-129987000D01*
X37579888Y-126079000D02*
X37579888Y-126976000D01*
X37579888Y-129056000D02*
X37579888Y-129953000D01*
X37619888Y-126115000D02*
X37619888Y-126976000D01*
X37619888Y-129056000D02*
X37619888Y-129917000D01*
X37659888Y-126152000D02*
X37659888Y-126976000D01*
X37659888Y-129056000D02*
X37659888Y-129880000D01*
X37699888Y-126190000D02*
X37699888Y-126976000D01*
X37699888Y-129056000D02*
X37699888Y-129842000D01*
X37739888Y-126231000D02*
X37739888Y-126976000D01*
X37739888Y-129056000D02*
X37739888Y-129801000D01*
X37779888Y-126273000D02*
X37779888Y-126976000D01*
X37779888Y-129056000D02*
X37779888Y-129759000D01*
X37819888Y-126317000D02*
X37819888Y-126976000D01*
X37819888Y-129056000D02*
X37819888Y-129715000D01*
X37859888Y-126363000D02*
X37859888Y-126976000D01*
X37859888Y-129056000D02*
X37859888Y-129669000D01*
X37899888Y-126411000D02*
X37899888Y-129621000D01*
X37939888Y-126462000D02*
X37939888Y-129570000D01*
X37979888Y-126516000D02*
X37979888Y-129516000D01*
X38019888Y-126573000D02*
X38019888Y-129459000D01*
X38059888Y-126633000D02*
X38059888Y-129399000D01*
X38099888Y-126697000D02*
X38099888Y-129335000D01*
X38139888Y-126765000D02*
X38139888Y-129267000D01*
X38179888Y-126838000D02*
X38179888Y-129194000D01*
X38219888Y-126918000D02*
X38219888Y-129114000D01*
X38259888Y-127005000D02*
X38259888Y-129027000D01*
X38299888Y-127101000D02*
X38299888Y-128931000D01*
X38339888Y-127211000D02*
X38339888Y-128821000D01*
X38379888Y-127339000D02*
X38379888Y-128693000D01*
X38419888Y-127498000D02*
X38419888Y-128534000D01*
X38459888Y-127732000D02*
X38459888Y-128300000D01*
X38478888Y-128016000D02*
G75*
G02*
X33238888Y-128016000I-2620000J0D01*
G01*
X33238888Y-128016000D02*
G75*
G02*
X38478888Y-128016000I2620000J0D01*
G01*
%TO.C,F1*%
X28099936Y-126656000D02*
X29304064Y-126656000D01*
X28099936Y-129376000D02*
X29304064Y-129376000D01*
%TO.C,J8*%
X15942000Y-116078000D02*
X15942000Y-110938000D01*
X18602000Y-110938000D02*
X15942000Y-110938000D01*
X18602000Y-116078000D02*
X15942000Y-116078000D01*
X18602000Y-116078000D02*
X18602000Y-110938000D01*
X18602000Y-117348000D02*
X18602000Y-118678000D01*
X18602000Y-118678000D02*
X17272000Y-118678000D01*
%TO.C,C7*%
X19360000Y-114472000D02*
X19360000Y-117332000D01*
X21280000Y-114472000D02*
X19360000Y-114472000D01*
X21280000Y-117332000D02*
X21280000Y-114472000D01*
%TO.C,C12*%
X15042000Y-24556000D02*
X15042000Y-27416000D01*
X16962000Y-24556000D02*
X15042000Y-24556000D01*
X16962000Y-27416000D02*
X16962000Y-24556000D01*
%TO.C,J5*%
X15942000Y-85583000D02*
X15942000Y-80443000D01*
X18602000Y-80443000D02*
X15942000Y-80443000D01*
X18602000Y-85583000D02*
X15942000Y-85583000D01*
X18602000Y-85583000D02*
X18602000Y-80443000D01*
X18602000Y-86853000D02*
X18602000Y-88183000D01*
X18602000Y-88183000D02*
X17272000Y-88183000D01*
%TO.C,L1*%
X26842000Y-123754000D02*
X26842000Y-125674000D01*
X26842000Y-125674000D02*
X29702000Y-125674000D01*
X29702000Y-123754000D02*
X26842000Y-123754000D01*
%TO.C,C8*%
X23424000Y-89072000D02*
X23424000Y-91932000D01*
X25344000Y-89072000D02*
X23424000Y-89072000D01*
X25344000Y-91932000D02*
X25344000Y-89072000D01*
%TO.C,C9*%
X23424000Y-99232000D02*
X23424000Y-102092000D01*
X25344000Y-99232000D02*
X23424000Y-99232000D01*
X25344000Y-102092000D02*
X25344000Y-99232000D01*
%TO.C,J13*%
X40078000Y-116126000D02*
X40078000Y-116786000D01*
X40278000Y-110766000D02*
X44638000Y-110766000D01*
X40278000Y-113266000D02*
X40278000Y-110766000D01*
X40278000Y-116786000D02*
X40078000Y-116786000D01*
X40278000Y-119286000D02*
X40278000Y-116786000D01*
X40278000Y-119286000D02*
X44638000Y-119286000D01*
%TO.C,J3*%
X39310000Y-90678000D02*
X39310000Y-85538000D01*
X41970000Y-85538000D02*
X39310000Y-85538000D01*
X41970000Y-90678000D02*
X39310000Y-90678000D01*
X41970000Y-90678000D02*
X41970000Y-85538000D01*
X41970000Y-91948000D02*
X41970000Y-93278000D01*
X41970000Y-93278000D02*
X40640000Y-93278000D01*
%TO.C,C6*%
X19360000Y-104312000D02*
X19360000Y-107172000D01*
X21280000Y-104312000D02*
X19360000Y-104312000D01*
X21280000Y-107172000D02*
X21280000Y-104312000D01*
%TO.C,J11*%
X26102000Y-110998000D02*
X26102000Y-105858000D01*
X28762000Y-105858000D02*
X26102000Y-105858000D01*
X28762000Y-110998000D02*
X26102000Y-110998000D01*
X28762000Y-110998000D02*
X28762000Y-105858000D01*
X28762000Y-112268000D02*
X28762000Y-113598000D01*
X28762000Y-113598000D02*
X27432000Y-113598000D01*
%TO.C,C3*%
X23932000Y-121838000D02*
X23932000Y-124698000D01*
X25852000Y-121838000D02*
X23932000Y-121838000D01*
X25852000Y-124698000D02*
X25852000Y-121838000D01*
%TO.C,J6*%
X15942000Y-95758000D02*
X15942000Y-90618000D01*
X18602000Y-90618000D02*
X15942000Y-90618000D01*
X18602000Y-95758000D02*
X15942000Y-95758000D01*
X18602000Y-95758000D02*
X18602000Y-90618000D01*
X18602000Y-97028000D02*
X18602000Y-98358000D01*
X18602000Y-98358000D02*
X17272000Y-98358000D01*
%TO.C,C5*%
X19360000Y-94152000D02*
X19360000Y-97012000D01*
X21280000Y-94152000D02*
X19360000Y-94152000D01*
X21280000Y-97012000D02*
X21280000Y-94152000D01*
%TO.C,J7*%
X15942000Y-105918000D02*
X15942000Y-100778000D01*
X18602000Y-100778000D02*
X15942000Y-100778000D01*
X18602000Y-105918000D02*
X15942000Y-105918000D01*
X18602000Y-105918000D02*
X18602000Y-100778000D01*
X18602000Y-107188000D02*
X18602000Y-108518000D01*
X18602000Y-108518000D02*
X17272000Y-108518000D01*
%TO.C,J4*%
X39310000Y-100838000D02*
X39310000Y-95698000D01*
X41970000Y-95698000D02*
X39310000Y-95698000D01*
X41970000Y-100838000D02*
X39310000Y-100838000D01*
X41970000Y-100838000D02*
X41970000Y-95698000D01*
X41970000Y-102108000D02*
X41970000Y-103438000D01*
X41970000Y-103438000D02*
X40640000Y-103438000D01*
%TO.C,C10*%
X23424000Y-109392000D02*
X23424000Y-112252000D01*
X25344000Y-109392000D02*
X23424000Y-109392000D01*
X25344000Y-112252000D02*
X25344000Y-109392000D01*
%TO.C,P1*%
X23270000Y-135790000D02*
X23270000Y-134090000D01*
X32610000Y-135790000D02*
X32610000Y-134090000D01*
%TO.C,C4*%
X19360000Y-83992000D02*
X19360000Y-86852000D01*
X21280000Y-83992000D02*
X19360000Y-83992000D01*
X21280000Y-86852000D02*
X21280000Y-83992000D01*
%TO.C,R1*%
X21617000Y-127534936D02*
X21617000Y-127989064D01*
X23087000Y-127534936D02*
X23087000Y-127989064D01*
%TD*%
M02*
