%TF.GenerationSoftware,KiCad,Pcbnew,8.0.3*%
%TF.CreationDate,2024-07-18T19:56:29+02:00*%
%TF.ProjectId,7Analyzer,37416e61-6c79-47a6-9572-2e6b69636164,rev?*%
%TF.SameCoordinates,Original*%
%TF.FileFunction,Legend,Top*%
%TF.FilePolarity,Positive*%
%FSLAX46Y46*%
G04 Gerber Fmt 4.6, Leading zero omitted, Abs format (unit mm)*
G04 Created by KiCad (PCBNEW 8.0.3) date 2024-07-18 19:56:29*
%MOMM*%
%LPD*%
G01*
G04 APERTURE LIST*
%ADD10C,0.150000*%
%ADD11C,0.120000*%
G04 APERTURE END LIST*
D10*
X26590666Y-25108819D02*
X26590666Y-25823104D01*
X26590666Y-25823104D02*
X26543047Y-25965961D01*
X26543047Y-25965961D02*
X26447809Y-26061200D01*
X26447809Y-26061200D02*
X26304952Y-26108819D01*
X26304952Y-26108819D02*
X26209714Y-26108819D01*
X27019238Y-25204057D02*
X27066857Y-25156438D01*
X27066857Y-25156438D02*
X27162095Y-25108819D01*
X27162095Y-25108819D02*
X27400190Y-25108819D01*
X27400190Y-25108819D02*
X27495428Y-25156438D01*
X27495428Y-25156438D02*
X27543047Y-25204057D01*
X27543047Y-25204057D02*
X27590666Y-25299295D01*
X27590666Y-25299295D02*
X27590666Y-25394533D01*
X27590666Y-25394533D02*
X27543047Y-25537390D01*
X27543047Y-25537390D02*
X26971619Y-26108819D01*
X26971619Y-26108819D02*
X27590666Y-26108819D01*
X52498666Y-62010819D02*
X52498666Y-62725104D01*
X52498666Y-62725104D02*
X52451047Y-62867961D01*
X52451047Y-62867961D02*
X52355809Y-62963200D01*
X52355809Y-62963200D02*
X52212952Y-63010819D01*
X52212952Y-63010819D02*
X52117714Y-63010819D01*
X53498666Y-63010819D02*
X52927238Y-63010819D01*
X53212952Y-63010819D02*
X53212952Y-62010819D01*
X53212952Y-62010819D02*
X53117714Y-62153676D01*
X53117714Y-62153676D02*
X53022476Y-62248914D01*
X53022476Y-62248914D02*
X52927238Y-62296533D01*
X24336476Y-65454819D02*
X24336476Y-66169104D01*
X24336476Y-66169104D02*
X24288857Y-66311961D01*
X24288857Y-66311961D02*
X24193619Y-66407200D01*
X24193619Y-66407200D02*
X24050762Y-66454819D01*
X24050762Y-66454819D02*
X23955524Y-66454819D01*
X25336476Y-66454819D02*
X24765048Y-66454819D01*
X25050762Y-66454819D02*
X25050762Y-65454819D01*
X25050762Y-65454819D02*
X24955524Y-65597676D01*
X24955524Y-65597676D02*
X24860286Y-65692914D01*
X24860286Y-65692914D02*
X24765048Y-65740533D01*
X25955524Y-65454819D02*
X26050762Y-65454819D01*
X26050762Y-65454819D02*
X26146000Y-65502438D01*
X26146000Y-65502438D02*
X26193619Y-65550057D01*
X26193619Y-65550057D02*
X26241238Y-65645295D01*
X26241238Y-65645295D02*
X26288857Y-65835771D01*
X26288857Y-65835771D02*
X26288857Y-66073866D01*
X26288857Y-66073866D02*
X26241238Y-66264342D01*
X26241238Y-66264342D02*
X26193619Y-66359580D01*
X26193619Y-66359580D02*
X26146000Y-66407200D01*
X26146000Y-66407200D02*
X26050762Y-66454819D01*
X26050762Y-66454819D02*
X25955524Y-66454819D01*
X25955524Y-66454819D02*
X25860286Y-66407200D01*
X25860286Y-66407200D02*
X25812667Y-66359580D01*
X25812667Y-66359580D02*
X25765048Y-66264342D01*
X25765048Y-66264342D02*
X25717429Y-66073866D01*
X25717429Y-66073866D02*
X25717429Y-65835771D01*
X25717429Y-65835771D02*
X25765048Y-65645295D01*
X25765048Y-65645295D02*
X25812667Y-65550057D01*
X25812667Y-65550057D02*
X25860286Y-65502438D01*
X25860286Y-65502438D02*
X25955524Y-65454819D01*
X28398095Y-30586259D02*
X28398095Y-31395782D01*
X28398095Y-31395782D02*
X28445714Y-31491020D01*
X28445714Y-31491020D02*
X28493333Y-31538640D01*
X28493333Y-31538640D02*
X28588571Y-31586259D01*
X28588571Y-31586259D02*
X28779047Y-31586259D01*
X28779047Y-31586259D02*
X28874285Y-31538640D01*
X28874285Y-31538640D02*
X28921904Y-31491020D01*
X28921904Y-31491020D02*
X28969523Y-31395782D01*
X28969523Y-31395782D02*
X28969523Y-30586259D01*
X29969523Y-31586259D02*
X29398095Y-31586259D01*
X29683809Y-31586259D02*
X29683809Y-30586259D01*
X29683809Y-30586259D02*
X29588571Y-30729116D01*
X29588571Y-30729116D02*
X29493333Y-30824354D01*
X29493333Y-30824354D02*
X29398095Y-30871973D01*
X39555009Y-37345237D02*
X39555009Y-37011904D01*
X40078819Y-36869047D02*
X40078819Y-37345237D01*
X40078819Y-37345237D02*
X39078819Y-37345237D01*
X39078819Y-37345237D02*
X39078819Y-36869047D01*
X40031200Y-36488094D02*
X40078819Y-36345237D01*
X40078819Y-36345237D02*
X40078819Y-36107142D01*
X40078819Y-36107142D02*
X40031200Y-36011904D01*
X40031200Y-36011904D02*
X39983580Y-35964285D01*
X39983580Y-35964285D02*
X39888342Y-35916666D01*
X39888342Y-35916666D02*
X39793104Y-35916666D01*
X39793104Y-35916666D02*
X39697866Y-35964285D01*
X39697866Y-35964285D02*
X39650247Y-36011904D01*
X39650247Y-36011904D02*
X39602628Y-36107142D01*
X39602628Y-36107142D02*
X39555009Y-36297618D01*
X39555009Y-36297618D02*
X39507390Y-36392856D01*
X39507390Y-36392856D02*
X39459771Y-36440475D01*
X39459771Y-36440475D02*
X39364533Y-36488094D01*
X39364533Y-36488094D02*
X39269295Y-36488094D01*
X39269295Y-36488094D02*
X39174057Y-36440475D01*
X39174057Y-36440475D02*
X39126438Y-36392856D01*
X39126438Y-36392856D02*
X39078819Y-36297618D01*
X39078819Y-36297618D02*
X39078819Y-36059523D01*
X39078819Y-36059523D02*
X39126438Y-35916666D01*
X40078819Y-35488094D02*
X39078819Y-35488094D01*
X39078819Y-35488094D02*
X39078819Y-35107142D01*
X39078819Y-35107142D02*
X39126438Y-35011904D01*
X39126438Y-35011904D02*
X39174057Y-34964285D01*
X39174057Y-34964285D02*
X39269295Y-34916666D01*
X39269295Y-34916666D02*
X39412152Y-34916666D01*
X39412152Y-34916666D02*
X39507390Y-34964285D01*
X39507390Y-34964285D02*
X39555009Y-35011904D01*
X39555009Y-35011904D02*
X39602628Y-35107142D01*
X39602628Y-35107142D02*
X39602628Y-35488094D01*
X39078819Y-34583332D02*
X39078819Y-33964285D01*
X39078819Y-33964285D02*
X39459771Y-34297618D01*
X39459771Y-34297618D02*
X39459771Y-34154761D01*
X39459771Y-34154761D02*
X39507390Y-34059523D01*
X39507390Y-34059523D02*
X39555009Y-34011904D01*
X39555009Y-34011904D02*
X39650247Y-33964285D01*
X39650247Y-33964285D02*
X39888342Y-33964285D01*
X39888342Y-33964285D02*
X39983580Y-34011904D01*
X39983580Y-34011904D02*
X40031200Y-34059523D01*
X40031200Y-34059523D02*
X40078819Y-34154761D01*
X40078819Y-34154761D02*
X40078819Y-34440475D01*
X40078819Y-34440475D02*
X40031200Y-34535713D01*
X40031200Y-34535713D02*
X39983580Y-34583332D01*
X39174057Y-33583332D02*
X39126438Y-33535713D01*
X39126438Y-33535713D02*
X39078819Y-33440475D01*
X39078819Y-33440475D02*
X39078819Y-33202380D01*
X39078819Y-33202380D02*
X39126438Y-33107142D01*
X39126438Y-33107142D02*
X39174057Y-33059523D01*
X39174057Y-33059523D02*
X39269295Y-33011904D01*
X39269295Y-33011904D02*
X39364533Y-33011904D01*
X39364533Y-33011904D02*
X39507390Y-33059523D01*
X39507390Y-33059523D02*
X40078819Y-33630951D01*
X40078819Y-33630951D02*
X40078819Y-33011904D01*
X39697866Y-32583332D02*
X39697866Y-31821428D01*
X40078819Y-31345237D02*
X39078819Y-31345237D01*
X39078819Y-31345237D02*
X39078819Y-31107142D01*
X39078819Y-31107142D02*
X39126438Y-30964285D01*
X39126438Y-30964285D02*
X39221676Y-30869047D01*
X39221676Y-30869047D02*
X39316914Y-30821428D01*
X39316914Y-30821428D02*
X39507390Y-30773809D01*
X39507390Y-30773809D02*
X39650247Y-30773809D01*
X39650247Y-30773809D02*
X39840723Y-30821428D01*
X39840723Y-30821428D02*
X39935961Y-30869047D01*
X39935961Y-30869047D02*
X40031200Y-30964285D01*
X40031200Y-30964285D02*
X40078819Y-31107142D01*
X40078819Y-31107142D02*
X40078819Y-31345237D01*
X40031200Y-29964285D02*
X40078819Y-30059523D01*
X40078819Y-30059523D02*
X40078819Y-30249999D01*
X40078819Y-30249999D02*
X40031200Y-30345237D01*
X40031200Y-30345237D02*
X39935961Y-30392856D01*
X39935961Y-30392856D02*
X39555009Y-30392856D01*
X39555009Y-30392856D02*
X39459771Y-30345237D01*
X39459771Y-30345237D02*
X39412152Y-30249999D01*
X39412152Y-30249999D02*
X39412152Y-30059523D01*
X39412152Y-30059523D02*
X39459771Y-29964285D01*
X39459771Y-29964285D02*
X39555009Y-29916666D01*
X39555009Y-29916666D02*
X39650247Y-29916666D01*
X39650247Y-29916666D02*
X39745485Y-30392856D01*
X39412152Y-29583332D02*
X40078819Y-29345237D01*
X40078819Y-29345237D02*
X39412152Y-29107142D01*
X40078819Y-28726189D02*
X39078819Y-28726189D01*
X40078819Y-28154761D02*
X39507390Y-28583332D01*
X39078819Y-28154761D02*
X39650247Y-28726189D01*
X40078819Y-27726189D02*
X39412152Y-27726189D01*
X39078819Y-27726189D02*
X39126438Y-27773808D01*
X39126438Y-27773808D02*
X39174057Y-27726189D01*
X39174057Y-27726189D02*
X39126438Y-27678570D01*
X39126438Y-27678570D02*
X39078819Y-27726189D01*
X39078819Y-27726189D02*
X39174057Y-27726189D01*
X39412152Y-27392856D02*
X39412152Y-27011904D01*
X39078819Y-27249999D02*
X39935961Y-27249999D01*
X39935961Y-27249999D02*
X40031200Y-27202380D01*
X40031200Y-27202380D02*
X40078819Y-27107142D01*
X40078819Y-27107142D02*
X40078819Y-27011904D01*
X39983580Y-26107142D02*
X40031200Y-26154761D01*
X40031200Y-26154761D02*
X40078819Y-26297618D01*
X40078819Y-26297618D02*
X40078819Y-26392856D01*
X40078819Y-26392856D02*
X40031200Y-26535713D01*
X40031200Y-26535713D02*
X39935961Y-26630951D01*
X39935961Y-26630951D02*
X39840723Y-26678570D01*
X39840723Y-26678570D02*
X39650247Y-26726189D01*
X39650247Y-26726189D02*
X39507390Y-26726189D01*
X39507390Y-26726189D02*
X39316914Y-26678570D01*
X39316914Y-26678570D02*
X39221676Y-26630951D01*
X39221676Y-26630951D02*
X39126438Y-26535713D01*
X39126438Y-26535713D02*
X39078819Y-26392856D01*
X39078819Y-26392856D02*
X39078819Y-26297618D01*
X39078819Y-26297618D02*
X39126438Y-26154761D01*
X39126438Y-26154761D02*
X39174057Y-26107142D01*
X33906017Y-30129366D02*
X33839350Y-30096033D01*
X33839350Y-30096033D02*
X33739350Y-30096033D01*
X33739350Y-30096033D02*
X33639350Y-30129366D01*
X33639350Y-30129366D02*
X33572684Y-30196033D01*
X33572684Y-30196033D02*
X33539350Y-30262700D01*
X33539350Y-30262700D02*
X33506017Y-30396033D01*
X33506017Y-30396033D02*
X33506017Y-30496033D01*
X33506017Y-30496033D02*
X33539350Y-30629366D01*
X33539350Y-30629366D02*
X33572684Y-30696033D01*
X33572684Y-30696033D02*
X33639350Y-30762700D01*
X33639350Y-30762700D02*
X33739350Y-30796033D01*
X33739350Y-30796033D02*
X33806017Y-30796033D01*
X33806017Y-30796033D02*
X33906017Y-30762700D01*
X33906017Y-30762700D02*
X33939350Y-30729366D01*
X33939350Y-30729366D02*
X33939350Y-30496033D01*
X33939350Y-30496033D02*
X33806017Y-30496033D01*
X34239350Y-30796033D02*
X34239350Y-30096033D01*
X34239350Y-30096033D02*
X34506017Y-30096033D01*
X34506017Y-30096033D02*
X34572684Y-30129366D01*
X34572684Y-30129366D02*
X34606017Y-30162700D01*
X34606017Y-30162700D02*
X34639350Y-30229366D01*
X34639350Y-30229366D02*
X34639350Y-30329366D01*
X34639350Y-30329366D02*
X34606017Y-30396033D01*
X34606017Y-30396033D02*
X34572684Y-30429366D01*
X34572684Y-30429366D02*
X34506017Y-30462700D01*
X34506017Y-30462700D02*
X34239350Y-30462700D01*
X34939350Y-30796033D02*
X34939350Y-30096033D01*
X35406017Y-30096033D02*
X35539350Y-30096033D01*
X35539350Y-30096033D02*
X35606017Y-30129366D01*
X35606017Y-30129366D02*
X35672683Y-30196033D01*
X35672683Y-30196033D02*
X35706017Y-30329366D01*
X35706017Y-30329366D02*
X35706017Y-30562700D01*
X35706017Y-30562700D02*
X35672683Y-30696033D01*
X35672683Y-30696033D02*
X35606017Y-30762700D01*
X35606017Y-30762700D02*
X35539350Y-30796033D01*
X35539350Y-30796033D02*
X35406017Y-30796033D01*
X35406017Y-30796033D02*
X35339350Y-30762700D01*
X35339350Y-30762700D02*
X35272683Y-30696033D01*
X35272683Y-30696033D02*
X35239350Y-30562700D01*
X35239350Y-30562700D02*
X35239350Y-30329366D01*
X35239350Y-30329366D02*
X35272683Y-30196033D01*
X35272683Y-30196033D02*
X35339350Y-30129366D01*
X35339350Y-30129366D02*
X35406017Y-30096033D01*
X35939350Y-30096033D02*
X36372683Y-30096033D01*
X36372683Y-30096033D02*
X36139350Y-30362700D01*
X36139350Y-30362700D02*
X36239350Y-30362700D01*
X36239350Y-30362700D02*
X36306016Y-30396033D01*
X36306016Y-30396033D02*
X36339350Y-30429366D01*
X36339350Y-30429366D02*
X36372683Y-30496033D01*
X36372683Y-30496033D02*
X36372683Y-30662700D01*
X36372683Y-30662700D02*
X36339350Y-30729366D01*
X36339350Y-30729366D02*
X36306016Y-30762700D01*
X36306016Y-30762700D02*
X36239350Y-30796033D01*
X36239350Y-30796033D02*
X36039350Y-30796033D01*
X36039350Y-30796033D02*
X35972683Y-30762700D01*
X35972683Y-30762700D02*
X35939350Y-30729366D01*
X36639350Y-30162700D02*
X36672683Y-30129366D01*
X36672683Y-30129366D02*
X36739350Y-30096033D01*
X36739350Y-30096033D02*
X36906017Y-30096033D01*
X36906017Y-30096033D02*
X36972683Y-30129366D01*
X36972683Y-30129366D02*
X37006017Y-30162700D01*
X37006017Y-30162700D02*
X37039350Y-30229366D01*
X37039350Y-30229366D02*
X37039350Y-30296033D01*
X37039350Y-30296033D02*
X37006017Y-30396033D01*
X37006017Y-30396033D02*
X36606017Y-30796033D01*
X36606017Y-30796033D02*
X37039350Y-30796033D01*
X52768649Y-32669366D02*
X52701982Y-32636033D01*
X52701982Y-32636033D02*
X52601982Y-32636033D01*
X52601982Y-32636033D02*
X52501982Y-32669366D01*
X52501982Y-32669366D02*
X52435316Y-32736033D01*
X52435316Y-32736033D02*
X52401982Y-32802700D01*
X52401982Y-32802700D02*
X52368649Y-32936033D01*
X52368649Y-32936033D02*
X52368649Y-33036033D01*
X52368649Y-33036033D02*
X52401982Y-33169366D01*
X52401982Y-33169366D02*
X52435316Y-33236033D01*
X52435316Y-33236033D02*
X52501982Y-33302700D01*
X52501982Y-33302700D02*
X52601982Y-33336033D01*
X52601982Y-33336033D02*
X52668649Y-33336033D01*
X52668649Y-33336033D02*
X52768649Y-33302700D01*
X52768649Y-33302700D02*
X52801982Y-33269366D01*
X52801982Y-33269366D02*
X52801982Y-33036033D01*
X52801982Y-33036033D02*
X52668649Y-33036033D01*
X53101982Y-33336033D02*
X53101982Y-32636033D01*
X53101982Y-32636033D02*
X53368649Y-32636033D01*
X53368649Y-32636033D02*
X53435316Y-32669366D01*
X53435316Y-32669366D02*
X53468649Y-32702700D01*
X53468649Y-32702700D02*
X53501982Y-32769366D01*
X53501982Y-32769366D02*
X53501982Y-32869366D01*
X53501982Y-32869366D02*
X53468649Y-32936033D01*
X53468649Y-32936033D02*
X53435316Y-32969366D01*
X53435316Y-32969366D02*
X53368649Y-33002700D01*
X53368649Y-33002700D02*
X53101982Y-33002700D01*
X53801982Y-33336033D02*
X53801982Y-32636033D01*
X54268649Y-32636033D02*
X54401982Y-32636033D01*
X54401982Y-32636033D02*
X54468649Y-32669366D01*
X54468649Y-32669366D02*
X54535315Y-32736033D01*
X54535315Y-32736033D02*
X54568649Y-32869366D01*
X54568649Y-32869366D02*
X54568649Y-33102700D01*
X54568649Y-33102700D02*
X54535315Y-33236033D01*
X54535315Y-33236033D02*
X54468649Y-33302700D01*
X54468649Y-33302700D02*
X54401982Y-33336033D01*
X54401982Y-33336033D02*
X54268649Y-33336033D01*
X54268649Y-33336033D02*
X54201982Y-33302700D01*
X54201982Y-33302700D02*
X54135315Y-33236033D01*
X54135315Y-33236033D02*
X54101982Y-33102700D01*
X54101982Y-33102700D02*
X54101982Y-32869366D01*
X54101982Y-32869366D02*
X54135315Y-32736033D01*
X54135315Y-32736033D02*
X54201982Y-32669366D01*
X54201982Y-32669366D02*
X54268649Y-32636033D01*
X55235315Y-33336033D02*
X54835315Y-33336033D01*
X55035315Y-33336033D02*
X55035315Y-32636033D01*
X55035315Y-32636033D02*
X54968648Y-32736033D01*
X54968648Y-32736033D02*
X54901982Y-32802700D01*
X54901982Y-32802700D02*
X54835315Y-32836033D01*
X55568649Y-33336033D02*
X55701982Y-33336033D01*
X55701982Y-33336033D02*
X55768649Y-33302700D01*
X55768649Y-33302700D02*
X55801982Y-33269366D01*
X55801982Y-33269366D02*
X55868649Y-33169366D01*
X55868649Y-33169366D02*
X55901982Y-33036033D01*
X55901982Y-33036033D02*
X55901982Y-32769366D01*
X55901982Y-32769366D02*
X55868649Y-32702700D01*
X55868649Y-32702700D02*
X55835315Y-32669366D01*
X55835315Y-32669366D02*
X55768649Y-32636033D01*
X55768649Y-32636033D02*
X55635315Y-32636033D01*
X55635315Y-32636033D02*
X55568649Y-32669366D01*
X55568649Y-32669366D02*
X55535315Y-32702700D01*
X55535315Y-32702700D02*
X55501982Y-32769366D01*
X55501982Y-32769366D02*
X55501982Y-32936033D01*
X55501982Y-32936033D02*
X55535315Y-33002700D01*
X55535315Y-33002700D02*
X55568649Y-33036033D01*
X55568649Y-33036033D02*
X55635315Y-33069366D01*
X55635315Y-33069366D02*
X55768649Y-33069366D01*
X55768649Y-33069366D02*
X55835315Y-33036033D01*
X55835315Y-33036033D02*
X55868649Y-33002700D01*
X55868649Y-33002700D02*
X55901982Y-32936033D01*
X33439350Y-22476033D02*
X33672684Y-23176033D01*
X33672684Y-23176033D02*
X33906017Y-22476033D01*
X34139350Y-23176033D02*
X34139350Y-22476033D01*
X34139350Y-22476033D02*
X34539350Y-23176033D01*
X34539350Y-23176033D02*
X34539350Y-22476033D01*
X35372683Y-22442700D02*
X34772683Y-23342700D01*
X35972683Y-22509366D02*
X35906016Y-22476033D01*
X35906016Y-22476033D02*
X35806016Y-22476033D01*
X35806016Y-22476033D02*
X35706016Y-22509366D01*
X35706016Y-22509366D02*
X35639350Y-22576033D01*
X35639350Y-22576033D02*
X35606016Y-22642700D01*
X35606016Y-22642700D02*
X35572683Y-22776033D01*
X35572683Y-22776033D02*
X35572683Y-22876033D01*
X35572683Y-22876033D02*
X35606016Y-23009366D01*
X35606016Y-23009366D02*
X35639350Y-23076033D01*
X35639350Y-23076033D02*
X35706016Y-23142700D01*
X35706016Y-23142700D02*
X35806016Y-23176033D01*
X35806016Y-23176033D02*
X35872683Y-23176033D01*
X35872683Y-23176033D02*
X35972683Y-23142700D01*
X35972683Y-23142700D02*
X36006016Y-23109366D01*
X36006016Y-23109366D02*
X36006016Y-22876033D01*
X36006016Y-22876033D02*
X35872683Y-22876033D01*
X36306016Y-23176033D02*
X36306016Y-22476033D01*
X36306016Y-22476033D02*
X36572683Y-22476033D01*
X36572683Y-22476033D02*
X36639350Y-22509366D01*
X36639350Y-22509366D02*
X36672683Y-22542700D01*
X36672683Y-22542700D02*
X36706016Y-22609366D01*
X36706016Y-22609366D02*
X36706016Y-22709366D01*
X36706016Y-22709366D02*
X36672683Y-22776033D01*
X36672683Y-22776033D02*
X36639350Y-22809366D01*
X36639350Y-22809366D02*
X36572683Y-22842700D01*
X36572683Y-22842700D02*
X36306016Y-22842700D01*
X37006016Y-23176033D02*
X37006016Y-22476033D01*
X37472683Y-22476033D02*
X37606016Y-22476033D01*
X37606016Y-22476033D02*
X37672683Y-22509366D01*
X37672683Y-22509366D02*
X37739349Y-22576033D01*
X37739349Y-22576033D02*
X37772683Y-22709366D01*
X37772683Y-22709366D02*
X37772683Y-22942700D01*
X37772683Y-22942700D02*
X37739349Y-23076033D01*
X37739349Y-23076033D02*
X37672683Y-23142700D01*
X37672683Y-23142700D02*
X37606016Y-23176033D01*
X37606016Y-23176033D02*
X37472683Y-23176033D01*
X37472683Y-23176033D02*
X37406016Y-23142700D01*
X37406016Y-23142700D02*
X37339349Y-23076033D01*
X37339349Y-23076033D02*
X37306016Y-22942700D01*
X37306016Y-22942700D02*
X37306016Y-22709366D01*
X37306016Y-22709366D02*
X37339349Y-22576033D01*
X37339349Y-22576033D02*
X37406016Y-22509366D01*
X37406016Y-22509366D02*
X37472683Y-22476033D01*
X38006016Y-22476033D02*
X38439349Y-22476033D01*
X38439349Y-22476033D02*
X38206016Y-22742700D01*
X38206016Y-22742700D02*
X38306016Y-22742700D01*
X38306016Y-22742700D02*
X38372682Y-22776033D01*
X38372682Y-22776033D02*
X38406016Y-22809366D01*
X38406016Y-22809366D02*
X38439349Y-22876033D01*
X38439349Y-22876033D02*
X38439349Y-23042700D01*
X38439349Y-23042700D02*
X38406016Y-23109366D01*
X38406016Y-23109366D02*
X38372682Y-23142700D01*
X38372682Y-23142700D02*
X38306016Y-23176033D01*
X38306016Y-23176033D02*
X38106016Y-23176033D01*
X38106016Y-23176033D02*
X38039349Y-23142700D01*
X38039349Y-23142700D02*
X38006016Y-23109366D01*
X38772683Y-23176033D02*
X38906016Y-23176033D01*
X38906016Y-23176033D02*
X38972683Y-23142700D01*
X38972683Y-23142700D02*
X39006016Y-23109366D01*
X39006016Y-23109366D02*
X39072683Y-23009366D01*
X39072683Y-23009366D02*
X39106016Y-22876033D01*
X39106016Y-22876033D02*
X39106016Y-22609366D01*
X39106016Y-22609366D02*
X39072683Y-22542700D01*
X39072683Y-22542700D02*
X39039349Y-22509366D01*
X39039349Y-22509366D02*
X38972683Y-22476033D01*
X38972683Y-22476033D02*
X38839349Y-22476033D01*
X38839349Y-22476033D02*
X38772683Y-22509366D01*
X38772683Y-22509366D02*
X38739349Y-22542700D01*
X38739349Y-22542700D02*
X38706016Y-22609366D01*
X38706016Y-22609366D02*
X38706016Y-22776033D01*
X38706016Y-22776033D02*
X38739349Y-22842700D01*
X38739349Y-22842700D02*
X38772683Y-22876033D01*
X38772683Y-22876033D02*
X38839349Y-22909366D01*
X38839349Y-22909366D02*
X38972683Y-22909366D01*
X38972683Y-22909366D02*
X39039349Y-22876033D01*
X39039349Y-22876033D02*
X39072683Y-22842700D01*
X39072683Y-22842700D02*
X39106016Y-22776033D01*
X53435316Y-37749366D02*
X53368649Y-37716033D01*
X53368649Y-37716033D02*
X53268649Y-37716033D01*
X53268649Y-37716033D02*
X53168649Y-37749366D01*
X53168649Y-37749366D02*
X53101983Y-37816033D01*
X53101983Y-37816033D02*
X53068649Y-37882700D01*
X53068649Y-37882700D02*
X53035316Y-38016033D01*
X53035316Y-38016033D02*
X53035316Y-38116033D01*
X53035316Y-38116033D02*
X53068649Y-38249366D01*
X53068649Y-38249366D02*
X53101983Y-38316033D01*
X53101983Y-38316033D02*
X53168649Y-38382700D01*
X53168649Y-38382700D02*
X53268649Y-38416033D01*
X53268649Y-38416033D02*
X53335316Y-38416033D01*
X53335316Y-38416033D02*
X53435316Y-38382700D01*
X53435316Y-38382700D02*
X53468649Y-38349366D01*
X53468649Y-38349366D02*
X53468649Y-38116033D01*
X53468649Y-38116033D02*
X53335316Y-38116033D01*
X53768649Y-38416033D02*
X53768649Y-37716033D01*
X53768649Y-37716033D02*
X54035316Y-37716033D01*
X54035316Y-37716033D02*
X54101983Y-37749366D01*
X54101983Y-37749366D02*
X54135316Y-37782700D01*
X54135316Y-37782700D02*
X54168649Y-37849366D01*
X54168649Y-37849366D02*
X54168649Y-37949366D01*
X54168649Y-37949366D02*
X54135316Y-38016033D01*
X54135316Y-38016033D02*
X54101983Y-38049366D01*
X54101983Y-38049366D02*
X54035316Y-38082700D01*
X54035316Y-38082700D02*
X53768649Y-38082700D01*
X54468649Y-38416033D02*
X54468649Y-37716033D01*
X54935316Y-37716033D02*
X55068649Y-37716033D01*
X55068649Y-37716033D02*
X55135316Y-37749366D01*
X55135316Y-37749366D02*
X55201982Y-37816033D01*
X55201982Y-37816033D02*
X55235316Y-37949366D01*
X55235316Y-37949366D02*
X55235316Y-38182700D01*
X55235316Y-38182700D02*
X55201982Y-38316033D01*
X55201982Y-38316033D02*
X55135316Y-38382700D01*
X55135316Y-38382700D02*
X55068649Y-38416033D01*
X55068649Y-38416033D02*
X54935316Y-38416033D01*
X54935316Y-38416033D02*
X54868649Y-38382700D01*
X54868649Y-38382700D02*
X54801982Y-38316033D01*
X54801982Y-38316033D02*
X54768649Y-38182700D01*
X54768649Y-38182700D02*
X54768649Y-37949366D01*
X54768649Y-37949366D02*
X54801982Y-37816033D01*
X54801982Y-37816033D02*
X54868649Y-37749366D01*
X54868649Y-37749366D02*
X54935316Y-37716033D01*
X55868649Y-37716033D02*
X55535315Y-37716033D01*
X55535315Y-37716033D02*
X55501982Y-38049366D01*
X55501982Y-38049366D02*
X55535315Y-38016033D01*
X55535315Y-38016033D02*
X55601982Y-37982700D01*
X55601982Y-37982700D02*
X55768649Y-37982700D01*
X55768649Y-37982700D02*
X55835315Y-38016033D01*
X55835315Y-38016033D02*
X55868649Y-38049366D01*
X55868649Y-38049366D02*
X55901982Y-38116033D01*
X55901982Y-38116033D02*
X55901982Y-38282700D01*
X55901982Y-38282700D02*
X55868649Y-38349366D01*
X55868649Y-38349366D02*
X55835315Y-38382700D01*
X55835315Y-38382700D02*
X55768649Y-38416033D01*
X55768649Y-38416033D02*
X55601982Y-38416033D01*
X55601982Y-38416033D02*
X55535315Y-38382700D01*
X55535315Y-38382700D02*
X55501982Y-38349366D01*
X49268650Y-52989366D02*
X49201983Y-52956033D01*
X49201983Y-52956033D02*
X49101983Y-52956033D01*
X49101983Y-52956033D02*
X49001983Y-52989366D01*
X49001983Y-52989366D02*
X48935317Y-53056033D01*
X48935317Y-53056033D02*
X48901983Y-53122700D01*
X48901983Y-53122700D02*
X48868650Y-53256033D01*
X48868650Y-53256033D02*
X48868650Y-53356033D01*
X48868650Y-53356033D02*
X48901983Y-53489366D01*
X48901983Y-53489366D02*
X48935317Y-53556033D01*
X48935317Y-53556033D02*
X49001983Y-53622700D01*
X49001983Y-53622700D02*
X49101983Y-53656033D01*
X49101983Y-53656033D02*
X49168650Y-53656033D01*
X49168650Y-53656033D02*
X49268650Y-53622700D01*
X49268650Y-53622700D02*
X49301983Y-53589366D01*
X49301983Y-53589366D02*
X49301983Y-53356033D01*
X49301983Y-53356033D02*
X49168650Y-53356033D01*
X49601983Y-53656033D02*
X49601983Y-52956033D01*
X49601983Y-52956033D02*
X49868650Y-52956033D01*
X49868650Y-52956033D02*
X49935317Y-52989366D01*
X49935317Y-52989366D02*
X49968650Y-53022700D01*
X49968650Y-53022700D02*
X50001983Y-53089366D01*
X50001983Y-53089366D02*
X50001983Y-53189366D01*
X50001983Y-53189366D02*
X49968650Y-53256033D01*
X49968650Y-53256033D02*
X49935317Y-53289366D01*
X49935317Y-53289366D02*
X49868650Y-53322700D01*
X49868650Y-53322700D02*
X49601983Y-53322700D01*
X50301983Y-53656033D02*
X50301983Y-52956033D01*
X50768650Y-52956033D02*
X50901983Y-52956033D01*
X50901983Y-52956033D02*
X50968650Y-52989366D01*
X50968650Y-52989366D02*
X51035316Y-53056033D01*
X51035316Y-53056033D02*
X51068650Y-53189366D01*
X51068650Y-53189366D02*
X51068650Y-53422700D01*
X51068650Y-53422700D02*
X51035316Y-53556033D01*
X51035316Y-53556033D02*
X50968650Y-53622700D01*
X50968650Y-53622700D02*
X50901983Y-53656033D01*
X50901983Y-53656033D02*
X50768650Y-53656033D01*
X50768650Y-53656033D02*
X50701983Y-53622700D01*
X50701983Y-53622700D02*
X50635316Y-53556033D01*
X50635316Y-53556033D02*
X50601983Y-53422700D01*
X50601983Y-53422700D02*
X50601983Y-53189366D01*
X50601983Y-53189366D02*
X50635316Y-53056033D01*
X50635316Y-53056033D02*
X50701983Y-52989366D01*
X50701983Y-52989366D02*
X50768650Y-52956033D01*
X51735316Y-53656033D02*
X51335316Y-53656033D01*
X51535316Y-53656033D02*
X51535316Y-52956033D01*
X51535316Y-52956033D02*
X51468649Y-53056033D01*
X51468649Y-53056033D02*
X51401983Y-53122700D01*
X51401983Y-53122700D02*
X51335316Y-53156033D01*
X52368650Y-52956033D02*
X52035316Y-52956033D01*
X52035316Y-52956033D02*
X52001983Y-53289366D01*
X52001983Y-53289366D02*
X52035316Y-53256033D01*
X52035316Y-53256033D02*
X52101983Y-53222700D01*
X52101983Y-53222700D02*
X52268650Y-53222700D01*
X52268650Y-53222700D02*
X52335316Y-53256033D01*
X52335316Y-53256033D02*
X52368650Y-53289366D01*
X52368650Y-53289366D02*
X52401983Y-53356033D01*
X52401983Y-53356033D02*
X52401983Y-53522700D01*
X52401983Y-53522700D02*
X52368650Y-53589366D01*
X52368650Y-53589366D02*
X52335316Y-53622700D01*
X52335316Y-53622700D02*
X52268650Y-53656033D01*
X52268650Y-53656033D02*
X52101983Y-53656033D01*
X52101983Y-53656033D02*
X52035316Y-53622700D01*
X52035316Y-53622700D02*
X52001983Y-53589366D01*
X53201983Y-52922700D02*
X52601983Y-53822700D01*
X53435316Y-53656033D02*
X53435316Y-52956033D01*
X53435316Y-52956033D02*
X53668650Y-53456033D01*
X53668650Y-53456033D02*
X53901983Y-52956033D01*
X53901983Y-52956033D02*
X53901983Y-53656033D01*
X54135316Y-52956033D02*
X54535316Y-52956033D01*
X54335316Y-53656033D02*
X54335316Y-52956033D01*
X54768649Y-53656033D02*
X54768649Y-52956033D01*
X54768649Y-52956033D02*
X54935316Y-52956033D01*
X54935316Y-52956033D02*
X55035316Y-52989366D01*
X55035316Y-52989366D02*
X55101983Y-53056033D01*
X55101983Y-53056033D02*
X55135316Y-53122700D01*
X55135316Y-53122700D02*
X55168649Y-53256033D01*
X55168649Y-53256033D02*
X55168649Y-53356033D01*
X55168649Y-53356033D02*
X55135316Y-53489366D01*
X55135316Y-53489366D02*
X55101983Y-53556033D01*
X55101983Y-53556033D02*
X55035316Y-53622700D01*
X55035316Y-53622700D02*
X54935316Y-53656033D01*
X54935316Y-53656033D02*
X54768649Y-53656033D01*
X55601983Y-52956033D02*
X55735316Y-52956033D01*
X55735316Y-52956033D02*
X55801983Y-52989366D01*
X55801983Y-52989366D02*
X55868649Y-53056033D01*
X55868649Y-53056033D02*
X55901983Y-53189366D01*
X55901983Y-53189366D02*
X55901983Y-53422700D01*
X55901983Y-53422700D02*
X55868649Y-53556033D01*
X55868649Y-53556033D02*
X55801983Y-53622700D01*
X55801983Y-53622700D02*
X55735316Y-53656033D01*
X55735316Y-53656033D02*
X55601983Y-53656033D01*
X55601983Y-53656033D02*
X55535316Y-53622700D01*
X55535316Y-53622700D02*
X55468649Y-53556033D01*
X55468649Y-53556033D02*
X55435316Y-53422700D01*
X55435316Y-53422700D02*
X55435316Y-53189366D01*
X55435316Y-53189366D02*
X55468649Y-53056033D01*
X55468649Y-53056033D02*
X55535316Y-52989366D01*
X55535316Y-52989366D02*
X55601983Y-52956033D01*
X52768649Y-35209366D02*
X52701982Y-35176033D01*
X52701982Y-35176033D02*
X52601982Y-35176033D01*
X52601982Y-35176033D02*
X52501982Y-35209366D01*
X52501982Y-35209366D02*
X52435316Y-35276033D01*
X52435316Y-35276033D02*
X52401982Y-35342700D01*
X52401982Y-35342700D02*
X52368649Y-35476033D01*
X52368649Y-35476033D02*
X52368649Y-35576033D01*
X52368649Y-35576033D02*
X52401982Y-35709366D01*
X52401982Y-35709366D02*
X52435316Y-35776033D01*
X52435316Y-35776033D02*
X52501982Y-35842700D01*
X52501982Y-35842700D02*
X52601982Y-35876033D01*
X52601982Y-35876033D02*
X52668649Y-35876033D01*
X52668649Y-35876033D02*
X52768649Y-35842700D01*
X52768649Y-35842700D02*
X52801982Y-35809366D01*
X52801982Y-35809366D02*
X52801982Y-35576033D01*
X52801982Y-35576033D02*
X52668649Y-35576033D01*
X53101982Y-35876033D02*
X53101982Y-35176033D01*
X53101982Y-35176033D02*
X53368649Y-35176033D01*
X53368649Y-35176033D02*
X53435316Y-35209366D01*
X53435316Y-35209366D02*
X53468649Y-35242700D01*
X53468649Y-35242700D02*
X53501982Y-35309366D01*
X53501982Y-35309366D02*
X53501982Y-35409366D01*
X53501982Y-35409366D02*
X53468649Y-35476033D01*
X53468649Y-35476033D02*
X53435316Y-35509366D01*
X53435316Y-35509366D02*
X53368649Y-35542700D01*
X53368649Y-35542700D02*
X53101982Y-35542700D01*
X53801982Y-35876033D02*
X53801982Y-35176033D01*
X54268649Y-35176033D02*
X54401982Y-35176033D01*
X54401982Y-35176033D02*
X54468649Y-35209366D01*
X54468649Y-35209366D02*
X54535315Y-35276033D01*
X54535315Y-35276033D02*
X54568649Y-35409366D01*
X54568649Y-35409366D02*
X54568649Y-35642700D01*
X54568649Y-35642700D02*
X54535315Y-35776033D01*
X54535315Y-35776033D02*
X54468649Y-35842700D01*
X54468649Y-35842700D02*
X54401982Y-35876033D01*
X54401982Y-35876033D02*
X54268649Y-35876033D01*
X54268649Y-35876033D02*
X54201982Y-35842700D01*
X54201982Y-35842700D02*
X54135315Y-35776033D01*
X54135315Y-35776033D02*
X54101982Y-35642700D01*
X54101982Y-35642700D02*
X54101982Y-35409366D01*
X54101982Y-35409366D02*
X54135315Y-35276033D01*
X54135315Y-35276033D02*
X54201982Y-35209366D01*
X54201982Y-35209366D02*
X54268649Y-35176033D01*
X55235315Y-35876033D02*
X54835315Y-35876033D01*
X55035315Y-35876033D02*
X55035315Y-35176033D01*
X55035315Y-35176033D02*
X54968648Y-35276033D01*
X54968648Y-35276033D02*
X54901982Y-35342700D01*
X54901982Y-35342700D02*
X54835315Y-35376033D01*
X55635315Y-35476033D02*
X55568649Y-35442700D01*
X55568649Y-35442700D02*
X55535315Y-35409366D01*
X55535315Y-35409366D02*
X55501982Y-35342700D01*
X55501982Y-35342700D02*
X55501982Y-35309366D01*
X55501982Y-35309366D02*
X55535315Y-35242700D01*
X55535315Y-35242700D02*
X55568649Y-35209366D01*
X55568649Y-35209366D02*
X55635315Y-35176033D01*
X55635315Y-35176033D02*
X55768649Y-35176033D01*
X55768649Y-35176033D02*
X55835315Y-35209366D01*
X55835315Y-35209366D02*
X55868649Y-35242700D01*
X55868649Y-35242700D02*
X55901982Y-35309366D01*
X55901982Y-35309366D02*
X55901982Y-35342700D01*
X55901982Y-35342700D02*
X55868649Y-35409366D01*
X55868649Y-35409366D02*
X55835315Y-35442700D01*
X55835315Y-35442700D02*
X55768649Y-35476033D01*
X55768649Y-35476033D02*
X55635315Y-35476033D01*
X55635315Y-35476033D02*
X55568649Y-35509366D01*
X55568649Y-35509366D02*
X55535315Y-35542700D01*
X55535315Y-35542700D02*
X55501982Y-35609366D01*
X55501982Y-35609366D02*
X55501982Y-35742700D01*
X55501982Y-35742700D02*
X55535315Y-35809366D01*
X55535315Y-35809366D02*
X55568649Y-35842700D01*
X55568649Y-35842700D02*
X55635315Y-35876033D01*
X55635315Y-35876033D02*
X55768649Y-35876033D01*
X55768649Y-35876033D02*
X55835315Y-35842700D01*
X55835315Y-35842700D02*
X55868649Y-35809366D01*
X55868649Y-35809366D02*
X55901982Y-35742700D01*
X55901982Y-35742700D02*
X55901982Y-35609366D01*
X55901982Y-35609366D02*
X55868649Y-35542700D01*
X55868649Y-35542700D02*
X55835315Y-35509366D01*
X55835315Y-35509366D02*
X55768649Y-35476033D01*
X34160017Y-45369366D02*
X34093350Y-45336033D01*
X34093350Y-45336033D02*
X33993350Y-45336033D01*
X33993350Y-45336033D02*
X33893350Y-45369366D01*
X33893350Y-45369366D02*
X33826684Y-45436033D01*
X33826684Y-45436033D02*
X33793350Y-45502700D01*
X33793350Y-45502700D02*
X33760017Y-45636033D01*
X33760017Y-45636033D02*
X33760017Y-45736033D01*
X33760017Y-45736033D02*
X33793350Y-45869366D01*
X33793350Y-45869366D02*
X33826684Y-45936033D01*
X33826684Y-45936033D02*
X33893350Y-46002700D01*
X33893350Y-46002700D02*
X33993350Y-46036033D01*
X33993350Y-46036033D02*
X34060017Y-46036033D01*
X34060017Y-46036033D02*
X34160017Y-46002700D01*
X34160017Y-46002700D02*
X34193350Y-45969366D01*
X34193350Y-45969366D02*
X34193350Y-45736033D01*
X34193350Y-45736033D02*
X34060017Y-45736033D01*
X34493350Y-46036033D02*
X34493350Y-45336033D01*
X34493350Y-45336033D02*
X34760017Y-45336033D01*
X34760017Y-45336033D02*
X34826684Y-45369366D01*
X34826684Y-45369366D02*
X34860017Y-45402700D01*
X34860017Y-45402700D02*
X34893350Y-45469366D01*
X34893350Y-45469366D02*
X34893350Y-45569366D01*
X34893350Y-45569366D02*
X34860017Y-45636033D01*
X34860017Y-45636033D02*
X34826684Y-45669366D01*
X34826684Y-45669366D02*
X34760017Y-45702700D01*
X34760017Y-45702700D02*
X34493350Y-45702700D01*
X35193350Y-46036033D02*
X35193350Y-45336033D01*
X35660017Y-45336033D02*
X35793350Y-45336033D01*
X35793350Y-45336033D02*
X35860017Y-45369366D01*
X35860017Y-45369366D02*
X35926683Y-45436033D01*
X35926683Y-45436033D02*
X35960017Y-45569366D01*
X35960017Y-45569366D02*
X35960017Y-45802700D01*
X35960017Y-45802700D02*
X35926683Y-45936033D01*
X35926683Y-45936033D02*
X35860017Y-46002700D01*
X35860017Y-46002700D02*
X35793350Y-46036033D01*
X35793350Y-46036033D02*
X35660017Y-46036033D01*
X35660017Y-46036033D02*
X35593350Y-46002700D01*
X35593350Y-46002700D02*
X35526683Y-45936033D01*
X35526683Y-45936033D02*
X35493350Y-45802700D01*
X35493350Y-45802700D02*
X35493350Y-45569366D01*
X35493350Y-45569366D02*
X35526683Y-45436033D01*
X35526683Y-45436033D02*
X35593350Y-45369366D01*
X35593350Y-45369366D02*
X35660017Y-45336033D01*
X36626683Y-46036033D02*
X36226683Y-46036033D01*
X36426683Y-46036033D02*
X36426683Y-45336033D01*
X36426683Y-45336033D02*
X36360016Y-45436033D01*
X36360016Y-45436033D02*
X36293350Y-45502700D01*
X36293350Y-45502700D02*
X36226683Y-45536033D01*
X36893350Y-45402700D02*
X36926683Y-45369366D01*
X36926683Y-45369366D02*
X36993350Y-45336033D01*
X36993350Y-45336033D02*
X37160017Y-45336033D01*
X37160017Y-45336033D02*
X37226683Y-45369366D01*
X37226683Y-45369366D02*
X37260017Y-45402700D01*
X37260017Y-45402700D02*
X37293350Y-45469366D01*
X37293350Y-45469366D02*
X37293350Y-45536033D01*
X37293350Y-45536033D02*
X37260017Y-45636033D01*
X37260017Y-45636033D02*
X36860017Y-46036033D01*
X36860017Y-46036033D02*
X37293350Y-46036033D01*
X34447350Y-58669366D02*
X34414017Y-58702700D01*
X34414017Y-58702700D02*
X34314017Y-58736033D01*
X34314017Y-58736033D02*
X34247350Y-58736033D01*
X34247350Y-58736033D02*
X34147350Y-58702700D01*
X34147350Y-58702700D02*
X34080684Y-58636033D01*
X34080684Y-58636033D02*
X34047350Y-58569366D01*
X34047350Y-58569366D02*
X34014017Y-58436033D01*
X34014017Y-58436033D02*
X34014017Y-58336033D01*
X34014017Y-58336033D02*
X34047350Y-58202700D01*
X34047350Y-58202700D02*
X34080684Y-58136033D01*
X34080684Y-58136033D02*
X34147350Y-58069366D01*
X34147350Y-58069366D02*
X34247350Y-58036033D01*
X34247350Y-58036033D02*
X34314017Y-58036033D01*
X34314017Y-58036033D02*
X34414017Y-58069366D01*
X34414017Y-58069366D02*
X34447350Y-58102700D01*
X34747350Y-58736033D02*
X34747350Y-58036033D01*
X34747350Y-58036033D02*
X34980684Y-58536033D01*
X34980684Y-58536033D02*
X35214017Y-58036033D01*
X35214017Y-58036033D02*
X35214017Y-58736033D01*
X35547350Y-58736033D02*
X35547350Y-58036033D01*
X35547350Y-58036033D02*
X35714017Y-58036033D01*
X35714017Y-58036033D02*
X35814017Y-58069366D01*
X35814017Y-58069366D02*
X35880684Y-58136033D01*
X35880684Y-58136033D02*
X35914017Y-58202700D01*
X35914017Y-58202700D02*
X35947350Y-58336033D01*
X35947350Y-58336033D02*
X35947350Y-58436033D01*
X35947350Y-58436033D02*
X35914017Y-58569366D01*
X35914017Y-58569366D02*
X35880684Y-58636033D01*
X35880684Y-58636033D02*
X35814017Y-58702700D01*
X35814017Y-58702700D02*
X35714017Y-58736033D01*
X35714017Y-58736033D02*
X35547350Y-58736033D01*
X53435316Y-50449366D02*
X53368649Y-50416033D01*
X53368649Y-50416033D02*
X53268649Y-50416033D01*
X53268649Y-50416033D02*
X53168649Y-50449366D01*
X53168649Y-50449366D02*
X53101983Y-50516033D01*
X53101983Y-50516033D02*
X53068649Y-50582700D01*
X53068649Y-50582700D02*
X53035316Y-50716033D01*
X53035316Y-50716033D02*
X53035316Y-50816033D01*
X53035316Y-50816033D02*
X53068649Y-50949366D01*
X53068649Y-50949366D02*
X53101983Y-51016033D01*
X53101983Y-51016033D02*
X53168649Y-51082700D01*
X53168649Y-51082700D02*
X53268649Y-51116033D01*
X53268649Y-51116033D02*
X53335316Y-51116033D01*
X53335316Y-51116033D02*
X53435316Y-51082700D01*
X53435316Y-51082700D02*
X53468649Y-51049366D01*
X53468649Y-51049366D02*
X53468649Y-50816033D01*
X53468649Y-50816033D02*
X53335316Y-50816033D01*
X53768649Y-51116033D02*
X53768649Y-50416033D01*
X53768649Y-50416033D02*
X54035316Y-50416033D01*
X54035316Y-50416033D02*
X54101983Y-50449366D01*
X54101983Y-50449366D02*
X54135316Y-50482700D01*
X54135316Y-50482700D02*
X54168649Y-50549366D01*
X54168649Y-50549366D02*
X54168649Y-50649366D01*
X54168649Y-50649366D02*
X54135316Y-50716033D01*
X54135316Y-50716033D02*
X54101983Y-50749366D01*
X54101983Y-50749366D02*
X54035316Y-50782700D01*
X54035316Y-50782700D02*
X53768649Y-50782700D01*
X54468649Y-51116033D02*
X54468649Y-50416033D01*
X54935316Y-50416033D02*
X55068649Y-50416033D01*
X55068649Y-50416033D02*
X55135316Y-50449366D01*
X55135316Y-50449366D02*
X55201982Y-50516033D01*
X55201982Y-50516033D02*
X55235316Y-50649366D01*
X55235316Y-50649366D02*
X55235316Y-50882700D01*
X55235316Y-50882700D02*
X55201982Y-51016033D01*
X55201982Y-51016033D02*
X55135316Y-51082700D01*
X55135316Y-51082700D02*
X55068649Y-51116033D01*
X55068649Y-51116033D02*
X54935316Y-51116033D01*
X54935316Y-51116033D02*
X54868649Y-51082700D01*
X54868649Y-51082700D02*
X54801982Y-51016033D01*
X54801982Y-51016033D02*
X54768649Y-50882700D01*
X54768649Y-50882700D02*
X54768649Y-50649366D01*
X54768649Y-50649366D02*
X54801982Y-50516033D01*
X54801982Y-50516033D02*
X54868649Y-50449366D01*
X54868649Y-50449366D02*
X54935316Y-50416033D01*
X55501982Y-50482700D02*
X55535315Y-50449366D01*
X55535315Y-50449366D02*
X55601982Y-50416033D01*
X55601982Y-50416033D02*
X55768649Y-50416033D01*
X55768649Y-50416033D02*
X55835315Y-50449366D01*
X55835315Y-50449366D02*
X55868649Y-50482700D01*
X55868649Y-50482700D02*
X55901982Y-50549366D01*
X55901982Y-50549366D02*
X55901982Y-50616033D01*
X55901982Y-50616033D02*
X55868649Y-50716033D01*
X55868649Y-50716033D02*
X55468649Y-51116033D01*
X55468649Y-51116033D02*
X55901982Y-51116033D01*
X33906017Y-32669366D02*
X33839350Y-32636033D01*
X33839350Y-32636033D02*
X33739350Y-32636033D01*
X33739350Y-32636033D02*
X33639350Y-32669366D01*
X33639350Y-32669366D02*
X33572684Y-32736033D01*
X33572684Y-32736033D02*
X33539350Y-32802700D01*
X33539350Y-32802700D02*
X33506017Y-32936033D01*
X33506017Y-32936033D02*
X33506017Y-33036033D01*
X33506017Y-33036033D02*
X33539350Y-33169366D01*
X33539350Y-33169366D02*
X33572684Y-33236033D01*
X33572684Y-33236033D02*
X33639350Y-33302700D01*
X33639350Y-33302700D02*
X33739350Y-33336033D01*
X33739350Y-33336033D02*
X33806017Y-33336033D01*
X33806017Y-33336033D02*
X33906017Y-33302700D01*
X33906017Y-33302700D02*
X33939350Y-33269366D01*
X33939350Y-33269366D02*
X33939350Y-33036033D01*
X33939350Y-33036033D02*
X33806017Y-33036033D01*
X34239350Y-33336033D02*
X34239350Y-32636033D01*
X34239350Y-32636033D02*
X34506017Y-32636033D01*
X34506017Y-32636033D02*
X34572684Y-32669366D01*
X34572684Y-32669366D02*
X34606017Y-32702700D01*
X34606017Y-32702700D02*
X34639350Y-32769366D01*
X34639350Y-32769366D02*
X34639350Y-32869366D01*
X34639350Y-32869366D02*
X34606017Y-32936033D01*
X34606017Y-32936033D02*
X34572684Y-32969366D01*
X34572684Y-32969366D02*
X34506017Y-33002700D01*
X34506017Y-33002700D02*
X34239350Y-33002700D01*
X34939350Y-33336033D02*
X34939350Y-32636033D01*
X35406017Y-32636033D02*
X35539350Y-32636033D01*
X35539350Y-32636033D02*
X35606017Y-32669366D01*
X35606017Y-32669366D02*
X35672683Y-32736033D01*
X35672683Y-32736033D02*
X35706017Y-32869366D01*
X35706017Y-32869366D02*
X35706017Y-33102700D01*
X35706017Y-33102700D02*
X35672683Y-33236033D01*
X35672683Y-33236033D02*
X35606017Y-33302700D01*
X35606017Y-33302700D02*
X35539350Y-33336033D01*
X35539350Y-33336033D02*
X35406017Y-33336033D01*
X35406017Y-33336033D02*
X35339350Y-33302700D01*
X35339350Y-33302700D02*
X35272683Y-33236033D01*
X35272683Y-33236033D02*
X35239350Y-33102700D01*
X35239350Y-33102700D02*
X35239350Y-32869366D01*
X35239350Y-32869366D02*
X35272683Y-32736033D01*
X35272683Y-32736033D02*
X35339350Y-32669366D01*
X35339350Y-32669366D02*
X35406017Y-32636033D01*
X35939350Y-32636033D02*
X36372683Y-32636033D01*
X36372683Y-32636033D02*
X36139350Y-32902700D01*
X36139350Y-32902700D02*
X36239350Y-32902700D01*
X36239350Y-32902700D02*
X36306016Y-32936033D01*
X36306016Y-32936033D02*
X36339350Y-32969366D01*
X36339350Y-32969366D02*
X36372683Y-33036033D01*
X36372683Y-33036033D02*
X36372683Y-33202700D01*
X36372683Y-33202700D02*
X36339350Y-33269366D01*
X36339350Y-33269366D02*
X36306016Y-33302700D01*
X36306016Y-33302700D02*
X36239350Y-33336033D01*
X36239350Y-33336033D02*
X36039350Y-33336033D01*
X36039350Y-33336033D02*
X35972683Y-33302700D01*
X35972683Y-33302700D02*
X35939350Y-33269366D01*
X36606017Y-32636033D02*
X37039350Y-32636033D01*
X37039350Y-32636033D02*
X36806017Y-32902700D01*
X36806017Y-32902700D02*
X36906017Y-32902700D01*
X36906017Y-32902700D02*
X36972683Y-32936033D01*
X36972683Y-32936033D02*
X37006017Y-32969366D01*
X37006017Y-32969366D02*
X37039350Y-33036033D01*
X37039350Y-33036033D02*
X37039350Y-33202700D01*
X37039350Y-33202700D02*
X37006017Y-33269366D01*
X37006017Y-33269366D02*
X36972683Y-33302700D01*
X36972683Y-33302700D02*
X36906017Y-33336033D01*
X36906017Y-33336033D02*
X36706017Y-33336033D01*
X36706017Y-33336033D02*
X36639350Y-33302700D01*
X36639350Y-33302700D02*
X36606017Y-33269366D01*
X54635315Y-61209366D02*
X54601982Y-61242700D01*
X54601982Y-61242700D02*
X54501982Y-61276033D01*
X54501982Y-61276033D02*
X54435315Y-61276033D01*
X54435315Y-61276033D02*
X54335315Y-61242700D01*
X54335315Y-61242700D02*
X54268649Y-61176033D01*
X54268649Y-61176033D02*
X54235315Y-61109366D01*
X54235315Y-61109366D02*
X54201982Y-60976033D01*
X54201982Y-60976033D02*
X54201982Y-60876033D01*
X54201982Y-60876033D02*
X54235315Y-60742700D01*
X54235315Y-60742700D02*
X54268649Y-60676033D01*
X54268649Y-60676033D02*
X54335315Y-60609366D01*
X54335315Y-60609366D02*
X54435315Y-60576033D01*
X54435315Y-60576033D02*
X54501982Y-60576033D01*
X54501982Y-60576033D02*
X54601982Y-60609366D01*
X54601982Y-60609366D02*
X54635315Y-60642700D01*
X55268649Y-61276033D02*
X54935315Y-61276033D01*
X54935315Y-61276033D02*
X54935315Y-60576033D01*
X55501982Y-61276033D02*
X55501982Y-60576033D01*
X55901982Y-61276033D02*
X55601982Y-60876033D01*
X55901982Y-60576033D02*
X55501982Y-60976033D01*
X33906017Y-42829366D02*
X33839350Y-42796033D01*
X33839350Y-42796033D02*
X33739350Y-42796033D01*
X33739350Y-42796033D02*
X33639350Y-42829366D01*
X33639350Y-42829366D02*
X33572684Y-42896033D01*
X33572684Y-42896033D02*
X33539350Y-42962700D01*
X33539350Y-42962700D02*
X33506017Y-43096033D01*
X33506017Y-43096033D02*
X33506017Y-43196033D01*
X33506017Y-43196033D02*
X33539350Y-43329366D01*
X33539350Y-43329366D02*
X33572684Y-43396033D01*
X33572684Y-43396033D02*
X33639350Y-43462700D01*
X33639350Y-43462700D02*
X33739350Y-43496033D01*
X33739350Y-43496033D02*
X33806017Y-43496033D01*
X33806017Y-43496033D02*
X33906017Y-43462700D01*
X33906017Y-43462700D02*
X33939350Y-43429366D01*
X33939350Y-43429366D02*
X33939350Y-43196033D01*
X33939350Y-43196033D02*
X33806017Y-43196033D01*
X34239350Y-43496033D02*
X34239350Y-42796033D01*
X34239350Y-42796033D02*
X34506017Y-42796033D01*
X34506017Y-42796033D02*
X34572684Y-42829366D01*
X34572684Y-42829366D02*
X34606017Y-42862700D01*
X34606017Y-42862700D02*
X34639350Y-42929366D01*
X34639350Y-42929366D02*
X34639350Y-43029366D01*
X34639350Y-43029366D02*
X34606017Y-43096033D01*
X34606017Y-43096033D02*
X34572684Y-43129366D01*
X34572684Y-43129366D02*
X34506017Y-43162700D01*
X34506017Y-43162700D02*
X34239350Y-43162700D01*
X34939350Y-43496033D02*
X34939350Y-42796033D01*
X35406017Y-42796033D02*
X35539350Y-42796033D01*
X35539350Y-42796033D02*
X35606017Y-42829366D01*
X35606017Y-42829366D02*
X35672683Y-42896033D01*
X35672683Y-42896033D02*
X35706017Y-43029366D01*
X35706017Y-43029366D02*
X35706017Y-43262700D01*
X35706017Y-43262700D02*
X35672683Y-43396033D01*
X35672683Y-43396033D02*
X35606017Y-43462700D01*
X35606017Y-43462700D02*
X35539350Y-43496033D01*
X35539350Y-43496033D02*
X35406017Y-43496033D01*
X35406017Y-43496033D02*
X35339350Y-43462700D01*
X35339350Y-43462700D02*
X35272683Y-43396033D01*
X35272683Y-43396033D02*
X35239350Y-43262700D01*
X35239350Y-43262700D02*
X35239350Y-43029366D01*
X35239350Y-43029366D02*
X35272683Y-42896033D01*
X35272683Y-42896033D02*
X35339350Y-42829366D01*
X35339350Y-42829366D02*
X35406017Y-42796033D01*
X36372683Y-43496033D02*
X35972683Y-43496033D01*
X36172683Y-43496033D02*
X36172683Y-42796033D01*
X36172683Y-42796033D02*
X36106016Y-42896033D01*
X36106016Y-42896033D02*
X36039350Y-42962700D01*
X36039350Y-42962700D02*
X35972683Y-42996033D01*
X36972683Y-43029366D02*
X36972683Y-43496033D01*
X36806017Y-42762700D02*
X36639350Y-43262700D01*
X36639350Y-43262700D02*
X37072683Y-43262700D01*
X37839350Y-42762700D02*
X37239350Y-43662700D01*
X38072683Y-43496033D02*
X38072683Y-42796033D01*
X38072683Y-42796033D02*
X38306017Y-43296033D01*
X38306017Y-43296033D02*
X38539350Y-42796033D01*
X38539350Y-42796033D02*
X38539350Y-43496033D01*
X38772683Y-42796033D02*
X39172683Y-42796033D01*
X38972683Y-43496033D02*
X38972683Y-42796033D01*
X39406016Y-43496033D02*
X39406016Y-42796033D01*
X39406016Y-42796033D02*
X39639350Y-43296033D01*
X39639350Y-43296033D02*
X39872683Y-42796033D01*
X39872683Y-42796033D02*
X39872683Y-43496033D01*
X40172683Y-43462700D02*
X40272683Y-43496033D01*
X40272683Y-43496033D02*
X40439350Y-43496033D01*
X40439350Y-43496033D02*
X40506016Y-43462700D01*
X40506016Y-43462700D02*
X40539350Y-43429366D01*
X40539350Y-43429366D02*
X40572683Y-43362700D01*
X40572683Y-43362700D02*
X40572683Y-43296033D01*
X40572683Y-43296033D02*
X40539350Y-43229366D01*
X40539350Y-43229366D02*
X40506016Y-43196033D01*
X40506016Y-43196033D02*
X40439350Y-43162700D01*
X40439350Y-43162700D02*
X40306016Y-43129366D01*
X40306016Y-43129366D02*
X40239350Y-43096033D01*
X40239350Y-43096033D02*
X40206016Y-43062700D01*
X40206016Y-43062700D02*
X40172683Y-42996033D01*
X40172683Y-42996033D02*
X40172683Y-42929366D01*
X40172683Y-42929366D02*
X40206016Y-42862700D01*
X40206016Y-42862700D02*
X40239350Y-42829366D01*
X40239350Y-42829366D02*
X40306016Y-42796033D01*
X40306016Y-42796033D02*
X40472683Y-42796033D01*
X40472683Y-42796033D02*
X40572683Y-42829366D01*
X33906017Y-25049366D02*
X33839350Y-25016033D01*
X33839350Y-25016033D02*
X33739350Y-25016033D01*
X33739350Y-25016033D02*
X33639350Y-25049366D01*
X33639350Y-25049366D02*
X33572684Y-25116033D01*
X33572684Y-25116033D02*
X33539350Y-25182700D01*
X33539350Y-25182700D02*
X33506017Y-25316033D01*
X33506017Y-25316033D02*
X33506017Y-25416033D01*
X33506017Y-25416033D02*
X33539350Y-25549366D01*
X33539350Y-25549366D02*
X33572684Y-25616033D01*
X33572684Y-25616033D02*
X33639350Y-25682700D01*
X33639350Y-25682700D02*
X33739350Y-25716033D01*
X33739350Y-25716033D02*
X33806017Y-25716033D01*
X33806017Y-25716033D02*
X33906017Y-25682700D01*
X33906017Y-25682700D02*
X33939350Y-25649366D01*
X33939350Y-25649366D02*
X33939350Y-25416033D01*
X33939350Y-25416033D02*
X33806017Y-25416033D01*
X34239350Y-25716033D02*
X34239350Y-25016033D01*
X34239350Y-25016033D02*
X34506017Y-25016033D01*
X34506017Y-25016033D02*
X34572684Y-25049366D01*
X34572684Y-25049366D02*
X34606017Y-25082700D01*
X34606017Y-25082700D02*
X34639350Y-25149366D01*
X34639350Y-25149366D02*
X34639350Y-25249366D01*
X34639350Y-25249366D02*
X34606017Y-25316033D01*
X34606017Y-25316033D02*
X34572684Y-25349366D01*
X34572684Y-25349366D02*
X34506017Y-25382700D01*
X34506017Y-25382700D02*
X34239350Y-25382700D01*
X34939350Y-25716033D02*
X34939350Y-25016033D01*
X35406017Y-25016033D02*
X35539350Y-25016033D01*
X35539350Y-25016033D02*
X35606017Y-25049366D01*
X35606017Y-25049366D02*
X35672683Y-25116033D01*
X35672683Y-25116033D02*
X35706017Y-25249366D01*
X35706017Y-25249366D02*
X35706017Y-25482700D01*
X35706017Y-25482700D02*
X35672683Y-25616033D01*
X35672683Y-25616033D02*
X35606017Y-25682700D01*
X35606017Y-25682700D02*
X35539350Y-25716033D01*
X35539350Y-25716033D02*
X35406017Y-25716033D01*
X35406017Y-25716033D02*
X35339350Y-25682700D01*
X35339350Y-25682700D02*
X35272683Y-25616033D01*
X35272683Y-25616033D02*
X35239350Y-25482700D01*
X35239350Y-25482700D02*
X35239350Y-25249366D01*
X35239350Y-25249366D02*
X35272683Y-25116033D01*
X35272683Y-25116033D02*
X35339350Y-25049366D01*
X35339350Y-25049366D02*
X35406017Y-25016033D01*
X35939350Y-25016033D02*
X36372683Y-25016033D01*
X36372683Y-25016033D02*
X36139350Y-25282700D01*
X36139350Y-25282700D02*
X36239350Y-25282700D01*
X36239350Y-25282700D02*
X36306016Y-25316033D01*
X36306016Y-25316033D02*
X36339350Y-25349366D01*
X36339350Y-25349366D02*
X36372683Y-25416033D01*
X36372683Y-25416033D02*
X36372683Y-25582700D01*
X36372683Y-25582700D02*
X36339350Y-25649366D01*
X36339350Y-25649366D02*
X36306016Y-25682700D01*
X36306016Y-25682700D02*
X36239350Y-25716033D01*
X36239350Y-25716033D02*
X36039350Y-25716033D01*
X36039350Y-25716033D02*
X35972683Y-25682700D01*
X35972683Y-25682700D02*
X35939350Y-25649366D01*
X36972683Y-25249366D02*
X36972683Y-25716033D01*
X36806017Y-24982700D02*
X36639350Y-25482700D01*
X36639350Y-25482700D02*
X37072683Y-25482700D01*
X52768649Y-19969366D02*
X52701982Y-19936033D01*
X52701982Y-19936033D02*
X52601982Y-19936033D01*
X52601982Y-19936033D02*
X52501982Y-19969366D01*
X52501982Y-19969366D02*
X52435316Y-20036033D01*
X52435316Y-20036033D02*
X52401982Y-20102700D01*
X52401982Y-20102700D02*
X52368649Y-20236033D01*
X52368649Y-20236033D02*
X52368649Y-20336033D01*
X52368649Y-20336033D02*
X52401982Y-20469366D01*
X52401982Y-20469366D02*
X52435316Y-20536033D01*
X52435316Y-20536033D02*
X52501982Y-20602700D01*
X52501982Y-20602700D02*
X52601982Y-20636033D01*
X52601982Y-20636033D02*
X52668649Y-20636033D01*
X52668649Y-20636033D02*
X52768649Y-20602700D01*
X52768649Y-20602700D02*
X52801982Y-20569366D01*
X52801982Y-20569366D02*
X52801982Y-20336033D01*
X52801982Y-20336033D02*
X52668649Y-20336033D01*
X53101982Y-20636033D02*
X53101982Y-19936033D01*
X53101982Y-19936033D02*
X53368649Y-19936033D01*
X53368649Y-19936033D02*
X53435316Y-19969366D01*
X53435316Y-19969366D02*
X53468649Y-20002700D01*
X53468649Y-20002700D02*
X53501982Y-20069366D01*
X53501982Y-20069366D02*
X53501982Y-20169366D01*
X53501982Y-20169366D02*
X53468649Y-20236033D01*
X53468649Y-20236033D02*
X53435316Y-20269366D01*
X53435316Y-20269366D02*
X53368649Y-20302700D01*
X53368649Y-20302700D02*
X53101982Y-20302700D01*
X53801982Y-20636033D02*
X53801982Y-19936033D01*
X54268649Y-19936033D02*
X54401982Y-19936033D01*
X54401982Y-19936033D02*
X54468649Y-19969366D01*
X54468649Y-19969366D02*
X54535315Y-20036033D01*
X54535315Y-20036033D02*
X54568649Y-20169366D01*
X54568649Y-20169366D02*
X54568649Y-20402700D01*
X54568649Y-20402700D02*
X54535315Y-20536033D01*
X54535315Y-20536033D02*
X54468649Y-20602700D01*
X54468649Y-20602700D02*
X54401982Y-20636033D01*
X54401982Y-20636033D02*
X54268649Y-20636033D01*
X54268649Y-20636033D02*
X54201982Y-20602700D01*
X54201982Y-20602700D02*
X54135315Y-20536033D01*
X54135315Y-20536033D02*
X54101982Y-20402700D01*
X54101982Y-20402700D02*
X54101982Y-20169366D01*
X54101982Y-20169366D02*
X54135315Y-20036033D01*
X54135315Y-20036033D02*
X54201982Y-19969366D01*
X54201982Y-19969366D02*
X54268649Y-19936033D01*
X54835315Y-20002700D02*
X54868648Y-19969366D01*
X54868648Y-19969366D02*
X54935315Y-19936033D01*
X54935315Y-19936033D02*
X55101982Y-19936033D01*
X55101982Y-19936033D02*
X55168648Y-19969366D01*
X55168648Y-19969366D02*
X55201982Y-20002700D01*
X55201982Y-20002700D02*
X55235315Y-20069366D01*
X55235315Y-20069366D02*
X55235315Y-20136033D01*
X55235315Y-20136033D02*
X55201982Y-20236033D01*
X55201982Y-20236033D02*
X54801982Y-20636033D01*
X54801982Y-20636033D02*
X55235315Y-20636033D01*
X55501982Y-20002700D02*
X55535315Y-19969366D01*
X55535315Y-19969366D02*
X55601982Y-19936033D01*
X55601982Y-19936033D02*
X55768649Y-19936033D01*
X55768649Y-19936033D02*
X55835315Y-19969366D01*
X55835315Y-19969366D02*
X55868649Y-20002700D01*
X55868649Y-20002700D02*
X55901982Y-20069366D01*
X55901982Y-20069366D02*
X55901982Y-20136033D01*
X55901982Y-20136033D02*
X55868649Y-20236033D01*
X55868649Y-20236033D02*
X55468649Y-20636033D01*
X55468649Y-20636033D02*
X55901982Y-20636033D01*
X33906017Y-50449366D02*
X33839350Y-50416033D01*
X33839350Y-50416033D02*
X33739350Y-50416033D01*
X33739350Y-50416033D02*
X33639350Y-50449366D01*
X33639350Y-50449366D02*
X33572684Y-50516033D01*
X33572684Y-50516033D02*
X33539350Y-50582700D01*
X33539350Y-50582700D02*
X33506017Y-50716033D01*
X33506017Y-50716033D02*
X33506017Y-50816033D01*
X33506017Y-50816033D02*
X33539350Y-50949366D01*
X33539350Y-50949366D02*
X33572684Y-51016033D01*
X33572684Y-51016033D02*
X33639350Y-51082700D01*
X33639350Y-51082700D02*
X33739350Y-51116033D01*
X33739350Y-51116033D02*
X33806017Y-51116033D01*
X33806017Y-51116033D02*
X33906017Y-51082700D01*
X33906017Y-51082700D02*
X33939350Y-51049366D01*
X33939350Y-51049366D02*
X33939350Y-50816033D01*
X33939350Y-50816033D02*
X33806017Y-50816033D01*
X34239350Y-51116033D02*
X34239350Y-50416033D01*
X34239350Y-50416033D02*
X34506017Y-50416033D01*
X34506017Y-50416033D02*
X34572684Y-50449366D01*
X34572684Y-50449366D02*
X34606017Y-50482700D01*
X34606017Y-50482700D02*
X34639350Y-50549366D01*
X34639350Y-50549366D02*
X34639350Y-50649366D01*
X34639350Y-50649366D02*
X34606017Y-50716033D01*
X34606017Y-50716033D02*
X34572684Y-50749366D01*
X34572684Y-50749366D02*
X34506017Y-50782700D01*
X34506017Y-50782700D02*
X34239350Y-50782700D01*
X34939350Y-51116033D02*
X34939350Y-50416033D01*
X35406017Y-50416033D02*
X35539350Y-50416033D01*
X35539350Y-50416033D02*
X35606017Y-50449366D01*
X35606017Y-50449366D02*
X35672683Y-50516033D01*
X35672683Y-50516033D02*
X35706017Y-50649366D01*
X35706017Y-50649366D02*
X35706017Y-50882700D01*
X35706017Y-50882700D02*
X35672683Y-51016033D01*
X35672683Y-51016033D02*
X35606017Y-51082700D01*
X35606017Y-51082700D02*
X35539350Y-51116033D01*
X35539350Y-51116033D02*
X35406017Y-51116033D01*
X35406017Y-51116033D02*
X35339350Y-51082700D01*
X35339350Y-51082700D02*
X35272683Y-51016033D01*
X35272683Y-51016033D02*
X35239350Y-50882700D01*
X35239350Y-50882700D02*
X35239350Y-50649366D01*
X35239350Y-50649366D02*
X35272683Y-50516033D01*
X35272683Y-50516033D02*
X35339350Y-50449366D01*
X35339350Y-50449366D02*
X35406017Y-50416033D01*
X36372683Y-51116033D02*
X35972683Y-51116033D01*
X36172683Y-51116033D02*
X36172683Y-50416033D01*
X36172683Y-50416033D02*
X36106016Y-50516033D01*
X36106016Y-50516033D02*
X36039350Y-50582700D01*
X36039350Y-50582700D02*
X35972683Y-50616033D01*
X36606017Y-50416033D02*
X37039350Y-50416033D01*
X37039350Y-50416033D02*
X36806017Y-50682700D01*
X36806017Y-50682700D02*
X36906017Y-50682700D01*
X36906017Y-50682700D02*
X36972683Y-50716033D01*
X36972683Y-50716033D02*
X37006017Y-50749366D01*
X37006017Y-50749366D02*
X37039350Y-50816033D01*
X37039350Y-50816033D02*
X37039350Y-50982700D01*
X37039350Y-50982700D02*
X37006017Y-51049366D01*
X37006017Y-51049366D02*
X36972683Y-51082700D01*
X36972683Y-51082700D02*
X36906017Y-51116033D01*
X36906017Y-51116033D02*
X36706017Y-51116033D01*
X36706017Y-51116033D02*
X36639350Y-51082700D01*
X36639350Y-51082700D02*
X36606017Y-51049366D01*
X37839350Y-50382700D02*
X37239350Y-51282700D01*
X38072683Y-51116033D02*
X38072683Y-50416033D01*
X38072683Y-50416033D02*
X38306017Y-50916033D01*
X38306017Y-50916033D02*
X38539350Y-50416033D01*
X38539350Y-50416033D02*
X38539350Y-51116033D01*
X38772683Y-50416033D02*
X39172683Y-50416033D01*
X38972683Y-51116033D02*
X38972683Y-50416033D01*
X39806016Y-51049366D02*
X39772683Y-51082700D01*
X39772683Y-51082700D02*
X39672683Y-51116033D01*
X39672683Y-51116033D02*
X39606016Y-51116033D01*
X39606016Y-51116033D02*
X39506016Y-51082700D01*
X39506016Y-51082700D02*
X39439350Y-51016033D01*
X39439350Y-51016033D02*
X39406016Y-50949366D01*
X39406016Y-50949366D02*
X39372683Y-50816033D01*
X39372683Y-50816033D02*
X39372683Y-50716033D01*
X39372683Y-50716033D02*
X39406016Y-50582700D01*
X39406016Y-50582700D02*
X39439350Y-50516033D01*
X39439350Y-50516033D02*
X39506016Y-50449366D01*
X39506016Y-50449366D02*
X39606016Y-50416033D01*
X39606016Y-50416033D02*
X39672683Y-50416033D01*
X39672683Y-50416033D02*
X39772683Y-50449366D01*
X39772683Y-50449366D02*
X39806016Y-50482700D01*
X40106016Y-51116033D02*
X40106016Y-50416033D01*
X40506016Y-51116033D02*
X40206016Y-50716033D01*
X40506016Y-50416033D02*
X40106016Y-50816033D01*
X52768649Y-40289366D02*
X52701982Y-40256033D01*
X52701982Y-40256033D02*
X52601982Y-40256033D01*
X52601982Y-40256033D02*
X52501982Y-40289366D01*
X52501982Y-40289366D02*
X52435316Y-40356033D01*
X52435316Y-40356033D02*
X52401982Y-40422700D01*
X52401982Y-40422700D02*
X52368649Y-40556033D01*
X52368649Y-40556033D02*
X52368649Y-40656033D01*
X52368649Y-40656033D02*
X52401982Y-40789366D01*
X52401982Y-40789366D02*
X52435316Y-40856033D01*
X52435316Y-40856033D02*
X52501982Y-40922700D01*
X52501982Y-40922700D02*
X52601982Y-40956033D01*
X52601982Y-40956033D02*
X52668649Y-40956033D01*
X52668649Y-40956033D02*
X52768649Y-40922700D01*
X52768649Y-40922700D02*
X52801982Y-40889366D01*
X52801982Y-40889366D02*
X52801982Y-40656033D01*
X52801982Y-40656033D02*
X52668649Y-40656033D01*
X53101982Y-40956033D02*
X53101982Y-40256033D01*
X53101982Y-40256033D02*
X53368649Y-40256033D01*
X53368649Y-40256033D02*
X53435316Y-40289366D01*
X53435316Y-40289366D02*
X53468649Y-40322700D01*
X53468649Y-40322700D02*
X53501982Y-40389366D01*
X53501982Y-40389366D02*
X53501982Y-40489366D01*
X53501982Y-40489366D02*
X53468649Y-40556033D01*
X53468649Y-40556033D02*
X53435316Y-40589366D01*
X53435316Y-40589366D02*
X53368649Y-40622700D01*
X53368649Y-40622700D02*
X53101982Y-40622700D01*
X53801982Y-40956033D02*
X53801982Y-40256033D01*
X54268649Y-40256033D02*
X54401982Y-40256033D01*
X54401982Y-40256033D02*
X54468649Y-40289366D01*
X54468649Y-40289366D02*
X54535315Y-40356033D01*
X54535315Y-40356033D02*
X54568649Y-40489366D01*
X54568649Y-40489366D02*
X54568649Y-40722700D01*
X54568649Y-40722700D02*
X54535315Y-40856033D01*
X54535315Y-40856033D02*
X54468649Y-40922700D01*
X54468649Y-40922700D02*
X54401982Y-40956033D01*
X54401982Y-40956033D02*
X54268649Y-40956033D01*
X54268649Y-40956033D02*
X54201982Y-40922700D01*
X54201982Y-40922700D02*
X54135315Y-40856033D01*
X54135315Y-40856033D02*
X54101982Y-40722700D01*
X54101982Y-40722700D02*
X54101982Y-40489366D01*
X54101982Y-40489366D02*
X54135315Y-40356033D01*
X54135315Y-40356033D02*
X54201982Y-40289366D01*
X54201982Y-40289366D02*
X54268649Y-40256033D01*
X55235315Y-40956033D02*
X54835315Y-40956033D01*
X55035315Y-40956033D02*
X55035315Y-40256033D01*
X55035315Y-40256033D02*
X54968648Y-40356033D01*
X54968648Y-40356033D02*
X54901982Y-40422700D01*
X54901982Y-40422700D02*
X54835315Y-40456033D01*
X55468649Y-40256033D02*
X55935315Y-40256033D01*
X55935315Y-40256033D02*
X55635315Y-40956033D01*
X34047350Y-56196033D02*
X34047350Y-55496033D01*
X34047350Y-55496033D02*
X34214017Y-55496033D01*
X34214017Y-55496033D02*
X34314017Y-55529366D01*
X34314017Y-55529366D02*
X34380684Y-55596033D01*
X34380684Y-55596033D02*
X34414017Y-55662700D01*
X34414017Y-55662700D02*
X34447350Y-55796033D01*
X34447350Y-55796033D02*
X34447350Y-55896033D01*
X34447350Y-55896033D02*
X34414017Y-56029366D01*
X34414017Y-56029366D02*
X34380684Y-56096033D01*
X34380684Y-56096033D02*
X34314017Y-56162700D01*
X34314017Y-56162700D02*
X34214017Y-56196033D01*
X34214017Y-56196033D02*
X34047350Y-56196033D01*
X34680684Y-55496033D02*
X35114017Y-55496033D01*
X35114017Y-55496033D02*
X34880684Y-55762700D01*
X34880684Y-55762700D02*
X34980684Y-55762700D01*
X34980684Y-55762700D02*
X35047350Y-55796033D01*
X35047350Y-55796033D02*
X35080684Y-55829366D01*
X35080684Y-55829366D02*
X35114017Y-55896033D01*
X35114017Y-55896033D02*
X35114017Y-56062700D01*
X35114017Y-56062700D02*
X35080684Y-56129366D01*
X35080684Y-56129366D02*
X35047350Y-56162700D01*
X35047350Y-56162700D02*
X34980684Y-56196033D01*
X34980684Y-56196033D02*
X34780684Y-56196033D01*
X34780684Y-56196033D02*
X34714017Y-56162700D01*
X34714017Y-56162700D02*
X34680684Y-56129366D01*
X53749601Y-29982438D02*
X53654363Y-29934819D01*
X53654363Y-29934819D02*
X53511506Y-29934819D01*
X53511506Y-29934819D02*
X53368649Y-29982438D01*
X53368649Y-29982438D02*
X53273411Y-30077676D01*
X53273411Y-30077676D02*
X53225792Y-30172914D01*
X53225792Y-30172914D02*
X53178173Y-30363390D01*
X53178173Y-30363390D02*
X53178173Y-30506247D01*
X53178173Y-30506247D02*
X53225792Y-30696723D01*
X53225792Y-30696723D02*
X53273411Y-30791961D01*
X53273411Y-30791961D02*
X53368649Y-30887200D01*
X53368649Y-30887200D02*
X53511506Y-30934819D01*
X53511506Y-30934819D02*
X53606744Y-30934819D01*
X53606744Y-30934819D02*
X53749601Y-30887200D01*
X53749601Y-30887200D02*
X53797220Y-30839580D01*
X53797220Y-30839580D02*
X53797220Y-30506247D01*
X53797220Y-30506247D02*
X53606744Y-30506247D01*
X54225792Y-30934819D02*
X54225792Y-29934819D01*
X54225792Y-29934819D02*
X54797220Y-30934819D01*
X54797220Y-30934819D02*
X54797220Y-29934819D01*
X55273411Y-30934819D02*
X55273411Y-29934819D01*
X55273411Y-29934819D02*
X55511506Y-29934819D01*
X55511506Y-29934819D02*
X55654363Y-29982438D01*
X55654363Y-29982438D02*
X55749601Y-30077676D01*
X55749601Y-30077676D02*
X55797220Y-30172914D01*
X55797220Y-30172914D02*
X55844839Y-30363390D01*
X55844839Y-30363390D02*
X55844839Y-30506247D01*
X55844839Y-30506247D02*
X55797220Y-30696723D01*
X55797220Y-30696723D02*
X55749601Y-30791961D01*
X55749601Y-30791961D02*
X55654363Y-30887200D01*
X55654363Y-30887200D02*
X55511506Y-30934819D01*
X55511506Y-30934819D02*
X55273411Y-30934819D01*
X49401983Y-22509366D02*
X49335316Y-22476033D01*
X49335316Y-22476033D02*
X49235316Y-22476033D01*
X49235316Y-22476033D02*
X49135316Y-22509366D01*
X49135316Y-22509366D02*
X49068650Y-22576033D01*
X49068650Y-22576033D02*
X49035316Y-22642700D01*
X49035316Y-22642700D02*
X49001983Y-22776033D01*
X49001983Y-22776033D02*
X49001983Y-22876033D01*
X49001983Y-22876033D02*
X49035316Y-23009366D01*
X49035316Y-23009366D02*
X49068650Y-23076033D01*
X49068650Y-23076033D02*
X49135316Y-23142700D01*
X49135316Y-23142700D02*
X49235316Y-23176033D01*
X49235316Y-23176033D02*
X49301983Y-23176033D01*
X49301983Y-23176033D02*
X49401983Y-23142700D01*
X49401983Y-23142700D02*
X49435316Y-23109366D01*
X49435316Y-23109366D02*
X49435316Y-22876033D01*
X49435316Y-22876033D02*
X49301983Y-22876033D01*
X49735316Y-23176033D02*
X49735316Y-22476033D01*
X49735316Y-22476033D02*
X50001983Y-22476033D01*
X50001983Y-22476033D02*
X50068650Y-22509366D01*
X50068650Y-22509366D02*
X50101983Y-22542700D01*
X50101983Y-22542700D02*
X50135316Y-22609366D01*
X50135316Y-22609366D02*
X50135316Y-22709366D01*
X50135316Y-22709366D02*
X50101983Y-22776033D01*
X50101983Y-22776033D02*
X50068650Y-22809366D01*
X50068650Y-22809366D02*
X50001983Y-22842700D01*
X50001983Y-22842700D02*
X49735316Y-22842700D01*
X50435316Y-23176033D02*
X50435316Y-22476033D01*
X50901983Y-22476033D02*
X51035316Y-22476033D01*
X51035316Y-22476033D02*
X51101983Y-22509366D01*
X51101983Y-22509366D02*
X51168649Y-22576033D01*
X51168649Y-22576033D02*
X51201983Y-22709366D01*
X51201983Y-22709366D02*
X51201983Y-22942700D01*
X51201983Y-22942700D02*
X51168649Y-23076033D01*
X51168649Y-23076033D02*
X51101983Y-23142700D01*
X51101983Y-23142700D02*
X51035316Y-23176033D01*
X51035316Y-23176033D02*
X50901983Y-23176033D01*
X50901983Y-23176033D02*
X50835316Y-23142700D01*
X50835316Y-23142700D02*
X50768649Y-23076033D01*
X50768649Y-23076033D02*
X50735316Y-22942700D01*
X50735316Y-22942700D02*
X50735316Y-22709366D01*
X50735316Y-22709366D02*
X50768649Y-22576033D01*
X50768649Y-22576033D02*
X50835316Y-22509366D01*
X50835316Y-22509366D02*
X50901983Y-22476033D01*
X51868649Y-23176033D02*
X51468649Y-23176033D01*
X51668649Y-23176033D02*
X51668649Y-22476033D01*
X51668649Y-22476033D02*
X51601982Y-22576033D01*
X51601982Y-22576033D02*
X51535316Y-22642700D01*
X51535316Y-22642700D02*
X51468649Y-22676033D01*
X52668649Y-22442700D02*
X52068649Y-23342700D01*
X52901982Y-22476033D02*
X52901982Y-23042700D01*
X52901982Y-23042700D02*
X52935316Y-23109366D01*
X52935316Y-23109366D02*
X52968649Y-23142700D01*
X52968649Y-23142700D02*
X53035316Y-23176033D01*
X53035316Y-23176033D02*
X53168649Y-23176033D01*
X53168649Y-23176033D02*
X53235316Y-23142700D01*
X53235316Y-23142700D02*
X53268649Y-23109366D01*
X53268649Y-23109366D02*
X53301982Y-23042700D01*
X53301982Y-23042700D02*
X53301982Y-22476033D01*
X53768649Y-22476033D02*
X53835315Y-22476033D01*
X53835315Y-22476033D02*
X53901982Y-22509366D01*
X53901982Y-22509366D02*
X53935315Y-22542700D01*
X53935315Y-22542700D02*
X53968649Y-22609366D01*
X53968649Y-22609366D02*
X54001982Y-22742700D01*
X54001982Y-22742700D02*
X54001982Y-22909366D01*
X54001982Y-22909366D02*
X53968649Y-23042700D01*
X53968649Y-23042700D02*
X53935315Y-23109366D01*
X53935315Y-23109366D02*
X53901982Y-23142700D01*
X53901982Y-23142700D02*
X53835315Y-23176033D01*
X53835315Y-23176033D02*
X53768649Y-23176033D01*
X53768649Y-23176033D02*
X53701982Y-23142700D01*
X53701982Y-23142700D02*
X53668649Y-23109366D01*
X53668649Y-23109366D02*
X53635315Y-23042700D01*
X53635315Y-23042700D02*
X53601982Y-22909366D01*
X53601982Y-22909366D02*
X53601982Y-22742700D01*
X53601982Y-22742700D02*
X53635315Y-22609366D01*
X53635315Y-22609366D02*
X53668649Y-22542700D01*
X53668649Y-22542700D02*
X53701982Y-22509366D01*
X53701982Y-22509366D02*
X53768649Y-22476033D01*
X54201982Y-22476033D02*
X54601982Y-22476033D01*
X54401982Y-23176033D02*
X54401982Y-22476033D01*
X54768649Y-22476033D02*
X55235315Y-23176033D01*
X55235315Y-22476033D02*
X54768649Y-23176033D01*
X55501982Y-23176033D02*
X55501982Y-22476033D01*
X55501982Y-22476033D02*
X55668649Y-22476033D01*
X55668649Y-22476033D02*
X55768649Y-22509366D01*
X55768649Y-22509366D02*
X55835316Y-22576033D01*
X55835316Y-22576033D02*
X55868649Y-22642700D01*
X55868649Y-22642700D02*
X55901982Y-22776033D01*
X55901982Y-22776033D02*
X55901982Y-22876033D01*
X55901982Y-22876033D02*
X55868649Y-23009366D01*
X55868649Y-23009366D02*
X55835316Y-23076033D01*
X55835316Y-23076033D02*
X55768649Y-23142700D01*
X55768649Y-23142700D02*
X55668649Y-23176033D01*
X55668649Y-23176033D02*
X55501982Y-23176033D01*
X52768649Y-27589366D02*
X52701982Y-27556033D01*
X52701982Y-27556033D02*
X52601982Y-27556033D01*
X52601982Y-27556033D02*
X52501982Y-27589366D01*
X52501982Y-27589366D02*
X52435316Y-27656033D01*
X52435316Y-27656033D02*
X52401982Y-27722700D01*
X52401982Y-27722700D02*
X52368649Y-27856033D01*
X52368649Y-27856033D02*
X52368649Y-27956033D01*
X52368649Y-27956033D02*
X52401982Y-28089366D01*
X52401982Y-28089366D02*
X52435316Y-28156033D01*
X52435316Y-28156033D02*
X52501982Y-28222700D01*
X52501982Y-28222700D02*
X52601982Y-28256033D01*
X52601982Y-28256033D02*
X52668649Y-28256033D01*
X52668649Y-28256033D02*
X52768649Y-28222700D01*
X52768649Y-28222700D02*
X52801982Y-28189366D01*
X52801982Y-28189366D02*
X52801982Y-27956033D01*
X52801982Y-27956033D02*
X52668649Y-27956033D01*
X53101982Y-28256033D02*
X53101982Y-27556033D01*
X53101982Y-27556033D02*
X53368649Y-27556033D01*
X53368649Y-27556033D02*
X53435316Y-27589366D01*
X53435316Y-27589366D02*
X53468649Y-27622700D01*
X53468649Y-27622700D02*
X53501982Y-27689366D01*
X53501982Y-27689366D02*
X53501982Y-27789366D01*
X53501982Y-27789366D02*
X53468649Y-27856033D01*
X53468649Y-27856033D02*
X53435316Y-27889366D01*
X53435316Y-27889366D02*
X53368649Y-27922700D01*
X53368649Y-27922700D02*
X53101982Y-27922700D01*
X53801982Y-28256033D02*
X53801982Y-27556033D01*
X54268649Y-27556033D02*
X54401982Y-27556033D01*
X54401982Y-27556033D02*
X54468649Y-27589366D01*
X54468649Y-27589366D02*
X54535315Y-27656033D01*
X54535315Y-27656033D02*
X54568649Y-27789366D01*
X54568649Y-27789366D02*
X54568649Y-28022700D01*
X54568649Y-28022700D02*
X54535315Y-28156033D01*
X54535315Y-28156033D02*
X54468649Y-28222700D01*
X54468649Y-28222700D02*
X54401982Y-28256033D01*
X54401982Y-28256033D02*
X54268649Y-28256033D01*
X54268649Y-28256033D02*
X54201982Y-28222700D01*
X54201982Y-28222700D02*
X54135315Y-28156033D01*
X54135315Y-28156033D02*
X54101982Y-28022700D01*
X54101982Y-28022700D02*
X54101982Y-27789366D01*
X54101982Y-27789366D02*
X54135315Y-27656033D01*
X54135315Y-27656033D02*
X54201982Y-27589366D01*
X54201982Y-27589366D02*
X54268649Y-27556033D01*
X54835315Y-27622700D02*
X54868648Y-27589366D01*
X54868648Y-27589366D02*
X54935315Y-27556033D01*
X54935315Y-27556033D02*
X55101982Y-27556033D01*
X55101982Y-27556033D02*
X55168648Y-27589366D01*
X55168648Y-27589366D02*
X55201982Y-27622700D01*
X55201982Y-27622700D02*
X55235315Y-27689366D01*
X55235315Y-27689366D02*
X55235315Y-27756033D01*
X55235315Y-27756033D02*
X55201982Y-27856033D01*
X55201982Y-27856033D02*
X54801982Y-28256033D01*
X54801982Y-28256033D02*
X55235315Y-28256033D01*
X55901982Y-28256033D02*
X55501982Y-28256033D01*
X55701982Y-28256033D02*
X55701982Y-27556033D01*
X55701982Y-27556033D02*
X55635315Y-27656033D01*
X55635315Y-27656033D02*
X55568649Y-27722700D01*
X55568649Y-27722700D02*
X55501982Y-27756033D01*
X53749601Y-14742438D02*
X53654363Y-14694819D01*
X53654363Y-14694819D02*
X53511506Y-14694819D01*
X53511506Y-14694819D02*
X53368649Y-14742438D01*
X53368649Y-14742438D02*
X53273411Y-14837676D01*
X53273411Y-14837676D02*
X53225792Y-14932914D01*
X53225792Y-14932914D02*
X53178173Y-15123390D01*
X53178173Y-15123390D02*
X53178173Y-15266247D01*
X53178173Y-15266247D02*
X53225792Y-15456723D01*
X53225792Y-15456723D02*
X53273411Y-15551961D01*
X53273411Y-15551961D02*
X53368649Y-15647200D01*
X53368649Y-15647200D02*
X53511506Y-15694819D01*
X53511506Y-15694819D02*
X53606744Y-15694819D01*
X53606744Y-15694819D02*
X53749601Y-15647200D01*
X53749601Y-15647200D02*
X53797220Y-15599580D01*
X53797220Y-15599580D02*
X53797220Y-15266247D01*
X53797220Y-15266247D02*
X53606744Y-15266247D01*
X54225792Y-15694819D02*
X54225792Y-14694819D01*
X54225792Y-14694819D02*
X54797220Y-15694819D01*
X54797220Y-15694819D02*
X54797220Y-14694819D01*
X55273411Y-15694819D02*
X55273411Y-14694819D01*
X55273411Y-14694819D02*
X55511506Y-14694819D01*
X55511506Y-14694819D02*
X55654363Y-14742438D01*
X55654363Y-14742438D02*
X55749601Y-14837676D01*
X55749601Y-14837676D02*
X55797220Y-14932914D01*
X55797220Y-14932914D02*
X55844839Y-15123390D01*
X55844839Y-15123390D02*
X55844839Y-15266247D01*
X55844839Y-15266247D02*
X55797220Y-15456723D01*
X55797220Y-15456723D02*
X55749601Y-15551961D01*
X55749601Y-15551961D02*
X55654363Y-15647200D01*
X55654363Y-15647200D02*
X55511506Y-15694819D01*
X55511506Y-15694819D02*
X55273411Y-15694819D01*
X34134588Y-47762438D02*
X34039350Y-47714819D01*
X34039350Y-47714819D02*
X33896493Y-47714819D01*
X33896493Y-47714819D02*
X33753636Y-47762438D01*
X33753636Y-47762438D02*
X33658398Y-47857676D01*
X33658398Y-47857676D02*
X33610779Y-47952914D01*
X33610779Y-47952914D02*
X33563160Y-48143390D01*
X33563160Y-48143390D02*
X33563160Y-48286247D01*
X33563160Y-48286247D02*
X33610779Y-48476723D01*
X33610779Y-48476723D02*
X33658398Y-48571961D01*
X33658398Y-48571961D02*
X33753636Y-48667200D01*
X33753636Y-48667200D02*
X33896493Y-48714819D01*
X33896493Y-48714819D02*
X33991731Y-48714819D01*
X33991731Y-48714819D02*
X34134588Y-48667200D01*
X34134588Y-48667200D02*
X34182207Y-48619580D01*
X34182207Y-48619580D02*
X34182207Y-48286247D01*
X34182207Y-48286247D02*
X33991731Y-48286247D01*
X34610779Y-48714819D02*
X34610779Y-47714819D01*
X34610779Y-47714819D02*
X35182207Y-48714819D01*
X35182207Y-48714819D02*
X35182207Y-47714819D01*
X35658398Y-48714819D02*
X35658398Y-47714819D01*
X35658398Y-47714819D02*
X35896493Y-47714819D01*
X35896493Y-47714819D02*
X36039350Y-47762438D01*
X36039350Y-47762438D02*
X36134588Y-47857676D01*
X36134588Y-47857676D02*
X36182207Y-47952914D01*
X36182207Y-47952914D02*
X36229826Y-48143390D01*
X36229826Y-48143390D02*
X36229826Y-48286247D01*
X36229826Y-48286247D02*
X36182207Y-48476723D01*
X36182207Y-48476723D02*
X36134588Y-48571961D01*
X36134588Y-48571961D02*
X36039350Y-48667200D01*
X36039350Y-48667200D02*
X35896493Y-48714819D01*
X35896493Y-48714819D02*
X35658398Y-48714819D01*
X33439350Y-19936033D02*
X33672684Y-20636033D01*
X33672684Y-20636033D02*
X33906017Y-19936033D01*
X34139350Y-20636033D02*
X34139350Y-19936033D01*
X34139350Y-19936033D02*
X34406017Y-19936033D01*
X34406017Y-19936033D02*
X34472684Y-19969366D01*
X34472684Y-19969366D02*
X34506017Y-20002700D01*
X34506017Y-20002700D02*
X34539350Y-20069366D01*
X34539350Y-20069366D02*
X34539350Y-20169366D01*
X34539350Y-20169366D02*
X34506017Y-20236033D01*
X34506017Y-20236033D02*
X34472684Y-20269366D01*
X34472684Y-20269366D02*
X34406017Y-20302700D01*
X34406017Y-20302700D02*
X34139350Y-20302700D01*
X35339350Y-19902700D02*
X34739350Y-20802700D01*
X35939350Y-19969366D02*
X35872683Y-19936033D01*
X35872683Y-19936033D02*
X35772683Y-19936033D01*
X35772683Y-19936033D02*
X35672683Y-19969366D01*
X35672683Y-19969366D02*
X35606017Y-20036033D01*
X35606017Y-20036033D02*
X35572683Y-20102700D01*
X35572683Y-20102700D02*
X35539350Y-20236033D01*
X35539350Y-20236033D02*
X35539350Y-20336033D01*
X35539350Y-20336033D02*
X35572683Y-20469366D01*
X35572683Y-20469366D02*
X35606017Y-20536033D01*
X35606017Y-20536033D02*
X35672683Y-20602700D01*
X35672683Y-20602700D02*
X35772683Y-20636033D01*
X35772683Y-20636033D02*
X35839350Y-20636033D01*
X35839350Y-20636033D02*
X35939350Y-20602700D01*
X35939350Y-20602700D02*
X35972683Y-20569366D01*
X35972683Y-20569366D02*
X35972683Y-20336033D01*
X35972683Y-20336033D02*
X35839350Y-20336033D01*
X36272683Y-20636033D02*
X36272683Y-19936033D01*
X36272683Y-19936033D02*
X36539350Y-19936033D01*
X36539350Y-19936033D02*
X36606017Y-19969366D01*
X36606017Y-19969366D02*
X36639350Y-20002700D01*
X36639350Y-20002700D02*
X36672683Y-20069366D01*
X36672683Y-20069366D02*
X36672683Y-20169366D01*
X36672683Y-20169366D02*
X36639350Y-20236033D01*
X36639350Y-20236033D02*
X36606017Y-20269366D01*
X36606017Y-20269366D02*
X36539350Y-20302700D01*
X36539350Y-20302700D02*
X36272683Y-20302700D01*
X36972683Y-20636033D02*
X36972683Y-19936033D01*
X37439350Y-19936033D02*
X37572683Y-19936033D01*
X37572683Y-19936033D02*
X37639350Y-19969366D01*
X37639350Y-19969366D02*
X37706016Y-20036033D01*
X37706016Y-20036033D02*
X37739350Y-20169366D01*
X37739350Y-20169366D02*
X37739350Y-20402700D01*
X37739350Y-20402700D02*
X37706016Y-20536033D01*
X37706016Y-20536033D02*
X37639350Y-20602700D01*
X37639350Y-20602700D02*
X37572683Y-20636033D01*
X37572683Y-20636033D02*
X37439350Y-20636033D01*
X37439350Y-20636033D02*
X37372683Y-20602700D01*
X37372683Y-20602700D02*
X37306016Y-20536033D01*
X37306016Y-20536033D02*
X37272683Y-20402700D01*
X37272683Y-20402700D02*
X37272683Y-20169366D01*
X37272683Y-20169366D02*
X37306016Y-20036033D01*
X37306016Y-20036033D02*
X37372683Y-19969366D01*
X37372683Y-19969366D02*
X37439350Y-19936033D01*
X37972683Y-19936033D02*
X38406016Y-19936033D01*
X38406016Y-19936033D02*
X38172683Y-20202700D01*
X38172683Y-20202700D02*
X38272683Y-20202700D01*
X38272683Y-20202700D02*
X38339349Y-20236033D01*
X38339349Y-20236033D02*
X38372683Y-20269366D01*
X38372683Y-20269366D02*
X38406016Y-20336033D01*
X38406016Y-20336033D02*
X38406016Y-20502700D01*
X38406016Y-20502700D02*
X38372683Y-20569366D01*
X38372683Y-20569366D02*
X38339349Y-20602700D01*
X38339349Y-20602700D02*
X38272683Y-20636033D01*
X38272683Y-20636033D02*
X38072683Y-20636033D01*
X38072683Y-20636033D02*
X38006016Y-20602700D01*
X38006016Y-20602700D02*
X37972683Y-20569366D01*
X39006016Y-19936033D02*
X38872683Y-19936033D01*
X38872683Y-19936033D02*
X38806016Y-19969366D01*
X38806016Y-19969366D02*
X38772683Y-20002700D01*
X38772683Y-20002700D02*
X38706016Y-20102700D01*
X38706016Y-20102700D02*
X38672683Y-20236033D01*
X38672683Y-20236033D02*
X38672683Y-20502700D01*
X38672683Y-20502700D02*
X38706016Y-20569366D01*
X38706016Y-20569366D02*
X38739350Y-20602700D01*
X38739350Y-20602700D02*
X38806016Y-20636033D01*
X38806016Y-20636033D02*
X38939350Y-20636033D01*
X38939350Y-20636033D02*
X39006016Y-20602700D01*
X39006016Y-20602700D02*
X39039350Y-20569366D01*
X39039350Y-20569366D02*
X39072683Y-20502700D01*
X39072683Y-20502700D02*
X39072683Y-20336033D01*
X39072683Y-20336033D02*
X39039350Y-20269366D01*
X39039350Y-20269366D02*
X39006016Y-20236033D01*
X39006016Y-20236033D02*
X38939350Y-20202700D01*
X38939350Y-20202700D02*
X38806016Y-20202700D01*
X38806016Y-20202700D02*
X38739350Y-20236033D01*
X38739350Y-20236033D02*
X38706016Y-20269366D01*
X38706016Y-20269366D02*
X38672683Y-20336033D01*
X54835315Y-58736033D02*
X54835315Y-58036033D01*
X54835315Y-58036033D02*
X55001982Y-58036033D01*
X55001982Y-58036033D02*
X55101982Y-58069366D01*
X55101982Y-58069366D02*
X55168649Y-58136033D01*
X55168649Y-58136033D02*
X55201982Y-58202700D01*
X55201982Y-58202700D02*
X55235315Y-58336033D01*
X55235315Y-58336033D02*
X55235315Y-58436033D01*
X55235315Y-58436033D02*
X55201982Y-58569366D01*
X55201982Y-58569366D02*
X55168649Y-58636033D01*
X55168649Y-58636033D02*
X55101982Y-58702700D01*
X55101982Y-58702700D02*
X55001982Y-58736033D01*
X55001982Y-58736033D02*
X54835315Y-58736033D01*
X55668649Y-58036033D02*
X55735315Y-58036033D01*
X55735315Y-58036033D02*
X55801982Y-58069366D01*
X55801982Y-58069366D02*
X55835315Y-58102700D01*
X55835315Y-58102700D02*
X55868649Y-58169366D01*
X55868649Y-58169366D02*
X55901982Y-58302700D01*
X55901982Y-58302700D02*
X55901982Y-58469366D01*
X55901982Y-58469366D02*
X55868649Y-58602700D01*
X55868649Y-58602700D02*
X55835315Y-58669366D01*
X55835315Y-58669366D02*
X55801982Y-58702700D01*
X55801982Y-58702700D02*
X55735315Y-58736033D01*
X55735315Y-58736033D02*
X55668649Y-58736033D01*
X55668649Y-58736033D02*
X55601982Y-58702700D01*
X55601982Y-58702700D02*
X55568649Y-58669366D01*
X55568649Y-58669366D02*
X55535315Y-58602700D01*
X55535315Y-58602700D02*
X55501982Y-58469366D01*
X55501982Y-58469366D02*
X55501982Y-58302700D01*
X55501982Y-58302700D02*
X55535315Y-58169366D01*
X55535315Y-58169366D02*
X55568649Y-58102700D01*
X55568649Y-58102700D02*
X55601982Y-58069366D01*
X55601982Y-58069366D02*
X55668649Y-58036033D01*
X33515541Y-14694819D02*
X34134588Y-14694819D01*
X34134588Y-14694819D02*
X33801255Y-15075771D01*
X33801255Y-15075771D02*
X33944112Y-15075771D01*
X33944112Y-15075771D02*
X34039350Y-15123390D01*
X34039350Y-15123390D02*
X34086969Y-15171009D01*
X34086969Y-15171009D02*
X34134588Y-15266247D01*
X34134588Y-15266247D02*
X34134588Y-15504342D01*
X34134588Y-15504342D02*
X34086969Y-15599580D01*
X34086969Y-15599580D02*
X34039350Y-15647200D01*
X34039350Y-15647200D02*
X33944112Y-15694819D01*
X33944112Y-15694819D02*
X33658398Y-15694819D01*
X33658398Y-15694819D02*
X33563160Y-15647200D01*
X33563160Y-15647200D02*
X33515541Y-15599580D01*
X34420303Y-14694819D02*
X34753636Y-15694819D01*
X34753636Y-15694819D02*
X35086969Y-14694819D01*
X35325065Y-14694819D02*
X35944112Y-14694819D01*
X35944112Y-14694819D02*
X35610779Y-15075771D01*
X35610779Y-15075771D02*
X35753636Y-15075771D01*
X35753636Y-15075771D02*
X35848874Y-15123390D01*
X35848874Y-15123390D02*
X35896493Y-15171009D01*
X35896493Y-15171009D02*
X35944112Y-15266247D01*
X35944112Y-15266247D02*
X35944112Y-15504342D01*
X35944112Y-15504342D02*
X35896493Y-15599580D01*
X35896493Y-15599580D02*
X35848874Y-15647200D01*
X35848874Y-15647200D02*
X35753636Y-15694819D01*
X35753636Y-15694819D02*
X35467922Y-15694819D01*
X35467922Y-15694819D02*
X35372684Y-15647200D01*
X35372684Y-15647200D02*
X35325065Y-15599580D01*
X33906017Y-37749366D02*
X33839350Y-37716033D01*
X33839350Y-37716033D02*
X33739350Y-37716033D01*
X33739350Y-37716033D02*
X33639350Y-37749366D01*
X33639350Y-37749366D02*
X33572684Y-37816033D01*
X33572684Y-37816033D02*
X33539350Y-37882700D01*
X33539350Y-37882700D02*
X33506017Y-38016033D01*
X33506017Y-38016033D02*
X33506017Y-38116033D01*
X33506017Y-38116033D02*
X33539350Y-38249366D01*
X33539350Y-38249366D02*
X33572684Y-38316033D01*
X33572684Y-38316033D02*
X33639350Y-38382700D01*
X33639350Y-38382700D02*
X33739350Y-38416033D01*
X33739350Y-38416033D02*
X33806017Y-38416033D01*
X33806017Y-38416033D02*
X33906017Y-38382700D01*
X33906017Y-38382700D02*
X33939350Y-38349366D01*
X33939350Y-38349366D02*
X33939350Y-38116033D01*
X33939350Y-38116033D02*
X33806017Y-38116033D01*
X34239350Y-38416033D02*
X34239350Y-37716033D01*
X34239350Y-37716033D02*
X34506017Y-37716033D01*
X34506017Y-37716033D02*
X34572684Y-37749366D01*
X34572684Y-37749366D02*
X34606017Y-37782700D01*
X34606017Y-37782700D02*
X34639350Y-37849366D01*
X34639350Y-37849366D02*
X34639350Y-37949366D01*
X34639350Y-37949366D02*
X34606017Y-38016033D01*
X34606017Y-38016033D02*
X34572684Y-38049366D01*
X34572684Y-38049366D02*
X34506017Y-38082700D01*
X34506017Y-38082700D02*
X34239350Y-38082700D01*
X34939350Y-38416033D02*
X34939350Y-37716033D01*
X35406017Y-37716033D02*
X35539350Y-37716033D01*
X35539350Y-37716033D02*
X35606017Y-37749366D01*
X35606017Y-37749366D02*
X35672683Y-37816033D01*
X35672683Y-37816033D02*
X35706017Y-37949366D01*
X35706017Y-37949366D02*
X35706017Y-38182700D01*
X35706017Y-38182700D02*
X35672683Y-38316033D01*
X35672683Y-38316033D02*
X35606017Y-38382700D01*
X35606017Y-38382700D02*
X35539350Y-38416033D01*
X35539350Y-38416033D02*
X35406017Y-38416033D01*
X35406017Y-38416033D02*
X35339350Y-38382700D01*
X35339350Y-38382700D02*
X35272683Y-38316033D01*
X35272683Y-38316033D02*
X35239350Y-38182700D01*
X35239350Y-38182700D02*
X35239350Y-37949366D01*
X35239350Y-37949366D02*
X35272683Y-37816033D01*
X35272683Y-37816033D02*
X35339350Y-37749366D01*
X35339350Y-37749366D02*
X35406017Y-37716033D01*
X35972683Y-37782700D02*
X36006016Y-37749366D01*
X36006016Y-37749366D02*
X36072683Y-37716033D01*
X36072683Y-37716033D02*
X36239350Y-37716033D01*
X36239350Y-37716033D02*
X36306016Y-37749366D01*
X36306016Y-37749366D02*
X36339350Y-37782700D01*
X36339350Y-37782700D02*
X36372683Y-37849366D01*
X36372683Y-37849366D02*
X36372683Y-37916033D01*
X36372683Y-37916033D02*
X36339350Y-38016033D01*
X36339350Y-38016033D02*
X35939350Y-38416033D01*
X35939350Y-38416033D02*
X36372683Y-38416033D01*
X36972683Y-37716033D02*
X36839350Y-37716033D01*
X36839350Y-37716033D02*
X36772683Y-37749366D01*
X36772683Y-37749366D02*
X36739350Y-37782700D01*
X36739350Y-37782700D02*
X36672683Y-37882700D01*
X36672683Y-37882700D02*
X36639350Y-38016033D01*
X36639350Y-38016033D02*
X36639350Y-38282700D01*
X36639350Y-38282700D02*
X36672683Y-38349366D01*
X36672683Y-38349366D02*
X36706017Y-38382700D01*
X36706017Y-38382700D02*
X36772683Y-38416033D01*
X36772683Y-38416033D02*
X36906017Y-38416033D01*
X36906017Y-38416033D02*
X36972683Y-38382700D01*
X36972683Y-38382700D02*
X37006017Y-38349366D01*
X37006017Y-38349366D02*
X37039350Y-38282700D01*
X37039350Y-38282700D02*
X37039350Y-38116033D01*
X37039350Y-38116033D02*
X37006017Y-38049366D01*
X37006017Y-38049366D02*
X36972683Y-38016033D01*
X36972683Y-38016033D02*
X36906017Y-37982700D01*
X36906017Y-37982700D02*
X36772683Y-37982700D01*
X36772683Y-37982700D02*
X36706017Y-38016033D01*
X36706017Y-38016033D02*
X36672683Y-38049366D01*
X36672683Y-38049366D02*
X36639350Y-38116033D01*
X33906017Y-27589366D02*
X33839350Y-27556033D01*
X33839350Y-27556033D02*
X33739350Y-27556033D01*
X33739350Y-27556033D02*
X33639350Y-27589366D01*
X33639350Y-27589366D02*
X33572684Y-27656033D01*
X33572684Y-27656033D02*
X33539350Y-27722700D01*
X33539350Y-27722700D02*
X33506017Y-27856033D01*
X33506017Y-27856033D02*
X33506017Y-27956033D01*
X33506017Y-27956033D02*
X33539350Y-28089366D01*
X33539350Y-28089366D02*
X33572684Y-28156033D01*
X33572684Y-28156033D02*
X33639350Y-28222700D01*
X33639350Y-28222700D02*
X33739350Y-28256033D01*
X33739350Y-28256033D02*
X33806017Y-28256033D01*
X33806017Y-28256033D02*
X33906017Y-28222700D01*
X33906017Y-28222700D02*
X33939350Y-28189366D01*
X33939350Y-28189366D02*
X33939350Y-27956033D01*
X33939350Y-27956033D02*
X33806017Y-27956033D01*
X34239350Y-28256033D02*
X34239350Y-27556033D01*
X34239350Y-27556033D02*
X34506017Y-27556033D01*
X34506017Y-27556033D02*
X34572684Y-27589366D01*
X34572684Y-27589366D02*
X34606017Y-27622700D01*
X34606017Y-27622700D02*
X34639350Y-27689366D01*
X34639350Y-27689366D02*
X34639350Y-27789366D01*
X34639350Y-27789366D02*
X34606017Y-27856033D01*
X34606017Y-27856033D02*
X34572684Y-27889366D01*
X34572684Y-27889366D02*
X34506017Y-27922700D01*
X34506017Y-27922700D02*
X34239350Y-27922700D01*
X34939350Y-28256033D02*
X34939350Y-27556033D01*
X35406017Y-27556033D02*
X35539350Y-27556033D01*
X35539350Y-27556033D02*
X35606017Y-27589366D01*
X35606017Y-27589366D02*
X35672683Y-27656033D01*
X35672683Y-27656033D02*
X35706017Y-27789366D01*
X35706017Y-27789366D02*
X35706017Y-28022700D01*
X35706017Y-28022700D02*
X35672683Y-28156033D01*
X35672683Y-28156033D02*
X35606017Y-28222700D01*
X35606017Y-28222700D02*
X35539350Y-28256033D01*
X35539350Y-28256033D02*
X35406017Y-28256033D01*
X35406017Y-28256033D02*
X35339350Y-28222700D01*
X35339350Y-28222700D02*
X35272683Y-28156033D01*
X35272683Y-28156033D02*
X35239350Y-28022700D01*
X35239350Y-28022700D02*
X35239350Y-27789366D01*
X35239350Y-27789366D02*
X35272683Y-27656033D01*
X35272683Y-27656033D02*
X35339350Y-27589366D01*
X35339350Y-27589366D02*
X35406017Y-27556033D01*
X35939350Y-27556033D02*
X36372683Y-27556033D01*
X36372683Y-27556033D02*
X36139350Y-27822700D01*
X36139350Y-27822700D02*
X36239350Y-27822700D01*
X36239350Y-27822700D02*
X36306016Y-27856033D01*
X36306016Y-27856033D02*
X36339350Y-27889366D01*
X36339350Y-27889366D02*
X36372683Y-27956033D01*
X36372683Y-27956033D02*
X36372683Y-28122700D01*
X36372683Y-28122700D02*
X36339350Y-28189366D01*
X36339350Y-28189366D02*
X36306016Y-28222700D01*
X36306016Y-28222700D02*
X36239350Y-28256033D01*
X36239350Y-28256033D02*
X36039350Y-28256033D01*
X36039350Y-28256033D02*
X35972683Y-28222700D01*
X35972683Y-28222700D02*
X35939350Y-28189366D01*
X37006017Y-27556033D02*
X36672683Y-27556033D01*
X36672683Y-27556033D02*
X36639350Y-27889366D01*
X36639350Y-27889366D02*
X36672683Y-27856033D01*
X36672683Y-27856033D02*
X36739350Y-27822700D01*
X36739350Y-27822700D02*
X36906017Y-27822700D01*
X36906017Y-27822700D02*
X36972683Y-27856033D01*
X36972683Y-27856033D02*
X37006017Y-27889366D01*
X37006017Y-27889366D02*
X37039350Y-27956033D01*
X37039350Y-27956033D02*
X37039350Y-28122700D01*
X37039350Y-28122700D02*
X37006017Y-28189366D01*
X37006017Y-28189366D02*
X36972683Y-28222700D01*
X36972683Y-28222700D02*
X36906017Y-28256033D01*
X36906017Y-28256033D02*
X36739350Y-28256033D01*
X36739350Y-28256033D02*
X36672683Y-28222700D01*
X36672683Y-28222700D02*
X36639350Y-28189366D01*
X33505921Y-17708289D02*
X33839254Y-17708289D01*
X33982111Y-18232099D02*
X33505921Y-18232099D01*
X33505921Y-18232099D02*
X33505921Y-17232099D01*
X33505921Y-17232099D02*
X33982111Y-17232099D01*
X34410683Y-18232099D02*
X34410683Y-17232099D01*
X34410683Y-17232099D02*
X34982111Y-18232099D01*
X34982111Y-18232099D02*
X34982111Y-17232099D01*
X36172587Y-17184480D02*
X35315445Y-18470194D01*
X37077349Y-18232099D02*
X36744016Y-17755908D01*
X36505921Y-18232099D02*
X36505921Y-17232099D01*
X36505921Y-17232099D02*
X36886873Y-17232099D01*
X36886873Y-17232099D02*
X36982111Y-17279718D01*
X36982111Y-17279718D02*
X37029730Y-17327337D01*
X37029730Y-17327337D02*
X37077349Y-17422575D01*
X37077349Y-17422575D02*
X37077349Y-17565432D01*
X37077349Y-17565432D02*
X37029730Y-17660670D01*
X37029730Y-17660670D02*
X36982111Y-17708289D01*
X36982111Y-17708289D02*
X36886873Y-17755908D01*
X36886873Y-17755908D02*
X36505921Y-17755908D01*
X37505921Y-17708289D02*
X37839254Y-17708289D01*
X37982111Y-18232099D02*
X37505921Y-18232099D01*
X37505921Y-18232099D02*
X37505921Y-17232099D01*
X37505921Y-17232099D02*
X37982111Y-17232099D01*
X38363064Y-18184480D02*
X38505921Y-18232099D01*
X38505921Y-18232099D02*
X38744016Y-18232099D01*
X38744016Y-18232099D02*
X38839254Y-18184480D01*
X38839254Y-18184480D02*
X38886873Y-18136860D01*
X38886873Y-18136860D02*
X38934492Y-18041622D01*
X38934492Y-18041622D02*
X38934492Y-17946384D01*
X38934492Y-17946384D02*
X38886873Y-17851146D01*
X38886873Y-17851146D02*
X38839254Y-17803527D01*
X38839254Y-17803527D02*
X38744016Y-17755908D01*
X38744016Y-17755908D02*
X38553540Y-17708289D01*
X38553540Y-17708289D02*
X38458302Y-17660670D01*
X38458302Y-17660670D02*
X38410683Y-17613051D01*
X38410683Y-17613051D02*
X38363064Y-17517813D01*
X38363064Y-17517813D02*
X38363064Y-17422575D01*
X38363064Y-17422575D02*
X38410683Y-17327337D01*
X38410683Y-17327337D02*
X38458302Y-17279718D01*
X38458302Y-17279718D02*
X38553540Y-17232099D01*
X38553540Y-17232099D02*
X38791635Y-17232099D01*
X38791635Y-17232099D02*
X38934492Y-17279718D01*
X39363064Y-17708289D02*
X39696397Y-17708289D01*
X39839254Y-18232099D02*
X39363064Y-18232099D01*
X39363064Y-18232099D02*
X39363064Y-17232099D01*
X39363064Y-17232099D02*
X39839254Y-17232099D01*
X40124969Y-17232099D02*
X40696397Y-17232099D01*
X40410683Y-18232099D02*
X40410683Y-17232099D01*
X33906017Y-35209366D02*
X33839350Y-35176033D01*
X33839350Y-35176033D02*
X33739350Y-35176033D01*
X33739350Y-35176033D02*
X33639350Y-35209366D01*
X33639350Y-35209366D02*
X33572684Y-35276033D01*
X33572684Y-35276033D02*
X33539350Y-35342700D01*
X33539350Y-35342700D02*
X33506017Y-35476033D01*
X33506017Y-35476033D02*
X33506017Y-35576033D01*
X33506017Y-35576033D02*
X33539350Y-35709366D01*
X33539350Y-35709366D02*
X33572684Y-35776033D01*
X33572684Y-35776033D02*
X33639350Y-35842700D01*
X33639350Y-35842700D02*
X33739350Y-35876033D01*
X33739350Y-35876033D02*
X33806017Y-35876033D01*
X33806017Y-35876033D02*
X33906017Y-35842700D01*
X33906017Y-35842700D02*
X33939350Y-35809366D01*
X33939350Y-35809366D02*
X33939350Y-35576033D01*
X33939350Y-35576033D02*
X33806017Y-35576033D01*
X34239350Y-35876033D02*
X34239350Y-35176033D01*
X34239350Y-35176033D02*
X34506017Y-35176033D01*
X34506017Y-35176033D02*
X34572684Y-35209366D01*
X34572684Y-35209366D02*
X34606017Y-35242700D01*
X34606017Y-35242700D02*
X34639350Y-35309366D01*
X34639350Y-35309366D02*
X34639350Y-35409366D01*
X34639350Y-35409366D02*
X34606017Y-35476033D01*
X34606017Y-35476033D02*
X34572684Y-35509366D01*
X34572684Y-35509366D02*
X34506017Y-35542700D01*
X34506017Y-35542700D02*
X34239350Y-35542700D01*
X34939350Y-35876033D02*
X34939350Y-35176033D01*
X35406017Y-35176033D02*
X35539350Y-35176033D01*
X35539350Y-35176033D02*
X35606017Y-35209366D01*
X35606017Y-35209366D02*
X35672683Y-35276033D01*
X35672683Y-35276033D02*
X35706017Y-35409366D01*
X35706017Y-35409366D02*
X35706017Y-35642700D01*
X35706017Y-35642700D02*
X35672683Y-35776033D01*
X35672683Y-35776033D02*
X35606017Y-35842700D01*
X35606017Y-35842700D02*
X35539350Y-35876033D01*
X35539350Y-35876033D02*
X35406017Y-35876033D01*
X35406017Y-35876033D02*
X35339350Y-35842700D01*
X35339350Y-35842700D02*
X35272683Y-35776033D01*
X35272683Y-35776033D02*
X35239350Y-35642700D01*
X35239350Y-35642700D02*
X35239350Y-35409366D01*
X35239350Y-35409366D02*
X35272683Y-35276033D01*
X35272683Y-35276033D02*
X35339350Y-35209366D01*
X35339350Y-35209366D02*
X35406017Y-35176033D01*
X35972683Y-35242700D02*
X36006016Y-35209366D01*
X36006016Y-35209366D02*
X36072683Y-35176033D01*
X36072683Y-35176033D02*
X36239350Y-35176033D01*
X36239350Y-35176033D02*
X36306016Y-35209366D01*
X36306016Y-35209366D02*
X36339350Y-35242700D01*
X36339350Y-35242700D02*
X36372683Y-35309366D01*
X36372683Y-35309366D02*
X36372683Y-35376033D01*
X36372683Y-35376033D02*
X36339350Y-35476033D01*
X36339350Y-35476033D02*
X35939350Y-35876033D01*
X35939350Y-35876033D02*
X36372683Y-35876033D01*
X37006017Y-35176033D02*
X36672683Y-35176033D01*
X36672683Y-35176033D02*
X36639350Y-35509366D01*
X36639350Y-35509366D02*
X36672683Y-35476033D01*
X36672683Y-35476033D02*
X36739350Y-35442700D01*
X36739350Y-35442700D02*
X36906017Y-35442700D01*
X36906017Y-35442700D02*
X36972683Y-35476033D01*
X36972683Y-35476033D02*
X37006017Y-35509366D01*
X37006017Y-35509366D02*
X37039350Y-35576033D01*
X37039350Y-35576033D02*
X37039350Y-35742700D01*
X37039350Y-35742700D02*
X37006017Y-35809366D01*
X37006017Y-35809366D02*
X36972683Y-35842700D01*
X36972683Y-35842700D02*
X36906017Y-35876033D01*
X36906017Y-35876033D02*
X36739350Y-35876033D01*
X36739350Y-35876033D02*
X36672683Y-35842700D01*
X36672683Y-35842700D02*
X36639350Y-35809366D01*
X54835315Y-56196033D02*
X54835315Y-55496033D01*
X54835315Y-55496033D02*
X55001982Y-55496033D01*
X55001982Y-55496033D02*
X55101982Y-55529366D01*
X55101982Y-55529366D02*
X55168649Y-55596033D01*
X55168649Y-55596033D02*
X55201982Y-55662700D01*
X55201982Y-55662700D02*
X55235315Y-55796033D01*
X55235315Y-55796033D02*
X55235315Y-55896033D01*
X55235315Y-55896033D02*
X55201982Y-56029366D01*
X55201982Y-56029366D02*
X55168649Y-56096033D01*
X55168649Y-56096033D02*
X55101982Y-56162700D01*
X55101982Y-56162700D02*
X55001982Y-56196033D01*
X55001982Y-56196033D02*
X54835315Y-56196033D01*
X55901982Y-56196033D02*
X55501982Y-56196033D01*
X55701982Y-56196033D02*
X55701982Y-55496033D01*
X55701982Y-55496033D02*
X55635315Y-55596033D01*
X55635315Y-55596033D02*
X55568649Y-55662700D01*
X55568649Y-55662700D02*
X55501982Y-55696033D01*
X34340969Y-60666099D02*
X33864779Y-60666099D01*
X33864779Y-60666099D02*
X33817160Y-61142289D01*
X33817160Y-61142289D02*
X33864779Y-61094670D01*
X33864779Y-61094670D02*
X33960017Y-61047051D01*
X33960017Y-61047051D02*
X34198112Y-61047051D01*
X34198112Y-61047051D02*
X34293350Y-61094670D01*
X34293350Y-61094670D02*
X34340969Y-61142289D01*
X34340969Y-61142289D02*
X34388588Y-61237527D01*
X34388588Y-61237527D02*
X34388588Y-61475622D01*
X34388588Y-61475622D02*
X34340969Y-61570860D01*
X34340969Y-61570860D02*
X34293350Y-61618480D01*
X34293350Y-61618480D02*
X34198112Y-61666099D01*
X34198112Y-61666099D02*
X33960017Y-61666099D01*
X33960017Y-61666099D02*
X33864779Y-61618480D01*
X33864779Y-61618480D02*
X33817160Y-61570860D01*
X34674303Y-60666099D02*
X35007636Y-61666099D01*
X35007636Y-61666099D02*
X35340969Y-60666099D01*
X49235316Y-25049366D02*
X49168649Y-25016033D01*
X49168649Y-25016033D02*
X49068649Y-25016033D01*
X49068649Y-25016033D02*
X48968649Y-25049366D01*
X48968649Y-25049366D02*
X48901983Y-25116033D01*
X48901983Y-25116033D02*
X48868649Y-25182700D01*
X48868649Y-25182700D02*
X48835316Y-25316033D01*
X48835316Y-25316033D02*
X48835316Y-25416033D01*
X48835316Y-25416033D02*
X48868649Y-25549366D01*
X48868649Y-25549366D02*
X48901983Y-25616033D01*
X48901983Y-25616033D02*
X48968649Y-25682700D01*
X48968649Y-25682700D02*
X49068649Y-25716033D01*
X49068649Y-25716033D02*
X49135316Y-25716033D01*
X49135316Y-25716033D02*
X49235316Y-25682700D01*
X49235316Y-25682700D02*
X49268649Y-25649366D01*
X49268649Y-25649366D02*
X49268649Y-25416033D01*
X49268649Y-25416033D02*
X49135316Y-25416033D01*
X49568649Y-25716033D02*
X49568649Y-25016033D01*
X49568649Y-25016033D02*
X49835316Y-25016033D01*
X49835316Y-25016033D02*
X49901983Y-25049366D01*
X49901983Y-25049366D02*
X49935316Y-25082700D01*
X49935316Y-25082700D02*
X49968649Y-25149366D01*
X49968649Y-25149366D02*
X49968649Y-25249366D01*
X49968649Y-25249366D02*
X49935316Y-25316033D01*
X49935316Y-25316033D02*
X49901983Y-25349366D01*
X49901983Y-25349366D02*
X49835316Y-25382700D01*
X49835316Y-25382700D02*
X49568649Y-25382700D01*
X50268649Y-25716033D02*
X50268649Y-25016033D01*
X50735316Y-25016033D02*
X50868649Y-25016033D01*
X50868649Y-25016033D02*
X50935316Y-25049366D01*
X50935316Y-25049366D02*
X51001982Y-25116033D01*
X51001982Y-25116033D02*
X51035316Y-25249366D01*
X51035316Y-25249366D02*
X51035316Y-25482700D01*
X51035316Y-25482700D02*
X51001982Y-25616033D01*
X51001982Y-25616033D02*
X50935316Y-25682700D01*
X50935316Y-25682700D02*
X50868649Y-25716033D01*
X50868649Y-25716033D02*
X50735316Y-25716033D01*
X50735316Y-25716033D02*
X50668649Y-25682700D01*
X50668649Y-25682700D02*
X50601982Y-25616033D01*
X50601982Y-25616033D02*
X50568649Y-25482700D01*
X50568649Y-25482700D02*
X50568649Y-25249366D01*
X50568649Y-25249366D02*
X50601982Y-25116033D01*
X50601982Y-25116033D02*
X50668649Y-25049366D01*
X50668649Y-25049366D02*
X50735316Y-25016033D01*
X51268649Y-25016033D02*
X51701982Y-25016033D01*
X51701982Y-25016033D02*
X51468649Y-25282700D01*
X51468649Y-25282700D02*
X51568649Y-25282700D01*
X51568649Y-25282700D02*
X51635315Y-25316033D01*
X51635315Y-25316033D02*
X51668649Y-25349366D01*
X51668649Y-25349366D02*
X51701982Y-25416033D01*
X51701982Y-25416033D02*
X51701982Y-25582700D01*
X51701982Y-25582700D02*
X51668649Y-25649366D01*
X51668649Y-25649366D02*
X51635315Y-25682700D01*
X51635315Y-25682700D02*
X51568649Y-25716033D01*
X51568649Y-25716033D02*
X51368649Y-25716033D01*
X51368649Y-25716033D02*
X51301982Y-25682700D01*
X51301982Y-25682700D02*
X51268649Y-25649366D01*
X52501982Y-24982700D02*
X51901982Y-25882700D01*
X52735315Y-25016033D02*
X52735315Y-25582700D01*
X52735315Y-25582700D02*
X52768649Y-25649366D01*
X52768649Y-25649366D02*
X52801982Y-25682700D01*
X52801982Y-25682700D02*
X52868649Y-25716033D01*
X52868649Y-25716033D02*
X53001982Y-25716033D01*
X53001982Y-25716033D02*
X53068649Y-25682700D01*
X53068649Y-25682700D02*
X53101982Y-25649366D01*
X53101982Y-25649366D02*
X53135315Y-25582700D01*
X53135315Y-25582700D02*
X53135315Y-25016033D01*
X53601982Y-25016033D02*
X53668648Y-25016033D01*
X53668648Y-25016033D02*
X53735315Y-25049366D01*
X53735315Y-25049366D02*
X53768648Y-25082700D01*
X53768648Y-25082700D02*
X53801982Y-25149366D01*
X53801982Y-25149366D02*
X53835315Y-25282700D01*
X53835315Y-25282700D02*
X53835315Y-25449366D01*
X53835315Y-25449366D02*
X53801982Y-25582700D01*
X53801982Y-25582700D02*
X53768648Y-25649366D01*
X53768648Y-25649366D02*
X53735315Y-25682700D01*
X53735315Y-25682700D02*
X53668648Y-25716033D01*
X53668648Y-25716033D02*
X53601982Y-25716033D01*
X53601982Y-25716033D02*
X53535315Y-25682700D01*
X53535315Y-25682700D02*
X53501982Y-25649366D01*
X53501982Y-25649366D02*
X53468648Y-25582700D01*
X53468648Y-25582700D02*
X53435315Y-25449366D01*
X53435315Y-25449366D02*
X53435315Y-25282700D01*
X53435315Y-25282700D02*
X53468648Y-25149366D01*
X53468648Y-25149366D02*
X53501982Y-25082700D01*
X53501982Y-25082700D02*
X53535315Y-25049366D01*
X53535315Y-25049366D02*
X53601982Y-25016033D01*
X54535315Y-25716033D02*
X54301982Y-25382700D01*
X54135315Y-25716033D02*
X54135315Y-25016033D01*
X54135315Y-25016033D02*
X54401982Y-25016033D01*
X54401982Y-25016033D02*
X54468649Y-25049366D01*
X54468649Y-25049366D02*
X54501982Y-25082700D01*
X54501982Y-25082700D02*
X54535315Y-25149366D01*
X54535315Y-25149366D02*
X54535315Y-25249366D01*
X54535315Y-25249366D02*
X54501982Y-25316033D01*
X54501982Y-25316033D02*
X54468649Y-25349366D01*
X54468649Y-25349366D02*
X54401982Y-25382700D01*
X54401982Y-25382700D02*
X54135315Y-25382700D01*
X54768649Y-25016033D02*
X55235315Y-25716033D01*
X55235315Y-25016033D02*
X54768649Y-25716033D01*
X55501982Y-25716033D02*
X55501982Y-25016033D01*
X55501982Y-25016033D02*
X55668649Y-25016033D01*
X55668649Y-25016033D02*
X55768649Y-25049366D01*
X55768649Y-25049366D02*
X55835316Y-25116033D01*
X55835316Y-25116033D02*
X55868649Y-25182700D01*
X55868649Y-25182700D02*
X55901982Y-25316033D01*
X55901982Y-25316033D02*
X55901982Y-25416033D01*
X55901982Y-25416033D02*
X55868649Y-25549366D01*
X55868649Y-25549366D02*
X55835316Y-25616033D01*
X55835316Y-25616033D02*
X55768649Y-25682700D01*
X55768649Y-25682700D02*
X55668649Y-25716033D01*
X55668649Y-25716033D02*
X55501982Y-25716033D01*
X52768649Y-42829366D02*
X52701982Y-42796033D01*
X52701982Y-42796033D02*
X52601982Y-42796033D01*
X52601982Y-42796033D02*
X52501982Y-42829366D01*
X52501982Y-42829366D02*
X52435316Y-42896033D01*
X52435316Y-42896033D02*
X52401982Y-42962700D01*
X52401982Y-42962700D02*
X52368649Y-43096033D01*
X52368649Y-43096033D02*
X52368649Y-43196033D01*
X52368649Y-43196033D02*
X52401982Y-43329366D01*
X52401982Y-43329366D02*
X52435316Y-43396033D01*
X52435316Y-43396033D02*
X52501982Y-43462700D01*
X52501982Y-43462700D02*
X52601982Y-43496033D01*
X52601982Y-43496033D02*
X52668649Y-43496033D01*
X52668649Y-43496033D02*
X52768649Y-43462700D01*
X52768649Y-43462700D02*
X52801982Y-43429366D01*
X52801982Y-43429366D02*
X52801982Y-43196033D01*
X52801982Y-43196033D02*
X52668649Y-43196033D01*
X53101982Y-43496033D02*
X53101982Y-42796033D01*
X53101982Y-42796033D02*
X53368649Y-42796033D01*
X53368649Y-42796033D02*
X53435316Y-42829366D01*
X53435316Y-42829366D02*
X53468649Y-42862700D01*
X53468649Y-42862700D02*
X53501982Y-42929366D01*
X53501982Y-42929366D02*
X53501982Y-43029366D01*
X53501982Y-43029366D02*
X53468649Y-43096033D01*
X53468649Y-43096033D02*
X53435316Y-43129366D01*
X53435316Y-43129366D02*
X53368649Y-43162700D01*
X53368649Y-43162700D02*
X53101982Y-43162700D01*
X53801982Y-43496033D02*
X53801982Y-42796033D01*
X54268649Y-42796033D02*
X54401982Y-42796033D01*
X54401982Y-42796033D02*
X54468649Y-42829366D01*
X54468649Y-42829366D02*
X54535315Y-42896033D01*
X54535315Y-42896033D02*
X54568649Y-43029366D01*
X54568649Y-43029366D02*
X54568649Y-43262700D01*
X54568649Y-43262700D02*
X54535315Y-43396033D01*
X54535315Y-43396033D02*
X54468649Y-43462700D01*
X54468649Y-43462700D02*
X54401982Y-43496033D01*
X54401982Y-43496033D02*
X54268649Y-43496033D01*
X54268649Y-43496033D02*
X54201982Y-43462700D01*
X54201982Y-43462700D02*
X54135315Y-43396033D01*
X54135315Y-43396033D02*
X54101982Y-43262700D01*
X54101982Y-43262700D02*
X54101982Y-43029366D01*
X54101982Y-43029366D02*
X54135315Y-42896033D01*
X54135315Y-42896033D02*
X54201982Y-42829366D01*
X54201982Y-42829366D02*
X54268649Y-42796033D01*
X55235315Y-43496033D02*
X54835315Y-43496033D01*
X55035315Y-43496033D02*
X55035315Y-42796033D01*
X55035315Y-42796033D02*
X54968648Y-42896033D01*
X54968648Y-42896033D02*
X54901982Y-42962700D01*
X54901982Y-42962700D02*
X54835315Y-42996033D01*
X55835315Y-42796033D02*
X55701982Y-42796033D01*
X55701982Y-42796033D02*
X55635315Y-42829366D01*
X55635315Y-42829366D02*
X55601982Y-42862700D01*
X55601982Y-42862700D02*
X55535315Y-42962700D01*
X55535315Y-42962700D02*
X55501982Y-43096033D01*
X55501982Y-43096033D02*
X55501982Y-43362700D01*
X55501982Y-43362700D02*
X55535315Y-43429366D01*
X55535315Y-43429366D02*
X55568649Y-43462700D01*
X55568649Y-43462700D02*
X55635315Y-43496033D01*
X55635315Y-43496033D02*
X55768649Y-43496033D01*
X55768649Y-43496033D02*
X55835315Y-43462700D01*
X55835315Y-43462700D02*
X55868649Y-43429366D01*
X55868649Y-43429366D02*
X55901982Y-43362700D01*
X55901982Y-43362700D02*
X55901982Y-43196033D01*
X55901982Y-43196033D02*
X55868649Y-43129366D01*
X55868649Y-43129366D02*
X55835315Y-43096033D01*
X55835315Y-43096033D02*
X55768649Y-43062700D01*
X55768649Y-43062700D02*
X55635315Y-43062700D01*
X55635315Y-43062700D02*
X55568649Y-43096033D01*
X55568649Y-43096033D02*
X55535315Y-43129366D01*
X55535315Y-43129366D02*
X55501982Y-43196033D01*
X53435316Y-47909366D02*
X53368649Y-47876033D01*
X53368649Y-47876033D02*
X53268649Y-47876033D01*
X53268649Y-47876033D02*
X53168649Y-47909366D01*
X53168649Y-47909366D02*
X53101983Y-47976033D01*
X53101983Y-47976033D02*
X53068649Y-48042700D01*
X53068649Y-48042700D02*
X53035316Y-48176033D01*
X53035316Y-48176033D02*
X53035316Y-48276033D01*
X53035316Y-48276033D02*
X53068649Y-48409366D01*
X53068649Y-48409366D02*
X53101983Y-48476033D01*
X53101983Y-48476033D02*
X53168649Y-48542700D01*
X53168649Y-48542700D02*
X53268649Y-48576033D01*
X53268649Y-48576033D02*
X53335316Y-48576033D01*
X53335316Y-48576033D02*
X53435316Y-48542700D01*
X53435316Y-48542700D02*
X53468649Y-48509366D01*
X53468649Y-48509366D02*
X53468649Y-48276033D01*
X53468649Y-48276033D02*
X53335316Y-48276033D01*
X53768649Y-48576033D02*
X53768649Y-47876033D01*
X53768649Y-47876033D02*
X54035316Y-47876033D01*
X54035316Y-47876033D02*
X54101983Y-47909366D01*
X54101983Y-47909366D02*
X54135316Y-47942700D01*
X54135316Y-47942700D02*
X54168649Y-48009366D01*
X54168649Y-48009366D02*
X54168649Y-48109366D01*
X54168649Y-48109366D02*
X54135316Y-48176033D01*
X54135316Y-48176033D02*
X54101983Y-48209366D01*
X54101983Y-48209366D02*
X54035316Y-48242700D01*
X54035316Y-48242700D02*
X53768649Y-48242700D01*
X54468649Y-48576033D02*
X54468649Y-47876033D01*
X54935316Y-47876033D02*
X55068649Y-47876033D01*
X55068649Y-47876033D02*
X55135316Y-47909366D01*
X55135316Y-47909366D02*
X55201982Y-47976033D01*
X55201982Y-47976033D02*
X55235316Y-48109366D01*
X55235316Y-48109366D02*
X55235316Y-48342700D01*
X55235316Y-48342700D02*
X55201982Y-48476033D01*
X55201982Y-48476033D02*
X55135316Y-48542700D01*
X55135316Y-48542700D02*
X55068649Y-48576033D01*
X55068649Y-48576033D02*
X54935316Y-48576033D01*
X54935316Y-48576033D02*
X54868649Y-48542700D01*
X54868649Y-48542700D02*
X54801982Y-48476033D01*
X54801982Y-48476033D02*
X54768649Y-48342700D01*
X54768649Y-48342700D02*
X54768649Y-48109366D01*
X54768649Y-48109366D02*
X54801982Y-47976033D01*
X54801982Y-47976033D02*
X54868649Y-47909366D01*
X54868649Y-47909366D02*
X54935316Y-47876033D01*
X55668649Y-47876033D02*
X55735315Y-47876033D01*
X55735315Y-47876033D02*
X55801982Y-47909366D01*
X55801982Y-47909366D02*
X55835315Y-47942700D01*
X55835315Y-47942700D02*
X55868649Y-48009366D01*
X55868649Y-48009366D02*
X55901982Y-48142700D01*
X55901982Y-48142700D02*
X55901982Y-48309366D01*
X55901982Y-48309366D02*
X55868649Y-48442700D01*
X55868649Y-48442700D02*
X55835315Y-48509366D01*
X55835315Y-48509366D02*
X55801982Y-48542700D01*
X55801982Y-48542700D02*
X55735315Y-48576033D01*
X55735315Y-48576033D02*
X55668649Y-48576033D01*
X55668649Y-48576033D02*
X55601982Y-48542700D01*
X55601982Y-48542700D02*
X55568649Y-48509366D01*
X55568649Y-48509366D02*
X55535315Y-48442700D01*
X55535315Y-48442700D02*
X55501982Y-48309366D01*
X55501982Y-48309366D02*
X55501982Y-48142700D01*
X55501982Y-48142700D02*
X55535315Y-48009366D01*
X55535315Y-48009366D02*
X55568649Y-47942700D01*
X55568649Y-47942700D02*
X55601982Y-47909366D01*
X55601982Y-47909366D02*
X55668649Y-47876033D01*
X33539350Y-53656033D02*
X33539350Y-52956033D01*
X33539350Y-52956033D02*
X33706017Y-52956033D01*
X33706017Y-52956033D02*
X33806017Y-52989366D01*
X33806017Y-52989366D02*
X33872684Y-53056033D01*
X33872684Y-53056033D02*
X33906017Y-53122700D01*
X33906017Y-53122700D02*
X33939350Y-53256033D01*
X33939350Y-53256033D02*
X33939350Y-53356033D01*
X33939350Y-53356033D02*
X33906017Y-53489366D01*
X33906017Y-53489366D02*
X33872684Y-53556033D01*
X33872684Y-53556033D02*
X33806017Y-53622700D01*
X33806017Y-53622700D02*
X33706017Y-53656033D01*
X33706017Y-53656033D02*
X33539350Y-53656033D01*
X34206017Y-53022700D02*
X34239350Y-52989366D01*
X34239350Y-52989366D02*
X34306017Y-52956033D01*
X34306017Y-52956033D02*
X34472684Y-52956033D01*
X34472684Y-52956033D02*
X34539350Y-52989366D01*
X34539350Y-52989366D02*
X34572684Y-53022700D01*
X34572684Y-53022700D02*
X34606017Y-53089366D01*
X34606017Y-53089366D02*
X34606017Y-53156033D01*
X34606017Y-53156033D02*
X34572684Y-53256033D01*
X34572684Y-53256033D02*
X34172684Y-53656033D01*
X34172684Y-53656033D02*
X34606017Y-53656033D01*
X53435316Y-45369366D02*
X53368649Y-45336033D01*
X53368649Y-45336033D02*
X53268649Y-45336033D01*
X53268649Y-45336033D02*
X53168649Y-45369366D01*
X53168649Y-45369366D02*
X53101983Y-45436033D01*
X53101983Y-45436033D02*
X53068649Y-45502700D01*
X53068649Y-45502700D02*
X53035316Y-45636033D01*
X53035316Y-45636033D02*
X53035316Y-45736033D01*
X53035316Y-45736033D02*
X53068649Y-45869366D01*
X53068649Y-45869366D02*
X53101983Y-45936033D01*
X53101983Y-45936033D02*
X53168649Y-46002700D01*
X53168649Y-46002700D02*
X53268649Y-46036033D01*
X53268649Y-46036033D02*
X53335316Y-46036033D01*
X53335316Y-46036033D02*
X53435316Y-46002700D01*
X53435316Y-46002700D02*
X53468649Y-45969366D01*
X53468649Y-45969366D02*
X53468649Y-45736033D01*
X53468649Y-45736033D02*
X53335316Y-45736033D01*
X53768649Y-46036033D02*
X53768649Y-45336033D01*
X53768649Y-45336033D02*
X54035316Y-45336033D01*
X54035316Y-45336033D02*
X54101983Y-45369366D01*
X54101983Y-45369366D02*
X54135316Y-45402700D01*
X54135316Y-45402700D02*
X54168649Y-45469366D01*
X54168649Y-45469366D02*
X54168649Y-45569366D01*
X54168649Y-45569366D02*
X54135316Y-45636033D01*
X54135316Y-45636033D02*
X54101983Y-45669366D01*
X54101983Y-45669366D02*
X54035316Y-45702700D01*
X54035316Y-45702700D02*
X53768649Y-45702700D01*
X54468649Y-46036033D02*
X54468649Y-45336033D01*
X54935316Y-45336033D02*
X55068649Y-45336033D01*
X55068649Y-45336033D02*
X55135316Y-45369366D01*
X55135316Y-45369366D02*
X55201982Y-45436033D01*
X55201982Y-45436033D02*
X55235316Y-45569366D01*
X55235316Y-45569366D02*
X55235316Y-45802700D01*
X55235316Y-45802700D02*
X55201982Y-45936033D01*
X55201982Y-45936033D02*
X55135316Y-46002700D01*
X55135316Y-46002700D02*
X55068649Y-46036033D01*
X55068649Y-46036033D02*
X54935316Y-46036033D01*
X54935316Y-46036033D02*
X54868649Y-46002700D01*
X54868649Y-46002700D02*
X54801982Y-45936033D01*
X54801982Y-45936033D02*
X54768649Y-45802700D01*
X54768649Y-45802700D02*
X54768649Y-45569366D01*
X54768649Y-45569366D02*
X54801982Y-45436033D01*
X54801982Y-45436033D02*
X54868649Y-45369366D01*
X54868649Y-45369366D02*
X54935316Y-45336033D01*
X55835315Y-45569366D02*
X55835315Y-46036033D01*
X55668649Y-45302700D02*
X55501982Y-45802700D01*
X55501982Y-45802700D02*
X55935315Y-45802700D01*
X33906017Y-40289366D02*
X33839350Y-40256033D01*
X33839350Y-40256033D02*
X33739350Y-40256033D01*
X33739350Y-40256033D02*
X33639350Y-40289366D01*
X33639350Y-40289366D02*
X33572684Y-40356033D01*
X33572684Y-40356033D02*
X33539350Y-40422700D01*
X33539350Y-40422700D02*
X33506017Y-40556033D01*
X33506017Y-40556033D02*
X33506017Y-40656033D01*
X33506017Y-40656033D02*
X33539350Y-40789366D01*
X33539350Y-40789366D02*
X33572684Y-40856033D01*
X33572684Y-40856033D02*
X33639350Y-40922700D01*
X33639350Y-40922700D02*
X33739350Y-40956033D01*
X33739350Y-40956033D02*
X33806017Y-40956033D01*
X33806017Y-40956033D02*
X33906017Y-40922700D01*
X33906017Y-40922700D02*
X33939350Y-40889366D01*
X33939350Y-40889366D02*
X33939350Y-40656033D01*
X33939350Y-40656033D02*
X33806017Y-40656033D01*
X34239350Y-40956033D02*
X34239350Y-40256033D01*
X34239350Y-40256033D02*
X34506017Y-40256033D01*
X34506017Y-40256033D02*
X34572684Y-40289366D01*
X34572684Y-40289366D02*
X34606017Y-40322700D01*
X34606017Y-40322700D02*
X34639350Y-40389366D01*
X34639350Y-40389366D02*
X34639350Y-40489366D01*
X34639350Y-40489366D02*
X34606017Y-40556033D01*
X34606017Y-40556033D02*
X34572684Y-40589366D01*
X34572684Y-40589366D02*
X34506017Y-40622700D01*
X34506017Y-40622700D02*
X34239350Y-40622700D01*
X34939350Y-40956033D02*
X34939350Y-40256033D01*
X35406017Y-40256033D02*
X35539350Y-40256033D01*
X35539350Y-40256033D02*
X35606017Y-40289366D01*
X35606017Y-40289366D02*
X35672683Y-40356033D01*
X35672683Y-40356033D02*
X35706017Y-40489366D01*
X35706017Y-40489366D02*
X35706017Y-40722700D01*
X35706017Y-40722700D02*
X35672683Y-40856033D01*
X35672683Y-40856033D02*
X35606017Y-40922700D01*
X35606017Y-40922700D02*
X35539350Y-40956033D01*
X35539350Y-40956033D02*
X35406017Y-40956033D01*
X35406017Y-40956033D02*
X35339350Y-40922700D01*
X35339350Y-40922700D02*
X35272683Y-40856033D01*
X35272683Y-40856033D02*
X35239350Y-40722700D01*
X35239350Y-40722700D02*
X35239350Y-40489366D01*
X35239350Y-40489366D02*
X35272683Y-40356033D01*
X35272683Y-40356033D02*
X35339350Y-40289366D01*
X35339350Y-40289366D02*
X35406017Y-40256033D01*
X35972683Y-40322700D02*
X36006016Y-40289366D01*
X36006016Y-40289366D02*
X36072683Y-40256033D01*
X36072683Y-40256033D02*
X36239350Y-40256033D01*
X36239350Y-40256033D02*
X36306016Y-40289366D01*
X36306016Y-40289366D02*
X36339350Y-40322700D01*
X36339350Y-40322700D02*
X36372683Y-40389366D01*
X36372683Y-40389366D02*
X36372683Y-40456033D01*
X36372683Y-40456033D02*
X36339350Y-40556033D01*
X36339350Y-40556033D02*
X35939350Y-40956033D01*
X35939350Y-40956033D02*
X36372683Y-40956033D01*
X36606017Y-40256033D02*
X37072683Y-40256033D01*
X37072683Y-40256033D02*
X36772683Y-40956033D01*
X52768649Y-17429366D02*
X52701982Y-17396033D01*
X52701982Y-17396033D02*
X52601982Y-17396033D01*
X52601982Y-17396033D02*
X52501982Y-17429366D01*
X52501982Y-17429366D02*
X52435316Y-17496033D01*
X52435316Y-17496033D02*
X52401982Y-17562700D01*
X52401982Y-17562700D02*
X52368649Y-17696033D01*
X52368649Y-17696033D02*
X52368649Y-17796033D01*
X52368649Y-17796033D02*
X52401982Y-17929366D01*
X52401982Y-17929366D02*
X52435316Y-17996033D01*
X52435316Y-17996033D02*
X52501982Y-18062700D01*
X52501982Y-18062700D02*
X52601982Y-18096033D01*
X52601982Y-18096033D02*
X52668649Y-18096033D01*
X52668649Y-18096033D02*
X52768649Y-18062700D01*
X52768649Y-18062700D02*
X52801982Y-18029366D01*
X52801982Y-18029366D02*
X52801982Y-17796033D01*
X52801982Y-17796033D02*
X52668649Y-17796033D01*
X53101982Y-18096033D02*
X53101982Y-17396033D01*
X53101982Y-17396033D02*
X53368649Y-17396033D01*
X53368649Y-17396033D02*
X53435316Y-17429366D01*
X53435316Y-17429366D02*
X53468649Y-17462700D01*
X53468649Y-17462700D02*
X53501982Y-17529366D01*
X53501982Y-17529366D02*
X53501982Y-17629366D01*
X53501982Y-17629366D02*
X53468649Y-17696033D01*
X53468649Y-17696033D02*
X53435316Y-17729366D01*
X53435316Y-17729366D02*
X53368649Y-17762700D01*
X53368649Y-17762700D02*
X53101982Y-17762700D01*
X53801982Y-18096033D02*
X53801982Y-17396033D01*
X54268649Y-17396033D02*
X54401982Y-17396033D01*
X54401982Y-17396033D02*
X54468649Y-17429366D01*
X54468649Y-17429366D02*
X54535315Y-17496033D01*
X54535315Y-17496033D02*
X54568649Y-17629366D01*
X54568649Y-17629366D02*
X54568649Y-17862700D01*
X54568649Y-17862700D02*
X54535315Y-17996033D01*
X54535315Y-17996033D02*
X54468649Y-18062700D01*
X54468649Y-18062700D02*
X54401982Y-18096033D01*
X54401982Y-18096033D02*
X54268649Y-18096033D01*
X54268649Y-18096033D02*
X54201982Y-18062700D01*
X54201982Y-18062700D02*
X54135315Y-17996033D01*
X54135315Y-17996033D02*
X54101982Y-17862700D01*
X54101982Y-17862700D02*
X54101982Y-17629366D01*
X54101982Y-17629366D02*
X54135315Y-17496033D01*
X54135315Y-17496033D02*
X54201982Y-17429366D01*
X54201982Y-17429366D02*
X54268649Y-17396033D01*
X54835315Y-17462700D02*
X54868648Y-17429366D01*
X54868648Y-17429366D02*
X54935315Y-17396033D01*
X54935315Y-17396033D02*
X55101982Y-17396033D01*
X55101982Y-17396033D02*
X55168648Y-17429366D01*
X55168648Y-17429366D02*
X55201982Y-17462700D01*
X55201982Y-17462700D02*
X55235315Y-17529366D01*
X55235315Y-17529366D02*
X55235315Y-17596033D01*
X55235315Y-17596033D02*
X55201982Y-17696033D01*
X55201982Y-17696033D02*
X54801982Y-18096033D01*
X54801982Y-18096033D02*
X55235315Y-18096033D01*
X55468649Y-17396033D02*
X55901982Y-17396033D01*
X55901982Y-17396033D02*
X55668649Y-17662700D01*
X55668649Y-17662700D02*
X55768649Y-17662700D01*
X55768649Y-17662700D02*
X55835315Y-17696033D01*
X55835315Y-17696033D02*
X55868649Y-17729366D01*
X55868649Y-17729366D02*
X55901982Y-17796033D01*
X55901982Y-17796033D02*
X55901982Y-17962700D01*
X55901982Y-17962700D02*
X55868649Y-18029366D01*
X55868649Y-18029366D02*
X55835315Y-18062700D01*
X55835315Y-18062700D02*
X55768649Y-18096033D01*
X55768649Y-18096033D02*
X55568649Y-18096033D01*
X55568649Y-18096033D02*
X55501982Y-18062700D01*
X55501982Y-18062700D02*
X55468649Y-18029366D01*
X24304666Y-55334819D02*
X24304666Y-56049104D01*
X24304666Y-56049104D02*
X24257047Y-56191961D01*
X24257047Y-56191961D02*
X24161809Y-56287200D01*
X24161809Y-56287200D02*
X24018952Y-56334819D01*
X24018952Y-56334819D02*
X23923714Y-56334819D01*
X24828476Y-56334819D02*
X25018952Y-56334819D01*
X25018952Y-56334819D02*
X25114190Y-56287200D01*
X25114190Y-56287200D02*
X25161809Y-56239580D01*
X25161809Y-56239580D02*
X25257047Y-56096723D01*
X25257047Y-56096723D02*
X25304666Y-55906247D01*
X25304666Y-55906247D02*
X25304666Y-55525295D01*
X25304666Y-55525295D02*
X25257047Y-55430057D01*
X25257047Y-55430057D02*
X25209428Y-55382438D01*
X25209428Y-55382438D02*
X25114190Y-55334819D01*
X25114190Y-55334819D02*
X24923714Y-55334819D01*
X24923714Y-55334819D02*
X24828476Y-55382438D01*
X24828476Y-55382438D02*
X24780857Y-55430057D01*
X24780857Y-55430057D02*
X24733238Y-55525295D01*
X24733238Y-55525295D02*
X24733238Y-55763390D01*
X24733238Y-55763390D02*
X24780857Y-55858628D01*
X24780857Y-55858628D02*
X24828476Y-55906247D01*
X24828476Y-55906247D02*
X24923714Y-55953866D01*
X24923714Y-55953866D02*
X25114190Y-55953866D01*
X25114190Y-55953866D02*
X25209428Y-55906247D01*
X25209428Y-55906247D02*
X25257047Y-55858628D01*
X25257047Y-55858628D02*
X25304666Y-55763390D01*
X24503142Y-63097580D02*
X24455523Y-63145200D01*
X24455523Y-63145200D02*
X24312666Y-63192819D01*
X24312666Y-63192819D02*
X24217428Y-63192819D01*
X24217428Y-63192819D02*
X24074571Y-63145200D01*
X24074571Y-63145200D02*
X23979333Y-63049961D01*
X23979333Y-63049961D02*
X23931714Y-62954723D01*
X23931714Y-62954723D02*
X23884095Y-62764247D01*
X23884095Y-62764247D02*
X23884095Y-62621390D01*
X23884095Y-62621390D02*
X23931714Y-62430914D01*
X23931714Y-62430914D02*
X23979333Y-62335676D01*
X23979333Y-62335676D02*
X24074571Y-62240438D01*
X24074571Y-62240438D02*
X24217428Y-62192819D01*
X24217428Y-62192819D02*
X24312666Y-62192819D01*
X24312666Y-62192819D02*
X24455523Y-62240438D01*
X24455523Y-62240438D02*
X24503142Y-62288057D01*
X25455523Y-63192819D02*
X24884095Y-63192819D01*
X25169809Y-63192819D02*
X25169809Y-62192819D01*
X25169809Y-62192819D02*
X25074571Y-62335676D01*
X25074571Y-62335676D02*
X24979333Y-62430914D01*
X24979333Y-62430914D02*
X24884095Y-62478533D01*
X26407904Y-63192819D02*
X25836476Y-63192819D01*
X26122190Y-63192819D02*
X26122190Y-62192819D01*
X26122190Y-62192819D02*
X26026952Y-62335676D01*
X26026952Y-62335676D02*
X25931714Y-62430914D01*
X25931714Y-62430914D02*
X25836476Y-62478533D01*
X35429333Y-64875580D02*
X35381714Y-64923200D01*
X35381714Y-64923200D02*
X35238857Y-64970819D01*
X35238857Y-64970819D02*
X35143619Y-64970819D01*
X35143619Y-64970819D02*
X35000762Y-64923200D01*
X35000762Y-64923200D02*
X34905524Y-64827961D01*
X34905524Y-64827961D02*
X34857905Y-64732723D01*
X34857905Y-64732723D02*
X34810286Y-64542247D01*
X34810286Y-64542247D02*
X34810286Y-64399390D01*
X34810286Y-64399390D02*
X34857905Y-64208914D01*
X34857905Y-64208914D02*
X34905524Y-64113676D01*
X34905524Y-64113676D02*
X35000762Y-64018438D01*
X35000762Y-64018438D02*
X35143619Y-63970819D01*
X35143619Y-63970819D02*
X35238857Y-63970819D01*
X35238857Y-63970819D02*
X35381714Y-64018438D01*
X35381714Y-64018438D02*
X35429333Y-64066057D01*
X35810286Y-64066057D02*
X35857905Y-64018438D01*
X35857905Y-64018438D02*
X35953143Y-63970819D01*
X35953143Y-63970819D02*
X36191238Y-63970819D01*
X36191238Y-63970819D02*
X36286476Y-64018438D01*
X36286476Y-64018438D02*
X36334095Y-64066057D01*
X36334095Y-64066057D02*
X36381714Y-64161295D01*
X36381714Y-64161295D02*
X36381714Y-64256533D01*
X36381714Y-64256533D02*
X36334095Y-64399390D01*
X36334095Y-64399390D02*
X35762667Y-64970819D01*
X35762667Y-64970819D02*
X36381714Y-64970819D01*
X40613333Y-63669580D02*
X40565714Y-63717200D01*
X40565714Y-63717200D02*
X40422857Y-63764819D01*
X40422857Y-63764819D02*
X40327619Y-63764819D01*
X40327619Y-63764819D02*
X40184762Y-63717200D01*
X40184762Y-63717200D02*
X40089524Y-63621961D01*
X40089524Y-63621961D02*
X40041905Y-63526723D01*
X40041905Y-63526723D02*
X39994286Y-63336247D01*
X39994286Y-63336247D02*
X39994286Y-63193390D01*
X39994286Y-63193390D02*
X40041905Y-63002914D01*
X40041905Y-63002914D02*
X40089524Y-62907676D01*
X40089524Y-62907676D02*
X40184762Y-62812438D01*
X40184762Y-62812438D02*
X40327619Y-62764819D01*
X40327619Y-62764819D02*
X40422857Y-62764819D01*
X40422857Y-62764819D02*
X40565714Y-62812438D01*
X40565714Y-62812438D02*
X40613333Y-62860057D01*
X41565714Y-63764819D02*
X40994286Y-63764819D01*
X41280000Y-63764819D02*
X41280000Y-62764819D01*
X41280000Y-62764819D02*
X41184762Y-62907676D01*
X41184762Y-62907676D02*
X41089524Y-63002914D01*
X41089524Y-63002914D02*
X40994286Y-63050533D01*
X37004666Y-74353009D02*
X36671333Y-74353009D01*
X36671333Y-74876819D02*
X36671333Y-73876819D01*
X36671333Y-73876819D02*
X37147523Y-73876819D01*
X38052285Y-74876819D02*
X37480857Y-74876819D01*
X37766571Y-74876819D02*
X37766571Y-73876819D01*
X37766571Y-73876819D02*
X37671333Y-74019676D01*
X37671333Y-74019676D02*
X37576095Y-74114914D01*
X37576095Y-74114914D02*
X37480857Y-74162533D01*
X24304666Y-45428819D02*
X24304666Y-46143104D01*
X24304666Y-46143104D02*
X24257047Y-46285961D01*
X24257047Y-46285961D02*
X24161809Y-46381200D01*
X24161809Y-46381200D02*
X24018952Y-46428819D01*
X24018952Y-46428819D02*
X23923714Y-46428819D01*
X24923714Y-45857390D02*
X24828476Y-45809771D01*
X24828476Y-45809771D02*
X24780857Y-45762152D01*
X24780857Y-45762152D02*
X24733238Y-45666914D01*
X24733238Y-45666914D02*
X24733238Y-45619295D01*
X24733238Y-45619295D02*
X24780857Y-45524057D01*
X24780857Y-45524057D02*
X24828476Y-45476438D01*
X24828476Y-45476438D02*
X24923714Y-45428819D01*
X24923714Y-45428819D02*
X25114190Y-45428819D01*
X25114190Y-45428819D02*
X25209428Y-45476438D01*
X25209428Y-45476438D02*
X25257047Y-45524057D01*
X25257047Y-45524057D02*
X25304666Y-45619295D01*
X25304666Y-45619295D02*
X25304666Y-45666914D01*
X25304666Y-45666914D02*
X25257047Y-45762152D01*
X25257047Y-45762152D02*
X25209428Y-45809771D01*
X25209428Y-45809771D02*
X25114190Y-45857390D01*
X25114190Y-45857390D02*
X24923714Y-45857390D01*
X24923714Y-45857390D02*
X24828476Y-45905009D01*
X24828476Y-45905009D02*
X24780857Y-45952628D01*
X24780857Y-45952628D02*
X24733238Y-46047866D01*
X24733238Y-46047866D02*
X24733238Y-46238342D01*
X24733238Y-46238342D02*
X24780857Y-46333580D01*
X24780857Y-46333580D02*
X24828476Y-46381200D01*
X24828476Y-46381200D02*
X24923714Y-46428819D01*
X24923714Y-46428819D02*
X25114190Y-46428819D01*
X25114190Y-46428819D02*
X25209428Y-46381200D01*
X25209428Y-46381200D02*
X25257047Y-46333580D01*
X25257047Y-46333580D02*
X25304666Y-46238342D01*
X25304666Y-46238342D02*
X25304666Y-46047866D01*
X25304666Y-46047866D02*
X25257047Y-45952628D01*
X25257047Y-45952628D02*
X25209428Y-45905009D01*
X25209428Y-45905009D02*
X25114190Y-45857390D01*
X19333333Y-53009580D02*
X19285714Y-53057200D01*
X19285714Y-53057200D02*
X19142857Y-53104819D01*
X19142857Y-53104819D02*
X19047619Y-53104819D01*
X19047619Y-53104819D02*
X18904762Y-53057200D01*
X18904762Y-53057200D02*
X18809524Y-52961961D01*
X18809524Y-52961961D02*
X18761905Y-52866723D01*
X18761905Y-52866723D02*
X18714286Y-52676247D01*
X18714286Y-52676247D02*
X18714286Y-52533390D01*
X18714286Y-52533390D02*
X18761905Y-52342914D01*
X18761905Y-52342914D02*
X18809524Y-52247676D01*
X18809524Y-52247676D02*
X18904762Y-52152438D01*
X18904762Y-52152438D02*
X19047619Y-52104819D01*
X19047619Y-52104819D02*
X19142857Y-52104819D01*
X19142857Y-52104819D02*
X19285714Y-52152438D01*
X19285714Y-52152438D02*
X19333333Y-52200057D01*
X19666667Y-52104819D02*
X20333333Y-52104819D01*
X20333333Y-52104819D02*
X19904762Y-53104819D01*
X23995142Y-13313580D02*
X23947523Y-13361200D01*
X23947523Y-13361200D02*
X23804666Y-13408819D01*
X23804666Y-13408819D02*
X23709428Y-13408819D01*
X23709428Y-13408819D02*
X23566571Y-13361200D01*
X23566571Y-13361200D02*
X23471333Y-13265961D01*
X23471333Y-13265961D02*
X23423714Y-13170723D01*
X23423714Y-13170723D02*
X23376095Y-12980247D01*
X23376095Y-12980247D02*
X23376095Y-12837390D01*
X23376095Y-12837390D02*
X23423714Y-12646914D01*
X23423714Y-12646914D02*
X23471333Y-12551676D01*
X23471333Y-12551676D02*
X23566571Y-12456438D01*
X23566571Y-12456438D02*
X23709428Y-12408819D01*
X23709428Y-12408819D02*
X23804666Y-12408819D01*
X23804666Y-12408819D02*
X23947523Y-12456438D01*
X23947523Y-12456438D02*
X23995142Y-12504057D01*
X24947523Y-13408819D02*
X24376095Y-13408819D01*
X24661809Y-13408819D02*
X24661809Y-12408819D01*
X24661809Y-12408819D02*
X24566571Y-12551676D01*
X24566571Y-12551676D02*
X24471333Y-12646914D01*
X24471333Y-12646914D02*
X24376095Y-12694533D01*
X25328476Y-12504057D02*
X25376095Y-12456438D01*
X25376095Y-12456438D02*
X25471333Y-12408819D01*
X25471333Y-12408819D02*
X25709428Y-12408819D01*
X25709428Y-12408819D02*
X25804666Y-12456438D01*
X25804666Y-12456438D02*
X25852285Y-12504057D01*
X25852285Y-12504057D02*
X25899904Y-12599295D01*
X25899904Y-12599295D02*
X25899904Y-12694533D01*
X25899904Y-12694533D02*
X25852285Y-12837390D01*
X25852285Y-12837390D02*
X25280857Y-13408819D01*
X25280857Y-13408819D02*
X25899904Y-13408819D01*
X60142571Y-16187009D02*
X59809238Y-16187009D01*
X59809238Y-16710819D02*
X59809238Y-15710819D01*
X59809238Y-15710819D02*
X60285428Y-15710819D01*
X60666381Y-16710819D02*
X60666381Y-15710819D01*
X61142571Y-16710819D02*
X61142571Y-15710819D01*
X61142571Y-15710819D02*
X61380666Y-15710819D01*
X61380666Y-15710819D02*
X61523523Y-15758438D01*
X61523523Y-15758438D02*
X61618761Y-15853676D01*
X61618761Y-15853676D02*
X61666380Y-15948914D01*
X61666380Y-15948914D02*
X61713999Y-16139390D01*
X61713999Y-16139390D02*
X61713999Y-16282247D01*
X61713999Y-16282247D02*
X61666380Y-16472723D01*
X61666380Y-16472723D02*
X61618761Y-16567961D01*
X61618761Y-16567961D02*
X61523523Y-16663200D01*
X61523523Y-16663200D02*
X61380666Y-16710819D01*
X61380666Y-16710819D02*
X61142571Y-16710819D01*
X62666380Y-16710819D02*
X62094952Y-16710819D01*
X62380666Y-16710819D02*
X62380666Y-15710819D01*
X62380666Y-15710819D02*
X62285428Y-15853676D01*
X62285428Y-15853676D02*
X62190190Y-15948914D01*
X62190190Y-15948914D02*
X62094952Y-15996533D01*
X23796666Y-17234819D02*
X23796666Y-17949104D01*
X23796666Y-17949104D02*
X23749047Y-18091961D01*
X23749047Y-18091961D02*
X23653809Y-18187200D01*
X23653809Y-18187200D02*
X23510952Y-18234819D01*
X23510952Y-18234819D02*
X23415714Y-18234819D01*
X24749047Y-17234819D02*
X24272857Y-17234819D01*
X24272857Y-17234819D02*
X24225238Y-17711009D01*
X24225238Y-17711009D02*
X24272857Y-17663390D01*
X24272857Y-17663390D02*
X24368095Y-17615771D01*
X24368095Y-17615771D02*
X24606190Y-17615771D01*
X24606190Y-17615771D02*
X24701428Y-17663390D01*
X24701428Y-17663390D02*
X24749047Y-17711009D01*
X24749047Y-17711009D02*
X24796666Y-17806247D01*
X24796666Y-17806247D02*
X24796666Y-18044342D01*
X24796666Y-18044342D02*
X24749047Y-18139580D01*
X24749047Y-18139580D02*
X24701428Y-18187200D01*
X24701428Y-18187200D02*
X24606190Y-18234819D01*
X24606190Y-18234819D02*
X24368095Y-18234819D01*
X24368095Y-18234819D02*
X24272857Y-18187200D01*
X24272857Y-18187200D02*
X24225238Y-18139580D01*
X30313333Y-72844819D02*
X29837143Y-72844819D01*
X29837143Y-72844819D02*
X29837143Y-71844819D01*
X31170476Y-72844819D02*
X30599048Y-72844819D01*
X30884762Y-72844819D02*
X30884762Y-71844819D01*
X30884762Y-71844819D02*
X30789524Y-71987676D01*
X30789524Y-71987676D02*
X30694286Y-72082914D01*
X30694286Y-72082914D02*
X30599048Y-72130533D01*
X19391333Y-62969580D02*
X19343714Y-63017200D01*
X19343714Y-63017200D02*
X19200857Y-63064819D01*
X19200857Y-63064819D02*
X19105619Y-63064819D01*
X19105619Y-63064819D02*
X18962762Y-63017200D01*
X18962762Y-63017200D02*
X18867524Y-62921961D01*
X18867524Y-62921961D02*
X18819905Y-62826723D01*
X18819905Y-62826723D02*
X18772286Y-62636247D01*
X18772286Y-62636247D02*
X18772286Y-62493390D01*
X18772286Y-62493390D02*
X18819905Y-62302914D01*
X18819905Y-62302914D02*
X18867524Y-62207676D01*
X18867524Y-62207676D02*
X18962762Y-62112438D01*
X18962762Y-62112438D02*
X19105619Y-62064819D01*
X19105619Y-62064819D02*
X19200857Y-62064819D01*
X19200857Y-62064819D02*
X19343714Y-62112438D01*
X19343714Y-62112438D02*
X19391333Y-62160057D01*
X19962762Y-62493390D02*
X19867524Y-62445771D01*
X19867524Y-62445771D02*
X19819905Y-62398152D01*
X19819905Y-62398152D02*
X19772286Y-62302914D01*
X19772286Y-62302914D02*
X19772286Y-62255295D01*
X19772286Y-62255295D02*
X19819905Y-62160057D01*
X19819905Y-62160057D02*
X19867524Y-62112438D01*
X19867524Y-62112438D02*
X19962762Y-62064819D01*
X19962762Y-62064819D02*
X20153238Y-62064819D01*
X20153238Y-62064819D02*
X20248476Y-62112438D01*
X20248476Y-62112438D02*
X20296095Y-62160057D01*
X20296095Y-62160057D02*
X20343714Y-62255295D01*
X20343714Y-62255295D02*
X20343714Y-62302914D01*
X20343714Y-62302914D02*
X20296095Y-62398152D01*
X20296095Y-62398152D02*
X20248476Y-62445771D01*
X20248476Y-62445771D02*
X20153238Y-62493390D01*
X20153238Y-62493390D02*
X19962762Y-62493390D01*
X19962762Y-62493390D02*
X19867524Y-62541009D01*
X19867524Y-62541009D02*
X19819905Y-62588628D01*
X19819905Y-62588628D02*
X19772286Y-62683866D01*
X19772286Y-62683866D02*
X19772286Y-62874342D01*
X19772286Y-62874342D02*
X19819905Y-62969580D01*
X19819905Y-62969580D02*
X19867524Y-63017200D01*
X19867524Y-63017200D02*
X19962762Y-63064819D01*
X19962762Y-63064819D02*
X20153238Y-63064819D01*
X20153238Y-63064819D02*
X20248476Y-63017200D01*
X20248476Y-63017200D02*
X20296095Y-62969580D01*
X20296095Y-62969580D02*
X20343714Y-62874342D01*
X20343714Y-62874342D02*
X20343714Y-62683866D01*
X20343714Y-62683866D02*
X20296095Y-62588628D01*
X20296095Y-62588628D02*
X20248476Y-62541009D01*
X20248476Y-62541009D02*
X20153238Y-62493390D01*
X19333333Y-73009580D02*
X19285714Y-73057200D01*
X19285714Y-73057200D02*
X19142857Y-73104819D01*
X19142857Y-73104819D02*
X19047619Y-73104819D01*
X19047619Y-73104819D02*
X18904762Y-73057200D01*
X18904762Y-73057200D02*
X18809524Y-72961961D01*
X18809524Y-72961961D02*
X18761905Y-72866723D01*
X18761905Y-72866723D02*
X18714286Y-72676247D01*
X18714286Y-72676247D02*
X18714286Y-72533390D01*
X18714286Y-72533390D02*
X18761905Y-72342914D01*
X18761905Y-72342914D02*
X18809524Y-72247676D01*
X18809524Y-72247676D02*
X18904762Y-72152438D01*
X18904762Y-72152438D02*
X19047619Y-72104819D01*
X19047619Y-72104819D02*
X19142857Y-72104819D01*
X19142857Y-72104819D02*
X19285714Y-72152438D01*
X19285714Y-72152438D02*
X19333333Y-72200057D01*
X19809524Y-73104819D02*
X20000000Y-73104819D01*
X20000000Y-73104819D02*
X20095238Y-73057200D01*
X20095238Y-73057200D02*
X20142857Y-73009580D01*
X20142857Y-73009580D02*
X20238095Y-72866723D01*
X20238095Y-72866723D02*
X20285714Y-72676247D01*
X20285714Y-72676247D02*
X20285714Y-72295295D01*
X20285714Y-72295295D02*
X20238095Y-72200057D01*
X20238095Y-72200057D02*
X20190476Y-72152438D01*
X20190476Y-72152438D02*
X20095238Y-72104819D01*
X20095238Y-72104819D02*
X19904762Y-72104819D01*
X19904762Y-72104819D02*
X19809524Y-72152438D01*
X19809524Y-72152438D02*
X19761905Y-72200057D01*
X19761905Y-72200057D02*
X19714286Y-72295295D01*
X19714286Y-72295295D02*
X19714286Y-72533390D01*
X19714286Y-72533390D02*
X19761905Y-72628628D01*
X19761905Y-72628628D02*
X19809524Y-72676247D01*
X19809524Y-72676247D02*
X19904762Y-72723866D01*
X19904762Y-72723866D02*
X20095238Y-72723866D01*
X20095238Y-72723866D02*
X20190476Y-72676247D01*
X20190476Y-72676247D02*
X20238095Y-72628628D01*
X20238095Y-72628628D02*
X20285714Y-72533390D01*
X59610666Y-70828819D02*
X59610666Y-71543104D01*
X59610666Y-71543104D02*
X59563047Y-71685961D01*
X59563047Y-71685961D02*
X59467809Y-71781200D01*
X59467809Y-71781200D02*
X59324952Y-71828819D01*
X59324952Y-71828819D02*
X59229714Y-71828819D01*
X59991619Y-70828819D02*
X60610666Y-70828819D01*
X60610666Y-70828819D02*
X60277333Y-71209771D01*
X60277333Y-71209771D02*
X60420190Y-71209771D01*
X60420190Y-71209771D02*
X60515428Y-71257390D01*
X60515428Y-71257390D02*
X60563047Y-71305009D01*
X60563047Y-71305009D02*
X60610666Y-71400247D01*
X60610666Y-71400247D02*
X60610666Y-71638342D01*
X60610666Y-71638342D02*
X60563047Y-71733580D01*
X60563047Y-71733580D02*
X60515428Y-71781200D01*
X60515428Y-71781200D02*
X60420190Y-71828819D01*
X60420190Y-71828819D02*
X60134476Y-71828819D01*
X60134476Y-71828819D02*
X60039238Y-71781200D01*
X60039238Y-71781200D02*
X59991619Y-71733580D01*
X19391333Y-43009580D02*
X19343714Y-43057200D01*
X19343714Y-43057200D02*
X19200857Y-43104819D01*
X19200857Y-43104819D02*
X19105619Y-43104819D01*
X19105619Y-43104819D02*
X18962762Y-43057200D01*
X18962762Y-43057200D02*
X18867524Y-42961961D01*
X18867524Y-42961961D02*
X18819905Y-42866723D01*
X18819905Y-42866723D02*
X18772286Y-42676247D01*
X18772286Y-42676247D02*
X18772286Y-42533390D01*
X18772286Y-42533390D02*
X18819905Y-42342914D01*
X18819905Y-42342914D02*
X18867524Y-42247676D01*
X18867524Y-42247676D02*
X18962762Y-42152438D01*
X18962762Y-42152438D02*
X19105619Y-42104819D01*
X19105619Y-42104819D02*
X19200857Y-42104819D01*
X19200857Y-42104819D02*
X19343714Y-42152438D01*
X19343714Y-42152438D02*
X19391333Y-42200057D01*
X20248476Y-42104819D02*
X20058000Y-42104819D01*
X20058000Y-42104819D02*
X19962762Y-42152438D01*
X19962762Y-42152438D02*
X19915143Y-42200057D01*
X19915143Y-42200057D02*
X19819905Y-42342914D01*
X19819905Y-42342914D02*
X19772286Y-42533390D01*
X19772286Y-42533390D02*
X19772286Y-42914342D01*
X19772286Y-42914342D02*
X19819905Y-43009580D01*
X19819905Y-43009580D02*
X19867524Y-43057200D01*
X19867524Y-43057200D02*
X19962762Y-43104819D01*
X19962762Y-43104819D02*
X20153238Y-43104819D01*
X20153238Y-43104819D02*
X20248476Y-43057200D01*
X20248476Y-43057200D02*
X20296095Y-43009580D01*
X20296095Y-43009580D02*
X20343714Y-42914342D01*
X20343714Y-42914342D02*
X20343714Y-42676247D01*
X20343714Y-42676247D02*
X20296095Y-42581009D01*
X20296095Y-42581009D02*
X20248476Y-42533390D01*
X20248476Y-42533390D02*
X20153238Y-42485771D01*
X20153238Y-42485771D02*
X19962762Y-42485771D01*
X19962762Y-42485771D02*
X19867524Y-42533390D01*
X19867524Y-42533390D02*
X19819905Y-42581009D01*
X19819905Y-42581009D02*
X19772286Y-42676247D01*
X15438571Y-12885009D02*
X15105238Y-12885009D01*
X15105238Y-13408819D02*
X15105238Y-12408819D01*
X15105238Y-12408819D02*
X15581428Y-12408819D01*
X15962381Y-13408819D02*
X15962381Y-12408819D01*
X16438571Y-13408819D02*
X16438571Y-12408819D01*
X16438571Y-12408819D02*
X16676666Y-12408819D01*
X16676666Y-12408819D02*
X16819523Y-12456438D01*
X16819523Y-12456438D02*
X16914761Y-12551676D01*
X16914761Y-12551676D02*
X16962380Y-12646914D01*
X16962380Y-12646914D02*
X17009999Y-12837390D01*
X17009999Y-12837390D02*
X17009999Y-12980247D01*
X17009999Y-12980247D02*
X16962380Y-13170723D01*
X16962380Y-13170723D02*
X16914761Y-13265961D01*
X16914761Y-13265961D02*
X16819523Y-13361200D01*
X16819523Y-13361200D02*
X16676666Y-13408819D01*
X16676666Y-13408819D02*
X16438571Y-13408819D01*
X17390952Y-12504057D02*
X17438571Y-12456438D01*
X17438571Y-12456438D02*
X17533809Y-12408819D01*
X17533809Y-12408819D02*
X17771904Y-12408819D01*
X17771904Y-12408819D02*
X17867142Y-12456438D01*
X17867142Y-12456438D02*
X17914761Y-12504057D01*
X17914761Y-12504057D02*
X17962380Y-12599295D01*
X17962380Y-12599295D02*
X17962380Y-12694533D01*
X17962380Y-12694533D02*
X17914761Y-12837390D01*
X17914761Y-12837390D02*
X17343333Y-13408819D01*
X17343333Y-13408819D02*
X17962380Y-13408819D01*
X24336476Y-75454819D02*
X24336476Y-76169104D01*
X24336476Y-76169104D02*
X24288857Y-76311961D01*
X24288857Y-76311961D02*
X24193619Y-76407200D01*
X24193619Y-76407200D02*
X24050762Y-76454819D01*
X24050762Y-76454819D02*
X23955524Y-76454819D01*
X25336476Y-76454819D02*
X24765048Y-76454819D01*
X25050762Y-76454819D02*
X25050762Y-75454819D01*
X25050762Y-75454819D02*
X24955524Y-75597676D01*
X24955524Y-75597676D02*
X24860286Y-75692914D01*
X24860286Y-75692914D02*
X24765048Y-75740533D01*
X26288857Y-76454819D02*
X25717429Y-76454819D01*
X26003143Y-76454819D02*
X26003143Y-75454819D01*
X26003143Y-75454819D02*
X25907905Y-75597676D01*
X25907905Y-75597676D02*
X25812667Y-75692914D01*
X25812667Y-75692914D02*
X25717429Y-75740533D01*
X30821333Y-64875580D02*
X30773714Y-64923200D01*
X30773714Y-64923200D02*
X30630857Y-64970819D01*
X30630857Y-64970819D02*
X30535619Y-64970819D01*
X30535619Y-64970819D02*
X30392762Y-64923200D01*
X30392762Y-64923200D02*
X30297524Y-64827961D01*
X30297524Y-64827961D02*
X30249905Y-64732723D01*
X30249905Y-64732723D02*
X30202286Y-64542247D01*
X30202286Y-64542247D02*
X30202286Y-64399390D01*
X30202286Y-64399390D02*
X30249905Y-64208914D01*
X30249905Y-64208914D02*
X30297524Y-64113676D01*
X30297524Y-64113676D02*
X30392762Y-64018438D01*
X30392762Y-64018438D02*
X30535619Y-63970819D01*
X30535619Y-63970819D02*
X30630857Y-63970819D01*
X30630857Y-63970819D02*
X30773714Y-64018438D01*
X30773714Y-64018438D02*
X30821333Y-64066057D01*
X31154667Y-63970819D02*
X31773714Y-63970819D01*
X31773714Y-63970819D02*
X31440381Y-64351771D01*
X31440381Y-64351771D02*
X31583238Y-64351771D01*
X31583238Y-64351771D02*
X31678476Y-64399390D01*
X31678476Y-64399390D02*
X31726095Y-64447009D01*
X31726095Y-64447009D02*
X31773714Y-64542247D01*
X31773714Y-64542247D02*
X31773714Y-64780342D01*
X31773714Y-64780342D02*
X31726095Y-64875580D01*
X31726095Y-64875580D02*
X31678476Y-64923200D01*
X31678476Y-64923200D02*
X31583238Y-64970819D01*
X31583238Y-64970819D02*
X31297524Y-64970819D01*
X31297524Y-64970819D02*
X31202286Y-64923200D01*
X31202286Y-64923200D02*
X31154667Y-64875580D01*
X19391333Y-32871580D02*
X19343714Y-32919200D01*
X19343714Y-32919200D02*
X19200857Y-32966819D01*
X19200857Y-32966819D02*
X19105619Y-32966819D01*
X19105619Y-32966819D02*
X18962762Y-32919200D01*
X18962762Y-32919200D02*
X18867524Y-32823961D01*
X18867524Y-32823961D02*
X18819905Y-32728723D01*
X18819905Y-32728723D02*
X18772286Y-32538247D01*
X18772286Y-32538247D02*
X18772286Y-32395390D01*
X18772286Y-32395390D02*
X18819905Y-32204914D01*
X18819905Y-32204914D02*
X18867524Y-32109676D01*
X18867524Y-32109676D02*
X18962762Y-32014438D01*
X18962762Y-32014438D02*
X19105619Y-31966819D01*
X19105619Y-31966819D02*
X19200857Y-31966819D01*
X19200857Y-31966819D02*
X19343714Y-32014438D01*
X19343714Y-32014438D02*
X19391333Y-32062057D01*
X20296095Y-31966819D02*
X19819905Y-31966819D01*
X19819905Y-31966819D02*
X19772286Y-32443009D01*
X19772286Y-32443009D02*
X19819905Y-32395390D01*
X19819905Y-32395390D02*
X19915143Y-32347771D01*
X19915143Y-32347771D02*
X20153238Y-32347771D01*
X20153238Y-32347771D02*
X20248476Y-32395390D01*
X20248476Y-32395390D02*
X20296095Y-32443009D01*
X20296095Y-32443009D02*
X20343714Y-32538247D01*
X20343714Y-32538247D02*
X20343714Y-32776342D01*
X20343714Y-32776342D02*
X20296095Y-32871580D01*
X20296095Y-32871580D02*
X20248476Y-32919200D01*
X20248476Y-32919200D02*
X20153238Y-32966819D01*
X20153238Y-32966819D02*
X19915143Y-32966819D01*
X19915143Y-32966819D02*
X19819905Y-32919200D01*
X19819905Y-32919200D02*
X19772286Y-32871580D01*
X24558666Y-35522819D02*
X24558666Y-36237104D01*
X24558666Y-36237104D02*
X24511047Y-36379961D01*
X24511047Y-36379961D02*
X24415809Y-36475200D01*
X24415809Y-36475200D02*
X24272952Y-36522819D01*
X24272952Y-36522819D02*
X24177714Y-36522819D01*
X24939619Y-35522819D02*
X25606285Y-35522819D01*
X25606285Y-35522819D02*
X25177714Y-36522819D01*
X49666666Y-70828819D02*
X49666666Y-71543104D01*
X49666666Y-71543104D02*
X49619047Y-71685961D01*
X49619047Y-71685961D02*
X49523809Y-71781200D01*
X49523809Y-71781200D02*
X49380952Y-71828819D01*
X49380952Y-71828819D02*
X49285714Y-71828819D01*
X50571428Y-71162152D02*
X50571428Y-71828819D01*
X50333333Y-70781200D02*
X50095238Y-71495485D01*
X50095238Y-71495485D02*
X50714285Y-71495485D01*
X15359142Y-81385580D02*
X15311523Y-81433200D01*
X15311523Y-81433200D02*
X15168666Y-81480819D01*
X15168666Y-81480819D02*
X15073428Y-81480819D01*
X15073428Y-81480819D02*
X14930571Y-81433200D01*
X14930571Y-81433200D02*
X14835333Y-81337961D01*
X14835333Y-81337961D02*
X14787714Y-81242723D01*
X14787714Y-81242723D02*
X14740095Y-81052247D01*
X14740095Y-81052247D02*
X14740095Y-80909390D01*
X14740095Y-80909390D02*
X14787714Y-80718914D01*
X14787714Y-80718914D02*
X14835333Y-80623676D01*
X14835333Y-80623676D02*
X14930571Y-80528438D01*
X14930571Y-80528438D02*
X15073428Y-80480819D01*
X15073428Y-80480819D02*
X15168666Y-80480819D01*
X15168666Y-80480819D02*
X15311523Y-80528438D01*
X15311523Y-80528438D02*
X15359142Y-80576057D01*
X16311523Y-81480819D02*
X15740095Y-81480819D01*
X16025809Y-81480819D02*
X16025809Y-80480819D01*
X16025809Y-80480819D02*
X15930571Y-80623676D01*
X15930571Y-80623676D02*
X15835333Y-80718914D01*
X15835333Y-80718914D02*
X15740095Y-80766533D01*
X16930571Y-80480819D02*
X17025809Y-80480819D01*
X17025809Y-80480819D02*
X17121047Y-80528438D01*
X17121047Y-80528438D02*
X17168666Y-80576057D01*
X17168666Y-80576057D02*
X17216285Y-80671295D01*
X17216285Y-80671295D02*
X17263904Y-80861771D01*
X17263904Y-80861771D02*
X17263904Y-81099866D01*
X17263904Y-81099866D02*
X17216285Y-81290342D01*
X17216285Y-81290342D02*
X17168666Y-81385580D01*
X17168666Y-81385580D02*
X17121047Y-81433200D01*
X17121047Y-81433200D02*
X17025809Y-81480819D01*
X17025809Y-81480819D02*
X16930571Y-81480819D01*
X16930571Y-81480819D02*
X16835333Y-81433200D01*
X16835333Y-81433200D02*
X16787714Y-81385580D01*
X16787714Y-81385580D02*
X16740095Y-81290342D01*
X16740095Y-81290342D02*
X16692476Y-81099866D01*
X16692476Y-81099866D02*
X16692476Y-80861771D01*
X16692476Y-80861771D02*
X16740095Y-80671295D01*
X16740095Y-80671295D02*
X16787714Y-80576057D01*
X16787714Y-80576057D02*
X16835333Y-80528438D01*
X16835333Y-80528438D02*
X16930571Y-80480819D01*
X15184571Y-82735009D02*
X14851238Y-82735009D01*
X14851238Y-83258819D02*
X14851238Y-82258819D01*
X14851238Y-82258819D02*
X15327428Y-82258819D01*
X15708381Y-83258819D02*
X15708381Y-82258819D01*
X16184571Y-83258819D02*
X16184571Y-82258819D01*
X16184571Y-82258819D02*
X16422666Y-82258819D01*
X16422666Y-82258819D02*
X16565523Y-82306438D01*
X16565523Y-82306438D02*
X16660761Y-82401676D01*
X16660761Y-82401676D02*
X16708380Y-82496914D01*
X16708380Y-82496914D02*
X16755999Y-82687390D01*
X16755999Y-82687390D02*
X16755999Y-82830247D01*
X16755999Y-82830247D02*
X16708380Y-83020723D01*
X16708380Y-83020723D02*
X16660761Y-83115961D01*
X16660761Y-83115961D02*
X16565523Y-83211200D01*
X16565523Y-83211200D02*
X16422666Y-83258819D01*
X16422666Y-83258819D02*
X16184571Y-83258819D01*
X17089333Y-82258819D02*
X17708380Y-82258819D01*
X17708380Y-82258819D02*
X17375047Y-82639771D01*
X17375047Y-82639771D02*
X17517904Y-82639771D01*
X17517904Y-82639771D02*
X17613142Y-82687390D01*
X17613142Y-82687390D02*
X17660761Y-82735009D01*
X17660761Y-82735009D02*
X17708380Y-82830247D01*
X17708380Y-82830247D02*
X17708380Y-83068342D01*
X17708380Y-83068342D02*
X17660761Y-83163580D01*
X17660761Y-83163580D02*
X17613142Y-83211200D01*
X17613142Y-83211200D02*
X17517904Y-83258819D01*
X17517904Y-83258819D02*
X17232190Y-83258819D01*
X17232190Y-83258819D02*
X17136952Y-83211200D01*
X17136952Y-83211200D02*
X17089333Y-83163580D01*
X41679905Y-81734819D02*
X41679905Y-80734819D01*
X41679905Y-80734819D02*
X42060857Y-80734819D01*
X42060857Y-80734819D02*
X42156095Y-80782438D01*
X42156095Y-80782438D02*
X42203714Y-80830057D01*
X42203714Y-80830057D02*
X42251333Y-80925295D01*
X42251333Y-80925295D02*
X42251333Y-81068152D01*
X42251333Y-81068152D02*
X42203714Y-81163390D01*
X42203714Y-81163390D02*
X42156095Y-81211009D01*
X42156095Y-81211009D02*
X42060857Y-81258628D01*
X42060857Y-81258628D02*
X41679905Y-81258628D01*
X43203714Y-81734819D02*
X42632286Y-81734819D01*
X42918000Y-81734819D02*
X42918000Y-80734819D01*
X42918000Y-80734819D02*
X42822762Y-80877676D01*
X42822762Y-80877676D02*
X42727524Y-80972914D01*
X42727524Y-80972914D02*
X42632286Y-81020533D01*
X19333333Y-22509580D02*
X19285714Y-22557200D01*
X19285714Y-22557200D02*
X19142857Y-22604819D01*
X19142857Y-22604819D02*
X19047619Y-22604819D01*
X19047619Y-22604819D02*
X18904762Y-22557200D01*
X18904762Y-22557200D02*
X18809524Y-22461961D01*
X18809524Y-22461961D02*
X18761905Y-22366723D01*
X18761905Y-22366723D02*
X18714286Y-22176247D01*
X18714286Y-22176247D02*
X18714286Y-22033390D01*
X18714286Y-22033390D02*
X18761905Y-21842914D01*
X18761905Y-21842914D02*
X18809524Y-21747676D01*
X18809524Y-21747676D02*
X18904762Y-21652438D01*
X18904762Y-21652438D02*
X19047619Y-21604819D01*
X19047619Y-21604819D02*
X19142857Y-21604819D01*
X19142857Y-21604819D02*
X19285714Y-21652438D01*
X19285714Y-21652438D02*
X19333333Y-21700057D01*
X20190476Y-21938152D02*
X20190476Y-22604819D01*
X19952381Y-21557200D02*
X19714286Y-22271485D01*
X19714286Y-22271485D02*
X20333333Y-22271485D01*
D11*
%TO.C,J10*%
X15645000Y-67330000D02*
X15645000Y-66000000D01*
X16975000Y-67330000D02*
X15645000Y-67330000D01*
X18245000Y-64670000D02*
X23385000Y-64670000D01*
X18245000Y-67330000D02*
X18245000Y-64670000D01*
X18245000Y-67330000D02*
X23385000Y-67330000D01*
X23385000Y-67330000D02*
X23385000Y-64670000D01*
%TO.C,U1*%
X30504000Y-62060000D02*
X58903999Y-62060000D01*
X30504001Y-14140000D02*
X30504000Y-62060000D01*
X35734120Y-8226880D02*
X53717320Y-8226880D01*
X35734120Y-14119680D02*
X35734120Y-8226880D01*
X53717320Y-8226880D02*
X53717320Y-14119680D01*
X58903999Y-62060000D02*
X58904000Y-14140000D01*
X58904000Y-14140000D02*
X30504001Y-14140000D01*
%TO.C,J9*%
X15670000Y-57330000D02*
X15670000Y-56000000D01*
X17000000Y-57330000D02*
X15670000Y-57330000D01*
X18270000Y-54670000D02*
X23410000Y-54670000D01*
X18270000Y-57330000D02*
X18270000Y-54670000D01*
X18270000Y-57330000D02*
X23410000Y-57330000D01*
X23410000Y-57330000D02*
X23410000Y-54670000D01*
%TO.C,C11*%
X23540000Y-60000000D02*
X23540000Y-61920000D01*
X23540000Y-61920000D02*
X26400000Y-61920000D01*
X26400000Y-60000000D02*
X23540000Y-60000000D01*
%TO.C,C2*%
X34600000Y-65704000D02*
X34600000Y-68564000D01*
X36520000Y-65704000D02*
X34600000Y-65704000D01*
X36520000Y-68564000D02*
X36520000Y-65704000D01*
%TO.C,C1*%
X38060000Y-67479113D02*
X39600000Y-67479113D01*
X38060000Y-67519113D02*
X39600000Y-67519113D01*
X38061000Y-67439113D02*
X39600000Y-67439113D01*
X38062000Y-67399113D02*
X39600000Y-67399113D01*
X38064000Y-67359113D02*
X39600000Y-67359113D01*
X38067000Y-67319113D02*
X39600000Y-67319113D01*
X38071000Y-67279113D02*
X39600000Y-67279113D01*
X38075000Y-67239113D02*
X39600000Y-67239113D01*
X38079000Y-67199113D02*
X39600000Y-67199113D01*
X38084000Y-67159113D02*
X39600000Y-67159113D01*
X38090000Y-67119113D02*
X39600000Y-67119113D01*
X38097000Y-67079113D02*
X39600000Y-67079113D01*
X38104000Y-67039113D02*
X39600000Y-67039113D01*
X38112000Y-66999113D02*
X39600000Y-66999113D01*
X38120000Y-66959113D02*
X39600000Y-66959113D01*
X38129000Y-66919113D02*
X39600000Y-66919113D01*
X38139000Y-66879113D02*
X39600000Y-66879113D01*
X38149000Y-66839113D02*
X39600000Y-66839113D01*
X38160000Y-66798113D02*
X39600000Y-66798113D01*
X38172000Y-66758113D02*
X39600000Y-66758113D01*
X38185000Y-66718113D02*
X39600000Y-66718113D01*
X38198000Y-66678113D02*
X39600000Y-66678113D01*
X38212000Y-66638113D02*
X39600000Y-66638113D01*
X38226000Y-66598113D02*
X39600000Y-66598113D01*
X38242000Y-66558113D02*
X39600000Y-66558113D01*
X38258000Y-66518113D02*
X39600000Y-66518113D01*
X38275000Y-66478113D02*
X39600000Y-66478113D01*
X38292000Y-66438113D02*
X39600000Y-66438113D01*
X38311000Y-66398113D02*
X39600000Y-66398113D01*
X38330000Y-66358113D02*
X39600000Y-66358113D01*
X38350000Y-66318113D02*
X39600000Y-66318113D01*
X38372000Y-66278113D02*
X39600000Y-66278113D01*
X38393000Y-66238113D02*
X39600000Y-66238113D01*
X38416000Y-66198113D02*
X39600000Y-66198113D01*
X38440000Y-66158113D02*
X39600000Y-66158113D01*
X38465000Y-66118113D02*
X39600000Y-66118113D01*
X38491000Y-66078113D02*
X39600000Y-66078113D01*
X38518000Y-66038113D02*
X39600000Y-66038113D01*
X38545000Y-65998113D02*
X39600000Y-65998113D01*
X38575000Y-65958113D02*
X39600000Y-65958113D01*
X38605000Y-65918113D02*
X39600000Y-65918113D01*
X38636000Y-65878113D02*
X39600000Y-65878113D01*
X38669000Y-65838113D02*
X39600000Y-65838113D01*
X38703000Y-65798113D02*
X39600000Y-65798113D01*
X38739000Y-65758113D02*
X39600000Y-65758113D01*
X38776000Y-65718113D02*
X39600000Y-65718113D01*
X38814000Y-65678113D02*
X39600000Y-65678113D01*
X38855000Y-65638113D02*
X39600000Y-65638113D01*
X38897000Y-65598113D02*
X39600000Y-65598113D01*
X38915000Y-70073888D02*
X39415000Y-70073888D01*
X38941000Y-65558113D02*
X39600000Y-65558113D01*
X38987000Y-65518113D02*
X39600000Y-65518113D01*
X39035000Y-65478113D02*
X42245000Y-65478113D01*
X39086000Y-65438113D02*
X42194000Y-65438113D01*
X39140000Y-65398113D02*
X42140000Y-65398113D01*
X39165000Y-70323888D02*
X39165000Y-69823888D01*
X39197000Y-65358113D02*
X42083000Y-65358113D01*
X39257000Y-65318113D02*
X42023000Y-65318113D01*
X39321000Y-65278113D02*
X41959000Y-65278113D01*
X39389000Y-65238113D02*
X41891000Y-65238113D01*
X39462000Y-65198113D02*
X41818000Y-65198113D01*
X39542000Y-65158113D02*
X41738000Y-65158113D01*
X39629000Y-65118113D02*
X41651000Y-65118113D01*
X39725000Y-65078113D02*
X41555000Y-65078113D01*
X39835000Y-65038113D02*
X41445000Y-65038113D01*
X39963000Y-64998113D02*
X41317000Y-64998113D01*
X40122000Y-64958113D02*
X41158000Y-64958113D01*
X40356000Y-64918113D02*
X40924000Y-64918113D01*
X41680000Y-65518113D02*
X42293000Y-65518113D01*
X41680000Y-65558113D02*
X42339000Y-65558113D01*
X41680000Y-65598113D02*
X42383000Y-65598113D01*
X41680000Y-65638113D02*
X42425000Y-65638113D01*
X41680000Y-65678113D02*
X42466000Y-65678113D01*
X41680000Y-65718113D02*
X42504000Y-65718113D01*
X41680000Y-65758113D02*
X42541000Y-65758113D01*
X41680000Y-65798113D02*
X42577000Y-65798113D01*
X41680000Y-65838113D02*
X42611000Y-65838113D01*
X41680000Y-65878113D02*
X42644000Y-65878113D01*
X41680000Y-65918113D02*
X42675000Y-65918113D01*
X41680000Y-65958113D02*
X42705000Y-65958113D01*
X41680000Y-65998113D02*
X42735000Y-65998113D01*
X41680000Y-66038113D02*
X42762000Y-66038113D01*
X41680000Y-66078113D02*
X42789000Y-66078113D01*
X41680000Y-66118113D02*
X42815000Y-66118113D01*
X41680000Y-66158113D02*
X42840000Y-66158113D01*
X41680000Y-66198113D02*
X42864000Y-66198113D01*
X41680000Y-66238113D02*
X42887000Y-66238113D01*
X41680000Y-66278113D02*
X42908000Y-66278113D01*
X41680000Y-66318113D02*
X42930000Y-66318113D01*
X41680000Y-66358113D02*
X42950000Y-66358113D01*
X41680000Y-66398113D02*
X42969000Y-66398113D01*
X41680000Y-66438113D02*
X42988000Y-66438113D01*
X41680000Y-66478113D02*
X43005000Y-66478113D01*
X41680000Y-66518113D02*
X43022000Y-66518113D01*
X41680000Y-66558113D02*
X43038000Y-66558113D01*
X41680000Y-66598113D02*
X43054000Y-66598113D01*
X41680000Y-66638113D02*
X43068000Y-66638113D01*
X41680000Y-66678113D02*
X43082000Y-66678113D01*
X41680000Y-66718113D02*
X43095000Y-66718113D01*
X41680000Y-66758113D02*
X43108000Y-66758113D01*
X41680000Y-66798113D02*
X43120000Y-66798113D01*
X41680000Y-66839113D02*
X43131000Y-66839113D01*
X41680000Y-66879113D02*
X43141000Y-66879113D01*
X41680000Y-66919113D02*
X43151000Y-66919113D01*
X41680000Y-66959113D02*
X43160000Y-66959113D01*
X41680000Y-66999113D02*
X43168000Y-66999113D01*
X41680000Y-67039113D02*
X43176000Y-67039113D01*
X41680000Y-67079113D02*
X43183000Y-67079113D01*
X41680000Y-67119113D02*
X43190000Y-67119113D01*
X41680000Y-67159113D02*
X43196000Y-67159113D01*
X41680000Y-67199113D02*
X43201000Y-67199113D01*
X41680000Y-67239113D02*
X43205000Y-67239113D01*
X41680000Y-67279113D02*
X43209000Y-67279113D01*
X41680000Y-67319113D02*
X43213000Y-67319113D01*
X41680000Y-67359113D02*
X43216000Y-67359113D01*
X41680000Y-67399113D02*
X43218000Y-67399113D01*
X41680000Y-67439113D02*
X43219000Y-67439113D01*
X41680000Y-67479113D02*
X43220000Y-67479113D01*
X41680000Y-67519113D02*
X43220000Y-67519113D01*
X43260000Y-67519113D02*
G75*
G02*
X38020000Y-67519113I-2620000J0D01*
G01*
X38020000Y-67519113D02*
G75*
G02*
X43260000Y-67519113I2620000J0D01*
G01*
%TO.C,F1*%
X40037936Y-71030000D02*
X41242064Y-71030000D01*
X40037936Y-73750000D02*
X41242064Y-73750000D01*
%TO.C,J8*%
X15630000Y-47330000D02*
X15630000Y-46000000D01*
X16960000Y-47330000D02*
X15630000Y-47330000D01*
X18230000Y-44670000D02*
X23370000Y-44670000D01*
X18230000Y-47330000D02*
X18230000Y-44670000D01*
X18230000Y-47330000D02*
X23370000Y-47330000D01*
X23370000Y-47330000D02*
X23370000Y-44670000D01*
%TO.C,C7*%
X18500000Y-51960000D02*
X21360000Y-51960000D01*
X21360000Y-50040000D02*
X18500000Y-50040000D01*
X21360000Y-51960000D02*
X21360000Y-50040000D01*
%TO.C,C12*%
X26218000Y-13634000D02*
X26218000Y-16494000D01*
X28138000Y-13634000D02*
X26218000Y-13634000D01*
X28138000Y-16494000D02*
X28138000Y-13634000D01*
%TO.C,J5*%
X15645000Y-16830000D02*
X15645000Y-15500000D01*
X16975000Y-16830000D02*
X15645000Y-16830000D01*
X18245000Y-14170000D02*
X23385000Y-14170000D01*
X18245000Y-16830000D02*
X18245000Y-14170000D01*
X18245000Y-16830000D02*
X23385000Y-16830000D01*
X23385000Y-16830000D02*
X23385000Y-14170000D01*
%TO.C,L1*%
X31414000Y-71430000D02*
X31414000Y-73350000D01*
X31414000Y-73350000D02*
X34274000Y-73350000D01*
X34274000Y-71430000D02*
X31414000Y-71430000D01*
%TO.C,C8*%
X18558000Y-61920000D02*
X21418000Y-61920000D01*
X21418000Y-60000000D02*
X18558000Y-60000000D01*
X21418000Y-61920000D02*
X21418000Y-60000000D01*
%TO.C,C9*%
X18500000Y-71960000D02*
X21360000Y-71960000D01*
X21360000Y-70040000D02*
X18500000Y-70040000D01*
X21360000Y-71960000D02*
X21360000Y-70040000D01*
%TO.C,J3*%
X58670000Y-77755000D02*
X58670000Y-72615000D01*
X61330000Y-72615000D02*
X58670000Y-72615000D01*
X61330000Y-77755000D02*
X58670000Y-77755000D01*
X61330000Y-77755000D02*
X61330000Y-72615000D01*
X61330000Y-79025000D02*
X61330000Y-80355000D01*
X61330000Y-80355000D02*
X60000000Y-80355000D01*
%TO.C,C6*%
X18558000Y-41960000D02*
X21418000Y-41960000D01*
X21418000Y-40040000D02*
X18558000Y-40040000D01*
X21418000Y-41960000D02*
X21418000Y-40040000D01*
%TO.C,J11*%
X15645000Y-77330000D02*
X15645000Y-76000000D01*
X16975000Y-77330000D02*
X15645000Y-77330000D01*
X18245000Y-74670000D02*
X23385000Y-74670000D01*
X18245000Y-77330000D02*
X18245000Y-74670000D01*
X18245000Y-77330000D02*
X23385000Y-77330000D01*
X23385000Y-77330000D02*
X23385000Y-74670000D01*
%TO.C,C3*%
X30028000Y-65704000D02*
X30028000Y-68564000D01*
X31948000Y-65704000D02*
X30028000Y-65704000D01*
X31948000Y-68564000D02*
X31948000Y-65704000D01*
%TO.C,J6*%
X15590000Y-27330000D02*
X15590000Y-26000000D01*
X16920000Y-27330000D02*
X15590000Y-27330000D01*
X18190000Y-24670000D02*
X23330000Y-24670000D01*
X18190000Y-27330000D02*
X18190000Y-24670000D01*
X18190000Y-27330000D02*
X23330000Y-27330000D01*
X23330000Y-27330000D02*
X23330000Y-24670000D01*
%TO.C,C5*%
X18525000Y-31460000D02*
X21385000Y-31460000D01*
X21385000Y-29540000D02*
X18525000Y-29540000D01*
X21385000Y-31460000D02*
X21385000Y-29540000D01*
%TO.C,J7*%
X15630000Y-37330000D02*
X15630000Y-36000000D01*
X16960000Y-37330000D02*
X15630000Y-37330000D01*
X18230000Y-34670000D02*
X23370000Y-34670000D01*
X18230000Y-37330000D02*
X18230000Y-34670000D01*
X18230000Y-37330000D02*
X23370000Y-37330000D01*
X23370000Y-37330000D02*
X23370000Y-34670000D01*
%TO.C,J4*%
X48670000Y-77770000D02*
X48670000Y-72630000D01*
X51330000Y-72630000D02*
X48670000Y-72630000D01*
X51330000Y-77770000D02*
X48670000Y-77770000D01*
X51330000Y-77770000D02*
X51330000Y-72630000D01*
X51330000Y-79040000D02*
X51330000Y-80370000D01*
X51330000Y-80370000D02*
X50000000Y-80370000D01*
%TO.C,C10*%
X18558000Y-81986000D02*
X21418000Y-81986000D01*
X21418000Y-80066000D02*
X18558000Y-80066000D01*
X21418000Y-81986000D02*
X21418000Y-80066000D01*
%TO.C,P1*%
X40738000Y-80164000D02*
X40738000Y-78464000D01*
X31398000Y-80164000D02*
X31398000Y-78464000D01*
%TO.C,C4*%
X21360000Y-21460000D02*
X21360000Y-19540000D01*
X21360000Y-19540000D02*
X18500000Y-19540000D01*
X18500000Y-21460000D02*
X21360000Y-21460000D01*
%TD*%
M02*
