%TF.GenerationSoftware,KiCad,Pcbnew,8.0.3*%
%TF.CreationDate,2024-07-18T19:56:29+02:00*%
%TF.ProjectId,7Analyzer,37416e61-6c79-47a6-9572-2e6b69636164,rev?*%
%TF.SameCoordinates,Original*%
%TF.FileFunction,Copper,L2,Bot*%
%TF.FilePolarity,Positive*%
%FSLAX46Y46*%
G04 Gerber Fmt 4.6, Leading zero omitted, Abs format (unit mm)*
G04 Created by KiCad (PCBNEW 8.0.3) date 2024-07-18 19:56:29*
%MOMM*%
%LPD*%
G01*
G04 APERTURE LIST*
%TA.AperFunction,ComponentPad*%
%ADD10C,7.000000*%
%TD*%
%TA.AperFunction,ComponentPad*%
%ADD11R,1.700000X1.700000*%
%TD*%
%TA.AperFunction,ComponentPad*%
%ADD12O,1.700000X1.700000*%
%TD*%
%TA.AperFunction,ComponentPad*%
%ADD13R,2.000000X1.200000*%
%TD*%
%TA.AperFunction,ComponentPad*%
%ADD14O,2.000000X1.200000*%
%TD*%
%TA.AperFunction,ComponentPad*%
%ADD15R,1.600000X1.600000*%
%TD*%
%TA.AperFunction,ComponentPad*%
%ADD16C,1.600000*%
%TD*%
%TA.AperFunction,ComponentPad*%
%ADD17O,1.000000X1.800000*%
%TD*%
%TA.AperFunction,ComponentPad*%
%ADD18O,1.000000X2.100000*%
%TD*%
%TA.AperFunction,ViaPad*%
%ADD19C,0.800000*%
%TD*%
%TA.AperFunction,Conductor*%
%ADD20C,0.250000*%
%TD*%
%TA.AperFunction,Conductor*%
%ADD21C,1.000000*%
%TD*%
G04 APERTURE END LIST*
D10*
%TO.P,J2,1*%
%TO.N,GND*%
X26670000Y-21336000D03*
%TD*%
%TO.P,J1,1*%
%TO.N,GND*%
X52832000Y-67056000D03*
%TD*%
D11*
%TO.P,J10,1*%
%TO.N,+5V*%
X16975000Y-66000000D03*
D12*
%TO.P,J10,2*%
%TO.N,/A21*%
X19515000Y-66000000D03*
%TO.P,J10,3*%
%TO.N,GND*%
X22055000Y-66000000D03*
%TD*%
D13*
%TO.P,U1,1,3V3*%
%TO.N,+3.3V*%
X32004000Y-15240000D03*
D14*
%TO.P,U1,2,CHIP_PU*%
%TO.N,unconnected-(U1-CHIP_PU-Pad2)*%
X32004000Y-17780000D03*
%TO.P,U1,3,SENSOR_VP/GPIO36/ADC1_CH0*%
%TO.N,unconnected-(U1-SENSOR_VP{slash}GPIO36{slash}ADC1_CH0-Pad3)*%
X32004000Y-20320000D03*
%TO.P,U1,4,SENSOR_VN/GPIO39/ADC1_CH3*%
%TO.N,unconnected-(U1-SENSOR_VN{slash}GPIO39{slash}ADC1_CH3-Pad4)*%
X32004000Y-22860000D03*
%TO.P,U1,5,VDET_1/GPIO34/ADC1_CH6*%
%TO.N,/A34*%
X32004000Y-25400000D03*
%TO.P,U1,6,VDET_2/GPIO35/ADC1_CH7*%
%TO.N,/A35*%
X32004000Y-27940000D03*
%TO.P,U1,7,32K_XP/GPIO32/ADC1_CH4*%
%TO.N,unconnected-(U1-32K_XP{slash}GPIO32{slash}ADC1_CH4-Pad7)*%
X32004000Y-30480000D03*
%TO.P,U1,8,32K_XN/GPIO33/ADC1_CH5*%
%TO.N,unconnected-(U1-32K_XN{slash}GPIO33{slash}ADC1_CH5-Pad8)*%
X32004000Y-33020000D03*
%TO.P,U1,9,DAC_1/ADC2_CH8/GPIO25*%
%TO.N,unconnected-(U1-DAC_1{slash}ADC2_CH8{slash}GPIO25-Pad9)*%
X32004000Y-35560000D03*
%TO.P,U1,10,DAC_2/ADC2_CH9/GPIO26*%
%TO.N,unconnected-(U1-DAC_2{slash}ADC2_CH9{slash}GPIO26-Pad10)*%
X32004000Y-38100000D03*
%TO.P,U1,11,ADC2_CH7/GPIO27*%
%TO.N,unconnected-(U1-ADC2_CH7{slash}GPIO27-Pad11)*%
X32004000Y-40640000D03*
%TO.P,U1,12,MTMS/GPIO14/ADC2_CH6*%
%TO.N,unconnected-(U1-MTMS{slash}GPIO14{slash}ADC2_CH6-Pad12)*%
X32004000Y-43180000D03*
%TO.P,U1,13,MTDI/GPIO12/ADC2_CH5*%
%TO.N,unconnected-(U1-MTDI{slash}GPIO12{slash}ADC2_CH5-Pad13)*%
X32004000Y-45720000D03*
%TO.P,U1,14,GND*%
%TO.N,GND*%
X32004000Y-48260000D03*
%TO.P,U1,15,MTCK/GPIO13/ADC2_CH4*%
%TO.N,unconnected-(U1-MTCK{slash}GPIO13{slash}ADC2_CH4-Pad15)*%
X32004000Y-50800000D03*
%TO.P,U1,16,SD_DATA2/GPIO9*%
%TO.N,unconnected-(U1-SD_DATA2{slash}GPIO9-Pad16)*%
X32004000Y-53340000D03*
%TO.P,U1,17,SD_DATA3/GPIO10*%
%TO.N,unconnected-(U1-SD_DATA3{slash}GPIO10-Pad17)*%
X32004000Y-55880000D03*
%TO.P,U1,18,CMD*%
%TO.N,unconnected-(U1-CMD-Pad18)*%
X32004000Y-58420000D03*
%TO.P,U1,19,5V*%
%TO.N,+5V*%
X32004000Y-60960000D03*
%TO.P,U1,20,SD_CLK/GPIO6*%
%TO.N,unconnected-(U1-SD_CLK{slash}GPIO6-Pad20)*%
X57400320Y-60957280D03*
%TO.P,U1,21,SD_DATA0/GPIO7*%
%TO.N,unconnected-(U1-SD_DATA0{slash}GPIO7-Pad21)*%
X57400320Y-58417280D03*
%TO.P,U1,22,SD_DATA1/GPIO8*%
%TO.N,unconnected-(U1-SD_DATA1{slash}GPIO8-Pad22)*%
X57404000Y-55880000D03*
%TO.P,U1,23,MTDO/GPIO15/ADC2_CH3*%
%TO.N,/A15*%
X57404000Y-53340000D03*
%TO.P,U1,24,ADC2_CH2/GPIO2*%
%TO.N,unconnected-(U1-ADC2_CH2{slash}GPIO2-Pad24)*%
X57404000Y-50800000D03*
%TO.P,U1,25,GPIO0/BOOT/ADC2_CH1*%
%TO.N,unconnected-(U1-GPIO0{slash}BOOT{slash}ADC2_CH1-Pad25)*%
X57404000Y-48260000D03*
%TO.P,U1,26,ADC2_CH0/GPIO4*%
%TO.N,unconnected-(U1-ADC2_CH0{slash}GPIO4-Pad26)*%
X57404000Y-45720000D03*
%TO.P,U1,27,GPIO16*%
%TO.N,/A16*%
X57404000Y-43180000D03*
%TO.P,U1,28,GPIO17*%
%TO.N,/A17*%
X57404000Y-40640000D03*
%TO.P,U1,29,GPIO5*%
%TO.N,unconnected-(U1-GPIO5-Pad29)*%
X57404000Y-38100000D03*
%TO.P,U1,30,GPIO18*%
%TO.N,/A18*%
X57404000Y-35560000D03*
%TO.P,U1,31,GPIO19*%
%TO.N,/A19*%
X57404000Y-33020000D03*
%TO.P,U1,32,GND*%
%TO.N,GND*%
X57404000Y-30480000D03*
%TO.P,U1,33,GPIO21*%
%TO.N,/A21*%
X57404000Y-27940000D03*
%TO.P,U1,34,U0RXD/GPIO3*%
%TO.N,unconnected-(U1-U0RXD{slash}GPIO3-Pad34)*%
X57404000Y-25400000D03*
%TO.P,U1,35,U0TXD/GPIO1*%
%TO.N,unconnected-(U1-U0TXD{slash}GPIO1-Pad35)*%
X57404000Y-22860000D03*
%TO.P,U1,36,GPIO22*%
%TO.N,unconnected-(U1-GPIO22-Pad36)*%
X57404000Y-20320000D03*
%TO.P,U1,37,GPIO23*%
%TO.N,/A23*%
X57404000Y-17780000D03*
%TO.P,U1,38,GND*%
%TO.N,GND*%
X57404000Y-15240000D03*
%TD*%
D11*
%TO.P,J9,1*%
%TO.N,+5V*%
X17000000Y-56000000D03*
D12*
%TO.P,J9,2*%
%TO.N,/A19*%
X19540000Y-56000000D03*
%TO.P,J9,3*%
%TO.N,GND*%
X22080000Y-56000000D03*
%TD*%
D15*
%TO.P,C1,1*%
%TO.N,Net-(L1--)*%
X40640000Y-68519113D03*
D16*
%TO.P,C1,2*%
%TO.N,GND*%
X40640000Y-66519113D03*
%TD*%
D11*
%TO.P,J8,1*%
%TO.N,+5V*%
X16960000Y-46000000D03*
D12*
%TO.P,J8,2*%
%TO.N,/A18*%
X19500000Y-46000000D03*
%TO.P,J8,3*%
%TO.N,GND*%
X22040000Y-46000000D03*
%TD*%
D11*
%TO.P,J5,1*%
%TO.N,+5V*%
X16975000Y-15500000D03*
D12*
%TO.P,J5,2*%
%TO.N,/A15*%
X19515000Y-15500000D03*
%TO.P,J5,3*%
%TO.N,GND*%
X22055000Y-15500000D03*
%TD*%
D11*
%TO.P,J3,1*%
%TO.N,+5V*%
X60000000Y-79025000D03*
D12*
%TO.P,J3,2*%
%TO.N,/A34*%
X60000000Y-76485000D03*
%TO.P,J3,3*%
%TO.N,GND*%
X60000000Y-73945000D03*
%TD*%
D11*
%TO.P,J11,1*%
%TO.N,+5V*%
X16975000Y-76000000D03*
D12*
%TO.P,J11,2*%
%TO.N,/A23*%
X19515000Y-76000000D03*
%TO.P,J11,3*%
%TO.N,GND*%
X22055000Y-76000000D03*
%TD*%
D11*
%TO.P,J6,1*%
%TO.N,+5V*%
X16920000Y-26000000D03*
D12*
%TO.P,J6,2*%
%TO.N,/A16*%
X19460000Y-26000000D03*
%TO.P,J6,3*%
%TO.N,GND*%
X22000000Y-26000000D03*
%TD*%
D11*
%TO.P,J7,1*%
%TO.N,+5V*%
X16960000Y-36000000D03*
D12*
%TO.P,J7,2*%
%TO.N,/A17*%
X19500000Y-36000000D03*
%TO.P,J7,3*%
%TO.N,GND*%
X22040000Y-36000000D03*
%TD*%
D11*
%TO.P,J4,1*%
%TO.N,+5V*%
X50000000Y-79040000D03*
D12*
%TO.P,J4,2*%
%TO.N,/A35*%
X50000000Y-76500000D03*
%TO.P,J4,3*%
%TO.N,GND*%
X50000000Y-73960000D03*
%TD*%
D17*
%TO.P,P1,S1,SHIELD*%
%TO.N,unconnected-(P1-SHIELD-PadS1)*%
X40388000Y-81339000D03*
D18*
X40388000Y-77159000D03*
D17*
X31748000Y-81339000D03*
D18*
X31748000Y-77159000D03*
%TD*%
D19*
%TO.N,/A21*%
X36068000Y-63246000D03*
%TO.N,+5V*%
X26425000Y-58937000D03*
%TD*%
D20*
%TO.N,/A19*%
X19540000Y-54540000D02*
X15000000Y-50000000D01*
X15000000Y-50000000D02*
X15000000Y-15136396D01*
X15000000Y-15136396D02*
X16068198Y-14068198D01*
X19540000Y-56000000D02*
X19540000Y-54540000D01*
X16068198Y-14068198D02*
X26068198Y-14068198D01*
X33020000Y-19050000D02*
X46846560Y-32876560D01*
X26068198Y-14068198D02*
X31050000Y-19050000D01*
X46846560Y-32876560D02*
X57200000Y-32876560D01*
X31050000Y-19050000D02*
X33020000Y-19050000D01*
%TO.N,/A23*%
X57200000Y-17636560D02*
X55636560Y-17636560D01*
X16000000Y-13500000D02*
X14500000Y-15000000D01*
X14500000Y-15000000D02*
X14500000Y-70985000D01*
X55636560Y-17636560D02*
X54675000Y-16675000D01*
X14500000Y-70985000D02*
X19515000Y-76000000D01*
X54675000Y-16675000D02*
X30311000Y-16675000D01*
X30311000Y-16675000D02*
X27136000Y-13500000D01*
X27136000Y-13500000D02*
X16000000Y-13500000D01*
%TO.N,/A18*%
X20848440Y-44651560D02*
X35348440Y-44651560D01*
X44583440Y-35416560D02*
X35348440Y-44651560D01*
X19500000Y-46000000D02*
X20848440Y-44651560D01*
X57200000Y-35416560D02*
X44583440Y-35416560D01*
%TO.N,/A17*%
X18325000Y-46486701D02*
X19013299Y-47175000D01*
X19500000Y-41490991D02*
X18325000Y-42665991D01*
X34325000Y-47175000D02*
X41003440Y-40496560D01*
X18325000Y-42665991D02*
X18325000Y-46486701D01*
X19013299Y-47175000D02*
X34325000Y-47175000D01*
X41003440Y-40496560D02*
X57200000Y-40496560D01*
X19500000Y-36000000D02*
X19500000Y-41490991D01*
%TO.N,/A16*%
X21464000Y-29464000D02*
X34327604Y-29464000D01*
X19460000Y-26000000D02*
X19460000Y-27460000D01*
X58355164Y-34491560D02*
X59500000Y-35636396D01*
X59500000Y-35636396D02*
X59500000Y-42500000D01*
X58963440Y-43036560D02*
X57200000Y-43036560D01*
X40508440Y-34491560D02*
X58355164Y-34491560D01*
X34327604Y-29464000D02*
X39363604Y-34500000D01*
X59500000Y-42500000D02*
X58963440Y-43036560D01*
X19460000Y-27460000D02*
X21464000Y-29464000D01*
X39363604Y-34500000D02*
X40500000Y-34500000D01*
X40500000Y-34500000D02*
X40508440Y-34491560D01*
%TO.N,/A15*%
X39536000Y-34036000D02*
X58536000Y-34036000D01*
X60000000Y-52000000D02*
X58803440Y-53196560D01*
X27264000Y-29014000D02*
X34514000Y-29014000D01*
X19515000Y-21265000D02*
X27264000Y-29014000D01*
X34514000Y-29014000D02*
X39536000Y-34036000D01*
X58536000Y-34036000D02*
X60000000Y-35500000D01*
X60000000Y-35500000D02*
X60000000Y-52000000D01*
X19515000Y-15500000D02*
X19515000Y-21265000D01*
X58803440Y-53196560D02*
X57200000Y-53196560D01*
%TO.N,/A21*%
X36068000Y-63246000D02*
X22269000Y-63246000D01*
X22269000Y-63246000D02*
X19515000Y-66000000D01*
D21*
%TO.N,+5V*%
X17018000Y-57404000D02*
X17000000Y-57386000D01*
X26425000Y-58937000D02*
X18043000Y-58937000D01*
X17018000Y-57912000D02*
X17018000Y-57404000D01*
X18043000Y-58937000D02*
X17018000Y-57912000D01*
X17000000Y-57386000D02*
X17000000Y-56000000D01*
%TO.N,unconnected-(P1-SHIELD-PadS1)*%
X31748000Y-81339000D02*
X40388000Y-81339000D01*
X40388000Y-81339000D02*
X40388000Y-77159000D01*
X31748000Y-77159000D02*
X31748000Y-81339000D01*
%TD*%
%TA.AperFunction,Conductor*%
%TO.N,GND*%
G36*
X30487154Y-45296745D02*
G01*
X30532909Y-45349549D01*
X30542853Y-45418707D01*
X30538047Y-45439370D01*
X30530598Y-45462299D01*
X30503500Y-45633389D01*
X30503500Y-45806611D01*
X30530598Y-45977701D01*
X30537843Y-46000000D01*
X30584128Y-46142447D01*
X30662770Y-46296791D01*
X30703328Y-46352615D01*
X30726808Y-46418421D01*
X30710983Y-46486475D01*
X30660877Y-46535170D01*
X30603010Y-46549500D01*
X23451985Y-46549500D01*
X23384946Y-46529815D01*
X23339191Y-46477011D01*
X23329247Y-46407853D01*
X23332210Y-46393406D01*
X23370636Y-46250000D01*
X22473012Y-46250000D01*
X22505925Y-46192993D01*
X22540000Y-46065826D01*
X22540000Y-45934174D01*
X22505925Y-45807007D01*
X22473012Y-45750000D01*
X23370636Y-45750000D01*
X23370635Y-45749999D01*
X23313432Y-45536513D01*
X23313428Y-45536502D01*
X23274707Y-45453464D01*
X23264215Y-45384387D01*
X23292735Y-45320603D01*
X23351212Y-45282364D01*
X23387089Y-45277060D01*
X30420115Y-45277060D01*
X30487154Y-45296745D01*
G37*
%TD.AperFunction*%
%TA.AperFunction,Conductor*%
G36*
X18438418Y-26895417D02*
G01*
X18466673Y-26916569D01*
X18588599Y-27038495D01*
X18781624Y-27173653D01*
X18825248Y-27228228D01*
X18834500Y-27275226D01*
X18834500Y-27521611D01*
X18858535Y-27642444D01*
X18858540Y-27642461D01*
X18905685Y-27756280D01*
X18905690Y-27756289D01*
X18939914Y-27807507D01*
X18939915Y-27807509D01*
X18974141Y-27858733D01*
X19065586Y-27950178D01*
X19065608Y-27950198D01*
X20975016Y-29859606D01*
X20975045Y-29859637D01*
X21065264Y-29949856D01*
X21065267Y-29949858D01*
X21116490Y-29984084D01*
X21167714Y-30018312D01*
X21248207Y-30051652D01*
X21281548Y-30065463D01*
X21341971Y-30077481D01*
X21402393Y-30089500D01*
X21402394Y-30089500D01*
X30406446Y-30089500D01*
X30473485Y-30109185D01*
X30519240Y-30161989D01*
X30529184Y-30231147D01*
X30528919Y-30232898D01*
X30503500Y-30393389D01*
X30503500Y-30566611D01*
X30530598Y-30737701D01*
X30584127Y-30902445D01*
X30662768Y-31056788D01*
X30764586Y-31196928D01*
X30887072Y-31319414D01*
X31027212Y-31421232D01*
X31181555Y-31499873D01*
X31346299Y-31553402D01*
X31517389Y-31580500D01*
X31517390Y-31580500D01*
X32490610Y-31580500D01*
X32490611Y-31580500D01*
X32661701Y-31553402D01*
X32826445Y-31499873D01*
X32980788Y-31421232D01*
X33120928Y-31319414D01*
X33243414Y-31196928D01*
X33345232Y-31056788D01*
X33423873Y-30902445D01*
X33477402Y-30737701D01*
X33504500Y-30566611D01*
X33504500Y-30393389D01*
X33479081Y-30232898D01*
X33488036Y-30163604D01*
X33533032Y-30110152D01*
X33599784Y-30089513D01*
X33601554Y-30089500D01*
X34017152Y-30089500D01*
X34084191Y-30109185D01*
X34104833Y-30125819D01*
X38964867Y-34985855D01*
X38964871Y-34985858D01*
X39067314Y-35054309D01*
X39067315Y-35054309D01*
X39067319Y-35054312D01*
X39134000Y-35081931D01*
X39134002Y-35081933D01*
X39180669Y-35101263D01*
X39181152Y-35101463D01*
X39201201Y-35105451D01*
X39233773Y-35111930D01*
X39301996Y-35125501D01*
X39301998Y-35125501D01*
X39431325Y-35125501D01*
X39431345Y-35125500D01*
X40561607Y-35125500D01*
X40592059Y-35119442D01*
X40616249Y-35117060D01*
X43698988Y-35117060D01*
X43766027Y-35136745D01*
X43811782Y-35189549D01*
X43821726Y-35258707D01*
X43792701Y-35322263D01*
X43786669Y-35328741D01*
X35125669Y-43989741D01*
X35064346Y-44023226D01*
X35037988Y-44026060D01*
X33392958Y-44026060D01*
X33325919Y-44006375D01*
X33280164Y-43953571D01*
X33270220Y-43884413D01*
X33292640Y-43829174D01*
X33345232Y-43756788D01*
X33423873Y-43602445D01*
X33477402Y-43437701D01*
X33504500Y-43266611D01*
X33504500Y-43093389D01*
X33477402Y-42922299D01*
X33423873Y-42757555D01*
X33345232Y-42603212D01*
X33243414Y-42463072D01*
X33120928Y-42340586D01*
X32980788Y-42238768D01*
X32826445Y-42160127D01*
X32661701Y-42106598D01*
X32661699Y-42106597D01*
X32661698Y-42106597D01*
X32530271Y-42085781D01*
X32490611Y-42079500D01*
X31517389Y-42079500D01*
X31477728Y-42085781D01*
X31346302Y-42106597D01*
X31181552Y-42160128D01*
X31027211Y-42238768D01*
X30947256Y-42296859D01*
X30887072Y-42340586D01*
X30887070Y-42340588D01*
X30887069Y-42340588D01*
X30764588Y-42463069D01*
X30764588Y-42463070D01*
X30764586Y-42463072D01*
X30749716Y-42483539D01*
X30662768Y-42603211D01*
X30584128Y-42757552D01*
X30530597Y-42922302D01*
X30503500Y-43093389D01*
X30503500Y-43266611D01*
X30530598Y-43437701D01*
X30569245Y-43556644D01*
X30584128Y-43602447D01*
X30662768Y-43756788D01*
X30715360Y-43829174D01*
X30738840Y-43894980D01*
X30723015Y-43963034D01*
X30672909Y-44011729D01*
X30615042Y-44026060D01*
X20786829Y-44026060D01*
X20726411Y-44038078D01*
X20688699Y-44045579D01*
X20665990Y-44050096D01*
X20665988Y-44050097D01*
X20632647Y-44063907D01*
X20552158Y-44097245D01*
X20552154Y-44097247D01*
X20516261Y-44121232D01*
X20516259Y-44121233D01*
X20449708Y-44165700D01*
X20415538Y-44199871D01*
X20362582Y-44252827D01*
X20362579Y-44252830D01*
X19955646Y-44659762D01*
X19894323Y-44693247D01*
X19835872Y-44691856D01*
X19735413Y-44664938D01*
X19735403Y-44664936D01*
X19500001Y-44644341D01*
X19499999Y-44644341D01*
X19264596Y-44664936D01*
X19264583Y-44664939D01*
X19106592Y-44707271D01*
X19036742Y-44705608D01*
X18978880Y-44666445D01*
X18951377Y-44602216D01*
X18950500Y-44587496D01*
X18950500Y-42976442D01*
X18970185Y-42909403D01*
X18986815Y-42888765D01*
X19898729Y-41976851D01*
X19898733Y-41976849D01*
X19985858Y-41889724D01*
X20054311Y-41787277D01*
X20054312Y-41787276D01*
X20054313Y-41787273D01*
X20054315Y-41787270D01*
X20073687Y-41740500D01*
X20101463Y-41673442D01*
X20125500Y-41552598D01*
X20125500Y-41429384D01*
X20125500Y-40553389D01*
X30503500Y-40553389D01*
X30503500Y-40726611D01*
X30530598Y-40897701D01*
X30584127Y-41062445D01*
X30662768Y-41216788D01*
X30764586Y-41356928D01*
X30887072Y-41479414D01*
X31027212Y-41581232D01*
X31181555Y-41659873D01*
X31346299Y-41713402D01*
X31517389Y-41740500D01*
X31517390Y-41740500D01*
X32490610Y-41740500D01*
X32490611Y-41740500D01*
X32661701Y-41713402D01*
X32826445Y-41659873D01*
X32980788Y-41581232D01*
X33120928Y-41479414D01*
X33243414Y-41356928D01*
X33345232Y-41216788D01*
X33423873Y-41062445D01*
X33477402Y-40897701D01*
X33504500Y-40726611D01*
X33504500Y-40553389D01*
X33477402Y-40382299D01*
X33423873Y-40217555D01*
X33345232Y-40063212D01*
X33243414Y-39923072D01*
X33120928Y-39800586D01*
X32980788Y-39698768D01*
X32826445Y-39620127D01*
X32661701Y-39566598D01*
X32661699Y-39566597D01*
X32661698Y-39566597D01*
X32530271Y-39545781D01*
X32490611Y-39539500D01*
X31517389Y-39539500D01*
X31477728Y-39545781D01*
X31346302Y-39566597D01*
X31181552Y-39620128D01*
X31027211Y-39698768D01*
X30947256Y-39756859D01*
X30887072Y-39800586D01*
X30887070Y-39800588D01*
X30887069Y-39800588D01*
X30764588Y-39923069D01*
X30764588Y-39923070D01*
X30764586Y-39923072D01*
X30764582Y-39923078D01*
X30662768Y-40063211D01*
X30584128Y-40217552D01*
X30530597Y-40382302D01*
X30503500Y-40553389D01*
X20125500Y-40553389D01*
X20125500Y-38013389D01*
X30503500Y-38013389D01*
X30503500Y-38186611D01*
X30530598Y-38357701D01*
X30584127Y-38522445D01*
X30662768Y-38676788D01*
X30764586Y-38816928D01*
X30887072Y-38939414D01*
X31027212Y-39041232D01*
X31181555Y-39119873D01*
X31346299Y-39173402D01*
X31517389Y-39200500D01*
X31517390Y-39200500D01*
X32490610Y-39200500D01*
X32490611Y-39200500D01*
X32661701Y-39173402D01*
X32826445Y-39119873D01*
X32980788Y-39041232D01*
X33120928Y-38939414D01*
X33243414Y-38816928D01*
X33345232Y-38676788D01*
X33423873Y-38522445D01*
X33477402Y-38357701D01*
X33504500Y-38186611D01*
X33504500Y-38013389D01*
X33477402Y-37842299D01*
X33423873Y-37677555D01*
X33345232Y-37523212D01*
X33243414Y-37383072D01*
X33120928Y-37260586D01*
X32980788Y-37158768D01*
X32826445Y-37080127D01*
X32661701Y-37026598D01*
X32661699Y-37026597D01*
X32661698Y-37026597D01*
X32530271Y-37005781D01*
X32490611Y-36999500D01*
X31517389Y-36999500D01*
X31477728Y-37005781D01*
X31346302Y-37026597D01*
X31181552Y-37080128D01*
X31027211Y-37158768D01*
X30972614Y-37198436D01*
X30887072Y-37260586D01*
X30887070Y-37260588D01*
X30887069Y-37260588D01*
X30764588Y-37383069D01*
X30764588Y-37383070D01*
X30764586Y-37383072D01*
X30764582Y-37383078D01*
X30662768Y-37523211D01*
X30584128Y-37677552D01*
X30530597Y-37842302D01*
X30503500Y-38013389D01*
X20125500Y-38013389D01*
X20125500Y-37275226D01*
X20145185Y-37208187D01*
X20178374Y-37173654D01*
X20371401Y-37038495D01*
X20538495Y-36871401D01*
X20668730Y-36685405D01*
X20723307Y-36641781D01*
X20792805Y-36634587D01*
X20855160Y-36666110D01*
X20871879Y-36685405D01*
X21001890Y-36871078D01*
X21168917Y-37038105D01*
X21362421Y-37173600D01*
X21576507Y-37273429D01*
X21576516Y-37273433D01*
X21790000Y-37330634D01*
X21790000Y-36433012D01*
X21847007Y-36465925D01*
X21974174Y-36500000D01*
X22105826Y-36500000D01*
X22232993Y-36465925D01*
X22290000Y-36433012D01*
X22290000Y-37330633D01*
X22503483Y-37273433D01*
X22503492Y-37273429D01*
X22717578Y-37173600D01*
X22911082Y-37038105D01*
X23078105Y-36871082D01*
X23213600Y-36677578D01*
X23313429Y-36463492D01*
X23313432Y-36463486D01*
X23370636Y-36250000D01*
X22473012Y-36250000D01*
X22505925Y-36192993D01*
X22540000Y-36065826D01*
X22540000Y-35934174D01*
X22505925Y-35807007D01*
X22473012Y-35750000D01*
X23370636Y-35750000D01*
X23370635Y-35749999D01*
X23313432Y-35536513D01*
X23313429Y-35536507D01*
X23283997Y-35473389D01*
X30503500Y-35473389D01*
X30503500Y-35646611D01*
X30530598Y-35817701D01*
X30584127Y-35982445D01*
X30662768Y-36136788D01*
X30764586Y-36276928D01*
X30887072Y-36399414D01*
X31027212Y-36501232D01*
X31181555Y-36579873D01*
X31346299Y-36633402D01*
X31517389Y-36660500D01*
X31517390Y-36660500D01*
X32490610Y-36660500D01*
X32490611Y-36660500D01*
X32661701Y-36633402D01*
X32826445Y-36579873D01*
X32980788Y-36501232D01*
X33120928Y-36399414D01*
X33243414Y-36276928D01*
X33345232Y-36136788D01*
X33423873Y-35982445D01*
X33477402Y-35817701D01*
X33504500Y-35646611D01*
X33504500Y-35473389D01*
X33477402Y-35302299D01*
X33423873Y-35137555D01*
X33345232Y-34983212D01*
X33243414Y-34843072D01*
X33120928Y-34720586D01*
X32980788Y-34618768D01*
X32826445Y-34540127D01*
X32661701Y-34486598D01*
X32661699Y-34486597D01*
X32661698Y-34486597D01*
X32530271Y-34465781D01*
X32490611Y-34459500D01*
X31517389Y-34459500D01*
X31477728Y-34465781D01*
X31346302Y-34486597D01*
X31181552Y-34540128D01*
X31027211Y-34618768D01*
X30957573Y-34669364D01*
X30887072Y-34720586D01*
X30887070Y-34720588D01*
X30887069Y-34720588D01*
X30764588Y-34843069D01*
X30764588Y-34843070D01*
X30764586Y-34843072D01*
X30720859Y-34903256D01*
X30662768Y-34983211D01*
X30584128Y-35137552D01*
X30530597Y-35302302D01*
X30521741Y-35358219D01*
X30503500Y-35473389D01*
X23283997Y-35473389D01*
X23213600Y-35322422D01*
X23213599Y-35322420D01*
X23078113Y-35128926D01*
X23078108Y-35128920D01*
X22911082Y-34961894D01*
X22717578Y-34826399D01*
X22503492Y-34726570D01*
X22503486Y-34726567D01*
X22290000Y-34669364D01*
X22290000Y-35566988D01*
X22232993Y-35534075D01*
X22105826Y-35500000D01*
X21974174Y-35500000D01*
X21847007Y-35534075D01*
X21790000Y-35566988D01*
X21790000Y-34669364D01*
X21789999Y-34669364D01*
X21576513Y-34726567D01*
X21576507Y-34726570D01*
X21362422Y-34826399D01*
X21362420Y-34826400D01*
X21168926Y-34961886D01*
X21168920Y-34961891D01*
X21001891Y-35128920D01*
X21001890Y-35128922D01*
X20871880Y-35314595D01*
X20817303Y-35358219D01*
X20747804Y-35365412D01*
X20685450Y-35333890D01*
X20668730Y-35314594D01*
X20538494Y-35128597D01*
X20371402Y-34961506D01*
X20371395Y-34961501D01*
X20177834Y-34825967D01*
X20177830Y-34825965D01*
X20177828Y-34825964D01*
X19963663Y-34726097D01*
X19963659Y-34726096D01*
X19963655Y-34726094D01*
X19735413Y-34664938D01*
X19735403Y-34664936D01*
X19500001Y-34644341D01*
X19499999Y-34644341D01*
X19264596Y-34664936D01*
X19264586Y-34664938D01*
X19036344Y-34726094D01*
X19036335Y-34726098D01*
X18822171Y-34825964D01*
X18822169Y-34825965D01*
X18628600Y-34961503D01*
X18506673Y-35083430D01*
X18445350Y-35116914D01*
X18375658Y-35111930D01*
X18319725Y-35070058D01*
X18302810Y-35039081D01*
X18253797Y-34907671D01*
X18253793Y-34907664D01*
X18167547Y-34792455D01*
X18167544Y-34792452D01*
X18052335Y-34706206D01*
X18052328Y-34706202D01*
X17917482Y-34655908D01*
X17917483Y-34655908D01*
X17857883Y-34649501D01*
X17857881Y-34649500D01*
X17857873Y-34649500D01*
X17857864Y-34649500D01*
X16062129Y-34649500D01*
X16062123Y-34649501D01*
X16002516Y-34655908D01*
X15867671Y-34706202D01*
X15867668Y-34706204D01*
X15823811Y-34739036D01*
X15758347Y-34763453D01*
X15690074Y-34748601D01*
X15640668Y-34699196D01*
X15625500Y-34639769D01*
X15625500Y-32933389D01*
X30503500Y-32933389D01*
X30503500Y-33106611D01*
X30530598Y-33277701D01*
X30584127Y-33442445D01*
X30662768Y-33596788D01*
X30764586Y-33736928D01*
X30887072Y-33859414D01*
X31027212Y-33961232D01*
X31181555Y-34039873D01*
X31346299Y-34093402D01*
X31517389Y-34120500D01*
X31517390Y-34120500D01*
X32490610Y-34120500D01*
X32490611Y-34120500D01*
X32661701Y-34093402D01*
X32826445Y-34039873D01*
X32980788Y-33961232D01*
X33120928Y-33859414D01*
X33243414Y-33736928D01*
X33345232Y-33596788D01*
X33423873Y-33442445D01*
X33477402Y-33277701D01*
X33504500Y-33106611D01*
X33504500Y-32933389D01*
X33477402Y-32762299D01*
X33423873Y-32597555D01*
X33345232Y-32443212D01*
X33243414Y-32303072D01*
X33120928Y-32180586D01*
X32980788Y-32078768D01*
X32826445Y-32000127D01*
X32661701Y-31946598D01*
X32661699Y-31946597D01*
X32661698Y-31946597D01*
X32530271Y-31925781D01*
X32490611Y-31919500D01*
X31517389Y-31919500D01*
X31477728Y-31925781D01*
X31346302Y-31946597D01*
X31181552Y-32000128D01*
X31027211Y-32078768D01*
X30947256Y-32136859D01*
X30887072Y-32180586D01*
X30887070Y-32180588D01*
X30887069Y-32180588D01*
X30764588Y-32303069D01*
X30764588Y-32303070D01*
X30764586Y-32303072D01*
X30720859Y-32363256D01*
X30662768Y-32443211D01*
X30584128Y-32597552D01*
X30530597Y-32762302D01*
X30503500Y-32933389D01*
X15625500Y-32933389D01*
X15625500Y-27390174D01*
X15645185Y-27323135D01*
X15697989Y-27277380D01*
X15767147Y-27267436D01*
X15823814Y-27290910D01*
X15827669Y-27293796D01*
X15827670Y-27293796D01*
X15827671Y-27293797D01*
X15962517Y-27344091D01*
X15962516Y-27344091D01*
X15969444Y-27344835D01*
X16022127Y-27350500D01*
X17817872Y-27350499D01*
X17877483Y-27344091D01*
X18012331Y-27293796D01*
X18127546Y-27207546D01*
X18213796Y-27092331D01*
X18262810Y-26960916D01*
X18304681Y-26904984D01*
X18370145Y-26880566D01*
X18438418Y-26895417D01*
G37*
%TD.AperFunction*%
%TA.AperFunction,Conductor*%
G36*
X25824785Y-14713383D02*
G01*
X25845427Y-14730017D01*
X28749580Y-17634170D01*
X28783065Y-17695493D01*
X28778081Y-17765185D01*
X28736209Y-17821118D01*
X28670745Y-17845535D01*
X28602472Y-17830683D01*
X28598151Y-17828210D01*
X28557861Y-17804061D01*
X28202575Y-17636023D01*
X28202559Y-17636016D01*
X27832549Y-17503625D01*
X27451308Y-17408129D01*
X27062550Y-17350461D01*
X26670000Y-17331176D01*
X26277449Y-17350461D01*
X25888691Y-17408129D01*
X25507450Y-17503625D01*
X25137440Y-17636016D01*
X25137424Y-17636023D01*
X24782135Y-17804062D01*
X24445041Y-18006109D01*
X24129368Y-18240228D01*
X24023622Y-18336069D01*
X25621934Y-19934381D01*
X25513669Y-20017457D01*
X25351457Y-20179669D01*
X25268381Y-20287934D01*
X23670069Y-18689622D01*
X23574228Y-18795368D01*
X23340109Y-19111041D01*
X23138062Y-19448135D01*
X22970023Y-19803424D01*
X22970016Y-19803440D01*
X22837625Y-20173450D01*
X22742129Y-20554691D01*
X22684461Y-20943449D01*
X22665176Y-21336000D01*
X22684461Y-21728550D01*
X22742129Y-22117308D01*
X22837625Y-22498549D01*
X22970016Y-22868559D01*
X22970023Y-22868575D01*
X23138062Y-23223864D01*
X23340109Y-23560958D01*
X23574228Y-23876632D01*
X23670068Y-23982376D01*
X23670069Y-23982376D01*
X25268381Y-22384064D01*
X25351457Y-22492331D01*
X25513669Y-22654543D01*
X25621934Y-22737617D01*
X24023622Y-24335929D01*
X24023622Y-24335930D01*
X24129367Y-24431771D01*
X24445041Y-24665890D01*
X24782135Y-24867937D01*
X25137424Y-25035976D01*
X25137440Y-25035983D01*
X25507450Y-25168374D01*
X25888691Y-25263870D01*
X26277449Y-25321538D01*
X26670000Y-25340823D01*
X27062550Y-25321538D01*
X27117485Y-25313389D01*
X30503500Y-25313389D01*
X30503500Y-25486611D01*
X30530598Y-25657701D01*
X30584127Y-25822445D01*
X30662768Y-25976788D01*
X30764586Y-26116928D01*
X30887072Y-26239414D01*
X31027212Y-26341232D01*
X31181555Y-26419873D01*
X31346299Y-26473402D01*
X31517389Y-26500500D01*
X31517390Y-26500500D01*
X32490610Y-26500500D01*
X32490611Y-26500500D01*
X32661701Y-26473402D01*
X32826445Y-26419873D01*
X32980788Y-26341232D01*
X33120928Y-26239414D01*
X33243414Y-26116928D01*
X33345232Y-25976788D01*
X33423873Y-25822445D01*
X33477402Y-25657701D01*
X33504500Y-25486611D01*
X33504500Y-25313389D01*
X33477402Y-25142299D01*
X33423873Y-24977555D01*
X33345232Y-24823212D01*
X33243414Y-24683072D01*
X33120928Y-24560586D01*
X32980788Y-24458768D01*
X32826445Y-24380127D01*
X32661701Y-24326598D01*
X32661699Y-24326597D01*
X32661698Y-24326597D01*
X32530271Y-24305781D01*
X32490611Y-24299500D01*
X31517389Y-24299500D01*
X31477728Y-24305781D01*
X31346302Y-24326597D01*
X31181552Y-24380128D01*
X31027211Y-24458768D01*
X30947256Y-24516859D01*
X30887072Y-24560586D01*
X30887070Y-24560588D01*
X30887069Y-24560588D01*
X30764588Y-24683069D01*
X30764588Y-24683070D01*
X30764586Y-24683072D01*
X30733326Y-24726098D01*
X30662768Y-24823211D01*
X30584128Y-24977552D01*
X30530597Y-25142302D01*
X30526468Y-25168374D01*
X30503500Y-25313389D01*
X27117485Y-25313389D01*
X27451308Y-25263870D01*
X27832549Y-25168374D01*
X28202559Y-25035983D01*
X28202575Y-25035976D01*
X28557864Y-24867937D01*
X28894958Y-24665890D01*
X29210632Y-24431770D01*
X29316376Y-24335929D01*
X27718065Y-22737618D01*
X27826331Y-22654543D01*
X27988543Y-22492331D01*
X28071618Y-22384065D01*
X29669929Y-23982376D01*
X29765770Y-23876632D01*
X29999890Y-23560958D01*
X30201936Y-23223864D01*
X30289010Y-23039763D01*
X30335468Y-22987577D01*
X30402765Y-22968791D01*
X30469535Y-22989371D01*
X30514579Y-23042783D01*
X30523578Y-23073381D01*
X30530597Y-23117698D01*
X30530598Y-23117701D01*
X30584127Y-23282445D01*
X30662768Y-23436788D01*
X30764586Y-23576928D01*
X30887072Y-23699414D01*
X31027212Y-23801232D01*
X31181555Y-23879873D01*
X31346299Y-23933402D01*
X31517389Y-23960500D01*
X31517390Y-23960500D01*
X32490610Y-23960500D01*
X32490611Y-23960500D01*
X32661701Y-23933402D01*
X32826445Y-23879873D01*
X32980788Y-23801232D01*
X33120928Y-23699414D01*
X33243414Y-23576928D01*
X33345232Y-23436788D01*
X33423873Y-23282445D01*
X33477402Y-23117701D01*
X33504500Y-22946611D01*
X33504500Y-22773389D01*
X33477402Y-22602299D01*
X33423873Y-22437555D01*
X33345232Y-22283212D01*
X33243414Y-22143072D01*
X33120928Y-22020586D01*
X32980788Y-21918768D01*
X32826445Y-21840127D01*
X32661701Y-21786598D01*
X32661699Y-21786597D01*
X32661698Y-21786597D01*
X32530271Y-21765781D01*
X32490611Y-21759500D01*
X31517389Y-21759500D01*
X31477728Y-21765781D01*
X31346302Y-21786597D01*
X31181552Y-21840128D01*
X31027211Y-21918768D01*
X30887073Y-22020585D01*
X30829761Y-22077897D01*
X30768437Y-22111381D01*
X30698745Y-22106396D01*
X30642812Y-22064525D01*
X30618396Y-21999060D01*
X30619422Y-21972020D01*
X30655538Y-21728550D01*
X30674823Y-21336000D01*
X30670507Y-21248147D01*
X30686878Y-21180223D01*
X30737373Y-21131931D01*
X30805960Y-21118606D01*
X30870864Y-21144477D01*
X30882039Y-21154381D01*
X30887072Y-21159414D01*
X31027212Y-21261232D01*
X31181555Y-21339873D01*
X31346299Y-21393402D01*
X31517389Y-21420500D01*
X31517390Y-21420500D01*
X32490610Y-21420500D01*
X32490611Y-21420500D01*
X32661701Y-21393402D01*
X32826445Y-21339873D01*
X32980788Y-21261232D01*
X33120928Y-21159414D01*
X33243414Y-21036928D01*
X33345232Y-20896788D01*
X33423873Y-20742445D01*
X33460415Y-20629978D01*
X33499853Y-20572304D01*
X33564211Y-20545106D01*
X33633058Y-20557021D01*
X33666027Y-20580617D01*
X46284227Y-33198819D01*
X46317712Y-33260142D01*
X46312728Y-33329834D01*
X46270856Y-33385767D01*
X46205392Y-33410184D01*
X46196546Y-33410500D01*
X39846453Y-33410500D01*
X39779414Y-33390815D01*
X39758772Y-33374181D01*
X35006928Y-28622338D01*
X35006925Y-28622334D01*
X35006925Y-28622335D01*
X34999858Y-28615268D01*
X34999858Y-28615267D01*
X34912733Y-28528142D01*
X34912732Y-28528141D01*
X34912731Y-28528140D01*
X34861509Y-28493915D01*
X34810287Y-28459689D01*
X34810286Y-28459688D01*
X34810283Y-28459686D01*
X34810280Y-28459685D01*
X34729792Y-28426347D01*
X34696453Y-28412537D01*
X34686427Y-28410543D01*
X34636029Y-28400518D01*
X34575610Y-28388500D01*
X34575607Y-28388500D01*
X34575606Y-28388500D01*
X33586079Y-28388500D01*
X33519040Y-28368815D01*
X33473285Y-28316011D01*
X33463341Y-28246853D01*
X33468148Y-28226183D01*
X33471784Y-28214990D01*
X33477402Y-28197701D01*
X33504500Y-28026611D01*
X33504500Y-27853389D01*
X33477402Y-27682299D01*
X33423873Y-27517555D01*
X33345232Y-27363212D01*
X33243414Y-27223072D01*
X33120928Y-27100586D01*
X32980788Y-26998768D01*
X32826445Y-26920127D01*
X32661701Y-26866598D01*
X32661699Y-26866597D01*
X32661698Y-26866597D01*
X32530271Y-26845781D01*
X32490611Y-26839500D01*
X31517389Y-26839500D01*
X31477728Y-26845781D01*
X31346302Y-26866597D01*
X31181552Y-26920128D01*
X31027211Y-26998768D01*
X30947256Y-27056859D01*
X30887072Y-27100586D01*
X30887070Y-27100588D01*
X30887069Y-27100588D01*
X30764588Y-27223069D01*
X30764588Y-27223070D01*
X30764586Y-27223072D01*
X30726694Y-27275226D01*
X30662768Y-27363211D01*
X30584128Y-27517552D01*
X30530597Y-27682302D01*
X30503500Y-27853389D01*
X30503500Y-28026610D01*
X30530597Y-28197698D01*
X30530598Y-28197702D01*
X30539852Y-28226183D01*
X30541847Y-28296024D01*
X30505766Y-28355857D01*
X30443064Y-28386684D01*
X30421921Y-28388500D01*
X27574452Y-28388500D01*
X27507413Y-28368815D01*
X27486771Y-28352181D01*
X20176819Y-21042229D01*
X20143334Y-20980906D01*
X20140500Y-20954548D01*
X20140500Y-16775226D01*
X20160185Y-16708187D01*
X20193374Y-16673654D01*
X20386401Y-16538495D01*
X20553495Y-16371401D01*
X20683730Y-16185405D01*
X20738307Y-16141781D01*
X20807805Y-16134587D01*
X20870160Y-16166110D01*
X20886879Y-16185405D01*
X21016890Y-16371078D01*
X21183917Y-16538105D01*
X21377421Y-16673600D01*
X21591507Y-16773429D01*
X21591516Y-16773433D01*
X21805000Y-16830634D01*
X21805000Y-15933012D01*
X21862007Y-15965925D01*
X21989174Y-16000000D01*
X22120826Y-16000000D01*
X22247993Y-15965925D01*
X22305000Y-15933012D01*
X22305000Y-16830633D01*
X22518483Y-16773433D01*
X22518492Y-16773429D01*
X22732578Y-16673600D01*
X22926082Y-16538105D01*
X23093105Y-16371082D01*
X23228600Y-16177578D01*
X23328429Y-15963492D01*
X23328432Y-15963486D01*
X23385636Y-15750000D01*
X22488012Y-15750000D01*
X22520925Y-15692993D01*
X22555000Y-15565826D01*
X22555000Y-15434174D01*
X22520925Y-15307007D01*
X22488012Y-15250000D01*
X23385636Y-15250000D01*
X23385635Y-15249999D01*
X23328432Y-15036513D01*
X23328429Y-15036507D01*
X23250834Y-14870103D01*
X23240342Y-14801025D01*
X23268862Y-14737241D01*
X23327338Y-14699002D01*
X23363216Y-14693698D01*
X25757746Y-14693698D01*
X25824785Y-14713383D01*
G37*
%TD.AperFunction*%
%TA.AperFunction,Conductor*%
G36*
X23503814Y-26150965D02*
G01*
X23542683Y-26177273D01*
X25992229Y-28626819D01*
X26025714Y-28688142D01*
X26020730Y-28757834D01*
X25978858Y-28813767D01*
X25913394Y-28838184D01*
X25904548Y-28838500D01*
X21774452Y-28838500D01*
X21707413Y-28818815D01*
X21686771Y-28802181D01*
X20195738Y-27311148D01*
X20162253Y-27249825D01*
X20167237Y-27180133D01*
X20209109Y-27124200D01*
X20212241Y-27121931D01*
X20331401Y-27038495D01*
X20498495Y-26871401D01*
X20628730Y-26685405D01*
X20683307Y-26641781D01*
X20752805Y-26634587D01*
X20815160Y-26666110D01*
X20831879Y-26685405D01*
X20961890Y-26871078D01*
X21128917Y-27038105D01*
X21322421Y-27173600D01*
X21536507Y-27273429D01*
X21536516Y-27273433D01*
X21750000Y-27330634D01*
X21750000Y-26433012D01*
X21807007Y-26465925D01*
X21934174Y-26500000D01*
X22065826Y-26500000D01*
X22192993Y-26465925D01*
X22250000Y-26433012D01*
X22250000Y-27330633D01*
X22463483Y-27273433D01*
X22463492Y-27273429D01*
X22677578Y-27173600D01*
X22871082Y-27038105D01*
X23038105Y-26871082D01*
X23173600Y-26677578D01*
X23273429Y-26463492D01*
X23273433Y-26463483D01*
X23335227Y-26232861D01*
X23371592Y-26173201D01*
X23434438Y-26142671D01*
X23503814Y-26150965D01*
G37*
%TD.AperFunction*%
%TA.AperFunction,Conductor*%
G36*
X63189039Y-11957685D02*
G01*
X63234794Y-12010489D01*
X63246000Y-12062000D01*
X63246000Y-83950000D01*
X63226315Y-84017039D01*
X63173511Y-84062794D01*
X63122000Y-84074000D01*
X12062000Y-84074000D01*
X11994961Y-84054315D01*
X11949206Y-84001511D01*
X11938000Y-83950000D01*
X11938000Y-81837543D01*
X30747499Y-81837543D01*
X30785947Y-82030829D01*
X30785950Y-82030839D01*
X30861364Y-82212907D01*
X30861371Y-82212920D01*
X30970860Y-82376781D01*
X30970863Y-82376785D01*
X31110214Y-82516136D01*
X31110218Y-82516139D01*
X31274079Y-82625628D01*
X31274092Y-82625635D01*
X31456160Y-82701049D01*
X31456165Y-82701051D01*
X31456169Y-82701051D01*
X31456170Y-82701052D01*
X31649456Y-82739500D01*
X31649459Y-82739500D01*
X31846543Y-82739500D01*
X31976582Y-82713632D01*
X32039835Y-82701051D01*
X32221914Y-82625632D01*
X32385782Y-82516139D01*
X32385785Y-82516136D01*
X32526103Y-82375819D01*
X32587426Y-82342334D01*
X32613784Y-82339500D01*
X39522216Y-82339500D01*
X39589255Y-82359185D01*
X39609897Y-82375819D01*
X39750214Y-82516136D01*
X39750218Y-82516139D01*
X39914079Y-82625628D01*
X39914092Y-82625635D01*
X40096160Y-82701049D01*
X40096165Y-82701051D01*
X40096169Y-82701051D01*
X40096170Y-82701052D01*
X40289456Y-82739500D01*
X40289459Y-82739500D01*
X40486543Y-82739500D01*
X40616582Y-82713632D01*
X40679835Y-82701051D01*
X40861914Y-82625632D01*
X41025782Y-82516139D01*
X41165139Y-82376782D01*
X41274632Y-82212914D01*
X41350051Y-82030835D01*
X41388500Y-81837541D01*
X41388500Y-80840459D01*
X41388500Y-77060459D01*
X41388500Y-76510459D01*
X41388500Y-76510456D01*
X41386420Y-76499999D01*
X48644341Y-76499999D01*
X48644341Y-76500000D01*
X48664936Y-76735403D01*
X48664938Y-76735413D01*
X48726094Y-76963655D01*
X48726096Y-76963659D01*
X48726097Y-76963663D01*
X48771234Y-77060459D01*
X48825965Y-77177830D01*
X48825967Y-77177834D01*
X48893738Y-77274620D01*
X48961501Y-77371396D01*
X48961506Y-77371402D01*
X49083430Y-77493326D01*
X49116915Y-77554649D01*
X49111931Y-77624341D01*
X49070059Y-77680274D01*
X49039083Y-77697189D01*
X48907669Y-77746203D01*
X48907664Y-77746206D01*
X48792455Y-77832452D01*
X48792452Y-77832455D01*
X48706206Y-77947664D01*
X48706202Y-77947671D01*
X48655908Y-78082517D01*
X48649501Y-78142116D01*
X48649501Y-78142123D01*
X48649500Y-78142135D01*
X48649500Y-79937870D01*
X48649501Y-79937876D01*
X48655908Y-79997483D01*
X48706202Y-80132328D01*
X48706206Y-80132335D01*
X48792452Y-80247544D01*
X48792455Y-80247547D01*
X48907664Y-80333793D01*
X48907671Y-80333797D01*
X49042517Y-80384091D01*
X49042516Y-80384091D01*
X49049444Y-80384835D01*
X49102127Y-80390500D01*
X50897872Y-80390499D01*
X50957483Y-80384091D01*
X51092331Y-80333796D01*
X51207546Y-80247546D01*
X51293796Y-80132331D01*
X51344091Y-79997483D01*
X51350500Y-79937873D01*
X51350499Y-78142128D01*
X51344091Y-78082517D01*
X51338496Y-78067517D01*
X51293797Y-77947671D01*
X51293793Y-77947664D01*
X51207547Y-77832455D01*
X51207544Y-77832452D01*
X51092335Y-77746206D01*
X51092328Y-77746202D01*
X50960917Y-77697189D01*
X50904983Y-77655318D01*
X50880566Y-77589853D01*
X50895418Y-77521580D01*
X50916563Y-77493332D01*
X51038495Y-77371401D01*
X51174035Y-77177830D01*
X51273903Y-76963663D01*
X51335063Y-76735408D01*
X51355659Y-76500000D01*
X51354347Y-76484999D01*
X58644341Y-76484999D01*
X58644341Y-76485000D01*
X58664936Y-76720403D01*
X58664938Y-76720413D01*
X58726094Y-76948655D01*
X58726096Y-76948659D01*
X58726097Y-76948663D01*
X58784427Y-77073751D01*
X58825965Y-77162830D01*
X58825967Y-77162834D01*
X58904241Y-77274620D01*
X58961501Y-77356396D01*
X58961506Y-77356402D01*
X59083430Y-77478326D01*
X59116915Y-77539649D01*
X59111931Y-77609341D01*
X59070059Y-77665274D01*
X59039083Y-77682189D01*
X58907669Y-77731203D01*
X58907664Y-77731206D01*
X58792455Y-77817452D01*
X58792452Y-77817455D01*
X58706206Y-77932664D01*
X58706202Y-77932671D01*
X58655908Y-78067517D01*
X58650318Y-78119515D01*
X58649501Y-78127123D01*
X58649500Y-78127135D01*
X58649500Y-79922870D01*
X58649501Y-79922876D01*
X58655908Y-79982483D01*
X58706202Y-80117328D01*
X58706206Y-80117335D01*
X58792452Y-80232544D01*
X58792455Y-80232547D01*
X58907664Y-80318793D01*
X58907671Y-80318797D01*
X59042517Y-80369091D01*
X59042516Y-80369091D01*
X59049444Y-80369835D01*
X59102127Y-80375500D01*
X60897872Y-80375499D01*
X60957483Y-80369091D01*
X61092331Y-80318796D01*
X61207546Y-80232546D01*
X61293796Y-80117331D01*
X61344091Y-79982483D01*
X61350500Y-79922873D01*
X61350499Y-78127128D01*
X61344091Y-78067517D01*
X61335088Y-78043380D01*
X61293797Y-77932671D01*
X61293793Y-77932664D01*
X61207547Y-77817455D01*
X61207544Y-77817452D01*
X61092335Y-77731206D01*
X61092328Y-77731202D01*
X60960917Y-77682189D01*
X60904983Y-77640318D01*
X60880566Y-77574853D01*
X60895418Y-77506580D01*
X60916563Y-77478332D01*
X61038495Y-77356401D01*
X61174035Y-77162830D01*
X61273903Y-76948663D01*
X61335063Y-76720408D01*
X61355659Y-76485000D01*
X61335063Y-76249592D01*
X61273903Y-76021337D01*
X61174035Y-75807171D01*
X61173921Y-75807007D01*
X61038494Y-75613597D01*
X60871402Y-75446506D01*
X60871401Y-75446505D01*
X60685405Y-75316269D01*
X60641781Y-75261692D01*
X60634588Y-75192193D01*
X60666110Y-75129839D01*
X60685405Y-75113119D01*
X60871082Y-74983105D01*
X61038105Y-74816082D01*
X61173600Y-74622578D01*
X61273429Y-74408492D01*
X61273432Y-74408486D01*
X61330636Y-74195000D01*
X60433012Y-74195000D01*
X60465925Y-74137993D01*
X60500000Y-74010826D01*
X60500000Y-73879174D01*
X60465925Y-73752007D01*
X60433012Y-73695000D01*
X61330636Y-73695000D01*
X61330635Y-73694999D01*
X61273432Y-73481513D01*
X61273429Y-73481507D01*
X61173600Y-73267422D01*
X61173599Y-73267420D01*
X61038113Y-73073926D01*
X61038108Y-73073920D01*
X60871082Y-72906894D01*
X60677578Y-72771399D01*
X60463492Y-72671570D01*
X60463486Y-72671567D01*
X60250000Y-72614364D01*
X60250000Y-73511988D01*
X60192993Y-73479075D01*
X60065826Y-73445000D01*
X59934174Y-73445000D01*
X59807007Y-73479075D01*
X59750000Y-73511988D01*
X59750000Y-72614364D01*
X59749999Y-72614364D01*
X59536513Y-72671567D01*
X59536507Y-72671570D01*
X59322422Y-72771399D01*
X59322420Y-72771400D01*
X59128926Y-72906886D01*
X59128920Y-72906891D01*
X58961891Y-73073920D01*
X58961886Y-73073926D01*
X58826400Y-73267420D01*
X58826399Y-73267422D01*
X58726570Y-73481507D01*
X58726567Y-73481513D01*
X58669364Y-73694999D01*
X58669364Y-73695000D01*
X59566988Y-73695000D01*
X59534075Y-73752007D01*
X59500000Y-73879174D01*
X59500000Y-74010826D01*
X59534075Y-74137993D01*
X59566988Y-74195000D01*
X58669364Y-74195000D01*
X58726567Y-74408486D01*
X58726570Y-74408492D01*
X58826399Y-74622578D01*
X58961894Y-74816082D01*
X59128917Y-74983105D01*
X59314595Y-75113119D01*
X59358219Y-75167696D01*
X59365412Y-75237195D01*
X59333890Y-75299549D01*
X59314595Y-75316269D01*
X59128594Y-75446508D01*
X58961505Y-75613597D01*
X58825965Y-75807169D01*
X58825964Y-75807171D01*
X58726098Y-76021335D01*
X58726094Y-76021344D01*
X58664938Y-76249586D01*
X58664936Y-76249596D01*
X58644341Y-76484999D01*
X51354347Y-76484999D01*
X51335063Y-76264592D01*
X51288626Y-76091285D01*
X51273905Y-76036344D01*
X51273904Y-76036343D01*
X51273903Y-76036337D01*
X51174035Y-75822171D01*
X51104153Y-75722368D01*
X51038494Y-75628597D01*
X50871402Y-75461506D01*
X50871401Y-75461505D01*
X50685405Y-75331269D01*
X50641781Y-75276692D01*
X50634588Y-75207193D01*
X50666110Y-75144839D01*
X50685405Y-75128119D01*
X50871082Y-74998105D01*
X51038105Y-74831082D01*
X51173600Y-74637578D01*
X51273429Y-74423492D01*
X51273432Y-74423486D01*
X51330636Y-74210000D01*
X50433012Y-74210000D01*
X50465925Y-74152993D01*
X50500000Y-74025826D01*
X50500000Y-73894174D01*
X50465925Y-73767007D01*
X50433012Y-73710000D01*
X51330636Y-73710000D01*
X51330635Y-73709999D01*
X51273432Y-73496513D01*
X51273429Y-73496507D01*
X51173600Y-73282422D01*
X51173599Y-73282420D01*
X51038113Y-73088926D01*
X51038108Y-73088920D01*
X50871082Y-72921894D01*
X50677578Y-72786399D01*
X50463492Y-72686570D01*
X50463486Y-72686567D01*
X50250000Y-72629364D01*
X50250000Y-73526988D01*
X50192993Y-73494075D01*
X50065826Y-73460000D01*
X49934174Y-73460000D01*
X49807007Y-73494075D01*
X49750000Y-73526988D01*
X49750000Y-72629364D01*
X49749999Y-72629364D01*
X49536513Y-72686567D01*
X49536507Y-72686570D01*
X49322422Y-72786399D01*
X49322420Y-72786400D01*
X49128926Y-72921886D01*
X49128920Y-72921891D01*
X48961891Y-73088920D01*
X48961886Y-73088926D01*
X48826400Y-73282420D01*
X48826399Y-73282422D01*
X48726570Y-73496507D01*
X48726567Y-73496513D01*
X48669364Y-73709999D01*
X48669364Y-73710000D01*
X49566988Y-73710000D01*
X49534075Y-73767007D01*
X49500000Y-73894174D01*
X49500000Y-74025826D01*
X49534075Y-74152993D01*
X49566988Y-74210000D01*
X48669364Y-74210000D01*
X48726567Y-74423486D01*
X48726570Y-74423492D01*
X48826399Y-74637578D01*
X48961894Y-74831082D01*
X49128917Y-74998105D01*
X49314595Y-75128119D01*
X49358219Y-75182696D01*
X49365412Y-75252195D01*
X49333890Y-75314549D01*
X49314595Y-75331269D01*
X49128594Y-75461508D01*
X48961505Y-75628597D01*
X48825965Y-75822169D01*
X48825964Y-75822171D01*
X48726098Y-76036335D01*
X48726094Y-76036344D01*
X48664938Y-76264586D01*
X48664936Y-76264596D01*
X48644341Y-76499999D01*
X41386420Y-76499999D01*
X41350052Y-76317170D01*
X41350051Y-76317169D01*
X41350051Y-76317165D01*
X41350049Y-76317160D01*
X41274635Y-76135092D01*
X41274628Y-76135079D01*
X41165139Y-75971218D01*
X41165136Y-75971214D01*
X41025785Y-75831863D01*
X41025781Y-75831860D01*
X40861920Y-75722371D01*
X40861907Y-75722364D01*
X40679839Y-75646950D01*
X40679829Y-75646947D01*
X40486543Y-75608500D01*
X40486541Y-75608500D01*
X40289459Y-75608500D01*
X40289457Y-75608500D01*
X40096170Y-75646947D01*
X40096160Y-75646950D01*
X39914092Y-75722364D01*
X39914079Y-75722371D01*
X39750218Y-75831860D01*
X39750214Y-75831863D01*
X39610863Y-75971214D01*
X39610860Y-75971218D01*
X39501371Y-76135079D01*
X39501364Y-76135092D01*
X39425950Y-76317160D01*
X39425947Y-76317170D01*
X39387500Y-76510456D01*
X39387500Y-77027666D01*
X39367815Y-77094705D01*
X39315011Y-77140460D01*
X39245853Y-77150404D01*
X39201501Y-77135054D01*
X39180137Y-77122719D01*
X39066713Y-77092328D01*
X39033766Y-77083500D01*
X38882234Y-77083500D01*
X38735863Y-77122719D01*
X38604635Y-77198485D01*
X38604632Y-77198487D01*
X38497487Y-77305632D01*
X38497485Y-77305635D01*
X38421719Y-77436863D01*
X38394178Y-77539649D01*
X38382500Y-77583234D01*
X38382500Y-77734766D01*
X38402109Y-77807950D01*
X38421719Y-77881136D01*
X38451469Y-77932664D01*
X38497485Y-78012365D01*
X38604635Y-78119515D01*
X38687912Y-78167595D01*
X38735861Y-78195279D01*
X38735865Y-78195281D01*
X38882234Y-78234500D01*
X38882236Y-78234500D01*
X39033764Y-78234500D01*
X39033766Y-78234500D01*
X39180135Y-78195281D01*
X39190451Y-78189325D01*
X39201499Y-78182947D01*
X39269398Y-78166473D01*
X39335426Y-78189325D01*
X39378617Y-78244245D01*
X39387500Y-78290333D01*
X39387500Y-80214500D01*
X39367815Y-80281539D01*
X39315011Y-80327294D01*
X39263500Y-80338500D01*
X32872500Y-80338500D01*
X32805461Y-80318815D01*
X32759706Y-80266011D01*
X32748500Y-80214500D01*
X32748500Y-78290333D01*
X32768185Y-78223294D01*
X32820989Y-78177539D01*
X32890147Y-78167595D01*
X32934501Y-78182947D01*
X32955859Y-78195278D01*
X32955860Y-78195278D01*
X32955865Y-78195281D01*
X33102234Y-78234500D01*
X33102236Y-78234500D01*
X33253764Y-78234500D01*
X33253766Y-78234500D01*
X33400135Y-78195281D01*
X33531365Y-78119515D01*
X33638515Y-78012365D01*
X33714281Y-77881135D01*
X33753500Y-77734766D01*
X33753500Y-77583234D01*
X33714281Y-77436865D01*
X33638515Y-77305635D01*
X33531365Y-77198485D01*
X33448087Y-77150404D01*
X33400136Y-77122719D01*
X33286724Y-77092331D01*
X33253766Y-77083500D01*
X33102234Y-77083500D01*
X32955862Y-77122719D01*
X32934499Y-77135054D01*
X32866598Y-77151525D01*
X32800572Y-77128673D01*
X32757382Y-77073751D01*
X32748500Y-77027666D01*
X32748500Y-76510456D01*
X32710052Y-76317170D01*
X32710051Y-76317169D01*
X32710051Y-76317165D01*
X32710049Y-76317160D01*
X32634635Y-76135092D01*
X32634628Y-76135079D01*
X32525139Y-75971218D01*
X32525136Y-75971214D01*
X32385785Y-75831863D01*
X32385781Y-75831860D01*
X32221920Y-75722371D01*
X32221907Y-75722364D01*
X32039839Y-75646950D01*
X32039829Y-75646947D01*
X31846543Y-75608500D01*
X31846541Y-75608500D01*
X31649459Y-75608500D01*
X31649457Y-75608500D01*
X31456170Y-75646947D01*
X31456160Y-75646950D01*
X31274092Y-75722364D01*
X31274079Y-75722371D01*
X31110218Y-75831860D01*
X31110214Y-75831863D01*
X30970863Y-75971214D01*
X30970860Y-75971218D01*
X30861371Y-76135079D01*
X30861364Y-76135092D01*
X30785950Y-76317160D01*
X30785947Y-76317170D01*
X30747500Y-76510456D01*
X30747500Y-76510459D01*
X30747500Y-77060459D01*
X30747500Y-80840459D01*
X30747500Y-81837541D01*
X30747500Y-81837543D01*
X30747499Y-81837543D01*
X11938000Y-81837543D01*
X11938000Y-14938389D01*
X13874500Y-14938389D01*
X13874500Y-71046611D01*
X13898535Y-71167444D01*
X13898540Y-71167461D01*
X13945685Y-71281280D01*
X13945690Y-71281289D01*
X13979914Y-71332507D01*
X13979915Y-71332509D01*
X14014141Y-71383733D01*
X14105586Y-71475178D01*
X14105608Y-71475198D01*
X17068229Y-74437819D01*
X17101714Y-74499142D01*
X17096730Y-74568834D01*
X17054858Y-74624767D01*
X16989394Y-74649184D01*
X16980548Y-74649500D01*
X16077129Y-74649500D01*
X16077123Y-74649501D01*
X16017516Y-74655908D01*
X15882671Y-74706202D01*
X15882664Y-74706206D01*
X15767455Y-74792452D01*
X15767452Y-74792455D01*
X15681206Y-74907664D01*
X15681202Y-74907671D01*
X15630908Y-75042517D01*
X15624501Y-75102116D01*
X15624500Y-75102135D01*
X15624500Y-76897870D01*
X15624501Y-76897876D01*
X15630908Y-76957483D01*
X15681202Y-77092328D01*
X15681206Y-77092335D01*
X15767452Y-77207544D01*
X15767455Y-77207547D01*
X15882664Y-77293793D01*
X15882671Y-77293797D01*
X16017517Y-77344091D01*
X16017516Y-77344091D01*
X16024444Y-77344835D01*
X16077127Y-77350500D01*
X17872872Y-77350499D01*
X17932483Y-77344091D01*
X18067331Y-77293796D01*
X18182546Y-77207546D01*
X18268796Y-77092331D01*
X18317810Y-76960916D01*
X18359681Y-76904984D01*
X18425145Y-76880566D01*
X18493418Y-76895417D01*
X18521673Y-76916569D01*
X18643599Y-77038495D01*
X18723875Y-77094705D01*
X18837165Y-77174032D01*
X18837167Y-77174033D01*
X18837170Y-77174035D01*
X19051337Y-77273903D01*
X19051343Y-77273904D01*
X19051344Y-77273905D01*
X19106285Y-77288626D01*
X19279592Y-77335063D01*
X19456034Y-77350500D01*
X19514999Y-77355659D01*
X19515000Y-77355659D01*
X19515001Y-77355659D01*
X19573966Y-77350500D01*
X19750408Y-77335063D01*
X19978663Y-77273903D01*
X20192830Y-77174035D01*
X20386401Y-77038495D01*
X20553495Y-76871401D01*
X20683730Y-76685405D01*
X20738307Y-76641781D01*
X20807805Y-76634587D01*
X20870160Y-76666110D01*
X20886879Y-76685405D01*
X21016890Y-76871078D01*
X21183917Y-77038105D01*
X21377421Y-77173600D01*
X21591507Y-77273429D01*
X21591516Y-77273433D01*
X21805000Y-77330634D01*
X21805000Y-76433012D01*
X21862007Y-76465925D01*
X21989174Y-76500000D01*
X22120826Y-76500000D01*
X22247993Y-76465925D01*
X22305000Y-76433012D01*
X22305000Y-77330633D01*
X22518483Y-77273433D01*
X22518492Y-77273429D01*
X22732578Y-77173600D01*
X22926082Y-77038105D01*
X23093105Y-76871082D01*
X23228600Y-76677578D01*
X23328429Y-76463492D01*
X23328432Y-76463486D01*
X23385636Y-76250000D01*
X22488012Y-76250000D01*
X22520925Y-76192993D01*
X22555000Y-76065826D01*
X22555000Y-75934174D01*
X22520925Y-75807007D01*
X22488012Y-75750000D01*
X23385636Y-75750000D01*
X23385635Y-75749999D01*
X23328432Y-75536513D01*
X23328429Y-75536507D01*
X23228600Y-75322422D01*
X23228599Y-75322420D01*
X23093113Y-75128926D01*
X23093108Y-75128920D01*
X22926082Y-74961894D01*
X22732578Y-74826399D01*
X22518492Y-74726570D01*
X22518486Y-74726567D01*
X22305000Y-74669364D01*
X22305000Y-75566988D01*
X22247993Y-75534075D01*
X22120826Y-75500000D01*
X21989174Y-75500000D01*
X21862007Y-75534075D01*
X21805000Y-75566988D01*
X21805000Y-74669364D01*
X21804999Y-74669364D01*
X21591513Y-74726567D01*
X21591507Y-74726570D01*
X21377422Y-74826399D01*
X21377420Y-74826400D01*
X21183926Y-74961886D01*
X21183920Y-74961891D01*
X21016891Y-75128920D01*
X21016890Y-75128922D01*
X20886880Y-75314595D01*
X20832303Y-75358219D01*
X20762804Y-75365412D01*
X20700450Y-75333890D01*
X20683730Y-75314594D01*
X20553494Y-75128597D01*
X20386402Y-74961506D01*
X20386395Y-74961501D01*
X20192834Y-74825967D01*
X20192830Y-74825965D01*
X20171636Y-74816082D01*
X19978663Y-74726097D01*
X19978659Y-74726096D01*
X19978655Y-74726094D01*
X19750413Y-74664938D01*
X19750403Y-74664936D01*
X19515001Y-74644341D01*
X19514999Y-74644341D01*
X19279596Y-74664936D01*
X19279586Y-74664938D01*
X19179126Y-74691856D01*
X19109276Y-74690193D01*
X19059352Y-74659762D01*
X15161819Y-70762229D01*
X15128334Y-70700906D01*
X15125500Y-70674548D01*
X15125500Y-65102135D01*
X15624500Y-65102135D01*
X15624500Y-66897870D01*
X15624501Y-66897876D01*
X15630908Y-66957483D01*
X15681202Y-67092328D01*
X15681206Y-67092335D01*
X15767452Y-67207544D01*
X15767455Y-67207547D01*
X15882664Y-67293793D01*
X15882671Y-67293797D01*
X16017517Y-67344091D01*
X16017516Y-67344091D01*
X16024444Y-67344835D01*
X16077127Y-67350500D01*
X17872872Y-67350499D01*
X17932483Y-67344091D01*
X18067331Y-67293796D01*
X18182546Y-67207546D01*
X18268796Y-67092331D01*
X18317810Y-66960916D01*
X18359681Y-66904984D01*
X18425145Y-66880566D01*
X18493418Y-66895417D01*
X18521673Y-66916569D01*
X18643599Y-67038495D01*
X18740384Y-67106265D01*
X18837165Y-67174032D01*
X18837167Y-67174033D01*
X18837170Y-67174035D01*
X19051337Y-67273903D01*
X19279592Y-67335063D01*
X19456034Y-67350500D01*
X19514999Y-67355659D01*
X19515000Y-67355659D01*
X19515001Y-67355659D01*
X19573966Y-67350500D01*
X19750408Y-67335063D01*
X19978663Y-67273903D01*
X20192830Y-67174035D01*
X20386401Y-67038495D01*
X20553495Y-66871401D01*
X20683730Y-66685405D01*
X20738307Y-66641781D01*
X20807805Y-66634587D01*
X20870160Y-66666110D01*
X20886879Y-66685405D01*
X21016890Y-66871078D01*
X21183917Y-67038105D01*
X21377421Y-67173600D01*
X21591507Y-67273429D01*
X21591516Y-67273433D01*
X21805000Y-67330634D01*
X21805000Y-66433012D01*
X21862007Y-66465925D01*
X21989174Y-66500000D01*
X22120826Y-66500000D01*
X22247993Y-66465925D01*
X22305000Y-66433012D01*
X22305000Y-67330633D01*
X22518483Y-67273433D01*
X22518492Y-67273429D01*
X22732578Y-67173600D01*
X22926082Y-67038105D01*
X23093105Y-66871082D01*
X23228600Y-66677578D01*
X23302494Y-66519110D01*
X39335034Y-66519110D01*
X39335034Y-66519115D01*
X39354858Y-66745712D01*
X39354860Y-66745723D01*
X39413730Y-66965430D01*
X39413734Y-66965439D01*
X39509865Y-67171594D01*
X39509868Y-67171598D01*
X39518812Y-67184373D01*
X39541138Y-67250580D01*
X39524125Y-67318347D01*
X39491549Y-67354758D01*
X39482456Y-67361565D01*
X39482451Y-67361570D01*
X39396206Y-67476777D01*
X39396202Y-67476784D01*
X39345908Y-67611630D01*
X39339501Y-67671229D01*
X39339501Y-67671236D01*
X39339500Y-67671248D01*
X39339500Y-69366983D01*
X39339501Y-69366989D01*
X39345908Y-69426596D01*
X39396202Y-69561441D01*
X39396206Y-69561448D01*
X39482452Y-69676657D01*
X39482455Y-69676660D01*
X39597664Y-69762906D01*
X39597671Y-69762910D01*
X39732517Y-69813204D01*
X39732516Y-69813204D01*
X39739444Y-69813948D01*
X39792127Y-69819613D01*
X41487872Y-69819612D01*
X41547483Y-69813204D01*
X41682331Y-69762909D01*
X41797546Y-69676659D01*
X41883796Y-69561444D01*
X41934091Y-69426596D01*
X41940500Y-69366986D01*
X41940499Y-67671241D01*
X41934091Y-67611630D01*
X41883796Y-67476782D01*
X41883795Y-67476781D01*
X41883793Y-67476777D01*
X41797547Y-67361569D01*
X41797548Y-67361569D01*
X41797546Y-67361567D01*
X41788449Y-67354757D01*
X41746581Y-67298823D01*
X41741599Y-67229131D01*
X41761191Y-67184366D01*
X41770134Y-67171594D01*
X41824036Y-67056000D01*
X48827176Y-67056000D01*
X48846461Y-67448550D01*
X48904129Y-67837308D01*
X48999625Y-68218549D01*
X49132016Y-68588559D01*
X49132023Y-68588575D01*
X49300062Y-68943864D01*
X49502109Y-69280958D01*
X49736228Y-69596632D01*
X49832068Y-69702376D01*
X49832069Y-69702376D01*
X51430381Y-68104064D01*
X51513457Y-68212331D01*
X51675669Y-68374543D01*
X51783934Y-68457617D01*
X50185622Y-70055929D01*
X50185622Y-70055930D01*
X50291367Y-70151771D01*
X50607041Y-70385890D01*
X50944135Y-70587937D01*
X51299424Y-70755976D01*
X51299440Y-70755983D01*
X51669450Y-70888374D01*
X52050691Y-70983870D01*
X52439449Y-71041538D01*
X52832000Y-71060823D01*
X53224550Y-71041538D01*
X53613308Y-70983870D01*
X53994549Y-70888374D01*
X54364559Y-70755983D01*
X54364575Y-70755976D01*
X54719864Y-70587937D01*
X55056958Y-70385890D01*
X55372632Y-70151770D01*
X55478376Y-70055929D01*
X53880065Y-68457618D01*
X53988331Y-68374543D01*
X54150543Y-68212331D01*
X54233618Y-68104065D01*
X55831929Y-69702376D01*
X55927770Y-69596632D01*
X56161890Y-69280958D01*
X56363937Y-68943864D01*
X56531976Y-68588575D01*
X56531983Y-68588559D01*
X56664374Y-68218549D01*
X56759870Y-67837308D01*
X56817538Y-67448550D01*
X56836823Y-67056000D01*
X56817538Y-66663449D01*
X56759870Y-66274691D01*
X56664374Y-65893450D01*
X56531983Y-65523440D01*
X56531976Y-65523424D01*
X56363937Y-65168135D01*
X56161890Y-64831041D01*
X55927771Y-64515367D01*
X55831930Y-64409622D01*
X55831929Y-64409622D01*
X54233617Y-66007934D01*
X54150543Y-65899669D01*
X53988331Y-65737457D01*
X53880065Y-65654381D01*
X55478376Y-64056069D01*
X55478376Y-64056068D01*
X55372632Y-63960228D01*
X55056958Y-63726109D01*
X54719864Y-63524062D01*
X54364575Y-63356023D01*
X54364559Y-63356016D01*
X53994549Y-63223625D01*
X53613308Y-63128129D01*
X53224550Y-63070461D01*
X52832000Y-63051176D01*
X52439449Y-63070461D01*
X52050691Y-63128129D01*
X51669450Y-63223625D01*
X51299440Y-63356016D01*
X51299424Y-63356023D01*
X50944135Y-63524062D01*
X50607041Y-63726109D01*
X50291368Y-63960228D01*
X50185622Y-64056069D01*
X51783934Y-65654381D01*
X51675669Y-65737457D01*
X51513457Y-65899669D01*
X51430381Y-66007934D01*
X49832069Y-64409622D01*
X49736228Y-64515368D01*
X49502109Y-64831041D01*
X49300062Y-65168135D01*
X49132023Y-65523424D01*
X49132016Y-65523440D01*
X48999625Y-65893450D01*
X48904129Y-66274691D01*
X48846461Y-66663449D01*
X48827176Y-67056000D01*
X41824036Y-67056000D01*
X41866265Y-66965439D01*
X41866269Y-66965430D01*
X41925139Y-66745723D01*
X41925141Y-66745712D01*
X41944966Y-66519115D01*
X41944966Y-66519110D01*
X41925141Y-66292513D01*
X41925139Y-66292502D01*
X41866269Y-66072795D01*
X41866264Y-66072781D01*
X41770136Y-65866634D01*
X41770132Y-65866626D01*
X41719025Y-65793639D01*
X41040000Y-66472664D01*
X41040000Y-66466452D01*
X41012741Y-66364719D01*
X40960080Y-66273507D01*
X40885606Y-66199033D01*
X40794394Y-66146372D01*
X40692661Y-66119113D01*
X40686448Y-66119113D01*
X41365472Y-65440087D01*
X41292478Y-65388976D01*
X41086331Y-65292848D01*
X41086317Y-65292843D01*
X40866610Y-65233973D01*
X40866599Y-65233971D01*
X40640002Y-65214147D01*
X40639998Y-65214147D01*
X40413400Y-65233971D01*
X40413389Y-65233973D01*
X40193682Y-65292843D01*
X40193673Y-65292847D01*
X39987516Y-65388979D01*
X39987512Y-65388981D01*
X39914526Y-65440086D01*
X39914526Y-65440087D01*
X40593553Y-66119113D01*
X40587339Y-66119113D01*
X40485606Y-66146372D01*
X40394394Y-66199033D01*
X40319920Y-66273507D01*
X40267259Y-66364719D01*
X40240000Y-66466452D01*
X40240000Y-66472665D01*
X39560974Y-65793639D01*
X39560973Y-65793639D01*
X39509868Y-65866625D01*
X39509866Y-65866629D01*
X39413734Y-66072786D01*
X39413730Y-66072795D01*
X39354860Y-66292502D01*
X39354858Y-66292513D01*
X39335034Y-66519110D01*
X23302494Y-66519110D01*
X23328429Y-66463492D01*
X23328432Y-66463486D01*
X23385636Y-66250000D01*
X22488012Y-66250000D01*
X22520925Y-66192993D01*
X22555000Y-66065826D01*
X22555000Y-65934174D01*
X22520925Y-65807007D01*
X22488012Y-65750000D01*
X23385636Y-65750000D01*
X23385635Y-65749999D01*
X23328432Y-65536513D01*
X23328429Y-65536507D01*
X23228600Y-65322422D01*
X23228599Y-65322420D01*
X23093113Y-65128926D01*
X23093108Y-65128920D01*
X22926082Y-64961894D01*
X22732578Y-64826399D01*
X22518492Y-64726570D01*
X22518486Y-64726567D01*
X22305000Y-64669364D01*
X22305000Y-65566988D01*
X22247993Y-65534075D01*
X22120826Y-65500000D01*
X21989174Y-65500000D01*
X21862007Y-65534075D01*
X21805000Y-65566988D01*
X21805000Y-64645950D01*
X21824685Y-64578911D01*
X21841312Y-64558277D01*
X22491771Y-63907819D01*
X22553094Y-63874334D01*
X22579452Y-63871500D01*
X35364252Y-63871500D01*
X35431291Y-63891185D01*
X35456400Y-63912526D01*
X35462126Y-63918885D01*
X35462130Y-63918889D01*
X35615265Y-64030148D01*
X35615270Y-64030151D01*
X35788192Y-64107142D01*
X35788197Y-64107144D01*
X35973354Y-64146500D01*
X35973355Y-64146500D01*
X36162644Y-64146500D01*
X36162646Y-64146500D01*
X36347803Y-64107144D01*
X36520730Y-64030151D01*
X36673871Y-63918888D01*
X36800533Y-63778216D01*
X36895179Y-63614284D01*
X36953674Y-63434256D01*
X36973460Y-63246000D01*
X36953674Y-63057744D01*
X36895179Y-62877716D01*
X36800533Y-62713784D01*
X36673871Y-62573112D01*
X36673870Y-62573111D01*
X36520734Y-62461851D01*
X36520729Y-62461848D01*
X36347807Y-62384857D01*
X36347802Y-62384855D01*
X36202001Y-62353865D01*
X36162646Y-62345500D01*
X35973354Y-62345500D01*
X35940897Y-62352398D01*
X35788197Y-62384855D01*
X35788192Y-62384857D01*
X35615270Y-62461848D01*
X35615265Y-62461851D01*
X35462130Y-62573110D01*
X35462126Y-62573114D01*
X35456400Y-62579474D01*
X35396913Y-62616121D01*
X35364252Y-62620500D01*
X22207389Y-62620500D01*
X22146971Y-62632518D01*
X22109259Y-62640019D01*
X22086550Y-62644536D01*
X22086548Y-62644537D01*
X22053207Y-62658347D01*
X21972719Y-62691684D01*
X21972705Y-62691692D01*
X21870272Y-62760138D01*
X21870264Y-62760144D01*
X21783139Y-62847270D01*
X19970646Y-64659762D01*
X19909323Y-64693247D01*
X19850872Y-64691856D01*
X19750413Y-64664938D01*
X19750403Y-64664936D01*
X19515001Y-64644341D01*
X19514999Y-64644341D01*
X19279596Y-64664936D01*
X19279586Y-64664938D01*
X19051344Y-64726094D01*
X19051335Y-64726098D01*
X18837171Y-64825964D01*
X18837169Y-64825965D01*
X18643600Y-64961503D01*
X18521673Y-65083430D01*
X18460350Y-65116914D01*
X18390658Y-65111930D01*
X18334725Y-65070058D01*
X18317810Y-65039081D01*
X18268797Y-64907671D01*
X18268793Y-64907664D01*
X18182547Y-64792455D01*
X18182544Y-64792452D01*
X18067335Y-64706206D01*
X18067328Y-64706202D01*
X17932482Y-64655908D01*
X17932483Y-64655908D01*
X17872883Y-64649501D01*
X17872881Y-64649500D01*
X17872873Y-64649500D01*
X17872864Y-64649500D01*
X16077129Y-64649500D01*
X16077123Y-64649501D01*
X16017516Y-64655908D01*
X15882671Y-64706202D01*
X15882664Y-64706206D01*
X15767455Y-64792452D01*
X15767452Y-64792455D01*
X15681206Y-64907664D01*
X15681202Y-64907671D01*
X15630908Y-65042517D01*
X15624501Y-65102116D01*
X15624500Y-65102135D01*
X15125500Y-65102135D01*
X15125500Y-60873389D01*
X30503500Y-60873389D01*
X30503500Y-61046610D01*
X30530166Y-61214977D01*
X30530598Y-61217701D01*
X30584127Y-61382445D01*
X30662768Y-61536788D01*
X30764586Y-61676928D01*
X30887072Y-61799414D01*
X31027212Y-61901232D01*
X31181555Y-61979873D01*
X31346299Y-62033402D01*
X31517389Y-62060500D01*
X31517390Y-62060500D01*
X32490610Y-62060500D01*
X32490611Y-62060500D01*
X32661701Y-62033402D01*
X32826445Y-61979873D01*
X32980788Y-61901232D01*
X33120928Y-61799414D01*
X33243414Y-61676928D01*
X33345232Y-61536788D01*
X33423873Y-61382445D01*
X33477402Y-61217701D01*
X33504500Y-61046611D01*
X33504500Y-60873389D01*
X33504069Y-60870669D01*
X55899820Y-60870669D01*
X55899820Y-61043891D01*
X55926918Y-61214981D01*
X55980447Y-61379725D01*
X56059088Y-61534068D01*
X56160906Y-61674208D01*
X56283392Y-61796694D01*
X56423532Y-61898512D01*
X56577875Y-61977153D01*
X56742619Y-62030682D01*
X56913709Y-62057780D01*
X56913710Y-62057780D01*
X57886930Y-62057780D01*
X57886931Y-62057780D01*
X58058021Y-62030682D01*
X58222765Y-61977153D01*
X58377108Y-61898512D01*
X58517248Y-61796694D01*
X58639734Y-61674208D01*
X58741552Y-61534068D01*
X58820193Y-61379725D01*
X58873722Y-61214981D01*
X58900820Y-61043891D01*
X58900820Y-60870669D01*
X58873722Y-60699579D01*
X58820193Y-60534835D01*
X58741552Y-60380492D01*
X58639734Y-60240352D01*
X58517248Y-60117866D01*
X58377108Y-60016048D01*
X58222765Y-59937407D01*
X58058021Y-59883878D01*
X58058019Y-59883877D01*
X58058018Y-59883877D01*
X57904104Y-59859500D01*
X57886931Y-59856780D01*
X56913709Y-59856780D01*
X56896536Y-59859500D01*
X56742622Y-59883877D01*
X56577872Y-59937408D01*
X56423531Y-60016048D01*
X56343576Y-60074139D01*
X56283392Y-60117866D01*
X56283390Y-60117868D01*
X56283389Y-60117868D01*
X56160908Y-60240349D01*
X56160908Y-60240350D01*
X56160906Y-60240352D01*
X56158930Y-60243072D01*
X56059088Y-60380491D01*
X55980448Y-60534832D01*
X55926917Y-60699582D01*
X55899820Y-60870669D01*
X33504069Y-60870669D01*
X33477402Y-60702299D01*
X33423873Y-60537555D01*
X33345232Y-60383212D01*
X33243414Y-60243072D01*
X33120928Y-60120586D01*
X32980788Y-60018768D01*
X32826445Y-59940127D01*
X32661701Y-59886598D01*
X32661699Y-59886597D01*
X32661698Y-59886597D01*
X32530271Y-59865781D01*
X32490611Y-59859500D01*
X31517389Y-59859500D01*
X31477728Y-59865781D01*
X31346302Y-59886597D01*
X31181552Y-59940128D01*
X31027211Y-60018768D01*
X30947256Y-60076859D01*
X30887072Y-60120586D01*
X30887070Y-60120588D01*
X30887069Y-60120588D01*
X30764588Y-60243069D01*
X30764588Y-60243070D01*
X30764586Y-60243072D01*
X30720859Y-60303256D01*
X30662768Y-60383211D01*
X30584128Y-60537552D01*
X30530597Y-60702302D01*
X30503500Y-60873389D01*
X15125500Y-60873389D01*
X15125500Y-51309452D01*
X15145185Y-51242413D01*
X15197989Y-51196658D01*
X15267147Y-51186714D01*
X15330703Y-51215739D01*
X15337181Y-51221771D01*
X18804261Y-54688851D01*
X18837746Y-54750174D01*
X18832762Y-54819866D01*
X18790890Y-54875799D01*
X18787704Y-54878107D01*
X18668597Y-54961505D01*
X18546673Y-55083430D01*
X18485350Y-55116914D01*
X18415658Y-55111930D01*
X18359725Y-55070058D01*
X18342810Y-55039081D01*
X18293797Y-54907671D01*
X18293793Y-54907664D01*
X18207547Y-54792455D01*
X18207544Y-54792452D01*
X18092335Y-54706206D01*
X18092328Y-54706202D01*
X17957482Y-54655908D01*
X17957483Y-54655908D01*
X17897883Y-54649501D01*
X17897881Y-54649500D01*
X17897873Y-54649500D01*
X17897864Y-54649500D01*
X16102129Y-54649500D01*
X16102123Y-54649501D01*
X16042516Y-54655908D01*
X15907671Y-54706202D01*
X15907664Y-54706206D01*
X15792455Y-54792452D01*
X15792452Y-54792455D01*
X15706206Y-54907664D01*
X15706202Y-54907671D01*
X15655908Y-55042517D01*
X15649501Y-55102116D01*
X15649500Y-55102135D01*
X15649500Y-56897870D01*
X15649501Y-56897876D01*
X15655908Y-56957483D01*
X15706202Y-57092328D01*
X15706206Y-57092335D01*
X15792452Y-57207544D01*
X15792455Y-57207547D01*
X15907665Y-57293794D01*
X15907667Y-57293794D01*
X15907669Y-57293796D01*
X15918830Y-57297958D01*
X15974764Y-57339826D01*
X15999184Y-57405289D01*
X15999500Y-57414141D01*
X15999500Y-57484543D01*
X16015117Y-57563051D01*
X16017500Y-57587243D01*
X16017500Y-58010541D01*
X16017500Y-58010543D01*
X16017499Y-58010543D01*
X16055947Y-58203829D01*
X16055950Y-58203839D01*
X16131364Y-58385907D01*
X16131371Y-58385920D01*
X16240860Y-58549781D01*
X16240863Y-58549785D01*
X16384537Y-58693459D01*
X16384559Y-58693479D01*
X17262735Y-59571655D01*
X17262764Y-59571686D01*
X17405217Y-59714139D01*
X17569080Y-59823628D01*
X17569086Y-59823632D01*
X17655680Y-59859500D01*
X17751164Y-59899051D01*
X17847812Y-59918275D01*
X17896135Y-59927887D01*
X17944458Y-59937500D01*
X17944459Y-59937500D01*
X26523543Y-59937500D01*
X26653582Y-59911632D01*
X26716835Y-59899051D01*
X26898914Y-59823632D01*
X27062782Y-59714139D01*
X27202139Y-59574782D01*
X27311632Y-59410914D01*
X27387051Y-59228835D01*
X27405332Y-59136930D01*
X27425500Y-59035543D01*
X27425500Y-58838456D01*
X27387052Y-58645170D01*
X27387051Y-58645169D01*
X27387051Y-58645165D01*
X27347544Y-58549785D01*
X27311635Y-58463092D01*
X27311628Y-58463079D01*
X27224971Y-58333389D01*
X30503500Y-58333389D01*
X30503500Y-58506610D01*
X30530166Y-58674977D01*
X30530598Y-58677701D01*
X30584127Y-58842445D01*
X30662768Y-58996788D01*
X30764586Y-59136928D01*
X30887072Y-59259414D01*
X31027212Y-59361232D01*
X31181555Y-59439873D01*
X31346299Y-59493402D01*
X31517389Y-59520500D01*
X31517390Y-59520500D01*
X32490610Y-59520500D01*
X32490611Y-59520500D01*
X32661701Y-59493402D01*
X32826445Y-59439873D01*
X32980788Y-59361232D01*
X33120928Y-59259414D01*
X33243414Y-59136928D01*
X33345232Y-58996788D01*
X33423873Y-58842445D01*
X33477402Y-58677701D01*
X33504500Y-58506611D01*
X33504500Y-58333389D01*
X33504069Y-58330669D01*
X55899820Y-58330669D01*
X55899820Y-58503890D01*
X55922195Y-58645165D01*
X55926918Y-58674981D01*
X55980447Y-58839725D01*
X56059088Y-58994068D01*
X56160906Y-59134208D01*
X56283392Y-59256694D01*
X56423532Y-59358512D01*
X56577875Y-59437153D01*
X56742619Y-59490682D01*
X56913709Y-59517780D01*
X56913710Y-59517780D01*
X57886930Y-59517780D01*
X57886931Y-59517780D01*
X58058021Y-59490682D01*
X58222765Y-59437153D01*
X58377108Y-59358512D01*
X58517248Y-59256694D01*
X58639734Y-59134208D01*
X58741552Y-58994068D01*
X58820193Y-58839725D01*
X58873722Y-58674981D01*
X58900820Y-58503891D01*
X58900820Y-58330669D01*
X58873722Y-58159579D01*
X58820193Y-57994835D01*
X58741552Y-57840492D01*
X58639734Y-57700352D01*
X58517248Y-57577866D01*
X58377108Y-57476048D01*
X58255608Y-57414141D01*
X58222767Y-57397408D01*
X58222766Y-57397407D01*
X58222765Y-57397407D01*
X58058021Y-57343878D01*
X58058019Y-57343877D01*
X58058018Y-57343877D01*
X57926591Y-57323061D01*
X57886931Y-57316780D01*
X56913709Y-57316780D01*
X56874048Y-57323061D01*
X56742622Y-57343877D01*
X56577872Y-57397408D01*
X56423531Y-57476048D01*
X56343907Y-57533899D01*
X56283392Y-57577866D01*
X56283390Y-57577868D01*
X56283389Y-57577868D01*
X56160908Y-57700349D01*
X56160908Y-57700350D01*
X56160906Y-57700352D01*
X56158930Y-57703072D01*
X56059088Y-57840491D01*
X55980448Y-57994832D01*
X55926917Y-58159582D01*
X55899820Y-58330669D01*
X33504069Y-58330669D01*
X33477402Y-58162299D01*
X33423873Y-57997555D01*
X33345232Y-57843212D01*
X33243414Y-57703072D01*
X33120928Y-57580586D01*
X32980788Y-57478768D01*
X32826445Y-57400127D01*
X32661701Y-57346598D01*
X32661699Y-57346597D01*
X32661698Y-57346597D01*
X32530271Y-57325781D01*
X32490611Y-57319500D01*
X31517389Y-57319500D01*
X31477728Y-57325781D01*
X31346302Y-57346597D01*
X31181552Y-57400128D01*
X31027211Y-57478768D01*
X30951331Y-57533899D01*
X30887072Y-57580586D01*
X30887070Y-57580588D01*
X30887069Y-57580588D01*
X30764588Y-57703069D01*
X30764588Y-57703070D01*
X30764586Y-57703072D01*
X30720859Y-57763256D01*
X30662768Y-57843211D01*
X30584128Y-57997552D01*
X30530597Y-58162302D01*
X30503500Y-58333389D01*
X27224971Y-58333389D01*
X27202139Y-58299218D01*
X27202136Y-58299214D01*
X27062785Y-58159863D01*
X27062781Y-58159860D01*
X26898920Y-58050371D01*
X26898907Y-58050364D01*
X26716839Y-57974950D01*
X26716829Y-57974947D01*
X26523543Y-57936500D01*
X26523541Y-57936500D01*
X18508782Y-57936500D01*
X18441743Y-57916815D01*
X18421101Y-57900181D01*
X18054819Y-57533899D01*
X18021334Y-57472576D01*
X18018500Y-57446218D01*
X18018500Y-57407428D01*
X18038185Y-57340389D01*
X18085350Y-57299519D01*
X18084546Y-57298047D01*
X18092326Y-57293797D01*
X18092331Y-57293796D01*
X18207546Y-57207546D01*
X18293796Y-57092331D01*
X18342810Y-56960916D01*
X18384681Y-56904984D01*
X18450145Y-56880566D01*
X18518418Y-56895417D01*
X18546673Y-56916569D01*
X18668599Y-57038495D01*
X18765384Y-57106265D01*
X18862165Y-57174032D01*
X18862167Y-57174033D01*
X18862170Y-57174035D01*
X19076337Y-57273903D01*
X19304592Y-57335063D01*
X19492918Y-57351539D01*
X19539999Y-57355659D01*
X19540000Y-57355659D01*
X19540001Y-57355659D01*
X19579234Y-57352226D01*
X19775408Y-57335063D01*
X20003663Y-57273903D01*
X20217830Y-57174035D01*
X20411401Y-57038495D01*
X20578495Y-56871401D01*
X20708730Y-56685405D01*
X20763307Y-56641781D01*
X20832805Y-56634587D01*
X20895160Y-56666110D01*
X20911879Y-56685405D01*
X21041890Y-56871078D01*
X21208917Y-57038105D01*
X21402421Y-57173600D01*
X21616507Y-57273429D01*
X21616516Y-57273433D01*
X21830000Y-57330634D01*
X21830000Y-56433012D01*
X21887007Y-56465925D01*
X22014174Y-56500000D01*
X22145826Y-56500000D01*
X22272993Y-56465925D01*
X22330000Y-56433012D01*
X22330000Y-57330633D01*
X22543483Y-57273433D01*
X22543492Y-57273429D01*
X22757578Y-57173600D01*
X22951082Y-57038105D01*
X23118105Y-56871082D01*
X23253600Y-56677578D01*
X23353429Y-56463492D01*
X23353432Y-56463486D01*
X23410636Y-56250000D01*
X22513012Y-56250000D01*
X22545925Y-56192993D01*
X22580000Y-56065826D01*
X22580000Y-55934174D01*
X22545925Y-55807007D01*
X22538063Y-55793389D01*
X30503500Y-55793389D01*
X30503500Y-55966611D01*
X30530598Y-56137701D01*
X30584127Y-56302445D01*
X30662768Y-56456788D01*
X30764586Y-56596928D01*
X30887072Y-56719414D01*
X31027212Y-56821232D01*
X31181555Y-56899873D01*
X31346299Y-56953402D01*
X31517389Y-56980500D01*
X31517390Y-56980500D01*
X32490610Y-56980500D01*
X32490611Y-56980500D01*
X32661701Y-56953402D01*
X32826445Y-56899873D01*
X32980788Y-56821232D01*
X33120928Y-56719414D01*
X33243414Y-56596928D01*
X33345232Y-56456788D01*
X33423873Y-56302445D01*
X33477402Y-56137701D01*
X33504500Y-55966611D01*
X33504500Y-55793389D01*
X55903500Y-55793389D01*
X55903500Y-55966611D01*
X55930598Y-56137701D01*
X55984127Y-56302445D01*
X56062768Y-56456788D01*
X56164586Y-56596928D01*
X56287072Y-56719414D01*
X56427212Y-56821232D01*
X56581555Y-56899873D01*
X56746299Y-56953402D01*
X56917389Y-56980500D01*
X56917390Y-56980500D01*
X57890610Y-56980500D01*
X57890611Y-56980500D01*
X58061701Y-56953402D01*
X58226445Y-56899873D01*
X58380788Y-56821232D01*
X58520928Y-56719414D01*
X58643414Y-56596928D01*
X58745232Y-56456788D01*
X58823873Y-56302445D01*
X58877402Y-56137701D01*
X58904500Y-55966611D01*
X58904500Y-55793389D01*
X58877402Y-55622299D01*
X58823873Y-55457555D01*
X58745232Y-55303212D01*
X58643414Y-55163072D01*
X58520928Y-55040586D01*
X58380788Y-54938768D01*
X58226445Y-54860127D01*
X58061701Y-54806598D01*
X58061699Y-54806597D01*
X58061698Y-54806597D01*
X57930271Y-54785781D01*
X57890611Y-54779500D01*
X56917389Y-54779500D01*
X56877728Y-54785781D01*
X56746302Y-54806597D01*
X56581552Y-54860128D01*
X56427211Y-54938768D01*
X56347256Y-54996859D01*
X56287072Y-55040586D01*
X56287070Y-55040588D01*
X56287069Y-55040588D01*
X56164588Y-55163069D01*
X56164588Y-55163070D01*
X56164586Y-55163072D01*
X56120859Y-55223256D01*
X56062768Y-55303211D01*
X55984128Y-55457552D01*
X55930597Y-55622302D01*
X55919401Y-55692993D01*
X55903500Y-55793389D01*
X33504500Y-55793389D01*
X33477402Y-55622299D01*
X33423873Y-55457555D01*
X33345232Y-55303212D01*
X33243414Y-55163072D01*
X33120928Y-55040586D01*
X32980788Y-54938768D01*
X32826445Y-54860127D01*
X32661701Y-54806598D01*
X32661699Y-54806597D01*
X32661698Y-54806597D01*
X32530271Y-54785781D01*
X32490611Y-54779500D01*
X31517389Y-54779500D01*
X31477728Y-54785781D01*
X31346302Y-54806597D01*
X31181552Y-54860128D01*
X31027211Y-54938768D01*
X30947256Y-54996859D01*
X30887072Y-55040586D01*
X30887070Y-55040588D01*
X30887069Y-55040588D01*
X30764588Y-55163069D01*
X30764588Y-55163070D01*
X30764586Y-55163072D01*
X30720859Y-55223256D01*
X30662768Y-55303211D01*
X30584128Y-55457552D01*
X30530597Y-55622302D01*
X30519401Y-55692993D01*
X30503500Y-55793389D01*
X22538063Y-55793389D01*
X22513012Y-55750000D01*
X23410636Y-55750000D01*
X23410635Y-55749999D01*
X23353432Y-55536513D01*
X23353429Y-55536507D01*
X23253600Y-55322422D01*
X23253599Y-55322420D01*
X23118113Y-55128926D01*
X23118108Y-55128920D01*
X22951082Y-54961894D01*
X22757578Y-54826399D01*
X22543492Y-54726570D01*
X22543486Y-54726567D01*
X22330000Y-54669364D01*
X22330000Y-55566988D01*
X22272993Y-55534075D01*
X22145826Y-55500000D01*
X22014174Y-55500000D01*
X21887007Y-55534075D01*
X21830000Y-55566988D01*
X21830000Y-54669364D01*
X21829999Y-54669364D01*
X21616513Y-54726567D01*
X21616507Y-54726570D01*
X21402422Y-54826399D01*
X21402420Y-54826400D01*
X21208926Y-54961886D01*
X21208920Y-54961891D01*
X21041891Y-55128920D01*
X21041890Y-55128922D01*
X20911880Y-55314595D01*
X20857303Y-55358219D01*
X20787804Y-55365412D01*
X20725450Y-55333890D01*
X20708730Y-55314594D01*
X20578494Y-55128597D01*
X20411402Y-54961506D01*
X20411401Y-54961505D01*
X20266618Y-54860127D01*
X20218376Y-54826347D01*
X20174751Y-54771770D01*
X20165500Y-54724772D01*
X20165500Y-54607741D01*
X20165501Y-54607720D01*
X20165501Y-54478391D01*
X20141464Y-54357555D01*
X20141463Y-54357549D01*
X20094312Y-54243715D01*
X20025858Y-54141267D01*
X20025855Y-54141263D01*
X19137981Y-53253389D01*
X30503500Y-53253389D01*
X30503500Y-53426610D01*
X30530216Y-53595293D01*
X30530598Y-53597701D01*
X30584127Y-53762445D01*
X30662768Y-53916788D01*
X30764586Y-54056928D01*
X30887072Y-54179414D01*
X31027212Y-54281232D01*
X31181555Y-54359873D01*
X31346299Y-54413402D01*
X31517389Y-54440500D01*
X31517390Y-54440500D01*
X32490610Y-54440500D01*
X32490611Y-54440500D01*
X32661701Y-54413402D01*
X32826445Y-54359873D01*
X32980788Y-54281232D01*
X33120928Y-54179414D01*
X33243414Y-54056928D01*
X33345232Y-53916788D01*
X33423873Y-53762445D01*
X33477402Y-53597701D01*
X33504500Y-53426611D01*
X33504500Y-53253389D01*
X33477402Y-53082299D01*
X33423873Y-52917555D01*
X33345232Y-52763212D01*
X33243414Y-52623072D01*
X33120928Y-52500586D01*
X32980788Y-52398768D01*
X32826445Y-52320127D01*
X32661701Y-52266598D01*
X32661699Y-52266597D01*
X32661698Y-52266597D01*
X32530271Y-52245781D01*
X32490611Y-52239500D01*
X31517389Y-52239500D01*
X31477728Y-52245781D01*
X31346302Y-52266597D01*
X31181552Y-52320128D01*
X31027211Y-52398768D01*
X30947256Y-52456859D01*
X30887072Y-52500586D01*
X30887070Y-52500588D01*
X30887069Y-52500588D01*
X30764588Y-52623069D01*
X30764588Y-52623070D01*
X30764586Y-52623072D01*
X30720859Y-52683256D01*
X30662768Y-52763211D01*
X30584128Y-52917552D01*
X30530597Y-53082302D01*
X30503500Y-53253389D01*
X19137981Y-53253389D01*
X16597981Y-50713389D01*
X30503500Y-50713389D01*
X30503500Y-50886611D01*
X30530598Y-51057701D01*
X30584127Y-51222445D01*
X30662768Y-51376788D01*
X30764586Y-51516928D01*
X30887072Y-51639414D01*
X31027212Y-51741232D01*
X31181555Y-51819873D01*
X31346299Y-51873402D01*
X31517389Y-51900500D01*
X31517390Y-51900500D01*
X32490610Y-51900500D01*
X32490611Y-51900500D01*
X32661701Y-51873402D01*
X32826445Y-51819873D01*
X32980788Y-51741232D01*
X33120928Y-51639414D01*
X33243414Y-51516928D01*
X33345232Y-51376788D01*
X33423873Y-51222445D01*
X33477402Y-51057701D01*
X33504500Y-50886611D01*
X33504500Y-50713389D01*
X55903500Y-50713389D01*
X55903500Y-50886611D01*
X55930598Y-51057701D01*
X55984127Y-51222445D01*
X56062768Y-51376788D01*
X56164586Y-51516928D01*
X56287072Y-51639414D01*
X56427212Y-51741232D01*
X56581555Y-51819873D01*
X56746299Y-51873402D01*
X56917389Y-51900500D01*
X56917390Y-51900500D01*
X57890610Y-51900500D01*
X57890611Y-51900500D01*
X58061701Y-51873402D01*
X58226445Y-51819873D01*
X58380788Y-51741232D01*
X58520928Y-51639414D01*
X58643414Y-51516928D01*
X58745232Y-51376788D01*
X58823873Y-51222445D01*
X58877402Y-51057701D01*
X58904500Y-50886611D01*
X58904500Y-50713389D01*
X58877402Y-50542299D01*
X58823873Y-50377555D01*
X58745232Y-50223212D01*
X58643414Y-50083072D01*
X58520928Y-49960586D01*
X58380788Y-49858768D01*
X58226445Y-49780127D01*
X58061701Y-49726598D01*
X58061699Y-49726597D01*
X58061698Y-49726597D01*
X57930271Y-49705781D01*
X57890611Y-49699500D01*
X56917389Y-49699500D01*
X56877728Y-49705781D01*
X56746302Y-49726597D01*
X56581552Y-49780128D01*
X56427211Y-49858768D01*
X56347256Y-49916859D01*
X56287072Y-49960586D01*
X56287070Y-49960588D01*
X56287069Y-49960588D01*
X56164588Y-50083069D01*
X56164588Y-50083070D01*
X56164586Y-50083072D01*
X56120859Y-50143256D01*
X56062768Y-50223211D01*
X55984128Y-50377552D01*
X55930597Y-50542302D01*
X55903500Y-50713389D01*
X33504500Y-50713389D01*
X33477402Y-50542299D01*
X33423873Y-50377555D01*
X33345232Y-50223212D01*
X33243414Y-50083072D01*
X33120928Y-49960586D01*
X32980788Y-49858768D01*
X32826445Y-49780127D01*
X32661701Y-49726598D01*
X32661699Y-49726597D01*
X32661698Y-49726597D01*
X32530271Y-49705781D01*
X32490611Y-49699500D01*
X31517389Y-49699500D01*
X31477728Y-49705781D01*
X31346302Y-49726597D01*
X31181552Y-49780128D01*
X31027211Y-49858768D01*
X30947256Y-49916859D01*
X30887072Y-49960586D01*
X30887070Y-49960588D01*
X30887069Y-49960588D01*
X30764588Y-50083069D01*
X30764588Y-50083070D01*
X30764586Y-50083072D01*
X30720859Y-50143256D01*
X30662768Y-50223211D01*
X30584128Y-50377552D01*
X30530597Y-50542302D01*
X30503500Y-50713389D01*
X16597981Y-50713389D01*
X15661819Y-49777227D01*
X15628334Y-49715904D01*
X15625500Y-49689546D01*
X15625500Y-47360230D01*
X15645185Y-47293191D01*
X15697989Y-47247436D01*
X15767147Y-47237492D01*
X15823810Y-47260963D01*
X15866861Y-47293191D01*
X15867668Y-47293795D01*
X15867671Y-47293797D01*
X16002517Y-47344091D01*
X16002516Y-47344091D01*
X16009444Y-47344835D01*
X16062127Y-47350500D01*
X17857872Y-47350499D01*
X17917483Y-47344091D01*
X18052331Y-47293796D01*
X18077933Y-47274630D01*
X18143391Y-47250212D01*
X18211665Y-47265061D01*
X18239924Y-47286215D01*
X18524315Y-47570606D01*
X18524344Y-47570637D01*
X18614563Y-47660856D01*
X18614566Y-47660858D01*
X18691489Y-47712256D01*
X18717009Y-47729309D01*
X18717011Y-47729310D01*
X18717014Y-47729312D01*
X18783695Y-47756931D01*
X18783697Y-47756933D01*
X18823939Y-47773601D01*
X18830847Y-47776463D01*
X18891270Y-47788481D01*
X18951692Y-47800500D01*
X30426021Y-47800500D01*
X30493060Y-47820185D01*
X30538815Y-47872989D01*
X30548759Y-47942147D01*
X30543952Y-47962818D01*
X30531085Y-48002415D01*
X30529884Y-48009999D01*
X30529885Y-48010000D01*
X31688314Y-48010000D01*
X31683920Y-48014394D01*
X31631259Y-48105606D01*
X31604000Y-48207339D01*
X31604000Y-48312661D01*
X31631259Y-48414394D01*
X31683920Y-48505606D01*
X31688314Y-48510000D01*
X30529885Y-48510000D01*
X30531085Y-48517584D01*
X30584591Y-48682255D01*
X30663195Y-48836524D01*
X30764967Y-48976602D01*
X30887397Y-49099032D01*
X31027475Y-49200804D01*
X31181742Y-49279408D01*
X31346415Y-49332914D01*
X31517429Y-49360000D01*
X31754000Y-49360000D01*
X31754000Y-48575686D01*
X31758394Y-48580080D01*
X31849606Y-48632741D01*
X31951339Y-48660000D01*
X32056661Y-48660000D01*
X32158394Y-48632741D01*
X32249606Y-48580080D01*
X32254000Y-48575686D01*
X32254000Y-49360000D01*
X32490571Y-49360000D01*
X32661584Y-49332914D01*
X32826257Y-49279408D01*
X32980524Y-49200804D01*
X33120602Y-49099032D01*
X33243032Y-48976602D01*
X33344804Y-48836524D01*
X33423408Y-48682255D01*
X33476914Y-48517584D01*
X33478115Y-48510000D01*
X32319686Y-48510000D01*
X32324080Y-48505606D01*
X32376741Y-48414394D01*
X32404000Y-48312661D01*
X32404000Y-48207339D01*
X32394903Y-48173389D01*
X55903500Y-48173389D01*
X55903500Y-48346611D01*
X55930598Y-48517701D01*
X55984127Y-48682445D01*
X56062768Y-48836788D01*
X56164586Y-48976928D01*
X56287072Y-49099414D01*
X56427212Y-49201232D01*
X56581555Y-49279873D01*
X56746299Y-49333402D01*
X56917389Y-49360500D01*
X56917390Y-49360500D01*
X57890610Y-49360500D01*
X57890611Y-49360500D01*
X58061701Y-49333402D01*
X58226445Y-49279873D01*
X58380788Y-49201232D01*
X58520928Y-49099414D01*
X58643414Y-48976928D01*
X58745232Y-48836788D01*
X58823873Y-48682445D01*
X58877402Y-48517701D01*
X58904500Y-48346611D01*
X58904500Y-48173389D01*
X58877402Y-48002299D01*
X58823873Y-47837555D01*
X58745232Y-47683212D01*
X58643414Y-47543072D01*
X58520928Y-47420586D01*
X58380788Y-47318768D01*
X58226445Y-47240127D01*
X58061701Y-47186598D01*
X58061699Y-47186597D01*
X58061698Y-47186597D01*
X57930271Y-47165781D01*
X57890611Y-47159500D01*
X56917389Y-47159500D01*
X56877728Y-47165781D01*
X56746302Y-47186597D01*
X56581552Y-47240128D01*
X56427211Y-47318768D01*
X56347256Y-47376859D01*
X56287072Y-47420586D01*
X56287070Y-47420588D01*
X56287069Y-47420588D01*
X56164588Y-47543069D01*
X56164588Y-47543070D01*
X56164586Y-47543072D01*
X56120859Y-47603256D01*
X56062768Y-47683211D01*
X55984128Y-47837552D01*
X55930597Y-48002302D01*
X55929378Y-48009999D01*
X55903500Y-48173389D01*
X32394903Y-48173389D01*
X32376741Y-48105606D01*
X32324080Y-48014394D01*
X32319686Y-48010000D01*
X33478115Y-48010000D01*
X33478115Y-48009999D01*
X33476914Y-48002415D01*
X33464048Y-47962818D01*
X33462053Y-47892977D01*
X33498133Y-47833144D01*
X33560834Y-47802316D01*
X33581979Y-47800500D01*
X34386607Y-47800500D01*
X34447029Y-47788481D01*
X34507452Y-47776463D01*
X34507455Y-47776461D01*
X34507458Y-47776461D01*
X34540787Y-47762654D01*
X34540786Y-47762654D01*
X34540792Y-47762652D01*
X34621286Y-47729312D01*
X34672509Y-47695084D01*
X34723733Y-47660858D01*
X34810858Y-47573733D01*
X34810858Y-47573731D01*
X34821066Y-47563524D01*
X34821067Y-47563521D01*
X36751200Y-45633389D01*
X55903500Y-45633389D01*
X55903500Y-45806611D01*
X55930598Y-45977701D01*
X55984127Y-46142445D01*
X56062768Y-46296788D01*
X56164586Y-46436928D01*
X56287072Y-46559414D01*
X56427212Y-46661232D01*
X56581555Y-46739873D01*
X56746299Y-46793402D01*
X56917389Y-46820500D01*
X56917390Y-46820500D01*
X57890610Y-46820500D01*
X57890611Y-46820500D01*
X58061701Y-46793402D01*
X58226445Y-46739873D01*
X58380788Y-46661232D01*
X58520928Y-46559414D01*
X58643414Y-46436928D01*
X58745232Y-46296788D01*
X58823873Y-46142445D01*
X58877402Y-45977701D01*
X58904500Y-45806611D01*
X58904500Y-45633389D01*
X58877402Y-45462299D01*
X58823873Y-45297555D01*
X58745232Y-45143212D01*
X58643414Y-45003072D01*
X58520928Y-44880586D01*
X58380788Y-44778768D01*
X58226445Y-44700127D01*
X58061701Y-44646598D01*
X58061699Y-44646597D01*
X58061698Y-44646597D01*
X57930271Y-44625781D01*
X57890611Y-44619500D01*
X56917389Y-44619500D01*
X56877728Y-44625781D01*
X56746302Y-44646597D01*
X56581552Y-44700128D01*
X56427211Y-44778768D01*
X56347256Y-44836859D01*
X56287072Y-44880586D01*
X56287070Y-44880588D01*
X56287069Y-44880588D01*
X56164588Y-45003069D01*
X56164588Y-45003070D01*
X56164586Y-45003072D01*
X56154611Y-45016802D01*
X56062768Y-45143211D01*
X55984128Y-45297552D01*
X55930597Y-45462302D01*
X55909584Y-45594975D01*
X55903500Y-45633389D01*
X36751200Y-45633389D01*
X41226212Y-41158379D01*
X41287535Y-41124894D01*
X41313893Y-41122060D01*
X55938514Y-41122060D01*
X56005553Y-41141745D01*
X56048998Y-41189764D01*
X56062766Y-41216786D01*
X56093357Y-41258890D01*
X56164586Y-41356928D01*
X56287072Y-41479414D01*
X56427212Y-41581232D01*
X56581555Y-41659873D01*
X56746299Y-41713402D01*
X56917389Y-41740500D01*
X56917390Y-41740500D01*
X57890610Y-41740500D01*
X57890611Y-41740500D01*
X58061701Y-41713402D01*
X58226445Y-41659873D01*
X58380788Y-41581232D01*
X58520928Y-41479414D01*
X58643414Y-41356928D01*
X58650182Y-41347612D01*
X58705509Y-41304947D01*
X58775122Y-41298966D01*
X58836918Y-41331571D01*
X58871277Y-41392408D01*
X58874500Y-41420497D01*
X58874500Y-42189547D01*
X58854815Y-42256586D01*
X58838185Y-42277223D01*
X58740667Y-42374742D01*
X58679347Y-42408226D01*
X58652988Y-42411060D01*
X58642764Y-42411060D01*
X58575725Y-42391375D01*
X58555083Y-42374741D01*
X58520930Y-42340588D01*
X58520928Y-42340586D01*
X58380788Y-42238768D01*
X58226445Y-42160127D01*
X58061701Y-42106598D01*
X58061699Y-42106597D01*
X58061698Y-42106597D01*
X57930271Y-42085781D01*
X57890611Y-42079500D01*
X56917389Y-42079500D01*
X56877728Y-42085781D01*
X56746302Y-42106597D01*
X56581552Y-42160128D01*
X56427211Y-42238768D01*
X56347256Y-42296859D01*
X56287072Y-42340586D01*
X56287070Y-42340588D01*
X56287069Y-42340588D01*
X56164588Y-42463069D01*
X56164588Y-42463070D01*
X56164586Y-42463072D01*
X56149716Y-42483539D01*
X56062768Y-42603211D01*
X55984128Y-42757552D01*
X55930597Y-42922302D01*
X55903500Y-43093389D01*
X55903500Y-43266611D01*
X55930598Y-43437701D01*
X55984127Y-43602445D01*
X56062768Y-43756788D01*
X56164586Y-43896928D01*
X56287072Y-44019414D01*
X56427212Y-44121232D01*
X56581555Y-44199873D01*
X56746299Y-44253402D01*
X56917389Y-44280500D01*
X56917390Y-44280500D01*
X57890610Y-44280500D01*
X57890611Y-44280500D01*
X58061701Y-44253402D01*
X58226445Y-44199873D01*
X58380788Y-44121232D01*
X58520928Y-44019414D01*
X58643414Y-43896928D01*
X58745232Y-43756788D01*
X58745609Y-43756047D01*
X58759002Y-43729764D01*
X58806976Y-43678969D01*
X58869486Y-43662060D01*
X59025047Y-43662060D01*
X59085469Y-43650041D01*
X59145892Y-43638023D01*
X59145895Y-43638021D01*
X59145898Y-43638021D01*
X59168118Y-43628815D01*
X59179232Y-43624212D01*
X59203054Y-43614344D01*
X59272524Y-43606881D01*
X59335001Y-43638159D01*
X59370650Y-43698250D01*
X59374500Y-43728909D01*
X59374500Y-51689546D01*
X59354815Y-51756585D01*
X59338181Y-51777227D01*
X58650197Y-52465210D01*
X58588874Y-52498695D01*
X58519182Y-52493711D01*
X58489632Y-52477848D01*
X58380788Y-52398768D01*
X58226445Y-52320127D01*
X58061701Y-52266598D01*
X58061699Y-52266597D01*
X58061698Y-52266597D01*
X57930271Y-52245781D01*
X57890611Y-52239500D01*
X56917389Y-52239500D01*
X56877728Y-52245781D01*
X56746302Y-52266597D01*
X56581552Y-52320128D01*
X56427211Y-52398768D01*
X56347256Y-52456859D01*
X56287072Y-52500586D01*
X56287070Y-52500588D01*
X56287069Y-52500588D01*
X56164588Y-52623069D01*
X56164588Y-52623070D01*
X56164586Y-52623072D01*
X56120859Y-52683256D01*
X56062768Y-52763211D01*
X55984128Y-52917552D01*
X55930597Y-53082302D01*
X55903500Y-53253389D01*
X55903500Y-53426610D01*
X55930216Y-53595293D01*
X55930598Y-53597701D01*
X55984127Y-53762445D01*
X56062768Y-53916788D01*
X56164586Y-54056928D01*
X56287072Y-54179414D01*
X56427212Y-54281232D01*
X56581555Y-54359873D01*
X56746299Y-54413402D01*
X56917389Y-54440500D01*
X56917390Y-54440500D01*
X57890610Y-54440500D01*
X57890611Y-54440500D01*
X58061701Y-54413402D01*
X58226445Y-54359873D01*
X58380788Y-54281232D01*
X58520928Y-54179414D01*
X58643414Y-54056928D01*
X58745232Y-53916788D01*
X58745609Y-53916047D01*
X58759002Y-53889764D01*
X58806976Y-53838969D01*
X58859202Y-53824841D01*
X58858987Y-53822657D01*
X58865044Y-53822060D01*
X58865047Y-53822060D01*
X58925469Y-53810041D01*
X58985892Y-53798023D01*
X58985895Y-53798021D01*
X58985898Y-53798021D01*
X59019227Y-53784214D01*
X59019226Y-53784214D01*
X59019232Y-53784212D01*
X59099726Y-53750872D01*
X59150949Y-53716644D01*
X59202173Y-53682418D01*
X59289298Y-53595293D01*
X59289298Y-53595291D01*
X59299506Y-53585084D01*
X59299507Y-53585081D01*
X60485857Y-52398734D01*
X60554311Y-52296286D01*
X60601463Y-52182451D01*
X60625500Y-52061607D01*
X60625500Y-51938394D01*
X60625500Y-35567741D01*
X60625501Y-35567720D01*
X60625501Y-35438391D01*
X60605451Y-35337598D01*
X60605451Y-35337597D01*
X60601463Y-35317548D01*
X60595147Y-35302299D01*
X60581962Y-35270468D01*
X60581947Y-35270435D01*
X60581932Y-35270397D01*
X60554312Y-35203715D01*
X60504119Y-35128597D01*
X60485858Y-35101267D01*
X60485855Y-35101263D01*
X59028928Y-33644338D01*
X59028925Y-33644334D01*
X59028925Y-33644335D01*
X59021859Y-33637269D01*
X59021858Y-33637267D01*
X58934733Y-33550142D01*
X58934729Y-33550139D01*
X58934728Y-33550138D01*
X58892943Y-33522218D01*
X58848137Y-33468606D01*
X58839430Y-33399281D01*
X58843896Y-33380818D01*
X58877402Y-33277701D01*
X58904500Y-33106611D01*
X58904500Y-32933389D01*
X58877402Y-32762299D01*
X58823873Y-32597555D01*
X58745232Y-32443212D01*
X58643414Y-32303072D01*
X58520928Y-32180586D01*
X58380788Y-32078768D01*
X58226445Y-32000127D01*
X58061701Y-31946598D01*
X58061699Y-31946597D01*
X58061698Y-31946597D01*
X57930271Y-31925781D01*
X57890611Y-31919500D01*
X56917389Y-31919500D01*
X56877728Y-31925781D01*
X56746302Y-31946597D01*
X56581552Y-32000128D01*
X56427211Y-32078768D01*
X56347256Y-32136859D01*
X56287072Y-32180586D01*
X56287070Y-32180588D01*
X56287069Y-32180588D01*
X56252917Y-32214741D01*
X56191594Y-32248226D01*
X56165236Y-32251060D01*
X47157013Y-32251060D01*
X47089974Y-32231375D01*
X47069332Y-32214741D01*
X45084590Y-30229999D01*
X55929884Y-30229999D01*
X55929885Y-30230000D01*
X57088314Y-30230000D01*
X57083920Y-30234394D01*
X57031259Y-30325606D01*
X57004000Y-30427339D01*
X57004000Y-30532661D01*
X57031259Y-30634394D01*
X57083920Y-30725606D01*
X57088314Y-30730000D01*
X55929885Y-30730000D01*
X55931085Y-30737584D01*
X55984591Y-30902255D01*
X56063195Y-31056524D01*
X56164967Y-31196602D01*
X56287397Y-31319032D01*
X56427475Y-31420804D01*
X56581742Y-31499408D01*
X56746415Y-31552914D01*
X56917429Y-31580000D01*
X57154000Y-31580000D01*
X57154000Y-30795686D01*
X57158394Y-30800080D01*
X57249606Y-30852741D01*
X57351339Y-30880000D01*
X57456661Y-30880000D01*
X57558394Y-30852741D01*
X57649606Y-30800080D01*
X57654000Y-30795686D01*
X57654000Y-31580000D01*
X57890571Y-31580000D01*
X58061584Y-31552914D01*
X58226257Y-31499408D01*
X58380524Y-31420804D01*
X58520602Y-31319032D01*
X58643032Y-31196602D01*
X58744804Y-31056524D01*
X58823408Y-30902255D01*
X58876914Y-30737584D01*
X58878115Y-30730000D01*
X57719686Y-30730000D01*
X57724080Y-30725606D01*
X57776741Y-30634394D01*
X57804000Y-30532661D01*
X57804000Y-30427339D01*
X57776741Y-30325606D01*
X57724080Y-30234394D01*
X57719686Y-30230000D01*
X58878115Y-30230000D01*
X58878115Y-30229999D01*
X58876914Y-30222415D01*
X58823408Y-30057744D01*
X58744804Y-29903475D01*
X58643032Y-29763397D01*
X58520602Y-29640967D01*
X58380524Y-29539195D01*
X58226257Y-29460591D01*
X58061584Y-29407085D01*
X57890571Y-29380000D01*
X57654000Y-29380000D01*
X57654000Y-30164314D01*
X57649606Y-30159920D01*
X57558394Y-30107259D01*
X57456661Y-30080000D01*
X57351339Y-30080000D01*
X57249606Y-30107259D01*
X57158394Y-30159920D01*
X57154000Y-30164314D01*
X57154000Y-29380000D01*
X56917429Y-29380000D01*
X56746415Y-29407085D01*
X56581742Y-29460591D01*
X56427475Y-29539195D01*
X56287397Y-29640967D01*
X56164967Y-29763397D01*
X56063195Y-29903475D01*
X55984591Y-30057744D01*
X55931085Y-30222415D01*
X55929884Y-30229999D01*
X45084590Y-30229999D01*
X42707980Y-27853389D01*
X55903500Y-27853389D01*
X55903500Y-28026610D01*
X55930597Y-28197697D01*
X55930597Y-28197699D01*
X55930598Y-28197701D01*
X55981986Y-28355857D01*
X55984128Y-28362447D01*
X56009650Y-28412537D01*
X56062768Y-28516788D01*
X56164586Y-28656928D01*
X56287072Y-28779414D01*
X56427212Y-28881232D01*
X56581555Y-28959873D01*
X56746299Y-29013402D01*
X56917389Y-29040500D01*
X56917390Y-29040500D01*
X57890610Y-29040500D01*
X57890611Y-29040500D01*
X58061701Y-29013402D01*
X58226445Y-28959873D01*
X58380788Y-28881232D01*
X58520928Y-28779414D01*
X58643414Y-28656928D01*
X58745232Y-28516788D01*
X58823873Y-28362445D01*
X58877402Y-28197701D01*
X58904500Y-28026611D01*
X58904500Y-27853389D01*
X58877402Y-27682299D01*
X58823873Y-27517555D01*
X58745232Y-27363212D01*
X58643414Y-27223072D01*
X58520928Y-27100586D01*
X58380788Y-26998768D01*
X58226445Y-26920127D01*
X58061701Y-26866598D01*
X58061699Y-26866597D01*
X58061698Y-26866597D01*
X57930271Y-26845781D01*
X57890611Y-26839500D01*
X56917389Y-26839500D01*
X56877728Y-26845781D01*
X56746302Y-26866597D01*
X56581552Y-26920128D01*
X56427211Y-26998768D01*
X56347256Y-27056859D01*
X56287072Y-27100586D01*
X56287070Y-27100588D01*
X56287069Y-27100588D01*
X56164588Y-27223069D01*
X56164588Y-27223070D01*
X56164586Y-27223072D01*
X56126694Y-27275226D01*
X56062768Y-27363211D01*
X55984128Y-27517552D01*
X55930597Y-27682302D01*
X55903500Y-27853389D01*
X42707980Y-27853389D01*
X40167980Y-25313389D01*
X55903500Y-25313389D01*
X55903500Y-25486611D01*
X55930598Y-25657701D01*
X55984127Y-25822445D01*
X56062768Y-25976788D01*
X56164586Y-26116928D01*
X56287072Y-26239414D01*
X56427212Y-26341232D01*
X56581555Y-26419873D01*
X56746299Y-26473402D01*
X56917389Y-26500500D01*
X56917390Y-26500500D01*
X57890610Y-26500500D01*
X57890611Y-26500500D01*
X58061701Y-26473402D01*
X58226445Y-26419873D01*
X58380788Y-26341232D01*
X58520928Y-26239414D01*
X58643414Y-26116928D01*
X58745232Y-25976788D01*
X58823873Y-25822445D01*
X58877402Y-25657701D01*
X58904500Y-25486611D01*
X58904500Y-25313389D01*
X58877402Y-25142299D01*
X58823873Y-24977555D01*
X58745232Y-24823212D01*
X58643414Y-24683072D01*
X58520928Y-24560586D01*
X58380788Y-24458768D01*
X58226445Y-24380127D01*
X58061701Y-24326598D01*
X58061699Y-24326597D01*
X58061698Y-24326597D01*
X57930271Y-24305781D01*
X57890611Y-24299500D01*
X56917389Y-24299500D01*
X56877728Y-24305781D01*
X56746302Y-24326597D01*
X56581552Y-24380128D01*
X56427211Y-24458768D01*
X56347256Y-24516859D01*
X56287072Y-24560586D01*
X56287070Y-24560588D01*
X56287069Y-24560588D01*
X56164588Y-24683069D01*
X56164588Y-24683070D01*
X56164586Y-24683072D01*
X56133326Y-24726098D01*
X56062768Y-24823211D01*
X55984128Y-24977552D01*
X55930597Y-25142302D01*
X55926468Y-25168374D01*
X55903500Y-25313389D01*
X40167980Y-25313389D01*
X37627980Y-22773389D01*
X55903500Y-22773389D01*
X55903500Y-22946610D01*
X55930597Y-23117697D01*
X55930597Y-23117699D01*
X55930598Y-23117701D01*
X55984127Y-23282445D01*
X56062768Y-23436788D01*
X56164586Y-23576928D01*
X56287072Y-23699414D01*
X56427212Y-23801232D01*
X56581555Y-23879873D01*
X56746299Y-23933402D01*
X56917389Y-23960500D01*
X56917390Y-23960500D01*
X57890610Y-23960500D01*
X57890611Y-23960500D01*
X58061701Y-23933402D01*
X58226445Y-23879873D01*
X58380788Y-23801232D01*
X58520928Y-23699414D01*
X58643414Y-23576928D01*
X58745232Y-23436788D01*
X58823873Y-23282445D01*
X58877402Y-23117701D01*
X58904500Y-22946611D01*
X58904500Y-22773389D01*
X58877402Y-22602299D01*
X58823873Y-22437555D01*
X58745232Y-22283212D01*
X58643414Y-22143072D01*
X58520928Y-22020586D01*
X58380788Y-21918768D01*
X58226445Y-21840127D01*
X58061701Y-21786598D01*
X58061699Y-21786597D01*
X58061698Y-21786597D01*
X57930271Y-21765781D01*
X57890611Y-21759500D01*
X56917389Y-21759500D01*
X56877728Y-21765781D01*
X56746302Y-21786597D01*
X56581552Y-21840128D01*
X56427211Y-21918768D01*
X56353917Y-21972020D01*
X56287072Y-22020586D01*
X56287070Y-22020588D01*
X56287069Y-22020588D01*
X56164588Y-22143069D01*
X56164588Y-22143070D01*
X56164586Y-22143072D01*
X56120859Y-22203256D01*
X56062768Y-22283211D01*
X55984128Y-22437552D01*
X55930597Y-22602302D01*
X55903500Y-22773389D01*
X37627980Y-22773389D01*
X35087980Y-20233389D01*
X55903500Y-20233389D01*
X55903500Y-20406610D01*
X55927322Y-20557021D01*
X55930598Y-20577701D01*
X55931545Y-20580617D01*
X55984128Y-20742447D01*
X56062768Y-20896788D01*
X56164586Y-21036928D01*
X56287072Y-21159414D01*
X56427212Y-21261232D01*
X56581555Y-21339873D01*
X56746299Y-21393402D01*
X56917389Y-21420500D01*
X56917390Y-21420500D01*
X57890610Y-21420500D01*
X57890611Y-21420500D01*
X58061701Y-21393402D01*
X58226445Y-21339873D01*
X58380788Y-21261232D01*
X58520928Y-21159414D01*
X58643414Y-21036928D01*
X58745232Y-20896788D01*
X58823873Y-20742445D01*
X58877402Y-20577701D01*
X58904500Y-20406611D01*
X58904500Y-20233389D01*
X58877402Y-20062299D01*
X58823873Y-19897555D01*
X58745232Y-19743212D01*
X58643414Y-19603072D01*
X58520928Y-19480586D01*
X58380788Y-19378768D01*
X58226445Y-19300127D01*
X58061701Y-19246598D01*
X58061699Y-19246597D01*
X58061698Y-19246597D01*
X57930271Y-19225781D01*
X57890611Y-19219500D01*
X56917389Y-19219500D01*
X56877728Y-19225781D01*
X56746302Y-19246597D01*
X56581552Y-19300128D01*
X56427211Y-19378768D01*
X56347256Y-19436859D01*
X56287072Y-19480586D01*
X56287070Y-19480588D01*
X56287069Y-19480588D01*
X56164588Y-19603069D01*
X56164588Y-19603070D01*
X56164586Y-19603072D01*
X56155235Y-19615943D01*
X56062768Y-19743211D01*
X55984128Y-19897552D01*
X55930597Y-20062302D01*
X55903500Y-20233389D01*
X35087980Y-20233389D01*
X33505858Y-18651267D01*
X33418733Y-18564142D01*
X33418732Y-18564141D01*
X33418731Y-18564140D01*
X33375067Y-18534965D01*
X33330262Y-18481353D01*
X33321555Y-18412028D01*
X33342797Y-18361012D01*
X33342686Y-18360944D01*
X33343123Y-18360229D01*
X33343650Y-18358964D01*
X33345232Y-18356788D01*
X33423873Y-18202445D01*
X33477402Y-18037701D01*
X33504500Y-17866611D01*
X33504500Y-17693389D01*
X33477402Y-17522299D01*
X33458074Y-17462816D01*
X33456080Y-17392977D01*
X33492160Y-17333144D01*
X33554861Y-17302316D01*
X33576006Y-17300500D01*
X54364548Y-17300500D01*
X54431587Y-17320185D01*
X54452229Y-17336819D01*
X55147576Y-18032166D01*
X55147605Y-18032197D01*
X55237823Y-18122415D01*
X55237827Y-18122418D01*
X55340267Y-18190867D01*
X55340273Y-18190870D01*
X55340274Y-18190871D01*
X55454108Y-18238023D01*
X55514531Y-18250041D01*
X55574953Y-18262060D01*
X55574954Y-18262060D01*
X55938514Y-18262060D01*
X56005553Y-18281745D01*
X56048998Y-18329764D01*
X56062766Y-18356786D01*
X56093357Y-18398890D01*
X56164586Y-18496928D01*
X56287072Y-18619414D01*
X56427212Y-18721232D01*
X56581555Y-18799873D01*
X56746299Y-18853402D01*
X56917389Y-18880500D01*
X56917390Y-18880500D01*
X57890610Y-18880500D01*
X57890611Y-18880500D01*
X58061701Y-18853402D01*
X58226445Y-18799873D01*
X58380788Y-18721232D01*
X58520928Y-18619414D01*
X58643414Y-18496928D01*
X58745232Y-18356788D01*
X58823873Y-18202445D01*
X58877402Y-18037701D01*
X58904500Y-17866611D01*
X58904500Y-17693389D01*
X58877402Y-17522299D01*
X58823873Y-17357555D01*
X58745232Y-17203212D01*
X58643414Y-17063072D01*
X58520928Y-16940586D01*
X58380788Y-16838768D01*
X58226445Y-16760127D01*
X58061701Y-16706598D01*
X58061699Y-16706597D01*
X58061698Y-16706597D01*
X57930271Y-16685781D01*
X57890611Y-16679500D01*
X56917389Y-16679500D01*
X56877728Y-16685781D01*
X56746302Y-16706597D01*
X56581552Y-16760128D01*
X56427211Y-16838768D01*
X56411064Y-16850500D01*
X56287072Y-16940586D01*
X56287070Y-16940588D01*
X56287069Y-16940588D01*
X56252917Y-16974741D01*
X56191594Y-17008226D01*
X56165236Y-17011060D01*
X55947012Y-17011060D01*
X55879973Y-16991375D01*
X55859331Y-16974741D01*
X55165198Y-16280608D01*
X55165178Y-16280586D01*
X55073733Y-16189141D01*
X55022509Y-16154915D01*
X55002853Y-16141781D01*
X54971286Y-16120688D01*
X54971283Y-16120686D01*
X54971280Y-16120685D01*
X54878683Y-16082331D01*
X54857455Y-16073538D01*
X54857453Y-16073537D01*
X54857452Y-16073537D01*
X54797029Y-16061518D01*
X54736610Y-16049500D01*
X54736607Y-16049500D01*
X54736606Y-16049500D01*
X33625169Y-16049500D01*
X33558130Y-16029815D01*
X33512375Y-15977011D01*
X33501879Y-15912247D01*
X33504500Y-15887873D01*
X33504499Y-14989999D01*
X55929884Y-14989999D01*
X55929885Y-14990000D01*
X57088314Y-14990000D01*
X57083920Y-14994394D01*
X57031259Y-15085606D01*
X57004000Y-15187339D01*
X57004000Y-15292661D01*
X57031259Y-15394394D01*
X57083920Y-15485606D01*
X57088314Y-15490000D01*
X55929885Y-15490000D01*
X55931085Y-15497584D01*
X55984591Y-15662255D01*
X56063195Y-15816524D01*
X56164967Y-15956602D01*
X56287397Y-16079032D01*
X56427475Y-16180804D01*
X56581742Y-16259408D01*
X56746415Y-16312914D01*
X56917429Y-16340000D01*
X57154000Y-16340000D01*
X57154000Y-15555686D01*
X57158394Y-15560080D01*
X57249606Y-15612741D01*
X57351339Y-15640000D01*
X57456661Y-15640000D01*
X57558394Y-15612741D01*
X57649606Y-15560080D01*
X57654000Y-15555686D01*
X57654000Y-16340000D01*
X57890571Y-16340000D01*
X58061584Y-16312914D01*
X58226257Y-16259408D01*
X58380524Y-16180804D01*
X58520602Y-16079032D01*
X58643032Y-15956602D01*
X58744804Y-15816524D01*
X58823408Y-15662255D01*
X58876914Y-15497584D01*
X58878115Y-15490000D01*
X57719686Y-15490000D01*
X57724080Y-15485606D01*
X57776741Y-15394394D01*
X57804000Y-15292661D01*
X57804000Y-15187339D01*
X57776741Y-15085606D01*
X57724080Y-14994394D01*
X57719686Y-14990000D01*
X58878115Y-14990000D01*
X58878115Y-14989999D01*
X58876914Y-14982415D01*
X58823408Y-14817744D01*
X58744804Y-14663475D01*
X58643032Y-14523397D01*
X58520602Y-14400967D01*
X58380524Y-14299195D01*
X58226257Y-14220591D01*
X58061584Y-14167085D01*
X57890571Y-14140000D01*
X57654000Y-14140000D01*
X57654000Y-14924314D01*
X57649606Y-14919920D01*
X57558394Y-14867259D01*
X57456661Y-14840000D01*
X57351339Y-14840000D01*
X57249606Y-14867259D01*
X57158394Y-14919920D01*
X57154000Y-14924314D01*
X57154000Y-14140000D01*
X56917429Y-14140000D01*
X56746415Y-14167085D01*
X56581742Y-14220591D01*
X56427475Y-14299195D01*
X56287397Y-14400967D01*
X56164967Y-14523397D01*
X56063195Y-14663475D01*
X55984591Y-14817744D01*
X55931085Y-14982415D01*
X55929884Y-14989999D01*
X33504499Y-14989999D01*
X33504499Y-14592128D01*
X33498091Y-14532517D01*
X33494689Y-14523397D01*
X33447797Y-14397671D01*
X33447793Y-14397664D01*
X33361547Y-14282455D01*
X33361544Y-14282452D01*
X33246335Y-14196206D01*
X33246328Y-14196202D01*
X33111482Y-14145908D01*
X33111483Y-14145908D01*
X33051883Y-14139501D01*
X33051881Y-14139500D01*
X33051873Y-14139500D01*
X33051864Y-14139500D01*
X30956129Y-14139500D01*
X30956123Y-14139501D01*
X30896516Y-14145908D01*
X30761671Y-14196202D01*
X30761664Y-14196206D01*
X30646455Y-14282452D01*
X30646452Y-14282455D01*
X30560206Y-14397664D01*
X30560202Y-14397671D01*
X30509908Y-14532517D01*
X30503501Y-14592116D01*
X30503501Y-14592123D01*
X30503500Y-14592135D01*
X30503500Y-15683548D01*
X30483815Y-15750587D01*
X30431011Y-15796342D01*
X30361853Y-15806286D01*
X30298297Y-15777261D01*
X30291819Y-15771229D01*
X27626198Y-13105608D01*
X27626178Y-13105586D01*
X27534733Y-13014141D01*
X27483509Y-12979915D01*
X27432287Y-12945689D01*
X27432286Y-12945688D01*
X27432283Y-12945686D01*
X27432280Y-12945685D01*
X27351792Y-12912347D01*
X27318453Y-12898537D01*
X27308427Y-12896543D01*
X27258029Y-12886518D01*
X27197610Y-12874500D01*
X27197607Y-12874500D01*
X27197606Y-12874500D01*
X16061606Y-12874500D01*
X15938393Y-12874500D01*
X15938389Y-12874500D01*
X15877971Y-12886518D01*
X15834743Y-12895116D01*
X15817546Y-12898537D01*
X15703712Y-12945689D01*
X15703706Y-12945693D01*
X15601266Y-13014142D01*
X15601262Y-13014145D01*
X14475909Y-14139500D01*
X14101269Y-14514140D01*
X14101267Y-14514142D01*
X14057704Y-14557704D01*
X14014142Y-14601266D01*
X13997625Y-14625985D01*
X13981220Y-14650538D01*
X13972576Y-14663475D01*
X13945687Y-14703714D01*
X13945685Y-14703718D01*
X13912347Y-14784207D01*
X13906823Y-14797543D01*
X13898537Y-14817545D01*
X13898535Y-14817553D01*
X13874500Y-14938389D01*
X11938000Y-14938389D01*
X11938000Y-12062000D01*
X11957685Y-11994961D01*
X12010489Y-11949206D01*
X12062000Y-11938000D01*
X63122000Y-11938000D01*
X63189039Y-11957685D01*
G37*
%TD.AperFunction*%
%TD*%
M02*
