%TF.GenerationSoftware,KiCad,Pcbnew,8.0.3*%
%TF.CreationDate,2024-07-18T19:56:29+02:00*%
%TF.ProjectId,7Analyzer,37416e61-6c79-47a6-9572-2e6b69636164,rev?*%
%TF.SameCoordinates,Original*%
%TF.FileFunction,Copper,L1,Top*%
%TF.FilePolarity,Positive*%
%FSLAX46Y46*%
G04 Gerber Fmt 4.6, Leading zero omitted, Abs format (unit mm)*
G04 Created by KiCad (PCBNEW 8.0.3) date 2024-07-18 19:56:29*
%MOMM*%
%LPD*%
G01*
G04 APERTURE LIST*
G04 Aperture macros list*
%AMRoundRect*
0 Rectangle with rounded corners*
0 $1 Rounding radius*
0 $2 $3 $4 $5 $6 $7 $8 $9 X,Y pos of 4 corners*
0 Add a 4 corners polygon primitive as box body*
4,1,4,$2,$3,$4,$5,$6,$7,$8,$9,$2,$3,0*
0 Add four circle primitives for the rounded corners*
1,1,$1+$1,$2,$3*
1,1,$1+$1,$4,$5*
1,1,$1+$1,$6,$7*
1,1,$1+$1,$8,$9*
0 Add four rect primitives between the rounded corners*
20,1,$1+$1,$2,$3,$4,$5,0*
20,1,$1+$1,$4,$5,$6,$7,0*
20,1,$1+$1,$6,$7,$8,$9,0*
20,1,$1+$1,$8,$9,$2,$3,0*%
G04 Aperture macros list end*
%TA.AperFunction,ComponentPad*%
%ADD10C,7.000000*%
%TD*%
%TA.AperFunction,ComponentPad*%
%ADD11R,1.700000X1.700000*%
%TD*%
%TA.AperFunction,ComponentPad*%
%ADD12O,1.700000X1.700000*%
%TD*%
%TA.AperFunction,ComponentPad*%
%ADD13R,2.000000X1.200000*%
%TD*%
%TA.AperFunction,ComponentPad*%
%ADD14O,2.000000X1.200000*%
%TD*%
%TA.AperFunction,SMDPad,CuDef*%
%ADD15RoundRect,0.250000X-0.325000X-0.450000X0.325000X-0.450000X0.325000X0.450000X-0.325000X0.450000X0*%
%TD*%
%TA.AperFunction,SMDPad,CuDef*%
%ADD16RoundRect,0.250000X-0.450000X0.325000X-0.450000X-0.325000X0.450000X-0.325000X0.450000X0.325000X0*%
%TD*%
%TA.AperFunction,ComponentPad*%
%ADD17R,1.600000X1.600000*%
%TD*%
%TA.AperFunction,ComponentPad*%
%ADD18C,1.600000*%
%TD*%
%TA.AperFunction,SMDPad,CuDef*%
%ADD19RoundRect,0.250001X-0.462499X-1.074999X0.462499X-1.074999X0.462499X1.074999X-0.462499X1.074999X0*%
%TD*%
%TA.AperFunction,SMDPad,CuDef*%
%ADD20RoundRect,0.250000X0.325000X0.450000X-0.325000X0.450000X-0.325000X-0.450000X0.325000X-0.450000X0*%
%TD*%
%TA.AperFunction,SMDPad,CuDef*%
%ADD21C,0.750000*%
%TD*%
%TA.AperFunction,ComponentPad*%
%ADD22O,1.000000X1.800000*%
%TD*%
%TA.AperFunction,ComponentPad*%
%ADD23O,1.000000X2.100000*%
%TD*%
%TA.AperFunction,SMDPad,CuDef*%
%ADD24RoundRect,0.150000X-0.150000X-0.425000X0.150000X-0.425000X0.150000X0.425000X-0.150000X0.425000X0*%
%TD*%
%TA.AperFunction,SMDPad,CuDef*%
%ADD25RoundRect,0.075000X-0.075000X-0.500000X0.075000X-0.500000X0.075000X0.500000X-0.075000X0.500000X0*%
%TD*%
%TA.AperFunction,ViaPad*%
%ADD26C,0.800000*%
%TD*%
%TA.AperFunction,Conductor*%
%ADD27C,0.250000*%
%TD*%
%TA.AperFunction,Conductor*%
%ADD28C,1.000000*%
%TD*%
%TA.AperFunction,Conductor*%
%ADD29C,0.500000*%
%TD*%
G04 APERTURE END LIST*
D10*
%TO.P,J2,1*%
%TO.N,GND*%
X26670000Y-21336000D03*
%TD*%
%TO.P,J1,1*%
%TO.N,GND*%
X52832000Y-67056000D03*
%TD*%
D11*
%TO.P,J10,1*%
%TO.N,+5V*%
X16975000Y-66000000D03*
D12*
%TO.P,J10,2*%
%TO.N,/A21*%
X19515000Y-66000000D03*
%TO.P,J10,3*%
%TO.N,GND*%
X22055000Y-66000000D03*
%TD*%
D13*
%TO.P,U1,1,3V3*%
%TO.N,+3.3V*%
X32004000Y-15240000D03*
D14*
%TO.P,U1,2,CHIP_PU*%
%TO.N,unconnected-(U1-CHIP_PU-Pad2)*%
X32004000Y-17780000D03*
%TO.P,U1,3,SENSOR_VP/GPIO36/ADC1_CH0*%
%TO.N,unconnected-(U1-SENSOR_VP{slash}GPIO36{slash}ADC1_CH0-Pad3)*%
X32004000Y-20320000D03*
%TO.P,U1,4,SENSOR_VN/GPIO39/ADC1_CH3*%
%TO.N,unconnected-(U1-SENSOR_VN{slash}GPIO39{slash}ADC1_CH3-Pad4)*%
X32004000Y-22860000D03*
%TO.P,U1,5,VDET_1/GPIO34/ADC1_CH6*%
%TO.N,/A34*%
X32004000Y-25400000D03*
%TO.P,U1,6,VDET_2/GPIO35/ADC1_CH7*%
%TO.N,/A35*%
X32004000Y-27940000D03*
%TO.P,U1,7,32K_XP/GPIO32/ADC1_CH4*%
%TO.N,unconnected-(U1-32K_XP{slash}GPIO32{slash}ADC1_CH4-Pad7)*%
X32004000Y-30480000D03*
%TO.P,U1,8,32K_XN/GPIO33/ADC1_CH5*%
%TO.N,unconnected-(U1-32K_XN{slash}GPIO33{slash}ADC1_CH5-Pad8)*%
X32004000Y-33020000D03*
%TO.P,U1,9,DAC_1/ADC2_CH8/GPIO25*%
%TO.N,unconnected-(U1-DAC_1{slash}ADC2_CH8{slash}GPIO25-Pad9)*%
X32004000Y-35560000D03*
%TO.P,U1,10,DAC_2/ADC2_CH9/GPIO26*%
%TO.N,unconnected-(U1-DAC_2{slash}ADC2_CH9{slash}GPIO26-Pad10)*%
X32004000Y-38100000D03*
%TO.P,U1,11,ADC2_CH7/GPIO27*%
%TO.N,unconnected-(U1-ADC2_CH7{slash}GPIO27-Pad11)*%
X32004000Y-40640000D03*
%TO.P,U1,12,MTMS/GPIO14/ADC2_CH6*%
%TO.N,unconnected-(U1-MTMS{slash}GPIO14{slash}ADC2_CH6-Pad12)*%
X32004000Y-43180000D03*
%TO.P,U1,13,MTDI/GPIO12/ADC2_CH5*%
%TO.N,unconnected-(U1-MTDI{slash}GPIO12{slash}ADC2_CH5-Pad13)*%
X32004000Y-45720000D03*
%TO.P,U1,14,GND*%
%TO.N,GND*%
X32004000Y-48260000D03*
%TO.P,U1,15,MTCK/GPIO13/ADC2_CH4*%
%TO.N,unconnected-(U1-MTCK{slash}GPIO13{slash}ADC2_CH4-Pad15)*%
X32004000Y-50800000D03*
%TO.P,U1,16,SD_DATA2/GPIO9*%
%TO.N,unconnected-(U1-SD_DATA2{slash}GPIO9-Pad16)*%
X32004000Y-53340000D03*
%TO.P,U1,17,SD_DATA3/GPIO10*%
%TO.N,unconnected-(U1-SD_DATA3{slash}GPIO10-Pad17)*%
X32004000Y-55880000D03*
%TO.P,U1,18,CMD*%
%TO.N,unconnected-(U1-CMD-Pad18)*%
X32004000Y-58420000D03*
%TO.P,U1,19,5V*%
%TO.N,+5V*%
X32004000Y-60960000D03*
%TO.P,U1,20,SD_CLK/GPIO6*%
%TO.N,unconnected-(U1-SD_CLK{slash}GPIO6-Pad20)*%
X57400320Y-60957280D03*
%TO.P,U1,21,SD_DATA0/GPIO7*%
%TO.N,unconnected-(U1-SD_DATA0{slash}GPIO7-Pad21)*%
X57400320Y-58417280D03*
%TO.P,U1,22,SD_DATA1/GPIO8*%
%TO.N,unconnected-(U1-SD_DATA1{slash}GPIO8-Pad22)*%
X57404000Y-55880000D03*
%TO.P,U1,23,MTDO/GPIO15/ADC2_CH3*%
%TO.N,/A15*%
X57404000Y-53340000D03*
%TO.P,U1,24,ADC2_CH2/GPIO2*%
%TO.N,unconnected-(U1-ADC2_CH2{slash}GPIO2-Pad24)*%
X57404000Y-50800000D03*
%TO.P,U1,25,GPIO0/BOOT/ADC2_CH1*%
%TO.N,unconnected-(U1-GPIO0{slash}BOOT{slash}ADC2_CH1-Pad25)*%
X57404000Y-48260000D03*
%TO.P,U1,26,ADC2_CH0/GPIO4*%
%TO.N,unconnected-(U1-ADC2_CH0{slash}GPIO4-Pad26)*%
X57404000Y-45720000D03*
%TO.P,U1,27,GPIO16*%
%TO.N,/A16*%
X57404000Y-43180000D03*
%TO.P,U1,28,GPIO17*%
%TO.N,/A17*%
X57404000Y-40640000D03*
%TO.P,U1,29,GPIO5*%
%TO.N,unconnected-(U1-GPIO5-Pad29)*%
X57404000Y-38100000D03*
%TO.P,U1,30,GPIO18*%
%TO.N,/A18*%
X57404000Y-35560000D03*
%TO.P,U1,31,GPIO19*%
%TO.N,/A19*%
X57404000Y-33020000D03*
%TO.P,U1,32,GND*%
%TO.N,GND*%
X57404000Y-30480000D03*
%TO.P,U1,33,GPIO21*%
%TO.N,/A21*%
X57404000Y-27940000D03*
%TO.P,U1,34,U0RXD/GPIO3*%
%TO.N,unconnected-(U1-U0RXD{slash}GPIO3-Pad34)*%
X57404000Y-25400000D03*
%TO.P,U1,35,U0TXD/GPIO1*%
%TO.N,unconnected-(U1-U0TXD{slash}GPIO1-Pad35)*%
X57404000Y-22860000D03*
%TO.P,U1,36,GPIO22*%
%TO.N,unconnected-(U1-GPIO22-Pad36)*%
X57404000Y-20320000D03*
%TO.P,U1,37,GPIO23*%
%TO.N,/A23*%
X57404000Y-17780000D03*
%TO.P,U1,38,GND*%
%TO.N,GND*%
X57404000Y-15240000D03*
%TD*%
D11*
%TO.P,J9,1*%
%TO.N,+5V*%
X17000000Y-56000000D03*
D12*
%TO.P,J9,2*%
%TO.N,/A19*%
X19540000Y-56000000D03*
%TO.P,J9,3*%
%TO.N,GND*%
X22080000Y-56000000D03*
%TD*%
D15*
%TO.P,C11,1*%
%TO.N,GND*%
X24375000Y-60960000D03*
%TO.P,C11,2*%
%TO.N,+5V*%
X26425000Y-60960000D03*
%TD*%
D16*
%TO.P,C2,1*%
%TO.N,GND*%
X35560000Y-66539000D03*
%TO.P,C2,2*%
%TO.N,Net-(L1--)*%
X35560000Y-68589000D03*
%TD*%
D17*
%TO.P,C1,1*%
%TO.N,Net-(L1--)*%
X40640000Y-68519113D03*
D18*
%TO.P,C1,2*%
%TO.N,GND*%
X40640000Y-66519113D03*
%TD*%
D19*
%TO.P,F1,1*%
%TO.N,Net-(F1-Pad1)*%
X39152500Y-72390000D03*
%TO.P,F1,2*%
%TO.N,Net-(L1--)*%
X42127500Y-72390000D03*
%TD*%
D11*
%TO.P,J8,1*%
%TO.N,+5V*%
X16960000Y-46000000D03*
D12*
%TO.P,J8,2*%
%TO.N,/A18*%
X19500000Y-46000000D03*
%TO.P,J8,3*%
%TO.N,GND*%
X22040000Y-46000000D03*
%TD*%
D20*
%TO.P,C7,1*%
%TO.N,GND*%
X20525000Y-51000000D03*
%TO.P,C7,2*%
%TO.N,+5V*%
X18475000Y-51000000D03*
%TD*%
D16*
%TO.P,C12,1*%
%TO.N,GND*%
X27178000Y-14469000D03*
%TO.P,C12,2*%
%TO.N,+3.3V*%
X27178000Y-16519000D03*
%TD*%
D21*
%TO.P,FID1,*%
%TO.N,*%
X61722000Y-13462000D03*
%TD*%
D11*
%TO.P,J5,1*%
%TO.N,+5V*%
X16975000Y-15500000D03*
D12*
%TO.P,J5,2*%
%TO.N,/A15*%
X19515000Y-15500000D03*
%TO.P,J5,3*%
%TO.N,GND*%
X22055000Y-15500000D03*
%TD*%
D15*
%TO.P,L1,1,+*%
%TO.N,+5V*%
X32249000Y-72390000D03*
%TO.P,L1,2,-*%
%TO.N,Net-(L1--)*%
X34299000Y-72390000D03*
%TD*%
D20*
%TO.P,C8,1*%
%TO.N,GND*%
X20583000Y-60960000D03*
%TO.P,C8,2*%
%TO.N,+5V*%
X18533000Y-60960000D03*
%TD*%
%TO.P,C9,1*%
%TO.N,GND*%
X20525000Y-71000000D03*
%TO.P,C9,2*%
%TO.N,+5V*%
X18475000Y-71000000D03*
%TD*%
D11*
%TO.P,J3,1*%
%TO.N,+5V*%
X60000000Y-79025000D03*
D12*
%TO.P,J3,2*%
%TO.N,/A34*%
X60000000Y-76485000D03*
%TO.P,J3,3*%
%TO.N,GND*%
X60000000Y-73945000D03*
%TD*%
D20*
%TO.P,C6,1*%
%TO.N,GND*%
X20583000Y-41000000D03*
%TO.P,C6,2*%
%TO.N,+5V*%
X18533000Y-41000000D03*
%TD*%
D21*
%TO.P,FID2,*%
%TO.N,*%
X13462000Y-13462000D03*
%TD*%
D11*
%TO.P,J11,1*%
%TO.N,+5V*%
X16975000Y-76000000D03*
D12*
%TO.P,J11,2*%
%TO.N,/A23*%
X19515000Y-76000000D03*
%TO.P,J11,3*%
%TO.N,GND*%
X22055000Y-76000000D03*
%TD*%
D16*
%TO.P,C3,1*%
%TO.N,GND*%
X30988000Y-66539000D03*
%TO.P,C3,2*%
%TO.N,+5V*%
X30988000Y-68589000D03*
%TD*%
D11*
%TO.P,J6,1*%
%TO.N,+5V*%
X16920000Y-26000000D03*
D12*
%TO.P,J6,2*%
%TO.N,/A16*%
X19460000Y-26000000D03*
%TO.P,J6,3*%
%TO.N,GND*%
X22000000Y-26000000D03*
%TD*%
D20*
%TO.P,C5,1*%
%TO.N,GND*%
X20550000Y-30500000D03*
%TO.P,C5,2*%
%TO.N,+5V*%
X18500000Y-30500000D03*
%TD*%
D11*
%TO.P,J7,1*%
%TO.N,+5V*%
X16960000Y-36000000D03*
D12*
%TO.P,J7,2*%
%TO.N,/A17*%
X19500000Y-36000000D03*
%TO.P,J7,3*%
%TO.N,GND*%
X22040000Y-36000000D03*
%TD*%
D11*
%TO.P,J4,1*%
%TO.N,+5V*%
X50000000Y-79040000D03*
D12*
%TO.P,J4,2*%
%TO.N,/A35*%
X50000000Y-76500000D03*
%TO.P,J4,3*%
%TO.N,GND*%
X50000000Y-73960000D03*
%TD*%
D20*
%TO.P,C10,1*%
%TO.N,GND*%
X20583000Y-81026000D03*
%TO.P,C10,2*%
%TO.N,+5V*%
X18533000Y-81026000D03*
%TD*%
D21*
%TO.P,FID3,*%
%TO.N,*%
X13462000Y-82550000D03*
%TD*%
D22*
%TO.P,P1,S1,SHIELD*%
%TO.N,unconnected-(P1-SHIELD-PadS1)*%
X40388000Y-81339000D03*
D23*
X40388000Y-77159000D03*
D22*
X31748000Y-81339000D03*
D23*
X31748000Y-77159000D03*
D24*
%TO.P,P1,B12,GND*%
%TO.N,GND*%
X32868000Y-76584000D03*
%TO.P,P1,B9,VBUS*%
%TO.N,Net-(F1-Pad1)*%
X33668000Y-76584000D03*
D25*
%TO.P,P1,B8,SBU2*%
%TO.N,unconnected-(P1-SBU2-PadB8)*%
X34318000Y-76584000D03*
%TO.P,P1,B7*%
%TO.N,N/C*%
X35318000Y-76584000D03*
%TO.P,P1,B6*%
X36818000Y-76584000D03*
%TO.P,P1,B5,VCONN*%
%TO.N,unconnected-(P1-VCONN-PadB5)*%
X37818000Y-76584000D03*
D24*
%TO.P,P1,B4,VBUS*%
%TO.N,Net-(F1-Pad1)*%
X38468000Y-76584000D03*
%TO.P,P1,B1,GND*%
%TO.N,GND*%
X39268000Y-76584000D03*
%TO.P,P1,A12,GND*%
X39268000Y-76584000D03*
%TO.P,P1,A9,VBUS*%
%TO.N,Net-(F1-Pad1)*%
X38468000Y-76584000D03*
D25*
%TO.P,P1,A8,SBU1*%
%TO.N,unconnected-(P1-SBU1-PadA8)*%
X37318000Y-76584000D03*
%TO.P,P1,A7,D-*%
%TO.N,unconnected-(P1-D--PadA7)*%
X36318000Y-76584000D03*
%TO.P,P1,A6,D+*%
%TO.N,unconnected-(P1-D+-PadA6)*%
X35818000Y-76584000D03*
%TO.P,P1,A5,CC*%
%TO.N,unconnected-(P1-CC-PadA5)*%
X34818000Y-76584000D03*
D24*
%TO.P,P1,A4,VBUS*%
%TO.N,Net-(F1-Pad1)*%
X33668000Y-76584000D03*
%TO.P,P1,A1,GND*%
%TO.N,GND*%
X32868000Y-76584000D03*
%TD*%
D20*
%TO.P,C4,2*%
%TO.N,+5V*%
X18475000Y-20500000D03*
%TO.P,C4,1*%
%TO.N,GND*%
X20525000Y-20500000D03*
%TD*%
D26*
%TO.N,/A21*%
X36068000Y-63246000D03*
%TO.N,+5V*%
X26425000Y-58937000D03*
%TD*%
D27*
%TO.N,/A34*%
X31800000Y-25256560D02*
X34179440Y-25256560D01*
X34179440Y-25256560D02*
X35104440Y-24331560D01*
X35104440Y-24331560D02*
X58831560Y-24331560D01*
X58831560Y-24331560D02*
X59500000Y-25000000D01*
X59500000Y-25000000D02*
X59500000Y-70500000D01*
X61722000Y-74763000D02*
X60000000Y-76485000D01*
X61722000Y-72722000D02*
X61722000Y-74763000D01*
X59500000Y-70500000D02*
X61722000Y-72722000D01*
%TO.N,/A21*%
X58928000Y-28194000D02*
X58674000Y-27940000D01*
X54408440Y-31951560D02*
X36068000Y-50292000D01*
X58674000Y-27940000D02*
X57404000Y-27940000D01*
X36068000Y-63246000D02*
X36068000Y-50292000D01*
X58928000Y-30664148D02*
X58928000Y-28194000D01*
X54408440Y-31951560D02*
X57640588Y-31951560D01*
X57640588Y-31951560D02*
X58928000Y-30664148D01*
%TO.N,/A35*%
X60000000Y-68128000D02*
X60000000Y-24863604D01*
X62230000Y-70358000D02*
X60000000Y-68128000D01*
X60840000Y-77660000D02*
X62230000Y-76270000D01*
X59017956Y-23881560D02*
X30618440Y-23881560D01*
X51160000Y-77660000D02*
X60840000Y-77660000D01*
X62230000Y-76270000D02*
X62230000Y-70358000D01*
X60000000Y-24863604D02*
X59017956Y-23881560D01*
X29500000Y-27000000D02*
X30296560Y-27796560D01*
X30296560Y-27796560D02*
X31800000Y-27796560D01*
X50000000Y-76500000D02*
X51160000Y-77660000D01*
X29500000Y-25000000D02*
X29500000Y-27000000D01*
X30618440Y-23881560D02*
X29500000Y-25000000D01*
D28*
%TO.N,Net-(L1--)*%
X35306000Y-72390000D02*
X34299000Y-72390000D01*
X35560000Y-72136000D02*
X35306000Y-72390000D01*
X43688000Y-71882000D02*
X43688000Y-68834000D01*
X35560000Y-68589000D02*
X40316113Y-68589000D01*
X40894000Y-68519113D02*
X43373113Y-68519113D01*
X43180000Y-72390000D02*
X43688000Y-71882000D01*
X42127500Y-72390000D02*
X43180000Y-72390000D01*
X35560000Y-68589000D02*
X35560000Y-72136000D01*
X40316113Y-68589000D02*
X40386000Y-68519113D01*
X43373113Y-68519113D02*
X43688000Y-68834000D01*
%TO.N,GND*%
X49482478Y-30480000D02*
X48212478Y-31750000D01*
X22055000Y-77935000D02*
X22055000Y-76000000D01*
X35579887Y-66519113D02*
X35560000Y-66539000D01*
D27*
X32868000Y-75540000D02*
X32258000Y-74930000D01*
D28*
X40894000Y-66519113D02*
X35579887Y-66519113D01*
X20537500Y-20500000D02*
X21981000Y-20500000D01*
X22080000Y-46040000D02*
X22040000Y-46000000D01*
X35560000Y-66539000D02*
X30988000Y-66539000D01*
X45212000Y-73914000D02*
X45212000Y-67564000D01*
X27187000Y-66539000D02*
X24384000Y-69342000D01*
X22055000Y-76000000D02*
X22055000Y-70866000D01*
X20525000Y-51000000D02*
X22026000Y-51000000D01*
X24124000Y-15500000D02*
X22055000Y-15500000D01*
X36576000Y-15240000D02*
X34544000Y-13208000D01*
X21981000Y-20500000D02*
X22055000Y-20574000D01*
X22080000Y-56000000D02*
X22080000Y-51054000D01*
X25155000Y-14469000D02*
X24124000Y-15500000D01*
D27*
X32868000Y-76584000D02*
X32868000Y-75540000D01*
D28*
X20583000Y-79493000D02*
X22098000Y-77978000D01*
X22080000Y-51054000D02*
X22080000Y-48260000D01*
X24384000Y-69342000D02*
X24384000Y-80264000D01*
X30734000Y-79248000D02*
X44450000Y-79248000D01*
X22040000Y-26040000D02*
X22000000Y-26000000D01*
X27178000Y-14469000D02*
X25155000Y-14469000D01*
X30480000Y-31750000D02*
X22040000Y-31750000D01*
D27*
X22040000Y-56040000D02*
X22080000Y-56000000D01*
D28*
X44167113Y-66519113D02*
X45212000Y-67564000D01*
X21892000Y-41000000D02*
X22040000Y-41148000D01*
X30480000Y-74930000D02*
X29718000Y-75692000D01*
D27*
X39268000Y-76584000D02*
X39268000Y-75794000D01*
D28*
X20583000Y-41000000D02*
X21892000Y-41000000D01*
X22055000Y-70866000D02*
X22055000Y-66000000D01*
X48212478Y-31750000D02*
X33528000Y-31750000D01*
X28702000Y-14478000D02*
X28693000Y-14469000D01*
X22055000Y-20574000D02*
X22055000Y-15500000D01*
X22040000Y-30480000D02*
X22040000Y-26040000D01*
X20583000Y-60960000D02*
X22080000Y-60960000D01*
X22040000Y-36000000D02*
X22040000Y-31750000D01*
X20550000Y-30500000D02*
X22020000Y-30500000D01*
X29972000Y-13208000D02*
X28702000Y-14478000D01*
X44450000Y-79248000D02*
X45212000Y-78486000D01*
X21921000Y-71000000D02*
X22055000Y-70866000D01*
X32004000Y-48260000D02*
X22080000Y-48260000D01*
X50015000Y-73945000D02*
X50000000Y-73960000D01*
X32258000Y-74930000D02*
X30480000Y-74930000D01*
X22098000Y-77978000D02*
X22055000Y-77935000D01*
X22026000Y-51000000D02*
X22080000Y-51054000D01*
X22055000Y-66000000D02*
X22055000Y-65575000D01*
X57404000Y-15240000D02*
X36576000Y-15240000D01*
X29718000Y-75692000D02*
X29718000Y-78232000D01*
X39878000Y-75184000D02*
X44958000Y-75184000D01*
X40894000Y-66519113D02*
X44167113Y-66519113D01*
X60000000Y-73945000D02*
X50015000Y-73945000D01*
X20525000Y-71000000D02*
X21921000Y-71000000D01*
X23622000Y-81026000D02*
X20583000Y-81026000D01*
X45212000Y-78486000D02*
X45212000Y-75438000D01*
X24384000Y-80264000D02*
X23622000Y-81026000D01*
D29*
X33528000Y-31750000D02*
X30480000Y-31750000D01*
D28*
X22040000Y-31750000D02*
X22040000Y-30480000D01*
X52794000Y-73960000D02*
X45258000Y-73960000D01*
X28693000Y-14469000D02*
X27178000Y-14469000D01*
X22020000Y-30500000D02*
X22040000Y-30480000D01*
X22040000Y-41148000D02*
X22040000Y-36000000D01*
X22000000Y-26000000D02*
X22000000Y-25244000D01*
X22000000Y-25244000D02*
X22055000Y-25189000D01*
X29718000Y-78232000D02*
X30734000Y-79248000D01*
X45212000Y-75438000D02*
X45212000Y-73914000D01*
X22040000Y-46000000D02*
X22040000Y-41148000D01*
X45258000Y-73960000D02*
X45212000Y-73914000D01*
X24375000Y-60960000D02*
X22080000Y-60960000D01*
D27*
X59985000Y-73960000D02*
X60000000Y-73945000D01*
D28*
X44958000Y-75184000D02*
X45212000Y-75438000D01*
X34544000Y-13208000D02*
X29972000Y-13208000D01*
X57404000Y-30480000D02*
X49482478Y-30480000D01*
X22080000Y-65550000D02*
X22080000Y-60960000D01*
X30988000Y-66539000D02*
X27187000Y-66539000D01*
X22055000Y-65575000D02*
X22080000Y-65550000D01*
D27*
X39268000Y-75794000D02*
X39878000Y-75184000D01*
D28*
X20583000Y-81026000D02*
X20583000Y-79493000D01*
X22080000Y-60960000D02*
X22080000Y-56000000D01*
X22055000Y-25189000D02*
X22055000Y-20574000D01*
X22080000Y-48260000D02*
X22080000Y-46040000D01*
%TO.N,+5V*%
X18500000Y-30500000D02*
X16940000Y-30500000D01*
X16975000Y-20574000D02*
X16975000Y-15500000D01*
X32004000Y-60960000D02*
X26425000Y-60960000D01*
X18462500Y-20500000D02*
X17049000Y-20500000D01*
X18475000Y-71000000D02*
X17095000Y-71000000D01*
X16975000Y-77681000D02*
X18542000Y-79248000D01*
X18542000Y-79248000D02*
X18533000Y-79257000D01*
X30988000Y-68589000D02*
X27677000Y-68589000D01*
X31242000Y-72390000D02*
X32249000Y-72390000D01*
X30988000Y-72136000D02*
X31242000Y-72390000D01*
X50015000Y-79025000D02*
X50000000Y-79040000D01*
X16920000Y-30480000D02*
X16920000Y-26000000D01*
X17095000Y-71000000D02*
X16975000Y-71120000D01*
D27*
X16920000Y-15555000D02*
X16975000Y-15500000D01*
D28*
X16975000Y-66000000D02*
X16975000Y-65067000D01*
X17000000Y-65042000D02*
X17000000Y-60960000D01*
X19050000Y-83058000D02*
X23876000Y-83058000D01*
X16960000Y-36000000D02*
X16960000Y-35364000D01*
X16920000Y-25498000D02*
X16975000Y-25443000D01*
X17054000Y-51000000D02*
X17000000Y-51054000D01*
X18533000Y-41000000D02*
X17108000Y-41000000D01*
X50000000Y-79040000D02*
X45915000Y-83125000D01*
X17000000Y-51054000D02*
X17000000Y-46040000D01*
X16975000Y-25443000D02*
X16975000Y-20574000D01*
X18533000Y-81026000D02*
X18533000Y-82541000D01*
X27677000Y-68589000D02*
X26162000Y-70104000D01*
X16940000Y-30500000D02*
X16920000Y-30480000D01*
X18533000Y-60960000D02*
X17000000Y-60960000D01*
X17049000Y-20500000D02*
X16975000Y-20574000D01*
X16960000Y-41148000D02*
X16960000Y-36000000D01*
X17000000Y-56000000D02*
X17000000Y-51054000D01*
X16960000Y-46000000D02*
X16960000Y-41148000D01*
X17000000Y-46040000D02*
X16960000Y-46000000D01*
X28515000Y-83125000D02*
X26162000Y-80772000D01*
X26425000Y-60960000D02*
X26425000Y-58937000D01*
X16920000Y-26000000D02*
X16920000Y-25498000D01*
X18533000Y-79257000D02*
X18533000Y-81026000D01*
X16975000Y-76000000D02*
X16975000Y-71120000D01*
X17000000Y-60960000D02*
X17000000Y-56000000D01*
X26162000Y-70104000D02*
X26162000Y-80772000D01*
X26416000Y-58928000D02*
X26425000Y-58937000D01*
X30988000Y-68589000D02*
X30988000Y-72136000D01*
X18475000Y-51000000D02*
X17054000Y-51000000D01*
X45915000Y-83125000D02*
X28515000Y-83125000D01*
X60000000Y-79025000D02*
X50015000Y-79025000D01*
X16975000Y-76000000D02*
X16975000Y-77681000D01*
X16960000Y-35364000D02*
X16920000Y-35324000D01*
X16975000Y-71120000D02*
X16975000Y-66000000D01*
X18533000Y-82541000D02*
X19050000Y-83058000D01*
X16975000Y-65067000D02*
X17000000Y-65042000D01*
D27*
X16960000Y-56040000D02*
X17000000Y-56000000D01*
D28*
X26162000Y-80772000D02*
X23876000Y-83058000D01*
X17108000Y-41000000D02*
X16960000Y-41148000D01*
X16920000Y-35324000D02*
X16920000Y-30480000D01*
%TO.N,+3.3V*%
X27178000Y-16519000D02*
X28947000Y-16519000D01*
X30226000Y-15240000D02*
X32004000Y-15240000D01*
X28947000Y-16519000D02*
X30226000Y-15240000D01*
%TO.N,Net-(F1-Pad1)*%
X37592000Y-72390000D02*
X37338000Y-72644000D01*
X37338000Y-72644000D02*
X36576000Y-73406000D01*
X36576000Y-73406000D02*
X36576000Y-74930000D01*
D27*
X38468000Y-75044000D02*
X38354000Y-74930000D01*
D28*
X38354000Y-74930000D02*
X33782000Y-74930000D01*
D27*
X33668000Y-76584000D02*
X33668000Y-75044000D01*
D28*
X36576000Y-74930000D02*
X38354000Y-74930000D01*
X39152500Y-72390000D02*
X37592000Y-72390000D01*
D27*
X38468000Y-76584000D02*
X38468000Y-75044000D01*
X33668000Y-75044000D02*
X33782000Y-74930000D01*
%TD*%
%TA.AperFunction,Conductor*%
%TO.N,GND*%
G36*
X63189039Y-11957685D02*
G01*
X63234794Y-12010489D01*
X63246000Y-12062000D01*
X63246000Y-83950000D01*
X63226315Y-84017039D01*
X63173511Y-84062794D01*
X63122000Y-84074000D01*
X46680284Y-84074000D01*
X46613245Y-84054315D01*
X46567490Y-84001511D01*
X46557546Y-83932353D01*
X46586571Y-83868797D01*
X46592602Y-83862319D01*
X46619782Y-83835139D01*
X46692139Y-83762782D01*
X46692139Y-83762780D01*
X46702347Y-83752573D01*
X46702348Y-83752570D01*
X50028102Y-80426818D01*
X50089425Y-80393333D01*
X50115783Y-80390499D01*
X50897871Y-80390499D01*
X50897872Y-80390499D01*
X50957483Y-80384091D01*
X51092331Y-80333796D01*
X51207546Y-80247546D01*
X51293796Y-80132331D01*
X51303554Y-80106169D01*
X51303555Y-80106167D01*
X51345426Y-80050233D01*
X51410891Y-80025816D01*
X51419737Y-80025500D01*
X58585859Y-80025500D01*
X58652898Y-80045185D01*
X58698653Y-80097989D01*
X58702030Y-80106140D01*
X58706204Y-80117331D01*
X58706205Y-80117332D01*
X58706206Y-80117335D01*
X58792452Y-80232544D01*
X58792455Y-80232547D01*
X58907664Y-80318793D01*
X58907671Y-80318797D01*
X59042517Y-80369091D01*
X59042516Y-80369091D01*
X59049444Y-80369835D01*
X59102127Y-80375500D01*
X60897872Y-80375499D01*
X60957483Y-80369091D01*
X61092331Y-80318796D01*
X61207546Y-80232546D01*
X61293796Y-80117331D01*
X61344091Y-79982483D01*
X61350500Y-79922873D01*
X61350499Y-78127128D01*
X61347809Y-78102104D01*
X61360216Y-78033345D01*
X61383415Y-78001173D01*
X62628729Y-76755860D01*
X62628733Y-76755858D01*
X62715858Y-76668733D01*
X62784311Y-76566286D01*
X62784312Y-76566285D01*
X62784313Y-76566282D01*
X62784315Y-76566279D01*
X62794672Y-76541272D01*
X62831463Y-76452451D01*
X62855500Y-76331607D01*
X62855500Y-76208393D01*
X62855500Y-70296394D01*
X62831463Y-70175548D01*
X62792570Y-70081654D01*
X62784312Y-70061716D01*
X62784307Y-70061707D01*
X62715858Y-69959267D01*
X62715855Y-69959263D01*
X62625637Y-69869045D01*
X62625606Y-69869016D01*
X60661819Y-67905229D01*
X60628334Y-67843906D01*
X60625500Y-67817548D01*
X60625500Y-24802000D01*
X60625500Y-24801998D01*
X60601463Y-24681152D01*
X60572557Y-24611368D01*
X60554312Y-24567319D01*
X60518778Y-24514139D01*
X60518692Y-24514010D01*
X60518692Y-24514011D01*
X60485858Y-24464871D01*
X60485855Y-24464868D01*
X60485853Y-24464865D01*
X60395637Y-24374649D01*
X60395606Y-24374620D01*
X59508154Y-23487168D01*
X59508134Y-23487146D01*
X59416689Y-23395701D01*
X59365465Y-23361475D01*
X59314243Y-23327249D01*
X59314242Y-23327248D01*
X59314239Y-23327246D01*
X59314236Y-23327245D01*
X59233748Y-23293907D01*
X59200409Y-23280097D01*
X59190383Y-23278103D01*
X59139985Y-23268078D01*
X59079566Y-23256060D01*
X59079563Y-23256060D01*
X59079562Y-23256060D01*
X59000673Y-23256060D01*
X58933634Y-23236375D01*
X58887879Y-23183571D01*
X58877935Y-23114413D01*
X58878200Y-23112662D01*
X58904500Y-22946610D01*
X58904500Y-22773389D01*
X58877402Y-22602299D01*
X58823873Y-22437555D01*
X58745232Y-22283212D01*
X58643414Y-22143072D01*
X58520928Y-22020586D01*
X58380788Y-21918768D01*
X58226445Y-21840127D01*
X58061701Y-21786598D01*
X58061699Y-21786597D01*
X58061698Y-21786597D01*
X57930271Y-21765781D01*
X57890611Y-21759500D01*
X56917389Y-21759500D01*
X56877728Y-21765781D01*
X56746302Y-21786597D01*
X56581552Y-21840128D01*
X56427211Y-21918768D01*
X56353917Y-21972020D01*
X56287072Y-22020586D01*
X56287070Y-22020588D01*
X56287069Y-22020588D01*
X56164588Y-22143069D01*
X56164588Y-22143070D01*
X56164586Y-22143072D01*
X56120859Y-22203256D01*
X56062768Y-22283211D01*
X55984128Y-22437552D01*
X55930597Y-22602302D01*
X55903500Y-22773389D01*
X55903500Y-22946610D01*
X55929800Y-23112662D01*
X55920845Y-23181956D01*
X55875849Y-23235408D01*
X55809098Y-23256047D01*
X55807327Y-23256060D01*
X33600673Y-23256060D01*
X33533634Y-23236375D01*
X33487879Y-23183571D01*
X33477935Y-23114413D01*
X33478200Y-23112662D01*
X33504500Y-22946610D01*
X33504500Y-22773389D01*
X33477402Y-22602299D01*
X33423873Y-22437555D01*
X33345232Y-22283212D01*
X33243414Y-22143072D01*
X33120928Y-22020586D01*
X32980788Y-21918768D01*
X32826445Y-21840127D01*
X32661701Y-21786598D01*
X32661699Y-21786597D01*
X32661698Y-21786597D01*
X32530271Y-21765781D01*
X32490611Y-21759500D01*
X31517389Y-21759500D01*
X31477728Y-21765781D01*
X31346302Y-21786597D01*
X31181552Y-21840128D01*
X31027211Y-21918768D01*
X30887073Y-22020585D01*
X30829761Y-22077897D01*
X30768437Y-22111381D01*
X30698745Y-22106396D01*
X30642812Y-22064525D01*
X30618396Y-21999060D01*
X30619422Y-21972020D01*
X30655538Y-21728550D01*
X30674823Y-21336000D01*
X30670507Y-21248147D01*
X30686878Y-21180223D01*
X30737373Y-21131931D01*
X30805960Y-21118606D01*
X30870864Y-21144477D01*
X30882039Y-21154381D01*
X30887072Y-21159414D01*
X31027212Y-21261232D01*
X31181555Y-21339873D01*
X31346299Y-21393402D01*
X31517389Y-21420500D01*
X31517390Y-21420500D01*
X32490610Y-21420500D01*
X32490611Y-21420500D01*
X32661701Y-21393402D01*
X32826445Y-21339873D01*
X32980788Y-21261232D01*
X33120928Y-21159414D01*
X33243414Y-21036928D01*
X33345232Y-20896788D01*
X33423873Y-20742445D01*
X33477402Y-20577701D01*
X33504500Y-20406611D01*
X33504500Y-20233389D01*
X55903500Y-20233389D01*
X55903500Y-20406610D01*
X55930597Y-20577697D01*
X55984128Y-20742447D01*
X56062768Y-20896788D01*
X56164586Y-21036928D01*
X56287072Y-21159414D01*
X56427212Y-21261232D01*
X56581555Y-21339873D01*
X56746299Y-21393402D01*
X56917389Y-21420500D01*
X56917390Y-21420500D01*
X57890610Y-21420500D01*
X57890611Y-21420500D01*
X58061701Y-21393402D01*
X58226445Y-21339873D01*
X58380788Y-21261232D01*
X58520928Y-21159414D01*
X58643414Y-21036928D01*
X58745232Y-20896788D01*
X58823873Y-20742445D01*
X58877402Y-20577701D01*
X58904500Y-20406611D01*
X58904500Y-20233389D01*
X58877402Y-20062299D01*
X58823873Y-19897555D01*
X58745232Y-19743212D01*
X58643414Y-19603072D01*
X58520928Y-19480586D01*
X58380788Y-19378768D01*
X58226445Y-19300127D01*
X58061701Y-19246598D01*
X58061699Y-19246597D01*
X58061698Y-19246597D01*
X57930271Y-19225781D01*
X57890611Y-19219500D01*
X56917389Y-19219500D01*
X56877728Y-19225781D01*
X56746302Y-19246597D01*
X56581552Y-19300128D01*
X56427211Y-19378768D01*
X56347256Y-19436859D01*
X56287072Y-19480586D01*
X56287070Y-19480588D01*
X56287069Y-19480588D01*
X56164588Y-19603069D01*
X56164588Y-19603070D01*
X56164586Y-19603072D01*
X56120859Y-19663256D01*
X56062768Y-19743211D01*
X55984128Y-19897552D01*
X55930597Y-20062302D01*
X55903500Y-20233389D01*
X33504500Y-20233389D01*
X33477402Y-20062299D01*
X33423873Y-19897555D01*
X33345232Y-19743212D01*
X33243414Y-19603072D01*
X33120928Y-19480586D01*
X32980788Y-19378768D01*
X32826445Y-19300127D01*
X32661701Y-19246598D01*
X32661699Y-19246597D01*
X32661698Y-19246597D01*
X32530271Y-19225781D01*
X32490611Y-19219500D01*
X31517389Y-19219500D01*
X31477728Y-19225781D01*
X31346302Y-19246597D01*
X31181552Y-19300128D01*
X31027211Y-19378768D01*
X30947256Y-19436859D01*
X30887072Y-19480586D01*
X30887070Y-19480588D01*
X30887069Y-19480588D01*
X30764588Y-19603069D01*
X30764588Y-19603070D01*
X30764586Y-19603072D01*
X30720859Y-19663256D01*
X30662768Y-19743211D01*
X30608548Y-19849624D01*
X30560573Y-19900420D01*
X30492752Y-19917215D01*
X30426617Y-19894677D01*
X30383166Y-19839962D01*
X30381311Y-19835103D01*
X30369976Y-19803423D01*
X30201937Y-19448135D01*
X29999890Y-19111041D01*
X29765771Y-18795367D01*
X29669930Y-18689622D01*
X29669929Y-18689622D01*
X28071617Y-20287934D01*
X27988543Y-20179669D01*
X27826331Y-20017457D01*
X27718065Y-19934381D01*
X29316376Y-18336069D01*
X29316376Y-18336068D01*
X29210632Y-18240228D01*
X28894958Y-18006109D01*
X28557864Y-17804062D01*
X28455388Y-17755595D01*
X28403201Y-17709137D01*
X28398805Y-17693389D01*
X30503500Y-17693389D01*
X30503500Y-17866611D01*
X30530598Y-18037701D01*
X30584127Y-18202445D01*
X30662768Y-18356788D01*
X30764586Y-18496928D01*
X30887072Y-18619414D01*
X31027212Y-18721232D01*
X31181555Y-18799873D01*
X31346299Y-18853402D01*
X31517389Y-18880500D01*
X31517390Y-18880500D01*
X32490610Y-18880500D01*
X32490611Y-18880500D01*
X32661701Y-18853402D01*
X32826445Y-18799873D01*
X32980788Y-18721232D01*
X33120928Y-18619414D01*
X33243414Y-18496928D01*
X33345232Y-18356788D01*
X33423873Y-18202445D01*
X33477402Y-18037701D01*
X33504500Y-17866611D01*
X33504500Y-17693389D01*
X55903500Y-17693389D01*
X55903500Y-17866611D01*
X55930598Y-18037701D01*
X55984127Y-18202445D01*
X56062768Y-18356788D01*
X56164586Y-18496928D01*
X56287072Y-18619414D01*
X56427212Y-18721232D01*
X56581555Y-18799873D01*
X56746299Y-18853402D01*
X56917389Y-18880500D01*
X56917390Y-18880500D01*
X57890610Y-18880500D01*
X57890611Y-18880500D01*
X58061701Y-18853402D01*
X58226445Y-18799873D01*
X58380788Y-18721232D01*
X58520928Y-18619414D01*
X58643414Y-18496928D01*
X58745232Y-18356788D01*
X58823873Y-18202445D01*
X58877402Y-18037701D01*
X58904500Y-17866611D01*
X58904500Y-17693389D01*
X58877402Y-17522299D01*
X58823873Y-17357555D01*
X58745232Y-17203212D01*
X58643414Y-17063072D01*
X58520928Y-16940586D01*
X58380788Y-16838768D01*
X58226445Y-16760127D01*
X58061701Y-16706598D01*
X58061699Y-16706597D01*
X58061698Y-16706597D01*
X57930271Y-16685781D01*
X57890611Y-16679500D01*
X56917389Y-16679500D01*
X56877728Y-16685781D01*
X56746302Y-16706597D01*
X56581552Y-16760128D01*
X56427211Y-16838768D01*
X56351181Y-16894008D01*
X56287072Y-16940586D01*
X56287070Y-16940588D01*
X56287069Y-16940588D01*
X56164588Y-17063069D01*
X56164588Y-17063070D01*
X56164586Y-17063072D01*
X56120859Y-17123256D01*
X56062768Y-17203211D01*
X55984128Y-17357552D01*
X55930597Y-17522302D01*
X55903500Y-17693389D01*
X33504500Y-17693389D01*
X33477402Y-17522299D01*
X33423873Y-17357555D01*
X33345232Y-17203212D01*
X33243414Y-17063072D01*
X33120928Y-16940586D01*
X32980788Y-16838768D01*
X32826445Y-16760127D01*
X32661701Y-16706598D01*
X32661699Y-16706597D01*
X32661698Y-16706597D01*
X32530271Y-16685781D01*
X32490611Y-16679500D01*
X31517389Y-16679500D01*
X31477728Y-16685781D01*
X31346302Y-16706597D01*
X31181552Y-16760128D01*
X31027211Y-16838768D01*
X30951181Y-16894008D01*
X30887072Y-16940586D01*
X30887070Y-16940588D01*
X30887069Y-16940588D01*
X30764588Y-17063069D01*
X30764588Y-17063070D01*
X30764586Y-17063072D01*
X30720859Y-17123256D01*
X30662768Y-17203211D01*
X30584128Y-17357552D01*
X30530597Y-17522302D01*
X30503500Y-17693389D01*
X28398805Y-17693389D01*
X28384416Y-17641840D01*
X28404997Y-17575070D01*
X28458408Y-17530026D01*
X28508405Y-17519500D01*
X29045542Y-17519500D01*
X29064870Y-17515655D01*
X29142188Y-17500275D01*
X29238836Y-17481051D01*
X29292165Y-17458961D01*
X29420914Y-17405632D01*
X29584782Y-17296139D01*
X29724139Y-17156782D01*
X29724140Y-17156779D01*
X29731206Y-17149714D01*
X29731208Y-17149710D01*
X30591593Y-16289326D01*
X30652914Y-16255843D01*
X30722606Y-16260827D01*
X30753585Y-16277744D01*
X30761669Y-16283796D01*
X30761670Y-16283796D01*
X30761671Y-16283797D01*
X30896517Y-16334091D01*
X30896516Y-16334091D01*
X30903444Y-16334835D01*
X30956127Y-16340500D01*
X33051872Y-16340499D01*
X33111483Y-16334091D01*
X33246331Y-16283796D01*
X33361546Y-16197546D01*
X33447796Y-16082331D01*
X33498091Y-15947483D01*
X33504500Y-15887873D01*
X33504499Y-14989999D01*
X55929884Y-14989999D01*
X55929885Y-14990000D01*
X57088314Y-14990000D01*
X57083920Y-14994394D01*
X57031259Y-15085606D01*
X57004000Y-15187339D01*
X57004000Y-15292661D01*
X57031259Y-15394394D01*
X57083920Y-15485606D01*
X57088314Y-15490000D01*
X55929885Y-15490000D01*
X55931085Y-15497584D01*
X55984591Y-15662255D01*
X56063195Y-15816524D01*
X56164967Y-15956602D01*
X56287397Y-16079032D01*
X56427475Y-16180804D01*
X56581742Y-16259408D01*
X56746415Y-16312914D01*
X56917429Y-16340000D01*
X57154000Y-16340000D01*
X57154000Y-15555686D01*
X57158394Y-15560080D01*
X57249606Y-15612741D01*
X57351339Y-15640000D01*
X57456661Y-15640000D01*
X57558394Y-15612741D01*
X57649606Y-15560080D01*
X57654000Y-15555686D01*
X57654000Y-16340000D01*
X57890571Y-16340000D01*
X58061584Y-16312914D01*
X58226257Y-16259408D01*
X58380524Y-16180804D01*
X58520602Y-16079032D01*
X58643032Y-15956602D01*
X58744804Y-15816524D01*
X58823408Y-15662255D01*
X58876914Y-15497584D01*
X58878115Y-15490000D01*
X57719686Y-15490000D01*
X57724080Y-15485606D01*
X57776741Y-15394394D01*
X57804000Y-15292661D01*
X57804000Y-15187339D01*
X57776741Y-15085606D01*
X57724080Y-14994394D01*
X57719686Y-14990000D01*
X58878115Y-14990000D01*
X58878115Y-14989999D01*
X58876914Y-14982415D01*
X58823408Y-14817744D01*
X58744804Y-14663475D01*
X58643032Y-14523397D01*
X58520602Y-14400967D01*
X58380524Y-14299195D01*
X58226257Y-14220591D01*
X58061584Y-14167085D01*
X57890571Y-14140000D01*
X57654000Y-14140000D01*
X57654000Y-14924314D01*
X57649606Y-14919920D01*
X57558394Y-14867259D01*
X57456661Y-14840000D01*
X57351339Y-14840000D01*
X57249606Y-14867259D01*
X57158394Y-14919920D01*
X57154000Y-14924314D01*
X57154000Y-14140000D01*
X56917429Y-14140000D01*
X56746415Y-14167085D01*
X56581742Y-14220591D01*
X56427475Y-14299195D01*
X56287397Y-14400967D01*
X56164967Y-14523397D01*
X56063195Y-14663475D01*
X55984591Y-14817744D01*
X55931085Y-14982415D01*
X55929884Y-14989999D01*
X33504499Y-14989999D01*
X33504499Y-14592128D01*
X33498091Y-14532517D01*
X33494689Y-14523397D01*
X33447797Y-14397671D01*
X33447793Y-14397664D01*
X33361547Y-14282455D01*
X33361544Y-14282452D01*
X33246335Y-14196206D01*
X33246328Y-14196202D01*
X33111482Y-14145908D01*
X33111483Y-14145908D01*
X33051883Y-14139501D01*
X33051881Y-14139500D01*
X33051873Y-14139500D01*
X33051864Y-14139500D01*
X30956129Y-14139500D01*
X30956123Y-14139501D01*
X30896516Y-14145908D01*
X30761671Y-14196202D01*
X30761668Y-14196204D01*
X30736872Y-14214767D01*
X30671408Y-14239184D01*
X30662561Y-14239500D01*
X30127455Y-14239500D01*
X30030812Y-14258724D01*
X29934167Y-14277947D01*
X29934161Y-14277949D01*
X29880834Y-14300037D01*
X29880834Y-14300038D01*
X29835315Y-14318892D01*
X29752089Y-14353366D01*
X29752079Y-14353371D01*
X29588219Y-14462859D01*
X29527682Y-14523397D01*
X29448861Y-14602218D01*
X29448858Y-14602221D01*
X28568899Y-15482181D01*
X28507576Y-15515666D01*
X28481218Y-15518500D01*
X28263523Y-15518500D01*
X28196484Y-15498815D01*
X28150729Y-15446011D01*
X28140785Y-15376853D01*
X28169810Y-15313297D01*
X28175842Y-15306819D01*
X28220315Y-15262345D01*
X28312356Y-15113124D01*
X28312358Y-15113119D01*
X28367505Y-14946697D01*
X28367506Y-14946690D01*
X28377999Y-14843986D01*
X28378000Y-14843973D01*
X28378000Y-14719000D01*
X25978001Y-14719000D01*
X25978001Y-14843986D01*
X25988494Y-14946697D01*
X26043641Y-15113119D01*
X26043643Y-15113124D01*
X26135684Y-15262345D01*
X26259655Y-15386316D01*
X26259659Y-15386319D01*
X26262656Y-15388168D01*
X26264279Y-15389972D01*
X26265323Y-15390798D01*
X26265181Y-15390976D01*
X26309381Y-15440116D01*
X26320602Y-15509079D01*
X26292759Y-15573161D01*
X26262661Y-15599241D01*
X26259349Y-15601283D01*
X26259343Y-15601288D01*
X26135289Y-15725342D01*
X26043187Y-15874663D01*
X26043185Y-15874668D01*
X26038806Y-15887883D01*
X25988001Y-16041203D01*
X25988001Y-16041204D01*
X25988000Y-16041204D01*
X25977500Y-16143983D01*
X25977500Y-16894001D01*
X25977501Y-16894019D01*
X25988000Y-16996796D01*
X25988001Y-16996799D01*
X26043185Y-17163331D01*
X26043189Y-17163340D01*
X26069790Y-17206467D01*
X26088230Y-17273860D01*
X26067307Y-17340523D01*
X26013665Y-17385292D01*
X25982447Y-17394221D01*
X25888690Y-17408129D01*
X25507450Y-17503625D01*
X25137440Y-17636016D01*
X25137424Y-17636023D01*
X24782135Y-17804062D01*
X24445041Y-18006109D01*
X24129368Y-18240228D01*
X24023622Y-18336069D01*
X25621934Y-19934381D01*
X25513669Y-20017457D01*
X25351457Y-20179669D01*
X25268381Y-20287934D01*
X23670069Y-18689622D01*
X23574228Y-18795368D01*
X23340109Y-19111041D01*
X23138062Y-19448135D01*
X22970023Y-19803424D01*
X22970016Y-19803440D01*
X22837625Y-20173450D01*
X22742129Y-20554691D01*
X22684461Y-20943449D01*
X22665176Y-21336000D01*
X22684461Y-21728550D01*
X22742129Y-22117308D01*
X22837625Y-22498549D01*
X22970016Y-22868559D01*
X22970023Y-22868575D01*
X23138062Y-23223864D01*
X23340109Y-23560958D01*
X23574228Y-23876632D01*
X23670068Y-23982376D01*
X23670069Y-23982376D01*
X25268381Y-22384064D01*
X25351457Y-22492331D01*
X25513669Y-22654543D01*
X25621934Y-22737617D01*
X24023622Y-24335929D01*
X24023622Y-24335930D01*
X24129367Y-24431771D01*
X24445041Y-24665890D01*
X24782135Y-24867937D01*
X25137424Y-25035976D01*
X25137440Y-25035983D01*
X25507450Y-25168374D01*
X25888691Y-25263870D01*
X26277449Y-25321538D01*
X26670000Y-25340823D01*
X27062550Y-25321538D01*
X27451308Y-25263870D01*
X27832549Y-25168374D01*
X28202559Y-25035983D01*
X28202575Y-25035976D01*
X28557864Y-24867937D01*
X28693331Y-24786741D01*
X28760953Y-24769159D01*
X28827345Y-24790928D01*
X28871428Y-24845135D01*
X28879207Y-24914571D01*
X28878698Y-24917289D01*
X28874500Y-24938395D01*
X28874500Y-27061611D01*
X28898535Y-27182444D01*
X28898540Y-27182461D01*
X28945686Y-27296284D01*
X28949070Y-27301347D01*
X28955316Y-27310695D01*
X28955319Y-27310703D01*
X28955321Y-27310702D01*
X29014141Y-27398732D01*
X29014144Y-27398736D01*
X29105586Y-27490178D01*
X29105608Y-27490198D01*
X29807576Y-28192166D01*
X29807605Y-28192197D01*
X29897824Y-28282416D01*
X29897827Y-28282418D01*
X29974750Y-28333816D01*
X30000270Y-28350869D01*
X30000272Y-28350870D01*
X30000275Y-28350872D01*
X30062029Y-28376451D01*
X30114108Y-28398023D01*
X30174531Y-28410041D01*
X30234953Y-28422060D01*
X30234954Y-28422060D01*
X30538514Y-28422060D01*
X30605553Y-28441745D01*
X30648998Y-28489764D01*
X30662766Y-28516786D01*
X30693357Y-28558890D01*
X30764586Y-28656928D01*
X30887072Y-28779414D01*
X31027212Y-28881232D01*
X31181555Y-28959873D01*
X31346299Y-29013402D01*
X31517389Y-29040500D01*
X31517390Y-29040500D01*
X32490610Y-29040500D01*
X32490611Y-29040500D01*
X32661701Y-29013402D01*
X32826445Y-28959873D01*
X32980788Y-28881232D01*
X33120928Y-28779414D01*
X33243414Y-28656928D01*
X33345232Y-28516788D01*
X33423873Y-28362445D01*
X33477402Y-28197701D01*
X33504500Y-28026611D01*
X33504500Y-27853389D01*
X33477402Y-27682299D01*
X33423873Y-27517555D01*
X33345232Y-27363212D01*
X33243414Y-27223072D01*
X33120928Y-27100586D01*
X32980788Y-26998768D01*
X32826445Y-26920127D01*
X32661701Y-26866598D01*
X32661699Y-26866597D01*
X32661698Y-26866597D01*
X32530271Y-26845781D01*
X32490611Y-26839500D01*
X31517389Y-26839500D01*
X31477728Y-26845781D01*
X31346302Y-26866597D01*
X31181552Y-26920128D01*
X31027211Y-26998768D01*
X30947256Y-27056859D01*
X30887072Y-27100586D01*
X30887070Y-27100588D01*
X30887069Y-27100588D01*
X30852917Y-27134741D01*
X30791594Y-27168226D01*
X30765236Y-27171060D01*
X30607012Y-27171060D01*
X30539973Y-27151375D01*
X30519331Y-27134741D01*
X30161819Y-26777229D01*
X30128334Y-26715906D01*
X30125500Y-26689548D01*
X30125500Y-25310452D01*
X30145185Y-25243413D01*
X30161813Y-25222776D01*
X30315003Y-25069586D01*
X30376323Y-25036104D01*
X30446014Y-25041088D01*
X30501948Y-25082959D01*
X30526365Y-25148424D01*
X30525154Y-25176667D01*
X30503500Y-25313388D01*
X30503500Y-25486610D01*
X30530216Y-25655293D01*
X30530598Y-25657701D01*
X30584127Y-25822445D01*
X30662768Y-25976788D01*
X30764586Y-26116928D01*
X30887072Y-26239414D01*
X31027212Y-26341232D01*
X31181555Y-26419873D01*
X31346299Y-26473402D01*
X31517389Y-26500500D01*
X31517390Y-26500500D01*
X32490610Y-26500500D01*
X32490611Y-26500500D01*
X32661701Y-26473402D01*
X32826445Y-26419873D01*
X32980788Y-26341232D01*
X33120928Y-26239414D01*
X33243414Y-26116928D01*
X33345232Y-25976788D01*
X33345609Y-25976047D01*
X33359002Y-25949764D01*
X33406976Y-25898969D01*
X33469486Y-25882060D01*
X34241047Y-25882060D01*
X34301469Y-25870041D01*
X34361892Y-25858023D01*
X34361895Y-25858021D01*
X34361898Y-25858021D01*
X34395227Y-25844214D01*
X34395226Y-25844214D01*
X34395232Y-25844212D01*
X34475726Y-25810872D01*
X34544987Y-25764592D01*
X34578173Y-25742418D01*
X34665298Y-25655293D01*
X34665298Y-25655291D01*
X34675506Y-25645084D01*
X34675507Y-25645081D01*
X35327212Y-24993379D01*
X35388535Y-24959894D01*
X35414893Y-24957060D01*
X55820115Y-24957060D01*
X55887154Y-24976745D01*
X55932909Y-25029549D01*
X55942853Y-25098707D01*
X55938047Y-25119370D01*
X55930598Y-25142299D01*
X55930597Y-25142302D01*
X55930597Y-25142304D01*
X55903500Y-25313389D01*
X55903500Y-25486610D01*
X55930216Y-25655293D01*
X55930598Y-25657701D01*
X55984127Y-25822445D01*
X56062768Y-25976788D01*
X56164586Y-26116928D01*
X56287072Y-26239414D01*
X56427212Y-26341232D01*
X56581555Y-26419873D01*
X56746299Y-26473402D01*
X56917389Y-26500500D01*
X56917390Y-26500500D01*
X57890610Y-26500500D01*
X57890611Y-26500500D01*
X58061701Y-26473402D01*
X58226445Y-26419873D01*
X58380788Y-26341232D01*
X58520928Y-26239414D01*
X58643414Y-26116928D01*
X58650182Y-26107612D01*
X58705509Y-26064947D01*
X58775122Y-26058966D01*
X58836918Y-26091571D01*
X58871277Y-26152408D01*
X58874500Y-26180497D01*
X58874500Y-27159502D01*
X58854815Y-27226541D01*
X58802011Y-27272296D01*
X58732853Y-27282240D01*
X58669297Y-27253215D01*
X58650183Y-27232388D01*
X58643418Y-27223078D01*
X58643414Y-27223072D01*
X58520928Y-27100586D01*
X58380788Y-26998768D01*
X58226445Y-26920127D01*
X58061701Y-26866598D01*
X58061699Y-26866597D01*
X58061698Y-26866597D01*
X57930271Y-26845781D01*
X57890611Y-26839500D01*
X56917389Y-26839500D01*
X56877728Y-26845781D01*
X56746302Y-26866597D01*
X56581552Y-26920128D01*
X56427211Y-26998768D01*
X56347256Y-27056859D01*
X56287072Y-27100586D01*
X56287070Y-27100588D01*
X56287069Y-27100588D01*
X56164588Y-27223069D01*
X56164588Y-27223070D01*
X56164586Y-27223072D01*
X56127655Y-27273903D01*
X56062768Y-27363211D01*
X55984128Y-27517552D01*
X55930597Y-27682302D01*
X55903500Y-27853389D01*
X55903500Y-28026610D01*
X55930216Y-28195293D01*
X55930598Y-28197701D01*
X55984127Y-28362445D01*
X56062768Y-28516788D01*
X56164586Y-28656928D01*
X56287072Y-28779414D01*
X56427212Y-28881232D01*
X56581555Y-28959873D01*
X56746299Y-29013402D01*
X56917389Y-29040500D01*
X56917390Y-29040500D01*
X57890610Y-29040500D01*
X57890611Y-29040500D01*
X58061701Y-29013402D01*
X58140184Y-28987900D01*
X58210022Y-28985906D01*
X58269855Y-29021986D01*
X58300684Y-29084686D01*
X58302500Y-29105832D01*
X58302500Y-29314692D01*
X58282815Y-29381731D01*
X58230011Y-29427486D01*
X58160853Y-29437430D01*
X58140182Y-29432623D01*
X58061587Y-29407086D01*
X57890571Y-29380000D01*
X57654000Y-29380000D01*
X57654000Y-30164314D01*
X57649606Y-30159920D01*
X57558394Y-30107259D01*
X57456661Y-30080000D01*
X57351339Y-30080000D01*
X57249606Y-30107259D01*
X57158394Y-30159920D01*
X57154000Y-30164314D01*
X57154000Y-29380000D01*
X56917429Y-29380000D01*
X56746415Y-29407085D01*
X56581742Y-29460591D01*
X56427475Y-29539195D01*
X56287397Y-29640967D01*
X56164967Y-29763397D01*
X56063195Y-29903475D01*
X55984591Y-30057744D01*
X55931085Y-30222415D01*
X55929884Y-30229999D01*
X55929885Y-30230000D01*
X57088314Y-30230000D01*
X57083920Y-30234394D01*
X57031259Y-30325606D01*
X57004000Y-30427339D01*
X57004000Y-30532661D01*
X57031259Y-30634394D01*
X57083920Y-30725606D01*
X57088314Y-30730000D01*
X55929885Y-30730000D01*
X55931085Y-30737584D01*
X55984591Y-30902255D01*
X56063198Y-31056528D01*
X56115978Y-31129175D01*
X56139458Y-31194982D01*
X56123632Y-31263035D01*
X56073526Y-31311730D01*
X56015660Y-31326060D01*
X54346829Y-31326060D01*
X54286411Y-31338078D01*
X54248699Y-31345579D01*
X54225990Y-31350096D01*
X54225988Y-31350097D01*
X54192647Y-31363907D01*
X54112158Y-31397245D01*
X54112149Y-31397250D01*
X54080115Y-31418656D01*
X54080114Y-31418657D01*
X54009708Y-31465700D01*
X53975538Y-31499871D01*
X53922582Y-31552827D01*
X53922579Y-31552830D01*
X35669270Y-49806139D01*
X35669267Y-49806142D01*
X35625704Y-49849704D01*
X35582142Y-49893266D01*
X35554854Y-49934106D01*
X35554853Y-49934105D01*
X35513689Y-49995712D01*
X35513685Y-49995719D01*
X35466540Y-50109538D01*
X35466537Y-50109546D01*
X35443931Y-50223204D01*
X35443929Y-50223212D01*
X35442501Y-50230388D01*
X35442500Y-50230399D01*
X35442500Y-62547312D01*
X35422815Y-62614351D01*
X35410650Y-62630284D01*
X35335466Y-62713784D01*
X35240821Y-62877715D01*
X35240818Y-62877722D01*
X35184460Y-63051176D01*
X35182326Y-63057744D01*
X35162540Y-63246000D01*
X35182326Y-63434256D01*
X35182327Y-63434259D01*
X35240818Y-63614277D01*
X35240821Y-63614284D01*
X35335467Y-63778216D01*
X35462129Y-63918888D01*
X35615265Y-64030148D01*
X35615270Y-64030151D01*
X35788192Y-64107142D01*
X35788197Y-64107144D01*
X35973354Y-64146500D01*
X35973355Y-64146500D01*
X36162644Y-64146500D01*
X36162646Y-64146500D01*
X36347803Y-64107144D01*
X36520730Y-64030151D01*
X36673871Y-63918888D01*
X36800533Y-63778216D01*
X36895179Y-63614284D01*
X36953674Y-63434256D01*
X36973460Y-63246000D01*
X36953674Y-63057744D01*
X36895179Y-62877716D01*
X36800533Y-62713784D01*
X36725350Y-62630284D01*
X36695120Y-62567292D01*
X36693500Y-62547312D01*
X36693500Y-50602452D01*
X36713185Y-50535413D01*
X36729819Y-50514771D01*
X54631211Y-32613379D01*
X54692534Y-32579894D01*
X54718892Y-32577060D01*
X55820115Y-32577060D01*
X55887154Y-32596745D01*
X55932909Y-32649549D01*
X55942853Y-32718707D01*
X55938047Y-32739370D01*
X55930598Y-32762299D01*
X55903500Y-32933389D01*
X55903500Y-33106611D01*
X55930598Y-33277701D01*
X55984127Y-33442445D01*
X56062768Y-33596788D01*
X56164586Y-33736928D01*
X56287072Y-33859414D01*
X56427212Y-33961232D01*
X56581555Y-34039873D01*
X56746299Y-34093402D01*
X56917389Y-34120500D01*
X56917390Y-34120500D01*
X57890610Y-34120500D01*
X57890611Y-34120500D01*
X58061701Y-34093402D01*
X58226445Y-34039873D01*
X58380788Y-33961232D01*
X58520928Y-33859414D01*
X58643414Y-33736928D01*
X58650182Y-33727612D01*
X58705509Y-33684947D01*
X58775122Y-33678966D01*
X58836918Y-33711571D01*
X58871277Y-33772408D01*
X58874500Y-33800497D01*
X58874500Y-34779502D01*
X58854815Y-34846541D01*
X58802011Y-34892296D01*
X58732853Y-34902240D01*
X58669297Y-34873215D01*
X58650183Y-34852388D01*
X58643418Y-34843078D01*
X58643414Y-34843072D01*
X58520928Y-34720586D01*
X58380788Y-34618768D01*
X58226445Y-34540127D01*
X58061701Y-34486598D01*
X58061699Y-34486597D01*
X58061698Y-34486597D01*
X57930271Y-34465781D01*
X57890611Y-34459500D01*
X56917389Y-34459500D01*
X56877728Y-34465781D01*
X56746302Y-34486597D01*
X56581552Y-34540128D01*
X56427211Y-34618768D01*
X56357573Y-34669364D01*
X56287072Y-34720586D01*
X56287070Y-34720588D01*
X56287069Y-34720588D01*
X56164588Y-34843069D01*
X56164588Y-34843070D01*
X56164586Y-34843072D01*
X56164582Y-34843078D01*
X56062768Y-34983211D01*
X55984128Y-35137552D01*
X55930597Y-35302302D01*
X55921741Y-35358219D01*
X55903500Y-35473389D01*
X55903500Y-35646611D01*
X55930598Y-35817701D01*
X55984127Y-35982445D01*
X56062768Y-36136788D01*
X56164586Y-36276928D01*
X56287072Y-36399414D01*
X56427212Y-36501232D01*
X56581555Y-36579873D01*
X56746299Y-36633402D01*
X56917389Y-36660500D01*
X56917390Y-36660500D01*
X57890610Y-36660500D01*
X57890611Y-36660500D01*
X58061701Y-36633402D01*
X58226445Y-36579873D01*
X58380788Y-36501232D01*
X58520928Y-36399414D01*
X58643414Y-36276928D01*
X58650182Y-36267612D01*
X58705509Y-36224947D01*
X58775122Y-36218966D01*
X58836918Y-36251571D01*
X58871277Y-36312408D01*
X58874500Y-36340497D01*
X58874500Y-37319502D01*
X58854815Y-37386541D01*
X58802011Y-37432296D01*
X58732853Y-37442240D01*
X58669297Y-37413215D01*
X58650183Y-37392388D01*
X58643418Y-37383078D01*
X58643414Y-37383072D01*
X58520928Y-37260586D01*
X58380788Y-37158768D01*
X58226445Y-37080127D01*
X58061701Y-37026598D01*
X58061699Y-37026597D01*
X58061698Y-37026597D01*
X57930271Y-37005781D01*
X57890611Y-36999500D01*
X56917389Y-36999500D01*
X56877728Y-37005781D01*
X56746302Y-37026597D01*
X56581552Y-37080128D01*
X56427211Y-37158768D01*
X56360078Y-37207544D01*
X56287072Y-37260586D01*
X56287070Y-37260588D01*
X56287069Y-37260588D01*
X56164588Y-37383069D01*
X56164588Y-37383070D01*
X56164586Y-37383072D01*
X56142686Y-37413215D01*
X56062768Y-37523211D01*
X55984128Y-37677552D01*
X55930597Y-37842302D01*
X55903500Y-38013389D01*
X55903500Y-38186611D01*
X55930598Y-38357701D01*
X55984127Y-38522445D01*
X56062768Y-38676788D01*
X56164586Y-38816928D01*
X56287072Y-38939414D01*
X56427212Y-39041232D01*
X56581555Y-39119873D01*
X56746299Y-39173402D01*
X56917389Y-39200500D01*
X56917390Y-39200500D01*
X57890610Y-39200500D01*
X57890611Y-39200500D01*
X58061701Y-39173402D01*
X58226445Y-39119873D01*
X58380788Y-39041232D01*
X58520928Y-38939414D01*
X58643414Y-38816928D01*
X58650182Y-38807612D01*
X58705509Y-38764947D01*
X58775122Y-38758966D01*
X58836918Y-38791571D01*
X58871277Y-38852408D01*
X58874500Y-38880497D01*
X58874500Y-39859502D01*
X58854815Y-39926541D01*
X58802011Y-39972296D01*
X58732853Y-39982240D01*
X58669297Y-39953215D01*
X58650183Y-39932388D01*
X58643418Y-39923078D01*
X58643414Y-39923072D01*
X58520928Y-39800586D01*
X58380788Y-39698768D01*
X58226445Y-39620127D01*
X58061701Y-39566598D01*
X58061699Y-39566597D01*
X58061698Y-39566597D01*
X57930271Y-39545781D01*
X57890611Y-39539500D01*
X56917389Y-39539500D01*
X56877728Y-39545781D01*
X56746302Y-39566597D01*
X56581552Y-39620128D01*
X56427211Y-39698768D01*
X56363486Y-39745068D01*
X56287072Y-39800586D01*
X56287070Y-39800588D01*
X56287069Y-39800588D01*
X56164588Y-39923069D01*
X56164588Y-39923070D01*
X56164586Y-39923072D01*
X56164582Y-39923078D01*
X56062768Y-40063211D01*
X55984128Y-40217552D01*
X55930597Y-40382302D01*
X55903500Y-40553389D01*
X55903500Y-40726611D01*
X55930598Y-40897701D01*
X55984127Y-41062445D01*
X56062768Y-41216788D01*
X56164586Y-41356928D01*
X56287072Y-41479414D01*
X56427212Y-41581232D01*
X56581555Y-41659873D01*
X56746299Y-41713402D01*
X56917389Y-41740500D01*
X56917390Y-41740500D01*
X57890610Y-41740500D01*
X57890611Y-41740500D01*
X58061701Y-41713402D01*
X58226445Y-41659873D01*
X58380788Y-41581232D01*
X58520928Y-41479414D01*
X58643414Y-41356928D01*
X58650182Y-41347612D01*
X58705509Y-41304947D01*
X58775122Y-41298966D01*
X58836918Y-41331571D01*
X58871277Y-41392408D01*
X58874500Y-41420497D01*
X58874500Y-42399502D01*
X58854815Y-42466541D01*
X58802011Y-42512296D01*
X58732853Y-42522240D01*
X58669297Y-42493215D01*
X58650183Y-42472388D01*
X58643418Y-42463078D01*
X58643414Y-42463072D01*
X58520928Y-42340586D01*
X58380788Y-42238768D01*
X58226445Y-42160127D01*
X58061701Y-42106598D01*
X58061699Y-42106597D01*
X58061698Y-42106597D01*
X57930271Y-42085781D01*
X57890611Y-42079500D01*
X56917389Y-42079500D01*
X56877728Y-42085781D01*
X56746302Y-42106597D01*
X56581552Y-42160128D01*
X56427211Y-42238768D01*
X56410929Y-42250598D01*
X56287072Y-42340586D01*
X56287070Y-42340588D01*
X56287069Y-42340588D01*
X56164588Y-42463069D01*
X56164588Y-42463070D01*
X56164586Y-42463072D01*
X56164582Y-42463078D01*
X56062768Y-42603211D01*
X55984128Y-42757552D01*
X55930597Y-42922302D01*
X55903500Y-43093389D01*
X55903500Y-43266611D01*
X55930598Y-43437701D01*
X55984127Y-43602445D01*
X56062768Y-43756788D01*
X56164586Y-43896928D01*
X56287072Y-44019414D01*
X56427212Y-44121232D01*
X56581555Y-44199873D01*
X56746299Y-44253402D01*
X56917389Y-44280500D01*
X56917390Y-44280500D01*
X57890610Y-44280500D01*
X57890611Y-44280500D01*
X58061701Y-44253402D01*
X58226445Y-44199873D01*
X58380788Y-44121232D01*
X58520928Y-44019414D01*
X58643414Y-43896928D01*
X58650182Y-43887612D01*
X58705509Y-43844947D01*
X58775122Y-43838966D01*
X58836918Y-43871571D01*
X58871277Y-43932408D01*
X58874500Y-43960497D01*
X58874500Y-44939502D01*
X58854815Y-45006541D01*
X58802011Y-45052296D01*
X58732853Y-45062240D01*
X58669297Y-45033215D01*
X58650183Y-45012388D01*
X58643418Y-45003078D01*
X58643414Y-45003072D01*
X58520928Y-44880586D01*
X58380788Y-44778768D01*
X58226445Y-44700127D01*
X58061701Y-44646598D01*
X58061699Y-44646597D01*
X58061698Y-44646597D01*
X57930271Y-44625781D01*
X57890611Y-44619500D01*
X56917389Y-44619500D01*
X56877728Y-44625781D01*
X56746302Y-44646597D01*
X56581552Y-44700128D01*
X56427211Y-44778768D01*
X56362252Y-44825964D01*
X56287072Y-44880586D01*
X56287070Y-44880588D01*
X56287069Y-44880588D01*
X56164588Y-45003069D01*
X56164588Y-45003070D01*
X56164586Y-45003072D01*
X56128823Y-45052296D01*
X56062768Y-45143211D01*
X55984128Y-45297552D01*
X55930597Y-45462302D01*
X55908804Y-45599901D01*
X55903500Y-45633389D01*
X55903500Y-45806611D01*
X55930598Y-45977701D01*
X55984127Y-46142445D01*
X56062768Y-46296788D01*
X56164586Y-46436928D01*
X56287072Y-46559414D01*
X56427212Y-46661232D01*
X56581555Y-46739873D01*
X56746299Y-46793402D01*
X56917389Y-46820500D01*
X56917390Y-46820500D01*
X57890610Y-46820500D01*
X57890611Y-46820500D01*
X58061701Y-46793402D01*
X58226445Y-46739873D01*
X58380788Y-46661232D01*
X58520928Y-46559414D01*
X58643414Y-46436928D01*
X58650182Y-46427612D01*
X58705509Y-46384947D01*
X58775122Y-46378966D01*
X58836918Y-46411571D01*
X58871277Y-46472408D01*
X58874500Y-46500497D01*
X58874500Y-47479502D01*
X58854815Y-47546541D01*
X58802011Y-47592296D01*
X58732853Y-47602240D01*
X58669297Y-47573215D01*
X58650183Y-47552388D01*
X58643418Y-47543078D01*
X58643414Y-47543072D01*
X58520928Y-47420586D01*
X58380788Y-47318768D01*
X58226445Y-47240127D01*
X58061701Y-47186598D01*
X58061699Y-47186597D01*
X58061698Y-47186597D01*
X57930271Y-47165781D01*
X57890611Y-47159500D01*
X56917389Y-47159500D01*
X56877728Y-47165781D01*
X56746302Y-47186597D01*
X56581552Y-47240128D01*
X56427211Y-47318768D01*
X56377690Y-47354748D01*
X56287072Y-47420586D01*
X56287070Y-47420588D01*
X56287069Y-47420588D01*
X56164588Y-47543069D01*
X56164588Y-47543070D01*
X56164586Y-47543072D01*
X56164582Y-47543078D01*
X56062768Y-47683211D01*
X55984128Y-47837552D01*
X55930597Y-48002302D01*
X55929378Y-48009999D01*
X55903500Y-48173389D01*
X55903500Y-48346611D01*
X55930598Y-48517701D01*
X55984127Y-48682445D01*
X56062768Y-48836788D01*
X56164586Y-48976928D01*
X56287072Y-49099414D01*
X56427212Y-49201232D01*
X56581555Y-49279873D01*
X56746299Y-49333402D01*
X56917389Y-49360500D01*
X56917390Y-49360500D01*
X57890610Y-49360500D01*
X57890611Y-49360500D01*
X58061701Y-49333402D01*
X58226445Y-49279873D01*
X58380788Y-49201232D01*
X58520928Y-49099414D01*
X58643414Y-48976928D01*
X58650182Y-48967612D01*
X58705509Y-48924947D01*
X58775122Y-48918966D01*
X58836918Y-48951571D01*
X58871277Y-49012408D01*
X58874500Y-49040497D01*
X58874500Y-50019502D01*
X58854815Y-50086541D01*
X58802011Y-50132296D01*
X58732853Y-50142240D01*
X58669297Y-50113215D01*
X58650183Y-50092388D01*
X58644571Y-50084665D01*
X58643414Y-50083072D01*
X58520928Y-49960586D01*
X58380788Y-49858768D01*
X58226445Y-49780127D01*
X58061701Y-49726598D01*
X58061699Y-49726597D01*
X58061698Y-49726597D01*
X57930271Y-49705781D01*
X57890611Y-49699500D01*
X56917389Y-49699500D01*
X56877728Y-49705781D01*
X56746302Y-49726597D01*
X56581552Y-49780128D01*
X56427211Y-49858768D01*
X56379728Y-49893267D01*
X56287072Y-49960586D01*
X56287070Y-49960588D01*
X56287069Y-49960588D01*
X56164588Y-50083069D01*
X56164588Y-50083070D01*
X56164586Y-50083072D01*
X56128823Y-50132296D01*
X56062768Y-50223211D01*
X55984128Y-50377552D01*
X55930597Y-50542302D01*
X55903500Y-50713389D01*
X55903500Y-50886611D01*
X55930598Y-51057701D01*
X55984127Y-51222445D01*
X56062768Y-51376788D01*
X56164586Y-51516928D01*
X56287072Y-51639414D01*
X56427212Y-51741232D01*
X56581555Y-51819873D01*
X56746299Y-51873402D01*
X56917389Y-51900500D01*
X56917390Y-51900500D01*
X57890610Y-51900500D01*
X57890611Y-51900500D01*
X58061701Y-51873402D01*
X58226445Y-51819873D01*
X58380788Y-51741232D01*
X58520928Y-51639414D01*
X58643414Y-51516928D01*
X58650182Y-51507612D01*
X58705509Y-51464947D01*
X58775122Y-51458966D01*
X58836918Y-51491571D01*
X58871277Y-51552408D01*
X58874500Y-51580497D01*
X58874500Y-52559502D01*
X58854815Y-52626541D01*
X58802011Y-52672296D01*
X58732853Y-52682240D01*
X58669297Y-52653215D01*
X58650183Y-52632388D01*
X58643418Y-52623078D01*
X58643414Y-52623072D01*
X58520928Y-52500586D01*
X58380788Y-52398768D01*
X58226445Y-52320127D01*
X58061701Y-52266598D01*
X58061699Y-52266597D01*
X58061698Y-52266597D01*
X57930271Y-52245781D01*
X57890611Y-52239500D01*
X56917389Y-52239500D01*
X56877728Y-52245781D01*
X56746302Y-52266597D01*
X56581552Y-52320128D01*
X56427211Y-52398768D01*
X56347256Y-52456859D01*
X56287072Y-52500586D01*
X56287070Y-52500588D01*
X56287069Y-52500588D01*
X56164588Y-52623069D01*
X56164588Y-52623070D01*
X56164586Y-52623072D01*
X56164582Y-52623078D01*
X56062768Y-52763211D01*
X55984128Y-52917552D01*
X55930597Y-53082302D01*
X55903500Y-53253389D01*
X55903500Y-53426611D01*
X55930598Y-53597701D01*
X55984127Y-53762445D01*
X56062768Y-53916788D01*
X56164586Y-54056928D01*
X56287072Y-54179414D01*
X56427212Y-54281232D01*
X56581555Y-54359873D01*
X56746299Y-54413402D01*
X56917389Y-54440500D01*
X56917390Y-54440500D01*
X57890610Y-54440500D01*
X57890611Y-54440500D01*
X58061701Y-54413402D01*
X58226445Y-54359873D01*
X58380788Y-54281232D01*
X58520928Y-54179414D01*
X58643414Y-54056928D01*
X58650182Y-54047612D01*
X58705509Y-54004947D01*
X58775122Y-53998966D01*
X58836918Y-54031571D01*
X58871277Y-54092408D01*
X58874500Y-54120497D01*
X58874500Y-55099502D01*
X58854815Y-55166541D01*
X58802011Y-55212296D01*
X58732853Y-55222240D01*
X58669297Y-55193215D01*
X58650183Y-55172388D01*
X58643418Y-55163078D01*
X58643414Y-55163072D01*
X58520928Y-55040586D01*
X58380788Y-54938768D01*
X58226445Y-54860127D01*
X58061701Y-54806598D01*
X58061699Y-54806597D01*
X58061698Y-54806597D01*
X57930271Y-54785781D01*
X57890611Y-54779500D01*
X56917389Y-54779500D01*
X56877728Y-54785781D01*
X56746302Y-54806597D01*
X56581552Y-54860128D01*
X56427211Y-54938768D01*
X56347256Y-54996859D01*
X56287072Y-55040586D01*
X56287070Y-55040588D01*
X56287069Y-55040588D01*
X56164588Y-55163069D01*
X56164588Y-55163070D01*
X56164586Y-55163072D01*
X56164582Y-55163078D01*
X56062768Y-55303211D01*
X55984128Y-55457552D01*
X55930597Y-55622302D01*
X55919401Y-55692993D01*
X55903500Y-55793389D01*
X55903500Y-55966611D01*
X55930598Y-56137701D01*
X55984127Y-56302445D01*
X56062768Y-56456788D01*
X56164586Y-56596928D01*
X56287072Y-56719414D01*
X56427212Y-56821232D01*
X56581555Y-56899873D01*
X56746299Y-56953402D01*
X56917389Y-56980500D01*
X56917390Y-56980500D01*
X57890610Y-56980500D01*
X57890611Y-56980500D01*
X58061701Y-56953402D01*
X58226445Y-56899873D01*
X58380788Y-56821232D01*
X58520928Y-56719414D01*
X58643414Y-56596928D01*
X58650182Y-56587612D01*
X58705509Y-56544947D01*
X58775122Y-56538966D01*
X58836918Y-56571571D01*
X58871277Y-56632408D01*
X58874500Y-56660497D01*
X58874500Y-57641847D01*
X58854815Y-57708886D01*
X58802011Y-57754641D01*
X58732853Y-57764585D01*
X58669297Y-57735560D01*
X58650183Y-57714733D01*
X58639738Y-57700358D01*
X58639734Y-57700352D01*
X58517248Y-57577866D01*
X58377108Y-57476048D01*
X58222765Y-57397407D01*
X58058021Y-57343878D01*
X58058019Y-57343877D01*
X58058018Y-57343877D01*
X57904104Y-57319500D01*
X57886931Y-57316780D01*
X56913709Y-57316780D01*
X56896536Y-57319500D01*
X56742622Y-57343877D01*
X56577872Y-57397408D01*
X56423531Y-57476048D01*
X56343576Y-57534139D01*
X56283392Y-57577866D01*
X56283390Y-57577868D01*
X56283389Y-57577868D01*
X56160908Y-57700349D01*
X56160908Y-57700350D01*
X56160906Y-57700352D01*
X56158930Y-57703072D01*
X56059088Y-57840491D01*
X55980448Y-57994832D01*
X55926917Y-58159582D01*
X55926140Y-58164491D01*
X55899820Y-58330669D01*
X55899820Y-58503891D01*
X55926918Y-58674981D01*
X55980447Y-58839725D01*
X56059088Y-58994068D01*
X56160906Y-59134208D01*
X56283392Y-59256694D01*
X56423532Y-59358512D01*
X56577875Y-59437153D01*
X56742619Y-59490682D01*
X56913709Y-59517780D01*
X56913710Y-59517780D01*
X57886930Y-59517780D01*
X57886931Y-59517780D01*
X58058021Y-59490682D01*
X58222765Y-59437153D01*
X58377108Y-59358512D01*
X58517248Y-59256694D01*
X58639734Y-59134208D01*
X58650182Y-59119826D01*
X58705510Y-59077162D01*
X58775123Y-59071181D01*
X58836919Y-59103786D01*
X58871277Y-59164625D01*
X58874500Y-59192712D01*
X58874500Y-60181847D01*
X58854815Y-60248886D01*
X58802011Y-60294641D01*
X58732853Y-60304585D01*
X58669297Y-60275560D01*
X58650183Y-60254733D01*
X58639738Y-60240358D01*
X58639734Y-60240352D01*
X58517248Y-60117866D01*
X58377108Y-60016048D01*
X58222765Y-59937407D01*
X58058021Y-59883878D01*
X58058019Y-59883877D01*
X58058018Y-59883877D01*
X57904104Y-59859500D01*
X57886931Y-59856780D01*
X56913709Y-59856780D01*
X56896536Y-59859500D01*
X56742622Y-59883877D01*
X56577872Y-59937408D01*
X56423531Y-60016048D01*
X56343576Y-60074139D01*
X56283392Y-60117866D01*
X56283390Y-60117868D01*
X56283389Y-60117868D01*
X56160908Y-60240349D01*
X56160908Y-60240350D01*
X56160906Y-60240352D01*
X56158930Y-60243072D01*
X56059088Y-60380491D01*
X55980448Y-60534832D01*
X55926917Y-60699582D01*
X55926140Y-60704491D01*
X55899820Y-60870669D01*
X55899820Y-61043891D01*
X55926918Y-61214981D01*
X55980447Y-61379725D01*
X56059088Y-61534068D01*
X56160906Y-61674208D01*
X56283392Y-61796694D01*
X56423532Y-61898512D01*
X56577875Y-61977153D01*
X56742619Y-62030682D01*
X56913709Y-62057780D01*
X56913710Y-62057780D01*
X57886930Y-62057780D01*
X57886931Y-62057780D01*
X58058021Y-62030682D01*
X58222765Y-61977153D01*
X58377108Y-61898512D01*
X58517248Y-61796694D01*
X58639734Y-61674208D01*
X58650182Y-61659826D01*
X58705510Y-61617162D01*
X58775123Y-61611181D01*
X58836919Y-61643786D01*
X58871277Y-61704625D01*
X58874500Y-61732712D01*
X58874500Y-70561610D01*
X58877163Y-70575000D01*
X58892934Y-70654286D01*
X58898534Y-70682443D01*
X58898535Y-70682445D01*
X58898536Y-70682448D01*
X58898537Y-70682451D01*
X58928994Y-70755983D01*
X58945688Y-70796286D01*
X58945690Y-70796290D01*
X58966989Y-70828165D01*
X58966990Y-70828166D01*
X59014140Y-70898731D01*
X59014141Y-70898732D01*
X59014142Y-70898733D01*
X59101267Y-70985858D01*
X59101268Y-70985858D01*
X59108335Y-70992925D01*
X59108334Y-70992925D01*
X59108338Y-70992928D01*
X60578152Y-72462742D01*
X60611637Y-72524065D01*
X60606653Y-72593757D01*
X60564781Y-72649690D01*
X60499317Y-72674107D01*
X60458378Y-72670198D01*
X60250000Y-72614363D01*
X60250000Y-73511988D01*
X60192993Y-73479075D01*
X60065826Y-73445000D01*
X59934174Y-73445000D01*
X59807007Y-73479075D01*
X59750000Y-73511988D01*
X59750000Y-72614364D01*
X59749999Y-72614364D01*
X59536513Y-72671567D01*
X59536507Y-72671570D01*
X59322422Y-72771399D01*
X59322420Y-72771400D01*
X59128926Y-72906886D01*
X59128920Y-72906891D01*
X58961891Y-73073920D01*
X58961886Y-73073926D01*
X58826400Y-73267420D01*
X58826399Y-73267422D01*
X58726570Y-73481507D01*
X58726567Y-73481513D01*
X58669364Y-73694999D01*
X58669364Y-73695000D01*
X59566988Y-73695000D01*
X59534075Y-73752007D01*
X59500000Y-73879174D01*
X59500000Y-74010826D01*
X59534075Y-74137993D01*
X59566988Y-74195000D01*
X58669364Y-74195000D01*
X58726567Y-74408486D01*
X58726570Y-74408492D01*
X58826399Y-74622578D01*
X58961894Y-74816082D01*
X59128917Y-74983105D01*
X59314595Y-75113119D01*
X59358219Y-75167696D01*
X59365412Y-75237195D01*
X59333890Y-75299549D01*
X59314595Y-75316269D01*
X59128594Y-75446508D01*
X58961505Y-75613597D01*
X58825965Y-75807169D01*
X58825964Y-75807171D01*
X58726098Y-76021335D01*
X58726094Y-76021344D01*
X58664938Y-76249586D01*
X58664936Y-76249596D01*
X58644341Y-76484999D01*
X58644341Y-76485000D01*
X58664936Y-76720403D01*
X58664938Y-76720413D01*
X58707272Y-76878407D01*
X58705609Y-76948257D01*
X58666446Y-77006119D01*
X58602218Y-77033623D01*
X58587497Y-77034500D01*
X51470453Y-77034500D01*
X51403414Y-77014815D01*
X51382772Y-76998181D01*
X51340237Y-76955646D01*
X51306752Y-76894323D01*
X51308142Y-76835876D01*
X51335063Y-76735408D01*
X51355659Y-76500000D01*
X51335063Y-76264592D01*
X51283702Y-76072909D01*
X51273905Y-76036344D01*
X51273904Y-76036343D01*
X51273903Y-76036337D01*
X51174035Y-75822171D01*
X51128497Y-75757135D01*
X51038494Y-75628597D01*
X50871402Y-75461506D01*
X50871401Y-75461505D01*
X50685405Y-75331269D01*
X50641781Y-75276692D01*
X50634588Y-75207193D01*
X50666110Y-75144839D01*
X50685405Y-75128119D01*
X50871082Y-74998105D01*
X51038105Y-74831082D01*
X51173600Y-74637578D01*
X51273429Y-74423492D01*
X51273432Y-74423486D01*
X51330636Y-74210000D01*
X50433012Y-74210000D01*
X50465925Y-74152993D01*
X50500000Y-74025826D01*
X50500000Y-73894174D01*
X50465925Y-73767007D01*
X50433012Y-73710000D01*
X51330636Y-73710000D01*
X51330635Y-73709999D01*
X51273432Y-73496513D01*
X51273429Y-73496507D01*
X51173600Y-73282422D01*
X51173599Y-73282420D01*
X51038113Y-73088926D01*
X51038108Y-73088920D01*
X50871082Y-72921894D01*
X50677578Y-72786399D01*
X50463492Y-72686570D01*
X50463486Y-72686567D01*
X50250000Y-72629364D01*
X50250000Y-73526988D01*
X50192993Y-73494075D01*
X50065826Y-73460000D01*
X49934174Y-73460000D01*
X49807007Y-73494075D01*
X49750000Y-73526988D01*
X49750000Y-72629364D01*
X49749999Y-72629364D01*
X49536513Y-72686567D01*
X49536507Y-72686570D01*
X49322422Y-72786399D01*
X49322420Y-72786400D01*
X49128926Y-72921886D01*
X49128920Y-72921891D01*
X48961891Y-73088920D01*
X48961886Y-73088926D01*
X48826400Y-73282420D01*
X48826399Y-73282422D01*
X48726570Y-73496507D01*
X48726567Y-73496513D01*
X48669364Y-73709999D01*
X48669364Y-73710000D01*
X49566988Y-73710000D01*
X49534075Y-73767007D01*
X49500000Y-73894174D01*
X49500000Y-74025826D01*
X49534075Y-74152993D01*
X49566988Y-74210000D01*
X48669364Y-74210000D01*
X48726567Y-74423486D01*
X48726570Y-74423492D01*
X48826399Y-74637578D01*
X48961894Y-74831082D01*
X49128917Y-74998105D01*
X49314595Y-75128119D01*
X49358219Y-75182696D01*
X49365412Y-75252195D01*
X49333890Y-75314549D01*
X49314595Y-75331269D01*
X49128594Y-75461508D01*
X48961505Y-75628597D01*
X48825965Y-75822169D01*
X48825964Y-75822171D01*
X48726098Y-76036335D01*
X48726094Y-76036344D01*
X48664938Y-76264586D01*
X48664936Y-76264596D01*
X48644341Y-76499999D01*
X48644341Y-76500000D01*
X48664936Y-76735403D01*
X48664938Y-76735413D01*
X48726094Y-76963655D01*
X48726096Y-76963659D01*
X48726097Y-76963663D01*
X48777872Y-77074694D01*
X48825965Y-77177830D01*
X48825967Y-77177834D01*
X48961501Y-77371395D01*
X48961506Y-77371402D01*
X49083430Y-77493326D01*
X49116915Y-77554649D01*
X49111931Y-77624341D01*
X49070059Y-77680274D01*
X49039083Y-77697189D01*
X48907669Y-77746203D01*
X48907664Y-77746206D01*
X48792455Y-77832452D01*
X48792452Y-77832455D01*
X48706206Y-77947664D01*
X48706202Y-77947671D01*
X48655908Y-78082517D01*
X48649501Y-78142116D01*
X48649500Y-78142135D01*
X48649500Y-78924216D01*
X48629815Y-78991255D01*
X48613181Y-79011897D01*
X45536899Y-82088181D01*
X45475576Y-82121666D01*
X45449218Y-82124500D01*
X41482515Y-82124500D01*
X41415476Y-82104815D01*
X41369721Y-82052011D01*
X41359777Y-81982853D01*
X41360898Y-81976309D01*
X41388499Y-81837545D01*
X41388500Y-81837543D01*
X41388500Y-80840456D01*
X41350052Y-80647170D01*
X41350051Y-80647169D01*
X41350051Y-80647165D01*
X41299860Y-80525992D01*
X41274635Y-80465092D01*
X41274628Y-80465079D01*
X41165139Y-80301218D01*
X41165136Y-80301214D01*
X41025785Y-80161863D01*
X41025781Y-80161860D01*
X40861920Y-80052371D01*
X40861907Y-80052364D01*
X40679839Y-79976950D01*
X40679829Y-79976947D01*
X40486543Y-79938500D01*
X40486541Y-79938500D01*
X40289459Y-79938500D01*
X40289457Y-79938500D01*
X40096170Y-79976947D01*
X40096160Y-79976950D01*
X39914092Y-80052364D01*
X39914079Y-80052371D01*
X39750218Y-80161860D01*
X39750214Y-80161863D01*
X39610863Y-80301214D01*
X39610860Y-80301218D01*
X39501371Y-80465079D01*
X39501364Y-80465092D01*
X39425950Y-80647160D01*
X39425947Y-80647170D01*
X39387500Y-80840456D01*
X39387500Y-81837545D01*
X39415102Y-81976309D01*
X39408875Y-82045900D01*
X39366012Y-82101078D01*
X39300122Y-82124322D01*
X39293485Y-82124500D01*
X32842515Y-82124500D01*
X32775476Y-82104815D01*
X32729721Y-82052011D01*
X32719777Y-81982853D01*
X32720898Y-81976309D01*
X32748499Y-81837545D01*
X32748500Y-81837543D01*
X32748500Y-80840456D01*
X32710052Y-80647170D01*
X32710051Y-80647169D01*
X32710051Y-80647165D01*
X32659860Y-80525992D01*
X32634635Y-80465092D01*
X32634628Y-80465079D01*
X32525139Y-80301218D01*
X32525136Y-80301214D01*
X32385785Y-80161863D01*
X32385781Y-80161860D01*
X32221920Y-80052371D01*
X32221907Y-80052364D01*
X32039839Y-79976950D01*
X32039829Y-79976947D01*
X31846543Y-79938500D01*
X31846541Y-79938500D01*
X31649459Y-79938500D01*
X31649457Y-79938500D01*
X31456170Y-79976947D01*
X31456160Y-79976950D01*
X31274092Y-80052364D01*
X31274079Y-80052371D01*
X31110218Y-80161860D01*
X31110214Y-80161863D01*
X30970863Y-80301214D01*
X30970860Y-80301218D01*
X30861371Y-80465079D01*
X30861364Y-80465092D01*
X30785950Y-80647160D01*
X30785947Y-80647170D01*
X30747500Y-80840456D01*
X30747500Y-81837545D01*
X30775102Y-81976309D01*
X30768875Y-82045900D01*
X30726012Y-82101078D01*
X30660122Y-82124322D01*
X30653485Y-82124500D01*
X28980783Y-82124500D01*
X28913744Y-82104815D01*
X28893102Y-82088181D01*
X27198819Y-80393898D01*
X27165334Y-80332575D01*
X27162500Y-80306217D01*
X27162500Y-70569782D01*
X27182185Y-70502743D01*
X27198819Y-70482101D01*
X28055102Y-69625819D01*
X28116425Y-69592334D01*
X28142783Y-69589500D01*
X29863500Y-69589500D01*
X29930539Y-69609185D01*
X29976294Y-69661989D01*
X29987500Y-69713500D01*
X29987500Y-72234542D01*
X29998822Y-72291458D01*
X29998822Y-72291460D01*
X30025947Y-72427833D01*
X30025949Y-72427837D01*
X30048038Y-72481164D01*
X30101366Y-72609911D01*
X30101371Y-72609920D01*
X30210860Y-72773781D01*
X30210863Y-72773785D01*
X30354537Y-72917459D01*
X30354559Y-72917479D01*
X30461735Y-73024655D01*
X30461764Y-73024686D01*
X30604214Y-73167136D01*
X30604218Y-73167139D01*
X30768079Y-73276628D01*
X30768086Y-73276632D01*
X30881147Y-73323463D01*
X30950164Y-73352051D01*
X31046812Y-73371275D01*
X31095135Y-73380887D01*
X31143458Y-73390500D01*
X31143459Y-73390500D01*
X31143460Y-73390500D01*
X31340540Y-73390500D01*
X31361770Y-73390500D01*
X31428809Y-73410185D01*
X31449451Y-73426819D01*
X31455344Y-73432712D01*
X31604666Y-73524814D01*
X31771203Y-73579999D01*
X31873991Y-73590500D01*
X32624008Y-73590499D01*
X32624016Y-73590498D01*
X32624019Y-73590498D01*
X32680302Y-73584748D01*
X32726797Y-73579999D01*
X32893334Y-73524814D01*
X33042656Y-73432712D01*
X33166712Y-73308656D01*
X33168461Y-73305819D01*
X33170169Y-73304283D01*
X33171193Y-73302989D01*
X33171414Y-73303163D01*
X33220406Y-73259096D01*
X33289368Y-73247872D01*
X33353451Y-73275713D01*
X33379537Y-73305817D01*
X33381288Y-73308656D01*
X33505344Y-73432712D01*
X33654666Y-73524814D01*
X33821203Y-73579999D01*
X33923991Y-73590500D01*
X34674008Y-73590499D01*
X34674016Y-73590498D01*
X34674019Y-73590498D01*
X34730302Y-73584748D01*
X34776797Y-73579999D01*
X34943334Y-73524814D01*
X35092656Y-73432712D01*
X35098549Y-73426819D01*
X35159872Y-73393334D01*
X35186230Y-73390500D01*
X35404540Y-73390500D01*
X35404541Y-73390500D01*
X35427307Y-73385971D01*
X35496897Y-73392197D01*
X35552076Y-73435058D01*
X35575322Y-73500947D01*
X35575500Y-73507588D01*
X35575500Y-73805500D01*
X35555815Y-73872539D01*
X35503011Y-73918294D01*
X35451500Y-73929500D01*
X33683457Y-73929500D01*
X33490170Y-73967947D01*
X33490160Y-73967950D01*
X33308092Y-74043364D01*
X33308079Y-74043371D01*
X33144218Y-74152860D01*
X33144214Y-74152863D01*
X33004863Y-74292214D01*
X33004860Y-74292218D01*
X32895371Y-74456079D01*
X32895364Y-74456092D01*
X32819950Y-74638160D01*
X32819947Y-74638170D01*
X32781500Y-74831456D01*
X32781500Y-74831459D01*
X32781500Y-75028541D01*
X32781500Y-75028543D01*
X32781499Y-75028543D01*
X32819947Y-75221829D01*
X32819950Y-75221839D01*
X32895364Y-75403907D01*
X32895371Y-75403920D01*
X33004860Y-75567781D01*
X33006173Y-75569094D01*
X33006641Y-75569952D01*
X33008726Y-75572492D01*
X33008244Y-75572887D01*
X33039664Y-75630414D01*
X33042500Y-75656783D01*
X33042500Y-75663191D01*
X33022815Y-75730230D01*
X33006181Y-75750872D01*
X32999923Y-75757129D01*
X32999917Y-75757137D01*
X32916255Y-75898603D01*
X32916254Y-75898606D01*
X32870402Y-76056426D01*
X32870401Y-76056432D01*
X32867990Y-76087076D01*
X32843106Y-76152365D01*
X32786875Y-76193835D01*
X32717149Y-76198322D01*
X32656067Y-76164400D01*
X32635012Y-76135797D01*
X32632640Y-76131359D01*
X32618000Y-76072909D01*
X32618000Y-75511703D01*
X32615503Y-75511900D01*
X32457806Y-75557716D01*
X32457803Y-75557717D01*
X32316449Y-75641313D01*
X32316444Y-75641317D01*
X32290030Y-75667731D01*
X32228706Y-75701215D01*
X32159015Y-75696229D01*
X32154898Y-75694609D01*
X32039839Y-75646950D01*
X32039829Y-75646947D01*
X31846543Y-75608500D01*
X31846541Y-75608500D01*
X31649459Y-75608500D01*
X31649457Y-75608500D01*
X31456170Y-75646947D01*
X31456160Y-75646950D01*
X31274092Y-75722364D01*
X31274079Y-75722371D01*
X31110218Y-75831860D01*
X31110214Y-75831863D01*
X30970863Y-75971214D01*
X30970860Y-75971218D01*
X30861371Y-76135079D01*
X30861364Y-76135092D01*
X30785950Y-76317160D01*
X30785947Y-76317170D01*
X30747500Y-76510456D01*
X30747500Y-76510459D01*
X30747500Y-77807541D01*
X30747500Y-77807543D01*
X30747499Y-77807543D01*
X30785947Y-78000829D01*
X30785950Y-78000839D01*
X30861364Y-78182907D01*
X30861371Y-78182920D01*
X30970860Y-78346781D01*
X30970863Y-78346785D01*
X31110214Y-78486136D01*
X31110218Y-78486139D01*
X31274079Y-78595628D01*
X31274092Y-78595635D01*
X31456160Y-78671049D01*
X31456165Y-78671051D01*
X31456169Y-78671051D01*
X31456170Y-78671052D01*
X31649456Y-78709500D01*
X31649459Y-78709500D01*
X31846543Y-78709500D01*
X31976582Y-78683632D01*
X32039835Y-78671051D01*
X32221914Y-78595632D01*
X32385782Y-78486139D01*
X32525139Y-78346782D01*
X32634632Y-78182914D01*
X32638540Y-78173478D01*
X32682376Y-78119074D01*
X32748669Y-78097004D01*
X32816369Y-78114279D01*
X32821028Y-78117432D01*
X32824633Y-78119513D01*
X32824635Y-78119515D01*
X32955865Y-78195281D01*
X33102234Y-78234500D01*
X33102236Y-78234500D01*
X33253764Y-78234500D01*
X33253766Y-78234500D01*
X33400135Y-78195281D01*
X33531365Y-78119515D01*
X33638515Y-78012365D01*
X33714281Y-77881135D01*
X33749041Y-77751406D01*
X33785406Y-77691746D01*
X33848253Y-77661217D01*
X33868816Y-77659500D01*
X33883686Y-77659500D01*
X33883694Y-77659500D01*
X33920569Y-77656598D01*
X33996862Y-77634432D01*
X34066728Y-77634631D01*
X34078898Y-77638943D01*
X34092764Y-77644687D01*
X34205280Y-77659500D01*
X34205287Y-77659500D01*
X34430713Y-77659500D01*
X34430720Y-77659500D01*
X34543236Y-77644687D01*
X34543236Y-77644686D01*
X34551295Y-77643626D01*
X34551698Y-77646689D01*
X34584302Y-77646689D01*
X34584705Y-77643626D01*
X34592763Y-77644686D01*
X34592764Y-77644687D01*
X34705280Y-77659500D01*
X34705287Y-77659500D01*
X34930713Y-77659500D01*
X34930720Y-77659500D01*
X35043236Y-77644687D01*
X35043236Y-77644686D01*
X35051295Y-77643626D01*
X35051698Y-77646689D01*
X35084302Y-77646689D01*
X35084705Y-77643626D01*
X35092763Y-77644686D01*
X35092764Y-77644687D01*
X35205280Y-77659500D01*
X35205287Y-77659500D01*
X35430713Y-77659500D01*
X35430720Y-77659500D01*
X35543236Y-77644687D01*
X35543236Y-77644686D01*
X35551295Y-77643626D01*
X35551698Y-77646689D01*
X35584302Y-77646689D01*
X35584705Y-77643626D01*
X35592763Y-77644686D01*
X35592764Y-77644687D01*
X35705280Y-77659500D01*
X35705287Y-77659500D01*
X35930713Y-77659500D01*
X35930720Y-77659500D01*
X36043236Y-77644687D01*
X36043236Y-77644686D01*
X36051295Y-77643626D01*
X36051698Y-77646689D01*
X36084302Y-77646689D01*
X36084705Y-77643626D01*
X36092763Y-77644686D01*
X36092764Y-77644687D01*
X36205280Y-77659500D01*
X36205287Y-77659500D01*
X36430713Y-77659500D01*
X36430720Y-77659500D01*
X36543236Y-77644687D01*
X36543236Y-77644686D01*
X36551295Y-77643626D01*
X36551698Y-77646689D01*
X36584302Y-77646689D01*
X36584705Y-77643626D01*
X36592763Y-77644686D01*
X36592764Y-77644687D01*
X36705280Y-77659500D01*
X36705287Y-77659500D01*
X36930713Y-77659500D01*
X36930720Y-77659500D01*
X37043236Y-77644687D01*
X37043236Y-77644686D01*
X37051295Y-77643626D01*
X37051698Y-77646689D01*
X37084302Y-77646689D01*
X37084705Y-77643626D01*
X37092763Y-77644686D01*
X37092764Y-77644687D01*
X37205280Y-77659500D01*
X37205287Y-77659500D01*
X37430713Y-77659500D01*
X37430720Y-77659500D01*
X37543236Y-77644687D01*
X37543236Y-77644686D01*
X37551295Y-77643626D01*
X37551698Y-77646689D01*
X37584302Y-77646689D01*
X37584705Y-77643626D01*
X37592763Y-77644686D01*
X37592764Y-77644687D01*
X37705280Y-77659500D01*
X37705287Y-77659500D01*
X37930713Y-77659500D01*
X37930720Y-77659500D01*
X38043236Y-77644687D01*
X38057086Y-77638949D01*
X38126553Y-77631477D01*
X38139120Y-77634427D01*
X38215431Y-77656598D01*
X38252306Y-77659500D01*
X38267184Y-77659500D01*
X38334223Y-77679185D01*
X38379978Y-77731989D01*
X38386959Y-77751407D01*
X38421719Y-77881136D01*
X38459602Y-77946750D01*
X38497485Y-78012365D01*
X38604635Y-78119515D01*
X38735865Y-78195281D01*
X38882234Y-78234500D01*
X38882236Y-78234500D01*
X39033764Y-78234500D01*
X39033766Y-78234500D01*
X39180135Y-78195281D01*
X39311365Y-78119515D01*
X39311366Y-78119513D01*
X39318403Y-78115451D01*
X39319749Y-78117783D01*
X39372553Y-78097357D01*
X39441001Y-78111381D01*
X39491001Y-78160185D01*
X39497458Y-78173474D01*
X39501367Y-78182913D01*
X39501371Y-78182920D01*
X39610860Y-78346781D01*
X39610863Y-78346785D01*
X39750214Y-78486136D01*
X39750218Y-78486139D01*
X39914079Y-78595628D01*
X39914092Y-78595635D01*
X40096160Y-78671049D01*
X40096165Y-78671051D01*
X40096169Y-78671051D01*
X40096170Y-78671052D01*
X40289456Y-78709500D01*
X40289459Y-78709500D01*
X40486543Y-78709500D01*
X40616582Y-78683632D01*
X40679835Y-78671051D01*
X40861914Y-78595632D01*
X41025782Y-78486139D01*
X41165139Y-78346782D01*
X41274632Y-78182914D01*
X41350051Y-78000835D01*
X41373861Y-77881135D01*
X41388500Y-77807543D01*
X41388500Y-76510456D01*
X41350052Y-76317170D01*
X41350051Y-76317169D01*
X41350051Y-76317165D01*
X41350049Y-76317160D01*
X41274635Y-76135092D01*
X41274628Y-76135079D01*
X41165139Y-75971218D01*
X41165136Y-75971214D01*
X41025785Y-75831863D01*
X41025781Y-75831860D01*
X40861920Y-75722371D01*
X40861907Y-75722364D01*
X40679839Y-75646950D01*
X40679829Y-75646947D01*
X40486543Y-75608500D01*
X40486541Y-75608500D01*
X40289459Y-75608500D01*
X40289457Y-75608500D01*
X40096170Y-75646947D01*
X40096165Y-75646949D01*
X39981100Y-75694609D01*
X39911631Y-75702077D01*
X39849152Y-75670801D01*
X39845968Y-75667728D01*
X39819561Y-75641321D01*
X39819552Y-75641314D01*
X39678196Y-75557717D01*
X39678193Y-75557716D01*
X39520494Y-75511900D01*
X39520497Y-75511900D01*
X39518000Y-75511703D01*
X39518000Y-76072909D01*
X39503350Y-76131378D01*
X39500977Y-76135816D01*
X39452007Y-76185653D01*
X39383867Y-76201104D01*
X39318191Y-76177263D01*
X39275830Y-76121699D01*
X39268009Y-76087073D01*
X39267450Y-76079975D01*
X39265598Y-76056431D01*
X39259762Y-76036344D01*
X39219745Y-75898606D01*
X39219744Y-75898603D01*
X39219744Y-75898602D01*
X39136081Y-75757135D01*
X39136079Y-75757133D01*
X39136076Y-75757129D01*
X39129819Y-75750872D01*
X39096334Y-75689549D01*
X39093500Y-75663191D01*
X39093500Y-75656783D01*
X39113185Y-75589744D01*
X39129827Y-75569094D01*
X39131139Y-75567782D01*
X39240632Y-75403914D01*
X39316051Y-75221835D01*
X39334597Y-75128597D01*
X39354500Y-75028543D01*
X39354500Y-74831456D01*
X39316052Y-74638170D01*
X39316051Y-74638169D01*
X39316051Y-74638165D01*
X39294385Y-74585858D01*
X39240635Y-74456092D01*
X39240628Y-74456079D01*
X39208764Y-74408391D01*
X39187886Y-74341713D01*
X39206371Y-74274333D01*
X39258350Y-74227643D01*
X39311866Y-74215500D01*
X39665003Y-74215500D01*
X39665008Y-74215500D01*
X39767797Y-74204999D01*
X39934334Y-74149814D01*
X40083655Y-74057711D01*
X40207711Y-73933655D01*
X40299814Y-73784334D01*
X40354999Y-73617797D01*
X40365500Y-73515008D01*
X40365500Y-71264992D01*
X40354999Y-71162203D01*
X40299814Y-70995666D01*
X40298125Y-70992928D01*
X40207713Y-70846348D01*
X40207710Y-70846344D01*
X40083655Y-70722289D01*
X40083651Y-70722286D01*
X39934337Y-70630187D01*
X39934335Y-70630186D01*
X39806835Y-70587937D01*
X39767797Y-70575001D01*
X39767795Y-70575000D01*
X39665015Y-70564500D01*
X39665008Y-70564500D01*
X38639992Y-70564500D01*
X38639984Y-70564500D01*
X38537204Y-70575000D01*
X38537203Y-70575001D01*
X38370664Y-70630186D01*
X38370662Y-70630187D01*
X38221348Y-70722286D01*
X38221344Y-70722289D01*
X38097289Y-70846344D01*
X38097286Y-70846348D01*
X38005187Y-70995662D01*
X38005186Y-70995664D01*
X37950001Y-71162203D01*
X37950000Y-71162204D01*
X37939500Y-71264984D01*
X37939500Y-71265500D01*
X37939469Y-71265605D01*
X37939340Y-71268140D01*
X37939179Y-71268131D01*
X37939179Y-71268133D01*
X37939155Y-71268130D01*
X37938733Y-71268109D01*
X37919815Y-71332539D01*
X37867011Y-71378294D01*
X37815500Y-71389500D01*
X37493457Y-71389500D01*
X37431167Y-71401890D01*
X37400022Y-71408086D01*
X37300167Y-71427947D01*
X37300159Y-71427950D01*
X37246834Y-71450037D01*
X37246834Y-71450038D01*
X37201315Y-71468892D01*
X37118089Y-71503366D01*
X37118079Y-71503371D01*
X36954219Y-71612859D01*
X36900585Y-71666494D01*
X36814861Y-71752218D01*
X36772181Y-71794898D01*
X36710858Y-71828383D01*
X36641166Y-71823399D01*
X36585233Y-71781527D01*
X36560816Y-71716063D01*
X36560500Y-71707217D01*
X36560500Y-69713500D01*
X36580185Y-69646461D01*
X36632989Y-69600706D01*
X36684500Y-69589500D01*
X39355137Y-69589500D01*
X39422176Y-69609185D01*
X39454404Y-69639188D01*
X39481586Y-69675500D01*
X39482455Y-69676660D01*
X39597664Y-69762906D01*
X39597671Y-69762910D01*
X39732517Y-69813204D01*
X39732516Y-69813204D01*
X39739444Y-69813948D01*
X39792127Y-69819613D01*
X41487872Y-69819612D01*
X41547483Y-69813204D01*
X41682331Y-69762909D01*
X41797546Y-69676659D01*
X41877914Y-69569301D01*
X41933847Y-69527431D01*
X41977180Y-69519613D01*
X42563500Y-69519613D01*
X42630539Y-69539298D01*
X42676294Y-69592102D01*
X42687500Y-69643613D01*
X42687500Y-70440500D01*
X42667815Y-70507539D01*
X42615011Y-70553294D01*
X42563500Y-70564500D01*
X41614984Y-70564500D01*
X41512204Y-70575000D01*
X41512203Y-70575001D01*
X41345664Y-70630186D01*
X41345662Y-70630187D01*
X41196348Y-70722286D01*
X41196344Y-70722289D01*
X41072289Y-70846344D01*
X41072286Y-70846348D01*
X40980187Y-70995662D01*
X40980186Y-70995664D01*
X40925001Y-71162203D01*
X40925000Y-71162204D01*
X40914500Y-71264984D01*
X40914500Y-73515015D01*
X40925000Y-73617795D01*
X40925001Y-73617797D01*
X40936664Y-73652993D01*
X40980186Y-73784335D01*
X40980187Y-73784337D01*
X41072286Y-73933651D01*
X41072289Y-73933655D01*
X41196344Y-74057710D01*
X41196348Y-74057713D01*
X41345662Y-74149812D01*
X41345664Y-74149813D01*
X41345666Y-74149814D01*
X41512203Y-74204999D01*
X41614992Y-74215500D01*
X41614997Y-74215500D01*
X42640003Y-74215500D01*
X42640008Y-74215500D01*
X42742797Y-74204999D01*
X42909334Y-74149814D01*
X43058655Y-74057711D01*
X43182711Y-73933655D01*
X43274814Y-73784334D01*
X43329999Y-73617797D01*
X43340500Y-73515008D01*
X43340500Y-73479939D01*
X43360185Y-73412900D01*
X43412989Y-73367145D01*
X43440306Y-73358322D01*
X43471836Y-73352051D01*
X43540853Y-73323463D01*
X43653914Y-73276632D01*
X43817782Y-73167139D01*
X43957139Y-73027782D01*
X43957140Y-73027779D01*
X44465139Y-72519782D01*
X44465416Y-72519368D01*
X44574632Y-72355914D01*
X44639006Y-72200500D01*
X44650051Y-72173836D01*
X44688500Y-71980541D01*
X44688500Y-71783460D01*
X44688500Y-68735459D01*
X44688500Y-68735456D01*
X44650052Y-68542170D01*
X44650051Y-68542169D01*
X44650051Y-68542165D01*
X44638465Y-68514194D01*
X44574635Y-68360092D01*
X44574628Y-68360079D01*
X44465140Y-68196219D01*
X44465139Y-68196218D01*
X44325782Y-68056861D01*
X44325781Y-68056860D01*
X44150253Y-67881333D01*
X44150252Y-67881331D01*
X44010895Y-67741974D01*
X44010894Y-67741973D01*
X44010893Y-67741972D01*
X43847033Y-67632484D01*
X43847020Y-67632477D01*
X43705087Y-67573688D01*
X43664949Y-67557062D01*
X43664941Y-67557060D01*
X43511490Y-67526537D01*
X43511489Y-67526536D01*
X43491572Y-67522575D01*
X43471655Y-67518613D01*
X43471654Y-67518613D01*
X41977180Y-67518613D01*
X41910141Y-67498928D01*
X41877913Y-67468924D01*
X41797546Y-67361567D01*
X41788449Y-67354757D01*
X41746581Y-67298823D01*
X41741599Y-67229131D01*
X41761191Y-67184366D01*
X41770134Y-67171594D01*
X41824036Y-67056000D01*
X48827176Y-67056000D01*
X48846461Y-67448550D01*
X48904129Y-67837308D01*
X48999625Y-68218549D01*
X49132016Y-68588559D01*
X49132023Y-68588575D01*
X49300062Y-68943864D01*
X49502109Y-69280958D01*
X49736228Y-69596632D01*
X49832068Y-69702376D01*
X49832069Y-69702376D01*
X51430381Y-68104064D01*
X51513457Y-68212331D01*
X51675669Y-68374543D01*
X51783934Y-68457617D01*
X50185622Y-70055929D01*
X50185622Y-70055930D01*
X50291367Y-70151771D01*
X50607041Y-70385890D01*
X50944135Y-70587937D01*
X51299424Y-70755976D01*
X51299440Y-70755983D01*
X51669450Y-70888374D01*
X52050691Y-70983870D01*
X52439449Y-71041538D01*
X52832000Y-71060823D01*
X53224550Y-71041538D01*
X53613308Y-70983870D01*
X53994549Y-70888374D01*
X54364559Y-70755983D01*
X54364575Y-70755976D01*
X54719864Y-70587937D01*
X55056958Y-70385890D01*
X55372632Y-70151770D01*
X55478376Y-70055929D01*
X53880065Y-68457618D01*
X53988331Y-68374543D01*
X54150543Y-68212331D01*
X54233618Y-68104065D01*
X55831929Y-69702376D01*
X55927770Y-69596632D01*
X56161890Y-69280958D01*
X56363937Y-68943864D01*
X56531976Y-68588575D01*
X56531983Y-68588559D01*
X56664374Y-68218549D01*
X56759870Y-67837308D01*
X56817538Y-67448550D01*
X56836823Y-67056000D01*
X56817538Y-66663449D01*
X56759870Y-66274691D01*
X56664374Y-65893450D01*
X56531983Y-65523440D01*
X56531976Y-65523424D01*
X56363937Y-65168135D01*
X56161890Y-64831041D01*
X55927771Y-64515367D01*
X55831930Y-64409622D01*
X55831929Y-64409622D01*
X54233617Y-66007934D01*
X54150543Y-65899669D01*
X53988331Y-65737457D01*
X53880065Y-65654381D01*
X55478376Y-64056069D01*
X55478376Y-64056068D01*
X55372632Y-63960228D01*
X55056958Y-63726109D01*
X54719864Y-63524062D01*
X54364575Y-63356023D01*
X54364559Y-63356016D01*
X53994549Y-63223625D01*
X53613308Y-63128129D01*
X53224550Y-63070461D01*
X52832000Y-63051176D01*
X52439449Y-63070461D01*
X52050691Y-63128129D01*
X51669450Y-63223625D01*
X51299440Y-63356016D01*
X51299424Y-63356023D01*
X50944135Y-63524062D01*
X50607041Y-63726109D01*
X50291368Y-63960228D01*
X50185622Y-64056069D01*
X51783934Y-65654381D01*
X51675669Y-65737457D01*
X51513457Y-65899669D01*
X51430381Y-66007934D01*
X49832069Y-64409622D01*
X49736228Y-64515368D01*
X49502109Y-64831041D01*
X49300062Y-65168135D01*
X49132023Y-65523424D01*
X49132016Y-65523440D01*
X48999625Y-65893450D01*
X48904129Y-66274691D01*
X48846461Y-66663449D01*
X48827176Y-67056000D01*
X41824036Y-67056000D01*
X41866265Y-66965439D01*
X41866269Y-66965430D01*
X41925139Y-66745723D01*
X41925141Y-66745712D01*
X41944966Y-66519115D01*
X41944966Y-66519110D01*
X41925141Y-66292513D01*
X41925139Y-66292502D01*
X41866269Y-66072795D01*
X41866264Y-66072781D01*
X41770136Y-65866634D01*
X41770132Y-65866626D01*
X41719025Y-65793639D01*
X41040000Y-66472664D01*
X41040000Y-66466452D01*
X41012741Y-66364719D01*
X40960080Y-66273507D01*
X40885606Y-66199033D01*
X40794394Y-66146372D01*
X40692661Y-66119113D01*
X40686448Y-66119113D01*
X41365472Y-65440087D01*
X41292478Y-65388976D01*
X41086331Y-65292848D01*
X41086317Y-65292843D01*
X40866610Y-65233973D01*
X40866599Y-65233971D01*
X40640002Y-65214147D01*
X40639998Y-65214147D01*
X40413400Y-65233971D01*
X40413389Y-65233973D01*
X40193682Y-65292843D01*
X40193673Y-65292847D01*
X39987516Y-65388979D01*
X39987512Y-65388981D01*
X39914526Y-65440086D01*
X39914526Y-65440087D01*
X40593553Y-66119113D01*
X40587339Y-66119113D01*
X40485606Y-66146372D01*
X40394394Y-66199033D01*
X40319920Y-66273507D01*
X40267259Y-66364719D01*
X40240000Y-66466452D01*
X40240000Y-66472665D01*
X39560974Y-65793639D01*
X39560973Y-65793639D01*
X39509868Y-65866625D01*
X39509866Y-65866629D01*
X39413734Y-66072786D01*
X39413730Y-66072795D01*
X39354860Y-66292502D01*
X39354858Y-66292513D01*
X39335034Y-66519110D01*
X39335034Y-66519115D01*
X39354858Y-66745712D01*
X39354860Y-66745723D01*
X39413730Y-66965430D01*
X39413734Y-66965439D01*
X39509865Y-67171594D01*
X39509868Y-67171598D01*
X39518812Y-67184373D01*
X39541138Y-67250580D01*
X39524125Y-67318347D01*
X39491549Y-67354758D01*
X39482456Y-67361565D01*
X39482451Y-67361570D01*
X39396206Y-67476777D01*
X39396203Y-67476782D01*
X39384622Y-67507834D01*
X39342750Y-67563767D01*
X39277286Y-67588184D01*
X39268440Y-67588500D01*
X36645523Y-67588500D01*
X36578484Y-67568815D01*
X36532729Y-67516011D01*
X36522785Y-67446853D01*
X36551810Y-67383297D01*
X36557842Y-67376819D01*
X36602315Y-67332345D01*
X36694356Y-67183124D01*
X36694358Y-67183119D01*
X36749505Y-67016697D01*
X36749506Y-67016690D01*
X36759999Y-66913986D01*
X36760000Y-66913973D01*
X36760000Y-66789000D01*
X34360001Y-66789000D01*
X34360001Y-66913986D01*
X34370494Y-67016697D01*
X34425641Y-67183119D01*
X34425643Y-67183124D01*
X34517684Y-67332345D01*
X34641655Y-67456316D01*
X34641659Y-67456319D01*
X34644656Y-67458168D01*
X34646279Y-67459972D01*
X34647323Y-67460798D01*
X34647181Y-67460976D01*
X34691381Y-67510116D01*
X34702602Y-67579079D01*
X34674759Y-67643161D01*
X34644661Y-67669241D01*
X34641349Y-67671283D01*
X34641343Y-67671288D01*
X34517289Y-67795342D01*
X34425187Y-67944663D01*
X34425186Y-67944666D01*
X34370001Y-68111203D01*
X34370001Y-68111204D01*
X34370000Y-68111204D01*
X34359500Y-68213983D01*
X34359500Y-68964001D01*
X34359501Y-68964019D01*
X34370000Y-69066796D01*
X34370001Y-69066799D01*
X34393625Y-69138090D01*
X34425186Y-69233334D01*
X34497004Y-69349771D01*
X34517289Y-69382657D01*
X34523181Y-69388549D01*
X34556666Y-69449872D01*
X34559500Y-69476230D01*
X34559500Y-71065500D01*
X34539815Y-71132539D01*
X34487011Y-71178294D01*
X34435500Y-71189500D01*
X33923998Y-71189500D01*
X33923980Y-71189501D01*
X33821203Y-71200000D01*
X33821200Y-71200001D01*
X33654668Y-71255185D01*
X33654663Y-71255187D01*
X33505342Y-71347289D01*
X33381285Y-71471346D01*
X33379537Y-71474182D01*
X33377829Y-71475717D01*
X33376807Y-71477011D01*
X33376585Y-71476836D01*
X33327589Y-71520905D01*
X33258626Y-71532126D01*
X33194544Y-71504282D01*
X33168463Y-71474182D01*
X33166714Y-71471346D01*
X33042657Y-71347289D01*
X33042656Y-71347288D01*
X32914325Y-71268133D01*
X32893336Y-71255187D01*
X32893331Y-71255185D01*
X32877684Y-71250000D01*
X32726797Y-71200001D01*
X32726795Y-71200000D01*
X32624016Y-71189500D01*
X32624009Y-71189500D01*
X32112500Y-71189500D01*
X32045461Y-71169815D01*
X31999706Y-71117011D01*
X31988500Y-71065500D01*
X31988500Y-69476230D01*
X32008185Y-69409191D01*
X32024819Y-69388549D01*
X32030712Y-69382656D01*
X32122814Y-69233334D01*
X32177999Y-69066797D01*
X32188500Y-68964009D01*
X32188499Y-68213992D01*
X32188329Y-68212331D01*
X32177999Y-68111203D01*
X32177998Y-68111200D01*
X32159991Y-68056860D01*
X32122814Y-67944666D01*
X32030712Y-67795344D01*
X31906656Y-67671288D01*
X31903342Y-67669243D01*
X31901546Y-67667248D01*
X31900989Y-67666807D01*
X31901064Y-67666711D01*
X31856618Y-67617297D01*
X31845397Y-67548334D01*
X31873240Y-67484252D01*
X31903348Y-67458165D01*
X31906342Y-67456318D01*
X32030315Y-67332345D01*
X32122356Y-67183124D01*
X32122358Y-67183119D01*
X32177505Y-67016697D01*
X32177506Y-67016690D01*
X32187999Y-66913986D01*
X32188000Y-66913973D01*
X32188000Y-66789000D01*
X29788001Y-66789000D01*
X29788001Y-66913986D01*
X29798494Y-67016697D01*
X29853641Y-67183119D01*
X29853643Y-67183124D01*
X29945684Y-67332345D01*
X29990158Y-67376819D01*
X30023643Y-67438142D01*
X30018659Y-67507834D01*
X29976787Y-67563767D01*
X29911323Y-67588184D01*
X29902477Y-67588500D01*
X27781675Y-67588500D01*
X27781655Y-67588499D01*
X27775541Y-67588499D01*
X27578460Y-67588499D01*
X27578457Y-67588499D01*
X27385172Y-67626946D01*
X27385164Y-67626948D01*
X27203088Y-67702366D01*
X27203079Y-67702371D01*
X27039219Y-67811859D01*
X27039215Y-67811862D01*
X25887078Y-68964001D01*
X25524220Y-69326859D01*
X25524218Y-69326861D01*
X25480666Y-69370413D01*
X25384859Y-69466219D01*
X25275371Y-69630079D01*
X25275364Y-69630092D01*
X25232947Y-69732499D01*
X25232947Y-69732500D01*
X25199949Y-69812162D01*
X25199948Y-69812164D01*
X25198466Y-69819617D01*
X25161500Y-70005454D01*
X25161500Y-80306218D01*
X25141815Y-80373257D01*
X25125181Y-80393899D01*
X23497899Y-82021181D01*
X23436576Y-82054666D01*
X23410218Y-82057500D01*
X21652696Y-82057500D01*
X21585657Y-82037815D01*
X21539902Y-81985011D01*
X21529958Y-81915853D01*
X21547158Y-81868403D01*
X21592353Y-81795130D01*
X21592358Y-81795119D01*
X21647505Y-81628697D01*
X21647506Y-81628690D01*
X21657999Y-81525986D01*
X21658000Y-81525973D01*
X21658000Y-81276000D01*
X20457000Y-81276000D01*
X20389961Y-81256315D01*
X20344206Y-81203511D01*
X20333000Y-81152000D01*
X20333000Y-80776000D01*
X20833000Y-80776000D01*
X21657999Y-80776000D01*
X21657999Y-80526028D01*
X21657998Y-80526013D01*
X21647505Y-80423302D01*
X21592358Y-80256880D01*
X21592356Y-80256875D01*
X21500315Y-80107654D01*
X21376345Y-79983684D01*
X21227124Y-79891643D01*
X21227119Y-79891641D01*
X21060697Y-79836494D01*
X21060690Y-79836493D01*
X20957986Y-79826000D01*
X20833000Y-79826000D01*
X20833000Y-80776000D01*
X20333000Y-80776000D01*
X20333000Y-79826000D01*
X20208027Y-79826000D01*
X20208012Y-79826001D01*
X20105302Y-79836494D01*
X19938880Y-79891641D01*
X19938875Y-79891643D01*
X19789654Y-79983684D01*
X19745181Y-80028158D01*
X19683858Y-80061643D01*
X19614166Y-80056659D01*
X19558233Y-80014787D01*
X19533816Y-79949323D01*
X19533500Y-79940477D01*
X19533500Y-79403998D01*
X19535883Y-79379805D01*
X19542500Y-79346541D01*
X19542500Y-79149459D01*
X19542499Y-79149455D01*
X19504052Y-78956165D01*
X19428632Y-78774086D01*
X19428631Y-78774085D01*
X19428628Y-78774079D01*
X19319140Y-78610219D01*
X19319137Y-78610215D01*
X18131567Y-77422646D01*
X18098082Y-77361323D01*
X18103066Y-77291631D01*
X18144935Y-77235701D01*
X18182546Y-77207546D01*
X18268796Y-77092331D01*
X18317810Y-76960916D01*
X18359681Y-76904984D01*
X18425145Y-76880566D01*
X18493418Y-76895417D01*
X18521673Y-76916569D01*
X18643599Y-77038495D01*
X18740384Y-77106265D01*
X18837165Y-77174032D01*
X18837167Y-77174033D01*
X18837170Y-77174035D01*
X19051337Y-77273903D01*
X19051343Y-77273904D01*
X19051344Y-77273905D01*
X19106285Y-77288626D01*
X19279592Y-77335063D01*
X19467918Y-77351539D01*
X19514999Y-77355659D01*
X19515000Y-77355659D01*
X19515001Y-77355659D01*
X19554234Y-77352226D01*
X19750408Y-77335063D01*
X19978663Y-77273903D01*
X20192830Y-77174035D01*
X20386401Y-77038495D01*
X20553495Y-76871401D01*
X20683730Y-76685405D01*
X20738307Y-76641781D01*
X20807805Y-76634587D01*
X20870160Y-76666110D01*
X20886879Y-76685405D01*
X21016890Y-76871078D01*
X21183917Y-77038105D01*
X21377421Y-77173600D01*
X21591507Y-77273429D01*
X21591516Y-77273433D01*
X21805000Y-77330634D01*
X21805000Y-76433012D01*
X21862007Y-76465925D01*
X21989174Y-76500000D01*
X22120826Y-76500000D01*
X22247993Y-76465925D01*
X22305000Y-76433012D01*
X22305000Y-77330633D01*
X22518483Y-77273433D01*
X22518492Y-77273429D01*
X22732578Y-77173600D01*
X22926082Y-77038105D01*
X23093105Y-76871082D01*
X23228600Y-76677578D01*
X23328429Y-76463492D01*
X23328432Y-76463486D01*
X23385636Y-76250000D01*
X22488012Y-76250000D01*
X22520925Y-76192993D01*
X22555000Y-76065826D01*
X22555000Y-75934174D01*
X22520925Y-75807007D01*
X22488012Y-75750000D01*
X23385636Y-75750000D01*
X23385635Y-75749999D01*
X23328432Y-75536513D01*
X23328429Y-75536507D01*
X23228600Y-75322422D01*
X23228599Y-75322420D01*
X23093113Y-75128926D01*
X23093108Y-75128920D01*
X22926082Y-74961894D01*
X22732578Y-74826399D01*
X22518492Y-74726570D01*
X22518486Y-74726567D01*
X22305000Y-74669364D01*
X22305000Y-75566988D01*
X22247993Y-75534075D01*
X22120826Y-75500000D01*
X21989174Y-75500000D01*
X21862007Y-75534075D01*
X21805000Y-75566988D01*
X21805000Y-74669364D01*
X21804999Y-74669364D01*
X21591513Y-74726567D01*
X21591507Y-74726570D01*
X21377422Y-74826399D01*
X21377420Y-74826400D01*
X21183926Y-74961886D01*
X21183920Y-74961891D01*
X21016891Y-75128920D01*
X21016890Y-75128922D01*
X20886880Y-75314595D01*
X20832303Y-75358219D01*
X20762804Y-75365412D01*
X20700450Y-75333890D01*
X20683730Y-75314594D01*
X20553494Y-75128597D01*
X20386402Y-74961506D01*
X20386395Y-74961501D01*
X20192834Y-74825967D01*
X20192830Y-74825965D01*
X20171636Y-74816082D01*
X19978663Y-74726097D01*
X19978659Y-74726096D01*
X19978655Y-74726094D01*
X19750413Y-74664938D01*
X19750403Y-74664936D01*
X19515001Y-74644341D01*
X19514999Y-74644341D01*
X19279596Y-74664936D01*
X19279586Y-74664938D01*
X19051344Y-74726094D01*
X19051335Y-74726098D01*
X18837171Y-74825964D01*
X18837169Y-74825965D01*
X18643600Y-74961503D01*
X18521673Y-75083430D01*
X18460350Y-75116914D01*
X18390658Y-75111930D01*
X18334725Y-75070058D01*
X18317810Y-75039081D01*
X18268797Y-74907671D01*
X18268793Y-74907664D01*
X18182547Y-74792455D01*
X18182544Y-74792452D01*
X18067335Y-74706206D01*
X18067332Y-74706205D01*
X18067331Y-74706204D01*
X18056161Y-74702038D01*
X18000231Y-74660166D01*
X17975816Y-74594701D01*
X17975500Y-74585858D01*
X17975500Y-72324499D01*
X17995185Y-72257460D01*
X18047989Y-72211705D01*
X18099500Y-72200499D01*
X18099981Y-72200499D01*
X18099991Y-72200500D01*
X18850008Y-72200499D01*
X18850016Y-72200498D01*
X18850019Y-72200498D01*
X18906302Y-72194748D01*
X18952797Y-72189999D01*
X19119334Y-72134814D01*
X19268656Y-72042712D01*
X19392712Y-71918656D01*
X19394752Y-71915347D01*
X19396745Y-71913555D01*
X19397193Y-71912989D01*
X19397289Y-71913065D01*
X19446694Y-71868623D01*
X19515656Y-71857395D01*
X19579740Y-71885234D01*
X19605829Y-71915339D01*
X19607681Y-71918341D01*
X19607683Y-71918344D01*
X19731654Y-72042315D01*
X19880875Y-72134356D01*
X19880880Y-72134358D01*
X20047302Y-72189505D01*
X20047309Y-72189506D01*
X20150019Y-72199999D01*
X20274999Y-72199999D01*
X20775000Y-72199999D01*
X20899972Y-72199999D01*
X20899986Y-72199998D01*
X21002697Y-72189505D01*
X21169119Y-72134358D01*
X21169124Y-72134356D01*
X21318345Y-72042315D01*
X21442315Y-71918345D01*
X21534356Y-71769124D01*
X21534358Y-71769119D01*
X21589505Y-71602697D01*
X21589506Y-71602690D01*
X21600000Y-71499983D01*
X21600000Y-71250000D01*
X20775000Y-71250000D01*
X20775000Y-72199999D01*
X20274999Y-72199999D01*
X20275000Y-72199998D01*
X20275000Y-70750000D01*
X20775000Y-70750000D01*
X21599999Y-70750000D01*
X21599999Y-70500028D01*
X21599998Y-70500013D01*
X21589505Y-70397302D01*
X21534358Y-70230880D01*
X21534356Y-70230875D01*
X21442315Y-70081654D01*
X21318345Y-69957684D01*
X21169124Y-69865643D01*
X21169119Y-69865641D01*
X21002697Y-69810494D01*
X21002690Y-69810493D01*
X20899986Y-69800000D01*
X20775000Y-69800000D01*
X20775000Y-70750000D01*
X20275000Y-70750000D01*
X20275000Y-69800000D01*
X20150027Y-69800000D01*
X20150012Y-69800001D01*
X20047302Y-69810494D01*
X19880880Y-69865641D01*
X19880875Y-69865643D01*
X19731654Y-69957684D01*
X19607683Y-70081655D01*
X19607679Y-70081660D01*
X19605826Y-70084665D01*
X19604018Y-70086290D01*
X19603202Y-70087323D01*
X19603025Y-70087183D01*
X19553874Y-70131385D01*
X19484911Y-70142601D01*
X19420831Y-70114752D01*
X19394753Y-70084653D01*
X19394737Y-70084628D01*
X19392712Y-70081344D01*
X19268656Y-69957288D01*
X19130607Y-69872139D01*
X19119336Y-69865187D01*
X19119331Y-69865185D01*
X19117862Y-69864698D01*
X18952797Y-69810001D01*
X18952795Y-69810000D01*
X18850016Y-69799500D01*
X18099500Y-69799500D01*
X18032461Y-69779815D01*
X17986706Y-69727011D01*
X17975500Y-69675500D01*
X17975500Y-67414141D01*
X17995185Y-67347102D01*
X18047989Y-67301347D01*
X18056149Y-67297966D01*
X18067331Y-67293796D01*
X18094533Y-67273433D01*
X18167762Y-67218613D01*
X18182546Y-67207546D01*
X18268796Y-67092331D01*
X18317810Y-66960916D01*
X18359681Y-66904984D01*
X18425145Y-66880566D01*
X18493418Y-66895417D01*
X18521673Y-66916569D01*
X18643599Y-67038495D01*
X18740384Y-67106265D01*
X18837165Y-67174032D01*
X18837167Y-67174033D01*
X18837170Y-67174035D01*
X19051337Y-67273903D01*
X19279592Y-67335063D01*
X19467918Y-67351539D01*
X19514999Y-67355659D01*
X19515000Y-67355659D01*
X19515001Y-67355659D01*
X19554234Y-67352226D01*
X19750408Y-67335063D01*
X19978663Y-67273903D01*
X20192830Y-67174035D01*
X20386401Y-67038495D01*
X20553495Y-66871401D01*
X20683730Y-66685405D01*
X20738307Y-66641781D01*
X20807805Y-66634587D01*
X20870160Y-66666110D01*
X20886879Y-66685405D01*
X21016890Y-66871078D01*
X21183917Y-67038105D01*
X21377421Y-67173600D01*
X21591507Y-67273429D01*
X21591516Y-67273433D01*
X21805000Y-67330634D01*
X21805000Y-66433012D01*
X21862007Y-66465925D01*
X21989174Y-66500000D01*
X22120826Y-66500000D01*
X22247993Y-66465925D01*
X22305000Y-66433012D01*
X22305000Y-67330633D01*
X22518483Y-67273433D01*
X22518492Y-67273429D01*
X22732578Y-67173600D01*
X22926082Y-67038105D01*
X23093105Y-66871082D01*
X23228600Y-66677578D01*
X23328429Y-66463492D01*
X23328432Y-66463486D01*
X23385636Y-66250000D01*
X22488012Y-66250000D01*
X22520925Y-66192993D01*
X22528690Y-66164013D01*
X29788000Y-66164013D01*
X29788000Y-66289000D01*
X30738000Y-66289000D01*
X31238000Y-66289000D01*
X32187999Y-66289000D01*
X32187999Y-66164028D01*
X32187998Y-66164013D01*
X34360000Y-66164013D01*
X34360000Y-66289000D01*
X35310000Y-66289000D01*
X35810000Y-66289000D01*
X36759999Y-66289000D01*
X36759999Y-66164028D01*
X36759998Y-66164013D01*
X36749505Y-66061302D01*
X36694358Y-65894880D01*
X36694356Y-65894875D01*
X36602315Y-65745654D01*
X36478345Y-65621684D01*
X36329124Y-65529643D01*
X36329119Y-65529641D01*
X36162697Y-65474494D01*
X36162690Y-65474493D01*
X36059986Y-65464000D01*
X35810000Y-65464000D01*
X35810000Y-66289000D01*
X35310000Y-66289000D01*
X35310000Y-65464000D01*
X35060029Y-65464000D01*
X35060012Y-65464001D01*
X34957302Y-65474494D01*
X34790880Y-65529641D01*
X34790875Y-65529643D01*
X34641654Y-65621684D01*
X34517684Y-65745654D01*
X34425643Y-65894875D01*
X34425641Y-65894880D01*
X34370494Y-66061302D01*
X34370493Y-66061309D01*
X34360000Y-66164013D01*
X32187998Y-66164013D01*
X32177505Y-66061302D01*
X32122358Y-65894880D01*
X32122356Y-65894875D01*
X32030315Y-65745654D01*
X31906345Y-65621684D01*
X31757124Y-65529643D01*
X31757119Y-65529641D01*
X31590697Y-65474494D01*
X31590690Y-65474493D01*
X31487986Y-65464000D01*
X31238000Y-65464000D01*
X31238000Y-66289000D01*
X30738000Y-66289000D01*
X30738000Y-65464000D01*
X30488029Y-65464000D01*
X30488012Y-65464001D01*
X30385302Y-65474494D01*
X30218880Y-65529641D01*
X30218875Y-65529643D01*
X30069654Y-65621684D01*
X29945684Y-65745654D01*
X29853643Y-65894875D01*
X29853641Y-65894880D01*
X29798494Y-66061302D01*
X29798493Y-66061309D01*
X29788000Y-66164013D01*
X22528690Y-66164013D01*
X22555000Y-66065826D01*
X22555000Y-65934174D01*
X22520925Y-65807007D01*
X22488012Y-65750000D01*
X23385636Y-65750000D01*
X23385635Y-65749999D01*
X23328432Y-65536513D01*
X23328429Y-65536507D01*
X23228600Y-65322422D01*
X23228599Y-65322420D01*
X23093113Y-65128926D01*
X23093108Y-65128920D01*
X22926082Y-64961894D01*
X22732578Y-64826399D01*
X22518492Y-64726570D01*
X22518486Y-64726567D01*
X22305000Y-64669364D01*
X22305000Y-65566988D01*
X22247993Y-65534075D01*
X22120826Y-65500000D01*
X21989174Y-65500000D01*
X21862007Y-65534075D01*
X21805000Y-65566988D01*
X21805000Y-64669364D01*
X21804999Y-64669364D01*
X21591513Y-64726567D01*
X21591507Y-64726570D01*
X21377422Y-64826399D01*
X21377420Y-64826400D01*
X21183926Y-64961886D01*
X21183920Y-64961891D01*
X21016891Y-65128920D01*
X21016890Y-65128922D01*
X20886880Y-65314595D01*
X20832303Y-65358219D01*
X20762804Y-65365412D01*
X20700450Y-65333890D01*
X20683730Y-65314594D01*
X20553494Y-65128597D01*
X20386402Y-64961506D01*
X20386395Y-64961501D01*
X20192834Y-64825967D01*
X20192830Y-64825965D01*
X20192828Y-64825964D01*
X19978663Y-64726097D01*
X19978659Y-64726096D01*
X19978655Y-64726094D01*
X19750413Y-64664938D01*
X19750403Y-64664936D01*
X19515001Y-64644341D01*
X19514999Y-64644341D01*
X19279596Y-64664936D01*
X19279586Y-64664938D01*
X19051344Y-64726094D01*
X19051335Y-64726098D01*
X18837171Y-64825964D01*
X18837169Y-64825965D01*
X18643600Y-64961503D01*
X18521673Y-65083430D01*
X18460350Y-65116914D01*
X18390658Y-65111930D01*
X18334725Y-65070058D01*
X18317810Y-65039081D01*
X18268797Y-64907671D01*
X18268793Y-64907664D01*
X18182547Y-64792455D01*
X18182544Y-64792452D01*
X18067329Y-64706202D01*
X18065068Y-64704967D01*
X18063246Y-64703145D01*
X18060231Y-64700888D01*
X18060555Y-64700454D01*
X18015665Y-64655559D01*
X18000500Y-64596138D01*
X18000500Y-62281724D01*
X18020185Y-62214685D01*
X18072989Y-62168930D01*
X18137103Y-62158366D01*
X18157991Y-62160500D01*
X18908008Y-62160499D01*
X18908016Y-62160498D01*
X18908019Y-62160498D01*
X18964302Y-62154748D01*
X19010797Y-62149999D01*
X19177334Y-62094814D01*
X19326656Y-62002712D01*
X19450712Y-61878656D01*
X19452752Y-61875347D01*
X19454745Y-61873555D01*
X19455193Y-61872989D01*
X19455289Y-61873065D01*
X19504694Y-61828623D01*
X19573656Y-61817395D01*
X19637740Y-61845234D01*
X19663829Y-61875339D01*
X19665681Y-61878341D01*
X19665683Y-61878344D01*
X19789654Y-62002315D01*
X19938875Y-62094356D01*
X19938880Y-62094358D01*
X20105302Y-62149505D01*
X20105309Y-62149506D01*
X20208019Y-62159999D01*
X20332999Y-62159999D01*
X20833000Y-62159999D01*
X20957972Y-62159999D01*
X20957986Y-62159998D01*
X21060697Y-62149505D01*
X21227119Y-62094358D01*
X21227124Y-62094356D01*
X21376345Y-62002315D01*
X21500315Y-61878345D01*
X21592356Y-61729124D01*
X21592358Y-61729119D01*
X21647505Y-61562697D01*
X21647506Y-61562690D01*
X21657999Y-61459986D01*
X23300001Y-61459986D01*
X23310494Y-61562697D01*
X23365641Y-61729119D01*
X23365643Y-61729124D01*
X23457684Y-61878345D01*
X23581654Y-62002315D01*
X23730875Y-62094356D01*
X23730880Y-62094358D01*
X23897302Y-62149505D01*
X23897309Y-62149506D01*
X24000019Y-62159999D01*
X24124999Y-62159999D01*
X24125000Y-62159998D01*
X24125000Y-61210000D01*
X23300001Y-61210000D01*
X23300001Y-61459986D01*
X21657999Y-61459986D01*
X21658000Y-61459973D01*
X21658000Y-61210000D01*
X20833000Y-61210000D01*
X20833000Y-62159999D01*
X20332999Y-62159999D01*
X20333000Y-62159998D01*
X20333000Y-60710000D01*
X20833000Y-60710000D01*
X21657999Y-60710000D01*
X21657999Y-60460028D01*
X21657998Y-60460013D01*
X23300000Y-60460013D01*
X23300000Y-60710000D01*
X24125000Y-60710000D01*
X24125000Y-59760000D01*
X24625000Y-59760000D01*
X24625000Y-62159999D01*
X24749972Y-62159999D01*
X24749986Y-62159998D01*
X24852697Y-62149505D01*
X25019119Y-62094358D01*
X25019124Y-62094356D01*
X25168345Y-62002315D01*
X25292318Y-61878342D01*
X25294165Y-61875348D01*
X25295969Y-61873724D01*
X25296798Y-61872677D01*
X25296976Y-61872818D01*
X25346110Y-61828621D01*
X25415073Y-61817396D01*
X25479156Y-61845236D01*
X25505242Y-61875339D01*
X25507288Y-61878656D01*
X25631344Y-62002712D01*
X25780666Y-62094814D01*
X25947203Y-62149999D01*
X26049991Y-62160500D01*
X26800008Y-62160499D01*
X26800016Y-62160498D01*
X26800019Y-62160498D01*
X26856302Y-62154748D01*
X26902797Y-62149999D01*
X27069334Y-62094814D01*
X27218656Y-62002712D01*
X27224549Y-61996819D01*
X27285872Y-61963334D01*
X27312230Y-61960500D01*
X31113763Y-61960500D01*
X31170059Y-61974016D01*
X31181550Y-61979871D01*
X31181552Y-61979871D01*
X31181555Y-61979873D01*
X31346299Y-62033402D01*
X31517389Y-62060500D01*
X31517390Y-62060500D01*
X32490610Y-62060500D01*
X32490611Y-62060500D01*
X32661701Y-62033402D01*
X32826445Y-61979873D01*
X32980788Y-61901232D01*
X33120928Y-61799414D01*
X33243414Y-61676928D01*
X33345232Y-61536788D01*
X33423873Y-61382445D01*
X33477402Y-61217701D01*
X33504500Y-61046611D01*
X33504500Y-60873389D01*
X33477402Y-60702299D01*
X33423873Y-60537555D01*
X33345232Y-60383212D01*
X33243414Y-60243072D01*
X33120928Y-60120586D01*
X32980788Y-60018768D01*
X32826445Y-59940127D01*
X32661701Y-59886598D01*
X32661699Y-59886597D01*
X32661698Y-59886597D01*
X32530271Y-59865781D01*
X32490611Y-59859500D01*
X31517389Y-59859500D01*
X31477728Y-59865781D01*
X31346302Y-59886597D01*
X31181550Y-59940128D01*
X31170059Y-59945984D01*
X31113763Y-59959500D01*
X27549500Y-59959500D01*
X27482461Y-59939815D01*
X27436706Y-59887011D01*
X27425500Y-59835500D01*
X27425500Y-58838457D01*
X27406275Y-58741813D01*
X27406275Y-58741812D01*
X27387051Y-58645164D01*
X27355385Y-58568716D01*
X27355385Y-58568715D01*
X27311635Y-58463092D01*
X27311628Y-58463079D01*
X27224971Y-58333389D01*
X30503500Y-58333389D01*
X30503500Y-58506610D01*
X30530166Y-58674977D01*
X30530598Y-58677701D01*
X30584127Y-58842445D01*
X30662768Y-58996788D01*
X30764586Y-59136928D01*
X30887072Y-59259414D01*
X31027212Y-59361232D01*
X31181555Y-59439873D01*
X31346299Y-59493402D01*
X31517389Y-59520500D01*
X31517390Y-59520500D01*
X32490610Y-59520500D01*
X32490611Y-59520500D01*
X32661701Y-59493402D01*
X32826445Y-59439873D01*
X32980788Y-59361232D01*
X33120928Y-59259414D01*
X33243414Y-59136928D01*
X33345232Y-58996788D01*
X33423873Y-58842445D01*
X33477402Y-58677701D01*
X33504500Y-58506611D01*
X33504500Y-58333389D01*
X33477402Y-58162299D01*
X33423873Y-57997555D01*
X33345232Y-57843212D01*
X33243414Y-57703072D01*
X33120928Y-57580586D01*
X32980788Y-57478768D01*
X32826445Y-57400127D01*
X32661701Y-57346598D01*
X32661699Y-57346597D01*
X32661698Y-57346597D01*
X32530271Y-57325781D01*
X32490611Y-57319500D01*
X31517389Y-57319500D01*
X31477728Y-57325781D01*
X31346302Y-57346597D01*
X31181552Y-57400128D01*
X31027211Y-57478768D01*
X30947256Y-57536859D01*
X30887072Y-57580586D01*
X30887070Y-57580588D01*
X30887069Y-57580588D01*
X30764588Y-57703069D01*
X30764588Y-57703070D01*
X30764586Y-57703072D01*
X30760362Y-57708886D01*
X30662768Y-57843211D01*
X30584128Y-57997552D01*
X30530597Y-58162302D01*
X30503500Y-58333389D01*
X27224971Y-58333389D01*
X27202139Y-58299218D01*
X27202136Y-58299214D01*
X27059692Y-58156770D01*
X27059665Y-58156745D01*
X27053781Y-58150861D01*
X27053045Y-58150369D01*
X26889920Y-58041372D01*
X26889910Y-58041367D01*
X26707836Y-57965949D01*
X26707828Y-57965947D01*
X26514543Y-57927500D01*
X26514540Y-57927500D01*
X26317460Y-57927500D01*
X26317457Y-57927500D01*
X26124171Y-57965947D01*
X26124163Y-57965949D01*
X25942089Y-58041367D01*
X25942079Y-58041372D01*
X25778219Y-58150860D01*
X25778215Y-58150863D01*
X25638863Y-58290215D01*
X25638860Y-58290219D01*
X25529372Y-58454079D01*
X25529367Y-58454089D01*
X25453949Y-58636163D01*
X25453947Y-58636171D01*
X25415500Y-58829455D01*
X25415500Y-59026540D01*
X25422117Y-59059804D01*
X25424500Y-59083997D01*
X25424500Y-59874477D01*
X25404815Y-59941516D01*
X25352011Y-59987271D01*
X25282853Y-59997215D01*
X25219297Y-59968190D01*
X25212819Y-59962158D01*
X25168345Y-59917684D01*
X25019124Y-59825643D01*
X25019119Y-59825641D01*
X24852697Y-59770494D01*
X24852690Y-59770493D01*
X24749986Y-59760000D01*
X24625000Y-59760000D01*
X24125000Y-59760000D01*
X24000027Y-59760000D01*
X24000012Y-59760001D01*
X23897302Y-59770494D01*
X23730880Y-59825641D01*
X23730875Y-59825643D01*
X23581654Y-59917684D01*
X23457684Y-60041654D01*
X23365643Y-60190875D01*
X23365641Y-60190880D01*
X23310494Y-60357302D01*
X23310493Y-60357309D01*
X23300000Y-60460013D01*
X21657998Y-60460013D01*
X21647505Y-60357302D01*
X21592358Y-60190880D01*
X21592356Y-60190875D01*
X21500315Y-60041654D01*
X21376345Y-59917684D01*
X21227124Y-59825643D01*
X21227119Y-59825641D01*
X21060697Y-59770494D01*
X21060690Y-59770493D01*
X20957986Y-59760000D01*
X20833000Y-59760000D01*
X20833000Y-60710000D01*
X20333000Y-60710000D01*
X20333000Y-59760000D01*
X20208027Y-59760000D01*
X20208012Y-59760001D01*
X20105302Y-59770494D01*
X19938880Y-59825641D01*
X19938875Y-59825643D01*
X19789654Y-59917684D01*
X19665683Y-60041655D01*
X19665679Y-60041660D01*
X19663826Y-60044665D01*
X19662018Y-60046290D01*
X19661202Y-60047323D01*
X19661025Y-60047183D01*
X19611874Y-60091385D01*
X19542911Y-60102601D01*
X19478831Y-60074752D01*
X19452753Y-60044653D01*
X19452737Y-60044628D01*
X19450712Y-60041344D01*
X19326656Y-59917288D01*
X19177334Y-59825186D01*
X19010797Y-59770001D01*
X19010795Y-59770000D01*
X18908010Y-59759500D01*
X18157998Y-59759500D01*
X18157970Y-59759502D01*
X18137097Y-59761634D01*
X18068405Y-59748862D01*
X18017522Y-59700980D01*
X18000500Y-59638276D01*
X18000500Y-57414141D01*
X18020185Y-57347102D01*
X18072989Y-57301347D01*
X18081149Y-57297966D01*
X18092331Y-57293796D01*
X18119533Y-57273433D01*
X18130447Y-57265261D01*
X18207546Y-57207546D01*
X18293796Y-57092331D01*
X18342810Y-56960916D01*
X18384681Y-56904984D01*
X18450145Y-56880566D01*
X18518418Y-56895417D01*
X18546673Y-56916569D01*
X18668599Y-57038495D01*
X18765384Y-57106265D01*
X18862165Y-57174032D01*
X18862167Y-57174033D01*
X18862170Y-57174035D01*
X19076337Y-57273903D01*
X19304592Y-57335063D01*
X19492918Y-57351539D01*
X19539999Y-57355659D01*
X19540000Y-57355659D01*
X19540001Y-57355659D01*
X19579234Y-57352226D01*
X19775408Y-57335063D01*
X20003663Y-57273903D01*
X20217830Y-57174035D01*
X20411401Y-57038495D01*
X20578495Y-56871401D01*
X20708730Y-56685405D01*
X20763307Y-56641781D01*
X20832805Y-56634587D01*
X20895160Y-56666110D01*
X20911879Y-56685405D01*
X21041890Y-56871078D01*
X21208917Y-57038105D01*
X21402421Y-57173600D01*
X21616507Y-57273429D01*
X21616516Y-57273433D01*
X21830000Y-57330634D01*
X21830000Y-56433012D01*
X21887007Y-56465925D01*
X22014174Y-56500000D01*
X22145826Y-56500000D01*
X22272993Y-56465925D01*
X22330000Y-56433012D01*
X22330000Y-57330633D01*
X22543483Y-57273433D01*
X22543492Y-57273429D01*
X22757578Y-57173600D01*
X22951082Y-57038105D01*
X23118105Y-56871082D01*
X23253600Y-56677578D01*
X23353429Y-56463492D01*
X23353432Y-56463486D01*
X23410636Y-56250000D01*
X22513012Y-56250000D01*
X22545925Y-56192993D01*
X22580000Y-56065826D01*
X22580000Y-55934174D01*
X22545925Y-55807007D01*
X22538063Y-55793389D01*
X30503500Y-55793389D01*
X30503500Y-55966611D01*
X30530598Y-56137701D01*
X30584127Y-56302445D01*
X30662768Y-56456788D01*
X30764586Y-56596928D01*
X30887072Y-56719414D01*
X31027212Y-56821232D01*
X31181555Y-56899873D01*
X31346299Y-56953402D01*
X31517389Y-56980500D01*
X31517390Y-56980500D01*
X32490610Y-56980500D01*
X32490611Y-56980500D01*
X32661701Y-56953402D01*
X32826445Y-56899873D01*
X32980788Y-56821232D01*
X33120928Y-56719414D01*
X33243414Y-56596928D01*
X33345232Y-56456788D01*
X33423873Y-56302445D01*
X33477402Y-56137701D01*
X33504500Y-55966611D01*
X33504500Y-55793389D01*
X33477402Y-55622299D01*
X33423873Y-55457555D01*
X33345232Y-55303212D01*
X33243414Y-55163072D01*
X33120928Y-55040586D01*
X32980788Y-54938768D01*
X32826445Y-54860127D01*
X32661701Y-54806598D01*
X32661699Y-54806597D01*
X32661698Y-54806597D01*
X32530271Y-54785781D01*
X32490611Y-54779500D01*
X31517389Y-54779500D01*
X31477728Y-54785781D01*
X31346302Y-54806597D01*
X31181552Y-54860128D01*
X31027211Y-54938768D01*
X30947256Y-54996859D01*
X30887072Y-55040586D01*
X30887070Y-55040588D01*
X30887069Y-55040588D01*
X30764588Y-55163069D01*
X30764588Y-55163070D01*
X30764586Y-55163072D01*
X30764582Y-55163078D01*
X30662768Y-55303211D01*
X30584128Y-55457552D01*
X30530597Y-55622302D01*
X30519401Y-55692993D01*
X30503500Y-55793389D01*
X22538063Y-55793389D01*
X22513012Y-55750000D01*
X23410636Y-55750000D01*
X23410635Y-55749999D01*
X23353432Y-55536513D01*
X23353429Y-55536507D01*
X23253600Y-55322422D01*
X23253599Y-55322420D01*
X23118113Y-55128926D01*
X23118108Y-55128920D01*
X22951082Y-54961894D01*
X22757578Y-54826399D01*
X22543492Y-54726570D01*
X22543486Y-54726567D01*
X22330000Y-54669364D01*
X22330000Y-55566988D01*
X22272993Y-55534075D01*
X22145826Y-55500000D01*
X22014174Y-55500000D01*
X21887007Y-55534075D01*
X21830000Y-55566988D01*
X21830000Y-54669364D01*
X21829999Y-54669364D01*
X21616513Y-54726567D01*
X21616507Y-54726570D01*
X21402422Y-54826399D01*
X21402420Y-54826400D01*
X21208926Y-54961886D01*
X21208920Y-54961891D01*
X21041891Y-55128920D01*
X21041890Y-55128922D01*
X20911880Y-55314595D01*
X20857303Y-55358219D01*
X20787804Y-55365412D01*
X20725450Y-55333890D01*
X20708730Y-55314594D01*
X20578494Y-55128597D01*
X20411402Y-54961506D01*
X20411395Y-54961501D01*
X20217834Y-54825967D01*
X20217830Y-54825965D01*
X20176295Y-54806597D01*
X20003663Y-54726097D01*
X20003659Y-54726096D01*
X20003655Y-54726094D01*
X19775413Y-54664938D01*
X19775403Y-54664936D01*
X19540001Y-54644341D01*
X19539999Y-54644341D01*
X19304596Y-54664936D01*
X19304586Y-54664938D01*
X19076344Y-54726094D01*
X19076335Y-54726098D01*
X18862171Y-54825964D01*
X18862169Y-54825965D01*
X18668600Y-54961503D01*
X18546673Y-55083430D01*
X18485350Y-55116914D01*
X18415658Y-55111930D01*
X18359725Y-55070058D01*
X18342810Y-55039081D01*
X18293797Y-54907671D01*
X18293793Y-54907664D01*
X18207547Y-54792455D01*
X18207544Y-54792452D01*
X18092335Y-54706206D01*
X18092332Y-54706205D01*
X18092331Y-54706204D01*
X18081161Y-54702038D01*
X18025231Y-54660166D01*
X18000816Y-54594701D01*
X18000500Y-54585858D01*
X18000500Y-53253389D01*
X30503500Y-53253389D01*
X30503500Y-53426611D01*
X30530598Y-53597701D01*
X30584127Y-53762445D01*
X30662768Y-53916788D01*
X30764586Y-54056928D01*
X30887072Y-54179414D01*
X31027212Y-54281232D01*
X31181555Y-54359873D01*
X31346299Y-54413402D01*
X31517389Y-54440500D01*
X31517390Y-54440500D01*
X32490610Y-54440500D01*
X32490611Y-54440500D01*
X32661701Y-54413402D01*
X32826445Y-54359873D01*
X32980788Y-54281232D01*
X33120928Y-54179414D01*
X33243414Y-54056928D01*
X33345232Y-53916788D01*
X33423873Y-53762445D01*
X33477402Y-53597701D01*
X33504500Y-53426611D01*
X33504500Y-53253389D01*
X33477402Y-53082299D01*
X33423873Y-52917555D01*
X33345232Y-52763212D01*
X33243414Y-52623072D01*
X33120928Y-52500586D01*
X32980788Y-52398768D01*
X32826445Y-52320127D01*
X32661701Y-52266598D01*
X32661699Y-52266597D01*
X32661698Y-52266597D01*
X32530271Y-52245781D01*
X32490611Y-52239500D01*
X31517389Y-52239500D01*
X31477728Y-52245781D01*
X31346302Y-52266597D01*
X31181552Y-52320128D01*
X31027211Y-52398768D01*
X30947256Y-52456859D01*
X30887072Y-52500586D01*
X30887070Y-52500588D01*
X30887069Y-52500588D01*
X30764588Y-52623069D01*
X30764588Y-52623070D01*
X30764586Y-52623072D01*
X30764582Y-52623078D01*
X30662768Y-52763211D01*
X30584128Y-52917552D01*
X30530597Y-53082302D01*
X30503500Y-53253389D01*
X18000500Y-53253389D01*
X18000500Y-52324499D01*
X18020185Y-52257460D01*
X18072989Y-52211705D01*
X18124495Y-52200499D01*
X18850008Y-52200499D01*
X18850016Y-52200498D01*
X18850019Y-52200498D01*
X18906302Y-52194748D01*
X18952797Y-52189999D01*
X19119334Y-52134814D01*
X19268656Y-52042712D01*
X19392712Y-51918656D01*
X19394752Y-51915347D01*
X19396745Y-51913555D01*
X19397193Y-51912989D01*
X19397289Y-51913065D01*
X19446694Y-51868623D01*
X19515656Y-51857395D01*
X19579740Y-51885234D01*
X19605829Y-51915339D01*
X19607681Y-51918341D01*
X19607683Y-51918344D01*
X19731654Y-52042315D01*
X19880875Y-52134356D01*
X19880880Y-52134358D01*
X20047302Y-52189505D01*
X20047309Y-52189506D01*
X20150019Y-52199999D01*
X20274999Y-52199999D01*
X20775000Y-52199999D01*
X20899972Y-52199999D01*
X20899986Y-52199998D01*
X21002697Y-52189505D01*
X21169119Y-52134358D01*
X21169124Y-52134356D01*
X21318345Y-52042315D01*
X21442315Y-51918345D01*
X21534356Y-51769124D01*
X21534358Y-51769119D01*
X21589505Y-51602697D01*
X21589506Y-51602690D01*
X21599999Y-51499986D01*
X21600000Y-51499973D01*
X21600000Y-51250000D01*
X20775000Y-51250000D01*
X20775000Y-52199999D01*
X20274999Y-52199999D01*
X20275000Y-52199998D01*
X20275000Y-50750000D01*
X20775000Y-50750000D01*
X21599999Y-50750000D01*
X21599999Y-50713389D01*
X30503500Y-50713389D01*
X30503500Y-50886611D01*
X30530598Y-51057701D01*
X30584127Y-51222445D01*
X30662768Y-51376788D01*
X30764586Y-51516928D01*
X30887072Y-51639414D01*
X31027212Y-51741232D01*
X31181555Y-51819873D01*
X31346299Y-51873402D01*
X31517389Y-51900500D01*
X31517390Y-51900500D01*
X32490610Y-51900500D01*
X32490611Y-51900500D01*
X32661701Y-51873402D01*
X32826445Y-51819873D01*
X32980788Y-51741232D01*
X33120928Y-51639414D01*
X33243414Y-51516928D01*
X33345232Y-51376788D01*
X33423873Y-51222445D01*
X33477402Y-51057701D01*
X33504500Y-50886611D01*
X33504500Y-50713389D01*
X33477402Y-50542299D01*
X33423873Y-50377555D01*
X33345232Y-50223212D01*
X33243414Y-50083072D01*
X33120928Y-49960586D01*
X32980788Y-49858768D01*
X32826445Y-49780127D01*
X32661701Y-49726598D01*
X32661699Y-49726597D01*
X32661698Y-49726597D01*
X32530271Y-49705781D01*
X32490611Y-49699500D01*
X31517389Y-49699500D01*
X31477728Y-49705781D01*
X31346302Y-49726597D01*
X31181552Y-49780128D01*
X31027211Y-49858768D01*
X30979728Y-49893267D01*
X30887072Y-49960586D01*
X30887070Y-49960588D01*
X30887069Y-49960588D01*
X30764588Y-50083069D01*
X30764588Y-50083070D01*
X30764586Y-50083072D01*
X30728823Y-50132296D01*
X30662768Y-50223211D01*
X30584128Y-50377552D01*
X30530597Y-50542302D01*
X30503500Y-50713389D01*
X21599999Y-50713389D01*
X21599999Y-50500028D01*
X21599998Y-50500013D01*
X21589505Y-50397302D01*
X21534358Y-50230880D01*
X21534356Y-50230875D01*
X21442315Y-50081654D01*
X21318345Y-49957684D01*
X21169124Y-49865643D01*
X21169119Y-49865641D01*
X21002697Y-49810494D01*
X21002690Y-49810493D01*
X20899986Y-49800000D01*
X20775000Y-49800000D01*
X20775000Y-50750000D01*
X20275000Y-50750000D01*
X20275000Y-49800000D01*
X20150027Y-49800000D01*
X20150012Y-49800001D01*
X20047302Y-49810494D01*
X19880880Y-49865641D01*
X19880875Y-49865643D01*
X19731654Y-49957684D01*
X19607683Y-50081655D01*
X19607679Y-50081660D01*
X19605826Y-50084665D01*
X19604018Y-50086290D01*
X19603202Y-50087323D01*
X19603025Y-50087183D01*
X19553874Y-50131385D01*
X19484911Y-50142601D01*
X19420831Y-50114752D01*
X19394753Y-50084653D01*
X19394737Y-50084628D01*
X19392712Y-50081344D01*
X19268656Y-49957288D01*
X19119334Y-49865186D01*
X18952797Y-49810001D01*
X18952795Y-49810000D01*
X18850016Y-49799500D01*
X18124500Y-49799500D01*
X18057461Y-49779815D01*
X18011706Y-49727011D01*
X18000500Y-49675500D01*
X18000500Y-48009999D01*
X30529884Y-48009999D01*
X30529885Y-48010000D01*
X31688314Y-48010000D01*
X31683920Y-48014394D01*
X31631259Y-48105606D01*
X31604000Y-48207339D01*
X31604000Y-48312661D01*
X31631259Y-48414394D01*
X31683920Y-48505606D01*
X31688314Y-48510000D01*
X30529885Y-48510000D01*
X30531085Y-48517584D01*
X30584591Y-48682255D01*
X30663195Y-48836524D01*
X30764967Y-48976602D01*
X30887397Y-49099032D01*
X31027475Y-49200804D01*
X31181742Y-49279408D01*
X31346415Y-49332914D01*
X31517429Y-49360000D01*
X31754000Y-49360000D01*
X31754000Y-48575686D01*
X31758394Y-48580080D01*
X31849606Y-48632741D01*
X31951339Y-48660000D01*
X32056661Y-48660000D01*
X32158394Y-48632741D01*
X32249606Y-48580080D01*
X32254000Y-48575686D01*
X32254000Y-49360000D01*
X32490571Y-49360000D01*
X32661584Y-49332914D01*
X32826257Y-49279408D01*
X32980524Y-49200804D01*
X33120602Y-49099032D01*
X33243032Y-48976602D01*
X33344804Y-48836524D01*
X33423408Y-48682255D01*
X33476914Y-48517584D01*
X33478115Y-48510000D01*
X32319686Y-48510000D01*
X32324080Y-48505606D01*
X32376741Y-48414394D01*
X32404000Y-48312661D01*
X32404000Y-48207339D01*
X32376741Y-48105606D01*
X32324080Y-48014394D01*
X32319686Y-48010000D01*
X33478115Y-48010000D01*
X33478115Y-48009999D01*
X33476914Y-48002415D01*
X33423408Y-47837744D01*
X33344804Y-47683475D01*
X33243032Y-47543397D01*
X33120602Y-47420967D01*
X32980524Y-47319195D01*
X32826257Y-47240591D01*
X32661584Y-47187085D01*
X32490571Y-47160000D01*
X32254000Y-47160000D01*
X32254000Y-47944314D01*
X32249606Y-47939920D01*
X32158394Y-47887259D01*
X32056661Y-47860000D01*
X31951339Y-47860000D01*
X31849606Y-47887259D01*
X31758394Y-47939920D01*
X31754000Y-47944314D01*
X31754000Y-47160000D01*
X31517429Y-47160000D01*
X31346415Y-47187085D01*
X31181742Y-47240591D01*
X31027475Y-47319195D01*
X30887397Y-47420967D01*
X30764967Y-47543397D01*
X30663195Y-47683475D01*
X30584591Y-47837744D01*
X30531085Y-48002415D01*
X30529884Y-48009999D01*
X18000500Y-48009999D01*
X18000500Y-47394666D01*
X18020185Y-47327627D01*
X18050189Y-47295399D01*
X18052329Y-47293796D01*
X18052331Y-47293796D01*
X18167546Y-47207546D01*
X18253796Y-47092331D01*
X18302810Y-46960916D01*
X18344681Y-46904984D01*
X18410145Y-46880566D01*
X18478418Y-46895417D01*
X18506673Y-46916569D01*
X18628599Y-47038495D01*
X18725384Y-47106265D01*
X18822165Y-47174032D01*
X18822167Y-47174033D01*
X18822170Y-47174035D01*
X19036337Y-47273903D01*
X19264592Y-47335063D01*
X19452918Y-47351539D01*
X19499999Y-47355659D01*
X19500000Y-47355659D01*
X19500001Y-47355659D01*
X19539234Y-47352226D01*
X19735408Y-47335063D01*
X19963663Y-47273903D01*
X20177830Y-47174035D01*
X20371401Y-47038495D01*
X20538495Y-46871401D01*
X20668730Y-46685405D01*
X20723307Y-46641781D01*
X20792805Y-46634587D01*
X20855160Y-46666110D01*
X20871879Y-46685405D01*
X21001890Y-46871078D01*
X21168917Y-47038105D01*
X21362421Y-47173600D01*
X21576507Y-47273429D01*
X21576516Y-47273433D01*
X21790000Y-47330634D01*
X21790000Y-46433012D01*
X21847007Y-46465925D01*
X21974174Y-46500000D01*
X22105826Y-46500000D01*
X22232993Y-46465925D01*
X22290000Y-46433012D01*
X22290000Y-47330633D01*
X22503483Y-47273433D01*
X22503492Y-47273429D01*
X22717578Y-47173600D01*
X22911082Y-47038105D01*
X23078105Y-46871082D01*
X23213600Y-46677578D01*
X23313429Y-46463492D01*
X23313432Y-46463486D01*
X23370636Y-46250000D01*
X22473012Y-46250000D01*
X22505925Y-46192993D01*
X22540000Y-46065826D01*
X22540000Y-45934174D01*
X22505925Y-45807007D01*
X22473012Y-45750000D01*
X23370636Y-45750000D01*
X23370635Y-45749999D01*
X23339390Y-45633389D01*
X30503500Y-45633389D01*
X30503500Y-45806611D01*
X30530598Y-45977701D01*
X30584127Y-46142445D01*
X30662768Y-46296788D01*
X30764586Y-46436928D01*
X30887072Y-46559414D01*
X31027212Y-46661232D01*
X31181555Y-46739873D01*
X31346299Y-46793402D01*
X31517389Y-46820500D01*
X31517390Y-46820500D01*
X32490610Y-46820500D01*
X32490611Y-46820500D01*
X32661701Y-46793402D01*
X32826445Y-46739873D01*
X32980788Y-46661232D01*
X33120928Y-46559414D01*
X33243414Y-46436928D01*
X33345232Y-46296788D01*
X33423873Y-46142445D01*
X33477402Y-45977701D01*
X33504500Y-45806611D01*
X33504500Y-45633389D01*
X33477402Y-45462299D01*
X33423873Y-45297555D01*
X33345232Y-45143212D01*
X33243414Y-45003072D01*
X33120928Y-44880586D01*
X32980788Y-44778768D01*
X32826445Y-44700127D01*
X32661701Y-44646598D01*
X32661699Y-44646597D01*
X32661698Y-44646597D01*
X32530271Y-44625781D01*
X32490611Y-44619500D01*
X31517389Y-44619500D01*
X31477728Y-44625781D01*
X31346302Y-44646597D01*
X31181552Y-44700128D01*
X31027211Y-44778768D01*
X30962252Y-44825964D01*
X30887072Y-44880586D01*
X30887070Y-44880588D01*
X30887069Y-44880588D01*
X30764588Y-45003069D01*
X30764588Y-45003070D01*
X30764586Y-45003072D01*
X30728823Y-45052296D01*
X30662768Y-45143211D01*
X30584128Y-45297552D01*
X30530597Y-45462302D01*
X30508804Y-45599901D01*
X30503500Y-45633389D01*
X23339390Y-45633389D01*
X23313432Y-45536513D01*
X23313429Y-45536507D01*
X23213600Y-45322422D01*
X23213599Y-45322420D01*
X23078113Y-45128926D01*
X23078108Y-45128920D01*
X22911082Y-44961894D01*
X22717578Y-44826399D01*
X22503492Y-44726570D01*
X22503486Y-44726567D01*
X22290000Y-44669364D01*
X22290000Y-45566988D01*
X22232993Y-45534075D01*
X22105826Y-45500000D01*
X21974174Y-45500000D01*
X21847007Y-45534075D01*
X21790000Y-45566988D01*
X21790000Y-44669364D01*
X21789999Y-44669364D01*
X21576513Y-44726567D01*
X21576507Y-44726570D01*
X21362422Y-44826399D01*
X21362420Y-44826400D01*
X21168926Y-44961886D01*
X21168920Y-44961891D01*
X21001891Y-45128920D01*
X21001890Y-45128922D01*
X20871880Y-45314595D01*
X20817303Y-45358219D01*
X20747804Y-45365412D01*
X20685450Y-45333890D01*
X20668730Y-45314594D01*
X20538494Y-45128597D01*
X20371402Y-44961506D01*
X20371395Y-44961501D01*
X20177834Y-44825967D01*
X20177830Y-44825965D01*
X20177828Y-44825964D01*
X19963663Y-44726097D01*
X19963659Y-44726096D01*
X19963655Y-44726094D01*
X19735413Y-44664938D01*
X19735403Y-44664936D01*
X19500001Y-44644341D01*
X19499999Y-44644341D01*
X19264596Y-44664936D01*
X19264586Y-44664938D01*
X19036344Y-44726094D01*
X19036335Y-44726098D01*
X18822171Y-44825964D01*
X18822169Y-44825965D01*
X18628600Y-44961503D01*
X18506673Y-45083430D01*
X18445350Y-45116914D01*
X18375658Y-45111930D01*
X18319725Y-45070058D01*
X18302810Y-45039081D01*
X18253797Y-44907671D01*
X18253793Y-44907664D01*
X18167547Y-44792455D01*
X18167544Y-44792452D01*
X18052335Y-44706206D01*
X18052332Y-44706205D01*
X18052331Y-44706204D01*
X18041161Y-44702038D01*
X17985231Y-44660166D01*
X17960816Y-44594701D01*
X17960500Y-44585858D01*
X17960500Y-43093389D01*
X30503500Y-43093389D01*
X30503500Y-43266611D01*
X30530598Y-43437701D01*
X30584127Y-43602445D01*
X30662768Y-43756788D01*
X30764586Y-43896928D01*
X30887072Y-44019414D01*
X31027212Y-44121232D01*
X31181555Y-44199873D01*
X31346299Y-44253402D01*
X31517389Y-44280500D01*
X31517390Y-44280500D01*
X32490610Y-44280500D01*
X32490611Y-44280500D01*
X32661701Y-44253402D01*
X32826445Y-44199873D01*
X32980788Y-44121232D01*
X33120928Y-44019414D01*
X33243414Y-43896928D01*
X33345232Y-43756788D01*
X33423873Y-43602445D01*
X33477402Y-43437701D01*
X33504500Y-43266611D01*
X33504500Y-43093389D01*
X33477402Y-42922299D01*
X33423873Y-42757555D01*
X33345232Y-42603212D01*
X33243414Y-42463072D01*
X33120928Y-42340586D01*
X32980788Y-42238768D01*
X32826445Y-42160127D01*
X32661701Y-42106598D01*
X32661699Y-42106597D01*
X32661698Y-42106597D01*
X32530271Y-42085781D01*
X32490611Y-42079500D01*
X31517389Y-42079500D01*
X31477728Y-42085781D01*
X31346302Y-42106597D01*
X31181552Y-42160128D01*
X31027211Y-42238768D01*
X31010929Y-42250598D01*
X30887072Y-42340586D01*
X30887070Y-42340588D01*
X30887069Y-42340588D01*
X30764588Y-42463069D01*
X30764588Y-42463070D01*
X30764586Y-42463072D01*
X30764582Y-42463078D01*
X30662768Y-42603211D01*
X30584128Y-42757552D01*
X30530597Y-42922302D01*
X30503500Y-43093389D01*
X17960500Y-43093389D01*
X17960500Y-42317637D01*
X17980185Y-42250598D01*
X18032989Y-42204843D01*
X18097101Y-42194279D01*
X18157991Y-42200500D01*
X18908008Y-42200499D01*
X18908016Y-42200498D01*
X18908019Y-42200498D01*
X18968898Y-42194279D01*
X19010797Y-42189999D01*
X19177334Y-42134814D01*
X19326656Y-42042712D01*
X19450712Y-41918656D01*
X19452752Y-41915347D01*
X19454745Y-41913555D01*
X19455193Y-41912989D01*
X19455289Y-41913065D01*
X19504694Y-41868623D01*
X19573656Y-41857395D01*
X19637740Y-41885234D01*
X19663829Y-41915339D01*
X19665681Y-41918341D01*
X19665683Y-41918344D01*
X19789654Y-42042315D01*
X19938875Y-42134356D01*
X19938880Y-42134358D01*
X20105302Y-42189505D01*
X20105309Y-42189506D01*
X20208019Y-42199999D01*
X20332999Y-42199999D01*
X20833000Y-42199999D01*
X20957972Y-42199999D01*
X20957986Y-42199998D01*
X21060697Y-42189505D01*
X21227119Y-42134358D01*
X21227124Y-42134356D01*
X21376345Y-42042315D01*
X21500315Y-41918345D01*
X21592356Y-41769124D01*
X21592358Y-41769119D01*
X21647505Y-41602697D01*
X21647506Y-41602690D01*
X21657999Y-41499986D01*
X21658000Y-41499973D01*
X21658000Y-41250000D01*
X20833000Y-41250000D01*
X20833000Y-42199999D01*
X20332999Y-42199999D01*
X20333000Y-42199998D01*
X20333000Y-40750000D01*
X20833000Y-40750000D01*
X21657999Y-40750000D01*
X21657999Y-40553389D01*
X30503500Y-40553389D01*
X30503500Y-40726611D01*
X30530598Y-40897701D01*
X30584127Y-41062445D01*
X30662768Y-41216788D01*
X30764586Y-41356928D01*
X30887072Y-41479414D01*
X31027212Y-41581232D01*
X31181555Y-41659873D01*
X31346299Y-41713402D01*
X31517389Y-41740500D01*
X31517390Y-41740500D01*
X32490610Y-41740500D01*
X32490611Y-41740500D01*
X32661701Y-41713402D01*
X32826445Y-41659873D01*
X32980788Y-41581232D01*
X33120928Y-41479414D01*
X33243414Y-41356928D01*
X33345232Y-41216788D01*
X33423873Y-41062445D01*
X33477402Y-40897701D01*
X33504500Y-40726611D01*
X33504500Y-40553389D01*
X33477402Y-40382299D01*
X33423873Y-40217555D01*
X33345232Y-40063212D01*
X33243414Y-39923072D01*
X33120928Y-39800586D01*
X32980788Y-39698768D01*
X32826445Y-39620127D01*
X32661701Y-39566598D01*
X32661699Y-39566597D01*
X32661698Y-39566597D01*
X32530271Y-39545781D01*
X32490611Y-39539500D01*
X31517389Y-39539500D01*
X31477728Y-39545781D01*
X31346302Y-39566597D01*
X31181552Y-39620128D01*
X31027211Y-39698768D01*
X30963486Y-39745068D01*
X30887072Y-39800586D01*
X30887070Y-39800588D01*
X30887069Y-39800588D01*
X30764588Y-39923069D01*
X30764588Y-39923070D01*
X30764586Y-39923072D01*
X30764582Y-39923078D01*
X30662768Y-40063211D01*
X30584128Y-40217552D01*
X30530597Y-40382302D01*
X30503500Y-40553389D01*
X21657999Y-40553389D01*
X21657999Y-40500028D01*
X21657998Y-40500013D01*
X21647505Y-40397302D01*
X21592358Y-40230880D01*
X21592356Y-40230875D01*
X21500315Y-40081654D01*
X21376345Y-39957684D01*
X21227124Y-39865643D01*
X21227119Y-39865641D01*
X21060697Y-39810494D01*
X21060690Y-39810493D01*
X20957986Y-39800000D01*
X20833000Y-39800000D01*
X20833000Y-40750000D01*
X20333000Y-40750000D01*
X20333000Y-39800000D01*
X20208027Y-39800000D01*
X20208012Y-39800001D01*
X20105302Y-39810494D01*
X19938880Y-39865641D01*
X19938875Y-39865643D01*
X19789654Y-39957684D01*
X19665683Y-40081655D01*
X19665679Y-40081660D01*
X19663826Y-40084665D01*
X19662018Y-40086290D01*
X19661202Y-40087323D01*
X19661025Y-40087183D01*
X19611874Y-40131385D01*
X19542911Y-40142601D01*
X19478831Y-40114752D01*
X19452753Y-40084653D01*
X19452737Y-40084628D01*
X19450712Y-40081344D01*
X19326656Y-39957288D01*
X19177334Y-39865186D01*
X19010797Y-39810001D01*
X19010795Y-39810000D01*
X18908010Y-39799500D01*
X18157998Y-39799500D01*
X18157977Y-39799502D01*
X18097100Y-39805720D01*
X18028407Y-39792949D01*
X17977523Y-39745068D01*
X17960500Y-39682362D01*
X17960500Y-38013389D01*
X30503500Y-38013389D01*
X30503500Y-38186611D01*
X30530598Y-38357701D01*
X30584127Y-38522445D01*
X30662768Y-38676788D01*
X30764586Y-38816928D01*
X30887072Y-38939414D01*
X31027212Y-39041232D01*
X31181555Y-39119873D01*
X31346299Y-39173402D01*
X31517389Y-39200500D01*
X31517390Y-39200500D01*
X32490610Y-39200500D01*
X32490611Y-39200500D01*
X32661701Y-39173402D01*
X32826445Y-39119873D01*
X32980788Y-39041232D01*
X33120928Y-38939414D01*
X33243414Y-38816928D01*
X33345232Y-38676788D01*
X33423873Y-38522445D01*
X33477402Y-38357701D01*
X33504500Y-38186611D01*
X33504500Y-38013389D01*
X33477402Y-37842299D01*
X33423873Y-37677555D01*
X33345232Y-37523212D01*
X33243414Y-37383072D01*
X33120928Y-37260586D01*
X32980788Y-37158768D01*
X32826445Y-37080127D01*
X32661701Y-37026598D01*
X32661699Y-37026597D01*
X32661698Y-37026597D01*
X32530271Y-37005781D01*
X32490611Y-36999500D01*
X31517389Y-36999500D01*
X31477728Y-37005781D01*
X31346302Y-37026597D01*
X31181552Y-37080128D01*
X31027211Y-37158768D01*
X30960078Y-37207544D01*
X30887072Y-37260586D01*
X30887070Y-37260588D01*
X30887069Y-37260588D01*
X30764588Y-37383069D01*
X30764588Y-37383070D01*
X30764586Y-37383072D01*
X30742686Y-37413215D01*
X30662768Y-37523211D01*
X30584128Y-37677552D01*
X30530597Y-37842302D01*
X30503500Y-38013389D01*
X17960500Y-38013389D01*
X17960500Y-37414141D01*
X17980185Y-37347102D01*
X18032989Y-37301347D01*
X18041149Y-37297966D01*
X18052331Y-37293796D01*
X18079533Y-37273433D01*
X18096694Y-37260586D01*
X18167546Y-37207546D01*
X18253796Y-37092331D01*
X18302810Y-36960916D01*
X18344681Y-36904984D01*
X18410145Y-36880566D01*
X18478418Y-36895417D01*
X18506673Y-36916569D01*
X18628599Y-37038495D01*
X18725384Y-37106265D01*
X18822165Y-37174032D01*
X18822167Y-37174033D01*
X18822170Y-37174035D01*
X19036337Y-37273903D01*
X19264592Y-37335063D01*
X19452918Y-37351539D01*
X19499999Y-37355659D01*
X19500000Y-37355659D01*
X19500001Y-37355659D01*
X19539234Y-37352226D01*
X19735408Y-37335063D01*
X19963663Y-37273903D01*
X20177830Y-37174035D01*
X20371401Y-37038495D01*
X20538495Y-36871401D01*
X20668730Y-36685405D01*
X20723307Y-36641781D01*
X20792805Y-36634587D01*
X20855160Y-36666110D01*
X20871879Y-36685405D01*
X21001890Y-36871078D01*
X21168917Y-37038105D01*
X21362421Y-37173600D01*
X21576507Y-37273429D01*
X21576516Y-37273433D01*
X21790000Y-37330634D01*
X21790000Y-36433012D01*
X21847007Y-36465925D01*
X21974174Y-36500000D01*
X22105826Y-36500000D01*
X22232993Y-36465925D01*
X22290000Y-36433012D01*
X22290000Y-37330633D01*
X22503483Y-37273433D01*
X22503492Y-37273429D01*
X22717578Y-37173600D01*
X22911082Y-37038105D01*
X23078105Y-36871082D01*
X23213600Y-36677578D01*
X23313429Y-36463492D01*
X23313432Y-36463486D01*
X23370636Y-36250000D01*
X22473012Y-36250000D01*
X22505925Y-36192993D01*
X22540000Y-36065826D01*
X22540000Y-35934174D01*
X22505925Y-35807007D01*
X22473012Y-35750000D01*
X23370636Y-35750000D01*
X23370635Y-35749999D01*
X23313432Y-35536513D01*
X23313429Y-35536507D01*
X23283997Y-35473389D01*
X30503500Y-35473389D01*
X30503500Y-35646611D01*
X30530598Y-35817701D01*
X30584127Y-35982445D01*
X30662768Y-36136788D01*
X30764586Y-36276928D01*
X30887072Y-36399414D01*
X31027212Y-36501232D01*
X31181555Y-36579873D01*
X31346299Y-36633402D01*
X31517389Y-36660500D01*
X31517390Y-36660500D01*
X32490610Y-36660500D01*
X32490611Y-36660500D01*
X32661701Y-36633402D01*
X32826445Y-36579873D01*
X32980788Y-36501232D01*
X33120928Y-36399414D01*
X33243414Y-36276928D01*
X33345232Y-36136788D01*
X33423873Y-35982445D01*
X33477402Y-35817701D01*
X33504500Y-35646611D01*
X33504500Y-35473389D01*
X33477402Y-35302299D01*
X33423873Y-35137555D01*
X33345232Y-34983212D01*
X33243414Y-34843072D01*
X33120928Y-34720586D01*
X32980788Y-34618768D01*
X32826445Y-34540127D01*
X32661701Y-34486598D01*
X32661699Y-34486597D01*
X32661698Y-34486597D01*
X32530271Y-34465781D01*
X32490611Y-34459500D01*
X31517389Y-34459500D01*
X31477728Y-34465781D01*
X31346302Y-34486597D01*
X31181552Y-34540128D01*
X31027211Y-34618768D01*
X30957573Y-34669364D01*
X30887072Y-34720586D01*
X30887070Y-34720588D01*
X30887069Y-34720588D01*
X30764588Y-34843069D01*
X30764588Y-34843070D01*
X30764586Y-34843072D01*
X30764582Y-34843078D01*
X30662768Y-34983211D01*
X30584128Y-35137552D01*
X30530597Y-35302302D01*
X30521741Y-35358219D01*
X30503500Y-35473389D01*
X23283997Y-35473389D01*
X23213600Y-35322422D01*
X23213599Y-35322420D01*
X23078113Y-35128926D01*
X23078108Y-35128920D01*
X22911082Y-34961894D01*
X22717578Y-34826399D01*
X22503492Y-34726570D01*
X22503486Y-34726567D01*
X22290000Y-34669364D01*
X22290000Y-35566988D01*
X22232993Y-35534075D01*
X22105826Y-35500000D01*
X21974174Y-35500000D01*
X21847007Y-35534075D01*
X21790000Y-35566988D01*
X21790000Y-34669364D01*
X21789999Y-34669364D01*
X21576513Y-34726567D01*
X21576507Y-34726570D01*
X21362422Y-34826399D01*
X21362420Y-34826400D01*
X21168926Y-34961886D01*
X21168920Y-34961891D01*
X21001891Y-35128920D01*
X21001890Y-35128922D01*
X20871880Y-35314595D01*
X20817303Y-35358219D01*
X20747804Y-35365412D01*
X20685450Y-35333890D01*
X20668730Y-35314594D01*
X20538494Y-35128597D01*
X20371402Y-34961506D01*
X20371395Y-34961501D01*
X20177834Y-34825967D01*
X20177830Y-34825965D01*
X20177828Y-34825964D01*
X19963663Y-34726097D01*
X19963659Y-34726096D01*
X19963655Y-34726094D01*
X19735413Y-34664938D01*
X19735403Y-34664936D01*
X19500001Y-34644341D01*
X19499999Y-34644341D01*
X19264596Y-34664936D01*
X19264586Y-34664938D01*
X19036344Y-34726094D01*
X19036335Y-34726098D01*
X18822171Y-34825964D01*
X18822169Y-34825965D01*
X18628600Y-34961503D01*
X18506673Y-35083430D01*
X18445350Y-35116914D01*
X18375658Y-35111930D01*
X18319725Y-35070058D01*
X18302810Y-35039081D01*
X18253797Y-34907671D01*
X18253793Y-34907664D01*
X18167547Y-34792455D01*
X18167544Y-34792452D01*
X18052335Y-34706206D01*
X18052329Y-34706203D01*
X18001166Y-34687120D01*
X17945233Y-34645248D01*
X17920816Y-34579783D01*
X17920500Y-34570938D01*
X17920500Y-32933389D01*
X30503500Y-32933389D01*
X30503500Y-33106611D01*
X30530598Y-33277701D01*
X30584127Y-33442445D01*
X30662768Y-33596788D01*
X30764586Y-33736928D01*
X30887072Y-33859414D01*
X31027212Y-33961232D01*
X31181555Y-34039873D01*
X31346299Y-34093402D01*
X31517389Y-34120500D01*
X31517390Y-34120500D01*
X32490610Y-34120500D01*
X32490611Y-34120500D01*
X32661701Y-34093402D01*
X32826445Y-34039873D01*
X32980788Y-33961232D01*
X33120928Y-33859414D01*
X33243414Y-33736928D01*
X33345232Y-33596788D01*
X33423873Y-33442445D01*
X33477402Y-33277701D01*
X33504500Y-33106611D01*
X33504500Y-32933389D01*
X33477402Y-32762299D01*
X33423873Y-32597555D01*
X33345232Y-32443212D01*
X33243414Y-32303072D01*
X33120928Y-32180586D01*
X32980788Y-32078768D01*
X32826445Y-32000127D01*
X32661701Y-31946598D01*
X32661699Y-31946597D01*
X32661698Y-31946597D01*
X32530271Y-31925781D01*
X32490611Y-31919500D01*
X31517389Y-31919500D01*
X31477728Y-31925781D01*
X31346302Y-31946597D01*
X31181552Y-32000128D01*
X31027211Y-32078768D01*
X30975964Y-32116002D01*
X30887072Y-32180586D01*
X30887070Y-32180588D01*
X30887069Y-32180588D01*
X30764588Y-32303069D01*
X30764588Y-32303070D01*
X30764586Y-32303072D01*
X30764582Y-32303078D01*
X30662768Y-32443211D01*
X30584128Y-32597552D01*
X30530597Y-32762302D01*
X30530597Y-32762304D01*
X30503500Y-32933389D01*
X17920500Y-32933389D01*
X17920500Y-31816922D01*
X17940185Y-31749883D01*
X17992989Y-31704128D01*
X18057101Y-31693564D01*
X18124991Y-31700500D01*
X18875008Y-31700499D01*
X18875016Y-31700498D01*
X18875019Y-31700498D01*
X18931302Y-31694748D01*
X18977797Y-31689999D01*
X19144334Y-31634814D01*
X19293656Y-31542712D01*
X19417712Y-31418656D01*
X19419752Y-31415347D01*
X19421745Y-31413555D01*
X19422193Y-31412989D01*
X19422289Y-31413065D01*
X19471694Y-31368623D01*
X19540656Y-31357395D01*
X19604740Y-31385234D01*
X19630829Y-31415339D01*
X19632681Y-31418341D01*
X19632683Y-31418344D01*
X19756654Y-31542315D01*
X19905875Y-31634356D01*
X19905880Y-31634358D01*
X20072302Y-31689505D01*
X20072309Y-31689506D01*
X20175019Y-31699999D01*
X20299999Y-31699999D01*
X20800000Y-31699999D01*
X20924972Y-31699999D01*
X20924986Y-31699998D01*
X21027697Y-31689505D01*
X21194119Y-31634358D01*
X21194124Y-31634356D01*
X21343345Y-31542315D01*
X21467315Y-31418345D01*
X21559356Y-31269124D01*
X21559358Y-31269119D01*
X21614505Y-31102697D01*
X21614506Y-31102690D01*
X21624999Y-30999986D01*
X21625000Y-30999973D01*
X21625000Y-30750000D01*
X20800000Y-30750000D01*
X20800000Y-31699999D01*
X20299999Y-31699999D01*
X20300000Y-31699998D01*
X20300000Y-30393389D01*
X30503500Y-30393389D01*
X30503500Y-30566610D01*
X30520356Y-30673039D01*
X30530598Y-30737701D01*
X30584127Y-30902445D01*
X30662768Y-31056788D01*
X30764586Y-31196928D01*
X30887072Y-31319414D01*
X31027212Y-31421232D01*
X31181555Y-31499873D01*
X31346299Y-31553402D01*
X31517389Y-31580500D01*
X31517390Y-31580500D01*
X32490610Y-31580500D01*
X32490611Y-31580500D01*
X32661701Y-31553402D01*
X32826445Y-31499873D01*
X32980788Y-31421232D01*
X33120928Y-31319414D01*
X33243414Y-31196928D01*
X33345232Y-31056788D01*
X33423873Y-30902445D01*
X33477402Y-30737701D01*
X33504500Y-30566611D01*
X33504500Y-30393389D01*
X33477402Y-30222299D01*
X33423873Y-30057555D01*
X33345232Y-29903212D01*
X33243414Y-29763072D01*
X33120928Y-29640586D01*
X32980788Y-29538768D01*
X32826445Y-29460127D01*
X32661701Y-29406598D01*
X32661699Y-29406597D01*
X32661698Y-29406597D01*
X32530271Y-29385781D01*
X32490611Y-29379500D01*
X31517389Y-29379500D01*
X31477728Y-29385781D01*
X31346302Y-29406597D01*
X31346299Y-29406598D01*
X31190293Y-29457288D01*
X31181552Y-29460128D01*
X31027211Y-29538768D01*
X30968183Y-29581655D01*
X30887072Y-29640586D01*
X30887070Y-29640588D01*
X30887069Y-29640588D01*
X30764588Y-29763069D01*
X30764588Y-29763070D01*
X30764586Y-29763072D01*
X30764350Y-29763397D01*
X30662768Y-29903211D01*
X30584128Y-30057552D01*
X30530597Y-30222302D01*
X30503500Y-30393389D01*
X20300000Y-30393389D01*
X20300000Y-30250000D01*
X20800000Y-30250000D01*
X21624999Y-30250000D01*
X21624999Y-30000028D01*
X21624998Y-30000013D01*
X21614505Y-29897302D01*
X21559358Y-29730880D01*
X21559356Y-29730875D01*
X21467315Y-29581654D01*
X21343345Y-29457684D01*
X21194124Y-29365643D01*
X21194119Y-29365641D01*
X21027697Y-29310494D01*
X21027690Y-29310493D01*
X20924986Y-29300000D01*
X20800000Y-29300000D01*
X20800000Y-30250000D01*
X20300000Y-30250000D01*
X20300000Y-29300000D01*
X20175027Y-29300000D01*
X20175012Y-29300001D01*
X20072302Y-29310494D01*
X19905880Y-29365641D01*
X19905875Y-29365643D01*
X19756654Y-29457684D01*
X19632683Y-29581655D01*
X19632679Y-29581660D01*
X19630826Y-29584665D01*
X19629018Y-29586290D01*
X19628202Y-29587323D01*
X19628025Y-29587183D01*
X19578874Y-29631385D01*
X19509911Y-29642601D01*
X19445831Y-29614752D01*
X19419753Y-29584653D01*
X19419737Y-29584628D01*
X19417712Y-29581344D01*
X19293656Y-29457288D01*
X19171158Y-29381731D01*
X19144336Y-29365187D01*
X19144331Y-29365185D01*
X19142862Y-29364698D01*
X18977797Y-29310001D01*
X18977795Y-29310000D01*
X18875010Y-29299500D01*
X18124998Y-29299500D01*
X18124980Y-29299501D01*
X18057101Y-29306436D01*
X17988409Y-29293666D01*
X17937524Y-29245785D01*
X17920500Y-29183078D01*
X17920500Y-27414141D01*
X17940185Y-27347102D01*
X17992989Y-27301347D01*
X18001149Y-27297966D01*
X18012331Y-27293796D01*
X18039533Y-27273433D01*
X18102172Y-27226541D01*
X18127546Y-27207546D01*
X18213796Y-27092331D01*
X18262810Y-26960916D01*
X18304681Y-26904984D01*
X18370145Y-26880566D01*
X18438418Y-26895417D01*
X18466673Y-26916569D01*
X18588599Y-27038495D01*
X18677274Y-27100586D01*
X18782165Y-27174032D01*
X18782167Y-27174033D01*
X18782170Y-27174035D01*
X18996337Y-27273903D01*
X19224592Y-27335063D01*
X19412918Y-27351539D01*
X19459999Y-27355659D01*
X19460000Y-27355659D01*
X19460001Y-27355659D01*
X19499234Y-27352226D01*
X19695408Y-27335063D01*
X19923663Y-27273903D01*
X20137830Y-27174035D01*
X20331401Y-27038495D01*
X20498495Y-26871401D01*
X20628730Y-26685405D01*
X20683307Y-26641781D01*
X20752805Y-26634587D01*
X20815160Y-26666110D01*
X20831879Y-26685405D01*
X20961890Y-26871078D01*
X21128917Y-27038105D01*
X21322421Y-27173600D01*
X21536507Y-27273429D01*
X21536516Y-27273433D01*
X21750000Y-27330634D01*
X21750000Y-26433012D01*
X21807007Y-26465925D01*
X21934174Y-26500000D01*
X22065826Y-26500000D01*
X22192993Y-26465925D01*
X22250000Y-26433012D01*
X22250000Y-27330633D01*
X22463483Y-27273433D01*
X22463492Y-27273429D01*
X22677578Y-27173600D01*
X22871082Y-27038105D01*
X23038105Y-26871082D01*
X23173600Y-26677578D01*
X23273429Y-26463492D01*
X23273432Y-26463486D01*
X23330636Y-26250000D01*
X22433012Y-26250000D01*
X22465925Y-26192993D01*
X22500000Y-26065826D01*
X22500000Y-25934174D01*
X22465925Y-25807007D01*
X22433012Y-25750000D01*
X23330636Y-25750000D01*
X23330635Y-25749999D01*
X23273432Y-25536513D01*
X23273429Y-25536507D01*
X23173600Y-25322422D01*
X23173599Y-25322420D01*
X23038113Y-25128926D01*
X23038108Y-25128920D01*
X22871082Y-24961894D01*
X22677578Y-24826399D01*
X22463492Y-24726570D01*
X22463486Y-24726567D01*
X22250000Y-24669364D01*
X22250000Y-25566988D01*
X22192993Y-25534075D01*
X22065826Y-25500000D01*
X21934174Y-25500000D01*
X21807007Y-25534075D01*
X21750000Y-25566988D01*
X21750000Y-24669364D01*
X21749999Y-24669364D01*
X21536513Y-24726567D01*
X21536507Y-24726570D01*
X21322422Y-24826399D01*
X21322420Y-24826400D01*
X21128926Y-24961886D01*
X21128920Y-24961891D01*
X20961891Y-25128920D01*
X20961890Y-25128922D01*
X20831880Y-25314595D01*
X20777303Y-25358219D01*
X20707804Y-25365412D01*
X20645450Y-25333890D01*
X20628730Y-25314594D01*
X20498494Y-25128597D01*
X20331402Y-24961506D01*
X20331395Y-24961501D01*
X20298396Y-24938395D01*
X20268254Y-24917289D01*
X20137834Y-24825967D01*
X20137830Y-24825965D01*
X20086437Y-24802000D01*
X19923663Y-24726097D01*
X19923659Y-24726096D01*
X19923655Y-24726094D01*
X19695413Y-24664938D01*
X19695403Y-24664936D01*
X19460001Y-24644341D01*
X19459999Y-24644341D01*
X19224596Y-24664936D01*
X19224586Y-24664938D01*
X18996344Y-24726094D01*
X18996335Y-24726098D01*
X18782171Y-24825964D01*
X18782169Y-24825965D01*
X18588600Y-24961503D01*
X18466673Y-25083430D01*
X18405350Y-25116914D01*
X18335658Y-25111930D01*
X18279725Y-25070058D01*
X18262810Y-25039081D01*
X18213797Y-24907671D01*
X18213793Y-24907664D01*
X18127547Y-24792455D01*
X18125507Y-24790928D01*
X18096428Y-24769159D01*
X18025188Y-24715828D01*
X17983318Y-24659894D01*
X17975500Y-24616562D01*
X17975500Y-21824499D01*
X17995185Y-21757460D01*
X18047989Y-21711705D01*
X18099500Y-21700499D01*
X18099981Y-21700499D01*
X18099991Y-21700500D01*
X18850008Y-21700499D01*
X18850016Y-21700498D01*
X18850019Y-21700498D01*
X18906302Y-21694748D01*
X18952797Y-21689999D01*
X19119334Y-21634814D01*
X19268656Y-21542712D01*
X19392712Y-21418656D01*
X19394752Y-21415347D01*
X19396745Y-21413555D01*
X19397193Y-21412989D01*
X19397289Y-21413065D01*
X19446694Y-21368623D01*
X19515656Y-21357395D01*
X19579740Y-21385234D01*
X19605829Y-21415339D01*
X19607681Y-21418341D01*
X19607683Y-21418344D01*
X19731654Y-21542315D01*
X19880875Y-21634356D01*
X19880880Y-21634358D01*
X20047302Y-21689505D01*
X20047309Y-21689506D01*
X20150019Y-21699999D01*
X20274999Y-21699999D01*
X20775000Y-21699999D01*
X20899972Y-21699999D01*
X20899986Y-21699998D01*
X21002697Y-21689505D01*
X21169119Y-21634358D01*
X21169124Y-21634356D01*
X21318345Y-21542315D01*
X21442315Y-21418345D01*
X21534356Y-21269124D01*
X21534358Y-21269119D01*
X21589505Y-21102697D01*
X21589506Y-21102690D01*
X21599999Y-20999986D01*
X21600000Y-20999973D01*
X21600000Y-20750000D01*
X20775000Y-20750000D01*
X20775000Y-21699999D01*
X20274999Y-21699999D01*
X20275000Y-21699998D01*
X20275000Y-20250000D01*
X20775000Y-20250000D01*
X21599999Y-20250000D01*
X21599999Y-20000028D01*
X21599998Y-20000013D01*
X21589505Y-19897302D01*
X21534358Y-19730880D01*
X21534356Y-19730875D01*
X21442315Y-19581654D01*
X21318345Y-19457684D01*
X21169124Y-19365643D01*
X21169119Y-19365641D01*
X21002697Y-19310494D01*
X21002690Y-19310493D01*
X20899986Y-19300000D01*
X20775000Y-19300000D01*
X20775000Y-20250000D01*
X20275000Y-20250000D01*
X20275000Y-19300000D01*
X20150027Y-19300000D01*
X20150012Y-19300001D01*
X20047302Y-19310494D01*
X19880880Y-19365641D01*
X19880875Y-19365643D01*
X19731654Y-19457684D01*
X19607683Y-19581655D01*
X19607679Y-19581660D01*
X19605826Y-19584665D01*
X19604018Y-19586290D01*
X19603202Y-19587323D01*
X19603025Y-19587183D01*
X19553874Y-19631385D01*
X19484911Y-19642601D01*
X19420831Y-19614752D01*
X19394753Y-19584653D01*
X19394737Y-19584628D01*
X19392712Y-19581344D01*
X19268656Y-19457288D01*
X19119334Y-19365186D01*
X18952797Y-19310001D01*
X18952795Y-19310000D01*
X18850016Y-19299500D01*
X18099500Y-19299500D01*
X18032461Y-19279815D01*
X17986706Y-19227011D01*
X17975500Y-19175500D01*
X17975500Y-16914141D01*
X17995185Y-16847102D01*
X18047989Y-16801347D01*
X18056149Y-16797966D01*
X18067331Y-16793796D01*
X18094533Y-16773433D01*
X18112307Y-16760127D01*
X18182546Y-16707546D01*
X18268796Y-16592331D01*
X18317810Y-16460916D01*
X18359681Y-16404984D01*
X18425145Y-16380566D01*
X18493418Y-16395417D01*
X18521673Y-16416569D01*
X18643599Y-16538495D01*
X18740384Y-16606265D01*
X18837165Y-16674032D01*
X18837167Y-16674033D01*
X18837170Y-16674035D01*
X19051337Y-16773903D01*
X19279592Y-16835063D01*
X19467918Y-16851539D01*
X19514999Y-16855659D01*
X19515000Y-16855659D01*
X19515001Y-16855659D01*
X19554234Y-16852226D01*
X19750408Y-16835063D01*
X19978663Y-16773903D01*
X20192830Y-16674035D01*
X20386401Y-16538495D01*
X20553495Y-16371401D01*
X20683730Y-16185405D01*
X20738307Y-16141781D01*
X20807805Y-16134587D01*
X20870160Y-16166110D01*
X20886879Y-16185405D01*
X21016890Y-16371078D01*
X21183917Y-16538105D01*
X21377421Y-16673600D01*
X21591507Y-16773429D01*
X21591516Y-16773433D01*
X21805000Y-16830634D01*
X21805000Y-15933012D01*
X21862007Y-15965925D01*
X21989174Y-16000000D01*
X22120826Y-16000000D01*
X22247993Y-15965925D01*
X22305000Y-15933012D01*
X22305000Y-16830633D01*
X22518483Y-16773433D01*
X22518492Y-16773429D01*
X22732578Y-16673600D01*
X22926082Y-16538105D01*
X23093105Y-16371082D01*
X23228600Y-16177578D01*
X23328429Y-15963492D01*
X23328432Y-15963486D01*
X23385636Y-15750000D01*
X22488012Y-15750000D01*
X22520925Y-15692993D01*
X22555000Y-15565826D01*
X22555000Y-15434174D01*
X22520925Y-15307007D01*
X22488012Y-15250000D01*
X23385636Y-15250000D01*
X23385635Y-15249999D01*
X23328432Y-15036513D01*
X23328429Y-15036507D01*
X23228600Y-14822422D01*
X23228599Y-14822420D01*
X23093113Y-14628926D01*
X23093108Y-14628920D01*
X22926082Y-14461894D01*
X22732578Y-14326399D01*
X22518492Y-14226570D01*
X22518486Y-14226567D01*
X22305000Y-14169364D01*
X22305000Y-15066988D01*
X22247993Y-15034075D01*
X22120826Y-15000000D01*
X21989174Y-15000000D01*
X21862007Y-15034075D01*
X21805000Y-15066988D01*
X21805000Y-14169364D01*
X21804999Y-14169364D01*
X21591513Y-14226567D01*
X21591507Y-14226570D01*
X21377422Y-14326399D01*
X21377420Y-14326400D01*
X21183926Y-14461886D01*
X21183920Y-14461891D01*
X21016891Y-14628920D01*
X21016890Y-14628922D01*
X20886880Y-14814595D01*
X20832303Y-14858219D01*
X20762804Y-14865412D01*
X20700450Y-14833890D01*
X20683730Y-14814594D01*
X20553494Y-14628597D01*
X20386402Y-14461506D01*
X20386395Y-14461501D01*
X20192834Y-14325967D01*
X20192830Y-14325965D01*
X20192828Y-14325964D01*
X19978663Y-14226097D01*
X19978659Y-14226096D01*
X19978655Y-14226094D01*
X19750413Y-14164938D01*
X19750403Y-14164936D01*
X19515001Y-14144341D01*
X19514999Y-14144341D01*
X19279596Y-14164936D01*
X19279586Y-14164938D01*
X19051344Y-14226094D01*
X19051335Y-14226098D01*
X18837171Y-14325964D01*
X18837169Y-14325965D01*
X18643600Y-14461503D01*
X18521673Y-14583430D01*
X18460350Y-14616914D01*
X18390658Y-14611930D01*
X18334725Y-14570058D01*
X18317810Y-14539081D01*
X18268797Y-14407671D01*
X18268793Y-14407664D01*
X18182547Y-14292455D01*
X18182544Y-14292452D01*
X18067335Y-14206206D01*
X18067328Y-14206202D01*
X17932482Y-14155908D01*
X17932483Y-14155908D01*
X17872883Y-14149501D01*
X17872881Y-14149500D01*
X17872873Y-14149500D01*
X17872864Y-14149500D01*
X16077129Y-14149500D01*
X16077123Y-14149501D01*
X16017516Y-14155908D01*
X15882671Y-14206202D01*
X15882664Y-14206206D01*
X15767455Y-14292452D01*
X15767452Y-14292455D01*
X15681206Y-14407664D01*
X15681202Y-14407671D01*
X15630908Y-14542517D01*
X15624501Y-14602116D01*
X15624500Y-14602135D01*
X15624500Y-16397870D01*
X15624501Y-16397876D01*
X15630908Y-16457483D01*
X15681202Y-16592328D01*
X15681206Y-16592335D01*
X15767452Y-16707544D01*
X15767455Y-16707547D01*
X15882665Y-16793794D01*
X15882667Y-16793794D01*
X15882669Y-16793796D01*
X15893830Y-16797958D01*
X15949764Y-16839826D01*
X15974184Y-16905289D01*
X15974500Y-16914141D01*
X15974500Y-24565344D01*
X15954815Y-24632383D01*
X15902011Y-24678138D01*
X15893833Y-24681526D01*
X15827671Y-24706202D01*
X15827664Y-24706206D01*
X15712455Y-24792452D01*
X15712452Y-24792455D01*
X15626206Y-24907664D01*
X15626202Y-24907671D01*
X15575908Y-25042517D01*
X15569501Y-25102116D01*
X15569500Y-25102135D01*
X15569500Y-26897870D01*
X15569501Y-26897876D01*
X15575908Y-26957483D01*
X15626202Y-27092328D01*
X15626206Y-27092335D01*
X15712452Y-27207544D01*
X15712455Y-27207547D01*
X15827665Y-27293794D01*
X15827667Y-27293794D01*
X15827669Y-27293796D01*
X15838830Y-27297958D01*
X15894764Y-27339826D01*
X15919184Y-27405289D01*
X15919500Y-27414141D01*
X15919500Y-34605333D01*
X15899815Y-34672372D01*
X15869812Y-34704599D01*
X15752452Y-34792455D01*
X15666206Y-34907664D01*
X15666202Y-34907671D01*
X15615908Y-35042517D01*
X15609501Y-35102116D01*
X15609500Y-35102135D01*
X15609500Y-36897870D01*
X15609501Y-36897876D01*
X15615908Y-36957483D01*
X15666202Y-37092328D01*
X15666206Y-37092335D01*
X15752452Y-37207544D01*
X15752455Y-37207547D01*
X15867665Y-37293794D01*
X15867667Y-37293794D01*
X15867669Y-37293796D01*
X15878830Y-37297958D01*
X15934764Y-37339826D01*
X15959184Y-37405289D01*
X15959500Y-37414141D01*
X15959500Y-44585858D01*
X15939815Y-44652897D01*
X15887011Y-44698652D01*
X15878847Y-44702034D01*
X15867669Y-44706204D01*
X15867664Y-44706206D01*
X15752455Y-44792452D01*
X15752452Y-44792455D01*
X15666206Y-44907664D01*
X15666202Y-44907671D01*
X15615908Y-45042517D01*
X15609501Y-45102116D01*
X15609500Y-45102135D01*
X15609500Y-46897870D01*
X15609501Y-46897876D01*
X15615908Y-46957483D01*
X15666202Y-47092328D01*
X15666206Y-47092335D01*
X15752452Y-47207544D01*
X15752455Y-47207547D01*
X15867666Y-47293794D01*
X15867667Y-47293794D01*
X15867669Y-47293796D01*
X15918833Y-47312878D01*
X15974766Y-47354748D01*
X15999184Y-47420212D01*
X15999500Y-47429060D01*
X15999500Y-54585858D01*
X15979815Y-54652897D01*
X15927011Y-54698652D01*
X15918847Y-54702034D01*
X15907669Y-54706204D01*
X15907664Y-54706206D01*
X15792455Y-54792452D01*
X15792452Y-54792455D01*
X15706206Y-54907664D01*
X15706202Y-54907671D01*
X15655908Y-55042517D01*
X15649501Y-55102116D01*
X15649500Y-55102135D01*
X15649500Y-56897870D01*
X15649501Y-56897876D01*
X15655908Y-56957483D01*
X15706202Y-57092328D01*
X15706206Y-57092335D01*
X15792452Y-57207544D01*
X15792455Y-57207547D01*
X15907665Y-57293794D01*
X15907667Y-57293794D01*
X15907669Y-57293796D01*
X15918830Y-57297958D01*
X15974764Y-57339826D01*
X15999184Y-57405289D01*
X15999500Y-57414141D01*
X15999500Y-64576533D01*
X15979815Y-64643572D01*
X15927011Y-64689327D01*
X15918836Y-64692714D01*
X15882665Y-64706205D01*
X15767455Y-64792452D01*
X15767452Y-64792455D01*
X15681206Y-64907664D01*
X15681202Y-64907671D01*
X15630908Y-65042517D01*
X15624501Y-65102116D01*
X15624500Y-65102135D01*
X15624500Y-66897870D01*
X15624501Y-66897876D01*
X15630908Y-66957483D01*
X15681202Y-67092328D01*
X15681206Y-67092335D01*
X15767452Y-67207544D01*
X15767455Y-67207547D01*
X15882665Y-67293794D01*
X15882667Y-67293794D01*
X15882669Y-67293796D01*
X15893830Y-67297958D01*
X15949764Y-67339826D01*
X15974184Y-67405289D01*
X15974500Y-67414141D01*
X15974500Y-74585858D01*
X15954815Y-74652897D01*
X15902011Y-74698652D01*
X15893847Y-74702034D01*
X15882669Y-74706204D01*
X15882664Y-74706206D01*
X15767455Y-74792452D01*
X15767452Y-74792455D01*
X15681206Y-74907664D01*
X15681202Y-74907671D01*
X15630908Y-75042517D01*
X15624501Y-75102116D01*
X15624500Y-75102135D01*
X15624500Y-76897870D01*
X15624501Y-76897876D01*
X15630908Y-76957483D01*
X15681202Y-77092328D01*
X15681206Y-77092335D01*
X15767452Y-77207544D01*
X15767455Y-77207547D01*
X15882665Y-77293794D01*
X15882667Y-77293794D01*
X15882669Y-77293796D01*
X15893830Y-77297958D01*
X15949764Y-77339826D01*
X15974184Y-77405289D01*
X15974500Y-77414141D01*
X15974500Y-77779541D01*
X15974500Y-77779543D01*
X15974499Y-77779543D01*
X16012947Y-77972829D01*
X16012950Y-77972839D01*
X16088364Y-78154907D01*
X16088371Y-78154920D01*
X16197859Y-78318780D01*
X16197860Y-78318781D01*
X16197861Y-78318782D01*
X16337218Y-78458139D01*
X16337219Y-78458139D01*
X16344286Y-78465206D01*
X16344285Y-78465206D01*
X16344289Y-78465209D01*
X17496181Y-79617101D01*
X17529666Y-79678424D01*
X17532500Y-79704782D01*
X17532500Y-80209202D01*
X17523635Y-80249207D01*
X17525458Y-80249811D01*
X17523187Y-80256664D01*
X17523186Y-80256666D01*
X17468001Y-80423203D01*
X17468001Y-80423204D01*
X17468000Y-80423204D01*
X17457500Y-80525983D01*
X17457500Y-81526001D01*
X17457501Y-81526019D01*
X17468000Y-81628796D01*
X17468001Y-81628799D01*
X17474359Y-81647985D01*
X17523118Y-81795130D01*
X17525458Y-81802190D01*
X17523631Y-81802795D01*
X17532500Y-81842798D01*
X17532500Y-82639542D01*
X17544735Y-82701050D01*
X17544735Y-82701051D01*
X17570947Y-82832833D01*
X17570949Y-82832837D01*
X17593038Y-82886164D01*
X17646366Y-83014911D01*
X17646371Y-83014920D01*
X17755859Y-83178780D01*
X17755860Y-83178781D01*
X17755861Y-83178782D01*
X17895218Y-83318139D01*
X17895219Y-83318139D01*
X17902286Y-83325206D01*
X17902285Y-83325206D01*
X17902288Y-83325208D01*
X18272860Y-83695781D01*
X18272861Y-83695782D01*
X18412218Y-83835139D01*
X18412219Y-83835140D01*
X18429816Y-83846898D01*
X18474621Y-83900510D01*
X18483328Y-83969835D01*
X18453173Y-84032863D01*
X18393730Y-84069582D01*
X18360925Y-84074000D01*
X12062000Y-84074000D01*
X11994961Y-84054315D01*
X11949206Y-84001511D01*
X11938000Y-83950000D01*
X11938000Y-82549999D01*
X12331678Y-82549999D01*
X12331678Y-82550000D01*
X12350923Y-82757691D01*
X12350923Y-82757693D01*
X12350924Y-82757696D01*
X12408006Y-82958319D01*
X12408007Y-82958322D01*
X12500981Y-83145038D01*
X12626683Y-83311494D01*
X12641728Y-83325209D01*
X12780829Y-83452016D01*
X12958172Y-83561823D01*
X13152673Y-83637173D01*
X13357707Y-83675500D01*
X13357710Y-83675500D01*
X13566290Y-83675500D01*
X13566293Y-83675500D01*
X13771327Y-83637173D01*
X13965828Y-83561823D01*
X14143171Y-83452016D01*
X14297318Y-83311493D01*
X14423019Y-83145038D01*
X14515994Y-82958319D01*
X14573076Y-82757696D01*
X14592322Y-82550000D01*
X14573076Y-82342304D01*
X14515994Y-82141681D01*
X14423019Y-81954962D01*
X14297318Y-81788507D01*
X14143171Y-81647984D01*
X13965828Y-81538177D01*
X13965827Y-81538176D01*
X13823609Y-81483081D01*
X13771327Y-81462827D01*
X13566293Y-81424500D01*
X13357707Y-81424500D01*
X13152673Y-81462827D01*
X13152670Y-81462827D01*
X13152670Y-81462828D01*
X12958172Y-81538176D01*
X12958171Y-81538177D01*
X12780827Y-81647985D01*
X12626683Y-81788505D01*
X12500981Y-81954961D01*
X12408007Y-82141677D01*
X12350923Y-82342308D01*
X12331678Y-82549999D01*
X11938000Y-82549999D01*
X11938000Y-13461999D01*
X12331678Y-13461999D01*
X12331678Y-13462000D01*
X12350923Y-13669691D01*
X12350923Y-13669693D01*
X12350924Y-13669696D01*
X12408006Y-13870319D01*
X12500981Y-14057038D01*
X12620092Y-14214767D01*
X12626683Y-14223494D01*
X12630054Y-14226567D01*
X12780829Y-14364016D01*
X12958172Y-14473823D01*
X13152673Y-14549173D01*
X13357707Y-14587500D01*
X13357710Y-14587500D01*
X13566290Y-14587500D01*
X13566293Y-14587500D01*
X13771327Y-14549173D01*
X13965828Y-14473823D01*
X14143171Y-14364016D01*
X14297318Y-14223493D01*
X14395097Y-14094013D01*
X25978000Y-14094013D01*
X25978000Y-14219000D01*
X26928000Y-14219000D01*
X27428000Y-14219000D01*
X28377999Y-14219000D01*
X28377999Y-14094028D01*
X28377998Y-14094013D01*
X28367505Y-13991302D01*
X28312358Y-13824880D01*
X28312356Y-13824875D01*
X28220315Y-13675654D01*
X28096345Y-13551684D01*
X27950944Y-13461999D01*
X60591678Y-13461999D01*
X60591678Y-13462000D01*
X60610923Y-13669691D01*
X60610923Y-13669693D01*
X60610924Y-13669696D01*
X60668006Y-13870319D01*
X60760981Y-14057038D01*
X60880092Y-14214767D01*
X60886683Y-14223494D01*
X60890054Y-14226567D01*
X61040829Y-14364016D01*
X61218172Y-14473823D01*
X61412673Y-14549173D01*
X61617707Y-14587500D01*
X61617710Y-14587500D01*
X61826290Y-14587500D01*
X61826293Y-14587500D01*
X62031327Y-14549173D01*
X62225828Y-14473823D01*
X62403171Y-14364016D01*
X62557318Y-14223493D01*
X62683019Y-14057038D01*
X62775994Y-13870319D01*
X62833076Y-13669696D01*
X62852322Y-13462000D01*
X62833076Y-13254304D01*
X62775994Y-13053681D01*
X62683019Y-12866962D01*
X62557318Y-12700507D01*
X62403171Y-12559984D01*
X62225828Y-12450177D01*
X62225827Y-12450176D01*
X62083609Y-12395081D01*
X62031327Y-12374827D01*
X61826293Y-12336500D01*
X61617707Y-12336500D01*
X61412673Y-12374827D01*
X61412670Y-12374827D01*
X61412670Y-12374828D01*
X61218172Y-12450176D01*
X61218171Y-12450177D01*
X61040827Y-12559985D01*
X60886683Y-12700505D01*
X60760981Y-12866961D01*
X60668007Y-13053677D01*
X60610923Y-13254308D01*
X60591678Y-13461999D01*
X27950944Y-13461999D01*
X27947124Y-13459643D01*
X27947119Y-13459641D01*
X27780697Y-13404494D01*
X27780690Y-13404493D01*
X27677986Y-13394000D01*
X27428000Y-13394000D01*
X27428000Y-14219000D01*
X26928000Y-14219000D01*
X26928000Y-13394000D01*
X26678029Y-13394000D01*
X26678012Y-13394001D01*
X26575302Y-13404494D01*
X26408880Y-13459641D01*
X26408875Y-13459643D01*
X26259654Y-13551684D01*
X26135684Y-13675654D01*
X26043643Y-13824875D01*
X26043641Y-13824880D01*
X25988494Y-13991302D01*
X25988493Y-13991309D01*
X25978000Y-14094013D01*
X14395097Y-14094013D01*
X14423019Y-14057038D01*
X14515994Y-13870319D01*
X14573076Y-13669696D01*
X14592322Y-13462000D01*
X14573076Y-13254304D01*
X14515994Y-13053681D01*
X14423019Y-12866962D01*
X14297318Y-12700507D01*
X14143171Y-12559984D01*
X13965828Y-12450177D01*
X13965827Y-12450176D01*
X13823609Y-12395081D01*
X13771327Y-12374827D01*
X13566293Y-12336500D01*
X13357707Y-12336500D01*
X13152673Y-12374827D01*
X13152670Y-12374827D01*
X13152670Y-12374828D01*
X12958172Y-12450176D01*
X12958171Y-12450177D01*
X12780827Y-12559985D01*
X12626683Y-12700505D01*
X12500981Y-12866961D01*
X12408007Y-13053677D01*
X12350923Y-13254308D01*
X12331678Y-13461999D01*
X11938000Y-13461999D01*
X11938000Y-12062000D01*
X11957685Y-11994961D01*
X12010489Y-11949206D01*
X12062000Y-11938000D01*
X63122000Y-11938000D01*
X63189039Y-11957685D01*
G37*
%TD.AperFunction*%
%TD*%
M02*
